<?xml version="1.0" encoding="utf-8" standalone="no"?>
<!DOCTYPE svg PUBLIC "-//W3C//DTD SVG 1.1//EN"
  "http://www.w3.org/Graphics/SVG/1.1/DTD/svg11.dtd">
<!-- Created with matplotlib (https://matplotlib.org/) -->
<svg height="345.6pt" version="1.1" viewBox="0 0 460.8 345.6" width="460.8pt" xmlns="http://www.w3.org/2000/svg" xmlns:xlink="http://www.w3.org/1999/xlink">
 <metadata>
  <rdf:RDF xmlns:cc="http://creativecommons.org/ns#" xmlns:dc="http://purl.org/dc/elements/1.1/" xmlns:rdf="http://www.w3.org/1999/02/22-rdf-syntax-ns#">
   <cc:Work>
    <dc:type rdf:resource="http://purl.org/dc/dcmitype/StillImage"/>
    <dc:date>2024-10-14T23:28:27.039907</dc:date>
    <dc:format>image/svg+xml</dc:format>
    <dc:creator>
     <cc:Agent>
      <dc:title>Matplotlib v3.3.1, https://matplotlib.org/</dc:title>
     </cc:Agent>
    </dc:creator>
   </cc:Work>
  </rdf:RDF>
 </metadata>
 <defs>
  <style type="text/css">*{stroke-linecap:butt;stroke-linejoin:round;}</style>
 </defs>
 <g id="figure_1">
  <g id="patch_1">
   <path d="M 0 345.6 
L 460.8 345.6 
L 460.8 0 
L 0 0 
z
" style="fill:#ffffff;"/>
  </g>
  <g id="axes_1">
   <g id="patch_2">
    <path d="M 57.6 307.584 
L 414.72 307.584 
L 414.72 41.472 
L 57.6 41.472 
z
" style="fill:#ffffff;"/>
   </g>
   <g id="matplotlib.axis_1">
    <g id="xtick_1">
     <g id="line2d_1">
      <defs>
       <path d="M 0 0 
L 0 3.5 
" id="mfaeab9d342" style="stroke:#000000;stroke-width:0.8;"/>
      </defs>
      <g>
       <use style="stroke:#000000;stroke-width:0.8;" x="73.832727" xlink:href="#mfaeab9d342" y="307.584"/>
      </g>
     </g>
     <g id="text_1">
      <!-- 0.0 -->
      <g transform="translate(65.881165 322.182437)scale(0.1 -0.1)">
       <defs>
        <path d="M 31.78125 66.40625 
Q 24.171875 66.40625 20.328125 58.90625 
Q 16.5 51.421875 16.5 36.375 
Q 16.5 21.390625 20.328125 13.890625 
Q 24.171875 6.390625 31.78125 6.390625 
Q 39.453125 6.390625 43.28125 13.890625 
Q 47.125 21.390625 47.125 36.375 
Q 47.125 51.421875 43.28125 58.90625 
Q 39.453125 66.40625 31.78125 66.40625 
z
M 31.78125 74.21875 
Q 44.046875 74.21875 50.515625 64.515625 
Q 56.984375 54.828125 56.984375 36.375 
Q 56.984375 17.96875 50.515625 8.265625 
Q 44.046875 -1.421875 31.78125 -1.421875 
Q 19.53125 -1.421875 13.0625 8.265625 
Q 6.59375 17.96875 6.59375 36.375 
Q 6.59375 54.828125 13.0625 64.515625 
Q 19.53125 74.21875 31.78125 74.21875 
z
" id="DejaVuSans-48"/>
        <path d="M 10.6875 12.40625 
L 21 12.40625 
L 21 0 
L 10.6875 0 
z
" id="DejaVuSans-46"/>
       </defs>
       <use xlink:href="#DejaVuSans-48"/>
       <use x="63.623047" xlink:href="#DejaVuSans-46"/>
       <use x="95.410156" xlink:href="#DejaVuSans-48"/>
      </g>
     </g>
    </g>
    <g id="xtick_2">
     <g id="line2d_2">
      <g>
       <use style="stroke:#000000;stroke-width:0.8;" x="138.763636" xlink:href="#mfaeab9d342" y="307.584"/>
      </g>
     </g>
     <g id="text_2">
      <!-- 0.2 -->
      <g transform="translate(130.812074 322.182437)scale(0.1 -0.1)">
       <defs>
        <path d="M 19.1875 8.296875 
L 53.609375 8.296875 
L 53.609375 0 
L 7.328125 0 
L 7.328125 8.296875 
Q 12.9375 14.109375 22.625 23.890625 
Q 32.328125 33.6875 34.8125 36.53125 
Q 39.546875 41.84375 41.421875 45.53125 
Q 43.3125 49.21875 43.3125 52.78125 
Q 43.3125 58.59375 39.234375 62.25 
Q 35.15625 65.921875 28.609375 65.921875 
Q 23.96875 65.921875 18.8125 64.3125 
Q 13.671875 62.703125 7.8125 59.421875 
L 7.8125 69.390625 
Q 13.765625 71.78125 18.9375 73 
Q 24.125 74.21875 28.421875 74.21875 
Q 39.75 74.21875 46.484375 68.546875 
Q 53.21875 62.890625 53.21875 53.421875 
Q 53.21875 48.921875 51.53125 44.890625 
Q 49.859375 40.875 45.40625 35.40625 
Q 44.1875 33.984375 37.640625 27.21875 
Q 31.109375 20.453125 19.1875 8.296875 
z
" id="DejaVuSans-50"/>
       </defs>
       <use xlink:href="#DejaVuSans-48"/>
       <use x="63.623047" xlink:href="#DejaVuSans-46"/>
       <use x="95.410156" xlink:href="#DejaVuSans-50"/>
      </g>
     </g>
    </g>
    <g id="xtick_3">
     <g id="line2d_3">
      <g>
       <use style="stroke:#000000;stroke-width:0.8;" x="203.694545" xlink:href="#mfaeab9d342" y="307.584"/>
      </g>
     </g>
     <g id="text_3">
      <!-- 0.4 -->
      <g transform="translate(195.742983 322.182437)scale(0.1 -0.1)">
       <defs>
        <path d="M 37.796875 64.3125 
L 12.890625 25.390625 
L 37.796875 25.390625 
z
M 35.203125 72.90625 
L 47.609375 72.90625 
L 47.609375 25.390625 
L 58.015625 25.390625 
L 58.015625 17.1875 
L 47.609375 17.1875 
L 47.609375 0 
L 37.796875 0 
L 37.796875 17.1875 
L 4.890625 17.1875 
L 4.890625 26.703125 
z
" id="DejaVuSans-52"/>
       </defs>
       <use xlink:href="#DejaVuSans-48"/>
       <use x="63.623047" xlink:href="#DejaVuSans-46"/>
       <use x="95.410156" xlink:href="#DejaVuSans-52"/>
      </g>
     </g>
    </g>
    <g id="xtick_4">
     <g id="line2d_4">
      <g>
       <use style="stroke:#000000;stroke-width:0.8;" x="268.625455" xlink:href="#mfaeab9d342" y="307.584"/>
      </g>
     </g>
     <g id="text_4">
      <!-- 0.6 -->
      <g transform="translate(260.673892 322.182437)scale(0.1 -0.1)">
       <defs>
        <path d="M 33.015625 40.375 
Q 26.375 40.375 22.484375 35.828125 
Q 18.609375 31.296875 18.609375 23.390625 
Q 18.609375 15.53125 22.484375 10.953125 
Q 26.375 6.390625 33.015625 6.390625 
Q 39.65625 6.390625 43.53125 10.953125 
Q 47.40625 15.53125 47.40625 23.390625 
Q 47.40625 31.296875 43.53125 35.828125 
Q 39.65625 40.375 33.015625 40.375 
z
M 52.59375 71.296875 
L 52.59375 62.3125 
Q 48.875 64.0625 45.09375 64.984375 
Q 41.3125 65.921875 37.59375 65.921875 
Q 27.828125 65.921875 22.671875 59.328125 
Q 17.53125 52.734375 16.796875 39.40625 
Q 19.671875 43.65625 24.015625 45.921875 
Q 28.375 48.1875 33.59375 48.1875 
Q 44.578125 48.1875 50.953125 41.515625 
Q 57.328125 34.859375 57.328125 23.390625 
Q 57.328125 12.15625 50.6875 5.359375 
Q 44.046875 -1.421875 33.015625 -1.421875 
Q 20.359375 -1.421875 13.671875 8.265625 
Q 6.984375 17.96875 6.984375 36.375 
Q 6.984375 53.65625 15.1875 63.9375 
Q 23.390625 74.21875 37.203125 74.21875 
Q 40.921875 74.21875 44.703125 73.484375 
Q 48.484375 72.75 52.59375 71.296875 
z
" id="DejaVuSans-54"/>
       </defs>
       <use xlink:href="#DejaVuSans-48"/>
       <use x="63.623047" xlink:href="#DejaVuSans-46"/>
       <use x="95.410156" xlink:href="#DejaVuSans-54"/>
      </g>
     </g>
    </g>
    <g id="xtick_5">
     <g id="line2d_5">
      <g>
       <use style="stroke:#000000;stroke-width:0.8;" x="333.556364" xlink:href="#mfaeab9d342" y="307.584"/>
      </g>
     </g>
     <g id="text_5">
      <!-- 0.8 -->
      <g transform="translate(325.604801 322.182437)scale(0.1 -0.1)">
       <defs>
        <path d="M 31.78125 34.625 
Q 24.75 34.625 20.71875 30.859375 
Q 16.703125 27.09375 16.703125 20.515625 
Q 16.703125 13.921875 20.71875 10.15625 
Q 24.75 6.390625 31.78125 6.390625 
Q 38.8125 6.390625 42.859375 10.171875 
Q 46.921875 13.96875 46.921875 20.515625 
Q 46.921875 27.09375 42.890625 30.859375 
Q 38.875 34.625 31.78125 34.625 
z
M 21.921875 38.8125 
Q 15.578125 40.375 12.03125 44.71875 
Q 8.5 49.078125 8.5 55.328125 
Q 8.5 64.0625 14.71875 69.140625 
Q 20.953125 74.21875 31.78125 74.21875 
Q 42.671875 74.21875 48.875 69.140625 
Q 55.078125 64.0625 55.078125 55.328125 
Q 55.078125 49.078125 51.53125 44.71875 
Q 48 40.375 41.703125 38.8125 
Q 48.828125 37.15625 52.796875 32.3125 
Q 56.78125 27.484375 56.78125 20.515625 
Q 56.78125 9.90625 50.3125 4.234375 
Q 43.84375 -1.421875 31.78125 -1.421875 
Q 19.734375 -1.421875 13.25 4.234375 
Q 6.78125 9.90625 6.78125 20.515625 
Q 6.78125 27.484375 10.78125 32.3125 
Q 14.796875 37.15625 21.921875 38.8125 
z
M 18.3125 54.390625 
Q 18.3125 48.734375 21.84375 45.5625 
Q 25.390625 42.390625 31.78125 42.390625 
Q 38.140625 42.390625 41.71875 45.5625 
Q 45.3125 48.734375 45.3125 54.390625 
Q 45.3125 60.0625 41.71875 63.234375 
Q 38.140625 66.40625 31.78125 66.40625 
Q 25.390625 66.40625 21.84375 63.234375 
Q 18.3125 60.0625 18.3125 54.390625 
z
" id="DejaVuSans-56"/>
       </defs>
       <use xlink:href="#DejaVuSans-48"/>
       <use x="63.623047" xlink:href="#DejaVuSans-46"/>
       <use x="95.410156" xlink:href="#DejaVuSans-56"/>
      </g>
     </g>
    </g>
    <g id="xtick_6">
     <g id="line2d_6">
      <g>
       <use style="stroke:#000000;stroke-width:0.8;" x="398.487273" xlink:href="#mfaeab9d342" y="307.584"/>
      </g>
     </g>
     <g id="text_6">
      <!-- 1.0 -->
      <g transform="translate(390.53571 322.182437)scale(0.1 -0.1)">
       <defs>
        <path d="M 12.40625 8.296875 
L 28.515625 8.296875 
L 28.515625 63.921875 
L 10.984375 60.40625 
L 10.984375 69.390625 
L 28.421875 72.90625 
L 38.28125 72.90625 
L 38.28125 8.296875 
L 54.390625 8.296875 
L 54.390625 0 
L 12.40625 0 
z
" id="DejaVuSans-49"/>
       </defs>
       <use xlink:href="#DejaVuSans-49"/>
       <use x="63.623047" xlink:href="#DejaVuSans-46"/>
       <use x="95.410156" xlink:href="#DejaVuSans-48"/>
      </g>
     </g>
    </g>
   </g>
   <g id="matplotlib.axis_2">
    <g id="ytick_1">
     <g id="line2d_7">
      <defs>
       <path d="M 0 0 
L -3.5 0 
" id="me6d1a60ce7" style="stroke:#000000;stroke-width:0.8;"/>
      </defs>
      <g>
       <use style="stroke:#000000;stroke-width:0.8;" x="57.6" xlink:href="#me6d1a60ce7" y="265.795956"/>
      </g>
     </g>
     <g id="text_7">
      <!-- −1 -->
      <g transform="translate(35.857813 269.595175)scale(0.1 -0.1)">
       <defs>
        <path d="M 10.59375 35.5 
L 73.1875 35.5 
L 73.1875 27.203125 
L 10.59375 27.203125 
z
" id="DejaVuSans-8722"/>
       </defs>
       <use xlink:href="#DejaVuSans-8722"/>
       <use x="83.789062" xlink:href="#DejaVuSans-49"/>
      </g>
     </g>
    </g>
    <g id="ytick_2">
     <g id="line2d_8">
      <g>
       <use style="stroke:#000000;stroke-width:0.8;" x="57.6" xlink:href="#me6d1a60ce7" y="208.525257"/>
      </g>
     </g>
     <g id="text_8">
      <!-- 0 -->
      <g transform="translate(44.2375 212.324475)scale(0.1 -0.1)">
       <use xlink:href="#DejaVuSans-48"/>
      </g>
     </g>
    </g>
    <g id="ytick_3">
     <g id="line2d_9">
      <g>
       <use style="stroke:#000000;stroke-width:0.8;" x="57.6" xlink:href="#me6d1a60ce7" y="151.254557"/>
      </g>
     </g>
     <g id="text_9">
      <!-- 1 -->
      <g transform="translate(44.2375 155.053776)scale(0.1 -0.1)">
       <use xlink:href="#DejaVuSans-49"/>
      </g>
     </g>
    </g>
    <g id="ytick_4">
     <g id="line2d_10">
      <g>
       <use style="stroke:#000000;stroke-width:0.8;" x="57.6" xlink:href="#me6d1a60ce7" y="93.983857"/>
      </g>
     </g>
     <g id="text_10">
      <!-- 2 -->
      <g transform="translate(44.2375 97.783076)scale(0.1 -0.1)">
       <use xlink:href="#DejaVuSans-50"/>
      </g>
     </g>
    </g>
   </g>
   <g id="line2d_11">
    <path clip-path="url(#pe314822a9c)" d="M 73.832727 207.870502 
L 74.527175 207.270005 
L 74.8744 207.342998 
L 75.568848 208.52132 
L 76.263296 207.669462 
L 76.61052 207.744302 
L 77.304968 208.450022 
L 77.999416 208.068476 
L 80.082761 208.548594 
L 80.777209 208.312992 
L 81.471657 208.867736 
L 81.818881 208.950676 
L 82.51333 208.247057 
L 83.207778 209.269193 
L 83.555002 209.351999 
L 84.24945 208.180124 
L 84.943898 209.659861 
L 85.291122 209.732951 
L 85.985571 208.087286 
L 86.680019 210.030577 
L 87.027243 210.093719 
L 87.721691 207.986263 
L 88.416139 210.399507 
L 88.763363 210.448446 
L 89.457812 207.887572 
L 90.15226 210.773199 
L 90.499484 210.800486 
L 91.193932 207.793718 
L 91.88838 211.152736 
L 92.235604 211.149706 
L 92.930053 207.706013 
L 93.624501 211.539265 
L 93.971725 211.496307 
L 94.666173 207.63118 
L 95.360621 211.933999 
L 95.707845 211.839524 
L 96.402294 207.496605 
L 97.096742 212.052625 
L 97.443966 211.750119 
L 98.138414 206.417447 
L 98.485638 208.462231 
L 98.832862 209.795539 
L 99.180086 208.438879 
L 99.874535 201.148611 
L 100.221758 203.407235 
L 100.568983 204.806143 
L 100.916207 203.551612 
L 101.610655 200.149237 
L 101.957879 200.208803 
L 102.305103 199.785151 
L 102.652327 197.468192 
L 103.346777 211.698323 
L 104.041224 193.820296 
L 104.388447 188.299265 
L 104.735677 184.922196 
L 105.082897 189.054026 
L 105.43012 184.320673 
L 105.777345 183.05523 
L 106.12457 176.580025 
L 106.471806 162.35635 
L 106.819014 162.779463 
L 107.51346 181.352025 
L 107.860686 186.919968 
L 108.207909 196.689009 
L 108.555134 195.73904 
L 109.249584 180.027481 
L 109.596828 168.017939 
L 109.944023 162.945837 
L 110.29125 168.40549 
L 110.638476 185.770052 
L 111.68015 207.425649 
L 112.027374 197.856834 
L 112.374597 194.468777 
L 112.721822 198.810338 
L 113.41627 204.150847 
L 114.110718 201.595906 
L 114.457942 202.738367 
L 115.15239 210.513653 
L 115.846839 205.851435 
L 116.194063 206.273705 
L 116.888511 193.797545 
L 117.582959 208.384094 
L 117.930183 208.202904 
L 118.277407 209.303671 
L 118.624631 209.998407 
L 119.31908 207.757435 
L 119.666304 207.415682 
L 120.360752 202.704055 
L 121.0552 207.411357 
L 121.402424 207.314639 
L 121.749648 208.08966 
L 122.096872 208.582721 
L 122.791321 206.860351 
L 123.138545 207.399983 
L 123.832993 217.42603 
L 124.527441 206.388018 
L 124.874665 206.016045 
L 125.569114 199.222533 
L 126.263562 206.062386 
L 126.610786 206.093995 
L 127.305234 209.842616 
L 127.999682 205.527269 
L 128.346906 205.606684 
L 129.041354 209.774552 
L 129.735802 205.069796 
L 130.083027 205.43598 
L 130.777475 217.625432 
L 131.471923 204.920446 
L 131.819147 205.710228 
L 132.513595 211.717056 
L 133.208043 205.87823 
L 133.555267 206.388639 
L 134.249716 209.204825 
L 134.944164 206.810775 
L 135.291388 207.201347 
L 135.985836 209.477283 
L 136.680284 207.690592 
L 137.027508 207.956302 
L 137.721957 208.821293 
L 138.416405 208.580597 
L 138.763629 208.799341 
L 139.458077 209.580196 
L 140.152525 209.449655 
L 140.499749 209.518098 
L 140.846973 208.801333 
L 141.194198 208.386316 
L 141.888646 210.336055 
L 142.23587 210.442951 
L 142.930318 210.321755 
L 143.624766 211.18331 
L 143.97199 211.084801 
L 144.666439 206.781611 
L 145.360887 212.108303 
L 145.708111 211.893335 
L 146.402559 206.676165 
L 147.097007 213.024075 
L 147.444231 212.540656 
L 148.13868 204.181605 
L 148.833128 214.065459 
L 149.180352 213.477083 
L 149.527576 209.63727 
L 149.8748 207.270167 
L 150.569248 215.10817 
L 150.916473 213.423996 
L 151.263695 202.910918 
L 151.610921 197.85483 
L 151.958145 209.503225 
L 152.305368 216.152502 
L 152.652593 212.186987 
L 152.999816 201.25957 
L 153.347041 197.739524 
L 153.694265 209.681842 
L 154.041488 214.891712 
L 154.388713 215.079716 
L 154.735936 224.283957 
L 155.083163 228.452037 
L 155.430384 219.081139 
L 155.777609 213.207896 
L 156.124833 215.003892 
L 156.472057 220.679019 
L 156.819282 223.203691 
L 157.166505 216.840666 
L 157.51373 213.165726 
L 157.860954 212.316388 
L 158.208177 204.020276 
L 158.555403 199.353379 
L 159.24985 213.649129 
L 159.597074 211.804019 
L 159.944298 203.73954 
L 160.291523 199.598417 
L 160.638746 207.95647 
L 160.98597 213.143922 
L 161.333195 211.283592 
L 161.680418 206.4528 
L 162.027643 204.478679 
L 162.374867 209.211797 
L 162.722091 211.714905 
L 163.069315 210.155636 
L 163.416539 206.415351 
L 163.763763 205.009723 
L 164.110987 208.546131 
L 164.805436 211.028126 
L 165.152659 220.488691 
L 165.499886 223.702396 
L 165.847108 212.941449 
L 166.194332 207.642651 
L 166.541556 207.113408 
L 166.888779 197.353954 
L 167.236005 192.926908 
L 167.583228 202.628511 
L 167.930452 207.055076 
L 168.277676 207.009966 
L 168.6249 213.218171 
L 168.972125 214.654681 
L 169.319349 207.369813 
L 169.666572 203.05338 
L 170.013797 203.207272 
L 170.361021 204.05257 
L 170.708245 204.023283 
L 171.402693 200.251883 
L 171.749917 202.129679 
L 172.097141 211.690946 
L 172.444367 215.055255 
L 172.79159 203.885872 
L 173.138813 197.362605 
L 173.486038 196.288215 
L 173.833261 188.949695 
L 174.180487 186.519061 
L 174.527709 194.503499 
L 174.874935 196.728418 
L 175.222154 184.778625 
L 175.569395 178.431074 
L 175.916607 184.165075 
L 176.263832 185.179026 
L 176.611055 180.296329 
L 177.305531 125.173988 
L 177.652695 129.895859 
L 177.999924 153.211867 
L 178.347145 144.555958 
L 178.694428 122.479346 
L 179.041599 128.262283 
L 179.736044 156.023377 
L 180.083265 171.040017 
L 180.777718 152.269173 
L 181.124942 154.6884 
L 181.472166 158.82773 
L 182.166614 198.619091 
L 182.513838 187.46705 
L 182.861062 170.504383 
L 183.208286 171.073899 
L 184.249959 195.560036 
L 185.291631 205.470029 
L 185.638855 207.395861 
L 186.333303 201.745469 
L 186.680527 205.17265 
L 187.027751 215.89914 
L 187.374976 221.194047 
L 188.069424 204.601332 
L 188.763872 203.286342 
L 189.111096 202.934563 
L 189.805544 205.97173 
L 190.152768 204.590465 
L 190.499992 198.36049 
L 190.847217 195.905395 
L 191.541665 206.830441 
L 191.888889 206.452162 
L 192.236113 205.003627 
L 192.583337 204.556474 
L 193.277785 206.828907 
L 193.625009 207.540145 
L 193.972233 209.902983 
L 194.319457 211.039889 
L 195.013906 206.936087 
L 195.36113 207.032145 
L 195.708354 208.149897 
L 196.055578 208.753608 
L 196.750026 206.766651 
L 197.09725 208.214134 
L 197.444474 215.782466 
L 197.791699 220.45632 
L 198.486147 207.25197 
L 198.833371 208.397233 
L 199.180595 214.08879 
L 199.527819 216.388815 
L 200.222267 207.386496 
L 200.569491 206.491228 
L 200.916715 203.960832 
L 201.263939 202.99092 
L 201.958387 207.587923 
L 202.305612 207.355039 
L 202.652836 205.973215 
L 203.00006 205.425872 
L 203.694508 207.960755 
L 204.041732 208.989722 
L 204.388956 212.168664 
L 204.73618 213.696655 
L 205.430628 208.515185 
L 205.777852 209.596628 
L 206.125077 213.26425 
L 206.472301 214.658981 
L 207.166749 208.974007 
L 207.513973 206.893825 
L 207.861197 200.08405 
L 208.208421 197.065607 
L 208.902869 208.924707 
L 209.250093 209.756127 
L 209.597318 211.112137 
L 209.944542 211.841458 
L 210.63899 209.692236 
L 210.986214 209.112863 
L 211.333438 207.228433 
L 211.680662 206.430933 
L 212.37511 209.905846 
L 212.722334 210.879785 
L 213.069558 213.714363 
L 213.416783 215.092821 
L 214.111231 210.510845 
L 214.458455 210.499491 
L 215.152903 210.962899 
L 215.500127 210.845556 
L 215.847351 210.856394 
L 216.194575 209.604656 
L 216.541799 204.61063 
L 216.889024 202.120977 
L 217.583472 211.009545 
L 217.930696 210.461514 
L 218.27792 207.321824 
L 218.625144 206.056548 
L 219.319592 211.526679 
L 219.666816 211.447136 
L 220.01404 210.515312 
L 220.361264 210.190058 
L 221.055713 212.041361 
L 221.402937 210.857034 
L 221.750161 206.527284 
L 222.097385 204.767432 
L 222.791833 211.786755 
L 223.139057 211.002525 
L 223.486281 208.746331 
L 223.833505 207.844097 
L 224.18073 209.556237 
L 224.527954 210.684203 
L 225.569626 210.305392 
L 226.264074 209.574929 
L 227.65297 208.765067 
L 228.000195 208.432053 
L 228.347419 208.377384 
L 228.694643 208.696963 
L 229.041867 208.66913 
L 229.736315 207.300421 
L 230.083539 207.276918 
L 230.430763 207.728663 
L 230.777987 207.718134 
L 231.125211 206.520772 
L 231.81966 201.654267 
L 232.166884 199.27188 
L 232.514108 195.012078 
L 233.208556 181.272694 
L 233.555781 182.903867 
L 233.903004 197.649624 
L 234.250229 202.499974 
L 234.944676 165.616151 
L 235.2919 170.574676 
L 235.639123 195.659999 
L 235.986353 206.84463 
L 236.680798 155.363343 
L 237.028021 152.914709 
L 237.72247 174.6213 
L 238.416918 153.65863 
L 238.764149 153.87631 
L 239.111368 155.938182 
L 239.458585 155.68406 
L 239.805817 153.786806 
L 240.153044 160.095166 
L 240.500265 172.085176 
L 240.847491 171.10142 
L 241.194715 159.651912 
L 241.541939 153.790564 
L 241.889165 162.166275 
L 242.236388 179.116825 
L 242.583612 180.816656 
L 242.930837 165.874487 
L 243.27806 156.549159 
L 243.625287 171.554537 
L 243.972507 206.464828 
L 244.319732 212.635714 
L 244.666957 182.986455 
L 245.014179 167.429748 
L 245.70863 207.765198 
L 246.055854 197.880664 
L 246.403078 174.144439 
L 246.750302 171.27796 
L 247.444752 208.258668 
L 247.791976 197.500947 
L 248.139201 179.019467 
L 248.486425 179.023461 
L 249.180874 206.236443 
L 249.528098 196.218075 
L 249.875322 182.756054 
L 250.222547 184.82514 
L 250.56977 201.343805 
L 250.916995 210.191212 
L 251.611444 186.000736 
L 251.958668 188.344232 
L 252.305892 200.752732 
L 252.653116 205.854736 
L 253.347564 188.393855 
L 253.694789 191.44887 
L 254.042012 203.461972 
L 254.389237 207.62273 
L 255.083685 190.356811 
L 255.43091 197.002854 
L 255.778133 216.598416 
L 256.125357 219.973049 
L 256.472581 202.59526 
L 256.819805 192.758422 
L 257.167029 191.962029 
L 257.514253 190.344689 
L 257.861477 190.271771 
L 258.208701 192.534667 
L 258.555925 193.476946 
L 258.90315 198.323981 
L 259.250374 210.029105 
L 259.597598 211.64515 
L 259.944822 201.408646 
L 260.292046 195.096748 
L 260.63927 200.645083 
L 260.986494 213.89683 
L 261.333718 215.106706 
L 261.680942 204.435066 
L 262.028166 199.958729 
L 263.069838 203.903386 
L 263.764287 206.967582 
L 264.111511 210.489077 
L 264.458735 216.006784 
L 264.805959 217.144632 
L 265.153183 214.547045 
L 265.500407 214.27959 
L 265.847631 207.690772 
L 266.194856 193.607507 
L 266.542079 195.325376 
L 266.889304 211.653617 
L 267.236528 221.125181 
L 267.583752 220.72094 
L 267.930976 216.922059 
L 268.2782 218.183631 
L 268.972648 228.945136 
L 269.319872 224.037958 
L 269.667096 210.861482 
L 270.01432 210.806252 
L 270.708768 236.424006 
L 271.055993 230.653661 
L 271.403216 212.981156 
L 271.750441 211.699941 
L 272.444888 244.974495 
L 272.792113 240.57257 
L 273.139336 223.244014 
L 273.48656 221.553586 
L 273.833785 239.822826 
L 274.181008 251.219106 
L 274.528233 240.797969 
L 274.875455 213.521079 
L 275.222681 206.927379 
L 275.917129 256.333861 
L 276.264356 246.663551 
L 276.611577 220.541888 
L 276.958802 221.937844 
L 277.306027 248.024445 
L 277.65325 260.205113 
L 278.3477 223.21935 
L 279.042151 260.880447 
L 279.389375 259.460144 
L 280.083826 215.821001 
L 280.778279 251.544341 
L 281.125503 245.645013 
L 281.472727 220.706869 
L 281.819951 209.569219 
L 282.5144 246.079027 
L 282.861624 243.900944 
L 283.208848 229.806431 
L 283.556072 221.602989 
L 284.250521 238.359003 
L 284.597745 234.284841 
L 284.944969 213.019223 
L 285.292193 199.647878 
L 285.986641 229.976029 
L 286.333866 227.683009 
L 286.681089 207.72755 
L 287.028313 195.750792 
L 287.722762 223.311795 
L 288.069986 223.829512 
L 288.41721 219.430796 
L 288.764434 216.642714 
L 289.458882 220.269932 
L 289.806106 220.195945 
L 290.500555 222.237453 
L 290.847779 221.428878 
L 291.542227 220.877852 
L 291.889451 217.830607 
L 292.236675 216.877782 
L 292.931123 225.853406 
L 293.278347 225.300888 
L 293.972796 197.77672 
L 294.667244 230.038007 
L 295.014468 231.342277 
L 295.361692 213.799148 
L 295.708916 202.839213 
L 296.403365 238.48638 
L 296.750589 239.690216 
L 297.097813 226.964569 
L 297.445037 220.461938 
L 298.139486 246.127161 
L 298.48671 242.864696 
L 298.833935 226.674412 
L 299.18116 224.439647 
L 299.87561 259.044451 
L 300.222836 250.681062 
L 300.570057 234.73847 
L 300.917284 239.757381 
L 301.264507 254.611129 
L 301.611735 257.683973 
L 302.306183 223.685311 
L 302.653407 233.637117 
L 303.000632 246.85486 
L 303.347856 245.841571 
L 304.042303 214.452898 
L 304.389528 223.595014 
L 304.736754 235.666481 
L 305.083978 234.13231 
L 305.778426 214.507072 
L 306.472874 226.960299 
L 306.820098 225.295969 
L 307.514545 198.488109 
L 308.208995 218.264163 
L 308.556219 216.029175 
L 309.250666 192.764904 
L 309.945115 209.855245 
L 310.29234 209.435919 
L 310.986787 226.068256 
L 311.681236 204.017875 
L 312.02846 202.268651 
L 312.722908 215.555034 
L 313.417357 196.421787 
L 313.764581 195.961368 
L 314.111805 202.894087 
L 314.459029 206.420092 
L 315.153477 189.997144 
L 315.500701 186.693312 
L 316.195151 198.697198 
L 316.542373 191.109469 
L 316.8896 187.986517 
L 317.584048 196.694641 
L 317.931272 198.110248 
L 318.62572 191.352257 
L 318.972944 192.98018 
L 319.320168 207.033824 
L 319.667392 212.05463 
L 320.014616 201.442101 
L 320.361841 196.339712 
L 320.709065 197.042707 
L 321.056289 197.214741 
L 322.097961 198.363035 
L 322.445185 198.984947 
L 322.792409 200.080324 
L 323.139633 200.513193 
L 323.486857 200.573172 
L 323.834081 199.536601 
L 324.181305 203.783375 
L 324.52853 217.928946 
L 324.875754 221.129605 
L 325.222978 209.018691 
L 325.570202 202.596682 
L 325.917426 202.067579 
L 326.26465 199.924938 
L 326.611874 199.688226 
L 326.959098 202.283454 
L 328.347995 207.964476 
L 328.695219 206.432985 
L 329.042443 205.439356 
L 329.389667 207.104365 
L 329.736891 211.77931 
L 330.084115 213.083318 
L 330.431339 209.366255 
L 330.778563 207.500614 
L 331.125788 206.842706 
L 331.473012 204.085752 
L 331.820236 203.625966 
L 332.16746 206.503934 
L 332.514684 208.332661 
L 332.861908 207.496145 
L 333.209132 204.753649 
L 333.556356 204.283716 
L 333.90358 207.064639 
L 334.250804 208.126373 
L 334.598029 210.695572 
L 334.945253 218.32236 
L 335.292477 219.775169 
L 335.639701 212.658024 
L 336.334149 206.887993 
L 336.681373 198.9441 
L 337.028597 197.262208 
L 337.375821 204.844424 
L 337.723045 208.676461 
L 338.070269 210.956434 
L 338.417494 217.58583 
L 338.764718 218.708468 
L 339.111942 212.548937 
L 339.459166 209.671216 
L 339.80639 207.753654 
L 340.153614 201.298407 
L 340.500838 199.935398 
L 340.848062 206.035467 
L 341.195286 209.381537 
L 341.54251 210.337907 
L 341.889734 212.895218 
L 342.236959 213.311932 
L 342.584183 211.051986 
L 342.931407 209.871729 
L 344.320303 209.969745 
L 344.667527 210.405551 
L 345.014751 208.647005 
L 345.361975 203.016354 
L 345.709199 201.885871 
L 346.056424 206.685302 
L 346.750872 210.075133 
L 347.098096 216.08314 
L 347.44532 216.444682 
L 347.792544 209.690098 
L 348.139768 205.914986 
L 348.486992 204.376142 
L 348.834216 201.05846 
L 349.18144 199.801275 
L 349.528665 201.198016 
L 349.875889 201.481866 
L 350.223113 199.812635 
L 350.570337 197.173798 
L 350.917561 195.921622 
L 351.264785 196.784427 
L 351.612009 195.202862 
L 351.959233 197.100779 
L 352.306457 210.291184 
L 352.653681 213.231178 
L 353.34813 189.151103 
L 353.695354 191.837183 
L 354.042578 205.779213 
L 354.389802 207.00151 
L 354.737026 192.073072 
L 355.08425 182.066709 
L 355.431476 181.702045 
L 355.778697 192.464502 
L 356.125924 195.3522 
L 356.473147 184.43473 
L 356.820372 177.071018 
L 357.167598 186.259868 
L 357.514821 202.197871 
L 357.862045 194.994985 
L 358.20927 181.370212 
L 358.556494 176.707062 
L 358.903722 181.558569 
L 359.250943 189.529324 
L 359.598166 181.366438 
L 359.945392 179.805333 
L 360.292617 181.696542 
L 360.639843 179.494633 
L 360.987069 179.791394 
L 361.334279 177.645283 
L 362.028738 194.11365 
L 362.375962 205.723363 
L 362.723186 211.572913 
L 363.070411 200.011262 
L 363.417635 193.801196 
L 363.764859 195.940651 
L 364.112083 201.410949 
L 364.459307 204.691985 
L 365.153755 196.508083 
L 365.848203 197.388366 
L 366.195428 197.873401 
L 366.889876 197.809618 
L 367.2371 196.860948 
L 367.584324 193.351806 
L 367.931548 191.448766 
L 368.278772 194.104343 
L 368.625996 194.567656 
L 368.97322 193.405982 
L 369.320444 203.181136 
L 369.667669 209.439293 
L 370.362117 189.696671 
L 370.709341 186.91198 
L 371.40379 197.911087 
L 371.751013 187.897944 
L 372.792694 172.06198 
L 373.139913 170.539925 
L 373.487129 172.551046 
L 373.834359 176.14019 
L 374.181584 184.600411 
L 374.528807 197.84574 
L 374.876032 194.114218 
L 375.223256 184.192955 
L 375.917714 176.298501 
L 376.264925 174.988238 
L 376.612151 173.016108 
L 376.959379 181.976798 
L 377.306602 186.010619 
L 377.653826 187.912283 
L 378.001051 193.712628 
L 378.348272 187.522423 
L 378.6955 188.964493 
L 379.042723 193.824485 
L 379.737171 210.943525 
L 380.084396 201.020436 
L 380.43162 194.790172 
L 380.778844 196.822093 
L 381.473292 189.941644 
L 382.16774 198.464545 
L 382.514964 199.356 
L 383.209412 216.966182 
L 383.903861 200.640835 
L 384.251085 201.567748 
L 384.945533 218.541662 
L 385.639981 203.013171 
L 385.987205 203.512163 
L 386.681653 189.406719 
L 387.376102 204.711401 
L 387.723326 204.654061 
L 388.417774 214.761638 
L 389.112222 204.720137 
L 389.459446 205.064256 
L 390.153894 213.484572 
L 390.848343 205.211096 
L 391.195567 205.38654 
L 391.890015 211.09033 
L 392.584463 205.650919 
L 392.931687 205.756471 
L 393.626135 209.426574 
L 394.320584 206.064201 
L 394.667808 206.147146 
L 395.362256 208.799466 
L 396.056704 206.46834 
L 396.403928 206.544057 
L 397.098376 208.667623 
L 397.792825 206.869964 
L 398.487273 207.737552 
L 398.487273 207.737552 
" style="fill:none;stroke:#1f77b4;stroke-linecap:square;stroke-width:1.5;"/>
   </g>
   <g id="line2d_12">
    <path clip-path="url(#pe314822a9c)" d="M 73.832727 208.525257 
L 78.205374 208.532518 
L 81.849246 208.513977 
L 86.58628 208.518779 
L 87.679442 208.550756 
L 90.958927 208.519653 
L 94.238412 208.554705 
L 95.695961 208.525689 
L 96.789123 208.522908 
L 97.15351 208.448051 
L 97.882284 208.630942 
L 98.611059 208.373748 
L 100.432995 208.284845 
L 100.797382 208.139547 
L 101.890544 208.457717 
L 102.983706 208.576311 
L 103.71248 208.211077 
L 104.441255 208.541568 
L 105.170029 210.956162 
L 105.898803 207.845821 
L 106.627577 216.667169 
L 107.356345 149.760849 
L 107.72031 144.444314 
L 108.084697 141.624362 
L 108.44879 139.984979 
L 108.813178 137.692312 
L 109.541633 112.183406 
L 110.270025 176.780429 
L 110.634328 173.904357 
L 110.998666 172.05119 
L 111.72744 216.870142 
L 112.456214 207.30697 
L 113.184989 208.964815 
L 113.913763 208.608046 
L 115.735699 208.49798 
L 116.464474 208.677603 
L 116.828861 208.818336 
L 117.922023 207.798342 
L 118.28641 207.376816 
L 119.015184 208.600735 
L 120.108346 208.779682 
L 120.472733 208.896958 
L 121.201508 208.357754 
L 121.930282 208.164932 
L 122.659057 208.268659 
L 123.387831 207.212783 
L 124.116606 206.912202 
L 124.84538 204.591696 
L 125.574153 208.577274 
L 126.302928 202.405104 
L 127.0317 206.596004 
L 127.760475 208.312319 
L 128.489249 208.560651 
L 130.675572 208.52488 
L 131.404347 208.212429 
L 132.133121 208.63966 
L 132.861896 208.659296 
L 133.59067 208.455383 
L 134.683832 208.532989 
L 135.776994 208.516335 
L 145.615449 208.494511 
L 145.979836 208.4382 
L 147.072998 208.572161 
L 149.259321 208.513262 
L 149.623708 208.422556 
L 151.081257 208.609136 
L 152.174419 208.526893 
L 153.631968 208.54498 
L 155.818291 208.601786 
L 156.911453 208.860511 
L 157.640227 209.672434 
L 158.369002 208.76509 
L 159.097776 208.724174 
L 159.826551 209.762099 
L 160.555325 209.324615 
L 161.284099 208.195548 
L 162.741648 208.565628 
L 163.470423 208.38928 
L 164.563584 208.547702 
L 165.656746 208.525482 
L 166.38552 208.479127 
L 167.478682 208.962877 
L 167.843069 209.193037 
L 168.571844 208.325307 
L 169.300618 206.702448 
L 170.393779 208.612347 
L 170.758166 209.226256 
L 171.486941 209.255588 
L 172.215715 207.956883 
L 172.94449 207.494413 
L 174.037651 208.383842 
L 174.402038 208.515461 
L 175.130813 209.369525 
L 175.859587 207.367009 
L 176.952748 206.934021 
L 177.317135 206.603163 
L 178.045909 211.266226 
L 178.774682 97.36542 
L 179.136605 115.920161 
L 179.500992 143.063268 
L 179.864742 134.579575 
L 180.229129 123.16266 
L 180.956971 53.568 
L 181.685438 80.626797 
L 182.413873 192.619005 
L 182.77826 190.665136 
L 183.142647 187.631958 
L 183.871409 204.520972 
L 184.600181 201.205432 
L 185.328956 205.433021 
L 186.05773 205.063422 
L 186.786504 206.001297 
L 187.515279 205.058545 
L 188.244053 209.93133 
L 188.972828 201.530559 
L 189.701602 199.86694 
L 190.430376 203.722678 
L 191.15915 192.88767 
L 191.887925 202.834549 
L 192.616699 206.874876 
L 193.345473 208.063374 
L 194.438635 208.482662 
L 195.16741 208.566172 
L 196.260571 208.539063 
L 197.71812 208.282155 
L 198.811282 208.547482 
L 199.540056 208.546793 
L 201.361992 208.449116 
L 202.819541 208.508774 
L 204.27709 208.456941 
L 205.370252 208.481456 
L 206.463414 208.525855 
L 209.742899 208.437826 
L 210.471673 208.426071 
L 212.293609 208.542972 
L 215.937482 208.493735 
L 217.030643 208.480123 
L 217.759418 208.387039 
L 218.123805 208.372048 
L 218.852579 208.617418 
L 220.674516 208.560824 
L 221.767677 208.555376 
L 223.589613 208.439867 
L 224.682775 208.653081 
L 225.41155 208.454942 
L 226.869099 208.627154 
L 227.96226 208.470341 
L 231.606132 208.430203 
L 233.063681 208.284173 
L 233.428069 208.107939 
L 234.156843 207.34433 
L 234.885617 208.019771 
L 235.614392 206.754572 
L 236.343166 210.553403 
L 237.07194 206.836583 
L 237.800714 198.287056 
L 238.529475 193.91329 
L 239.25822 64.561901 
L 239.983492 153.203912 
L 240.712218 68.381097 
L 241.440573 169.014673 
L 242.168867 93.592898 
L 242.897617 180.510656 
L 243.626292 152.751376 
L 244.355063 201.785776 
L 245.083801 179.628744 
L 245.812575 204.335566 
L 246.541341 193.708112 
L 247.270115 203.857234 
L 247.998872 187.028762 
L 248.727645 201.798802 
L 249.456407 192.952428 
L 250.185179 197.662612 
L 250.913933 188.844401 
L 251.27832 189.131002 
L 251.642702 189.227191 
L 252.371471 196.773175 
L 253.100235 188.551421 
L 253.829008 202.040627 
L 254.557775 192.032664 
L 255.286549 202.679429 
L 256.015313 191.528315 
L 256.744085 193.001252 
L 257.47286 207.051703 
L 258.201634 208.698457 
L 258.930409 207.070076 
L 260.02357 208.281307 
L 260.387957 208.752648 
L 261.116732 207.758049 
L 261.845506 208.437282 
L 262.574281 208.430549 
L 263.303055 208.094926 
L 264.03183 208.437634 
L 264.760604 209.249227 
L 265.489379 209.558541 
L 266.218153 207.10863 
L 266.946928 207.165295 
L 267.675702 211.706731 
L 268.404476 210.933568 
L 269.13325 210.57783 
L 269.862025 208.376881 
L 270.590799 208.333553 
L 271.319574 209.606253 
L 272.048348 208.932162 
L 272.777123 205.765619 
L 273.505897 219.311043 
L 274.23467 227.834192 
L 274.599043 228.209285 
L 274.963429 228.250466 
L 275.692203 269.927288 
L 276.420864 222.161905 
L 277.149634 282.772138 
L 277.878295 240.530318 
L 278.607053 252.605553 
L 279.335802 256.512072 
L 280.064561 242.101096 
L 280.793291 258.23503 
L 281.522045 237.110767 
L 282.250747 267.381991 
L 282.979519 225.082877 
L 283.708242 251.027643 
L 284.437014 218.471837 
L 285.165786 217.511565 
L 285.894559 215.89862 
L 286.623333 205.212789 
L 288.080882 213.008118 
L 288.809656 207.66413 
L 289.538431 209.008455 
L 290.267205 208.563752 
L 291.724754 209.077743 
L 292.453529 207.402207 
L 293.182303 214.146166 
L 293.911077 207.811654 
L 294.639852 206.537376 
L 295.368626 224.836796 
L 296.097401 219.618232 
L 296.826173 238.471932 
L 297.554941 263.892932 
L 298.283709 234.075557 
L 299.012475 267.696442 
L 299.74124 229.59385 
L 300.469974 282.166805 
L 301.198745 218.722645 
L 301.927293 295.488 
L 302.656058 225.158077 
L 303.384772 243.95026 
L 304.113546 212.306682 
L 304.842321 208.865417 
L 305.571095 208.754197 
L 306.29987 209.246255 
L 307.028644 209.239319 
L 307.757419 208.487226 
L 308.486193 208.859156 
L 309.214968 208.298448 
L 310.672517 208.745903 
L 311.401291 208.49372 
L 312.130065 208.641056 
L 312.85884 207.580731 
L 313.587614 209.435536 
L 314.316389 200.890445 
L 315.045163 184.978673 
L 315.773934 188.047935 
L 316.502705 183.345469 
L 317.23148 211.179325 
L 318.689029 204.204649 
L 319.417785 181.767009 
L 320.14656 196.392428 
L 320.875331 201.648519 
L 321.604105 203.78486 
L 322.33288 202.195717 
L 323.061654 205.169595 
L 323.790428 209.70788 
L 324.519203 209.041418 
L 325.247977 207.135521 
L 325.976752 207.69525 
L 326.705526 208.631567 
L 327.798688 208.592246 
L 328.89185 208.509361 
L 329.985011 208.490679 
L 331.078173 208.492612 
L 333.264496 208.633807 
L 334.722045 207.930983 
L 335.45082 208.512854 
L 337.637143 208.262524 
L 338.365918 207.829858 
L 339.094692 208.555449 
L 340.187854 208.34237 
L 340.916628 208.403204 
L 341.281015 208.485356 
L 342.00979 208.325565 
L 342.738564 208.539287 
L 344.5605 208.515019 
L 345.289275 208.399793 
L 345.653662 208.290098 
L 347.475598 208.603819 
L 347.839986 208.59988 
L 348.933147 208.088191 
L 349.297534 207.857308 
L 350.026309 208.466775 
L 350.755083 208.540723 
L 351.483858 209.110548 
L 352.577019 206.795007 
L 352.941407 206.221169 
L 353.670181 210.461534 
L 354.398955 208.624513 
L 355.127729 203.111804 
L 355.856501 211.495716 
L 356.585274 168.55345 
L 356.949501 172.064354 
L 357.313889 176.80989 
L 358.04257 151.227517 
L 358.771034 119.846829 
L 359.499235 188.702556 
L 360.227982 117.669225 
L 360.956569 195.617331 
L 361.685329 172.686736 
L 362.414052 214.482755 
L 363.142827 210.413342 
L 363.871601 205.445471 
L 364.600375 208.972212 
L 365.329149 207.719114 
L 366.786698 208.554277 
L 367.515472 208.599346 
L 368.244247 208.951826 
L 368.973021 205.121603 
L 369.701796 207.422129 
L 370.43057 212.044902 
L 371.52373 204.279914 
L 371.888118 201.549621 
L 372.616889 175.349878 
L 373.345572 118.585551 
L 374.07434 143.973322 
L 374.8023 103.901944 
L 375.531068 170.136653 
L 376.259686 155.84468 
L 376.988461 206.561541 
L 377.717234 204.063418 
L 378.446008 209.981761 
L 379.174783 209.340999 
L 379.903557 207.710607 
L 380.632331 207.844423 
L 380.996719 208.515292 
L 381.361106 208.9294 
L 382.454256 191.731897 
L 382.818628 186.727774 
L 383.547401 204.297538 
L 384.276171 200.154495 
L 385.004945 200.852766 
L 385.73372 207.804217 
L 386.462494 208.73538 
L 387.191269 209.01536 
L 388.28443 208.448329 
L 388.648818 208.335573 
L 389.377592 208.633737 
L 390.106366 208.416005 
L 391.199528 208.54939 
L 398.487273 208.57466 
L 398.487273 208.57466 
" style="fill:none;stroke:#ff7f0e;stroke-linecap:square;stroke-width:1.5;"/>
   </g>
   <g id="line2d_13">
    <path clip-path="url(#pe314822a9c)" d="M 73.832727 208.525257 
L 79.838331 208.538351 
L 91.142997 208.423346 
L 91.496267 208.33001 
L 92.55608 207.324202 
L 92.909351 206.936599 
L 93.969163 206.502687 
L 94.675705 206.237973 
L 95.028975 206.058786 
L 96.442058 204.601138 
L 97.855141 203.186114 
L 103.860737 197.859667 
L 104.214007 197.450589 
L 104.920547 197.007229 
L 105.627087 195.785504 
L 106.333626 195.440773 
L 107.040165 195.424342 
L 107.746704 194.638394 
L 108.80651 194.408054 
L 109.159781 194.282583 
L 109.866319 194.51376 
L 111.632665 196.024086 
L 112.692475 197.269488 
L 117.991527 202.561738 
L 118.698068 203.244297 
L 119.051339 203.524479 
L 120.464421 203.915914 
L 156.851305 212.428409 
L 157.911117 212.222957 
L 164.269988 210.654885 
L 165.683071 210.322681 
L 166.389612 209.86329 
L 167.096154 208.390918 
L 169.569047 201.070951 
L 172.395188 192.712541 
L 173.454988 189.745038 
L 174.868036 185.697356 
L 176.281067 178.5451 
L 176.987572 177.177974 
L 177.694075 174.234301 
L 178.400573 169.10397 
L 179.107062 167.300842 
L 179.813551 168.021319 
L 180.520049 171.267288 
L 181.226557 173.427157 
L 182.992848 181.451661 
L 185.112443 188.585202 
L 188.291864 198.274182 
L 188.998404 199.39148 
L 190.058214 200.40766 
L 196.770355 207.832326 
L 197.476897 208.356664 
L 198.536709 208.593161 
L 214.080624 210.051893 
L 216.200249 209.811387 
L 227.858185 208.313663 
L 228.564726 207.770155 
L 229.271268 206.055069 
L 231.037619 199.343297 
L 232.097427 195.645225 
L 234.217025 189.156288 
L 235.983322 181.286356 
L 237.043103 175.224217 
L 238.102835 169.776852 
L 239.869093 159.598877 
L 240.575592 160.896202 
L 242.341888 171.631778 
L 243.401695 176.241754 
L 244.461502 180.028362 
L 245.874585 183.823126 
L 246.581126 185.266603 
L 249.054017 189.586806 
L 252.939992 195.527641 
L 255.766157 199.772668 
L 260.005406 206.127669 
L 260.711948 207.002729 
L 262.125031 208.578876 
L 263.184843 210.259798 
L 267.424093 217.345131 
L 271.31007 223.906175 
L 274.489504 230.053482 
L 276.609126 235.463029 
L 277.315664 237.021701 
L 278.022201 237.358536 
L 278.728737 236.101172 
L 280.495081 231.953025 
L 281.554884 229.90649 
L 283.674496 227.12136 
L 284.381034 226.510032 
L 285.087572 225.540004 
L 286.500649 224.288236 
L 287.913727 222.973729 
L 289.326806 221.975474 
L 290.033346 221.962733 
L 292.506234 223.541761 
L 293.212772 224.040205 
L 296.038925 226.648929 
L 296.745462 227.393321 
L 297.451998 228.152797 
L 298.158534 229.168341 
L 298.865069 230.476003 
L 300.631395 234.154394 
L 301.337924 234.790635 
L 302.397725 231.989475 
L 304.164052 227.030019 
L 314.055613 200.815929 
L 314.762153 199.959233 
L 315.821964 200.239018 
L 316.528505 200.423265 
L 317.588315 200.614348 
L 319.707937 201.78827 
L 320.767749 202.030802 
L 333.132222 206.486455 
L 335.605118 207.398256 
L 338.078013 208.103449 
L 342.670534 208.196852 
L 343.377075 208.029188 
L 344.436888 207.534373 
L 345.143429 206.947849 
L 349.029408 202.0213 
L 354.32847 195.778059 
L 355.388282 194.296804 
L 357.154636 192.263582 
L 357.861178 192.053958 
L 358.567719 191.432889 
L 359.627531 192.03264 
L 359.980802 192.299927 
L 360.687343 191.812736 
L 361.393884 192.044338 
L 362.100425 191.81871 
L 363.160237 192.123937 
L 363.866778 192.119454 
L 369.165834 191.23371 
L 370.932185 190.252174 
L 371.991994 189.570493 
L 372.698534 189.437225 
L 374.111612 188.632687 
L 374.818151 188.852479 
L 375.52469 189.435801 
L 381.177008 196.573877 
L 385.416254 201.248859 
L 387.535878 203.353227 
L 391.421857 207.262068 
L 392.481669 208.046872 
L 393.541481 208.467285 
L 394.601294 208.541216 
L 398.487273 208.539497 
L 398.487273 208.539497 
" style="fill:none;stroke:#2ca02c;stroke-linecap:square;stroke-width:1.5;"/>
   </g>
   <g id="patch_3">
    <path d="M 57.6 307.584 
L 57.6 41.472 
" style="fill:none;stroke:#000000;stroke-linecap:square;stroke-linejoin:miter;stroke-width:0.8;"/>
   </g>
   <g id="patch_4">
    <path d="M 414.72 307.584 
L 414.72 41.472 
" style="fill:none;stroke:#000000;stroke-linecap:square;stroke-linejoin:miter;stroke-width:0.8;"/>
   </g>
   <g id="patch_5">
    <path d="M 57.6 307.584 
L 414.72 307.584 
" style="fill:none;stroke:#000000;stroke-linecap:square;stroke-linejoin:miter;stroke-width:0.8;"/>
   </g>
   <g id="patch_6">
    <path d="M 57.6 41.472 
L 414.72 41.472 
" style="fill:none;stroke:#000000;stroke-linecap:square;stroke-linejoin:miter;stroke-width:0.8;"/>
   </g>
   <g id="text_11">
    <!-- Curvature vs Distance aut -->
    <g transform="translate(157.830938 35.472)scale(0.12 -0.12)">
     <defs>
      <path d="M 64.40625 67.28125 
L 64.40625 56.890625 
Q 59.421875 61.53125 53.78125 63.8125 
Q 48.140625 66.109375 41.796875 66.109375 
Q 29.296875 66.109375 22.65625 58.46875 
Q 16.015625 50.828125 16.015625 36.375 
Q 16.015625 21.96875 22.65625 14.328125 
Q 29.296875 6.6875 41.796875 6.6875 
Q 48.140625 6.6875 53.78125 8.984375 
Q 59.421875 11.28125 64.40625 15.921875 
L 64.40625 5.609375 
Q 59.234375 2.09375 53.4375 0.328125 
Q 47.65625 -1.421875 41.21875 -1.421875 
Q 24.65625 -1.421875 15.125 8.703125 
Q 5.609375 18.84375 5.609375 36.375 
Q 5.609375 53.953125 15.125 64.078125 
Q 24.65625 74.21875 41.21875 74.21875 
Q 47.75 74.21875 53.53125 72.484375 
Q 59.328125 70.75 64.40625 67.28125 
z
" id="DejaVuSans-67"/>
      <path d="M 8.5 21.578125 
L 8.5 54.6875 
L 17.484375 54.6875 
L 17.484375 21.921875 
Q 17.484375 14.15625 20.5 10.265625 
Q 23.53125 6.390625 29.59375 6.390625 
Q 36.859375 6.390625 41.078125 11.03125 
Q 45.3125 15.671875 45.3125 23.6875 
L 45.3125 54.6875 
L 54.296875 54.6875 
L 54.296875 0 
L 45.3125 0 
L 45.3125 8.40625 
Q 42.046875 3.421875 37.71875 1 
Q 33.40625 -1.421875 27.6875 -1.421875 
Q 18.265625 -1.421875 13.375 4.4375 
Q 8.5 10.296875 8.5 21.578125 
z
M 31.109375 56 
z
" id="DejaVuSans-117"/>
      <path d="M 41.109375 46.296875 
Q 39.59375 47.171875 37.8125 47.578125 
Q 36.03125 48 33.890625 48 
Q 26.265625 48 22.1875 43.046875 
Q 18.109375 38.09375 18.109375 28.8125 
L 18.109375 0 
L 9.078125 0 
L 9.078125 54.6875 
L 18.109375 54.6875 
L 18.109375 46.1875 
Q 20.953125 51.171875 25.484375 53.578125 
Q 30.03125 56 36.53125 56 
Q 37.453125 56 38.578125 55.875 
Q 39.703125 55.765625 41.0625 55.515625 
z
" id="DejaVuSans-114"/>
      <path d="M 2.984375 54.6875 
L 12.5 54.6875 
L 29.59375 8.796875 
L 46.6875 54.6875 
L 56.203125 54.6875 
L 35.6875 0 
L 23.484375 0 
z
" id="DejaVuSans-118"/>
      <path d="M 34.28125 27.484375 
Q 23.390625 27.484375 19.1875 25 
Q 14.984375 22.515625 14.984375 16.5 
Q 14.984375 11.71875 18.140625 8.90625 
Q 21.296875 6.109375 26.703125 6.109375 
Q 34.1875 6.109375 38.703125 11.40625 
Q 43.21875 16.703125 43.21875 25.484375 
L 43.21875 27.484375 
z
M 52.203125 31.203125 
L 52.203125 0 
L 43.21875 0 
L 43.21875 8.296875 
Q 40.140625 3.328125 35.546875 0.953125 
Q 30.953125 -1.421875 24.3125 -1.421875 
Q 15.921875 -1.421875 10.953125 3.296875 
Q 6 8.015625 6 15.921875 
Q 6 25.140625 12.171875 29.828125 
Q 18.359375 34.515625 30.609375 34.515625 
L 43.21875 34.515625 
L 43.21875 35.40625 
Q 43.21875 41.609375 39.140625 45 
Q 35.0625 48.390625 27.6875 48.390625 
Q 23 48.390625 18.546875 47.265625 
Q 14.109375 46.140625 10.015625 43.890625 
L 10.015625 52.203125 
Q 14.9375 54.109375 19.578125 55.046875 
Q 24.21875 56 28.609375 56 
Q 40.484375 56 46.34375 49.84375 
Q 52.203125 43.703125 52.203125 31.203125 
z
" id="DejaVuSans-97"/>
      <path d="M 18.3125 70.21875 
L 18.3125 54.6875 
L 36.8125 54.6875 
L 36.8125 47.703125 
L 18.3125 47.703125 
L 18.3125 18.015625 
Q 18.3125 11.328125 20.140625 9.421875 
Q 21.96875 7.515625 27.59375 7.515625 
L 36.8125 7.515625 
L 36.8125 0 
L 27.59375 0 
Q 17.1875 0 13.234375 3.875 
Q 9.28125 7.765625 9.28125 18.015625 
L 9.28125 47.703125 
L 2.6875 47.703125 
L 2.6875 54.6875 
L 9.28125 54.6875 
L 9.28125 70.21875 
z
" id="DejaVuSans-116"/>
      <path d="M 56.203125 29.59375 
L 56.203125 25.203125 
L 14.890625 25.203125 
Q 15.484375 15.921875 20.484375 11.0625 
Q 25.484375 6.203125 34.421875 6.203125 
Q 39.59375 6.203125 44.453125 7.46875 
Q 49.3125 8.734375 54.109375 11.28125 
L 54.109375 2.78125 
Q 49.265625 0.734375 44.1875 -0.34375 
Q 39.109375 -1.421875 33.890625 -1.421875 
Q 20.796875 -1.421875 13.15625 6.1875 
Q 5.515625 13.8125 5.515625 26.8125 
Q 5.515625 40.234375 12.765625 48.109375 
Q 20.015625 56 32.328125 56 
Q 43.359375 56 49.78125 48.890625 
Q 56.203125 41.796875 56.203125 29.59375 
z
M 47.21875 32.234375 
Q 47.125 39.59375 43.09375 43.984375 
Q 39.0625 48.390625 32.421875 48.390625 
Q 24.90625 48.390625 20.390625 44.140625 
Q 15.875 39.890625 15.1875 32.171875 
z
" id="DejaVuSans-101"/>
      <path id="DejaVuSans-32"/>
      <path d="M 44.28125 53.078125 
L 44.28125 44.578125 
Q 40.484375 46.53125 36.375 47.5 
Q 32.28125 48.484375 27.875 48.484375 
Q 21.1875 48.484375 17.84375 46.4375 
Q 14.5 44.390625 14.5 40.28125 
Q 14.5 37.15625 16.890625 35.375 
Q 19.28125 33.59375 26.515625 31.984375 
L 29.59375 31.296875 
Q 39.15625 29.25 43.1875 25.515625 
Q 47.21875 21.78125 47.21875 15.09375 
Q 47.21875 7.46875 41.1875 3.015625 
Q 35.15625 -1.421875 24.609375 -1.421875 
Q 20.21875 -1.421875 15.453125 -0.5625 
Q 10.6875 0.296875 5.421875 2 
L 5.421875 11.28125 
Q 10.40625 8.6875 15.234375 7.390625 
Q 20.0625 6.109375 24.8125 6.109375 
Q 31.15625 6.109375 34.5625 8.28125 
Q 37.984375 10.453125 37.984375 14.40625 
Q 37.984375 18.0625 35.515625 20.015625 
Q 33.0625 21.96875 24.703125 23.78125 
L 21.578125 24.515625 
Q 13.234375 26.265625 9.515625 29.90625 
Q 5.8125 33.546875 5.8125 39.890625 
Q 5.8125 47.609375 11.28125 51.796875 
Q 16.75 56 26.8125 56 
Q 31.78125 56 36.171875 55.265625 
Q 40.578125 54.546875 44.28125 53.078125 
z
" id="DejaVuSans-115"/>
      <path d="M 19.671875 64.796875 
L 19.671875 8.109375 
L 31.59375 8.109375 
Q 46.6875 8.109375 53.6875 14.9375 
Q 60.6875 21.78125 60.6875 36.53125 
Q 60.6875 51.171875 53.6875 57.984375 
Q 46.6875 64.796875 31.59375 64.796875 
z
M 9.8125 72.90625 
L 30.078125 72.90625 
Q 51.265625 72.90625 61.171875 64.09375 
Q 71.09375 55.28125 71.09375 36.53125 
Q 71.09375 17.671875 61.125 8.828125 
Q 51.171875 0 30.078125 0 
L 9.8125 0 
z
" id="DejaVuSans-68"/>
      <path d="M 9.421875 54.6875 
L 18.40625 54.6875 
L 18.40625 0 
L 9.421875 0 
z
M 9.421875 75.984375 
L 18.40625 75.984375 
L 18.40625 64.59375 
L 9.421875 64.59375 
z
" id="DejaVuSans-105"/>
      <path d="M 54.890625 33.015625 
L 54.890625 0 
L 45.90625 0 
L 45.90625 32.71875 
Q 45.90625 40.484375 42.875 44.328125 
Q 39.84375 48.1875 33.796875 48.1875 
Q 26.515625 48.1875 22.3125 43.546875 
Q 18.109375 38.921875 18.109375 30.90625 
L 18.109375 0 
L 9.078125 0 
L 9.078125 54.6875 
L 18.109375 54.6875 
L 18.109375 46.1875 
Q 21.34375 51.125 25.703125 53.5625 
Q 30.078125 56 35.796875 56 
Q 45.21875 56 50.046875 50.171875 
Q 54.890625 44.34375 54.890625 33.015625 
z
" id="DejaVuSans-110"/>
      <path d="M 48.78125 52.59375 
L 48.78125 44.1875 
Q 44.96875 46.296875 41.140625 47.34375 
Q 37.3125 48.390625 33.40625 48.390625 
Q 24.65625 48.390625 19.8125 42.84375 
Q 14.984375 37.3125 14.984375 27.296875 
Q 14.984375 17.28125 19.8125 11.734375 
Q 24.65625 6.203125 33.40625 6.203125 
Q 37.3125 6.203125 41.140625 7.25 
Q 44.96875 8.296875 48.78125 10.40625 
L 48.78125 2.09375 
Q 45.015625 0.34375 40.984375 -0.53125 
Q 36.96875 -1.421875 32.421875 -1.421875 
Q 20.0625 -1.421875 12.78125 6.34375 
Q 5.515625 14.109375 5.515625 27.296875 
Q 5.515625 40.671875 12.859375 48.328125 
Q 20.21875 56 33.015625 56 
Q 37.15625 56 41.109375 55.140625 
Q 45.0625 54.296875 48.78125 52.59375 
z
" id="DejaVuSans-99"/>
     </defs>
     <use xlink:href="#DejaVuSans-67"/>
     <use x="69.824219" xlink:href="#DejaVuSans-117"/>
     <use x="133.203125" xlink:href="#DejaVuSans-114"/>
     <use x="174.316406" xlink:href="#DejaVuSans-118"/>
     <use x="233.496094" xlink:href="#DejaVuSans-97"/>
     <use x="294.775391" xlink:href="#DejaVuSans-116"/>
     <use x="333.984375" xlink:href="#DejaVuSans-117"/>
     <use x="397.363281" xlink:href="#DejaVuSans-114"/>
     <use x="436.226562" xlink:href="#DejaVuSans-101"/>
     <use x="497.75" xlink:href="#DejaVuSans-32"/>
     <use x="529.537109" xlink:href="#DejaVuSans-118"/>
     <use x="588.716797" xlink:href="#DejaVuSans-115"/>
     <use x="640.816406" xlink:href="#DejaVuSans-32"/>
     <use x="672.603516" xlink:href="#DejaVuSans-68"/>
     <use x="749.605469" xlink:href="#DejaVuSans-105"/>
     <use x="777.388672" xlink:href="#DejaVuSans-115"/>
     <use x="829.488281" xlink:href="#DejaVuSans-116"/>
     <use x="868.697266" xlink:href="#DejaVuSans-97"/>
     <use x="929.976562" xlink:href="#DejaVuSans-110"/>
     <use x="993.355469" xlink:href="#DejaVuSans-99"/>
     <use x="1048.335938" xlink:href="#DejaVuSans-101"/>
     <use x="1109.859375" xlink:href="#DejaVuSans-32"/>
     <use x="1141.646484" xlink:href="#DejaVuSans-97"/>
     <use x="1202.925781" xlink:href="#DejaVuSans-117"/>
     <use x="1266.304688" xlink:href="#DejaVuSans-116"/>
    </g>
   </g>
   <g id="legend_1">
    <g id="patch_7">
     <path d="M 276.42625 93.506375 
L 407.72 93.506375 
Q 409.72 93.506375 409.72 91.506375 
L 409.72 48.472 
Q 409.72 46.472 407.72 46.472 
L 276.42625 46.472 
Q 274.42625 46.472 274.42625 48.472 
L 274.42625 91.506375 
Q 274.42625 93.506375 276.42625 93.506375 
z
" style="fill:#ffffff;opacity:0.8;stroke:#cccccc;stroke-linejoin:miter;"/>
    </g>
    <g id="line2d_14">
     <path d="M 278.42625 54.570438 
L 298.42625 54.570438 
" style="fill:none;stroke:#1f77b4;stroke-linecap:square;stroke-width:1.5;"/>
    </g>
    <g id="line2d_15"/>
    <g id="text_12">
     <!-- Centreline -->
     <g transform="translate(306.42625 58.070438)scale(0.1 -0.1)">
      <defs>
       <path d="M 9.421875 75.984375 
L 18.40625 75.984375 
L 18.40625 0 
L 9.421875 0 
z
" id="DejaVuSans-108"/>
      </defs>
      <use xlink:href="#DejaVuSans-67"/>
      <use x="69.824219" xlink:href="#DejaVuSans-101"/>
      <use x="131.347656" xlink:href="#DejaVuSans-110"/>
      <use x="194.726562" xlink:href="#DejaVuSans-116"/>
      <use x="233.935547" xlink:href="#DejaVuSans-114"/>
      <use x="272.798828" xlink:href="#DejaVuSans-101"/>
      <use x="334.322266" xlink:href="#DejaVuSans-108"/>
      <use x="362.105469" xlink:href="#DejaVuSans-105"/>
      <use x="389.888672" xlink:href="#DejaVuSans-110"/>
      <use x="453.267578" xlink:href="#DejaVuSans-101"/>
     </g>
    </g>
    <g id="line2d_16">
     <path d="M 278.42625 69.248563 
L 298.42625 69.248563 
" style="fill:none;stroke:#ff7f0e;stroke-linecap:square;stroke-width:1.5;"/>
    </g>
    <g id="line2d_17"/>
    <g id="text_13">
     <!-- Shortest Path -->
     <g transform="translate(306.42625 72.748563)scale(0.1 -0.1)">
      <defs>
       <path d="M 53.515625 70.515625 
L 53.515625 60.890625 
Q 47.90625 63.578125 42.921875 64.890625 
Q 37.9375 66.21875 33.296875 66.21875 
Q 25.25 66.21875 20.875 63.09375 
Q 16.5 59.96875 16.5 54.203125 
Q 16.5 49.359375 19.40625 46.890625 
Q 22.3125 44.4375 30.421875 42.921875 
L 36.375 41.703125 
Q 47.40625 39.59375 52.65625 34.296875 
Q 57.90625 29 57.90625 20.125 
Q 57.90625 9.515625 50.796875 4.046875 
Q 43.703125 -1.421875 29.984375 -1.421875 
Q 24.8125 -1.421875 18.96875 -0.25 
Q 13.140625 0.921875 6.890625 3.21875 
L 6.890625 13.375 
Q 12.890625 10.015625 18.65625 8.296875 
Q 24.421875 6.59375 29.984375 6.59375 
Q 38.421875 6.59375 43.015625 9.90625 
Q 47.609375 13.234375 47.609375 19.390625 
Q 47.609375 24.75 44.3125 27.78125 
Q 41.015625 30.8125 33.5 32.328125 
L 27.484375 33.5 
Q 16.453125 35.6875 11.515625 40.375 
Q 6.59375 45.0625 6.59375 53.421875 
Q 6.59375 63.09375 13.40625 68.65625 
Q 20.21875 74.21875 32.171875 74.21875 
Q 37.3125 74.21875 42.625 73.28125 
Q 47.953125 72.359375 53.515625 70.515625 
z
" id="DejaVuSans-83"/>
       <path d="M 54.890625 33.015625 
L 54.890625 0 
L 45.90625 0 
L 45.90625 32.71875 
Q 45.90625 40.484375 42.875 44.328125 
Q 39.84375 48.1875 33.796875 48.1875 
Q 26.515625 48.1875 22.3125 43.546875 
Q 18.109375 38.921875 18.109375 30.90625 
L 18.109375 0 
L 9.078125 0 
L 9.078125 75.984375 
L 18.109375 75.984375 
L 18.109375 46.1875 
Q 21.34375 51.125 25.703125 53.5625 
Q 30.078125 56 35.796875 56 
Q 45.21875 56 50.046875 50.171875 
Q 54.890625 44.34375 54.890625 33.015625 
z
" id="DejaVuSans-104"/>
       <path d="M 30.609375 48.390625 
Q 23.390625 48.390625 19.1875 42.75 
Q 14.984375 37.109375 14.984375 27.296875 
Q 14.984375 17.484375 19.15625 11.84375 
Q 23.34375 6.203125 30.609375 6.203125 
Q 37.796875 6.203125 41.984375 11.859375 
Q 46.1875 17.53125 46.1875 27.296875 
Q 46.1875 37.015625 41.984375 42.703125 
Q 37.796875 48.390625 30.609375 48.390625 
z
M 30.609375 56 
Q 42.328125 56 49.015625 48.375 
Q 55.71875 40.765625 55.71875 27.296875 
Q 55.71875 13.875 49.015625 6.21875 
Q 42.328125 -1.421875 30.609375 -1.421875 
Q 18.84375 -1.421875 12.171875 6.21875 
Q 5.515625 13.875 5.515625 27.296875 
Q 5.515625 40.765625 12.171875 48.375 
Q 18.84375 56 30.609375 56 
z
" id="DejaVuSans-111"/>
       <path d="M 19.671875 64.796875 
L 19.671875 37.40625 
L 32.078125 37.40625 
Q 38.96875 37.40625 42.71875 40.96875 
Q 46.484375 44.53125 46.484375 51.125 
Q 46.484375 57.671875 42.71875 61.234375 
Q 38.96875 64.796875 32.078125 64.796875 
z
M 9.8125 72.90625 
L 32.078125 72.90625 
Q 44.34375 72.90625 50.609375 67.359375 
Q 56.890625 61.8125 56.890625 51.125 
Q 56.890625 40.328125 50.609375 34.8125 
Q 44.34375 29.296875 32.078125 29.296875 
L 19.671875 29.296875 
L 19.671875 0 
L 9.8125 0 
z
" id="DejaVuSans-80"/>
      </defs>
      <use xlink:href="#DejaVuSans-83"/>
      <use x="63.476562" xlink:href="#DejaVuSans-104"/>
      <use x="126.855469" xlink:href="#DejaVuSans-111"/>
      <use x="188.037109" xlink:href="#DejaVuSans-114"/>
      <use x="229.150391" xlink:href="#DejaVuSans-116"/>
      <use x="268.359375" xlink:href="#DejaVuSans-101"/>
      <use x="329.882812" xlink:href="#DejaVuSans-115"/>
      <use x="381.982422" xlink:href="#DejaVuSans-116"/>
      <use x="421.191406" xlink:href="#DejaVuSans-32"/>
      <use x="452.978516" xlink:href="#DejaVuSans-80"/>
      <use x="508.78125" xlink:href="#DejaVuSans-97"/>
      <use x="570.060547" xlink:href="#DejaVuSans-116"/>
      <use x="609.269531" xlink:href="#DejaVuSans-104"/>
     </g>
    </g>
    <g id="line2d_18">
     <path d="M 278.42625 83.926688 
L 298.42625 83.926688 
" style="fill:none;stroke:#2ca02c;stroke-linecap:square;stroke-width:1.5;"/>
    </g>
    <g id="line2d_19"/>
    <g id="text_14">
     <!-- Minimum Curvature -->
     <g transform="translate(306.42625 87.426688)scale(0.1 -0.1)">
      <defs>
       <path d="M 9.8125 72.90625 
L 24.515625 72.90625 
L 43.109375 23.296875 
L 61.8125 72.90625 
L 76.515625 72.90625 
L 76.515625 0 
L 66.890625 0 
L 66.890625 64.015625 
L 48.09375 14.015625 
L 38.1875 14.015625 
L 19.390625 64.015625 
L 19.390625 0 
L 9.8125 0 
z
" id="DejaVuSans-77"/>
       <path d="M 52 44.1875 
Q 55.375 50.25 60.0625 53.125 
Q 64.75 56 71.09375 56 
Q 79.640625 56 84.28125 50.015625 
Q 88.921875 44.046875 88.921875 33.015625 
L 88.921875 0 
L 79.890625 0 
L 79.890625 32.71875 
Q 79.890625 40.578125 77.09375 44.375 
Q 74.3125 48.1875 68.609375 48.1875 
Q 61.625 48.1875 57.5625 43.546875 
Q 53.515625 38.921875 53.515625 30.90625 
L 53.515625 0 
L 44.484375 0 
L 44.484375 32.71875 
Q 44.484375 40.625 41.703125 44.40625 
Q 38.921875 48.1875 33.109375 48.1875 
Q 26.21875 48.1875 22.15625 43.53125 
Q 18.109375 38.875 18.109375 30.90625 
L 18.109375 0 
L 9.078125 0 
L 9.078125 54.6875 
L 18.109375 54.6875 
L 18.109375 46.1875 
Q 21.1875 51.21875 25.484375 53.609375 
Q 29.78125 56 35.6875 56 
Q 41.65625 56 45.828125 52.96875 
Q 50 49.953125 52 44.1875 
z
" id="DejaVuSans-109"/>
      </defs>
      <use xlink:href="#DejaVuSans-77"/>
      <use x="86.279297" xlink:href="#DejaVuSans-105"/>
      <use x="114.0625" xlink:href="#DejaVuSans-110"/>
      <use x="177.441406" xlink:href="#DejaVuSans-105"/>
      <use x="205.224609" xlink:href="#DejaVuSans-109"/>
      <use x="302.636719" xlink:href="#DejaVuSans-117"/>
      <use x="366.015625" xlink:href="#DejaVuSans-109"/>
      <use x="463.427734" xlink:href="#DejaVuSans-32"/>
      <use x="495.214844" xlink:href="#DejaVuSans-67"/>
      <use x="565.039062" xlink:href="#DejaVuSans-117"/>
      <use x="628.417969" xlink:href="#DejaVuSans-114"/>
      <use x="669.53125" xlink:href="#DejaVuSans-118"/>
      <use x="728.710938" xlink:href="#DejaVuSans-97"/>
      <use x="789.990234" xlink:href="#DejaVuSans-116"/>
      <use x="829.199219" xlink:href="#DejaVuSans-117"/>
      <use x="892.578125" xlink:href="#DejaVuSans-114"/>
      <use x="931.441406" xlink:href="#DejaVuSans-101"/>
     </g>
    </g>
   </g>
  </g>
 </g>
 <defs>
  <clipPath id="pe314822a9c">
   <rect height="266.112" width="357.12" x="57.6" y="41.472"/>
  </clipPath>
 </defs>
</svg>
