<?xml version="1.0" encoding="utf-8" standalone="no"?>
<!DOCTYPE svg PUBLIC "-//W3C//DTD SVG 1.1//EN"
  "http://www.w3.org/Graphics/SVG/1.1/DTD/svg11.dtd">
<!-- Created with matplotlib (https://matplotlib.org/) -->
<svg height="345.6pt" version="1.1" viewBox="0 0 460.8 345.6" width="460.8pt" xmlns="http://www.w3.org/2000/svg" xmlns:xlink="http://www.w3.org/1999/xlink">
 <metadata>
  <rdf:RDF xmlns:cc="http://creativecommons.org/ns#" xmlns:dc="http://purl.org/dc/elements/1.1/" xmlns:rdf="http://www.w3.org/1999/02/22-rdf-syntax-ns#">
   <cc:Work>
    <dc:type rdf:resource="http://purl.org/dc/dcmitype/StillImage"/>
    <dc:date>2024-10-14T23:29:14.243260</dc:date>
    <dc:format>image/svg+xml</dc:format>
    <dc:creator>
     <cc:Agent>
      <dc:title>Matplotlib v3.3.1, https://matplotlib.org/</dc:title>
     </cc:Agent>
    </dc:creator>
   </cc:Work>
  </rdf:RDF>
 </metadata>
 <defs>
  <style type="text/css">*{stroke-linecap:butt;stroke-linejoin:round;}</style>
 </defs>
 <g id="figure_1">
  <g id="patch_1">
   <path d="M 0 345.6 
L 460.8 345.6 
L 460.8 0 
L 0 0 
z
" style="fill:#ffffff;"/>
  </g>
  <g id="axes_1">
   <g id="patch_2">
    <path d="M 57.6 307.584 
L 414.72 307.584 
L 414.72 41.472 
L 57.6 41.472 
z
" style="fill:#ffffff;"/>
   </g>
   <g id="matplotlib.axis_1">
    <g id="xtick_1">
     <g id="line2d_1">
      <defs>
       <path d="M 0 0 
L 0 3.5 
" id="mc202d8d329" style="stroke:#000000;stroke-width:0.8;"/>
      </defs>
      <g>
       <use style="stroke:#000000;stroke-width:0.8;" x="73.832727" xlink:href="#mc202d8d329" y="307.584"/>
      </g>
     </g>
     <g id="text_1">
      <!-- 0.0 -->
      <g transform="translate(65.881165 322.182437)scale(0.1 -0.1)">
       <defs>
        <path d="M 31.78125 66.40625 
Q 24.171875 66.40625 20.328125 58.90625 
Q 16.5 51.421875 16.5 36.375 
Q 16.5 21.390625 20.328125 13.890625 
Q 24.171875 6.390625 31.78125 6.390625 
Q 39.453125 6.390625 43.28125 13.890625 
Q 47.125 21.390625 47.125 36.375 
Q 47.125 51.421875 43.28125 58.90625 
Q 39.453125 66.40625 31.78125 66.40625 
z
M 31.78125 74.21875 
Q 44.046875 74.21875 50.515625 64.515625 
Q 56.984375 54.828125 56.984375 36.375 
Q 56.984375 17.96875 50.515625 8.265625 
Q 44.046875 -1.421875 31.78125 -1.421875 
Q 19.53125 -1.421875 13.0625 8.265625 
Q 6.59375 17.96875 6.59375 36.375 
Q 6.59375 54.828125 13.0625 64.515625 
Q 19.53125 74.21875 31.78125 74.21875 
z
" id="DejaVuSans-48"/>
        <path d="M 10.6875 12.40625 
L 21 12.40625 
L 21 0 
L 10.6875 0 
z
" id="DejaVuSans-46"/>
       </defs>
       <use xlink:href="#DejaVuSans-48"/>
       <use x="63.623047" xlink:href="#DejaVuSans-46"/>
       <use x="95.410156" xlink:href="#DejaVuSans-48"/>
      </g>
     </g>
    </g>
    <g id="xtick_2">
     <g id="line2d_2">
      <g>
       <use style="stroke:#000000;stroke-width:0.8;" x="138.763636" xlink:href="#mc202d8d329" y="307.584"/>
      </g>
     </g>
     <g id="text_2">
      <!-- 0.2 -->
      <g transform="translate(130.812074 322.182437)scale(0.1 -0.1)">
       <defs>
        <path d="M 19.1875 8.296875 
L 53.609375 8.296875 
L 53.609375 0 
L 7.328125 0 
L 7.328125 8.296875 
Q 12.9375 14.109375 22.625 23.890625 
Q 32.328125 33.6875 34.8125 36.53125 
Q 39.546875 41.84375 41.421875 45.53125 
Q 43.3125 49.21875 43.3125 52.78125 
Q 43.3125 58.59375 39.234375 62.25 
Q 35.15625 65.921875 28.609375 65.921875 
Q 23.96875 65.921875 18.8125 64.3125 
Q 13.671875 62.703125 7.8125 59.421875 
L 7.8125 69.390625 
Q 13.765625 71.78125 18.9375 73 
Q 24.125 74.21875 28.421875 74.21875 
Q 39.75 74.21875 46.484375 68.546875 
Q 53.21875 62.890625 53.21875 53.421875 
Q 53.21875 48.921875 51.53125 44.890625 
Q 49.859375 40.875 45.40625 35.40625 
Q 44.1875 33.984375 37.640625 27.21875 
Q 31.109375 20.453125 19.1875 8.296875 
z
" id="DejaVuSans-50"/>
       </defs>
       <use xlink:href="#DejaVuSans-48"/>
       <use x="63.623047" xlink:href="#DejaVuSans-46"/>
       <use x="95.410156" xlink:href="#DejaVuSans-50"/>
      </g>
     </g>
    </g>
    <g id="xtick_3">
     <g id="line2d_3">
      <g>
       <use style="stroke:#000000;stroke-width:0.8;" x="203.694545" xlink:href="#mc202d8d329" y="307.584"/>
      </g>
     </g>
     <g id="text_3">
      <!-- 0.4 -->
      <g transform="translate(195.742983 322.182437)scale(0.1 -0.1)">
       <defs>
        <path d="M 37.796875 64.3125 
L 12.890625 25.390625 
L 37.796875 25.390625 
z
M 35.203125 72.90625 
L 47.609375 72.90625 
L 47.609375 25.390625 
L 58.015625 25.390625 
L 58.015625 17.1875 
L 47.609375 17.1875 
L 47.609375 0 
L 37.796875 0 
L 37.796875 17.1875 
L 4.890625 17.1875 
L 4.890625 26.703125 
z
" id="DejaVuSans-52"/>
       </defs>
       <use xlink:href="#DejaVuSans-48"/>
       <use x="63.623047" xlink:href="#DejaVuSans-46"/>
       <use x="95.410156" xlink:href="#DejaVuSans-52"/>
      </g>
     </g>
    </g>
    <g id="xtick_4">
     <g id="line2d_4">
      <g>
       <use style="stroke:#000000;stroke-width:0.8;" x="268.625455" xlink:href="#mc202d8d329" y="307.584"/>
      </g>
     </g>
     <g id="text_4">
      <!-- 0.6 -->
      <g transform="translate(260.673892 322.182437)scale(0.1 -0.1)">
       <defs>
        <path d="M 33.015625 40.375 
Q 26.375 40.375 22.484375 35.828125 
Q 18.609375 31.296875 18.609375 23.390625 
Q 18.609375 15.53125 22.484375 10.953125 
Q 26.375 6.390625 33.015625 6.390625 
Q 39.65625 6.390625 43.53125 10.953125 
Q 47.40625 15.53125 47.40625 23.390625 
Q 47.40625 31.296875 43.53125 35.828125 
Q 39.65625 40.375 33.015625 40.375 
z
M 52.59375 71.296875 
L 52.59375 62.3125 
Q 48.875 64.0625 45.09375 64.984375 
Q 41.3125 65.921875 37.59375 65.921875 
Q 27.828125 65.921875 22.671875 59.328125 
Q 17.53125 52.734375 16.796875 39.40625 
Q 19.671875 43.65625 24.015625 45.921875 
Q 28.375 48.1875 33.59375 48.1875 
Q 44.578125 48.1875 50.953125 41.515625 
Q 57.328125 34.859375 57.328125 23.390625 
Q 57.328125 12.15625 50.6875 5.359375 
Q 44.046875 -1.421875 33.015625 -1.421875 
Q 20.359375 -1.421875 13.671875 8.265625 
Q 6.984375 17.96875 6.984375 36.375 
Q 6.984375 53.65625 15.1875 63.9375 
Q 23.390625 74.21875 37.203125 74.21875 
Q 40.921875 74.21875 44.703125 73.484375 
Q 48.484375 72.75 52.59375 71.296875 
z
" id="DejaVuSans-54"/>
       </defs>
       <use xlink:href="#DejaVuSans-48"/>
       <use x="63.623047" xlink:href="#DejaVuSans-46"/>
       <use x="95.410156" xlink:href="#DejaVuSans-54"/>
      </g>
     </g>
    </g>
    <g id="xtick_5">
     <g id="line2d_5">
      <g>
       <use style="stroke:#000000;stroke-width:0.8;" x="333.556364" xlink:href="#mc202d8d329" y="307.584"/>
      </g>
     </g>
     <g id="text_5">
      <!-- 0.8 -->
      <g transform="translate(325.604801 322.182437)scale(0.1 -0.1)">
       <defs>
        <path d="M 31.78125 34.625 
Q 24.75 34.625 20.71875 30.859375 
Q 16.703125 27.09375 16.703125 20.515625 
Q 16.703125 13.921875 20.71875 10.15625 
Q 24.75 6.390625 31.78125 6.390625 
Q 38.8125 6.390625 42.859375 10.171875 
Q 46.921875 13.96875 46.921875 20.515625 
Q 46.921875 27.09375 42.890625 30.859375 
Q 38.875 34.625 31.78125 34.625 
z
M 21.921875 38.8125 
Q 15.578125 40.375 12.03125 44.71875 
Q 8.5 49.078125 8.5 55.328125 
Q 8.5 64.0625 14.71875 69.140625 
Q 20.953125 74.21875 31.78125 74.21875 
Q 42.671875 74.21875 48.875 69.140625 
Q 55.078125 64.0625 55.078125 55.328125 
Q 55.078125 49.078125 51.53125 44.71875 
Q 48 40.375 41.703125 38.8125 
Q 48.828125 37.15625 52.796875 32.3125 
Q 56.78125 27.484375 56.78125 20.515625 
Q 56.78125 9.90625 50.3125 4.234375 
Q 43.84375 -1.421875 31.78125 -1.421875 
Q 19.734375 -1.421875 13.25 4.234375 
Q 6.78125 9.90625 6.78125 20.515625 
Q 6.78125 27.484375 10.78125 32.3125 
Q 14.796875 37.15625 21.921875 38.8125 
z
M 18.3125 54.390625 
Q 18.3125 48.734375 21.84375 45.5625 
Q 25.390625 42.390625 31.78125 42.390625 
Q 38.140625 42.390625 41.71875 45.5625 
Q 45.3125 48.734375 45.3125 54.390625 
Q 45.3125 60.0625 41.71875 63.234375 
Q 38.140625 66.40625 31.78125 66.40625 
Q 25.390625 66.40625 21.84375 63.234375 
Q 18.3125 60.0625 18.3125 54.390625 
z
" id="DejaVuSans-56"/>
       </defs>
       <use xlink:href="#DejaVuSans-48"/>
       <use x="63.623047" xlink:href="#DejaVuSans-46"/>
       <use x="95.410156" xlink:href="#DejaVuSans-56"/>
      </g>
     </g>
    </g>
    <g id="xtick_6">
     <g id="line2d_6">
      <g>
       <use style="stroke:#000000;stroke-width:0.8;" x="398.487273" xlink:href="#mc202d8d329" y="307.584"/>
      </g>
     </g>
     <g id="text_6">
      <!-- 1.0 -->
      <g transform="translate(390.53571 322.182437)scale(0.1 -0.1)">
       <defs>
        <path d="M 12.40625 8.296875 
L 28.515625 8.296875 
L 28.515625 63.921875 
L 10.984375 60.40625 
L 10.984375 69.390625 
L 28.421875 72.90625 
L 38.28125 72.90625 
L 38.28125 8.296875 
L 54.390625 8.296875 
L 54.390625 0 
L 12.40625 0 
z
" id="DejaVuSans-49"/>
       </defs>
       <use xlink:href="#DejaVuSans-49"/>
       <use x="63.623047" xlink:href="#DejaVuSans-46"/>
       <use x="95.410156" xlink:href="#DejaVuSans-48"/>
      </g>
     </g>
    </g>
   </g>
   <g id="matplotlib.axis_2">
    <g id="ytick_1">
     <g id="line2d_7">
      <defs>
       <path d="M 0 0 
L -3.5 0 
" id="m78058bf1ae" style="stroke:#000000;stroke-width:0.8;"/>
      </defs>
      <g>
       <use style="stroke:#000000;stroke-width:0.8;" x="57.6" xlink:href="#m78058bf1ae" y="290.035881"/>
      </g>
     </g>
     <g id="text_7">
      <!-- −3 -->
      <g transform="translate(35.857813 293.8351)scale(0.1 -0.1)">
       <defs>
        <path d="M 10.59375 35.5 
L 73.1875 35.5 
L 73.1875 27.203125 
L 10.59375 27.203125 
z
" id="DejaVuSans-8722"/>
        <path d="M 40.578125 39.3125 
Q 47.65625 37.796875 51.625 33 
Q 55.609375 28.21875 55.609375 21.1875 
Q 55.609375 10.40625 48.1875 4.484375 
Q 40.765625 -1.421875 27.09375 -1.421875 
Q 22.515625 -1.421875 17.65625 -0.515625 
Q 12.796875 0.390625 7.625 2.203125 
L 7.625 11.71875 
Q 11.71875 9.328125 16.59375 8.109375 
Q 21.484375 6.890625 26.8125 6.890625 
Q 36.078125 6.890625 40.9375 10.546875 
Q 45.796875 14.203125 45.796875 21.1875 
Q 45.796875 27.640625 41.28125 31.265625 
Q 36.765625 34.90625 28.71875 34.90625 
L 20.21875 34.90625 
L 20.21875 43.015625 
L 29.109375 43.015625 
Q 36.375 43.015625 40.234375 45.921875 
Q 44.09375 48.828125 44.09375 54.296875 
Q 44.09375 59.90625 40.109375 62.90625 
Q 36.140625 65.921875 28.71875 65.921875 
Q 24.65625 65.921875 20.015625 65.03125 
Q 15.375 64.15625 9.8125 62.3125 
L 9.8125 71.09375 
Q 15.4375 72.65625 20.34375 73.4375 
Q 25.25 74.21875 29.59375 74.21875 
Q 40.828125 74.21875 47.359375 69.109375 
Q 53.90625 64.015625 53.90625 55.328125 
Q 53.90625 49.265625 50.4375 45.09375 
Q 46.96875 40.921875 40.578125 39.3125 
z
" id="DejaVuSans-51"/>
       </defs>
       <use xlink:href="#DejaVuSans-8722"/>
       <use x="83.789062" xlink:href="#DejaVuSans-51"/>
      </g>
     </g>
    </g>
    <g id="ytick_2">
     <g id="line2d_8">
      <g>
       <use style="stroke:#000000;stroke-width:0.8;" x="57.6" xlink:href="#m78058bf1ae" y="251.514448"/>
      </g>
     </g>
     <g id="text_8">
      <!-- −2 -->
      <g transform="translate(35.857813 255.313667)scale(0.1 -0.1)">
       <use xlink:href="#DejaVuSans-8722"/>
       <use x="83.789062" xlink:href="#DejaVuSans-50"/>
      </g>
     </g>
    </g>
    <g id="ytick_3">
     <g id="line2d_9">
      <g>
       <use style="stroke:#000000;stroke-width:0.8;" x="57.6" xlink:href="#m78058bf1ae" y="212.993014"/>
      </g>
     </g>
     <g id="text_9">
      <!-- −1 -->
      <g transform="translate(35.857813 216.792233)scale(0.1 -0.1)">
       <use xlink:href="#DejaVuSans-8722"/>
       <use x="83.789062" xlink:href="#DejaVuSans-49"/>
      </g>
     </g>
    </g>
    <g id="ytick_4">
     <g id="line2d_10">
      <g>
       <use style="stroke:#000000;stroke-width:0.8;" x="57.6" xlink:href="#m78058bf1ae" y="174.471581"/>
      </g>
     </g>
     <g id="text_10">
      <!-- 0 -->
      <g transform="translate(44.2375 178.2708)scale(0.1 -0.1)">
       <use xlink:href="#DejaVuSans-48"/>
      </g>
     </g>
    </g>
    <g id="ytick_5">
     <g id="line2d_11">
      <g>
       <use style="stroke:#000000;stroke-width:0.8;" x="57.6" xlink:href="#m78058bf1ae" y="135.950147"/>
      </g>
     </g>
     <g id="text_11">
      <!-- 1 -->
      <g transform="translate(44.2375 139.749366)scale(0.1 -0.1)">
       <use xlink:href="#DejaVuSans-49"/>
      </g>
     </g>
    </g>
    <g id="ytick_6">
     <g id="line2d_12">
      <g>
       <use style="stroke:#000000;stroke-width:0.8;" x="57.6" xlink:href="#m78058bf1ae" y="97.428714"/>
      </g>
     </g>
     <g id="text_12">
      <!-- 2 -->
      <g transform="translate(44.2375 101.227933)scale(0.1 -0.1)">
       <use xlink:href="#DejaVuSans-50"/>
      </g>
     </g>
    </g>
    <g id="ytick_7">
     <g id="line2d_13">
      <g>
       <use style="stroke:#000000;stroke-width:0.8;" x="57.6" xlink:href="#m78058bf1ae" y="58.90728"/>
      </g>
     </g>
     <g id="text_13">
      <!-- 3 -->
      <g transform="translate(44.2375 62.706499)scale(0.1 -0.1)">
       <use xlink:href="#DejaVuSans-51"/>
      </g>
     </g>
    </g>
   </g>
   <g id="line2d_14">
    <path clip-path="url(#p2bb6193df5)" d="M 73.832727 175.155032 
L 74.8744 175.367879 
L 75.568848 175.448271 
L 76.263296 175.505184 
L 77.652192 175.620333 
L 79.735537 175.730506 
L 83.207778 175.668564 
L 84.24945 175.583167 
L 84.943898 175.529936 
L 85.985571 175.400039 
L 86.332795 175.426416 
L 87.374467 175.116369 
L 88.068915 175.188858 
L 89.110587 174.805862 
L 89.805036 174.891624 
L 90.846708 174.435525 
L 91.541156 174.53391 
L 92.582828 174.004498 
L 93.277277 174.114678 
L 94.318949 173.511652 
L 95.013397 173.631896 
L 96.055069 172.955025 
L 96.749518 173.093368 
L 97.79119 172.414742 
L 98.485638 172.698221 
L 99.180086 172.527381 
L 99.52731 172.584258 
L 100.221758 173.576341 
L 100.916207 174.076524 
L 101.263431 174.445952 
L 102.652327 176.747896 
L 102.999551 177.593952 
L 103.346777 177.288675 
L 103.694 177.167207 
L 104.388447 179.14487 
L 105.082897 182.31925 
L 105.43012 183.621768 
L 106.471806 189.870899 
L 107.166236 196.023083 
L 107.860686 199.677613 
L 108.207909 200.837585 
L 108.555134 201.269466 
L 109.249584 203.95264 
L 109.944023 209.400388 
L 110.638476 214.796126 
L 110.985701 215.580065 
L 111.332925 216.788661 
L 111.68015 216.721677 
L 112.027374 216.936547 
L 112.374597 218.15647 
L 113.069046 219.463027 
L 113.763494 220.05134 
L 114.457942 220.983267 
L 114.805166 221.325963 
L 115.499615 221.058544 
L 116.541287 221.561955 
L 117.235735 223.542682 
L 119.666304 223.476035 
L 120.013528 223.574424 
L 120.707976 224.357316 
L 123.485769 224.834339 
L 124.180217 223.637277 
L 125.221889 224.124568 
L 125.916337 225.375689 
L 126.95801 225.858442 
L 127.652458 225.681271 
L 128.69413 226.273902 
L 129.388578 226.105884 
L 130.43025 226.751603 
L 131.124699 225.527723 
L 131.819147 226.012533 
L 132.166371 226.173018 
L 132.860819 225.743754 
L 133.902492 226.227122 
L 134.59694 226.135727 
L 135.638612 226.439775 
L 136.33306 226.311737 
L 137.374733 226.454549 
L 139.805301 226.239002 
L 142.583094 225.692951 
L 143.624766 225.279388 
L 144.319214 224.935156 
L 145.013663 225.169658 
L 146.055335 224.476855 
L 146.749783 224.725539 
L 147.791455 223.883795 
L 148.485904 224.467972 
L 149.527576 223.418165 
L 149.8748 223.573317 
L 150.222024 223.586962 
L 150.916473 222.701627 
L 151.263695 222.489489 
L 151.610921 223.456699 
L 151.958145 223.924554 
L 152.652593 222.898767 
L 152.999816 222.832708 
L 153.347041 223.875928 
L 153.694265 224.28328 
L 154.041488 223.72038 
L 154.388713 223.427057 
L 154.735936 222.838873 
L 155.430384 220.158924 
L 156.124833 219.529156 
L 156.472057 219.016705 
L 157.166505 217.042606 
L 158.208177 216.266394 
L 158.555403 217.024385 
L 158.902626 217.499918 
L 159.597074 216.81081 
L 159.944298 216.689344 
L 160.291523 217.45444 
L 160.638746 217.889913 
L 161.333195 217.26875 
L 161.680418 217.159969 
L 162.027643 217.547474 
L 162.374867 217.704192 
L 163.069315 217.275217 
L 163.416539 217.235872 
L 163.763763 217.558978 
L 164.110987 217.708675 
L 164.458211 217.55617 
L 164.805436 217.544938 
L 165.152659 217.21956 
L 165.499886 215.935975 
L 165.847108 215.178389 
L 166.194332 215.342044 
L 166.541556 215.297091 
L 166.888779 215.531923 
L 167.236005 216.799518 
L 167.583228 217.629743 
L 167.930452 217.592568 
L 168.277676 217.827467 
L 168.6249 217.796359 
L 168.972125 217.196318 
L 169.319349 216.972014 
L 170.361021 218.066928 
L 171.055469 218.672397 
L 172.097141 220.0564 
L 172.444367 219.359328 
L 172.79159 219.178181 
L 173.833261 221.629031 
L 174.527709 224.588638 
L 174.874935 225.19794 
L 175.222154 226.175186 
L 175.916607 230.22257 
L 176.611055 233.362397 
L 176.958276 235.464293 
L 179.736044 274.864652 
L 180.430492 279.906031 
L 181.81939 294.155722 
L 182.166614 295.020189 
L 182.513838 295.488 
L 182.861062 55.814996 
L 183.55551 60.851819 
L 183.902735 62.501482 
L 184.597183 64.245171 
L 185.291631 65.240905 
L 185.638855 65.258423 
L 185.986079 65.392797 
L 186.680527 66.304609 
L 187.027751 66.291489 
L 187.7222 64.587666 
L 188.416648 65.115394 
L 189.111096 65.819974 
L 189.805544 66.37296 
L 190.152768 66.511752 
L 190.499992 66.902149 
L 191.194441 68.599392 
L 192.236113 69.005154 
L 192.930561 69.538915 
L 193.972233 69.7857 
L 194.666681 69.447508 
L 196.055578 69.711717 
L 196.750026 69.802187 
L 197.09725 69.944226 
L 197.444474 69.84403 
L 198.138922 68.239424 
L 199.180595 68.290739 
L 199.875043 67.233171 
L 200.569491 67.386322 
L 200.916715 67.576276 
L 201.611163 68.320587 
L 202.652836 68.556095 
L 203.347284 68.97293 
L 204.041732 69.04885 
L 204.388956 68.954494 
L 205.083404 68.258994 
L 205.777852 68.260349 
L 206.125077 68.102151 
L 206.819525 67.277228 
L 207.513973 67.216876 
L 207.861197 67.466127 
L 208.555645 69.007332 
L 209.250093 68.95361 
L 209.597318 68.848336 
L 210.291766 68.402341 
L 211.333438 68.243495 
L 212.027886 68.52516 
L 212.722334 68.339485 
L 213.069558 68.124263 
L 213.764007 67.240993 
L 216.194575 66.189893 
L 216.541799 66.210721 
L 217.236248 67.072031 
L 218.27792 66.676896 
L 218.972368 67.008912 
L 220.361264 66.33761 
L 221.055713 65.980597 
L 221.402937 65.732864 
L 221.750161 65.666996 
L 222.097385 66.00157 
L 222.444609 66.172385 
L 223.486281 65.623393 
L 224.18073 65.715002 
L 225.91685 65.054222 
L 227.305746 64.807839 
L 229.041867 64.76714 
L 229.736315 64.849001 
L 231.472436 65.317569 
L 231.81966 65.686125 
L 232.514108 66.930609 
L 232.861332 68.059031 
L 233.903004 73.169785 
L 234.250229 73.186885 
L 234.597453 73.980126 
L 235.639123 81.80282 
L 235.986353 81.481207 
L 236.333576 82.028849 
L 237.72247 95.152253 
L 238.069696 97.415937 
L 240.500265 122.013879 
L 240.847491 124.129969 
L 241.541939 130.70294 
L 242.236388 136.937747 
L 242.583612 138.363413 
L 242.930837 140.664276 
L 243.625287 147.654546 
L 243.972507 149.071673 
L 244.319732 147.931651 
L 244.666957 148.518857 
L 245.361406 154.045792 
L 245.70863 154.544147 
L 246.055854 154.148012 
L 246.403078 155.975737 
L 247.097528 160.985126 
L 247.444752 161.205793 
L 247.791976 161.020979 
L 248.139201 162.688451 
L 248.833649 166.656142 
L 249.528098 166.963964 
L 250.56977 171.656754 
L 250.916995 171.395493 
L 251.264219 171.4327 
L 252.305892 175.502361 
L 252.653116 175.507344 
L 253.00034 175.861519 
L 254.042012 179.402573 
L 254.389237 179.249947 
L 254.736461 179.523953 
L 255.43091 181.967425 
L 255.778133 182.169567 
L 256.125357 180.88167 
L 256.472581 180.629957 
L 257.514253 183.906778 
L 258.555925 187.346105 
L 258.90315 188.385529 
L 259.250374 188.718072 
L 259.597598 188.183277 
L 259.944822 188.298479 
L 260.63927 190.104476 
L 260.986494 190.200191 
L 261.333718 189.382055 
L 261.680942 189.315054 
L 262.37539 190.467164 
L 263.069838 191.279921 
L 263.764287 191.682702 
L 264.111511 191.74611 
L 264.458735 191.418589 
L 265.153183 190.259371 
L 265.847631 189.485472 
L 266.194856 190.042282 
L 266.542079 191.491756 
L 266.889304 191.817531 
L 268.625424 188.131877 
L 269.319872 185.385612 
L 269.667096 184.760365 
L 270.01432 185.071414 
L 270.361545 184.453594 
L 271.403216 179.759758 
L 271.750441 180.102228 
L 272.097665 179.332795 
L 273.139336 172.789929 
L 273.48656 172.451233 
L 273.833785 171.037749 
L 274.528233 165.295872 
L 274.875455 163.901693 
L 275.222681 164.623985 
L 275.569904 164.116592 
L 276.611577 156.077687 
L 276.958802 156.070682 
L 277.306027 154.273829 
L 278.000476 147.323406 
L 278.694923 145.347204 
L 279.736602 135.20969 
L 280.43105 134.228487 
L 281.472727 126.539499 
L 281.819951 126.804516 
L 282.167175 126.399096 
L 283.208848 119.278927 
L 283.903297 117.520106 
L 284.944969 112.178089 
L 285.639417 113.372006 
L 285.986641 112.169298 
L 286.333866 110.487097 
L 286.681089 109.592777 
L 287.375538 111.310812 
L 288.069986 109.322174 
L 288.41721 108.40278 
L 289.111658 107.311065 
L 291.195003 102.289765 
L 291.889451 100.628467 
L 292.236675 100.160855 
L 292.583899 99.505138 
L 293.625571 96.229153 
L 294.32002 97.674722 
L 294.667244 96.571448 
L 295.361692 93.502793 
L 295.708916 94.072193 
L 296.056141 94.267508 
L 296.403365 92.546808 
L 297.097813 88.35544 
L 297.445037 87.758144 
L 297.792261 86.750079 
L 298.833935 79.775472 
L 299.18116 79.252123 
L 299.528381 77.635156 
L 300.570057 68.684556 
L 300.917284 67.315364 
L 301.611735 61.117263 
L 301.95896 57.872757 
L 302.306183 56.624396 
L 302.653407 55.833888 
L 303.000632 295.284411 
L 303.695079 290.265755 
L 304.042303 289.680523 
L 304.389528 289.468548 
L 305.431202 284.209903 
L 306.12565 283.405411 
L 307.167323 279.937633 
L 307.861771 281.287527 
L 308.903443 279.668382 
L 309.597892 281.787988 
L 310.29234 281.609119 
L 310.639564 281.541413 
L 311.334012 279.182058 
L 311.681236 279.319165 
L 312.375684 280.160615 
L 312.722908 279.571227 
L 313.070132 279.215182 
L 313.764581 280.842974 
L 314.111805 281.610859 
L 314.459029 281.600309 
L 314.806253 281.893982 
L 315.500701 284.385825 
L 315.847926 285.902295 
L 316.195151 286.39832 
L 316.542373 287.224065 
L 317.236823 289.986325 
L 317.584048 290.992258 
L 317.931272 291.577423 
L 318.62572 293.371624 
L 318.972944 294.702562 
L 319.320168 295.462276 
L 319.667392 294.903145 
L 320.014616 294.987612 
L 320.361841 53.818452 
L 322.445185 58.200035 
L 323.486857 59.886906 
L 324.181305 61.095787 
L 324.52853 61.043 
L 324.875754 59.831087 
L 325.222978 59.347844 
L 326.26465 60.633216 
L 326.959098 61.821706 
L 328.000771 62.636491 
L 328.695219 62.71191 
L 329.389667 63.126932 
L 329.736891 63.097891 
L 330.084115 62.689296 
L 330.431339 62.484878 
L 331.473012 62.802476 
L 331.820236 63.21975 
L 332.16746 63.46138 
L 333.209132 63.630002 
L 333.90358 64.200446 
L 334.598029 64.254092 
L 334.945253 63.899078 
L 335.292477 62.936482 
L 335.639701 62.38608 
L 336.334149 62.288595 
L 336.681373 62.600862 
L 337.028597 63.577162 
L 337.375821 64.115626 
L 338.070269 64.095291 
L 338.417494 63.745228 
L 338.764718 62.876736 
L 339.111942 62.375691 
L 339.80639 62.221571 
L 340.153614 62.439365 
L 340.500838 63.193508 
L 340.848062 63.594613 
L 341.889734 63.284576 
L 342.584183 62.640817 
L 345.014751 61.921482 
L 345.361975 62.066103 
L 345.709199 62.662373 
L 346.056424 62.959032 
L 346.403648 62.909828 
L 346.750872 62.974631 
L 347.098096 62.701386 
L 347.44532 61.958173 
L 347.792544 61.636304 
L 348.486992 61.987359 
L 348.834216 62.359528 
L 349.528665 63.532814 
L 350.223113 64.480078 
L 350.917561 66.006732 
L 352.306457 69.122228 
L 352.653681 68.398049 
L 353.000906 68.48933 
L 354.042578 71.885365 
L 354.389802 71.464271 
L 354.737026 72.090294 
L 355.778697 77.284362 
L 356.125924 77.808713 
L 356.473147 79.056006 
L 357.167598 83.286296 
L 357.514821 84.043112 
L 357.862045 84.137263 
L 358.556494 87.789343 
L 358.903722 90.142042 
L 359.598166 92.696786 
L 359.945392 95.068679 
L 360.292617 96.559334 
L 361.681513 104.616693 
L 362.375962 106.55491 
L 362.723186 106.068093 
L 363.070411 106.145032 
L 363.764859 108.125268 
L 364.112083 108.90564 
L 364.459307 109.082069 
L 364.806531 109.421175 
L 366.195428 112.53516 
L 367.584324 115.534641 
L 368.278772 117.831254 
L 368.97322 119.708408 
L 369.320444 120.6974 
L 369.667669 120.427138 
L 370.014893 120.574471 
L 371.40379 125.279022 
L 371.751013 126.180179 
L 372.792694 131.969762 
L 374.181584 141.433806 
L 374.528807 142.56157 
L 374.876032 142.870093 
L 375.570483 146.14255 
L 377.306602 156.408364 
L 377.653826 158.280317 
L 378.348272 160.272456 
L 378.6955 162.005267 
L 379.389948 163.98237 
L 379.737171 163.720221 
L 380.084396 163.657138 
L 380.778844 165.504367 
L 381.126068 166.303499 
L 381.820516 168.802805 
L 382.862189 170.704204 
L 383.556637 169.568987 
L 384.598309 171.059042 
L 385.292757 169.711938 
L 386.33443 170.760923 
L 387.028878 173.33217 
L 388.07055 174.063197 
L 388.764998 173.224468 
L 389.80667 173.956941 
L 390.501119 173.289964 
L 391.542791 173.940617 
L 392.237239 173.595641 
L 393.278911 174.164501 
L 393.973359 174.043283 
L 395.015032 174.531017 
L 395.70948 174.494139 
L 396.751152 174.901144 
L 397.4456 174.881997 
L 398.487273 175.157586 
L 398.487273 175.157586 
" style="fill:none;stroke:#1f77b4;stroke-linecap:square;stroke-width:1.5;"/>
   </g>
   <g id="line2d_15">
    <path clip-path="url(#p2bb6193df5)" d="M 73.832727 174.426922 
L 100.797382 174.512918 
L 102.619318 174.558111 
L 105.170029 174.432197 
L 105.534416 174.264524 
L 106.26319 174.355854 
L 106.991958 173.261423 
L 108.084697 185.691214 
L 109.177245 199.662461 
L 109.905638 212.606005 
L 111.363054 221.775208 
L 112.091827 220.653485 
L 113.184989 220.788168 
L 115.006925 220.744283 
L 118.28641 220.830077 
L 119.015184 220.902829 
L 123.023444 220.934148 
L 124.480993 221.327399 
L 125.209766 221.856151 
L 125.938541 221.849158 
L 126.667313 222.671831 
L 127.396087 222.931162 
L 130.311185 222.958738 
L 157.27584 222.867401 
L 158.369002 222.69516 
L 159.826551 222.573199 
L 160.919712 222.380512 
L 163.83481 222.444456 
L 169.300618 222.472041 
L 170.029392 222.639855 
L 170.758166 222.628149 
L 172.215715 222.514036 
L 174.766425 222.735751 
L 175.4952 222.622264 
L 177.317135 223.077419 
L 177.681522 223.207892 
L 178.410295 222.83945 
L 179.500992 242.305746 
L 179.864742 246.522843 
L 180.592583 257.982649 
L 181.685438 287.360329 
L 182.04951 53.950765 
L 183.142647 57.482071 
L 183.507023 58.897267 
L 184.235797 59.435525 
L 184.964569 60.419457 
L 187.879666 62.105729 
L 188.60844 61.916723 
L 189.701602 63.439484 
L 190.065989 64.020811 
L 190.794763 64.666376 
L 191.523537 66.76839 
L 192.252312 67.533339 
L 193.345473 67.786419 
L 194.803022 67.830631 
L 204.641478 67.890139 
L 214.84432 67.956061 
L 233.792456 68.086445 
L 235.978779 68.55115 
L 236.707553 68.278525 
L 237.436327 68.505518 
L 238.165088 69.881718 
L 238.893832 71.845787 
L 239.619105 91.104438 
L 240.347831 98.540278 
L 241.076185 117.367679 
L 241.804942 122.678583 
L 242.533254 138.118079 
L 243.262004 141.883689 
L 243.990679 149.379826 
L 244.719451 150.285748 
L 245.448188 154.169838 
L 246.176962 154.733018 
L 246.905728 156.724726 
L 247.634502 157.352204 
L 248.363259 160.241707 
L 249.092032 161.145879 
L 249.820795 163.239154 
L 250.549566 164.699312 
L 252.007089 169.938788 
L 252.735859 171.518499 
L 253.464622 174.203356 
L 254.193396 175.075022 
L 254.922162 177.291943 
L 255.650936 178.077742 
L 257.108472 182.44919 
L 258.201634 182.63514 
L 258.930409 182.722058 
L 260.02357 182.916431 
L 261.116732 182.937532 
L 262.209894 183.000819 
L 265.124991 182.985857 
L 265.853766 182.846962 
L 267.311315 183.220193 
L 268.768863 182.468811 
L 269.497638 182.192902 
L 271.319574 182.166415 
L 272.412735 182.038612 
L 273.141509 182.409564 
L 273.870282 180.959735 
L 275.327816 175.712796 
L 276.056477 167.460384 
L 276.785246 165.627349 
L 277.513908 155.648579 
L 278.242666 151.346537 
L 281.157678 127.776235 
L 281.886432 123.933861 
L 282.615134 116.023084 
L 283.343906 113.797407 
L 284.072629 108.084615 
L 285.530173 105.539653 
L 286.258947 104.548522 
L 286.987721 104.993786 
L 287.716495 104.95064 
L 288.445269 104.348051 
L 289.538431 104.431322 
L 292.089142 104.286327 
L 292.817916 104.437288 
L 293.54669 103.681723 
L 294.639852 103.911501 
L 295.004239 104.044858 
L 295.733013 101.852251 
L 296.461786 100.361131 
L 297.190559 96.335683 
L 297.919329 88.893179 
L 298.648096 85.458725 
L 299.376862 77.504993 
L 300.105627 74.672974 
L 300.834361 64.774579 
L 301.563133 63.403846 
L 301.927293 57.528219 
L 302.29168 293.755208 
L 303.020445 291.519442 
L 303.74916 286.757983 
L 304.477934 286.249682 
L 311.036904 285.944489 
L 313.952002 285.937765 
L 314.680776 286.964041 
L 316.502705 294.575741 
L 316.867093 54.229112 
L 317.595867 53.87235 
L 318.324642 53.960388 
L 319.053416 54.541166 
L 319.782172 58.137938 
L 320.510944 59.768835 
L 321.604105 61.0129 
L 322.33288 61.755618 
L 322.697267 62.181237 
L 323.426041 62.632307 
L 324.88359 62.403955 
L 326.341139 62.702334 
L 332.535722 62.691611 
L 338.00153 62.859938 
L 339.459079 62.949356 
L 347.111211 63.071601 
L 349.297534 63.128576 
L 350.390696 63.182042 
L 352.577019 63.253435 
L 353.305794 63.563152 
L 354.398955 63.292568 
L 354.763342 63.289534 
L 355.492114 64.017211 
L 356.220887 63.617921 
L 357.313889 71.136054 
L 357.678183 73.252429 
L 358.406647 80.95115 
L 359.134848 92.861971 
L 359.863594 95.52645 
L 360.592182 107.736243 
L 361.320942 109.4713 
L 362.049665 114.288395 
L 362.778439 113.487584 
L 363.507214 113.233786 
L 364.235987 113.647773 
L 365.329149 113.640878 
L 366.422311 113.742978 
L 368.608634 113.671778 
L 369.337408 114.129299 
L 370.066183 114.277582 
L 370.794956 113.80447 
L 371.52373 114.007093 
L 372.252501 114.944758 
L 372.981184 119.403652 
L 373.709953 131.493304 
L 374.438657 140.169585 
L 375.166687 154.218737 
L 375.895456 159.378918 
L 376.624074 166.458751 
L 377.352848 166.722715 
L 378.081621 167.322478 
L 379.53917 167.017041 
L 380.996719 167.218065 
L 381.725493 167.16374 
L 382.454256 168.740821 
L 383.183015 171.670789 
L 383.911788 172.239081 
L 385.369332 174.395618 
L 386.462494 174.478686 
L 390.835141 174.417092 
L 398.487273 174.419845 
L 398.487273 174.419845 
" style="fill:none;stroke:#ff7f0e;stroke-linecap:square;stroke-width:1.5;"/>
   </g>
   <g id="line2d_16">
    <path clip-path="url(#p2bb6193df5)" d="M 73.832727 174.486534 
L 92.55608 174.584989 
L 94.322434 175.200344 
L 95.735517 175.884198 
L 96.795329 176.622499 
L 98.208412 177.969191 
L 99.974765 180.133904 
L 101.387846 182.224228 
L 102.800927 184.648556 
L 104.214007 187.420362 
L 105.627087 190.568451 
L 108.099971 196.810254 
L 111.985936 206.845421 
L 113.399015 209.877269 
L 114.812095 212.533255 
L 116.225175 214.832576 
L 117.638257 216.758321 
L 118.698068 217.933341 
L 121.170962 220.162711 
L 123.643857 222.107698 
L 126.116751 223.747728 
L 128.589646 225.124564 
L 131.062542 226.22184 
L 133.182166 226.943965 
L 135.301791 227.461966 
L 137.421416 227.776463 
L 139.54104 227.887741 
L 141.660665 227.795893 
L 143.78029 227.501116 
L 145.899915 227.002897 
L 148.019539 226.301533 
L 150.139164 225.396446 
L 152.258788 224.287088 
L 154.378411 222.972368 
L 156.851305 221.19508 
L 159.324199 219.481409 
L 161.443823 218.235765 
L 163.563447 217.20171 
L 165.683071 216.376616 
L 166.742883 216.07611 
L 167.449425 216.094164 
L 168.155966 216.383212 
L 168.862507 216.956087 
L 169.922318 218.385202 
L 170.628856 219.683722 
L 171.335392 221.278499 
L 172.395188 224.153294 
L 173.808243 228.922906 
L 175.221285 234.793713 
L 176.634301 242.406814 
L 178.047302 251.227635 
L 181.5798 277.231928 
L 182.992848 285.29276 
L 184.405909 291.886395 
L 185.112443 294.712756 
L 185.465714 53.942786 
L 186.525516 57.450919 
L 187.938593 61.035508 
L 189.351673 63.640695 
L 190.764754 65.822485 
L 192.177836 67.592672 
L 193.590918 68.946582 
L 195.004001 69.871827 
L 196.417084 70.366657 
L 197.830167 70.48244 
L 201.362875 70.365762 
L 204.895583 70.012122 
L 208.428291 69.421485 
L 211.960999 68.593643 
L 218.319873 66.952569 
L 221.49931 66.459498 
L 224.325477 66.222751 
L 227.151643 66.177205 
L 228.917997 66.313362 
L 229.624539 66.645338 
L 230.331079 67.31726 
L 231.390889 69.073891 
L 232.097427 70.649291 
L 233.157224 73.522535 
L 234.570281 78.40951 
L 235.983322 84.810419 
L 237.396336 93.229457 
L 238.809329 103.644971 
L 242.695159 135.995897 
L 243.754962 142.698142 
L 245.521314 152.073143 
L 246.934396 158.518741 
L 248.347477 164.263092 
L 249.760558 169.359119 
L 251.17364 173.848134 
L 252.586721 177.761991 
L 253.999804 181.116152 
L 255.059616 183.281527 
L 256.472699 185.634239 
L 257.885781 187.442646 
L 259.298865 188.664506 
L 260.358677 189.18176 
L 261.418489 189.463743 
L 262.478302 189.486681 
L 263.184843 189.332793 
L 263.891385 189.018063 
L 264.597927 188.538983 
L 265.304468 187.893972 
L 266.364281 186.645449 
L 267.777364 184.427957 
L 269.190446 181.589419 
L 270.603529 178.120886 
L 272.016611 173.986891 
L 273.782963 167.79759 
L 275.196045 161.981218 
L 276.255857 156.990962 
L 281.201617 132.191409 
L 283.321229 123.962804 
L 285.440843 116.759951 
L 287.560459 110.40812 
L 290.033346 103.884433 
L 292.152963 98.179809 
L 294.272578 91.904386 
L 296.392191 84.888725 
L 298.158534 78.366164 
L 299.924864 70.831825 
L 303.457518 54.533589 
L 303.810789 295.190283 
L 305.223859 290.470132 
L 306.636934 286.811035 
L 307.696742 284.7706 
L 308.403283 283.705053 
L 309.109824 282.890038 
L 309.816365 282.324258 
L 310.522907 282.007229 
L 310.876178 281.911496 
L 311.582719 281.967044 
L 312.289261 282.269621 
L 313.349072 283.219218 
L 314.055613 284.139128 
L 315.468693 286.375114 
L 317.941586 290.182255 
L 320.061208 293.042349 
L 321.82756 295.196716 
L 322.180831 53.568 
L 324.653725 56.171964 
L 326.420078 57.777847 
L 328.539702 59.423373 
L 330.659327 60.76359 
L 332.778951 61.799158 
L 334.898576 62.506442 
L 337.018201 62.911843 
L 341.610721 63.252676 
L 344.436888 63.511774 
L 345.4967 63.790375 
L 346.556512 64.362381 
L 347.616325 65.193806 
L 349.029408 66.723022 
L 350.442491 68.689321 
L 351.855574 71.09165 
L 353.268657 73.941986 
L 355.035011 78.188789 
L 356.801365 83.136235 
L 362.453696 100.971665 
L 369.165834 122.326681 
L 371.638725 130.771901 
L 377.997579 153.382895 
L 380.117198 159.212428 
L 381.883549 163.281107 
L 383.296631 166.037589 
L 384.709713 168.3951 
L 386.122795 170.352291 
L 387.182607 171.589372 
L 388.59569 172.88082 
L 390.008773 173.779356 
L 391.421857 174.291114 
L 392.83494 174.485456 
L 397.780731 174.490533 
L 398.487273 174.488619 
L 398.487273 174.488619 
" style="fill:none;stroke:#2ca02c;stroke-linecap:square;stroke-width:1.5;"/>
   </g>
   <g id="patch_3">
    <path d="M 57.6 307.584 
L 57.6 41.472 
" style="fill:none;stroke:#000000;stroke-linecap:square;stroke-linejoin:miter;stroke-width:0.8;"/>
   </g>
   <g id="patch_4">
    <path d="M 414.72 307.584 
L 414.72 41.472 
" style="fill:none;stroke:#000000;stroke-linecap:square;stroke-linejoin:miter;stroke-width:0.8;"/>
   </g>
   <g id="patch_5">
    <path d="M 57.6 307.584 
L 414.72 307.584 
" style="fill:none;stroke:#000000;stroke-linecap:square;stroke-linejoin:miter;stroke-width:0.8;"/>
   </g>
   <g id="patch_6">
    <path d="M 57.6 41.472 
L 414.72 41.472 
" style="fill:none;stroke:#000000;stroke-linecap:square;stroke-linejoin:miter;stroke-width:0.8;"/>
   </g>
   <g id="text_14">
    <!-- Heading vs Distance aut -->
    <g transform="translate(162.7275 35.472)scale(0.12 -0.12)">
     <defs>
      <path d="M 9.8125 72.90625 
L 19.671875 72.90625 
L 19.671875 43.015625 
L 55.515625 43.015625 
L 55.515625 72.90625 
L 65.375 72.90625 
L 65.375 0 
L 55.515625 0 
L 55.515625 34.71875 
L 19.671875 34.71875 
L 19.671875 0 
L 9.8125 0 
z
" id="DejaVuSans-72"/>
      <path d="M 56.203125 29.59375 
L 56.203125 25.203125 
L 14.890625 25.203125 
Q 15.484375 15.921875 20.484375 11.0625 
Q 25.484375 6.203125 34.421875 6.203125 
Q 39.59375 6.203125 44.453125 7.46875 
Q 49.3125 8.734375 54.109375 11.28125 
L 54.109375 2.78125 
Q 49.265625 0.734375 44.1875 -0.34375 
Q 39.109375 -1.421875 33.890625 -1.421875 
Q 20.796875 -1.421875 13.15625 6.1875 
Q 5.515625 13.8125 5.515625 26.8125 
Q 5.515625 40.234375 12.765625 48.109375 
Q 20.015625 56 32.328125 56 
Q 43.359375 56 49.78125 48.890625 
Q 56.203125 41.796875 56.203125 29.59375 
z
M 47.21875 32.234375 
Q 47.125 39.59375 43.09375 43.984375 
Q 39.0625 48.390625 32.421875 48.390625 
Q 24.90625 48.390625 20.390625 44.140625 
Q 15.875 39.890625 15.1875 32.171875 
z
" id="DejaVuSans-101"/>
      <path d="M 34.28125 27.484375 
Q 23.390625 27.484375 19.1875 25 
Q 14.984375 22.515625 14.984375 16.5 
Q 14.984375 11.71875 18.140625 8.90625 
Q 21.296875 6.109375 26.703125 6.109375 
Q 34.1875 6.109375 38.703125 11.40625 
Q 43.21875 16.703125 43.21875 25.484375 
L 43.21875 27.484375 
z
M 52.203125 31.203125 
L 52.203125 0 
L 43.21875 0 
L 43.21875 8.296875 
Q 40.140625 3.328125 35.546875 0.953125 
Q 30.953125 -1.421875 24.3125 -1.421875 
Q 15.921875 -1.421875 10.953125 3.296875 
Q 6 8.015625 6 15.921875 
Q 6 25.140625 12.171875 29.828125 
Q 18.359375 34.515625 30.609375 34.515625 
L 43.21875 34.515625 
L 43.21875 35.40625 
Q 43.21875 41.609375 39.140625 45 
Q 35.0625 48.390625 27.6875 48.390625 
Q 23 48.390625 18.546875 47.265625 
Q 14.109375 46.140625 10.015625 43.890625 
L 10.015625 52.203125 
Q 14.9375 54.109375 19.578125 55.046875 
Q 24.21875 56 28.609375 56 
Q 40.484375 56 46.34375 49.84375 
Q 52.203125 43.703125 52.203125 31.203125 
z
" id="DejaVuSans-97"/>
      <path d="M 45.40625 46.390625 
L 45.40625 75.984375 
L 54.390625 75.984375 
L 54.390625 0 
L 45.40625 0 
L 45.40625 8.203125 
Q 42.578125 3.328125 38.25 0.953125 
Q 33.9375 -1.421875 27.875 -1.421875 
Q 17.96875 -1.421875 11.734375 6.484375 
Q 5.515625 14.40625 5.515625 27.296875 
Q 5.515625 40.1875 11.734375 48.09375 
Q 17.96875 56 27.875 56 
Q 33.9375 56 38.25 53.625 
Q 42.578125 51.265625 45.40625 46.390625 
z
M 14.796875 27.296875 
Q 14.796875 17.390625 18.875 11.75 
Q 22.953125 6.109375 30.078125 6.109375 
Q 37.203125 6.109375 41.296875 11.75 
Q 45.40625 17.390625 45.40625 27.296875 
Q 45.40625 37.203125 41.296875 42.84375 
Q 37.203125 48.484375 30.078125 48.484375 
Q 22.953125 48.484375 18.875 42.84375 
Q 14.796875 37.203125 14.796875 27.296875 
z
" id="DejaVuSans-100"/>
      <path d="M 9.421875 54.6875 
L 18.40625 54.6875 
L 18.40625 0 
L 9.421875 0 
z
M 9.421875 75.984375 
L 18.40625 75.984375 
L 18.40625 64.59375 
L 9.421875 64.59375 
z
" id="DejaVuSans-105"/>
      <path d="M 54.890625 33.015625 
L 54.890625 0 
L 45.90625 0 
L 45.90625 32.71875 
Q 45.90625 40.484375 42.875 44.328125 
Q 39.84375 48.1875 33.796875 48.1875 
Q 26.515625 48.1875 22.3125 43.546875 
Q 18.109375 38.921875 18.109375 30.90625 
L 18.109375 0 
L 9.078125 0 
L 9.078125 54.6875 
L 18.109375 54.6875 
L 18.109375 46.1875 
Q 21.34375 51.125 25.703125 53.5625 
Q 30.078125 56 35.796875 56 
Q 45.21875 56 50.046875 50.171875 
Q 54.890625 44.34375 54.890625 33.015625 
z
" id="DejaVuSans-110"/>
      <path d="M 45.40625 27.984375 
Q 45.40625 37.75 41.375 43.109375 
Q 37.359375 48.484375 30.078125 48.484375 
Q 22.859375 48.484375 18.828125 43.109375 
Q 14.796875 37.75 14.796875 27.984375 
Q 14.796875 18.265625 18.828125 12.890625 
Q 22.859375 7.515625 30.078125 7.515625 
Q 37.359375 7.515625 41.375 12.890625 
Q 45.40625 18.265625 45.40625 27.984375 
z
M 54.390625 6.78125 
Q 54.390625 -7.171875 48.1875 -13.984375 
Q 42 -20.796875 29.203125 -20.796875 
Q 24.46875 -20.796875 20.265625 -20.09375 
Q 16.0625 -19.390625 12.109375 -17.921875 
L 12.109375 -9.1875 
Q 16.0625 -11.328125 19.921875 -12.34375 
Q 23.78125 -13.375 27.78125 -13.375 
Q 36.625 -13.375 41.015625 -8.765625 
Q 45.40625 -4.15625 45.40625 5.171875 
L 45.40625 9.625 
Q 42.625 4.78125 38.28125 2.390625 
Q 33.9375 0 27.875 0 
Q 17.828125 0 11.671875 7.65625 
Q 5.515625 15.328125 5.515625 27.984375 
Q 5.515625 40.671875 11.671875 48.328125 
Q 17.828125 56 27.875 56 
Q 33.9375 56 38.28125 53.609375 
Q 42.625 51.21875 45.40625 46.390625 
L 45.40625 54.6875 
L 54.390625 54.6875 
z
" id="DejaVuSans-103"/>
      <path id="DejaVuSans-32"/>
      <path d="M 2.984375 54.6875 
L 12.5 54.6875 
L 29.59375 8.796875 
L 46.6875 54.6875 
L 56.203125 54.6875 
L 35.6875 0 
L 23.484375 0 
z
" id="DejaVuSans-118"/>
      <path d="M 44.28125 53.078125 
L 44.28125 44.578125 
Q 40.484375 46.53125 36.375 47.5 
Q 32.28125 48.484375 27.875 48.484375 
Q 21.1875 48.484375 17.84375 46.4375 
Q 14.5 44.390625 14.5 40.28125 
Q 14.5 37.15625 16.890625 35.375 
Q 19.28125 33.59375 26.515625 31.984375 
L 29.59375 31.296875 
Q 39.15625 29.25 43.1875 25.515625 
Q 47.21875 21.78125 47.21875 15.09375 
Q 47.21875 7.46875 41.1875 3.015625 
Q 35.15625 -1.421875 24.609375 -1.421875 
Q 20.21875 -1.421875 15.453125 -0.5625 
Q 10.6875 0.296875 5.421875 2 
L 5.421875 11.28125 
Q 10.40625 8.6875 15.234375 7.390625 
Q 20.0625 6.109375 24.8125 6.109375 
Q 31.15625 6.109375 34.5625 8.28125 
Q 37.984375 10.453125 37.984375 14.40625 
Q 37.984375 18.0625 35.515625 20.015625 
Q 33.0625 21.96875 24.703125 23.78125 
L 21.578125 24.515625 
Q 13.234375 26.265625 9.515625 29.90625 
Q 5.8125 33.546875 5.8125 39.890625 
Q 5.8125 47.609375 11.28125 51.796875 
Q 16.75 56 26.8125 56 
Q 31.78125 56 36.171875 55.265625 
Q 40.578125 54.546875 44.28125 53.078125 
z
" id="DejaVuSans-115"/>
      <path d="M 19.671875 64.796875 
L 19.671875 8.109375 
L 31.59375 8.109375 
Q 46.6875 8.109375 53.6875 14.9375 
Q 60.6875 21.78125 60.6875 36.53125 
Q 60.6875 51.171875 53.6875 57.984375 
Q 46.6875 64.796875 31.59375 64.796875 
z
M 9.8125 72.90625 
L 30.078125 72.90625 
Q 51.265625 72.90625 61.171875 64.09375 
Q 71.09375 55.28125 71.09375 36.53125 
Q 71.09375 17.671875 61.125 8.828125 
Q 51.171875 0 30.078125 0 
L 9.8125 0 
z
" id="DejaVuSans-68"/>
      <path d="M 18.3125 70.21875 
L 18.3125 54.6875 
L 36.8125 54.6875 
L 36.8125 47.703125 
L 18.3125 47.703125 
L 18.3125 18.015625 
Q 18.3125 11.328125 20.140625 9.421875 
Q 21.96875 7.515625 27.59375 7.515625 
L 36.8125 7.515625 
L 36.8125 0 
L 27.59375 0 
Q 17.1875 0 13.234375 3.875 
Q 9.28125 7.765625 9.28125 18.015625 
L 9.28125 47.703125 
L 2.6875 47.703125 
L 2.6875 54.6875 
L 9.28125 54.6875 
L 9.28125 70.21875 
z
" id="DejaVuSans-116"/>
      <path d="M 48.78125 52.59375 
L 48.78125 44.1875 
Q 44.96875 46.296875 41.140625 47.34375 
Q 37.3125 48.390625 33.40625 48.390625 
Q 24.65625 48.390625 19.8125 42.84375 
Q 14.984375 37.3125 14.984375 27.296875 
Q 14.984375 17.28125 19.8125 11.734375 
Q 24.65625 6.203125 33.40625 6.203125 
Q 37.3125 6.203125 41.140625 7.25 
Q 44.96875 8.296875 48.78125 10.40625 
L 48.78125 2.09375 
Q 45.015625 0.34375 40.984375 -0.53125 
Q 36.96875 -1.421875 32.421875 -1.421875 
Q 20.0625 -1.421875 12.78125 6.34375 
Q 5.515625 14.109375 5.515625 27.296875 
Q 5.515625 40.671875 12.859375 48.328125 
Q 20.21875 56 33.015625 56 
Q 37.15625 56 41.109375 55.140625 
Q 45.0625 54.296875 48.78125 52.59375 
z
" id="DejaVuSans-99"/>
      <path d="M 8.5 21.578125 
L 8.5 54.6875 
L 17.484375 54.6875 
L 17.484375 21.921875 
Q 17.484375 14.15625 20.5 10.265625 
Q 23.53125 6.390625 29.59375 6.390625 
Q 36.859375 6.390625 41.078125 11.03125 
Q 45.3125 15.671875 45.3125 23.6875 
L 45.3125 54.6875 
L 54.296875 54.6875 
L 54.296875 0 
L 45.3125 0 
L 45.3125 8.40625 
Q 42.046875 3.421875 37.71875 1 
Q 33.40625 -1.421875 27.6875 -1.421875 
Q 18.265625 -1.421875 13.375 4.4375 
Q 8.5 10.296875 8.5 21.578125 
z
M 31.109375 56 
z
" id="DejaVuSans-117"/>
     </defs>
     <use xlink:href="#DejaVuSans-72"/>
     <use x="75.195312" xlink:href="#DejaVuSans-101"/>
     <use x="136.71875" xlink:href="#DejaVuSans-97"/>
     <use x="197.998047" xlink:href="#DejaVuSans-100"/>
     <use x="261.474609" xlink:href="#DejaVuSans-105"/>
     <use x="289.257812" xlink:href="#DejaVuSans-110"/>
     <use x="352.636719" xlink:href="#DejaVuSans-103"/>
     <use x="416.113281" xlink:href="#DejaVuSans-32"/>
     <use x="447.900391" xlink:href="#DejaVuSans-118"/>
     <use x="507.080078" xlink:href="#DejaVuSans-115"/>
     <use x="559.179688" xlink:href="#DejaVuSans-32"/>
     <use x="590.966797" xlink:href="#DejaVuSans-68"/>
     <use x="667.96875" xlink:href="#DejaVuSans-105"/>
     <use x="695.751953" xlink:href="#DejaVuSans-115"/>
     <use x="747.851562" xlink:href="#DejaVuSans-116"/>
     <use x="787.060547" xlink:href="#DejaVuSans-97"/>
     <use x="848.339844" xlink:href="#DejaVuSans-110"/>
     <use x="911.71875" xlink:href="#DejaVuSans-99"/>
     <use x="966.699219" xlink:href="#DejaVuSans-101"/>
     <use x="1028.222656" xlink:href="#DejaVuSans-32"/>
     <use x="1060.009766" xlink:href="#DejaVuSans-97"/>
     <use x="1121.289062" xlink:href="#DejaVuSans-117"/>
     <use x="1184.667969" xlink:href="#DejaVuSans-116"/>
    </g>
   </g>
   <g id="legend_1">
    <g id="patch_7">
     <path d="M 276.42625 93.506375 
L 407.72 93.506375 
Q 409.72 93.506375 409.72 91.506375 
L 409.72 48.472 
Q 409.72 46.472 407.72 46.472 
L 276.42625 46.472 
Q 274.42625 46.472 274.42625 48.472 
L 274.42625 91.506375 
Q 274.42625 93.506375 276.42625 93.506375 
z
" style="fill:#ffffff;opacity:0.8;stroke:#cccccc;stroke-linejoin:miter;"/>
    </g>
    <g id="line2d_17">
     <path d="M 278.42625 54.570438 
L 298.42625 54.570438 
" style="fill:none;stroke:#1f77b4;stroke-linecap:square;stroke-width:1.5;"/>
    </g>
    <g id="line2d_18"/>
    <g id="text_15">
     <!-- Centreline -->
     <g transform="translate(306.42625 58.070438)scale(0.1 -0.1)">
      <defs>
       <path d="M 64.40625 67.28125 
L 64.40625 56.890625 
Q 59.421875 61.53125 53.78125 63.8125 
Q 48.140625 66.109375 41.796875 66.109375 
Q 29.296875 66.109375 22.65625 58.46875 
Q 16.015625 50.828125 16.015625 36.375 
Q 16.015625 21.96875 22.65625 14.328125 
Q 29.296875 6.6875 41.796875 6.6875 
Q 48.140625 6.6875 53.78125 8.984375 
Q 59.421875 11.28125 64.40625 15.921875 
L 64.40625 5.609375 
Q 59.234375 2.09375 53.4375 0.328125 
Q 47.65625 -1.421875 41.21875 -1.421875 
Q 24.65625 -1.421875 15.125 8.703125 
Q 5.609375 18.84375 5.609375 36.375 
Q 5.609375 53.953125 15.125 64.078125 
Q 24.65625 74.21875 41.21875 74.21875 
Q 47.75 74.21875 53.53125 72.484375 
Q 59.328125 70.75 64.40625 67.28125 
z
" id="DejaVuSans-67"/>
       <path d="M 41.109375 46.296875 
Q 39.59375 47.171875 37.8125 47.578125 
Q 36.03125 48 33.890625 48 
Q 26.265625 48 22.1875 43.046875 
Q 18.109375 38.09375 18.109375 28.8125 
L 18.109375 0 
L 9.078125 0 
L 9.078125 54.6875 
L 18.109375 54.6875 
L 18.109375 46.1875 
Q 20.953125 51.171875 25.484375 53.578125 
Q 30.03125 56 36.53125 56 
Q 37.453125 56 38.578125 55.875 
Q 39.703125 55.765625 41.0625 55.515625 
z
" id="DejaVuSans-114"/>
       <path d="M 9.421875 75.984375 
L 18.40625 75.984375 
L 18.40625 0 
L 9.421875 0 
z
" id="DejaVuSans-108"/>
      </defs>
      <use xlink:href="#DejaVuSans-67"/>
      <use x="69.824219" xlink:href="#DejaVuSans-101"/>
      <use x="131.347656" xlink:href="#DejaVuSans-110"/>
      <use x="194.726562" xlink:href="#DejaVuSans-116"/>
      <use x="233.935547" xlink:href="#DejaVuSans-114"/>
      <use x="272.798828" xlink:href="#DejaVuSans-101"/>
      <use x="334.322266" xlink:href="#DejaVuSans-108"/>
      <use x="362.105469" xlink:href="#DejaVuSans-105"/>
      <use x="389.888672" xlink:href="#DejaVuSans-110"/>
      <use x="453.267578" xlink:href="#DejaVuSans-101"/>
     </g>
    </g>
    <g id="line2d_19">
     <path d="M 278.42625 69.248563 
L 298.42625 69.248563 
" style="fill:none;stroke:#ff7f0e;stroke-linecap:square;stroke-width:1.5;"/>
    </g>
    <g id="line2d_20"/>
    <g id="text_16">
     <!-- Shortest Path -->
     <g transform="translate(306.42625 72.748563)scale(0.1 -0.1)">
      <defs>
       <path d="M 53.515625 70.515625 
L 53.515625 60.890625 
Q 47.90625 63.578125 42.921875 64.890625 
Q 37.9375 66.21875 33.296875 66.21875 
Q 25.25 66.21875 20.875 63.09375 
Q 16.5 59.96875 16.5 54.203125 
Q 16.5 49.359375 19.40625 46.890625 
Q 22.3125 44.4375 30.421875 42.921875 
L 36.375 41.703125 
Q 47.40625 39.59375 52.65625 34.296875 
Q 57.90625 29 57.90625 20.125 
Q 57.90625 9.515625 50.796875 4.046875 
Q 43.703125 -1.421875 29.984375 -1.421875 
Q 24.8125 -1.421875 18.96875 -0.25 
Q 13.140625 0.921875 6.890625 3.21875 
L 6.890625 13.375 
Q 12.890625 10.015625 18.65625 8.296875 
Q 24.421875 6.59375 29.984375 6.59375 
Q 38.421875 6.59375 43.015625 9.90625 
Q 47.609375 13.234375 47.609375 19.390625 
Q 47.609375 24.75 44.3125 27.78125 
Q 41.015625 30.8125 33.5 32.328125 
L 27.484375 33.5 
Q 16.453125 35.6875 11.515625 40.375 
Q 6.59375 45.0625 6.59375 53.421875 
Q 6.59375 63.09375 13.40625 68.65625 
Q 20.21875 74.21875 32.171875 74.21875 
Q 37.3125 74.21875 42.625 73.28125 
Q 47.953125 72.359375 53.515625 70.515625 
z
" id="DejaVuSans-83"/>
       <path d="M 54.890625 33.015625 
L 54.890625 0 
L 45.90625 0 
L 45.90625 32.71875 
Q 45.90625 40.484375 42.875 44.328125 
Q 39.84375 48.1875 33.796875 48.1875 
Q 26.515625 48.1875 22.3125 43.546875 
Q 18.109375 38.921875 18.109375 30.90625 
L 18.109375 0 
L 9.078125 0 
L 9.078125 75.984375 
L 18.109375 75.984375 
L 18.109375 46.1875 
Q 21.34375 51.125 25.703125 53.5625 
Q 30.078125 56 35.796875 56 
Q 45.21875 56 50.046875 50.171875 
Q 54.890625 44.34375 54.890625 33.015625 
z
" id="DejaVuSans-104"/>
       <path d="M 30.609375 48.390625 
Q 23.390625 48.390625 19.1875 42.75 
Q 14.984375 37.109375 14.984375 27.296875 
Q 14.984375 17.484375 19.15625 11.84375 
Q 23.34375 6.203125 30.609375 6.203125 
Q 37.796875 6.203125 41.984375 11.859375 
Q 46.1875 17.53125 46.1875 27.296875 
Q 46.1875 37.015625 41.984375 42.703125 
Q 37.796875 48.390625 30.609375 48.390625 
z
M 30.609375 56 
Q 42.328125 56 49.015625 48.375 
Q 55.71875 40.765625 55.71875 27.296875 
Q 55.71875 13.875 49.015625 6.21875 
Q 42.328125 -1.421875 30.609375 -1.421875 
Q 18.84375 -1.421875 12.171875 6.21875 
Q 5.515625 13.875 5.515625 27.296875 
Q 5.515625 40.765625 12.171875 48.375 
Q 18.84375 56 30.609375 56 
z
" id="DejaVuSans-111"/>
       <path d="M 19.671875 64.796875 
L 19.671875 37.40625 
L 32.078125 37.40625 
Q 38.96875 37.40625 42.71875 40.96875 
Q 46.484375 44.53125 46.484375 51.125 
Q 46.484375 57.671875 42.71875 61.234375 
Q 38.96875 64.796875 32.078125 64.796875 
z
M 9.8125 72.90625 
L 32.078125 72.90625 
Q 44.34375 72.90625 50.609375 67.359375 
Q 56.890625 61.8125 56.890625 51.125 
Q 56.890625 40.328125 50.609375 34.8125 
Q 44.34375 29.296875 32.078125 29.296875 
L 19.671875 29.296875 
L 19.671875 0 
L 9.8125 0 
z
" id="DejaVuSans-80"/>
      </defs>
      <use xlink:href="#DejaVuSans-83"/>
      <use x="63.476562" xlink:href="#DejaVuSans-104"/>
      <use x="126.855469" xlink:href="#DejaVuSans-111"/>
      <use x="188.037109" xlink:href="#DejaVuSans-114"/>
      <use x="229.150391" xlink:href="#DejaVuSans-116"/>
      <use x="268.359375" xlink:href="#DejaVuSans-101"/>
      <use x="329.882812" xlink:href="#DejaVuSans-115"/>
      <use x="381.982422" xlink:href="#DejaVuSans-116"/>
      <use x="421.191406" xlink:href="#DejaVuSans-32"/>
      <use x="452.978516" xlink:href="#DejaVuSans-80"/>
      <use x="508.78125" xlink:href="#DejaVuSans-97"/>
      <use x="570.060547" xlink:href="#DejaVuSans-116"/>
      <use x="609.269531" xlink:href="#DejaVuSans-104"/>
     </g>
    </g>
    <g id="line2d_21">
     <path d="M 278.42625 83.926688 
L 298.42625 83.926688 
" style="fill:none;stroke:#2ca02c;stroke-linecap:square;stroke-width:1.5;"/>
    </g>
    <g id="line2d_22"/>
    <g id="text_17">
     <!-- Minimum Curvature -->
     <g transform="translate(306.42625 87.426688)scale(0.1 -0.1)">
      <defs>
       <path d="M 9.8125 72.90625 
L 24.515625 72.90625 
L 43.109375 23.296875 
L 61.8125 72.90625 
L 76.515625 72.90625 
L 76.515625 0 
L 66.890625 0 
L 66.890625 64.015625 
L 48.09375 14.015625 
L 38.1875 14.015625 
L 19.390625 64.015625 
L 19.390625 0 
L 9.8125 0 
z
" id="DejaVuSans-77"/>
       <path d="M 52 44.1875 
Q 55.375 50.25 60.0625 53.125 
Q 64.75 56 71.09375 56 
Q 79.640625 56 84.28125 50.015625 
Q 88.921875 44.046875 88.921875 33.015625 
L 88.921875 0 
L 79.890625 0 
L 79.890625 32.71875 
Q 79.890625 40.578125 77.09375 44.375 
Q 74.3125 48.1875 68.609375 48.1875 
Q 61.625 48.1875 57.5625 43.546875 
Q 53.515625 38.921875 53.515625 30.90625 
L 53.515625 0 
L 44.484375 0 
L 44.484375 32.71875 
Q 44.484375 40.625 41.703125 44.40625 
Q 38.921875 48.1875 33.109375 48.1875 
Q 26.21875 48.1875 22.15625 43.53125 
Q 18.109375 38.875 18.109375 30.90625 
L 18.109375 0 
L 9.078125 0 
L 9.078125 54.6875 
L 18.109375 54.6875 
L 18.109375 46.1875 
Q 21.1875 51.21875 25.484375 53.609375 
Q 29.78125 56 35.6875 56 
Q 41.65625 56 45.828125 52.96875 
Q 50 49.953125 52 44.1875 
z
" id="DejaVuSans-109"/>
      </defs>
      <use xlink:href="#DejaVuSans-77"/>
      <use x="86.279297" xlink:href="#DejaVuSans-105"/>
      <use x="114.0625" xlink:href="#DejaVuSans-110"/>
      <use x="177.441406" xlink:href="#DejaVuSans-105"/>
      <use x="205.224609" xlink:href="#DejaVuSans-109"/>
      <use x="302.636719" xlink:href="#DejaVuSans-117"/>
      <use x="366.015625" xlink:href="#DejaVuSans-109"/>
      <use x="463.427734" xlink:href="#DejaVuSans-32"/>
      <use x="495.214844" xlink:href="#DejaVuSans-67"/>
      <use x="565.039062" xlink:href="#DejaVuSans-117"/>
      <use x="628.417969" xlink:href="#DejaVuSans-114"/>
      <use x="669.53125" xlink:href="#DejaVuSans-118"/>
      <use x="728.710938" xlink:href="#DejaVuSans-97"/>
      <use x="789.990234" xlink:href="#DejaVuSans-116"/>
      <use x="829.199219" xlink:href="#DejaVuSans-117"/>
      <use x="892.578125" xlink:href="#DejaVuSans-114"/>
      <use x="931.441406" xlink:href="#DejaVuSans-101"/>
     </g>
    </g>
   </g>
  </g>
 </g>
 <defs>
  <clipPath id="p2bb6193df5">
   <rect height="266.112" width="357.12" x="57.6" y="41.472"/>
  </clipPath>
 </defs>
</svg>
