<?xml version="1.0" encoding="utf-8" standalone="no"?>
<!DOCTYPE svg PUBLIC "-//W3C//DTD SVG 1.1//EN"
  "http://www.w3.org/Graphics/SVG/1.1/DTD/svg11.dtd">
<!-- Created with matplotlib (https://matplotlib.org/) -->
<svg height="345.6pt" version="1.1" viewBox="0 0 460.8 345.6" width="460.8pt" xmlns="http://www.w3.org/2000/svg" xmlns:xlink="http://www.w3.org/1999/xlink">
 <metadata>
  <rdf:RDF xmlns:cc="http://creativecommons.org/ns#" xmlns:dc="http://purl.org/dc/elements/1.1/" xmlns:rdf="http://www.w3.org/1999/02/22-rdf-syntax-ns#">
   <cc:Work>
    <dc:type rdf:resource="http://purl.org/dc/dcmitype/StillImage"/>
    <dc:date>2024-10-14T23:04:36.089287</dc:date>
    <dc:format>image/svg+xml</dc:format>
    <dc:creator>
     <cc:Agent>
      <dc:title>Matplotlib v3.3.1, https://matplotlib.org/</dc:title>
     </cc:Agent>
    </dc:creator>
   </cc:Work>
  </rdf:RDF>
 </metadata>
 <defs>
  <style type="text/css">*{stroke-linecap:butt;stroke-linejoin:round;}</style>
 </defs>
 <g id="figure_1">
  <g id="patch_1">
   <path d="M 0 345.6 
L 460.8 345.6 
L 460.8 0 
L 0 0 
z
" style="fill:#ffffff;"/>
  </g>
  <g id="axes_1">
   <g id="patch_2">
    <path d="M 57.6 307.584 
L 414.72 307.584 
L 414.72 41.472 
L 57.6 41.472 
z
" style="fill:#ffffff;"/>
   </g>
   <g id="matplotlib.axis_1">
    <g id="xtick_1">
     <g id="line2d_1">
      <defs>
       <path d="M 0 0 
L 0 3.5 
" id="mec1a922ce6" style="stroke:#000000;stroke-width:0.8;"/>
      </defs>
      <g>
       <use style="stroke:#000000;stroke-width:0.8;" x="73.832727" xlink:href="#mec1a922ce6" y="307.584"/>
      </g>
     </g>
     <g id="text_1">
      <!-- 0.0 -->
      <g transform="translate(65.881165 322.182437)scale(0.1 -0.1)">
       <defs>
        <path d="M 31.78125 66.40625 
Q 24.171875 66.40625 20.328125 58.90625 
Q 16.5 51.421875 16.5 36.375 
Q 16.5 21.390625 20.328125 13.890625 
Q 24.171875 6.390625 31.78125 6.390625 
Q 39.453125 6.390625 43.28125 13.890625 
Q 47.125 21.390625 47.125 36.375 
Q 47.125 51.421875 43.28125 58.90625 
Q 39.453125 66.40625 31.78125 66.40625 
z
M 31.78125 74.21875 
Q 44.046875 74.21875 50.515625 64.515625 
Q 56.984375 54.828125 56.984375 36.375 
Q 56.984375 17.96875 50.515625 8.265625 
Q 44.046875 -1.421875 31.78125 -1.421875 
Q 19.53125 -1.421875 13.0625 8.265625 
Q 6.59375 17.96875 6.59375 36.375 
Q 6.59375 54.828125 13.0625 64.515625 
Q 19.53125 74.21875 31.78125 74.21875 
z
" id="DejaVuSans-48"/>
        <path d="M 10.6875 12.40625 
L 21 12.40625 
L 21 0 
L 10.6875 0 
z
" id="DejaVuSans-46"/>
       </defs>
       <use xlink:href="#DejaVuSans-48"/>
       <use x="63.623047" xlink:href="#DejaVuSans-46"/>
       <use x="95.410156" xlink:href="#DejaVuSans-48"/>
      </g>
     </g>
    </g>
    <g id="xtick_2">
     <g id="line2d_2">
      <g>
       <use style="stroke:#000000;stroke-width:0.8;" x="138.763636" xlink:href="#mec1a922ce6" y="307.584"/>
      </g>
     </g>
     <g id="text_2">
      <!-- 0.2 -->
      <g transform="translate(130.812074 322.182437)scale(0.1 -0.1)">
       <defs>
        <path d="M 19.1875 8.296875 
L 53.609375 8.296875 
L 53.609375 0 
L 7.328125 0 
L 7.328125 8.296875 
Q 12.9375 14.109375 22.625 23.890625 
Q 32.328125 33.6875 34.8125 36.53125 
Q 39.546875 41.84375 41.421875 45.53125 
Q 43.3125 49.21875 43.3125 52.78125 
Q 43.3125 58.59375 39.234375 62.25 
Q 35.15625 65.921875 28.609375 65.921875 
Q 23.96875 65.921875 18.8125 64.3125 
Q 13.671875 62.703125 7.8125 59.421875 
L 7.8125 69.390625 
Q 13.765625 71.78125 18.9375 73 
Q 24.125 74.21875 28.421875 74.21875 
Q 39.75 74.21875 46.484375 68.546875 
Q 53.21875 62.890625 53.21875 53.421875 
Q 53.21875 48.921875 51.53125 44.890625 
Q 49.859375 40.875 45.40625 35.40625 
Q 44.1875 33.984375 37.640625 27.21875 
Q 31.109375 20.453125 19.1875 8.296875 
z
" id="DejaVuSans-50"/>
       </defs>
       <use xlink:href="#DejaVuSans-48"/>
       <use x="63.623047" xlink:href="#DejaVuSans-46"/>
       <use x="95.410156" xlink:href="#DejaVuSans-50"/>
      </g>
     </g>
    </g>
    <g id="xtick_3">
     <g id="line2d_3">
      <g>
       <use style="stroke:#000000;stroke-width:0.8;" x="203.694545" xlink:href="#mec1a922ce6" y="307.584"/>
      </g>
     </g>
     <g id="text_3">
      <!-- 0.4 -->
      <g transform="translate(195.742983 322.182437)scale(0.1 -0.1)">
       <defs>
        <path d="M 37.796875 64.3125 
L 12.890625 25.390625 
L 37.796875 25.390625 
z
M 35.203125 72.90625 
L 47.609375 72.90625 
L 47.609375 25.390625 
L 58.015625 25.390625 
L 58.015625 17.1875 
L 47.609375 17.1875 
L 47.609375 0 
L 37.796875 0 
L 37.796875 17.1875 
L 4.890625 17.1875 
L 4.890625 26.703125 
z
" id="DejaVuSans-52"/>
       </defs>
       <use xlink:href="#DejaVuSans-48"/>
       <use x="63.623047" xlink:href="#DejaVuSans-46"/>
       <use x="95.410156" xlink:href="#DejaVuSans-52"/>
      </g>
     </g>
    </g>
    <g id="xtick_4">
     <g id="line2d_4">
      <g>
       <use style="stroke:#000000;stroke-width:0.8;" x="268.625455" xlink:href="#mec1a922ce6" y="307.584"/>
      </g>
     </g>
     <g id="text_4">
      <!-- 0.6 -->
      <g transform="translate(260.673892 322.182437)scale(0.1 -0.1)">
       <defs>
        <path d="M 33.015625 40.375 
Q 26.375 40.375 22.484375 35.828125 
Q 18.609375 31.296875 18.609375 23.390625 
Q 18.609375 15.53125 22.484375 10.953125 
Q 26.375 6.390625 33.015625 6.390625 
Q 39.65625 6.390625 43.53125 10.953125 
Q 47.40625 15.53125 47.40625 23.390625 
Q 47.40625 31.296875 43.53125 35.828125 
Q 39.65625 40.375 33.015625 40.375 
z
M 52.59375 71.296875 
L 52.59375 62.3125 
Q 48.875 64.0625 45.09375 64.984375 
Q 41.3125 65.921875 37.59375 65.921875 
Q 27.828125 65.921875 22.671875 59.328125 
Q 17.53125 52.734375 16.796875 39.40625 
Q 19.671875 43.65625 24.015625 45.921875 
Q 28.375 48.1875 33.59375 48.1875 
Q 44.578125 48.1875 50.953125 41.515625 
Q 57.328125 34.859375 57.328125 23.390625 
Q 57.328125 12.15625 50.6875 5.359375 
Q 44.046875 -1.421875 33.015625 -1.421875 
Q 20.359375 -1.421875 13.671875 8.265625 
Q 6.984375 17.96875 6.984375 36.375 
Q 6.984375 53.65625 15.1875 63.9375 
Q 23.390625 74.21875 37.203125 74.21875 
Q 40.921875 74.21875 44.703125 73.484375 
Q 48.484375 72.75 52.59375 71.296875 
z
" id="DejaVuSans-54"/>
       </defs>
       <use xlink:href="#DejaVuSans-48"/>
       <use x="63.623047" xlink:href="#DejaVuSans-46"/>
       <use x="95.410156" xlink:href="#DejaVuSans-54"/>
      </g>
     </g>
    </g>
    <g id="xtick_5">
     <g id="line2d_5">
      <g>
       <use style="stroke:#000000;stroke-width:0.8;" x="333.556364" xlink:href="#mec1a922ce6" y="307.584"/>
      </g>
     </g>
     <g id="text_5">
      <!-- 0.8 -->
      <g transform="translate(325.604801 322.182437)scale(0.1 -0.1)">
       <defs>
        <path d="M 31.78125 34.625 
Q 24.75 34.625 20.71875 30.859375 
Q 16.703125 27.09375 16.703125 20.515625 
Q 16.703125 13.921875 20.71875 10.15625 
Q 24.75 6.390625 31.78125 6.390625 
Q 38.8125 6.390625 42.859375 10.171875 
Q 46.921875 13.96875 46.921875 20.515625 
Q 46.921875 27.09375 42.890625 30.859375 
Q 38.875 34.625 31.78125 34.625 
z
M 21.921875 38.8125 
Q 15.578125 40.375 12.03125 44.71875 
Q 8.5 49.078125 8.5 55.328125 
Q 8.5 64.0625 14.71875 69.140625 
Q 20.953125 74.21875 31.78125 74.21875 
Q 42.671875 74.21875 48.875 69.140625 
Q 55.078125 64.0625 55.078125 55.328125 
Q 55.078125 49.078125 51.53125 44.71875 
Q 48 40.375 41.703125 38.8125 
Q 48.828125 37.15625 52.796875 32.3125 
Q 56.78125 27.484375 56.78125 20.515625 
Q 56.78125 9.90625 50.3125 4.234375 
Q 43.84375 -1.421875 31.78125 -1.421875 
Q 19.734375 -1.421875 13.25 4.234375 
Q 6.78125 9.90625 6.78125 20.515625 
Q 6.78125 27.484375 10.78125 32.3125 
Q 14.796875 37.15625 21.921875 38.8125 
z
M 18.3125 54.390625 
Q 18.3125 48.734375 21.84375 45.5625 
Q 25.390625 42.390625 31.78125 42.390625 
Q 38.140625 42.390625 41.71875 45.5625 
Q 45.3125 48.734375 45.3125 54.390625 
Q 45.3125 60.0625 41.71875 63.234375 
Q 38.140625 66.40625 31.78125 66.40625 
Q 25.390625 66.40625 21.84375 63.234375 
Q 18.3125 60.0625 18.3125 54.390625 
z
" id="DejaVuSans-56"/>
       </defs>
       <use xlink:href="#DejaVuSans-48"/>
       <use x="63.623047" xlink:href="#DejaVuSans-46"/>
       <use x="95.410156" xlink:href="#DejaVuSans-56"/>
      </g>
     </g>
    </g>
    <g id="xtick_6">
     <g id="line2d_6">
      <g>
       <use style="stroke:#000000;stroke-width:0.8;" x="398.487273" xlink:href="#mec1a922ce6" y="307.584"/>
      </g>
     </g>
     <g id="text_6">
      <!-- 1.0 -->
      <g transform="translate(390.53571 322.182437)scale(0.1 -0.1)">
       <defs>
        <path d="M 12.40625 8.296875 
L 28.515625 8.296875 
L 28.515625 63.921875 
L 10.984375 60.40625 
L 10.984375 69.390625 
L 28.421875 72.90625 
L 38.28125 72.90625 
L 38.28125 8.296875 
L 54.390625 8.296875 
L 54.390625 0 
L 12.40625 0 
z
" id="DejaVuSans-49"/>
       </defs>
       <use xlink:href="#DejaVuSans-49"/>
       <use x="63.623047" xlink:href="#DejaVuSans-46"/>
       <use x="95.410156" xlink:href="#DejaVuSans-48"/>
      </g>
     </g>
    </g>
   </g>
   <g id="matplotlib.axis_2">
    <g id="ytick_1">
     <g id="line2d_7">
      <defs>
       <path d="M 0 0 
L -3.5 0 
" id="mc2bad96a75" style="stroke:#000000;stroke-width:0.8;"/>
      </defs>
      <g>
       <use style="stroke:#000000;stroke-width:0.8;" x="57.6" xlink:href="#mc2bad96a75" y="294.782501"/>
      </g>
     </g>
     <g id="text_7">
      <!-- −2 -->
      <g transform="translate(35.857813 298.58172)scale(0.1 -0.1)">
       <defs>
        <path d="M 10.59375 35.5 
L 73.1875 35.5 
L 73.1875 27.203125 
L 10.59375 27.203125 
z
" id="DejaVuSans-8722"/>
       </defs>
       <use xlink:href="#DejaVuSans-8722"/>
       <use x="83.789062" xlink:href="#DejaVuSans-50"/>
      </g>
     </g>
    </g>
    <g id="ytick_2">
     <g id="line2d_8">
      <g>
       <use style="stroke:#000000;stroke-width:0.8;" x="57.6" xlink:href="#mc2bad96a75" y="240.968668"/>
      </g>
     </g>
     <g id="text_8">
      <!-- −1 -->
      <g transform="translate(35.857813 244.767886)scale(0.1 -0.1)">
       <use xlink:href="#DejaVuSans-8722"/>
       <use x="83.789062" xlink:href="#DejaVuSans-49"/>
      </g>
     </g>
    </g>
    <g id="ytick_3">
     <g id="line2d_9">
      <g>
       <use style="stroke:#000000;stroke-width:0.8;" x="57.6" xlink:href="#mc2bad96a75" y="187.154834"/>
      </g>
     </g>
     <g id="text_9">
      <!-- 0 -->
      <g transform="translate(44.2375 190.954053)scale(0.1 -0.1)">
       <use xlink:href="#DejaVuSans-48"/>
      </g>
     </g>
    </g>
    <g id="ytick_4">
     <g id="line2d_10">
      <g>
       <use style="stroke:#000000;stroke-width:0.8;" x="57.6" xlink:href="#mc2bad96a75" y="133.341001"/>
      </g>
     </g>
     <g id="text_10">
      <!-- 1 -->
      <g transform="translate(44.2375 137.14022)scale(0.1 -0.1)">
       <use xlink:href="#DejaVuSans-49"/>
      </g>
     </g>
    </g>
    <g id="ytick_5">
     <g id="line2d_11">
      <g>
       <use style="stroke:#000000;stroke-width:0.8;" x="57.6" xlink:href="#mc2bad96a75" y="79.527168"/>
      </g>
     </g>
     <g id="text_11">
      <!-- 2 -->
      <g transform="translate(44.2375 83.326386)scale(0.1 -0.1)">
       <use xlink:href="#DejaVuSans-50"/>
      </g>
     </g>
    </g>
   </g>
   <g id="line2d_12">
    <path clip-path="url(#p5c56345229)" d="M 73.832727 190.608401 
L 74.84886 194.902883 
L 75.356927 199.547278 
L 75.864994 197.813584 
L 76.373059 188.655887 
L 77.389194 198.784027 
L 77.897261 195.739819 
L 78.405327 186.918712 
L 78.913392 182.360371 
L 79.42146 192.362819 
L 79.929527 198.900555 
L 80.437594 195.0688 
L 80.94566 186.662338 
L 81.453726 187.039188 
L 81.961792 196.173702 
L 82.469859 201.228314 
L 82.977929 196.34208 
L 83.485995 190.057909 
L 83.994059 197.411499 
L 84.502128 202.855616 
L 85.010195 200.495432 
L 86.026328 190.202096 
L 87.042461 201.704926 
L 87.550527 200.954877 
L 88.058594 191.502449 
L 88.566658 185.957903 
L 89.074725 198.12638 
L 89.582794 204.811165 
L 90.090862 197.981106 
L 90.598927 188.391518 
L 91.106995 191.200099 
L 91.615058 202.841249 
L 92.123126 204.495902 
L 93.139262 185.310766 
L 93.647327 193.75499 
L 94.155395 204.088542 
L 94.663461 202.539238 
L 95.171528 189.904583 
L 95.679596 185.461896 
L 96.187662 201.114725 
L 96.695728 207.954942 
L 97.203795 203.034719 
L 97.711861 195.848707 
L 98.219928 193.909866 
L 98.727994 203.210183 
L 99.236061 208.362961 
L 99.744128 201.781967 
L 100.252194 187.168287 
L 100.76026 188.413111 
L 101.268324 207.022988 
L 101.776392 213.052124 
L 102.28446 209.729107 
L 102.792526 207.351199 
L 103.300592 208.104658 
L 103.808659 213.291359 
L 104.316725 216.429315 
L 104.824797 205.987796 
L 105.332863 190.316695 
L 105.84093 198.515465 
L 106.348996 218.017145 
L 106.857065 217.901889 
L 107.365131 196.179603 
L 107.873199 188.668402 
L 108.381264 212.569779 
L 108.889337 229.991321 
L 109.397404 227.027252 
L 109.905471 214.863687 
L 110.413537 211.511493 
L 110.921603 226.121902 
L 111.42967 236.775306 
L 111.937736 228.350282 
L 112.445803 208.858506 
L 112.953871 206.727525 
L 113.461935 226.374162 
L 113.970005 236.944356 
L 114.98614 222.918111 
L 115.494196 229.611301 
L 116.002279 238.309727 
L 116.51035 227.85711 
L 117.018412 205.905841 
L 117.526483 207.771058 
L 118.034546 228.273917 
L 118.542619 236.326953 
L 119.558751 194.859026 
L 120.066819 206.441973 
L 120.574885 228.310212 
L 121.082952 232.415064 
L 121.591017 219.706093 
L 122.099085 202.047429 
L 122.607151 203.47346 
L 123.115217 214.10857 
L 123.623285 217.247377 
L 124.131349 203.698146 
L 124.639415 178.806626 
L 125.147484 178.181417 
L 125.655549 193.507093 
L 126.163616 195.821646 
L 127.179748 176.18371 
L 127.687816 177.289544 
L 128.195881 180.763836 
L 128.703949 174.114089 
L 129.212014 175.570658 
L 129.72008 189.889427 
L 130.228149 184.610242 
L 130.736214 166.71593 
L 131.244282 160.035175 
L 131.75235 169.758231 
L 132.260415 176.842752 
L 133.276554 143.452913 
L 134.292688 145.449742 
L 134.800751 138.094884 
L 135.816903 132.136874 
L 136.32499 115.216755 
L 136.83302 104.713779 
L 137.341005 117.133099 
L 137.849131 140.386806 
L 138.357199 137.596326 
L 138.865306 118.126444 
L 139.373291 126.762434 
L 139.881355 153.0403 
L 140.389427 160.758535 
L 140.897485 162.073155 
L 141.405557 170.239285 
L 141.913617 168.144725 
L 142.421693 168.722802 
L 142.929763 167.000149 
L 143.43782 160.974409 
L 143.945902 162.972299 
L 144.453935 165.655289 
L 145.470089 185.218434 
L 145.978157 191.175904 
L 146.486223 189.076567 
L 146.994286 181.962183 
L 147.502356 186.063449 
L 148.010422 186.509188 
L 148.518489 176.792495 
L 149.026553 177.966051 
L 149.53462 190.569151 
L 150.042688 195.457744 
L 150.550754 193.502891 
L 151.058821 190.358012 
L 151.566887 190.899551 
L 152.074953 197.123893 
L 152.583021 200.663827 
L 153.091086 198.670454 
L 153.599153 192.141649 
L 154.10722 192.218979 
L 154.615284 201.587032 
L 155.123355 208.335176 
L 155.63142 208.284746 
L 156.139486 204.312595 
L 156.647554 206.541057 
L 157.155619 211.01186 
L 157.66369 208.634816 
L 158.679818 183.994976 
L 159.695956 207.31933 
L 160.204023 206.475934 
L 160.712089 199.85409 
L 161.220156 195.689833 
L 162.236289 206.226711 
L 162.744354 202.687466 
L 163.252423 187.047834 
L 163.760483 183.16818 
L 164.268547 201.322516 
L 164.776625 208.684109 
L 165.284686 202.537687 
L 165.792755 194.457702 
L 166.300821 193.635571 
L 166.808885 203.440251 
L 167.316955 208.045695 
L 167.82502 202.822499 
L 168.333087 194.295547 
L 168.841154 195.488467 
L 169.349218 205.694836 
L 169.857288 209.647108 
L 170.365353 198.346511 
L 170.873419 182.208088 
L 171.381489 187.58679 
L 171.88955 204.672206 
L 172.39762 204.447668 
L 172.905687 183.25279 
L 173.413743 169.605511 
L 174.429886 199.631803 
L 174.937953 197.305819 
L 175.446019 191.835603 
L 175.954086 188.759788 
L 176.970219 191.643279 
L 177.478285 192.733471 
L 177.986353 201.431114 
L 178.494416 207.401445 
L 179.51055 186.89343 
L 181.03475 175.047206 
L 182.558949 178.672976 
L 183.067017 188.427408 
L 183.575081 194.250205 
L 184.591216 171.262336 
L 185.099281 172.630062 
L 185.607349 187.270026 
L 186.115413 191.89386 
L 186.623481 177.851134 
L 187.131549 167.507604 
L 187.639614 168.588409 
L 188.147681 173.228405 
L 188.655748 173.763818 
L 189.163813 170.497269 
L 189.671884 165.82406 
L 190.179944 170.73384 
L 190.688014 190.111791 
L 191.196079 192.696391 
L 191.704143 176.6886 
L 192.212213 169.076206 
L 192.720277 181.282831 
L 193.228338 197.626557 
L 193.736414 189.446836 
L 194.244477 174.877483 
L 194.752545 173.249558 
L 195.768677 179.203464 
L 196.276743 177.865748 
L 196.78481 175.524268 
L 197.292877 175.769061 
L 198.309009 185.610578 
L 198.817076 182.725013 
L 199.325142 178.280406 
L 199.833209 178.417792 
L 200.849341 192.203665 
L 201.357409 187.369709 
L 201.865475 180.966696 
L 202.373541 180.742701 
L 203.389674 190.602448 
L 203.897741 187.314858 
L 204.405807 183.050144 
L 204.913874 182.86652 
L 205.930006 187.338006 
L 206.438073 186.362939 
L 206.946139 184.979191 
L 207.454206 184.993129 
L 208.470337 175.992724 
L 209.486472 186.408013 
L 209.994538 187.270886 
L 210.502605 186.116045 
L 211.010671 185.267937 
L 212.026804 189.168683 
L 212.534871 189.67307 
L 213.042937 189.582567 
L 213.551003 189.614444 
L 214.567136 191.571633 
L 215.075203 191.989826 
L 215.583269 191.623758 
L 216.091336 191.467236 
L 217.107469 194.020501 
L 217.615535 193.962595 
L 218.123602 186.193482 
L 218.631666 180.79288 
L 219.647802 197.057096 
L 220.155867 196.538385 
L 220.663934 187.369004 
L 221.171998 182.728982 
L 221.680065 193.429176 
L 222.188134 199.065837 
L 223.204267 196.266099 
L 223.712333 195.851749 
L 224.220399 197.469099 
L 224.728467 199.86545 
L 225.236532 201.198935 
L 225.7446 194.715921 
L 226.252666 192.616648 
L 226.760729 200.369186 
L 227.2688 202.475341 
L 227.776865 197.051446 
L 228.284932 187.825994 
L 228.792999 188.653453 
L 229.301063 198.687633 
L 229.809133 205.10723 
L 230.317199 204.541877 
L 230.825264 200.236903 
L 231.333329 205.357484 
L 231.8414 209.020496 
L 232.349469 208.268158 
L 233.365601 196.887663 
L 233.873665 207.23712 
L 234.889807 218.859218 
L 235.397868 226.714552 
L 235.905955 222.098964 
L 236.413981 219.051141 
L 236.922072 217.216012 
L 237.938201 209.350184 
L 238.446267 212.335945 
L 238.954338 217.084361 
L 239.462409 217.702951 
L 240.478541 198.257234 
L 241.494679 221.923677 
L 242.002744 222.14455 
L 242.510812 211.053264 
L 243.018883 204.928181 
L 243.526931 220.02644 
L 244.035021 230.573227 
L 244.543085 223.498635 
L 245.051151 210.155542 
L 245.559223 212.822385 
L 246.067283 228.521922 
L 246.575362 233.933439 
L 247.591505 207.852062 
L 248.607647 235.170744 
L 249.115706 222.395629 
L 249.623776 202.414028 
L 250.131847 203.845995 
L 250.639906 221.616534 
L 251.147982 223.409015 
L 251.65605 200.411387 
L 252.16411 186.869606 
L 253.180259 220.257764 
L 253.688319 213.502237 
L 254.19639 197.609362 
L 254.704455 194.457274 
L 255.212518 208.201003 
L 255.72059 214.774159 
L 256.228652 208.777085 
L 256.736721 198.555485 
L 257.244788 197.398261 
L 257.752852 205.471568 
L 258.260922 209.047847 
L 258.768985 198.258149 
L 259.277052 180.207837 
L 259.785121 183.009657 
L 260.293183 200.085593 
L 260.801252 202.941881 
L 261.81738 175.426539 
L 262.325455 185.856649 
L 262.833517 199.460854 
L 263.341585 198.954436 
L 263.849651 191.748495 
L 264.357717 187.538951 
L 265.373851 196.633481 
L 265.881917 196.290859 
L 266.389984 192.618232 
L 266.89805 189.947777 
L 267.406117 191.44675 
L 267.914183 193.768449 
L 268.42225 193.218837 
L 269.438382 186.323389 
L 269.946449 187.899414 
L 270.454515 190.429537 
L 270.962582 190.447919 
L 271.978715 187.885902 
L 272.994848 187.623659 
L 273.502914 187.847881 
L 274.519045 198.663088 
L 275.027114 192.799823 
L 275.53518 185.245808 
L 276.043246 186.16416 
L 276.551313 195.881694 
L 277.059376 199.336988 
L 277.567446 189.581254 
L 278.075512 182.798541 
L 279.599711 181.786666 
L 280.107777 181.692247 
L 280.615844 181.745495 
L 281.12391 180.638772 
L 281.631977 177.213235 
L 282.140043 175.818702 
L 282.64811 178.465595 
L 283.156176 180.326752 
L 283.664243 180.708111 
L 284.172309 182.042855 
L 284.680376 182.38776 
L 285.188442 181.013493 
L 285.696509 179.197906 
L 286.204575 181.003359 
L 286.712642 190.436012 
L 287.220707 193.70795 
L 287.728774 184.741581 
L 288.236841 178.307002 
L 288.744907 179.429289 
L 289.252974 184.293206 
L 289.76104 184.916685 
L 290.777174 176.419028 
L 291.285239 180.012267 
L 291.793306 190.975457 
L 292.301372 190.589403 
L 292.809437 180.17038 
L 293.317506 173.73623 
L 293.82557 178.499973 
L 294.333637 189.197132 
L 294.841706 185.207856 
L 295.34977 177.370875 
L 296.365907 167.173843 
L 297.382006 159.556515 
L 298.39817 181.698216 
L 298.906239 183.179637 
L 299.414305 185.24592 
L 299.922371 183.158815 
L 300.430438 182.066239 
L 300.938504 182.652173 
L 301.954634 170.572739 
L 302.462705 178.312524 
L 302.97077 183.857217 
L 303.478837 183.449008 
L 303.986903 185.315393 
L 304.49497 186.601288 
L 305.511102 184.451433 
L 306.019169 185.009209 
L 306.527235 188.062793 
L 307.035302 190.372929 
L 307.543368 187.737595 
L 308.051435 185.768504 
L 308.559501 186.173063 
L 310.591767 187.167856 
L 311.099834 188.071865 
L 311.6079 193.03176 
L 312.115965 196.06009 
L 312.624033 191.378774 
L 313.132099 188.28839 
L 313.640166 189.435048 
L 314.148232 192.286206 
L 314.656299 193.695788 
L 315.164365 191.074587 
L 315.672432 189.841983 
L 316.180498 188.038855 
L 316.688566 177.856507 
L 317.196629 173.70852 
L 317.704698 185.103345 
L 318.212764 192.006879 
L 318.720831 191.722388 
L 319.228897 193.269153 
L 319.736963 194.103102 
L 320.24503 193.257416 
L 320.753097 192.749802 
L 321.261163 195.208732 
L 321.76923 203.195766 
L 322.277294 206.066331 
L 322.785363 197.962493 
L 323.293428 193.578175 
L 323.801495 193.009608 
L 324.309562 186.29194 
L 324.817627 182.714805 
L 325.833761 195.873948 
L 326.341827 194.817118 
L 326.849894 184.451255 
L 327.357956 178.871073 
L 327.866026 191.75699 
L 328.374094 199.481095 
L 328.88216 196.838587 
L 329.390227 192.935406 
L 329.898293 192.025034 
L 330.406359 197.214003 
L 330.914426 200.941533 
L 331.422493 195.660441 
L 331.930559 184.322563 
L 332.438626 187.18532 
L 332.946688 200.680365 
L 333.454758 200.987382 
L 333.962823 185.573787 
L 334.47089 180.676585 
L 334.978955 197.713161 
L 335.48703 205.325621 
L 335.995095 201.148892 
L 336.503161 200.625696 
L 337.011228 200.737191 
L 338.027361 202.176856 
L 338.535427 201.518717 
L 339.043494 198.120492 
L 339.55156 196.26653 
L 340.567693 202.828627 
L 341.07576 201.654472 
L 341.583826 193.718783 
L 342.091893 189.149184 
L 343.108026 203.781165 
L 343.616092 201.330564 
L 344.124159 187.380814 
L 344.632224 182.120799 
L 345.140291 196.450013 
L 345.648359 206.058102 
L 346.156425 195.043719 
L 346.664491 177.275242 
L 347.17256 183.507932 
L 347.68062 202.425752 
L 348.188689 204.207354 
L 348.696756 193.205343 
L 349.204822 186.427712 
L 349.712889 193.914554 
L 350.220956 203.071468 
L 350.729022 202.43582 
L 351.237089 196.120248 
L 351.745155 192.550565 
L 352.761288 202.095694 
L 353.269355 201.003467 
L 353.777421 193.938792 
L 354.285488 190.09413 
L 355.301621 200.984516 
L 355.809687 200.035935 
L 356.317754 193.851046 
L 356.82582 191.009838 
L 357.841954 200.381241 
L 358.35002 197.784433 
L 358.858086 187.143188 
L 359.366152 183.432679 
L 360.382286 199.395595 
L 360.890352 197.938753 
L 361.398419 192.192602 
L 361.906485 190.969069 
L 362.414552 195.735209 
L 362.922618 198.894829 
L 363.430685 198.750734 
L 363.938751 197.739572 
L 364.446818 197.517721 
L 364.954884 197.789604 
L 365.462951 198.857554 
L 365.971017 196.211918 
L 366.479083 186.312615 
L 366.98715 183.768713 
L 367.495216 191.968943 
L 368.003283 198.311404 
L 368.511349 194.857556 
L 369.019416 184.233616 
L 369.527482 184.174412 
L 370.035548 193.395212 
L 370.543615 198.220456 
L 371.051681 192.973735 
L 371.559748 183.591427 
L 372.067814 186.825492 
L 372.575881 195.548403 
L 373.083947 197.816345 
L 374.10008 185.136192 
L 374.608147 189.791901 
L 375.116213 196.536061 
L 375.62428 196.686731 
L 376.640413 185.034078 
L 377.656546 196.050375 
L 378.164613 195.879081 
L 378.672679 193.792666 
L 379.180746 192.539875 
L 379.688812 193.830919 
L 380.196879 196.232169 
L 380.704945 196.30154 
L 381.213011 187.48231 
L 381.721076 182.871741 
L 382.229143 191.185589 
L 382.737211 195.08537 
L 383.245278 195.937591 
L 383.753344 200.646471 
L 384.261411 200.960184 
L 384.769477 195.844722 
L 385.277545 196.630684 
L 385.785613 199.69355 
L 386.293675 194.113522 
L 386.801743 191.766694 
L 387.30981 194.260653 
L 387.817877 194.749433 
L 388.83401 177.021207 
L 389.850143 194.116781 
L 390.358209 193.672509 
L 391.374342 190.581957 
L 392.390475 194.153722 
L 392.898542 194.253197 
L 393.914674 197.123194 
L 394.930807 194.643022 
L 395.438874 194.700866 
L 395.94694 193.606726 
L 396.455007 192.23692 
L 397.47114 194.778817 
L 398.487273 190.827349 
L 398.487273 190.827349 
" style="fill:none;stroke:#1f77b4;stroke-linecap:square;stroke-width:1.5;"/>
   </g>
   <g id="line2d_13">
    <path clip-path="url(#p5c56345229)" d="M 73.832727 187.154834 
L 74.99437 196.715861 
L 76.156003 187.26176 
L 77.317645 183.722411 
L 78.479287 196.28451 
L 79.640929 189.341513 
L 80.802572 187.561728 
L 81.964214 190.261988 
L 83.125856 187.719045 
L 84.287498 188.200801 
L 86.610783 186.017678 
L 87.772425 191.978519 
L 88.934068 183.363022 
L 90.095704 196.831278 
L 91.257346 181.854968 
L 92.418986 190.394183 
L 93.580628 177.178986 
L 94.742259 195.366377 
L 95.903901 202.91366 
L 97.065533 189.504564 
L 98.227175 164.086667 
L 99.388751 203.054988 
L 100.550317 219.542905 
L 101.71196 282.677835 
L 102.872819 244.059376 
L 105.196038 215.897506 
L 106.357617 229.645983 
L 107.519202 222.015628 
L 108.68021 273.793293 
L 109.841664 247.789386 
L 111.001825 295.488 
L 112.163207 229.085126 
L 112.744028 234.129415 
L 113.324382 237.420966 
L 114.486015 180.874185 
L 115.647658 186.971079 
L 116.809284 195.227474 
L 117.970921 192.823216 
L 118.551742 194.146417 
L 119.132547 195.159628 
L 120.294189 189.585121 
L 121.455831 186.655451 
L 122.617474 186.688103 
L 123.779116 184.832132 
L 124.940758 186.864576 
L 126.1024 184.7258 
L 127.264039 181.765908 
L 128.42568 183.108293 
L 129.006501 180.928931 
L 129.587318 177.578398 
L 130.747785 66.226159 
L 131.907329 53.568 
L 133.648011 157.51603 
L 134.228821 182.396773 
L 134.809642 182.204131 
L 135.390451 182.25569 
L 135.971272 183.672017 
L 136.552091 184.709957 
L 137.132912 183.550794 
L 137.713723 182.079345 
L 138.294544 179.200286 
L 138.875309 177.289768 
L 140.036942 183.061015 
L 141.198584 187.257006 
L 142.941048 186.351886 
L 143.521869 186.247884 
L 145.264332 188.699228 
L 145.845151 189.402902 
L 147.006791 189.794379 
L 147.587612 190.487687 
L 148.168427 190.920842 
L 148.749248 189.458799 
L 149.330069 188.509826 
L 150.491691 194.421986 
L 151.072512 194.810067 
L 151.653309 194.711156 
L 152.23413 190.53234 
L 152.814951 187.459819 
L 153.976555 197.032093 
L 154.557376 205.54052 
L 155.137916 211.883821 
L 156.299549 191.963043 
L 156.88037 193.090679 
L 157.461171 193.484017 
L 158.62281 184.806017 
L 159.784453 188.11031 
L 160.946095 187.874124 
L 162.107737 186.606018 
L 163.26938 187.77784 
L 163.850201 187.396172 
L 164.431022 187.45728 
L 165.011844 190.469071 
L 165.592649 192.823501 
L 166.754289 189.437882 
L 167.915925 191.278513 
L 168.496746 191.557199 
L 169.077558 191.260222 
L 170.239193 182.788612 
L 171.400836 187.327881 
L 171.981657 188.719146 
L 172.562475 189.684474 
L 173.724116 185.476386 
L 176.047392 191.505887 
L 177.789855 186.322204 
L 178.370675 184.872481 
L 180.113138 186.849579 
L 180.69396 187.275869 
L 181.855601 185.228268 
L 183.017243 186.080628 
L 183.598064 186.153962 
L 184.178885 186.046926 
L 185.34052 182.141743 
L 186.502161 185.386409 
L 187.663804 187.391549 
L 188.244625 188.073203 
L 188.825445 188.576635 
L 189.987088 186.855467 
L 191.14873 187.178334 
L 192.891194 187.232547 
L 193.472015 187.280779 
L 195.214479 186.878481 
L 195.795301 186.764238 
L 196.956943 186.064735 
L 198.118585 187.074496 
L 199.280227 185.551387 
L 200.441869 187.011707 
L 201.603512 187.640668 
L 202.765154 186.317892 
L 203.926797 187.416294 
L 205.088439 186.952295 
L 206.250082 186.934903 
L 207.411724 187.300298 
L 208.573367 186.789908 
L 209.735009 186.547642 
L 210.896652 186.99116 
L 212.058294 187.189141 
L 213.219937 187.596706 
L 214.381579 187.594055 
L 215.543222 187.830397 
L 216.704864 187.704543 
L 217.866507 187.91163 
L 219.028149 186.736499 
L 219.608971 186.504759 
L 220.189792 186.392897 
L 221.351433 189.226331 
L 221.932254 187.567612 
L 222.513075 186.295754 
L 223.674706 193.999078 
L 224.836343 191.731358 
L 225.997968 195.61106 
L 227.159606 191.406338 
L 228.321247 189.707103 
L 228.902068 187.802843 
L 229.482889 186.449717 
L 230.644501 197.587304 
L 231.225322 197.278835 
L 231.806125 197.517139 
L 233.548465 219.86907 
L 234.12894 225.085504 
L 235.290507 203.966925 
L 236.452006 223.402204 
L 237.613521 209.49623 
L 238.774888 220.54994 
L 239.355709 222.272176 
L 239.936125 225.202592 
L 241.095737 272.646229 
L 242.25674 240.12804 
L 243.417152 250.160434 
L 244.575734 284.831212 
L 245.156556 288.055721 
L 245.733579 288.272862 
L 246.894067 237.89232 
L 248.055661 177.689582 
L 249.217268 196.737861 
L 250.378904 183.439582 
L 251.540545 189.137727 
L 252.121366 189.030794 
L 252.702187 189.351762 
L 253.283008 192.220462 
L 253.863803 194.142228 
L 254.444624 189.865508 
L 255.025445 186.420737 
L 255.606267 188.867578 
L 256.187081 190.661313 
L 257.348721 184.103911 
L 259.672005 188.228049 
L 260.252827 187.644235 
L 260.833648 187.242412 
L 261.995289 189.458037 
L 262.57611 188.634206 
L 263.156931 188.019165 
L 263.737752 189.300503 
L 264.31857 190.301704 
L 265.480212 187.197478 
L 266.641855 187.255346 
L 267.222676 187.962764 
L 267.803497 188.472553 
L 268.965139 185.61698 
L 269.54596 185.490262 
L 270.12678 185.598195 
L 271.288419 190.347526 
L 272.450061 186.440794 
L 273.611704 188.282959 
L 274.192525 189.709547 
L 274.773341 190.834348 
L 275.934984 187.277497 
L 277.096626 186.122564 
L 278.258268 186.549284 
L 279.419911 186.214773 
L 280.581553 186.321915 
L 281.743196 186.714086 
L 282.904838 186.696471 
L 284.066481 187.227461 
L 285.228123 187.419696 
L 286.389766 186.523503 
L 290.455515 187.254069 
L 291.036336 187.246146 
L 292.197978 186.798367 
L 293.359621 187.291657 
L 294.521263 186.80931 
L 295.682906 187.350061 
L 296.844548 185.743138 
L 298.006187 183.621344 
L 299.16783 186.638728 
L 300.329472 187.577469 
L 302.652757 185.726561 
L 305.556863 186.916262 
L 306.137684 186.985727 
L 307.299327 187.376028 
L 309.622612 186.910429 
L 310.784254 187.04198 
L 313.107538 189.343596 
L 314.269181 187.427743 
L 315.430823 187.366046 
L 316.592465 188.866919 
L 317.754106 183.987829 
L 318.334927 183.360118 
L 318.915743 182.977422 
L 320.077386 188.998025 
L 321.239025 193.432549 
L 322.400666 189.957133 
L 323.562307 191.057226 
L 324.723945 193.901847 
L 325.885586 183.562149 
L 327.047224 182.349658 
L 328.208866 188.173778 
L 330.532151 186.702748 
L 331.693793 190.543537 
L 332.855436 187.233991 
L 334.017078 187.462877 
L 335.178721 186.781437 
L 336.340363 187.402349 
L 336.921185 187.501363 
L 337.502006 187.825958 
L 338.663614 205.608068 
L 339.82522 204.29928 
L 340.406042 203.082163 
L 340.986833 202.282375 
L 342.148269 227.232956 
L 343.309865 204.72046 
L 344.471328 219.547051 
L 345.632961 196.547454 
L 346.794468 217.743868 
L 347.9561 197.236687 
L 348.536921 196.723386 
L 349.117726 195.893739 
L 350.279369 199.840303 
L 351.441007 192.166802 
L 352.602646 199.493408 
L 353.764288 188.287661 
L 354.92593 189.938417 
L 357.249213 190.19289 
L 358.410856 188.291203 
L 359.572498 187.174072 
L 360.734141 186.960258 
L 361.895783 187.281057 
L 363.057425 189.380773 
L 364.219068 186.232224 
L 365.380696 200.267624 
L 365.961518 200.023774 
L 366.542303 199.18394 
L 367.123125 198.077372 
L 367.703943 197.337033 
L 368.865584 191.537862 
L 370.027216 197.455958 
L 371.188859 188.326473 
L 372.350483 201.557055 
L 373.512125 189.976792 
L 374.673763 194.663752 
L 375.254584 193.926958 
L 375.835405 193.426802 
L 376.997031 198.187459 
L 377.577853 198.488918 
L 378.158674 199.065329 
L 378.73949 198.903997 
L 379.320308 198.607854 
L 380.481944 202.11068 
L 381.643585 189.970438 
L 382.805228 192.218466 
L 383.96687 201.028801 
L 384.547669 202.436555 
L 385.128477 203.273861 
L 386.290118 193.348304 
L 387.45176 186.715331 
L 389.775029 208.324087 
L 390.936627 192.120312 
L 392.098267 191.788875 
L 393.259909 190.382214 
L 394.421536 218.049361 
L 395.583178 186.249975 
L 396.744817 192.955492 
L 397.906459 194.852007 
L 398.487273 194.852112 
L 398.487273 194.852112 
" style="fill:none;stroke:#ff7f0e;stroke-linecap:square;stroke-width:1.5;"/>
   </g>
   <g id="line2d_14">
    <path clip-path="url(#p5c56345229)" d="M 73.832727 187.154834 
L 74.905972 194.844332 
L 75.979217 194.754027 
L 77.052462 195.731197 
L 78.125707 196.001646 
L 79.198951 195.593726 
L 80.272196 195.614007 
L 81.345441 196.236705 
L 82.955308 196.455474 
L 84.028552 196.582862 
L 85.638419 196.993517 
L 86.711664 197.324634 
L 87.784908 197.315088 
L 88.858153 197.596178 
L 89.931397 198.1422 
L 92.077886 198.189118 
L 93.687752 198.867712 
L 94.760996 199.288133 
L 95.297619 199.55299 
L 96.370862 201.259178 
L 97.444106 201.436728 
L 98.51735 198.372713 
L 99.590595 198.578552 
L 100.663839 203.558016 
L 101.737081 206.891326 
L 102.810324 204.376899 
L 103.883569 200.379013 
L 104.956813 201.235747 
L 106.030057 204.146588 
L 108.176544 208.314536 
L 109.786411 208.925025 
L 110.323033 209.058755 
L 114.079385 214.383792 
L 114.616002 215.25483 
L 116.225861 219.035797 
L 117.299091 221.4941 
L 118.908901 224.946354 
L 119.982101 223.870491 
L 122.66515 209.17104 
L 123.201755 206.918054 
L 124.811611 202.541076 
L 125.88485 200.135512 
L 127.494711 196.726711 
L 128.567955 193.318063 
L 129.6412 187.94357 
L 131.78768 173.11715 
L 133.934116 158.683401 
L 136.080471 147.328417 
L 137.153607 143.130145 
L 138.226741 145.151847 
L 139.836521 154.34728 
L 140.373075 156.971804 
L 141.982886 161.153992 
L 145.739101 169.689613 
L 147.885563 175.515489 
L 150.032045 182.376795 
L 153.788399 195.17222 
L 154.325014 196.800212 
L 155.398249 198.400729 
L 156.471485 198.147985 
L 158.081344 197.077698 
L 161.30106 195.328623 
L 162.910919 194.354389 
L 169.350375 191.059557 
L 183.839178 183.508758 
L 188.668772 181.039471 
L 189.742014 180.927403 
L 191.35188 181.554353 
L 209.597035 190.375132 
L 215.499876 193.146374 
L 217.646362 193.941806 
L 220.329469 195.28653 
L 223.549193 197.162784 
L 226.768913 199.30136 
L 231.061861 202.473152 
L 234.281559 205.354402 
L 235.891393 207.025843 
L 237.501241 208.629804 
L 240.184274 211.710025 
L 241.257485 213.205253 
L 243.403881 217.41855 
L 244.477074 216.72243 
L 246.086895 213.690669 
L 247.160098 211.756156 
L 248.233306 209.487632 
L 248.769899 208.264564 
L 249.843117 206.856122 
L 250.916336 206.280543 
L 253.062782 204.229116 
L 254.136007 203.486806 
L 256.282466 201.431654 
L 269.697942 192.51033 
L 271.844429 191.113848 
L 273.454295 190.127651 
L 275.600784 188.962151 
L 277.747274 187.932871 
L 279.357141 186.814809 
L 280.430386 186.055439 
L 280.967008 185.72769 
L 283.113498 185.401416 
L 292.772698 184.163795 
L 307.798125 187.147886 
L 319.067195 189.472942 
L 335.165861 192.935604 
L 336.239104 193.255007 
L 337.848969 193.709377 
L 339.458835 194.199357 
L 339.995456 194.313053 
L 342.678566 194.191752 
L 343.751809 194.079982 
L 345.898297 193.825521 
L 349.118028 193.612324 
L 351.264516 193.459439 
L 353.411004 193.384894 
L 356.094114 193.254198 
L 371.656157 193.163763 
L 373.266023 193.245184 
L 379.168868 193.278342 
L 381.315357 193.61284 
L 382.388602 193.558218 
L 384.535091 193.423597 
L 385.071713 193.505108 
L 386.144958 194.016637 
L 387.218203 194.241694 
L 388.291447 193.681908 
L 389.364692 193.49717 
L 390.974559 194.331348 
L 391.511181 194.68623 
L 392.584426 194.638521 
L 393.657671 193.540296 
L 394.730916 193.956372 
L 395.804161 195.408122 
L 397.95065 194.605083 
L 398.487273 194.604633 
L 398.487273 194.604633 
" style="fill:none;stroke:#2ca02c;stroke-linecap:square;stroke-width:1.5;"/>
   </g>
   <g id="patch_3">
    <path d="M 57.6 307.584 
L 57.6 41.472 
" style="fill:none;stroke:#000000;stroke-linecap:square;stroke-linejoin:miter;stroke-width:0.8;"/>
   </g>
   <g id="patch_4">
    <path d="M 414.72 307.584 
L 414.72 41.472 
" style="fill:none;stroke:#000000;stroke-linecap:square;stroke-linejoin:miter;stroke-width:0.8;"/>
   </g>
   <g id="patch_5">
    <path d="M 57.6 307.584 
L 414.72 307.584 
" style="fill:none;stroke:#000000;stroke-linecap:square;stroke-linejoin:miter;stroke-width:0.8;"/>
   </g>
   <g id="patch_6">
    <path d="M 57.6 41.472 
L 414.72 41.472 
" style="fill:none;stroke:#000000;stroke-linecap:square;stroke-linejoin:miter;stroke-width:0.8;"/>
   </g>
   <g id="text_12">
    <!-- Curvature vs Distance berlin -->
    <g transform="translate(150.55875 35.472)scale(0.12 -0.12)">
     <defs>
      <path d="M 64.40625 67.28125 
L 64.40625 56.890625 
Q 59.421875 61.53125 53.78125 63.8125 
Q 48.140625 66.109375 41.796875 66.109375 
Q 29.296875 66.109375 22.65625 58.46875 
Q 16.015625 50.828125 16.015625 36.375 
Q 16.015625 21.96875 22.65625 14.328125 
Q 29.296875 6.6875 41.796875 6.6875 
Q 48.140625 6.6875 53.78125 8.984375 
Q 59.421875 11.28125 64.40625 15.921875 
L 64.40625 5.609375 
Q 59.234375 2.09375 53.4375 0.328125 
Q 47.65625 -1.421875 41.21875 -1.421875 
Q 24.65625 -1.421875 15.125 8.703125 
Q 5.609375 18.84375 5.609375 36.375 
Q 5.609375 53.953125 15.125 64.078125 
Q 24.65625 74.21875 41.21875 74.21875 
Q 47.75 74.21875 53.53125 72.484375 
Q 59.328125 70.75 64.40625 67.28125 
z
" id="DejaVuSans-67"/>
      <path d="M 8.5 21.578125 
L 8.5 54.6875 
L 17.484375 54.6875 
L 17.484375 21.921875 
Q 17.484375 14.15625 20.5 10.265625 
Q 23.53125 6.390625 29.59375 6.390625 
Q 36.859375 6.390625 41.078125 11.03125 
Q 45.3125 15.671875 45.3125 23.6875 
L 45.3125 54.6875 
L 54.296875 54.6875 
L 54.296875 0 
L 45.3125 0 
L 45.3125 8.40625 
Q 42.046875 3.421875 37.71875 1 
Q 33.40625 -1.421875 27.6875 -1.421875 
Q 18.265625 -1.421875 13.375 4.4375 
Q 8.5 10.296875 8.5 21.578125 
z
M 31.109375 56 
z
" id="DejaVuSans-117"/>
      <path d="M 41.109375 46.296875 
Q 39.59375 47.171875 37.8125 47.578125 
Q 36.03125 48 33.890625 48 
Q 26.265625 48 22.1875 43.046875 
Q 18.109375 38.09375 18.109375 28.8125 
L 18.109375 0 
L 9.078125 0 
L 9.078125 54.6875 
L 18.109375 54.6875 
L 18.109375 46.1875 
Q 20.953125 51.171875 25.484375 53.578125 
Q 30.03125 56 36.53125 56 
Q 37.453125 56 38.578125 55.875 
Q 39.703125 55.765625 41.0625 55.515625 
z
" id="DejaVuSans-114"/>
      <path d="M 2.984375 54.6875 
L 12.5 54.6875 
L 29.59375 8.796875 
L 46.6875 54.6875 
L 56.203125 54.6875 
L 35.6875 0 
L 23.484375 0 
z
" id="DejaVuSans-118"/>
      <path d="M 34.28125 27.484375 
Q 23.390625 27.484375 19.1875 25 
Q 14.984375 22.515625 14.984375 16.5 
Q 14.984375 11.71875 18.140625 8.90625 
Q 21.296875 6.109375 26.703125 6.109375 
Q 34.1875 6.109375 38.703125 11.40625 
Q 43.21875 16.703125 43.21875 25.484375 
L 43.21875 27.484375 
z
M 52.203125 31.203125 
L 52.203125 0 
L 43.21875 0 
L 43.21875 8.296875 
Q 40.140625 3.328125 35.546875 0.953125 
Q 30.953125 -1.421875 24.3125 -1.421875 
Q 15.921875 -1.421875 10.953125 3.296875 
Q 6 8.015625 6 15.921875 
Q 6 25.140625 12.171875 29.828125 
Q 18.359375 34.515625 30.609375 34.515625 
L 43.21875 34.515625 
L 43.21875 35.40625 
Q 43.21875 41.609375 39.140625 45 
Q 35.0625 48.390625 27.6875 48.390625 
Q 23 48.390625 18.546875 47.265625 
Q 14.109375 46.140625 10.015625 43.890625 
L 10.015625 52.203125 
Q 14.9375 54.109375 19.578125 55.046875 
Q 24.21875 56 28.609375 56 
Q 40.484375 56 46.34375 49.84375 
Q 52.203125 43.703125 52.203125 31.203125 
z
" id="DejaVuSans-97"/>
      <path d="M 18.3125 70.21875 
L 18.3125 54.6875 
L 36.8125 54.6875 
L 36.8125 47.703125 
L 18.3125 47.703125 
L 18.3125 18.015625 
Q 18.3125 11.328125 20.140625 9.421875 
Q 21.96875 7.515625 27.59375 7.515625 
L 36.8125 7.515625 
L 36.8125 0 
L 27.59375 0 
Q 17.1875 0 13.234375 3.875 
Q 9.28125 7.765625 9.28125 18.015625 
L 9.28125 47.703125 
L 2.6875 47.703125 
L 2.6875 54.6875 
L 9.28125 54.6875 
L 9.28125 70.21875 
z
" id="DejaVuSans-116"/>
      <path d="M 56.203125 29.59375 
L 56.203125 25.203125 
L 14.890625 25.203125 
Q 15.484375 15.921875 20.484375 11.0625 
Q 25.484375 6.203125 34.421875 6.203125 
Q 39.59375 6.203125 44.453125 7.46875 
Q 49.3125 8.734375 54.109375 11.28125 
L 54.109375 2.78125 
Q 49.265625 0.734375 44.1875 -0.34375 
Q 39.109375 -1.421875 33.890625 -1.421875 
Q 20.796875 -1.421875 13.15625 6.1875 
Q 5.515625 13.8125 5.515625 26.8125 
Q 5.515625 40.234375 12.765625 48.109375 
Q 20.015625 56 32.328125 56 
Q 43.359375 56 49.78125 48.890625 
Q 56.203125 41.796875 56.203125 29.59375 
z
M 47.21875 32.234375 
Q 47.125 39.59375 43.09375 43.984375 
Q 39.0625 48.390625 32.421875 48.390625 
Q 24.90625 48.390625 20.390625 44.140625 
Q 15.875 39.890625 15.1875 32.171875 
z
" id="DejaVuSans-101"/>
      <path id="DejaVuSans-32"/>
      <path d="M 44.28125 53.078125 
L 44.28125 44.578125 
Q 40.484375 46.53125 36.375 47.5 
Q 32.28125 48.484375 27.875 48.484375 
Q 21.1875 48.484375 17.84375 46.4375 
Q 14.5 44.390625 14.5 40.28125 
Q 14.5 37.15625 16.890625 35.375 
Q 19.28125 33.59375 26.515625 31.984375 
L 29.59375 31.296875 
Q 39.15625 29.25 43.1875 25.515625 
Q 47.21875 21.78125 47.21875 15.09375 
Q 47.21875 7.46875 41.1875 3.015625 
Q 35.15625 -1.421875 24.609375 -1.421875 
Q 20.21875 -1.421875 15.453125 -0.5625 
Q 10.6875 0.296875 5.421875 2 
L 5.421875 11.28125 
Q 10.40625 8.6875 15.234375 7.390625 
Q 20.0625 6.109375 24.8125 6.109375 
Q 31.15625 6.109375 34.5625 8.28125 
Q 37.984375 10.453125 37.984375 14.40625 
Q 37.984375 18.0625 35.515625 20.015625 
Q 33.0625 21.96875 24.703125 23.78125 
L 21.578125 24.515625 
Q 13.234375 26.265625 9.515625 29.90625 
Q 5.8125 33.546875 5.8125 39.890625 
Q 5.8125 47.609375 11.28125 51.796875 
Q 16.75 56 26.8125 56 
Q 31.78125 56 36.171875 55.265625 
Q 40.578125 54.546875 44.28125 53.078125 
z
" id="DejaVuSans-115"/>
      <path d="M 19.671875 64.796875 
L 19.671875 8.109375 
L 31.59375 8.109375 
Q 46.6875 8.109375 53.6875 14.9375 
Q 60.6875 21.78125 60.6875 36.53125 
Q 60.6875 51.171875 53.6875 57.984375 
Q 46.6875 64.796875 31.59375 64.796875 
z
M 9.8125 72.90625 
L 30.078125 72.90625 
Q 51.265625 72.90625 61.171875 64.09375 
Q 71.09375 55.28125 71.09375 36.53125 
Q 71.09375 17.671875 61.125 8.828125 
Q 51.171875 0 30.078125 0 
L 9.8125 0 
z
" id="DejaVuSans-68"/>
      <path d="M 9.421875 54.6875 
L 18.40625 54.6875 
L 18.40625 0 
L 9.421875 0 
z
M 9.421875 75.984375 
L 18.40625 75.984375 
L 18.40625 64.59375 
L 9.421875 64.59375 
z
" id="DejaVuSans-105"/>
      <path d="M 54.890625 33.015625 
L 54.890625 0 
L 45.90625 0 
L 45.90625 32.71875 
Q 45.90625 40.484375 42.875 44.328125 
Q 39.84375 48.1875 33.796875 48.1875 
Q 26.515625 48.1875 22.3125 43.546875 
Q 18.109375 38.921875 18.109375 30.90625 
L 18.109375 0 
L 9.078125 0 
L 9.078125 54.6875 
L 18.109375 54.6875 
L 18.109375 46.1875 
Q 21.34375 51.125 25.703125 53.5625 
Q 30.078125 56 35.796875 56 
Q 45.21875 56 50.046875 50.171875 
Q 54.890625 44.34375 54.890625 33.015625 
z
" id="DejaVuSans-110"/>
      <path d="M 48.78125 52.59375 
L 48.78125 44.1875 
Q 44.96875 46.296875 41.140625 47.34375 
Q 37.3125 48.390625 33.40625 48.390625 
Q 24.65625 48.390625 19.8125 42.84375 
Q 14.984375 37.3125 14.984375 27.296875 
Q 14.984375 17.28125 19.8125 11.734375 
Q 24.65625 6.203125 33.40625 6.203125 
Q 37.3125 6.203125 41.140625 7.25 
Q 44.96875 8.296875 48.78125 10.40625 
L 48.78125 2.09375 
Q 45.015625 0.34375 40.984375 -0.53125 
Q 36.96875 -1.421875 32.421875 -1.421875 
Q 20.0625 -1.421875 12.78125 6.34375 
Q 5.515625 14.109375 5.515625 27.296875 
Q 5.515625 40.671875 12.859375 48.328125 
Q 20.21875 56 33.015625 56 
Q 37.15625 56 41.109375 55.140625 
Q 45.0625 54.296875 48.78125 52.59375 
z
" id="DejaVuSans-99"/>
      <path d="M 48.6875 27.296875 
Q 48.6875 37.203125 44.609375 42.84375 
Q 40.53125 48.484375 33.40625 48.484375 
Q 26.265625 48.484375 22.1875 42.84375 
Q 18.109375 37.203125 18.109375 27.296875 
Q 18.109375 17.390625 22.1875 11.75 
Q 26.265625 6.109375 33.40625 6.109375 
Q 40.53125 6.109375 44.609375 11.75 
Q 48.6875 17.390625 48.6875 27.296875 
z
M 18.109375 46.390625 
Q 20.953125 51.265625 25.265625 53.625 
Q 29.59375 56 35.59375 56 
Q 45.5625 56 51.78125 48.09375 
Q 58.015625 40.1875 58.015625 27.296875 
Q 58.015625 14.40625 51.78125 6.484375 
Q 45.5625 -1.421875 35.59375 -1.421875 
Q 29.59375 -1.421875 25.265625 0.953125 
Q 20.953125 3.328125 18.109375 8.203125 
L 18.109375 0 
L 9.078125 0 
L 9.078125 75.984375 
L 18.109375 75.984375 
z
" id="DejaVuSans-98"/>
      <path d="M 9.421875 75.984375 
L 18.40625 75.984375 
L 18.40625 0 
L 9.421875 0 
z
" id="DejaVuSans-108"/>
     </defs>
     <use xlink:href="#DejaVuSans-67"/>
     <use x="69.824219" xlink:href="#DejaVuSans-117"/>
     <use x="133.203125" xlink:href="#DejaVuSans-114"/>
     <use x="174.316406" xlink:href="#DejaVuSans-118"/>
     <use x="233.496094" xlink:href="#DejaVuSans-97"/>
     <use x="294.775391" xlink:href="#DejaVuSans-116"/>
     <use x="333.984375" xlink:href="#DejaVuSans-117"/>
     <use x="397.363281" xlink:href="#DejaVuSans-114"/>
     <use x="436.226562" xlink:href="#DejaVuSans-101"/>
     <use x="497.75" xlink:href="#DejaVuSans-32"/>
     <use x="529.537109" xlink:href="#DejaVuSans-118"/>
     <use x="588.716797" xlink:href="#DejaVuSans-115"/>
     <use x="640.816406" xlink:href="#DejaVuSans-32"/>
     <use x="672.603516" xlink:href="#DejaVuSans-68"/>
     <use x="749.605469" xlink:href="#DejaVuSans-105"/>
     <use x="777.388672" xlink:href="#DejaVuSans-115"/>
     <use x="829.488281" xlink:href="#DejaVuSans-116"/>
     <use x="868.697266" xlink:href="#DejaVuSans-97"/>
     <use x="929.976562" xlink:href="#DejaVuSans-110"/>
     <use x="993.355469" xlink:href="#DejaVuSans-99"/>
     <use x="1048.335938" xlink:href="#DejaVuSans-101"/>
     <use x="1109.859375" xlink:href="#DejaVuSans-32"/>
     <use x="1141.646484" xlink:href="#DejaVuSans-98"/>
     <use x="1205.123047" xlink:href="#DejaVuSans-101"/>
     <use x="1266.646484" xlink:href="#DejaVuSans-114"/>
     <use x="1307.759766" xlink:href="#DejaVuSans-108"/>
     <use x="1335.542969" xlink:href="#DejaVuSans-105"/>
     <use x="1363.326172" xlink:href="#DejaVuSans-110"/>
    </g>
   </g>
   <g id="legend_1">
    <g id="patch_7">
     <path d="M 276.42625 93.506375 
L 407.72 93.506375 
Q 409.72 93.506375 409.72 91.506375 
L 409.72 48.472 
Q 409.72 46.472 407.72 46.472 
L 276.42625 46.472 
Q 274.42625 46.472 274.42625 48.472 
L 274.42625 91.506375 
Q 274.42625 93.506375 276.42625 93.506375 
z
" style="fill:#ffffff;opacity:0.8;stroke:#cccccc;stroke-linejoin:miter;"/>
    </g>
    <g id="line2d_15">
     <path d="M 278.42625 54.570438 
L 298.42625 54.570438 
" style="fill:none;stroke:#1f77b4;stroke-linecap:square;stroke-width:1.5;"/>
    </g>
    <g id="line2d_16"/>
    <g id="text_13">
     <!-- Centreline -->
     <g transform="translate(306.42625 58.070438)scale(0.1 -0.1)">
      <use xlink:href="#DejaVuSans-67"/>
      <use x="69.824219" xlink:href="#DejaVuSans-101"/>
      <use x="131.347656" xlink:href="#DejaVuSans-110"/>
      <use x="194.726562" xlink:href="#DejaVuSans-116"/>
      <use x="233.935547" xlink:href="#DejaVuSans-114"/>
      <use x="272.798828" xlink:href="#DejaVuSans-101"/>
      <use x="334.322266" xlink:href="#DejaVuSans-108"/>
      <use x="362.105469" xlink:href="#DejaVuSans-105"/>
      <use x="389.888672" xlink:href="#DejaVuSans-110"/>
      <use x="453.267578" xlink:href="#DejaVuSans-101"/>
     </g>
    </g>
    <g id="line2d_17">
     <path d="M 278.42625 69.248563 
L 298.42625 69.248563 
" style="fill:none;stroke:#ff7f0e;stroke-linecap:square;stroke-width:1.5;"/>
    </g>
    <g id="line2d_18"/>
    <g id="text_14">
     <!-- Shortest Path -->
     <g transform="translate(306.42625 72.748563)scale(0.1 -0.1)">
      <defs>
       <path d="M 53.515625 70.515625 
L 53.515625 60.890625 
Q 47.90625 63.578125 42.921875 64.890625 
Q 37.9375 66.21875 33.296875 66.21875 
Q 25.25 66.21875 20.875 63.09375 
Q 16.5 59.96875 16.5 54.203125 
Q 16.5 49.359375 19.40625 46.890625 
Q 22.3125 44.4375 30.421875 42.921875 
L 36.375 41.703125 
Q 47.40625 39.59375 52.65625 34.296875 
Q 57.90625 29 57.90625 20.125 
Q 57.90625 9.515625 50.796875 4.046875 
Q 43.703125 -1.421875 29.984375 -1.421875 
Q 24.8125 -1.421875 18.96875 -0.25 
Q 13.140625 0.921875 6.890625 3.21875 
L 6.890625 13.375 
Q 12.890625 10.015625 18.65625 8.296875 
Q 24.421875 6.59375 29.984375 6.59375 
Q 38.421875 6.59375 43.015625 9.90625 
Q 47.609375 13.234375 47.609375 19.390625 
Q 47.609375 24.75 44.3125 27.78125 
Q 41.015625 30.8125 33.5 32.328125 
L 27.484375 33.5 
Q 16.453125 35.6875 11.515625 40.375 
Q 6.59375 45.0625 6.59375 53.421875 
Q 6.59375 63.09375 13.40625 68.65625 
Q 20.21875 74.21875 32.171875 74.21875 
Q 37.3125 74.21875 42.625 73.28125 
Q 47.953125 72.359375 53.515625 70.515625 
z
" id="DejaVuSans-83"/>
       <path d="M 54.890625 33.015625 
L 54.890625 0 
L 45.90625 0 
L 45.90625 32.71875 
Q 45.90625 40.484375 42.875 44.328125 
Q 39.84375 48.1875 33.796875 48.1875 
Q 26.515625 48.1875 22.3125 43.546875 
Q 18.109375 38.921875 18.109375 30.90625 
L 18.109375 0 
L 9.078125 0 
L 9.078125 75.984375 
L 18.109375 75.984375 
L 18.109375 46.1875 
Q 21.34375 51.125 25.703125 53.5625 
Q 30.078125 56 35.796875 56 
Q 45.21875 56 50.046875 50.171875 
Q 54.890625 44.34375 54.890625 33.015625 
z
" id="DejaVuSans-104"/>
       <path d="M 30.609375 48.390625 
Q 23.390625 48.390625 19.1875 42.75 
Q 14.984375 37.109375 14.984375 27.296875 
Q 14.984375 17.484375 19.15625 11.84375 
Q 23.34375 6.203125 30.609375 6.203125 
Q 37.796875 6.203125 41.984375 11.859375 
Q 46.1875 17.53125 46.1875 27.296875 
Q 46.1875 37.015625 41.984375 42.703125 
Q 37.796875 48.390625 30.609375 48.390625 
z
M 30.609375 56 
Q 42.328125 56 49.015625 48.375 
Q 55.71875 40.765625 55.71875 27.296875 
Q 55.71875 13.875 49.015625 6.21875 
Q 42.328125 -1.421875 30.609375 -1.421875 
Q 18.84375 -1.421875 12.171875 6.21875 
Q 5.515625 13.875 5.515625 27.296875 
Q 5.515625 40.765625 12.171875 48.375 
Q 18.84375 56 30.609375 56 
z
" id="DejaVuSans-111"/>
       <path d="M 19.671875 64.796875 
L 19.671875 37.40625 
L 32.078125 37.40625 
Q 38.96875 37.40625 42.71875 40.96875 
Q 46.484375 44.53125 46.484375 51.125 
Q 46.484375 57.671875 42.71875 61.234375 
Q 38.96875 64.796875 32.078125 64.796875 
z
M 9.8125 72.90625 
L 32.078125 72.90625 
Q 44.34375 72.90625 50.609375 67.359375 
Q 56.890625 61.8125 56.890625 51.125 
Q 56.890625 40.328125 50.609375 34.8125 
Q 44.34375 29.296875 32.078125 29.296875 
L 19.671875 29.296875 
L 19.671875 0 
L 9.8125 0 
z
" id="DejaVuSans-80"/>
      </defs>
      <use xlink:href="#DejaVuSans-83"/>
      <use x="63.476562" xlink:href="#DejaVuSans-104"/>
      <use x="126.855469" xlink:href="#DejaVuSans-111"/>
      <use x="188.037109" xlink:href="#DejaVuSans-114"/>
      <use x="229.150391" xlink:href="#DejaVuSans-116"/>
      <use x="268.359375" xlink:href="#DejaVuSans-101"/>
      <use x="329.882812" xlink:href="#DejaVuSans-115"/>
      <use x="381.982422" xlink:href="#DejaVuSans-116"/>
      <use x="421.191406" xlink:href="#DejaVuSans-32"/>
      <use x="452.978516" xlink:href="#DejaVuSans-80"/>
      <use x="508.78125" xlink:href="#DejaVuSans-97"/>
      <use x="570.060547" xlink:href="#DejaVuSans-116"/>
      <use x="609.269531" xlink:href="#DejaVuSans-104"/>
     </g>
    </g>
    <g id="line2d_19">
     <path d="M 278.42625 83.926688 
L 298.42625 83.926688 
" style="fill:none;stroke:#2ca02c;stroke-linecap:square;stroke-width:1.5;"/>
    </g>
    <g id="line2d_20"/>
    <g id="text_15">
     <!-- Minimum Curvature -->
     <g transform="translate(306.42625 87.426688)scale(0.1 -0.1)">
      <defs>
       <path d="M 9.8125 72.90625 
L 24.515625 72.90625 
L 43.109375 23.296875 
L 61.8125 72.90625 
L 76.515625 72.90625 
L 76.515625 0 
L 66.890625 0 
L 66.890625 64.015625 
L 48.09375 14.015625 
L 38.1875 14.015625 
L 19.390625 64.015625 
L 19.390625 0 
L 9.8125 0 
z
" id="DejaVuSans-77"/>
       <path d="M 52 44.1875 
Q 55.375 50.25 60.0625 53.125 
Q 64.75 56 71.09375 56 
Q 79.640625 56 84.28125 50.015625 
Q 88.921875 44.046875 88.921875 33.015625 
L 88.921875 0 
L 79.890625 0 
L 79.890625 32.71875 
Q 79.890625 40.578125 77.09375 44.375 
Q 74.3125 48.1875 68.609375 48.1875 
Q 61.625 48.1875 57.5625 43.546875 
Q 53.515625 38.921875 53.515625 30.90625 
L 53.515625 0 
L 44.484375 0 
L 44.484375 32.71875 
Q 44.484375 40.625 41.703125 44.40625 
Q 38.921875 48.1875 33.109375 48.1875 
Q 26.21875 48.1875 22.15625 43.53125 
Q 18.109375 38.875 18.109375 30.90625 
L 18.109375 0 
L 9.078125 0 
L 9.078125 54.6875 
L 18.109375 54.6875 
L 18.109375 46.1875 
Q 21.1875 51.21875 25.484375 53.609375 
Q 29.78125 56 35.6875 56 
Q 41.65625 56 45.828125 52.96875 
Q 50 49.953125 52 44.1875 
z
" id="DejaVuSans-109"/>
      </defs>
      <use xlink:href="#DejaVuSans-77"/>
      <use x="86.279297" xlink:href="#DejaVuSans-105"/>
      <use x="114.0625" xlink:href="#DejaVuSans-110"/>
      <use x="177.441406" xlink:href="#DejaVuSans-105"/>
      <use x="205.224609" xlink:href="#DejaVuSans-109"/>
      <use x="302.636719" xlink:href="#DejaVuSans-117"/>
      <use x="366.015625" xlink:href="#DejaVuSans-109"/>
      <use x="463.427734" xlink:href="#DejaVuSans-32"/>
      <use x="495.214844" xlink:href="#DejaVuSans-67"/>
      <use x="565.039062" xlink:href="#DejaVuSans-117"/>
      <use x="628.417969" xlink:href="#DejaVuSans-114"/>
      <use x="669.53125" xlink:href="#DejaVuSans-118"/>
      <use x="728.710938" xlink:href="#DejaVuSans-97"/>
      <use x="789.990234" xlink:href="#DejaVuSans-116"/>
      <use x="829.199219" xlink:href="#DejaVuSans-117"/>
      <use x="892.578125" xlink:href="#DejaVuSans-114"/>
      <use x="931.441406" xlink:href="#DejaVuSans-101"/>
     </g>
    </g>
   </g>
  </g>
 </g>
 <defs>
  <clipPath id="p5c56345229">
   <rect height="266.112" width="357.12" x="57.6" y="41.472"/>
  </clipPath>
 </defs>
</svg>
