<?xml version="1.0" encoding="utf-8" standalone="no"?>
<!DOCTYPE svg PUBLIC "-//W3C//DTD SVG 1.1//EN"
  "http://www.w3.org/Graphics/SVG/1.1/DTD/svg11.dtd">
<!-- Created with matplotlib (https://matplotlib.org/) -->
<svg height="345.6pt" version="1.1" viewBox="0 0 460.8 345.6" width="460.8pt" xmlns="http://www.w3.org/2000/svg" xmlns:xlink="http://www.w3.org/1999/xlink">
 <metadata>
  <rdf:RDF xmlns:cc="http://creativecommons.org/ns#" xmlns:dc="http://purl.org/dc/elements/1.1/" xmlns:rdf="http://www.w3.org/1999/02/22-rdf-syntax-ns#">
   <cc:Work>
    <dc:type rdf:resource="http://purl.org/dc/dcmitype/StillImage"/>
    <dc:date>2024-10-14T23:04:26.672534</dc:date>
    <dc:format>image/svg+xml</dc:format>
    <dc:creator>
     <cc:Agent>
      <dc:title>Matplotlib v3.3.1, https://matplotlib.org/</dc:title>
     </cc:Agent>
    </dc:creator>
   </cc:Work>
  </rdf:RDF>
 </metadata>
 <defs>
  <style type="text/css">*{stroke-linecap:butt;stroke-linejoin:round;}</style>
 </defs>
 <g id="figure_1">
  <g id="patch_1">
   <path d="M 0 345.6 
L 460.8 345.6 
L 460.8 0 
L 0 0 
z
" style="fill:#ffffff;"/>
  </g>
  <g id="axes_1">
   <g id="patch_2">
    <path d="M 57.6 307.584 
L 414.72 307.584 
L 414.72 41.472 
L 57.6 41.472 
z
" style="fill:#ffffff;"/>
   </g>
   <g id="matplotlib.axis_1">
    <g id="xtick_1">
     <g id="line2d_1">
      <defs>
       <path d="M 0 0 
L 0 3.5 
" id="m088c52c551" style="stroke:#000000;stroke-width:0.8;"/>
      </defs>
      <g>
       <use style="stroke:#000000;stroke-width:0.8;" x="73.832727" xlink:href="#m088c52c551" y="307.584"/>
      </g>
     </g>
     <g id="text_1">
      <!-- 0.0 -->
      <g transform="translate(65.881165 322.182437)scale(0.1 -0.1)">
       <defs>
        <path d="M 31.78125 66.40625 
Q 24.171875 66.40625 20.328125 58.90625 
Q 16.5 51.421875 16.5 36.375 
Q 16.5 21.390625 20.328125 13.890625 
Q 24.171875 6.390625 31.78125 6.390625 
Q 39.453125 6.390625 43.28125 13.890625 
Q 47.125 21.390625 47.125 36.375 
Q 47.125 51.421875 43.28125 58.90625 
Q 39.453125 66.40625 31.78125 66.40625 
z
M 31.78125 74.21875 
Q 44.046875 74.21875 50.515625 64.515625 
Q 56.984375 54.828125 56.984375 36.375 
Q 56.984375 17.96875 50.515625 8.265625 
Q 44.046875 -1.421875 31.78125 -1.421875 
Q 19.53125 -1.421875 13.0625 8.265625 
Q 6.59375 17.96875 6.59375 36.375 
Q 6.59375 54.828125 13.0625 64.515625 
Q 19.53125 74.21875 31.78125 74.21875 
z
" id="DejaVuSans-48"/>
        <path d="M 10.6875 12.40625 
L 21 12.40625 
L 21 0 
L 10.6875 0 
z
" id="DejaVuSans-46"/>
       </defs>
       <use xlink:href="#DejaVuSans-48"/>
       <use x="63.623047" xlink:href="#DejaVuSans-46"/>
       <use x="95.410156" xlink:href="#DejaVuSans-48"/>
      </g>
     </g>
    </g>
    <g id="xtick_2">
     <g id="line2d_2">
      <g>
       <use style="stroke:#000000;stroke-width:0.8;" x="138.763636" xlink:href="#m088c52c551" y="307.584"/>
      </g>
     </g>
     <g id="text_2">
      <!-- 0.2 -->
      <g transform="translate(130.812074 322.182437)scale(0.1 -0.1)">
       <defs>
        <path d="M 19.1875 8.296875 
L 53.609375 8.296875 
L 53.609375 0 
L 7.328125 0 
L 7.328125 8.296875 
Q 12.9375 14.109375 22.625 23.890625 
Q 32.328125 33.6875 34.8125 36.53125 
Q 39.546875 41.84375 41.421875 45.53125 
Q 43.3125 49.21875 43.3125 52.78125 
Q 43.3125 58.59375 39.234375 62.25 
Q 35.15625 65.921875 28.609375 65.921875 
Q 23.96875 65.921875 18.8125 64.3125 
Q 13.671875 62.703125 7.8125 59.421875 
L 7.8125 69.390625 
Q 13.765625 71.78125 18.9375 73 
Q 24.125 74.21875 28.421875 74.21875 
Q 39.75 74.21875 46.484375 68.546875 
Q 53.21875 62.890625 53.21875 53.421875 
Q 53.21875 48.921875 51.53125 44.890625 
Q 49.859375 40.875 45.40625 35.40625 
Q 44.1875 33.984375 37.640625 27.21875 
Q 31.109375 20.453125 19.1875 8.296875 
z
" id="DejaVuSans-50"/>
       </defs>
       <use xlink:href="#DejaVuSans-48"/>
       <use x="63.623047" xlink:href="#DejaVuSans-46"/>
       <use x="95.410156" xlink:href="#DejaVuSans-50"/>
      </g>
     </g>
    </g>
    <g id="xtick_3">
     <g id="line2d_3">
      <g>
       <use style="stroke:#000000;stroke-width:0.8;" x="203.694545" xlink:href="#m088c52c551" y="307.584"/>
      </g>
     </g>
     <g id="text_3">
      <!-- 0.4 -->
      <g transform="translate(195.742983 322.182437)scale(0.1 -0.1)">
       <defs>
        <path d="M 37.796875 64.3125 
L 12.890625 25.390625 
L 37.796875 25.390625 
z
M 35.203125 72.90625 
L 47.609375 72.90625 
L 47.609375 25.390625 
L 58.015625 25.390625 
L 58.015625 17.1875 
L 47.609375 17.1875 
L 47.609375 0 
L 37.796875 0 
L 37.796875 17.1875 
L 4.890625 17.1875 
L 4.890625 26.703125 
z
" id="DejaVuSans-52"/>
       </defs>
       <use xlink:href="#DejaVuSans-48"/>
       <use x="63.623047" xlink:href="#DejaVuSans-46"/>
       <use x="95.410156" xlink:href="#DejaVuSans-52"/>
      </g>
     </g>
    </g>
    <g id="xtick_4">
     <g id="line2d_4">
      <g>
       <use style="stroke:#000000;stroke-width:0.8;" x="268.625455" xlink:href="#m088c52c551" y="307.584"/>
      </g>
     </g>
     <g id="text_4">
      <!-- 0.6 -->
      <g transform="translate(260.673892 322.182437)scale(0.1 -0.1)">
       <defs>
        <path d="M 33.015625 40.375 
Q 26.375 40.375 22.484375 35.828125 
Q 18.609375 31.296875 18.609375 23.390625 
Q 18.609375 15.53125 22.484375 10.953125 
Q 26.375 6.390625 33.015625 6.390625 
Q 39.65625 6.390625 43.53125 10.953125 
Q 47.40625 15.53125 47.40625 23.390625 
Q 47.40625 31.296875 43.53125 35.828125 
Q 39.65625 40.375 33.015625 40.375 
z
M 52.59375 71.296875 
L 52.59375 62.3125 
Q 48.875 64.0625 45.09375 64.984375 
Q 41.3125 65.921875 37.59375 65.921875 
Q 27.828125 65.921875 22.671875 59.328125 
Q 17.53125 52.734375 16.796875 39.40625 
Q 19.671875 43.65625 24.015625 45.921875 
Q 28.375 48.1875 33.59375 48.1875 
Q 44.578125 48.1875 50.953125 41.515625 
Q 57.328125 34.859375 57.328125 23.390625 
Q 57.328125 12.15625 50.6875 5.359375 
Q 44.046875 -1.421875 33.015625 -1.421875 
Q 20.359375 -1.421875 13.671875 8.265625 
Q 6.984375 17.96875 6.984375 36.375 
Q 6.984375 53.65625 15.1875 63.9375 
Q 23.390625 74.21875 37.203125 74.21875 
Q 40.921875 74.21875 44.703125 73.484375 
Q 48.484375 72.75 52.59375 71.296875 
z
" id="DejaVuSans-54"/>
       </defs>
       <use xlink:href="#DejaVuSans-48"/>
       <use x="63.623047" xlink:href="#DejaVuSans-46"/>
       <use x="95.410156" xlink:href="#DejaVuSans-54"/>
      </g>
     </g>
    </g>
    <g id="xtick_5">
     <g id="line2d_5">
      <g>
       <use style="stroke:#000000;stroke-width:0.8;" x="333.556364" xlink:href="#m088c52c551" y="307.584"/>
      </g>
     </g>
     <g id="text_5">
      <!-- 0.8 -->
      <g transform="translate(325.604801 322.182437)scale(0.1 -0.1)">
       <defs>
        <path d="M 31.78125 34.625 
Q 24.75 34.625 20.71875 30.859375 
Q 16.703125 27.09375 16.703125 20.515625 
Q 16.703125 13.921875 20.71875 10.15625 
Q 24.75 6.390625 31.78125 6.390625 
Q 38.8125 6.390625 42.859375 10.171875 
Q 46.921875 13.96875 46.921875 20.515625 
Q 46.921875 27.09375 42.890625 30.859375 
Q 38.875 34.625 31.78125 34.625 
z
M 21.921875 38.8125 
Q 15.578125 40.375 12.03125 44.71875 
Q 8.5 49.078125 8.5 55.328125 
Q 8.5 64.0625 14.71875 69.140625 
Q 20.953125 74.21875 31.78125 74.21875 
Q 42.671875 74.21875 48.875 69.140625 
Q 55.078125 64.0625 55.078125 55.328125 
Q 55.078125 49.078125 51.53125 44.71875 
Q 48 40.375 41.703125 38.8125 
Q 48.828125 37.15625 52.796875 32.3125 
Q 56.78125 27.484375 56.78125 20.515625 
Q 56.78125 9.90625 50.3125 4.234375 
Q 43.84375 -1.421875 31.78125 -1.421875 
Q 19.734375 -1.421875 13.25 4.234375 
Q 6.78125 9.90625 6.78125 20.515625 
Q 6.78125 27.484375 10.78125 32.3125 
Q 14.796875 37.15625 21.921875 38.8125 
z
M 18.3125 54.390625 
Q 18.3125 48.734375 21.84375 45.5625 
Q 25.390625 42.390625 31.78125 42.390625 
Q 38.140625 42.390625 41.71875 45.5625 
Q 45.3125 48.734375 45.3125 54.390625 
Q 45.3125 60.0625 41.71875 63.234375 
Q 38.140625 66.40625 31.78125 66.40625 
Q 25.390625 66.40625 21.84375 63.234375 
Q 18.3125 60.0625 18.3125 54.390625 
z
" id="DejaVuSans-56"/>
       </defs>
       <use xlink:href="#DejaVuSans-48"/>
       <use x="63.623047" xlink:href="#DejaVuSans-46"/>
       <use x="95.410156" xlink:href="#DejaVuSans-56"/>
      </g>
     </g>
    </g>
    <g id="xtick_6">
     <g id="line2d_6">
      <g>
       <use style="stroke:#000000;stroke-width:0.8;" x="398.487273" xlink:href="#m088c52c551" y="307.584"/>
      </g>
     </g>
     <g id="text_6">
      <!-- 1.0 -->
      <g transform="translate(390.53571 322.182437)scale(0.1 -0.1)">
       <defs>
        <path d="M 12.40625 8.296875 
L 28.515625 8.296875 
L 28.515625 63.921875 
L 10.984375 60.40625 
L 10.984375 69.390625 
L 28.421875 72.90625 
L 38.28125 72.90625 
L 38.28125 8.296875 
L 54.390625 8.296875 
L 54.390625 0 
L 12.40625 0 
z
" id="DejaVuSans-49"/>
       </defs>
       <use xlink:href="#DejaVuSans-49"/>
       <use x="63.623047" xlink:href="#DejaVuSans-46"/>
       <use x="95.410156" xlink:href="#DejaVuSans-48"/>
      </g>
     </g>
    </g>
   </g>
   <g id="matplotlib.axis_2">
    <g id="ytick_1">
     <g id="line2d_7">
      <defs>
       <path d="M 0 0 
L -3.5 0 
" id="mcd4a1570ba" style="stroke:#000000;stroke-width:0.8;"/>
      </defs>
      <g>
       <use style="stroke:#000000;stroke-width:0.8;" x="57.6" xlink:href="#mcd4a1570ba" y="279.213372"/>
      </g>
     </g>
     <g id="text_7">
      <!-- −1.5 -->
      <g transform="translate(26.317187 283.012591)scale(0.1 -0.1)">
       <defs>
        <path d="M 10.59375 35.5 
L 73.1875 35.5 
L 73.1875 27.203125 
L 10.59375 27.203125 
z
" id="DejaVuSans-8722"/>
        <path d="M 10.796875 72.90625 
L 49.515625 72.90625 
L 49.515625 64.59375 
L 19.828125 64.59375 
L 19.828125 46.734375 
Q 21.96875 47.46875 24.109375 47.828125 
Q 26.265625 48.1875 28.421875 48.1875 
Q 40.625 48.1875 47.75 41.5 
Q 54.890625 34.8125 54.890625 23.390625 
Q 54.890625 11.625 47.5625 5.09375 
Q 40.234375 -1.421875 26.90625 -1.421875 
Q 22.3125 -1.421875 17.546875 -0.640625 
Q 12.796875 0.140625 7.71875 1.703125 
L 7.71875 11.625 
Q 12.109375 9.234375 16.796875 8.0625 
Q 21.484375 6.890625 26.703125 6.890625 
Q 35.15625 6.890625 40.078125 11.328125 
Q 45.015625 15.765625 45.015625 23.390625 
Q 45.015625 31 40.078125 35.4375 
Q 35.15625 39.890625 26.703125 39.890625 
Q 22.75 39.890625 18.8125 39.015625 
Q 14.890625 38.140625 10.796875 36.28125 
z
" id="DejaVuSans-53"/>
       </defs>
       <use xlink:href="#DejaVuSans-8722"/>
       <use x="83.789062" xlink:href="#DejaVuSans-49"/>
       <use x="147.412109" xlink:href="#DejaVuSans-46"/>
       <use x="179.199219" xlink:href="#DejaVuSans-53"/>
      </g>
     </g>
    </g>
    <g id="ytick_2">
     <g id="line2d_8">
      <g>
       <use style="stroke:#000000;stroke-width:0.8;" x="57.6" xlink:href="#mcd4a1570ba" y="236.672258"/>
      </g>
     </g>
     <g id="text_8">
      <!-- −1.0 -->
      <g transform="translate(26.317187 240.471477)scale(0.1 -0.1)">
       <use xlink:href="#DejaVuSans-8722"/>
       <use x="83.789062" xlink:href="#DejaVuSans-49"/>
       <use x="147.412109" xlink:href="#DejaVuSans-46"/>
       <use x="179.199219" xlink:href="#DejaVuSans-48"/>
      </g>
     </g>
    </g>
    <g id="ytick_3">
     <g id="line2d_9">
      <g>
       <use style="stroke:#000000;stroke-width:0.8;" x="57.6" xlink:href="#mcd4a1570ba" y="194.131143"/>
      </g>
     </g>
     <g id="text_9">
      <!-- −0.5 -->
      <g transform="translate(26.317187 197.930362)scale(0.1 -0.1)">
       <use xlink:href="#DejaVuSans-8722"/>
       <use x="83.789062" xlink:href="#DejaVuSans-48"/>
       <use x="147.412109" xlink:href="#DejaVuSans-46"/>
       <use x="179.199219" xlink:href="#DejaVuSans-53"/>
      </g>
     </g>
    </g>
    <g id="ytick_4">
     <g id="line2d_10">
      <g>
       <use style="stroke:#000000;stroke-width:0.8;" x="57.6" xlink:href="#mcd4a1570ba" y="151.590029"/>
      </g>
     </g>
     <g id="text_10">
      <!-- 0.0 -->
      <g transform="translate(34.696875 155.389248)scale(0.1 -0.1)">
       <use xlink:href="#DejaVuSans-48"/>
       <use x="63.623047" xlink:href="#DejaVuSans-46"/>
       <use x="95.410156" xlink:href="#DejaVuSans-48"/>
      </g>
     </g>
    </g>
    <g id="ytick_5">
     <g id="line2d_11">
      <g>
       <use style="stroke:#000000;stroke-width:0.8;" x="57.6" xlink:href="#mcd4a1570ba" y="109.048915"/>
      </g>
     </g>
     <g id="text_11">
      <!-- 0.5 -->
      <g transform="translate(34.696875 112.848133)scale(0.1 -0.1)">
       <use xlink:href="#DejaVuSans-48"/>
       <use x="63.623047" xlink:href="#DejaVuSans-46"/>
       <use x="95.410156" xlink:href="#DejaVuSans-53"/>
      </g>
     </g>
    </g>
    <g id="ytick_6">
     <g id="line2d_12">
      <g>
       <use style="stroke:#000000;stroke-width:0.8;" x="57.6" xlink:href="#mcd4a1570ba" y="66.5078"/>
      </g>
     </g>
     <g id="text_12">
      <!-- 1.0 -->
      <g transform="translate(34.696875 70.307019)scale(0.1 -0.1)">
       <use xlink:href="#DejaVuSans-49"/>
       <use x="63.623047" xlink:href="#DejaVuSans-46"/>
       <use x="95.410156" xlink:href="#DejaVuSans-48"/>
      </g>
     </g>
    </g>
   </g>
   <g id="line2d_13">
    <path clip-path="url(#p2a09492916)" d="M 73.832727 151.585618 
L 78.604994 151.607955 
L 79.026077 151.577479 
L 82.114014 151.670568 
L 82.254375 151.75281 
L 82.535096 151.627362 
L 82.675457 152.737352 
L 82.956179 134.628816 
L 83.2369 154.643598 
L 83.377261 150.55868 
L 83.657983 171.204409 
L 83.938704 149.366464 
L 84.079065 151.594481 
L 84.359787 150.692263 
L 84.640508 151.574174 
L 84.780869 151.579735 
L 85.06159 151.840489 
L 85.342312 151.566288 
L 94.746485 151.498736 
L 95.167567 151.534958 
L 97.834422 151.482922 
L 98.115144 151.51538 
L 98.395866 151.418761 
L 98.816948 151.511936 
L 99.097669 151.40616 
L 99.378391 151.405299 
L 99.659113 150.736328 
L 100.781999 147.327372 
L 100.92236 146.981791 
L 101.062721 147.02375 
L 101.203081 146.866333 
L 101.483803 145.148114 
L 101.624164 145.234454 
L 101.904885 148.599617 
L 102.185607 142.978305 
L 102.325968 143.54564 
L 102.606689 151.849152 
L 102.887411 140.829396 
L 103.027772 141.299944 
L 103.308493 150.919746 
L 103.589215 138.72645 
L 103.729576 139.534618 
L 104.010298 163.80728 
L 104.291019 133.044667 
L 104.712101 143.320432 
L 104.992823 131.969344 
L 105.133184 134.532273 
L 105.273544 146.938772 
L 105.413905 145.014422 
L 105.554266 124.782999 
L 105.694626 122.518291 
L 105.975348 145.355396 
L 106.115709 144.837315 
L 106.39643 120.401882 
L 106.536792 130.14349 
L 106.677152 149.899498 
L 106.817513 147.525295 
L 107.098234 112.748127 
L 107.378956 135.940752 
L 107.519317 132.353294 
L 107.800038 103.599208 
L 108.080761 132.939758 
L 108.221122 124.725266 
L 108.361483 105.3379 
L 108.501844 101.83958 
L 108.782567 141.884151 
L 109.063288 107.474524 
L 109.203649 114.207094 
L 109.484372 151.473686 
L 109.765092 117.76239 
L 110.186175 142.26141 
L 110.466897 135.375197 
L 110.607258 136.753318 
L 110.747618 134.812465 
L 110.887979 134.79311 
L 111.309062 154.448951 
L 111.589784 184.743578 
L 111.870505 159.987223 
L 112.010865 160.28648 
L 112.291587 143.944578 
L 112.572309 173.643446 
L 112.712669 170.92525 
L 112.993392 143.386319 
L 113.274112 188.674053 
L 113.414474 180.575227 
L 113.695195 159.593979 
L 113.975916 194.660856 
L 114.116278 181.071556 
L 114.256638 153.332147 
L 114.396999 156.72808 
L 114.67772 195.216986 
L 114.958442 146.888009 
L 115.098803 151.355256 
L 115.379524 188.152433 
L 115.660246 176.525794 
L 115.800607 175.684542 
L 115.940967 180.421077 
L 116.081328 180.700007 
L 116.36205 151.119735 
L 116.502411 152.36628 
L 116.783132 175.570349 
L 117.063854 143.988544 
L 117.204215 144.334901 
L 117.484936 171.08293 
L 117.906018 165.580501 
L 118.046379 166.236145 
L 118.18674 165.489516 
L 118.607822 148.285872 
L 118.888544 161.33341 
L 119.309626 153.58851 
L 119.590348 156.596433 
L 119.730709 156.677919 
L 119.87107 157.817968 
L 120.01143 156.712263 
L 120.292152 151.758284 
L 120.432513 152.299471 
L 120.572873 153.905958 
L 120.713234 152.894366 
L 120.993956 147.051532 
L 121.69576 142.400801 
L 122.116842 136.356942 
L 122.397564 138.289126 
L 122.537925 143.7417 
L 122.678285 154.357386 
L 122.818646 152.715415 
L 123.099368 132.935846 
L 123.239729 136.344148 
L 123.380089 142.535307 
L 123.52045 141.410254 
L 123.801172 128.479518 
L 123.941533 136.122813 
L 124.081893 151.611817 
L 124.222254 150.831994 
L 124.502975 122.903026 
L 124.643337 136.515256 
L 124.783697 162.035331 
L 124.924058 158.7318 
L 125.204779 116.801852 
L 125.485502 166.841717 
L 125.625862 156.231093 
L 125.906583 116.314465 
L 126.187305 134.797421 
L 126.327666 131.558808 
L 126.468026 121.041984 
L 126.608387 120.119424 
L 126.889109 153.195053 
L 127.029469 145.241958 
L 127.310191 120.948907 
L 127.590913 139.717739 
L 127.731274 135.105683 
L 127.871634 123.987362 
L 128.011995 123.202709 
L 128.292717 157.835461 
L 128.433078 147.476366 
L 128.573438 126.14203 
L 128.713799 123.735718 
L 128.994521 158.413461 
L 129.275243 124.958323 
L 129.415603 126.133083 
L 129.696325 163.531576 
L 129.977047 125.496478 
L 130.117407 123.606067 
L 130.398129 126.503088 
L 130.53849 125.718371 
L 130.67885 123.412363 
L 130.819212 130.144012 
L 131.099933 177.356542 
L 131.380655 125.343432 
L 131.521015 126.940631 
L 131.801737 140.156654 
L 132.082458 125.127393 
L 132.222819 129.403187 
L 132.503541 149.014411 
L 132.784262 125.846099 
L 132.924623 129.525466 
L 133.205345 146.131437 
L 133.486066 125.531788 
L 133.626427 136.153271 
L 133.766788 166.022075 
L 133.907149 170.543248 
L 134.18787 124.926681 
L 134.328231 124.190831 
L 134.608953 122.03794 
L 134.749313 123.226182 
L 134.889674 122.672458 
L 135.030035 137.05857 
L 135.170396 171.810878 
L 135.310756 173.064096 
L 135.591478 121.721896 
L 135.872199 129.162873 
L 136.01256 129.105385 
L 136.293282 122.959351 
L 136.574004 174.53713 
L 136.714364 168.713338 
L 136.995085 125.089552 
L 137.275807 150.126506 
L 137.416168 146.34463 
L 137.696889 127.546463 
L 137.977611 137.01364 
L 138.117972 136.020515 
L 138.398693 129.691029 
L 138.679415 139.288094 
L 138.819776 138.185073 
L 138.960136 133.059894 
L 139.100497 131.998648 
L 139.381219 152.53265 
L 139.52158 149.6628 
L 139.802301 133.969117 
L 140.083023 173.383275 
L 140.223383 164.914731 
L 140.504105 135.03552 
L 140.784827 151.335634 
L 140.925187 147.322383 
L 141.205909 135.816287 
L 141.486631 139.321433 
L 141.626991 138.721049 
L 141.767352 136.918781 
L 141.907713 137.346956 
L 142.188435 151.275966 
L 142.328795 147.519268 
L 142.469156 139.321052 
L 142.609517 138.397697 
L 142.890239 158.463967 
L 143.030599 152.511658 
L 143.17096 140.820191 
L 143.311321 138.950158 
L 143.592042 153.907058 
L 143.732403 149.258297 
L 143.872764 140.647053 
L 144.013125 139.734886 
L 144.293846 154.360198 
L 144.714929 139.520813 
L 144.99565 141.423385 
L 145.136011 141.013131 
L 145.276372 140.170889 
L 145.416733 140.325603 
L 145.697454 143.736299 
L 145.837815 142.750523 
L 145.978176 140.818242 
L 146.118537 141.414932 
L 146.399258 155.178801 
L 146.539619 150.657363 
L 146.67998 142.285633 
L 146.820341 143.204974 
L 147.101063 176.904156 
L 147.522144 142.98583 
L 147.802866 155.654853 
L 148.223948 142.569179 
L 148.50467 140.082864 
L 148.785392 143.373287 
L 148.925752 143.108393 
L 149.206474 136.680763 
L 149.627556 147.292163 
L 149.908278 174.800544 
L 150.32936 144.634198 
L 150.610082 138.959706 
L 151.311886 152.387827 
L 151.732968 146.949874 
L 152.01369 151.206658 
L 152.294411 147.494798 
L 152.434772 147.725941 
L 152.715494 153.0246 
L 153.136576 146.72423 
L 153.417298 132.885972 
L 153.83838 149.253163 
L 154.119102 155.628479 
L 154.399823 148.927278 
L 154.540184 150.808126 
L 154.820906 174.500639 
L 155.241988 148.704443 
L 155.52271 144.713925 
L 156.084153 151.621148 
L 156.224513 153.009691 
L 156.645596 149.822121 
L 157.066678 150.079743 
L 157.3474 150.20693 
L 157.628121 150.968469 
L 158.049204 150.48611 
L 158.329925 150.775097 
L 158.751008 150.8019 
L 159.17209 151.025875 
L 159.452812 151.096716 
L 159.733533 150.967895 
L 160.154616 151.412253 
L 160.716059 150.757952 
L 161.558223 147.010042 
L 161.838945 142.470383 
L 162.260028 146.936041 
L 162.54075 172.243986 
L 162.961831 141.923793 
L 163.242553 149.069152 
L 163.944357 128.823242 
L 164.365439 137.01346 
L 164.646161 156.587468 
L 165.067243 133.176767 
L 165.347965 156.060494 
L 165.769047 128.52099 
L 166.04977 163.74153 
L 166.33049 124.772617 
L 166.470852 125.221515 
L 166.751573 159.286931 
L 167.032295 117.798455 
L 167.172656 119.647098 
L 167.453377 136.675101 
L 167.734098 108.252015 
L 167.874461 112.431356 
L 168.01482 137.322997 
L 168.155181 141.746942 
L 168.435902 99.587822 
L 168.576266 107.451171 
L 168.716624 127.55391 
L 168.856986 121.685441 
L 169.137707 96.364394 
L 169.41843 140.758208 
L 169.55879 133.113373 
L 169.839511 104.492703 
L 170.120234 139.984531 
L 170.541316 109.094444 
L 170.822039 147.379883 
L 171.24312 110.032657 
L 171.523843 138.618829 
L 171.804564 110.488761 
L 171.944926 116.212579 
L 172.225648 149.324157 
L 172.506369 114.032237 
L 172.64673 117.996077 
L 172.927452 149.468618 
L 173.208173 113.280675 
L 173.348535 114.424203 
L 173.629256 137.213885 
L 173.909977 113.589945 
L 174.050339 119.637179 
L 174.190699 139.546354 
L 174.33106 142.280098 
L 174.611781 121.340427 
L 174.752143 129.257755 
L 174.892503 143.459573 
L 175.032864 141.880191 
L 175.313585 122.80801 
L 175.453947 129.79481 
L 175.594307 149.539498 
L 175.734668 145.945572 
L 176.015389 126.352226 
L 176.296111 148.289261 
L 176.436472 142.994703 
L 176.717193 126.659555 
L 176.997916 158.476695 
L 177.138276 149.228409 
L 177.418997 125.886364 
L 177.559359 135.17107 
L 177.69972 152.17275 
L 177.980441 130.430598 
L 178.120802 131.923838 
L 178.401523 130.522977 
L 178.541884 131.364167 
L 178.682245 132.907105 
L 178.822605 127.28884 
L 178.962967 132.936107 
L 179.103328 148.292993 
L 179.384049 130.165063 
L 179.52441 130.314659 
L 179.805132 154.887785 
L 180.085853 131.780889 
L 180.226214 135.465961 
L 180.506936 150.845477 
L 180.787657 136.031229 
L 180.928018 136.507244 
L 181.208739 135.48827 
L 181.629822 139.30577 
L 181.910544 164.183645 
L 182.191265 139.250864 
L 182.331626 141.756842 
L 182.612348 164.441135 
L 182.893069 141.402437 
L 183.03343 140.747725 
L 183.314152 123.26917 
L 183.594873 142.669335 
L 183.735234 140.240111 
L 184.015956 161.797036 
L 184.296677 141.497681 
L 184.437038 146.933075 
L 184.717759 168.243236 
L 184.998481 144.733235 
L 185.138842 144.56232 
L 185.419564 126.042206 
L 185.700285 145.824576 
L 185.840646 145.12506 
L 186.121367 166.381073 
L 186.402089 143.864855 
L 186.54245 148.080293 
L 186.823171 160.252387 
L 187.103893 146.569958 
L 187.244254 147.421018 
L 187.384614 146.075574 
L 187.524975 146.337808 
L 187.805697 149.596893 
L 187.946058 150.301257 
L 188.226779 152.757758 
L 188.36714 152.007535 
L 188.507501 152.029651 
L 188.647861 152.225247 
L 188.788222 151.268972 
L 188.928583 151.502425 
L 189.209305 154.65762 
L 189.349665 154.470603 
L 189.490026 152.771649 
L 189.630387 152.836664 
L 189.911109 157.216697 
L 190.051469 156.602372 
L 190.19183 153.467556 
L 190.332191 153.22745 
L 190.612913 159.795274 
L 190.753273 158.823766 
L 190.893634 154.612952 
L 191.033995 154.079507 
L 191.314716 162.399675 
L 191.455077 160.869212 
L 191.595438 154.393747 
L 191.735799 153.16369 
L 192.01652 165.272867 
L 192.156881 162.367072 
L 192.437603 146.59929 
L 192.718324 169.008749 
L 192.858685 165.97446 
L 192.999046 150.629602 
L 193.139407 147.752713 
L 193.420128 174.756251 
L 193.56049 173.895227 
L 193.70085 163.86317 
L 193.841211 165.417167 
L 193.981572 178.066701 
L 194.121932 179.528766 
L 194.402654 154.540746 
L 194.543015 158.657812 
L 194.823736 186.85988 
L 194.964099 187.884489 
L 195.104457 180.60856 
L 195.525541 197.136935 
L 195.665906 194.329426 
L 195.806263 185.259377 
L 196.086985 214.798545 
L 196.227346 219.63233 
L 196.367709 211.875317 
L 196.508069 197.402716 
L 196.78879 221.131419 
L 196.929152 217.275601 
L 197.209876 189.161607 
L 197.490596 208.062977 
L 197.630958 199.395262 
L 197.771318 176.944884 
L 197.91168 174.959349 
L 198.192401 208.799818 
L 198.332764 199.536114 
L 198.473123 178.517011 
L 198.613484 181.092042 
L 198.894206 203.519789 
L 199.174929 179.960086 
L 199.455651 192.926901 
L 199.596012 186.904332 
L 199.876733 164.446888 
L 200.157455 184.411151 
L 200.297816 180.777486 
L 200.578537 145.82771 
L 200.859259 178.572294 
L 200.99962 173.601711 
L 201.280341 141.406322 
L 201.561063 174.781281 
L 201.701424 167.532041 
L 201.982145 141.055171 
L 202.262867 170.001432 
L 202.403228 163.915197 
L 202.683949 143.610719 
L 202.964671 165.948624 
L 203.385753 159.988105 
L 203.666475 162.278604 
L 204.789361 156.610266 
L 205.070083 157.673645 
L 205.210443 156.286265 
L 205.491165 149.409961 
L 205.771886 157.716281 
L 205.912247 157.209872 
L 206.192969 155.252612 
L 206.47369 157.614055 
L 206.614051 156.447858 
L 206.894773 150.75198 
L 207.175494 157.629339 
L 207.315855 155.560232 
L 207.596577 145.15644 
L 207.877298 157.650423 
L 208.017659 156.794155 
L 208.298381 152.769208 
L 208.579102 157.602462 
L 208.719463 156.674723 
L 209.000185 151.89513 
L 209.280906 157.619806 
L 209.421267 156.845442 
L 209.701989 153.013262 
L 209.98271 157.622589 
L 210.123071 154.972829 
L 210.403793 140.647393 
L 210.684514 157.720378 
L 210.824875 159.237237 
L 211.105597 167.85766 
L 211.386318 157.610569 
L 211.526679 154.606661 
L 211.8074 138.402309 
L 212.088122 157.949924 
L 212.228483 158.040853 
L 212.509204 159.090055 
L 212.789926 157.996118 
L 212.930287 159.045709 
L 213.211008 163.946194 
L 213.632091 154.826024 
L 213.912812 136.359856 
L 214.193534 158.500909 
L 214.333895 155.252906 
L 214.614616 141.286659 
L 214.895338 158.82917 
L 215.31642 157.189211 
L 215.597142 158.586845 
L 215.737503 154.189999 
L 216.018224 138.719283 
L 216.298946 159.071932 
L 216.579667 158.229065 
L 216.720028 158.132837 
L 217.00075 158.850171 
L 217.14111 158.49874 
L 217.421832 157.279512 
L 217.702554 158.952973 
L 217.842914 153.966405 
L 218.123636 137.196515 
L 218.404358 159.402421 
L 218.544718 162.621852 
L 218.82544 175.233381 
L 219.106162 159.127261 
L 219.246522 153.343329 
L 219.527244 133.086719 
L 219.807965 160.04403 
L 219.948326 157.377976 
L 220.229048 148.649469 
L 220.930852 178.422874 
L 221.211573 162.153112 
L 221.351934 157.968995 
L 221.492295 144.936782 
L 221.632656 142.764584 
L 221.913377 167.517057 
L 222.053738 162.963692 
L 222.194099 149.827228 
L 222.33446 147.256582 
L 222.615181 172.56563 
L 222.755542 170.695551 
L 222.895903 164.058709 
L 223.036264 163.061662 
L 223.316985 177.661911 
L 223.457346 170.581952 
L 223.738068 143.592958 
L 224.018789 183.880912 
L 224.15915 173.475342 
L 224.299511 144.196744 
L 224.439872 139.502951 
L 224.720593 192.602285 
L 224.860954 188.443516 
L 225.001315 178.7256 
L 225.141675 178.503007 
L 225.422397 201.27818 
L 225.562758 188.416758 
L 225.703118 153.958333 
L 225.843479 149.029416 
L 226.124201 210.900133 
L 226.404923 154.16805 
L 226.545284 159.29601 
L 226.826005 213.247619 
L 227.106727 166.538672 
L 227.247088 173.638593 
L 227.387448 198.840441 
L 227.527809 200.221529 
L 227.808531 142.377584 
L 227.948892 157.419714 
L 228.089253 186.444774 
L 228.229614 185.906148 
L 228.510335 136.388118 
L 228.931418 177.8642 
L 229.212139 157.259966 
L 229.633222 170.332383 
L 229.913943 164.281871 
L 230.335026 161.275563 
L 230.615747 153.210734 
L 230.756108 153.252122 
L 230.896469 154.387618 
L 231.03683 152.016914 
L 231.317551 136.867793 
L 231.738634 146.153413 
L 232.019355 164.71603 
L 232.300077 140.59585 
L 232.440438 140.987793 
L 232.721159 169.426941 
L 233.001881 139.369861 
L 233.142241 137.841777 
L 233.422963 140.422955 
L 233.844045 137.875571 
L 234.124767 129.901554 
L 234.545849 142.044974 
L 234.826571 158.978295 
L 235.107292 142.209569 
L 235.247653 142.391947 
L 235.528375 156.210888 
L 235.809096 142.709826 
L 235.949457 143.524043 
L 236.230179 155.832317 
L 236.5109 143.323021 
L 236.651261 145.042013 
L 236.931983 158.007448 
L 237.212704 144.055252 
L 237.353065 146.288332 
L 237.633787 157.907737 
L 237.914508 144.835003 
L 238.054869 146.150374 
L 238.335591 152.55514 
L 238.616312 145.598646 
L 238.756673 145.923348 
L 239.037395 148.02095 
L 239.318116 146.216012 
L 239.458477 147.062 
L 239.739199 150.708965 
L 240.01992 146.955277 
L 240.160281 149.266506 
L 240.441003 160.011616 
L 241.142806 132.208495 
L 241.423528 147.034796 
L 241.563889 149.639484 
L 241.84461 157.559566 
L 242.125332 146.841094 
L 242.265693 146.40424 
L 242.406054 147.464456 
L 242.546414 147.616054 
L 242.967497 142.846125 
L 243.248218 134.70443 
L 243.950022 162.200977 
L 244.230744 142.348364 
L 244.371105 144.071838 
L 244.651826 156.886002 
L 244.932548 140.668298 
L 245.072909 140.388904 
L 245.35363 143.687081 
L 245.634352 137.801939 
L 245.774713 144.425969 
L 246.055434 174.444781 
L 246.336156 137.697636 
L 246.757238 122.049335 
L 247.17832 141.621094 
L 247.459042 177.621438 
L 247.739763 131.916619 
L 247.880124 130.746487 
L 248.020485 132.622599 
L 248.160846 132.214539 
L 248.441567 126.876577 
L 248.581928 132.134895 
L 248.722289 148.661463 
L 248.86265 151.522018 
L 249.143371 123.0247 
L 249.283732 132.331955 
L 249.424093 159.420885 
L 249.564453 161.097558 
L 249.845175 120.562304 
L 249.985536 127.532681 
L 250.125896 142.532004 
L 250.266257 141.228324 
L 250.546979 118.386712 
L 250.68734 130.428287 
L 250.827701 153.61029 
L 250.968061 149.774852 
L 251.248783 117.206412 
L 251.529505 167.40932 
L 251.669865 156.450013 
L 251.950587 119.462421 
L 252.231308 122.393664 
L 252.371669 122.934813 
L 252.51203 122.767107 
L 252.652391 123.749809 
L 252.933113 163.457154 
L 253.073473 154.729442 
L 253.354195 126.862062 
L 253.634916 156.006602 
L 253.775277 147.955764 
L 253.915638 131.964929 
L 254.055999 128.889762 
L 254.33672 140.799436 
L 254.477081 137.736209 
L 254.617442 131.458128 
L 254.757803 131.745997 
L 255.038524 162.866884 
L 255.459607 133.576185 
L 255.740328 149.164875 
L 256.02105 135.821187 
L 256.161411 136.021767 
L 256.442132 151.176 
L 256.722854 137.225421 
L 256.863215 140.846783 
L 257.143936 177.917854 
L 257.424658 140.644852 
L 257.565018 137.376841 
L 257.84574 125.721252 
L 258.547544 163.89596 
L 258.828266 142.894401 
L 259.249348 137.73498 
L 259.67043 144.927779 
L 259.951152 161.533972 
L 260.231873 145.033909 
L 260.652956 140.23874 
L 261.074038 148.207995 
L 261.35476 171.576322 
L 261.635481 147.499094 
L 261.775842 146.494116 
L 262.056564 149.046988 
L 262.337285 147.360817 
L 262.477646 147.330915 
L 262.758368 147.106987 
L 263.17945 149.077659 
L 263.460172 154.269483 
L 263.740893 149.653325 
L 264.161976 148.953979 
L 264.442697 150.384312 
L 264.583058 150.176312 
L 264.86378 147.331261 
L 265.144501 150.916645 
L 265.425223 151.261105 
L 265.565583 151.342224 
L 265.705944 151.197331 
L 265.846305 151.304153 
L 265.986666 150.360446 
L 266.267387 144.850195 
L 266.548109 151.063055 
L 266.68847 150.311479 
L 266.969191 144.632322 
L 267.390274 153.469077 
L 267.670995 168.911862 
L 267.951717 152.267638 
L 268.092078 150.066606 
L 268.372799 142.398439 
L 268.653521 150.584492 
L 268.793882 152.703931 
L 269.074603 162.751207 
L 269.355325 151.917995 
L 269.495686 150.476682 
L 269.776407 145.206314 
L 270.057129 150.939505 
L 270.19749 151.730176 
L 270.478211 154.668536 
L 270.899293 149.972494 
L 271.180015 140.915213 
L 271.460737 150.962032 
L 271.601097 151.124911 
L 271.881819 149.456166 
L 272.302901 152.936429 
L 272.583623 164.948629 
L 272.864345 152.039343 
L 273.004705 150.377771 
L 273.285427 144.126658 
L 273.566148 150.790073 
L 273.706509 152.897557 
L 273.987231 163.303755 
L 274.267952 151.889678 
L 274.408313 150.656938 
L 274.689035 146.284716 
L 274.969756 151.562787 
L 275.110117 149.694921 
L 275.390839 138.20915 
L 275.67156 150.760631 
L 275.811921 152.179359 
L 276.092643 158.12965 
L 276.373364 151.42159 
L 276.513725 152.633326 
L 276.794447 161.220179 
L 277.075168 151.828893 
L 277.215529 150.745328 
L 277.496251 146.657709 
L 277.776972 151.262153 
L 277.917333 151.758609 
L 278.198055 153.61649 
L 278.478776 151.614343 
L 278.619137 151.012733 
L 278.899858 148.172265 
L 279.18058 151.255083 
L 279.320941 152.170324 
L 279.601662 156.506355 
L 279.882384 151.644009 
L 280.022745 151.319921 
L 280.303466 150.303722 
L 280.584188 151.589943 
L 280.724549 150.953632 
L 281.00527 147.594088 
L 281.285992 151.208224 
L 281.426353 152.635776 
L 281.707074 159.410109 
L 281.987796 151.61334 
L 282.128157 151.834105 
L 282.408878 153.392111 
L 282.549239 152.137063 
L 282.6896 152.051653 
L 282.829961 148.937484 
L 283.110682 134.306847 
L 283.391404 150.901606 
L 283.531765 152.757001 
L 283.812486 161.303671 
L 284.093208 151.554257 
L 284.233569 152.51379 
L 284.51429 157.831674 
L 284.795012 152.000736 
L 284.935372 151.627328 
L 285.075733 150.262862 
L 285.216094 150.027718 
L 285.496816 152.719095 
L 285.637176 150.846125 
L 285.917898 141.710469 
L 286.19862 152.658448 
L 286.33898 153.91342 
L 286.619702 159.222066 
L 286.900424 154.19258 
L 287.040784 153.560393 
L 287.181145 150.484934 
L 287.321506 149.880739 
L 287.602227 155.950088 
L 288.02331 159.034383 
L 288.304031 161.610933 
L 288.444392 161.067243 
L 288.584753 156.167256 
L 288.725114 155.787931 
L 289.005835 167.615284 
L 289.146196 166.002032 
L 289.426918 154.383988 
L 289.707639 174.230165 
L 289.848001 172.267354 
L 290.128722 145.379628 
L 290.409443 182.405635 
L 290.549805 184.187208 
L 290.830526 160.09524 
L 291.111247 193.259373 
L 291.25161 189.051442 
L 291.391969 168.171802 
L 291.53233 167.613672 
L 291.813051 203.719253 
L 292.093772 193.180344 
L 292.514856 232.333589 
L 292.795578 216.661319 
L 293.076303 237.998348 
L 293.216665 235.631798 
L 293.357032 238.855791 
L 293.918471 207.260569 
L 294.199192 178.653234 
L 294.479913 195.241091 
L 294.620275 189.972272 
L 294.760634 178.014446 
L 294.900996 179.828411 
L 295.041357 183.309075 
L 295.181718 182.46734 
L 295.32208 180.135585 
L 295.462439 169.553742 
L 295.743161 177.433963 
L 296.023883 167.504409 
L 296.164244 164.52584 
L 296.304605 164.91678 
L 296.444965 167.479629 
L 296.585326 167.530212 
L 297.006408 165.024693 
L 297.28713 164.94184 
L 297.567852 160.058799 
L 297.708212 161.533016 
L 297.988934 165.449568 
L 298.269656 152.685998 
L 298.410016 156.181979 
L 298.690738 166.322036 
L 298.97146 149.357379 
L 299.11182 153.341091 
L 299.392542 167.914757 
L 299.532903 158.331555 
L 299.673264 141.059225 
L 299.813624 147.948455 
L 300.094346 170.339428 
L 300.375068 145.137723 
L 300.79615 170.781911 
L 301.076871 166.479696 
L 301.357593 171.037212 
L 301.497954 175.324984 
L 301.778676 157.318391 
L 302.059398 178.305262 
L 302.199758 180.146825 
L 302.340121 179.419968 
L 302.48048 174.42352 
L 302.620841 182.231069 
L 302.901563 165.694022 
L 303.182285 178.142001 
L 303.463006 159.350092 
L 303.603367 156.375847 
L 303.884088 139.602945 
L 304.16481 151.020883 
L 304.305171 148.48009 
L 304.585892 137.791985 
L 304.866614 142.706046 
L 305.006975 142.742084 
L 305.287697 164.733014 
L 305.568418 133.801922 
L 305.708779 134.297985 
L 305.9895 157.157779 
L 306.270222 124.187573 
L 306.410583 122.836191 
L 306.691304 141.137882 
L 306.972026 110.895783 
L 307.112387 119.784329 
L 307.252748 139.153107 
L 307.393109 142.328799 
L 307.67383 100.398426 
L 307.814192 105.319001 
L 308.094914 125.824978 
L 308.375635 100.69881 
L 308.656357 139.767502 
L 308.796718 134.576762 
L 309.077439 102.512189 
L 309.358161 140.633054 
L 309.498522 129.92564 
L 309.638883 109.098039 
L 309.779244 107.083205 
L 310.059966 141.631907 
L 310.340688 108.038814 
L 310.481049 110.890812 
L 310.761771 133.221726 
L 311.042492 107.808324 
L 311.182853 108.53311 
L 311.463575 142.987822 
L 311.744297 104.500187 
L 311.884658 112.190086 
L 312.165379 146.63549 
L 312.446101 99.618012 
L 312.586462 109.856743 
L 312.726823 135.658396 
L 312.867184 140.693842 
L 313.147906 99.830989 
L 313.428627 142.584986 
L 313.568988 141.455171 
L 313.84971 102.552797 
L 314.130431 148.685663 
L 314.270793 138.87939 
L 314.551514 102.479834 
L 314.832236 148.731181 
L 314.972597 135.128353 
L 315.112957 108.896107 
L 315.253318 110.633312 
L 315.53404 156.945856 
L 315.814763 112.770547 
L 316.095484 118.031804 
L 316.235845 118.743396 
L 316.516567 121.434537 
L 316.656927 125.984171 
L 316.937649 160.74047 
L 317.218371 128.337508 
L 317.358731 132.197126 
L 317.639452 170.617601 
L 317.920175 131.801105 
L 318.060535 135.113508 
L 318.341257 149.126831 
L 318.621979 135.683978 
L 318.762339 139.806924 
L 319.043061 156.388252 
L 319.323783 139.479197 
L 319.464143 141.834586 
L 319.744865 150.059764 
L 320.025587 143.184944 
L 320.165947 145.486088 
L 320.446669 153.713419 
L 320.72739 146.853273 
L 320.867751 149.864264 
L 321.148473 161.176094 
L 321.429194 150.728729 
L 321.569555 147.906052 
L 321.850277 132.11612 
L 322.130998 151.437518 
L 322.271359 151.796812 
L 322.41172 153.456412 
L 322.552081 153.648913 
L 322.832802 148.729653 
L 322.973163 148.412211 
L 323.113524 148.657177 
L 323.253885 148.045006 
L 323.534606 144.066347 
L 323.674967 145.020728 
L 323.815328 150.201637 
L 323.955689 150.951189 
L 324.23641 137.564092 
L 324.376771 137.300511 
L 324.517132 139.454555 
L 324.657493 139.189602 
L 324.938214 130.916202 
L 325.078575 137.67651 
L 325.359296 167.745589 
L 325.640018 124.280522 
L 325.780379 127.481199 
L 326.0611 149.430023 
L 326.341822 116.088573 
L 326.482183 118.038781 
L 326.762904 134.956143 
L 327.043626 107.439144 
L 327.183986 114.853735 
L 327.464708 163.413124 
L 327.74543 96.464292 
L 327.88579 104.704864 
L 328.166512 154.748008 
L 328.447235 91.906411 
L 328.587595 112.296172 
L 328.727956 152.651719 
L 328.868316 151.300879 
L 329.149038 95.79428 
L 329.429759 133.627008 
L 329.57012 129.269812 
L 329.710481 108.347126 
L 329.850842 105.06068 
L 330.131563 155.787403 
L 330.271925 145.69977 
L 330.412285 117.797619 
L 330.552646 112.933203 
L 330.833368 140.619915 
L 330.973728 134.684875 
L 331.114089 120.847227 
L 331.25445 121.001321 
L 331.535172 164.728709 
L 331.815893 129.909497 
L 331.956254 134.652998 
L 332.236975 181.398373 
L 332.517697 142.962169 
L 332.658058 141.990014 
L 332.93878 132.806162 
L 333.359862 156.58255 
L 333.640584 152.417749 
L 334.061666 168.248819 
L 334.342387 145.024682 
L 334.623109 181.498439 
L 334.76347 178.490808 
L 335.044191 141.28143 
L 335.324914 197.814213 
L 335.465274 187.935472 
L 335.605635 156.448573 
L 335.745996 156.23357 
L 336.026718 213.051381 
L 336.167077 199.699268 
L 336.307439 171.492076 
L 336.4478 174.048679 
L 336.728522 220.383052 
L 337.009243 158.244256 
L 337.149605 169.999636 
L 337.289964 207.039886 
L 337.430326 210.051468 
L 337.711046 141.892075 
L 337.99177 191.048472 
L 338.132131 186.781929 
L 338.412853 160.218157 
L 338.553213 158.538993 
L 338.693574 158.270862 
L 339.255017 134.039289 
L 339.535739 118.383223 
L 339.81646 165.665649 
L 340.097184 97.501558 
L 340.237544 104.400506 
L 340.377905 140.775876 
L 340.518266 146.155977 
L 340.798989 89.365198 
L 340.939348 102.065529 
L 341.07971 130.493244 
L 341.220071 132.797943 
L 341.500793 98.661981 
L 341.641152 116.300382 
L 341.781514 155.467966 
L 341.921875 159.701697 
L 342.202596 111.454505 
L 342.342956 122.581049 
L 342.483318 150.056555 
L 342.623678 154.748802 
L 342.9044 121.318066 
L 343.044761 121.506276 
L 343.325482 124.833875 
L 343.465843 125.801859 
L 343.606204 125.606613 
L 343.746564 135.662414 
L 343.886925 159.449161 
L 344.027286 163.725912 
L 344.308008 129.287832 
L 344.448368 136.049181 
L 344.72909 164.205017 
L 345.009812 132.411717 
L 345.290533 130.209492 
L 345.430894 129.890618 
L 345.571255 130.833374 
L 345.711616 130.806934 
L 345.851976 135.381612 
L 346.132698 151.922359 
L 346.41342 131.085387 
L 346.55378 133.41289 
L 346.834502 147.511194 
L 347.115224 129.667143 
L 347.255584 135.414288 
L 347.536306 168.336118 
L 347.817028 129.275808 
L 347.957388 132.108753 
L 348.23811 157.978995 
L 348.518831 127.54894 
L 348.799553 124.456265 
L 348.939914 123.666447 
L 349.080275 124.094612 
L 349.220636 122.89814 
L 349.360996 127.841406 
L 349.641717 159.023326 
L 349.92244 119.850249 
L 350.0628 120.422135 
L 350.343521 158.755378 
L 350.624244 118.444037 
L 350.764604 125.232463 
L 350.904965 146.847822 
L 351.045326 149.521572 
L 351.326048 120.21616 
L 351.466408 129.211465 
L 351.606769 150.420789 
L 351.74713 150.403925 
L 352.027852 123.007165 
L 352.168212 135.340425 
L 352.308573 159.656797 
L 352.448934 155.763528 
L 352.729655 126.114591 
L 353.010377 128.553131 
L 353.150738 128.448717 
L 353.291098 128.134688 
L 353.43146 125.227868 
L 353.571819 136.401306 
L 353.71218 162.141457 
L 353.852542 158.513717 
L 354.133263 129.573848 
L 354.413983 167.626583 
L 354.554346 156.942969 
L 354.694706 136.916719 
L 355.115788 127.898404 
L 355.25615 130.065449 
L 355.536871 135.049171 
L 355.817591 172.365032 
L 355.957954 161.79523 
L 356.098314 141.688157 
L 356.238675 137.567935 
L 356.519397 142.762277 
L 356.659757 141.715279 
L 356.800118 139.505535 
L 356.940479 139.30825 
L 357.2212 150.62368 
L 357.361561 147.702059 
L 357.501922 142.063124 
L 357.642283 141.090649 
L 357.923004 155.58886 
L 358.063365 151.653432 
L 358.203726 144.220168 
L 358.344087 142.804459 
L 358.624808 155.456848 
L 358.765169 152.151263 
L 358.90553 145.729344 
L 359.045891 144.466855 
L 359.326612 152.081598 
L 359.466973 150.385408 
L 359.607334 146.766019 
L 359.747695 146.128295 
L 360.028416 149.077383 
L 360.168777 148.752035 
L 360.309138 147.775902 
L 360.449499 147.788872 
L 360.870581 149.031502 
L 361.010942 149.164279 
L 362.274189 151.575617 
L 362.835632 151.582639 
L 364.800683 151.596131 
L 365.923569 151.60288 
L 371.818723 151.593819 
L 373.503052 151.590721 
L 375.327742 151.5928 
L 377.573515 151.586715 
L 381.643978 151.591193 
L 386.837327 151.589933 
L 398.487273 151.585775 
L 398.487273 151.585775 
" style="fill:none;stroke:#1f77b4;stroke-linecap:square;stroke-width:1.5;"/>
   </g>
   <g id="line2d_14">
    <path clip-path="url(#p2a09492916)" d="M 73.832727 151.590029 
L 83.055213 151.654542 
L 83.631618 150.622055 
L 83.919821 151.640789 
L 84.208024 151.156704 
L 84.496226 151.604868 
L 102.07659 151.627685 
L 102.364792 151.343337 
L 102.652995 151.863721 
L 102.941198 151.164066 
L 103.373502 151.867817 
L 103.517603 152.006251 
L 103.805806 150.390118 
L 104.094008 153.240237 
L 104.670413 129.92391 
L 104.958608 145.289396 
L 105.24681 142.585863 
L 105.535012 155.050999 
L 105.823214 78.139971 
L 106.111341 105.735543 
L 106.399516 150.89414 
L 106.543618 151.785125 
L 106.687719 151.880457 
L 107.264124 149.915902 
L 107.552327 140.258142 
L 107.840528 97.679451 
L 108.128699 113.80398 
L 108.416885 99.083816 
L 108.705063 108.721022 
L 108.993249 106.072048 
L 109.281438 92.323558 
L 109.713715 146.544851 
L 109.857816 151.413695 
L 110.146019 151.757308 
L 110.434221 149.314036 
L 110.722424 151.014259 
L 111.010627 150.473023 
L 111.298829 149.371693 
L 111.587032 150.408209 
L 111.875235 152.949581 
L 112.45164 151.475677 
L 112.739843 152.241524 
L 113.028045 151.818228 
L 113.316248 152.615403 
L 113.604451 155.944217 
L 114.180854 174.123665 
L 114.469052 170.266796 
L 114.757252 206.210198 
L 115.045426 167.265132 
L 115.333627 187.393963 
L 115.621823 177.456152 
L 115.910017 156.456323 
L 116.19822 157.887242 
L 116.486422 159.34838 
L 116.774624 173.588685 
L 117.206924 155.884097 
L 117.495127 152.523746 
L 117.639228 151.720495 
L 117.927431 151.516614 
L 118.215633 151.952805 
L 118.503836 153.028793 
L 119.080242 151.105952 
L 119.368444 152.073151 
L 119.94485 151.614805 
L 120.233052 151.971476 
L 120.665356 151.778441 
L 121.674066 151.113535 
L 122.250471 150.882788 
L 122.538674 151.223211 
L 122.826876 152.03496 
L 123.403282 151.200029 
L 123.835586 151.831851 
L 123.979687 152.14515 
L 124.26789 148.593177 
L 124.556092 130.715439 
L 124.84429 140.838359 
L 125.276587 125.034074 
L 125.420688 122.149611 
L 125.70888 139.995594 
L 125.997081 115.991435 
L 126.285268 139.216967 
L 126.573469 129.455287 
L 127.149866 141.222867 
L 127.438068 136.495607 
L 127.726267 141.176726 
L 128.014469 127.938991 
L 128.302665 141.940745 
L 128.590867 135.014426 
L 129.167268 144.964099 
L 129.45547 142.900572 
L 129.743672 145.063719 
L 130.031874 115.61687 
L 130.320062 140.623573 
L 130.608263 119.250257 
L 130.896453 122.845208 
L 131.184646 145.925277 
L 131.328747 146.193524 
L 131.472848 146.092559 
L 131.76105 147.26848 
L 132.049253 131.457654 
L 132.48155 141.835998 
L 132.625652 142.767971 
L 132.913854 134.986014 
L 133.202053 144.005715 
L 133.490255 116.517735 
L 133.922542 142.18725 
L 134.210744 144.742957 
L 134.354845 145.321102 
L 134.643048 138.024241 
L 134.931247 115.531929 
L 135.219435 143.760058 
L 135.507637 132.741718 
L 135.795836 141.151536 
L 136.372235 127.705786 
L 136.660432 138.918774 
L 136.948633 107.523549 
L 137.525011 150.148976 
L 137.813213 147.68251 
L 138.101416 151.664549 
L 138.53372 151.578832 
L 138.677821 151.65888 
L 139.110125 148.53514 
L 139.254226 148.027935 
L 139.83063 136.523608 
L 140.11883 145.546378 
L 140.407032 101.744333 
L 140.8393 140.801374 
L 140.983402 146.152905 
L 141.271604 143.203563 
L 141.559806 149.789941 
L 141.848008 141.517757 
L 142.13621 149.561155 
L 142.568513 148.576654 
L 142.712615 148.605474 
L 143.000817 145.622881 
L 143.28902 132.737077 
L 143.577217 147.296532 
L 143.721318 147.007924 
L 143.86542 146.427127 
L 144.153622 146.828494 
L 144.441824 145.767375 
L 144.730026 136.690944 
L 145.018226 147.610877 
L 145.306428 145.900908 
L 145.59463 151.483567 
L 145.882833 151.485871 
L 146.459238 151.479582 
L 146.747441 145.298943 
L 147.035643 144.860955 
L 147.612039 113.73363 
L 147.900219 144.124347 
L 148.044319 143.70707 
L 148.188421 142.621772 
L 148.476622 151.653926 
L 148.764825 150.205651 
L 149.053028 151.514713 
L 149.34123 151.371948 
L 149.629433 150.666984 
L 149.917636 155.406528 
L 150.349938 137.059287 
L 150.494039 135.092163 
L 150.782236 150.899992 
L 150.926338 151.0454 
L 151.070439 150.745041 
L 151.358642 152.612455 
L 151.790946 151.69583 
L 151.935047 151.301625 
L 152.367351 151.603983 
L 152.799655 151.615047 
L 153.087858 151.870116 
L 153.520162 150.850154 
L 153.664263 150.806282 
L 153.952466 151.581599 
L 154.240668 151.314936 
L 154.528871 151.554434 
L 154.817074 151.423436 
L 155.105276 151.885299 
L 155.393479 149.807485 
L 155.681682 149.567332 
L 156.113986 151.560275 
L 156.258087 151.867354 
L 156.690391 151.663129 
L 156.978594 151.533302 
L 157.410898 151.580292 
L 158.70781 151.590572 
L 162.02214 151.683417 
L 162.310343 151.832935 
L 162.598546 151.342491 
L 162.886748 149.716202 
L 163.174951 137.762084 
L 163.607251 150.893375 
L 163.751352 151.864321 
L 164.039555 151.790635 
L 164.327758 152.747027 
L 164.61596 150.759753 
L 164.904163 146.912812 
L 165.336467 152.252984 
L 165.480568 153.385003 
L 165.768771 145.325396 
L 166.056973 146.535429 
L 166.345175 137.011432 
L 166.633373 119.611958 
L 166.921552 136.473112 
L 167.20975 132.287745 
L 167.497945 138.902651 
L 168.074332 117.79575 
L 168.362509 131.202894 
L 168.650704 67.308492 
L 168.938748 135.369754 
L 169.226946 58.631839 
L 169.65905 121.467511 
L 169.803151 126.179624 
L 170.091343 123.069397 
L 170.379529 137.159154 
L 170.667729 107.790386 
L 170.955896 140.009025 
L 171.244096 101.486248 
L 171.532254 132.028068 
L 171.82045 123.709427 
L 172.10864 133.957321 
L 172.685028 113.604325 
L 172.973205 139.418298 
L 173.261405 101.723612 
L 173.549566 142.066957 
L 173.837767 115.593704 
L 174.125948 131.196791 
L 174.270042 131.18335 
L 174.414144 130.806104 
L 174.702339 110.181149 
L 174.990513 146.99926 
L 175.278716 122.639944 
L 175.566904 144.134726 
L 175.855106 132.860926 
L 176.143303 135.145943 
L 176.431501 144.837177 
L 176.719703 133.178318 
L 177.0079 146.38958 
L 177.296102 128.984609 
L 177.584296 141.172347 
L 178.160696 130.319274 
L 178.44889 143.499635 
L 178.737092 119.268919 
L 179.025276 145.951228 
L 179.313479 119.212947 
L 179.601664 135.981914 
L 179.889863 129.014938 
L 180.178057 110.976406 
L 180.466233 142.427899 
L 180.754435 133.492135 
L 181.330834 151.998369 
L 181.474936 151.811399 
L 181.619037 151.435164 
L 181.90724 152.23577 
L 182.339544 151.510188 
L 182.483645 151.377291 
L 182.771848 151.761536 
L 183.204152 151.317045 
L 183.636456 151.345161 
L 183.924658 149.614607 
L 184.356962 151.482354 
L 184.501064 151.684415 
L 184.789266 150.477483 
L 185.365672 153.047808 
L 185.942077 149.898892 
L 186.230279 149.919112 
L 186.518482 151.965074 
L 186.806685 151.878302 
L 187.094887 151.448355 
L 187.38309 151.79159 
L 187.815394 151.437694 
L 188.103597 151.477264 
L 188.535901 151.636311 
L 189.256408 151.681201 
L 189.54461 151.771705 
L 189.976914 151.767919 
L 190.265117 152.060685 
L 190.55332 151.534611 
L 190.841522 152.024875 
L 191.417928 151.705416 
L 191.70613 152.187686 
L 191.994333 151.260077 
L 192.282536 151.902903 
L 192.570738 151.408435 
L 192.858941 151.549718 
L 193.147144 151.935012 
L 193.723549 151.241469 
L 194.011752 150.857271 
L 194.299954 152.421213 
L 194.588157 149.004667 
L 194.87636 183.615569 
L 195.164539 156.280905 
L 195.452742 232.242732 
L 195.740786 190.932355 
L 196.317103 216.363908 
L 196.605231 195.141095 
L 196.893403 253.182989 
L 197.181504 187.626699 
L 197.469694 232.930796 
L 197.75785 190.187868 
L 198.046043 258.629176 
L 198.334143 174.045632 
L 198.622342 242.648655 
L 198.910492 178.280214 
L 199.198691 234.920493 
L 199.486863 211.868091 
L 199.775055 152.735527 
L 200.063257 169.253682 
L 200.351459 150.96056 
L 200.639661 157.070495 
L 200.927864 150.530626 
L 201.216066 181.249937 
L 201.504269 174.823901 
L 201.792468 153.657722 
L 202.080671 164.303344 
L 202.368873 153.805941 
L 202.657075 152.170215 
L 202.945278 155.733753 
L 203.377582 151.766742 
L 203.521683 151.409634 
L 203.809886 151.621476 
L 204.24219 151.485256 
L 204.674494 151.635761 
L 205.250899 152.949709 
L 205.539102 154.454516 
L 205.827304 151.138655 
L 206.115507 151.733805 
L 206.40371 151.612915 
L 206.691912 152.351975 
L 206.980115 151.838795 
L 207.268318 153.63026 
L 207.55652 157.519039 
L 207.988824 152.41226 
L 208.132926 151.613224 
L 208.709331 151.914657 
L 208.997534 152.346072 
L 209.285736 151.587365 
L 209.573939 152.611446 
L 209.862142 151.797592 
L 210.150344 156.435593 
L 210.438547 157.224085 
L 210.726749 149.191875 
L 211.303155 153.024323 
L 211.87956 158.703492 
L 212.167762 154.185649 
L 212.455965 158.351096 
L 212.744167 158.194323 
L 213.032369 153.307455 
L 213.320572 158.089118 
L 213.608774 153.235678 
L 213.896977 167.835672 
L 214.473379 158.11451 
L 214.761582 168.354588 
L 215.049782 155.15538 
L 215.337985 169.438072 
L 215.914386 160.13219 
L 216.202588 170.862204 
L 216.490788 156.109497 
L 216.77899 164.690311 
L 217.211292 158.338523 
L 217.355394 155.657549 
L 217.643596 158.363512 
L 217.931798 149.057178 
L 218.220001 150.045742 
L 218.652305 156.128049 
L 218.796406 156.752163 
L 219.22871 149.420398 
L 219.372811 148.28526 
L 219.949216 153.912477 
L 220.237419 152.198242 
L 220.525622 152.171463 
L 220.813824 155.322473 
L 221.246128 151.948667 
L 221.390229 151.283936 
L 221.822533 151.577328 
L 221.966635 151.541236 
L 222.254837 151.954423 
L 222.54304 151.030399 
L 222.831243 151.705766 
L 223.119445 162.881402 
L 223.407647 155.680001 
L 223.695849 155.180591 
L 223.984052 148.499634 
L 224.272254 158.727621 
L 224.848659 154.582487 
L 225.136862 207.023098 
L 225.425024 167.521751 
L 225.713225 227.392357 
L 226.001372 192.690397 
L 226.289557 201.641038 
L 226.577735 245.738503 
L 226.86586 170.40366 
L 227.15406 228.199992 
L 227.442227 172.49216 
L 227.730427 178.40789 
L 228.018626 148.791802 
L 228.306829 152.083911 
L 228.595032 151.345327 
L 228.883234 151.952466 
L 229.315538 151.689568 
L 229.45964 151.565464 
L 229.891944 152.487968 
L 230.036045 152.664463 
L 230.324248 152.591071 
L 231.332957 151.220259 
L 231.477058 151.189106 
L 231.765261 151.907844 
L 232.053464 151.367663 
L 232.341666 151.502657 
L 232.629869 152.523393 
L 232.918072 149.730472 
L 233.206274 151.354741 
L 233.494477 143.283616 
L 233.782679 142.52414 
L 234.070881 151.709116 
L 234.359083 151.301066 
L 234.647286 152.349835 
L 234.935489 150.963694 
L 235.223692 152.514288 
L 235.511894 132.374004 
L 235.944194 142.932914 
L 236.088295 144.094638 
L 236.376497 142.140678 
L 236.664699 148.899629 
L 237.097003 149.779044 
L 237.241104 149.966116 
L 237.529307 149.873147 
L 237.81751 150.12161 
L 238.105712 151.506097 
L 238.393915 151.686069 
L 238.682118 150.933382 
L 238.97032 151.546663 
L 239.258523 151.483054 
L 239.546726 152.038479 
L 239.834928 149.377981 
L 240.411334 152.063466 
L 240.987739 149.403741 
L 241.420043 151.584548 
L 241.564144 151.727283 
L 242.284651 151.521219 
L 242.428752 151.557116 
L 242.716955 151.171105 
L 243.005158 152.071406 
L 243.29336 151.616472 
L 243.581563 149.89019 
L 244.013867 145.923475 
L 244.157968 145.188332 
L 244.44617 150.143147 
L 244.734373 149.107633 
L 245.022575 151.43299 
L 245.310778 151.534979 
L 245.598981 149.96607 
L 245.887183 143.619001 
L 246.175386 142.421332 
L 246.463587 151.142754 
L 246.751789 149.801942 
L 247.039992 145.496092 
L 247.328195 124.133073 
L 247.616392 133.751935 
L 247.904589 151.575535 
L 248.04869 151.805869 
L 248.192791 151.573781 
L 248.480994 150.297648 
L 248.769197 131.095084 
L 249.057394 134.582131 
L 249.345592 131.391509 
L 249.633789 86.940366 
L 249.92193 144.442502 
L 250.210132 129.95921 
L 250.498328 144.16513 
L 250.930627 127.164999 
L 251.074729 119.523792 
L 251.362916 145.861544 
L 251.651118 106.020153 
L 251.93929 140.376398 
L 252.371581 122.757371 
L 252.515683 122.094003 
L 252.803875 154.92341 
L 253.236178 150.034723 
L 253.38028 149.894442 
L 253.668482 144.861496 
L 253.956684 149.820767 
L 254.388978 121.327102 
L 254.533079 118.142189 
L 254.821267 145.430253 
L 255.109469 135.072786 
L 255.397668 144.73345 
L 255.68587 139.436004 
L 255.97407 142.499599 
L 256.262272 137.55625 
L 256.550472 123.641577 
L 256.838663 141.001704 
L 257.126864 129.390036 
L 257.415062 134.067715 
L 257.703259 149.342044 
L 258.135562 152.488314 
L 258.279664 154.179657 
L 258.567866 152.66972 
L 258.856069 149.353353 
L 259.144272 150.336325 
L 259.576576 152.095327 
L 259.720677 152.332493 
L 260.00888 151.818321 
L 260.297082 150.706955 
L 260.873488 151.636384 
L 261.16169 151.163897 
L 261.449893 151.601632 
L 261.738096 150.961552 
L 262.1704 151.552111 
L 262.602704 151.58185 
L 265.052426 151.539662 
L 265.340629 151.46263 
L 265.772933 151.58378 
L 266.061136 151.81397 
L 266.349338 151.727624 
L 266.637541 151.343325 
L 266.925744 151.794972 
L 267.213947 151.430611 
L 267.502149 150.241644 
L 268.078555 152.099326 
L 268.366757 152.108182 
L 268.943163 150.841297 
L 269.519568 151.822761 
L 269.807771 151.841029 
L 270.384176 151.335217 
L 271.248784 151.844575 
L 271.825189 151.2788 
L 272.113392 151.583905 
L 272.833899 151.482695 
L 273.122101 151.726991 
L 273.266203 151.790926 
L 273.986709 151.490552 
L 274.274912 151.553576 
L 274.563115 151.634231 
L 275.427723 151.568076 
L 276.148229 151.652899 
L 277.156939 151.670772 
L 277.877445 151.537946 
L 278.453851 151.67588 
L 279.318459 151.536333 
L 279.894864 151.800869 
L 280.47127 151.427326 
L 281.047675 151.600761 
L 281.479979 151.509988 
L 281.62408 151.560237 
L 281.912283 152.04866 
L 282.344587 151.606577 
L 282.488688 151.391616 
L 283.065094 151.606603 
L 283.353296 151.088336 
L 283.641499 151.148758 
L 284.217904 153.058625 
L 284.650208 151.488767 
L 284.79431 151.276725 
L 285.082512 151.762261 
L 285.514816 151.344884 
L 285.658918 151.353536 
L 285.94712 151.643056 
L 286.379424 151.236976 
L 286.523526 151.234741 
L 286.95583 152.488029 
L 287.099931 152.657747 
L 287.676336 151.025276 
L 288.396843 151.988191 
L 288.829147 151.799462 
L 289.405552 151.481932 
L 289.693755 151.446501 
L 289.981958 152.047382 
L 290.27016 150.772148 
L 290.558363 153.569162 
L 290.990667 149.443966 
L 291.134768 149.3012 
L 291.422971 159.794928 
L 291.711171 148.834953 
L 291.999374 224.414107 
L 292.287422 207.487709 
L 292.575542 215.397714 
L 292.863641 284.547613 
L 293.151451 231.175671 
L 293.439507 295.488 
L 293.727676 267.953062 
L 293.871657 266.864534 
L 294.015688 262.241067 
L 294.303862 216.712084 
L 294.591988 243.617482 
L 294.880187 175.198459 
L 295.16836 203.84332 
L 295.456562 160.309087 
L 295.744765 156.353825 
L 296.032967 149.309762 
L 296.465271 151.790697 
L 296.609373 152.098331 
L 296.897575 151.409982 
L 297.473981 151.730783 
L 297.762183 151.461645 
L 298.050386 152.635617 
L 298.338589 151.478925 
L 298.914994 152.943615 
L 299.203197 150.03606 
L 299.491399 154.526247 
L 299.779602 151.022845 
L 300.067805 150.342797 
L 300.356005 167.448507 
L 300.644208 159.107847 
L 300.93241 158.530388 
L 301.220611 165.20722 
L 301.508814 154.90626 
L 301.796933 260.890027 
L 302.085133 168.984617 
L 302.373312 202.288277 
L 302.661515 150.639883 
L 302.949718 152.741097 
L 303.23792 152.290883 
L 303.526123 153.129094 
L 303.814326 151.603138 
L 304.24663 151.32732 
L 304.678934 151.254497 
L 304.967136 151.7446 
L 305.255339 151.596898 
L 305.543542 151.070841 
L 305.831744 151.638958 
L 306.119947 151.585238 
L 306.40815 149.658642 
L 306.840448 118.124235 
L 306.984537 113.537379 
L 307.272735 127.864506 
L 307.560927 110.654309 
L 307.849128 135.978237 
L 308.137312 107.671687 
L 308.425511 132.114996 
L 308.713682 93.782507 
L 309.00188 129.812789 
L 309.290069 115.428945 
L 309.578268 130.558332 
L 310.154634 100.437342 
L 310.442835 141.102794 
L 310.730961 68.476094 
L 311.019163 143.781384 
L 311.307341 106.093176 
L 311.59554 131.752089 
L 311.883735 128.252996 
L 312.171917 106.984159 
L 312.460118 139.32662 
L 312.748298 109.139354 
L 313.036498 136.441705 
L 313.324675 107.993673 
L 313.612873 132.920117 
L 313.901061 119.618412 
L 314.189258 130.329547 
L 314.477451 125.035611 
L 314.765632 111.416482 
L 315.053833 137.172462 
L 315.341968 82.121267 
L 315.630169 138.077026 
L 315.918341 106.304462 
L 316.206533 125.651085 
L 316.494725 127.303288 
L 316.782899 107.421653 
L 317.071102 149.227152 
L 317.359302 139.419205 
L 317.647505 150.244978 
L 318.079809 151.170461 
L 318.22391 151.291873 
L 318.512113 152.476027 
L 319.088518 150.75714 
L 319.376721 152.05432 
L 319.664924 151.514345 
L 319.953126 151.990573 
L 320.241329 151.567676 
L 320.529532 152.233762 
L 321.105937 148.722873 
L 321.538241 151.006022 
L 321.682342 151.984152 
L 321.970545 152.060374 
L 322.402849 151.496 
L 322.691052 151.469698 
L 323.411558 151.58902 
L 323.699761 150.779682 
L 323.987964 152.105379 
L 324.276166 151.876526 
L 324.564369 151.142583 
L 325.140771 135.548687 
L 325.428974 154.882275 
L 325.717177 150.935969 
L 326.005379 155.022649 
L 326.293577 132.043812 
L 326.581779 142.949047 
L 326.869918 87.277052 
L 327.158092 91.370937 
L 327.446289 130.543968 
L 327.7344 67.871305 
L 328.022601 141.394819 
L 328.310694 64.626695 
L 328.598884 120.200104 
L 328.887051 104.500535 
L 329.175229 111.224272 
L 329.463431 157.4048 
L 329.751633 150.450271 
L 330.039836 151.21825 
L 330.328039 151.213349 
L 330.616241 148.955145 
L 330.904444 149.227676 
L 331.192646 151.39467 
L 331.480849 150.454235 
L 331.913153 151.970592 
L 332.057254 152.159406 
L 332.345457 150.750708 
L 333.065964 152.591519 
L 333.210065 153.166011 
L 333.498268 152.100826 
L 333.78647 151.958703 
L 334.074673 153.620634 
L 334.362876 151.231148 
L 334.651078 153.990469 
L 335.371585 151.100763 
L 335.515686 151.217228 
L 335.947978 188.800422 
L 336.092055 196.08307 
L 336.380147 232.963257 
L 336.956524 148.105741 
L 337.100625 150.827836 
L 337.244727 153.418236 
L 337.532929 153.250683 
L 337.821132 155.349041 
L 338.397537 150.313135 
L 338.68574 148.809018 
L 338.973942 151.021187 
L 339.262145 149.199819 
L 339.406246 147.188918 
L 339.550347 143.40493 
L 339.838404 53.568 
L 340.270639 105.708935 
L 340.414731 127.296963 
L 340.70292 122.418286 
L 340.991123 148.977777 
L 341.27932 133.786199 
L 341.567523 149.619345 
L 341.855725 153.557388 
L 342.143928 144.386185 
L 342.43213 151.644118 
L 342.720333 149.586218 
L 343.008535 149.678503 
L 343.296738 153.356539 
L 343.58494 143.552759 
L 343.873142 147.754154 
L 344.161345 155.05007 
L 344.881851 142.314913 
L 345.025948 137.229823 
L 345.314149 140.112321 
L 345.45825 140.214843 
L 345.602349 140.160559 
L 345.890544 129.337917 
L 346.178744 139.938367 
L 346.466931 122.631633 
L 347.043329 140.59913 
L 347.331526 132.015353 
L 347.619728 145.790341 
L 347.907913 117.26508 
L 348.196112 138.571689 
L 348.484294 117.628457 
L 348.628395 117.630126 
L 348.772479 117.841754 
L 349.060679 137.742268 
L 349.348866 121.748147 
L 349.637067 144.272879 
L 349.925264 132.845341 
L 350.213465 140.905877 
L 350.501664 136.927443 
L 350.789854 124.056011 
L 351.078057 147.322788 
L 351.366251 129.233787 
L 351.654453 144.149207 
L 351.942653 139.03173 
L 352.230853 138.340611 
L 352.374954 138.592217 
L 352.519052 138.558615 
L 352.807239 119.82401 
L 353.095441 144.691853 
L 353.383629 123.208534 
L 353.671829 135.879703 
L 354.248165 102.528782 
L 354.536365 161.205224 
L 354.968669 149.347615 
L 355.11277 147.405593 
L 355.400973 148.899205 
L 355.833277 152.07049 
L 355.977378 152.413901 
L 356.265581 151.524388 
L 356.841986 152.485442 
L 357.130189 150.662346 
L 357.418391 152.095424 
L 357.850695 151.416282 
L 357.994797 151.343482 
L 358.282999 151.841487 
L 358.571202 151.231043 
L 358.859405 151.629886 
L 361.741432 151.590092 
L 398.487273 151.590047 
L 398.487273 151.590047 
" style="fill:none;stroke:#ff7f0e;stroke-linecap:square;stroke-width:1.5;"/>
   </g>
   <g id="line2d_15">
    <path clip-path="url(#p2a09492916)" d="M 73.832727 151.590057 
L 74.966947 151.627241 
L 91.838458 151.545963 
L 98.501996 151.446119 
L 98.78555 151.245805 
L 100.061547 148.973555 
L 103.889514 140.493099 
L 104.173065 140.149087 
L 105.307263 137.451052 
L 105.590811 137.324854 
L 106.583227 134.076948 
L 108.142699 129.788382 
L 108.426236 128.797242 
L 108.709773 128.997674 
L 110.411045 141.419624 
L 114.238988 170.444501 
L 114.38075 171.067697 
L 114.66429 170.943409 
L 117.216202 162.190929 
L 125.439188 135.130287 
L 125.722729 134.954604 
L 126.148048 135.163284 
L 126.856895 135.606572 
L 127.991064 136.201919 
L 128.699926 136.309499 
L 129.125234 136.345202 
L 129.550554 136.583282 
L 129.975862 136.617877 
L 130.259405 136.846593 
L 131.110034 136.810038 
L 131.535354 137.083334 
L 132.102441 137.142428 
L 133.236614 137.230352 
L 133.661922 136.9877 
L 134.087242 137.061384 
L 134.370785 137.08309 
L 134.654328 137.129426 
L 134.937871 137.396623 
L 136.63914 139.562436 
L 136.922686 139.605061 
L 137.206232 139.811718 
L 139.191066 141.605839 
L 139.474615 141.909584 
L 139.899936 142.541332 
L 140.325263 142.46196 
L 140.608813 142.58678 
L 142.877217 144.13051 
L 143.44432 144.369406 
L 145.003854 145.225504 
L 145.996289 145.780484 
L 146.563394 146.244105 
L 146.988723 146.770956 
L 147.697607 146.727164 
L 148.83182 147.270932 
L 149.540704 147.700339 
L 149.824258 147.999299 
L 150.67492 148.222884 
L 154.786459 150.387187 
L 155.211791 150.545637 
L 157.763784 150.878828 
L 159.181558 151.015964 
L 159.748667 150.68601 
L 162.017103 148.741075 
L 162.442435 147.554037 
L 166.837329 131.535297 
L 168.254885 125.186276 
L 168.963644 121.380637 
L 169.247124 120.398964 
L 169.388823 120.284632 
L 170.097566 122.519624 
L 170.664547 123.892531 
L 170.948041 124.282437 
L 171.373254 124.469248 
L 172.365519 124.577702 
L 172.507237 124.753524 
L 174.20829 130.306111 
L 177.043562 135.709533 
L 178.319483 137.411554 
L 178.88656 138.124393 
L 179.311863 138.904849 
L 179.737183 139.689746 
L 180.729582 141.085713 
L 186.967718 150.944613 
L 190.512146 156.669229 
L 190.795698 157.6434 
L 191.362798 160.488814 
L 195.048549 181.909611 
L 195.75713 188.045783 
L 196.607305 198.111478 
L 196.890635 201.004047 
L 197.032413 200.712914 
L 197.173971 200.026164 
L 198.024122 191.102915 
L 198.449333 186.356787 
L 199.157942 180.786481 
L 199.583201 178.01255 
L 200.291925 173.719458 
L 201.851328 165.406665 
L 204.261481 153.752799 
L 204.545035 153.173868 
L 204.970367 153.178689 
L 206.529917 153.649589 
L 208.940128 154.379257 
L 213.618763 155.671684 
L 214.044093 155.803191 
L 215.036528 156.111684 
L 215.461858 156.237409 
L 221.13289 158.615772 
L 221.558211 159.619326 
L 224.393604 168.152159 
L 225.385949 171.31524 
L 226.094708 173.845702 
L 226.519987 175.571415 
L 226.803485 176.203664 
L 226.945202 176.094407 
L 227.228702 174.892039 
L 227.795723 172.124608 
L 232.757731 149.461434 
L 233.041286 149.311089 
L 233.891948 149.155938 
L 234.742611 148.770608 
L 235.309719 148.64005 
L 235.735049 148.631295 
L 236.443934 148.298159 
L 238.145256 147.603185 
L 242.682096 145.768186 
L 243.674523 144.915252 
L 244.525173 144.254325 
L 245.942915 143.123189 
L 246.368241 142.775869 
L 247.077103 142.089135 
L 247.644194 141.817928 
L 248.494827 140.684919 
L 249.912537 139.736722 
L 250.479616 138.610276 
L 251.613762 137.440817 
L 252.039076 137.711646 
L 252.464372 138.268895 
L 252.74791 138.622193 
L 253.031449 138.737153 
L 253.314988 139.054871 
L 253.88207 139.83473 
L 254.165612 140.24061 
L 254.732699 141.144872 
L 255.158021 141.392788 
L 256.575751 143.010806 
L 257.426396 143.83835 
L 259.269468 145.358966 
L 261.112557 147.037305 
L 264.373426 149.926181 
L 264.940535 150.291314 
L 265.365867 150.504738 
L 266.925418 150.685312 
L 274.581397 151.518149 
L 288.050248 153.065066 
L 288.333803 153.681648 
L 288.759133 156.124591 
L 289.326233 160.831644 
L 290.602141 173.561877 
L 291.594323 184.34596 
L 292.72798 198.635759 
L 293.577819 213.001947 
L 293.719596 213.071356 
L 294.002827 209.034937 
L 294.852807 195.035883 
L 295.986541 181.899972 
L 297.262281 169.912447 
L 297.68759 166.911428 
L 298.112886 165.78133 
L 298.679964 165.218086 
L 299.955903 164.338581 
L 300.522986 164.05886 
L 300.948293 163.774359 
L 301.798922 163.527838 
L 301.940699 163.333291 
L 302.366011 162.330266 
L 302.649556 162.270024 
L 302.791334 162.140514 
L 303.216651 159.952654 
L 303.641978 157.210183 
L 309.029119 119.869073 
L 309.454293 119.224698 
L 310.163008 116.701162 
L 310.87159 113.900172 
L 311.013368 114.183606 
L 312.005446 119.789362 
L 312.997684 122.950407 
L 313.848175 125.116983 
L 314.840438 128.81314 
L 316.116313 133.361421 
L 317.108674 136.370222 
L 321.787214 148.100444 
L 322.070768 148.392365 
L 322.354322 148.059479 
L 322.921429 146.352729 
L 326.182208 134.761875 
L 327.174583 130.960432 
L 327.599857 129.596045 
L 328.592185 124.321169 
L 328.733914 124.172562 
L 328.875691 124.211408 
L 329.300935 126.956723 
L 329.867982 131.028303 
L 330.29329 133.69939 
L 332.703435 149.59875 
L 336.673039 175.756945 
L 336.814817 175.891888 
L 337.098337 174.176868 
L 337.665397 167.331326 
L 340.07556 134.655244 
L 340.359097 133.198472 
L 340.642633 132.606688 
L 340.78441 132.465222 
L 341.49324 133.353246 
L 342.910935 135.060758 
L 343.761559 135.800389 
L 344.612186 136.376697 
L 347.164084 137.499232 
L 347.44763 137.468007 
L 347.731175 137.414914 
L 348.723588 137.470793 
L 349.148901 137.420156 
L 349.290678 137.500078 
L 349.715991 137.053565 
L 349.999536 137.035056 
L 350.283081 137.160081 
L 350.566627 137.48624 
L 351.417267 138.745946 
L 351.842592 139.225327 
L 352.267911 139.810579 
L 352.55146 140.13896 
L 353.260336 141.220281 
L 354.394538 142.489471 
L 354.67809 143.175846 
L 354.961642 143.104789 
L 355.245193 142.854331 
L 355.67052 143.671389 
L 356.237624 144.18167 
L 357.65539 145.647008 
L 359.923821 147.929926 
L 363.184699 151.077108 
L 364.035363 151.555838 
L 366.445579 151.571299 
L 398.487273 151.624818 
L 398.487273 151.624818 
" style="fill:none;stroke:#2ca02c;stroke-linecap:square;stroke-width:1.5;"/>
   </g>
   <g id="patch_3">
    <path d="M 57.6 307.584 
L 57.6 41.472 
" style="fill:none;stroke:#000000;stroke-linecap:square;stroke-linejoin:miter;stroke-width:0.8;"/>
   </g>
   <g id="patch_4">
    <path d="M 414.72 307.584 
L 414.72 41.472 
" style="fill:none;stroke:#000000;stroke-linecap:square;stroke-linejoin:miter;stroke-width:0.8;"/>
   </g>
   <g id="patch_5">
    <path d="M 57.6 307.584 
L 414.72 307.584 
" style="fill:none;stroke:#000000;stroke-linecap:square;stroke-linejoin:miter;stroke-width:0.8;"/>
   </g>
   <g id="patch_6">
    <path d="M 57.6 41.472 
L 414.72 41.472 
" style="fill:none;stroke:#000000;stroke-linecap:square;stroke-linejoin:miter;stroke-width:0.8;"/>
   </g>
   <g id="text_13">
    <!-- Curvature vs Distance esp -->
    <g transform="translate(157.035937 35.472)scale(0.12 -0.12)">
     <defs>
      <path d="M 64.40625 67.28125 
L 64.40625 56.890625 
Q 59.421875 61.53125 53.78125 63.8125 
Q 48.140625 66.109375 41.796875 66.109375 
Q 29.296875 66.109375 22.65625 58.46875 
Q 16.015625 50.828125 16.015625 36.375 
Q 16.015625 21.96875 22.65625 14.328125 
Q 29.296875 6.6875 41.796875 6.6875 
Q 48.140625 6.6875 53.78125 8.984375 
Q 59.421875 11.28125 64.40625 15.921875 
L 64.40625 5.609375 
Q 59.234375 2.09375 53.4375 0.328125 
Q 47.65625 -1.421875 41.21875 -1.421875 
Q 24.65625 -1.421875 15.125 8.703125 
Q 5.609375 18.84375 5.609375 36.375 
Q 5.609375 53.953125 15.125 64.078125 
Q 24.65625 74.21875 41.21875 74.21875 
Q 47.75 74.21875 53.53125 72.484375 
Q 59.328125 70.75 64.40625 67.28125 
z
" id="DejaVuSans-67"/>
      <path d="M 8.5 21.578125 
L 8.5 54.6875 
L 17.484375 54.6875 
L 17.484375 21.921875 
Q 17.484375 14.15625 20.5 10.265625 
Q 23.53125 6.390625 29.59375 6.390625 
Q 36.859375 6.390625 41.078125 11.03125 
Q 45.3125 15.671875 45.3125 23.6875 
L 45.3125 54.6875 
L 54.296875 54.6875 
L 54.296875 0 
L 45.3125 0 
L 45.3125 8.40625 
Q 42.046875 3.421875 37.71875 1 
Q 33.40625 -1.421875 27.6875 -1.421875 
Q 18.265625 -1.421875 13.375 4.4375 
Q 8.5 10.296875 8.5 21.578125 
z
M 31.109375 56 
z
" id="DejaVuSans-117"/>
      <path d="M 41.109375 46.296875 
Q 39.59375 47.171875 37.8125 47.578125 
Q 36.03125 48 33.890625 48 
Q 26.265625 48 22.1875 43.046875 
Q 18.109375 38.09375 18.109375 28.8125 
L 18.109375 0 
L 9.078125 0 
L 9.078125 54.6875 
L 18.109375 54.6875 
L 18.109375 46.1875 
Q 20.953125 51.171875 25.484375 53.578125 
Q 30.03125 56 36.53125 56 
Q 37.453125 56 38.578125 55.875 
Q 39.703125 55.765625 41.0625 55.515625 
z
" id="DejaVuSans-114"/>
      <path d="M 2.984375 54.6875 
L 12.5 54.6875 
L 29.59375 8.796875 
L 46.6875 54.6875 
L 56.203125 54.6875 
L 35.6875 0 
L 23.484375 0 
z
" id="DejaVuSans-118"/>
      <path d="M 34.28125 27.484375 
Q 23.390625 27.484375 19.1875 25 
Q 14.984375 22.515625 14.984375 16.5 
Q 14.984375 11.71875 18.140625 8.90625 
Q 21.296875 6.109375 26.703125 6.109375 
Q 34.1875 6.109375 38.703125 11.40625 
Q 43.21875 16.703125 43.21875 25.484375 
L 43.21875 27.484375 
z
M 52.203125 31.203125 
L 52.203125 0 
L 43.21875 0 
L 43.21875 8.296875 
Q 40.140625 3.328125 35.546875 0.953125 
Q 30.953125 -1.421875 24.3125 -1.421875 
Q 15.921875 -1.421875 10.953125 3.296875 
Q 6 8.015625 6 15.921875 
Q 6 25.140625 12.171875 29.828125 
Q 18.359375 34.515625 30.609375 34.515625 
L 43.21875 34.515625 
L 43.21875 35.40625 
Q 43.21875 41.609375 39.140625 45 
Q 35.0625 48.390625 27.6875 48.390625 
Q 23 48.390625 18.546875 47.265625 
Q 14.109375 46.140625 10.015625 43.890625 
L 10.015625 52.203125 
Q 14.9375 54.109375 19.578125 55.046875 
Q 24.21875 56 28.609375 56 
Q 40.484375 56 46.34375 49.84375 
Q 52.203125 43.703125 52.203125 31.203125 
z
" id="DejaVuSans-97"/>
      <path d="M 18.3125 70.21875 
L 18.3125 54.6875 
L 36.8125 54.6875 
L 36.8125 47.703125 
L 18.3125 47.703125 
L 18.3125 18.015625 
Q 18.3125 11.328125 20.140625 9.421875 
Q 21.96875 7.515625 27.59375 7.515625 
L 36.8125 7.515625 
L 36.8125 0 
L 27.59375 0 
Q 17.1875 0 13.234375 3.875 
Q 9.28125 7.765625 9.28125 18.015625 
L 9.28125 47.703125 
L 2.6875 47.703125 
L 2.6875 54.6875 
L 9.28125 54.6875 
L 9.28125 70.21875 
z
" id="DejaVuSans-116"/>
      <path d="M 56.203125 29.59375 
L 56.203125 25.203125 
L 14.890625 25.203125 
Q 15.484375 15.921875 20.484375 11.0625 
Q 25.484375 6.203125 34.421875 6.203125 
Q 39.59375 6.203125 44.453125 7.46875 
Q 49.3125 8.734375 54.109375 11.28125 
L 54.109375 2.78125 
Q 49.265625 0.734375 44.1875 -0.34375 
Q 39.109375 -1.421875 33.890625 -1.421875 
Q 20.796875 -1.421875 13.15625 6.1875 
Q 5.515625 13.8125 5.515625 26.8125 
Q 5.515625 40.234375 12.765625 48.109375 
Q 20.015625 56 32.328125 56 
Q 43.359375 56 49.78125 48.890625 
Q 56.203125 41.796875 56.203125 29.59375 
z
M 47.21875 32.234375 
Q 47.125 39.59375 43.09375 43.984375 
Q 39.0625 48.390625 32.421875 48.390625 
Q 24.90625 48.390625 20.390625 44.140625 
Q 15.875 39.890625 15.1875 32.171875 
z
" id="DejaVuSans-101"/>
      <path id="DejaVuSans-32"/>
      <path d="M 44.28125 53.078125 
L 44.28125 44.578125 
Q 40.484375 46.53125 36.375 47.5 
Q 32.28125 48.484375 27.875 48.484375 
Q 21.1875 48.484375 17.84375 46.4375 
Q 14.5 44.390625 14.5 40.28125 
Q 14.5 37.15625 16.890625 35.375 
Q 19.28125 33.59375 26.515625 31.984375 
L 29.59375 31.296875 
Q 39.15625 29.25 43.1875 25.515625 
Q 47.21875 21.78125 47.21875 15.09375 
Q 47.21875 7.46875 41.1875 3.015625 
Q 35.15625 -1.421875 24.609375 -1.421875 
Q 20.21875 -1.421875 15.453125 -0.5625 
Q 10.6875 0.296875 5.421875 2 
L 5.421875 11.28125 
Q 10.40625 8.6875 15.234375 7.390625 
Q 20.0625 6.109375 24.8125 6.109375 
Q 31.15625 6.109375 34.5625 8.28125 
Q 37.984375 10.453125 37.984375 14.40625 
Q 37.984375 18.0625 35.515625 20.015625 
Q 33.0625 21.96875 24.703125 23.78125 
L 21.578125 24.515625 
Q 13.234375 26.265625 9.515625 29.90625 
Q 5.8125 33.546875 5.8125 39.890625 
Q 5.8125 47.609375 11.28125 51.796875 
Q 16.75 56 26.8125 56 
Q 31.78125 56 36.171875 55.265625 
Q 40.578125 54.546875 44.28125 53.078125 
z
" id="DejaVuSans-115"/>
      <path d="M 19.671875 64.796875 
L 19.671875 8.109375 
L 31.59375 8.109375 
Q 46.6875 8.109375 53.6875 14.9375 
Q 60.6875 21.78125 60.6875 36.53125 
Q 60.6875 51.171875 53.6875 57.984375 
Q 46.6875 64.796875 31.59375 64.796875 
z
M 9.8125 72.90625 
L 30.078125 72.90625 
Q 51.265625 72.90625 61.171875 64.09375 
Q 71.09375 55.28125 71.09375 36.53125 
Q 71.09375 17.671875 61.125 8.828125 
Q 51.171875 0 30.078125 0 
L 9.8125 0 
z
" id="DejaVuSans-68"/>
      <path d="M 9.421875 54.6875 
L 18.40625 54.6875 
L 18.40625 0 
L 9.421875 0 
z
M 9.421875 75.984375 
L 18.40625 75.984375 
L 18.40625 64.59375 
L 9.421875 64.59375 
z
" id="DejaVuSans-105"/>
      <path d="M 54.890625 33.015625 
L 54.890625 0 
L 45.90625 0 
L 45.90625 32.71875 
Q 45.90625 40.484375 42.875 44.328125 
Q 39.84375 48.1875 33.796875 48.1875 
Q 26.515625 48.1875 22.3125 43.546875 
Q 18.109375 38.921875 18.109375 30.90625 
L 18.109375 0 
L 9.078125 0 
L 9.078125 54.6875 
L 18.109375 54.6875 
L 18.109375 46.1875 
Q 21.34375 51.125 25.703125 53.5625 
Q 30.078125 56 35.796875 56 
Q 45.21875 56 50.046875 50.171875 
Q 54.890625 44.34375 54.890625 33.015625 
z
" id="DejaVuSans-110"/>
      <path d="M 48.78125 52.59375 
L 48.78125 44.1875 
Q 44.96875 46.296875 41.140625 47.34375 
Q 37.3125 48.390625 33.40625 48.390625 
Q 24.65625 48.390625 19.8125 42.84375 
Q 14.984375 37.3125 14.984375 27.296875 
Q 14.984375 17.28125 19.8125 11.734375 
Q 24.65625 6.203125 33.40625 6.203125 
Q 37.3125 6.203125 41.140625 7.25 
Q 44.96875 8.296875 48.78125 10.40625 
L 48.78125 2.09375 
Q 45.015625 0.34375 40.984375 -0.53125 
Q 36.96875 -1.421875 32.421875 -1.421875 
Q 20.0625 -1.421875 12.78125 6.34375 
Q 5.515625 14.109375 5.515625 27.296875 
Q 5.515625 40.671875 12.859375 48.328125 
Q 20.21875 56 33.015625 56 
Q 37.15625 56 41.109375 55.140625 
Q 45.0625 54.296875 48.78125 52.59375 
z
" id="DejaVuSans-99"/>
      <path d="M 18.109375 8.203125 
L 18.109375 -20.796875 
L 9.078125 -20.796875 
L 9.078125 54.6875 
L 18.109375 54.6875 
L 18.109375 46.390625 
Q 20.953125 51.265625 25.265625 53.625 
Q 29.59375 56 35.59375 56 
Q 45.5625 56 51.78125 48.09375 
Q 58.015625 40.1875 58.015625 27.296875 
Q 58.015625 14.40625 51.78125 6.484375 
Q 45.5625 -1.421875 35.59375 -1.421875 
Q 29.59375 -1.421875 25.265625 0.953125 
Q 20.953125 3.328125 18.109375 8.203125 
z
M 48.6875 27.296875 
Q 48.6875 37.203125 44.609375 42.84375 
Q 40.53125 48.484375 33.40625 48.484375 
Q 26.265625 48.484375 22.1875 42.84375 
Q 18.109375 37.203125 18.109375 27.296875 
Q 18.109375 17.390625 22.1875 11.75 
Q 26.265625 6.109375 33.40625 6.109375 
Q 40.53125 6.109375 44.609375 11.75 
Q 48.6875 17.390625 48.6875 27.296875 
z
" id="DejaVuSans-112"/>
     </defs>
     <use xlink:href="#DejaVuSans-67"/>
     <use x="69.824219" xlink:href="#DejaVuSans-117"/>
     <use x="133.203125" xlink:href="#DejaVuSans-114"/>
     <use x="174.316406" xlink:href="#DejaVuSans-118"/>
     <use x="233.496094" xlink:href="#DejaVuSans-97"/>
     <use x="294.775391" xlink:href="#DejaVuSans-116"/>
     <use x="333.984375" xlink:href="#DejaVuSans-117"/>
     <use x="397.363281" xlink:href="#DejaVuSans-114"/>
     <use x="436.226562" xlink:href="#DejaVuSans-101"/>
     <use x="497.75" xlink:href="#DejaVuSans-32"/>
     <use x="529.537109" xlink:href="#DejaVuSans-118"/>
     <use x="588.716797" xlink:href="#DejaVuSans-115"/>
     <use x="640.816406" xlink:href="#DejaVuSans-32"/>
     <use x="672.603516" xlink:href="#DejaVuSans-68"/>
     <use x="749.605469" xlink:href="#DejaVuSans-105"/>
     <use x="777.388672" xlink:href="#DejaVuSans-115"/>
     <use x="829.488281" xlink:href="#DejaVuSans-116"/>
     <use x="868.697266" xlink:href="#DejaVuSans-97"/>
     <use x="929.976562" xlink:href="#DejaVuSans-110"/>
     <use x="993.355469" xlink:href="#DejaVuSans-99"/>
     <use x="1048.335938" xlink:href="#DejaVuSans-101"/>
     <use x="1109.859375" xlink:href="#DejaVuSans-32"/>
     <use x="1141.646484" xlink:href="#DejaVuSans-101"/>
     <use x="1203.169922" xlink:href="#DejaVuSans-115"/>
     <use x="1255.269531" xlink:href="#DejaVuSans-112"/>
    </g>
   </g>
   <g id="legend_1">
    <g id="patch_7">
     <path d="M 276.42625 93.506375 
L 407.72 93.506375 
Q 409.72 93.506375 409.72 91.506375 
L 409.72 48.472 
Q 409.72 46.472 407.72 46.472 
L 276.42625 46.472 
Q 274.42625 46.472 274.42625 48.472 
L 274.42625 91.506375 
Q 274.42625 93.506375 276.42625 93.506375 
z
" style="fill:#ffffff;opacity:0.8;stroke:#cccccc;stroke-linejoin:miter;"/>
    </g>
    <g id="line2d_16">
     <path d="M 278.42625 54.570438 
L 298.42625 54.570438 
" style="fill:none;stroke:#1f77b4;stroke-linecap:square;stroke-width:1.5;"/>
    </g>
    <g id="line2d_17"/>
    <g id="text_14">
     <!-- Centreline -->
     <g transform="translate(306.42625 58.070438)scale(0.1 -0.1)">
      <defs>
       <path d="M 9.421875 75.984375 
L 18.40625 75.984375 
L 18.40625 0 
L 9.421875 0 
z
" id="DejaVuSans-108"/>
      </defs>
      <use xlink:href="#DejaVuSans-67"/>
      <use x="69.824219" xlink:href="#DejaVuSans-101"/>
      <use x="131.347656" xlink:href="#DejaVuSans-110"/>
      <use x="194.726562" xlink:href="#DejaVuSans-116"/>
      <use x="233.935547" xlink:href="#DejaVuSans-114"/>
      <use x="272.798828" xlink:href="#DejaVuSans-101"/>
      <use x="334.322266" xlink:href="#DejaVuSans-108"/>
      <use x="362.105469" xlink:href="#DejaVuSans-105"/>
      <use x="389.888672" xlink:href="#DejaVuSans-110"/>
      <use x="453.267578" xlink:href="#DejaVuSans-101"/>
     </g>
    </g>
    <g id="line2d_18">
     <path d="M 278.42625 69.248563 
L 298.42625 69.248563 
" style="fill:none;stroke:#ff7f0e;stroke-linecap:square;stroke-width:1.5;"/>
    </g>
    <g id="line2d_19"/>
    <g id="text_15">
     <!-- Shortest Path -->
     <g transform="translate(306.42625 72.748563)scale(0.1 -0.1)">
      <defs>
       <path d="M 53.515625 70.515625 
L 53.515625 60.890625 
Q 47.90625 63.578125 42.921875 64.890625 
Q 37.9375 66.21875 33.296875 66.21875 
Q 25.25 66.21875 20.875 63.09375 
Q 16.5 59.96875 16.5 54.203125 
Q 16.5 49.359375 19.40625 46.890625 
Q 22.3125 44.4375 30.421875 42.921875 
L 36.375 41.703125 
Q 47.40625 39.59375 52.65625 34.296875 
Q 57.90625 29 57.90625 20.125 
Q 57.90625 9.515625 50.796875 4.046875 
Q 43.703125 -1.421875 29.984375 -1.421875 
Q 24.8125 -1.421875 18.96875 -0.25 
Q 13.140625 0.921875 6.890625 3.21875 
L 6.890625 13.375 
Q 12.890625 10.015625 18.65625 8.296875 
Q 24.421875 6.59375 29.984375 6.59375 
Q 38.421875 6.59375 43.015625 9.90625 
Q 47.609375 13.234375 47.609375 19.390625 
Q 47.609375 24.75 44.3125 27.78125 
Q 41.015625 30.8125 33.5 32.328125 
L 27.484375 33.5 
Q 16.453125 35.6875 11.515625 40.375 
Q 6.59375 45.0625 6.59375 53.421875 
Q 6.59375 63.09375 13.40625 68.65625 
Q 20.21875 74.21875 32.171875 74.21875 
Q 37.3125 74.21875 42.625 73.28125 
Q 47.953125 72.359375 53.515625 70.515625 
z
" id="DejaVuSans-83"/>
       <path d="M 54.890625 33.015625 
L 54.890625 0 
L 45.90625 0 
L 45.90625 32.71875 
Q 45.90625 40.484375 42.875 44.328125 
Q 39.84375 48.1875 33.796875 48.1875 
Q 26.515625 48.1875 22.3125 43.546875 
Q 18.109375 38.921875 18.109375 30.90625 
L 18.109375 0 
L 9.078125 0 
L 9.078125 75.984375 
L 18.109375 75.984375 
L 18.109375 46.1875 
Q 21.34375 51.125 25.703125 53.5625 
Q 30.078125 56 35.796875 56 
Q 45.21875 56 50.046875 50.171875 
Q 54.890625 44.34375 54.890625 33.015625 
z
" id="DejaVuSans-104"/>
       <path d="M 30.609375 48.390625 
Q 23.390625 48.390625 19.1875 42.75 
Q 14.984375 37.109375 14.984375 27.296875 
Q 14.984375 17.484375 19.15625 11.84375 
Q 23.34375 6.203125 30.609375 6.203125 
Q 37.796875 6.203125 41.984375 11.859375 
Q 46.1875 17.53125 46.1875 27.296875 
Q 46.1875 37.015625 41.984375 42.703125 
Q 37.796875 48.390625 30.609375 48.390625 
z
M 30.609375 56 
Q 42.328125 56 49.015625 48.375 
Q 55.71875 40.765625 55.71875 27.296875 
Q 55.71875 13.875 49.015625 6.21875 
Q 42.328125 -1.421875 30.609375 -1.421875 
Q 18.84375 -1.421875 12.171875 6.21875 
Q 5.515625 13.875 5.515625 27.296875 
Q 5.515625 40.765625 12.171875 48.375 
Q 18.84375 56 30.609375 56 
z
" id="DejaVuSans-111"/>
       <path d="M 19.671875 64.796875 
L 19.671875 37.40625 
L 32.078125 37.40625 
Q 38.96875 37.40625 42.71875 40.96875 
Q 46.484375 44.53125 46.484375 51.125 
Q 46.484375 57.671875 42.71875 61.234375 
Q 38.96875 64.796875 32.078125 64.796875 
z
M 9.8125 72.90625 
L 32.078125 72.90625 
Q 44.34375 72.90625 50.609375 67.359375 
Q 56.890625 61.8125 56.890625 51.125 
Q 56.890625 40.328125 50.609375 34.8125 
Q 44.34375 29.296875 32.078125 29.296875 
L 19.671875 29.296875 
L 19.671875 0 
L 9.8125 0 
z
" id="DejaVuSans-80"/>
      </defs>
      <use xlink:href="#DejaVuSans-83"/>
      <use x="63.476562" xlink:href="#DejaVuSans-104"/>
      <use x="126.855469" xlink:href="#DejaVuSans-111"/>
      <use x="188.037109" xlink:href="#DejaVuSans-114"/>
      <use x="229.150391" xlink:href="#DejaVuSans-116"/>
      <use x="268.359375" xlink:href="#DejaVuSans-101"/>
      <use x="329.882812" xlink:href="#DejaVuSans-115"/>
      <use x="381.982422" xlink:href="#DejaVuSans-116"/>
      <use x="421.191406" xlink:href="#DejaVuSans-32"/>
      <use x="452.978516" xlink:href="#DejaVuSans-80"/>
      <use x="508.78125" xlink:href="#DejaVuSans-97"/>
      <use x="570.060547" xlink:href="#DejaVuSans-116"/>
      <use x="609.269531" xlink:href="#DejaVuSans-104"/>
     </g>
    </g>
    <g id="line2d_20">
     <path d="M 278.42625 83.926688 
L 298.42625 83.926688 
" style="fill:none;stroke:#2ca02c;stroke-linecap:square;stroke-width:1.5;"/>
    </g>
    <g id="line2d_21"/>
    <g id="text_16">
     <!-- Minimum Curvature -->
     <g transform="translate(306.42625 87.426688)scale(0.1 -0.1)">
      <defs>
       <path d="M 9.8125 72.90625 
L 24.515625 72.90625 
L 43.109375 23.296875 
L 61.8125 72.90625 
L 76.515625 72.90625 
L 76.515625 0 
L 66.890625 0 
L 66.890625 64.015625 
L 48.09375 14.015625 
L 38.1875 14.015625 
L 19.390625 64.015625 
L 19.390625 0 
L 9.8125 0 
z
" id="DejaVuSans-77"/>
       <path d="M 52 44.1875 
Q 55.375 50.25 60.0625 53.125 
Q 64.75 56 71.09375 56 
Q 79.640625 56 84.28125 50.015625 
Q 88.921875 44.046875 88.921875 33.015625 
L 88.921875 0 
L 79.890625 0 
L 79.890625 32.71875 
Q 79.890625 40.578125 77.09375 44.375 
Q 74.3125 48.1875 68.609375 48.1875 
Q 61.625 48.1875 57.5625 43.546875 
Q 53.515625 38.921875 53.515625 30.90625 
L 53.515625 0 
L 44.484375 0 
L 44.484375 32.71875 
Q 44.484375 40.625 41.703125 44.40625 
Q 38.921875 48.1875 33.109375 48.1875 
Q 26.21875 48.1875 22.15625 43.53125 
Q 18.109375 38.875 18.109375 30.90625 
L 18.109375 0 
L 9.078125 0 
L 9.078125 54.6875 
L 18.109375 54.6875 
L 18.109375 46.1875 
Q 21.1875 51.21875 25.484375 53.609375 
Q 29.78125 56 35.6875 56 
Q 41.65625 56 45.828125 52.96875 
Q 50 49.953125 52 44.1875 
z
" id="DejaVuSans-109"/>
      </defs>
      <use xlink:href="#DejaVuSans-77"/>
      <use x="86.279297" xlink:href="#DejaVuSans-105"/>
      <use x="114.0625" xlink:href="#DejaVuSans-110"/>
      <use x="177.441406" xlink:href="#DejaVuSans-105"/>
      <use x="205.224609" xlink:href="#DejaVuSans-109"/>
      <use x="302.636719" xlink:href="#DejaVuSans-117"/>
      <use x="366.015625" xlink:href="#DejaVuSans-109"/>
      <use x="463.427734" xlink:href="#DejaVuSans-32"/>
      <use x="495.214844" xlink:href="#DejaVuSans-67"/>
      <use x="565.039062" xlink:href="#DejaVuSans-117"/>
      <use x="628.417969" xlink:href="#DejaVuSans-114"/>
      <use x="669.53125" xlink:href="#DejaVuSans-118"/>
      <use x="728.710938" xlink:href="#DejaVuSans-97"/>
      <use x="789.990234" xlink:href="#DejaVuSans-116"/>
      <use x="829.199219" xlink:href="#DejaVuSans-117"/>
      <use x="892.578125" xlink:href="#DejaVuSans-114"/>
      <use x="931.441406" xlink:href="#DejaVuSans-101"/>
     </g>
    </g>
   </g>
  </g>
 </g>
 <defs>
  <clipPath id="p2a09492916">
   <rect height="266.112" width="357.12" x="57.6" y="41.472"/>
  </clipPath>
 </defs>
</svg>
