<?xml version="1.0" encoding="utf-8" standalone="no"?>
<!DOCTYPE svg PUBLIC "-//W3C//DTD SVG 1.1//EN"
  "http://www.w3.org/Graphics/SVG/1.1/DTD/svg11.dtd">
<!-- Created with matplotlib (https://matplotlib.org/) -->
<svg height="345.6pt" version="1.1" viewBox="0 0 460.8 345.6" width="460.8pt" xmlns="http://www.w3.org/2000/svg" xmlns:xlink="http://www.w3.org/1999/xlink">
 <metadata>
  <rdf:RDF xmlns:cc="http://creativecommons.org/ns#" xmlns:dc="http://purl.org/dc/elements/1.1/" xmlns:rdf="http://www.w3.org/1999/02/22-rdf-syntax-ns#">
   <cc:Work>
    <dc:type rdf:resource="http://purl.org/dc/dcmitype/StillImage"/>
    <dc:date>2024-10-14T23:04:28.155836</dc:date>
    <dc:format>image/svg+xml</dc:format>
    <dc:creator>
     <cc:Agent>
      <dc:title>Matplotlib v3.3.1, https://matplotlib.org/</dc:title>
     </cc:Agent>
    </dc:creator>
   </cc:Work>
  </rdf:RDF>
 </metadata>
 <defs>
  <style type="text/css">*{stroke-linecap:butt;stroke-linejoin:round;}</style>
 </defs>
 <g id="figure_1">
  <g id="patch_1">
   <path d="M 0 345.6 
L 460.8 345.6 
L 460.8 0 
L 0 0 
z
" style="fill:#ffffff;"/>
  </g>
  <g id="axes_1">
   <g id="patch_2">
    <path d="M 57.6 307.584 
L 414.72 307.584 
L 414.72 41.472 
L 57.6 41.472 
z
" style="fill:#ffffff;"/>
   </g>
   <g id="matplotlib.axis_1">
    <g id="xtick_1">
     <g id="line2d_1">
      <defs>
       <path d="M 0 0 
L 0 3.5 
" id="m2dbcbab099" style="stroke:#000000;stroke-width:0.8;"/>
      </defs>
      <g>
       <use style="stroke:#000000;stroke-width:0.8;" x="73.832727" xlink:href="#m2dbcbab099" y="307.584"/>
      </g>
     </g>
     <g id="text_1">
      <!-- 0.0 -->
      <g transform="translate(65.881165 322.182437)scale(0.1 -0.1)">
       <defs>
        <path d="M 31.78125 66.40625 
Q 24.171875 66.40625 20.328125 58.90625 
Q 16.5 51.421875 16.5 36.375 
Q 16.5 21.390625 20.328125 13.890625 
Q 24.171875 6.390625 31.78125 6.390625 
Q 39.453125 6.390625 43.28125 13.890625 
Q 47.125 21.390625 47.125 36.375 
Q 47.125 51.421875 43.28125 58.90625 
Q 39.453125 66.40625 31.78125 66.40625 
z
M 31.78125 74.21875 
Q 44.046875 74.21875 50.515625 64.515625 
Q 56.984375 54.828125 56.984375 36.375 
Q 56.984375 17.96875 50.515625 8.265625 
Q 44.046875 -1.421875 31.78125 -1.421875 
Q 19.53125 -1.421875 13.0625 8.265625 
Q 6.59375 17.96875 6.59375 36.375 
Q 6.59375 54.828125 13.0625 64.515625 
Q 19.53125 74.21875 31.78125 74.21875 
z
" id="DejaVuSans-48"/>
        <path d="M 10.6875 12.40625 
L 21 12.40625 
L 21 0 
L 10.6875 0 
z
" id="DejaVuSans-46"/>
       </defs>
       <use xlink:href="#DejaVuSans-48"/>
       <use x="63.623047" xlink:href="#DejaVuSans-46"/>
       <use x="95.410156" xlink:href="#DejaVuSans-48"/>
      </g>
     </g>
    </g>
    <g id="xtick_2">
     <g id="line2d_2">
      <g>
       <use style="stroke:#000000;stroke-width:0.8;" x="138.763636" xlink:href="#m2dbcbab099" y="307.584"/>
      </g>
     </g>
     <g id="text_2">
      <!-- 0.2 -->
      <g transform="translate(130.812074 322.182437)scale(0.1 -0.1)">
       <defs>
        <path d="M 19.1875 8.296875 
L 53.609375 8.296875 
L 53.609375 0 
L 7.328125 0 
L 7.328125 8.296875 
Q 12.9375 14.109375 22.625 23.890625 
Q 32.328125 33.6875 34.8125 36.53125 
Q 39.546875 41.84375 41.421875 45.53125 
Q 43.3125 49.21875 43.3125 52.78125 
Q 43.3125 58.59375 39.234375 62.25 
Q 35.15625 65.921875 28.609375 65.921875 
Q 23.96875 65.921875 18.8125 64.3125 
Q 13.671875 62.703125 7.8125 59.421875 
L 7.8125 69.390625 
Q 13.765625 71.78125 18.9375 73 
Q 24.125 74.21875 28.421875 74.21875 
Q 39.75 74.21875 46.484375 68.546875 
Q 53.21875 62.890625 53.21875 53.421875 
Q 53.21875 48.921875 51.53125 44.890625 
Q 49.859375 40.875 45.40625 35.40625 
Q 44.1875 33.984375 37.640625 27.21875 
Q 31.109375 20.453125 19.1875 8.296875 
z
" id="DejaVuSans-50"/>
       </defs>
       <use xlink:href="#DejaVuSans-48"/>
       <use x="63.623047" xlink:href="#DejaVuSans-46"/>
       <use x="95.410156" xlink:href="#DejaVuSans-50"/>
      </g>
     </g>
    </g>
    <g id="xtick_3">
     <g id="line2d_3">
      <g>
       <use style="stroke:#000000;stroke-width:0.8;" x="203.694545" xlink:href="#m2dbcbab099" y="307.584"/>
      </g>
     </g>
     <g id="text_3">
      <!-- 0.4 -->
      <g transform="translate(195.742983 322.182437)scale(0.1 -0.1)">
       <defs>
        <path d="M 37.796875 64.3125 
L 12.890625 25.390625 
L 37.796875 25.390625 
z
M 35.203125 72.90625 
L 47.609375 72.90625 
L 47.609375 25.390625 
L 58.015625 25.390625 
L 58.015625 17.1875 
L 47.609375 17.1875 
L 47.609375 0 
L 37.796875 0 
L 37.796875 17.1875 
L 4.890625 17.1875 
L 4.890625 26.703125 
z
" id="DejaVuSans-52"/>
       </defs>
       <use xlink:href="#DejaVuSans-48"/>
       <use x="63.623047" xlink:href="#DejaVuSans-46"/>
       <use x="95.410156" xlink:href="#DejaVuSans-52"/>
      </g>
     </g>
    </g>
    <g id="xtick_4">
     <g id="line2d_4">
      <g>
       <use style="stroke:#000000;stroke-width:0.8;" x="268.625455" xlink:href="#m2dbcbab099" y="307.584"/>
      </g>
     </g>
     <g id="text_4">
      <!-- 0.6 -->
      <g transform="translate(260.673892 322.182437)scale(0.1 -0.1)">
       <defs>
        <path d="M 33.015625 40.375 
Q 26.375 40.375 22.484375 35.828125 
Q 18.609375 31.296875 18.609375 23.390625 
Q 18.609375 15.53125 22.484375 10.953125 
Q 26.375 6.390625 33.015625 6.390625 
Q 39.65625 6.390625 43.53125 10.953125 
Q 47.40625 15.53125 47.40625 23.390625 
Q 47.40625 31.296875 43.53125 35.828125 
Q 39.65625 40.375 33.015625 40.375 
z
M 52.59375 71.296875 
L 52.59375 62.3125 
Q 48.875 64.0625 45.09375 64.984375 
Q 41.3125 65.921875 37.59375 65.921875 
Q 27.828125 65.921875 22.671875 59.328125 
Q 17.53125 52.734375 16.796875 39.40625 
Q 19.671875 43.65625 24.015625 45.921875 
Q 28.375 48.1875 33.59375 48.1875 
Q 44.578125 48.1875 50.953125 41.515625 
Q 57.328125 34.859375 57.328125 23.390625 
Q 57.328125 12.15625 50.6875 5.359375 
Q 44.046875 -1.421875 33.015625 -1.421875 
Q 20.359375 -1.421875 13.671875 8.265625 
Q 6.984375 17.96875 6.984375 36.375 
Q 6.984375 53.65625 15.1875 63.9375 
Q 23.390625 74.21875 37.203125 74.21875 
Q 40.921875 74.21875 44.703125 73.484375 
Q 48.484375 72.75 52.59375 71.296875 
z
" id="DejaVuSans-54"/>
       </defs>
       <use xlink:href="#DejaVuSans-48"/>
       <use x="63.623047" xlink:href="#DejaVuSans-46"/>
       <use x="95.410156" xlink:href="#DejaVuSans-54"/>
      </g>
     </g>
    </g>
    <g id="xtick_5">
     <g id="line2d_5">
      <g>
       <use style="stroke:#000000;stroke-width:0.8;" x="333.556364" xlink:href="#m2dbcbab099" y="307.584"/>
      </g>
     </g>
     <g id="text_5">
      <!-- 0.8 -->
      <g transform="translate(325.604801 322.182437)scale(0.1 -0.1)">
       <defs>
        <path d="M 31.78125 34.625 
Q 24.75 34.625 20.71875 30.859375 
Q 16.703125 27.09375 16.703125 20.515625 
Q 16.703125 13.921875 20.71875 10.15625 
Q 24.75 6.390625 31.78125 6.390625 
Q 38.8125 6.390625 42.859375 10.171875 
Q 46.921875 13.96875 46.921875 20.515625 
Q 46.921875 27.09375 42.890625 30.859375 
Q 38.875 34.625 31.78125 34.625 
z
M 21.921875 38.8125 
Q 15.578125 40.375 12.03125 44.71875 
Q 8.5 49.078125 8.5 55.328125 
Q 8.5 64.0625 14.71875 69.140625 
Q 20.953125 74.21875 31.78125 74.21875 
Q 42.671875 74.21875 48.875 69.140625 
Q 55.078125 64.0625 55.078125 55.328125 
Q 55.078125 49.078125 51.53125 44.71875 
Q 48 40.375 41.703125 38.8125 
Q 48.828125 37.15625 52.796875 32.3125 
Q 56.78125 27.484375 56.78125 20.515625 
Q 56.78125 9.90625 50.3125 4.234375 
Q 43.84375 -1.421875 31.78125 -1.421875 
Q 19.734375 -1.421875 13.25 4.234375 
Q 6.78125 9.90625 6.78125 20.515625 
Q 6.78125 27.484375 10.78125 32.3125 
Q 14.796875 37.15625 21.921875 38.8125 
z
M 18.3125 54.390625 
Q 18.3125 48.734375 21.84375 45.5625 
Q 25.390625 42.390625 31.78125 42.390625 
Q 38.140625 42.390625 41.71875 45.5625 
Q 45.3125 48.734375 45.3125 54.390625 
Q 45.3125 60.0625 41.71875 63.234375 
Q 38.140625 66.40625 31.78125 66.40625 
Q 25.390625 66.40625 21.84375 63.234375 
Q 18.3125 60.0625 18.3125 54.390625 
z
" id="DejaVuSans-56"/>
       </defs>
       <use xlink:href="#DejaVuSans-48"/>
       <use x="63.623047" xlink:href="#DejaVuSans-46"/>
       <use x="95.410156" xlink:href="#DejaVuSans-56"/>
      </g>
     </g>
    </g>
    <g id="xtick_6">
     <g id="line2d_6">
      <g>
       <use style="stroke:#000000;stroke-width:0.8;" x="398.487273" xlink:href="#m2dbcbab099" y="307.584"/>
      </g>
     </g>
     <g id="text_6">
      <!-- 1.0 -->
      <g transform="translate(390.53571 322.182437)scale(0.1 -0.1)">
       <defs>
        <path d="M 12.40625 8.296875 
L 28.515625 8.296875 
L 28.515625 63.921875 
L 10.984375 60.40625 
L 10.984375 69.390625 
L 28.421875 72.90625 
L 38.28125 72.90625 
L 38.28125 8.296875 
L 54.390625 8.296875 
L 54.390625 0 
L 12.40625 0 
z
" id="DejaVuSans-49"/>
       </defs>
       <use xlink:href="#DejaVuSans-49"/>
       <use x="63.623047" xlink:href="#DejaVuSans-46"/>
       <use x="95.410156" xlink:href="#DejaVuSans-48"/>
      </g>
     </g>
    </g>
   </g>
   <g id="matplotlib.axis_2">
    <g id="ytick_1">
     <g id="line2d_7">
      <defs>
       <path d="M 0 0 
L -3.5 0 
" id="md72bed8119" style="stroke:#000000;stroke-width:0.8;"/>
      </defs>
      <g>
       <use style="stroke:#000000;stroke-width:0.8;" x="57.6" xlink:href="#md72bed8119" y="290.036907"/>
      </g>
     </g>
     <g id="text_7">
      <!-- −3 -->
      <g transform="translate(35.857813 293.836126)scale(0.1 -0.1)">
       <defs>
        <path d="M 10.59375 35.5 
L 73.1875 35.5 
L 73.1875 27.203125 
L 10.59375 27.203125 
z
" id="DejaVuSans-8722"/>
        <path d="M 40.578125 39.3125 
Q 47.65625 37.796875 51.625 33 
Q 55.609375 28.21875 55.609375 21.1875 
Q 55.609375 10.40625 48.1875 4.484375 
Q 40.765625 -1.421875 27.09375 -1.421875 
Q 22.515625 -1.421875 17.65625 -0.515625 
Q 12.796875 0.390625 7.625 2.203125 
L 7.625 11.71875 
Q 11.71875 9.328125 16.59375 8.109375 
Q 21.484375 6.890625 26.8125 6.890625 
Q 36.078125 6.890625 40.9375 10.546875 
Q 45.796875 14.203125 45.796875 21.1875 
Q 45.796875 27.640625 41.28125 31.265625 
Q 36.765625 34.90625 28.71875 34.90625 
L 20.21875 34.90625 
L 20.21875 43.015625 
L 29.109375 43.015625 
Q 36.375 43.015625 40.234375 45.921875 
Q 44.09375 48.828125 44.09375 54.296875 
Q 44.09375 59.90625 40.109375 62.90625 
Q 36.140625 65.921875 28.71875 65.921875 
Q 24.65625 65.921875 20.015625 65.03125 
Q 15.375 64.15625 9.8125 62.3125 
L 9.8125 71.09375 
Q 15.4375 72.65625 20.34375 73.4375 
Q 25.25 74.21875 29.59375 74.21875 
Q 40.828125 74.21875 47.359375 69.109375 
Q 53.90625 64.015625 53.90625 55.328125 
Q 53.90625 49.265625 50.4375 45.09375 
Q 46.96875 40.921875 40.578125 39.3125 
z
" id="DejaVuSans-51"/>
       </defs>
       <use xlink:href="#DejaVuSans-8722"/>
       <use x="83.789062" xlink:href="#DejaVuSans-51"/>
      </g>
     </g>
    </g>
    <g id="ytick_2">
     <g id="line2d_8">
      <g>
       <use style="stroke:#000000;stroke-width:0.8;" x="57.6" xlink:href="#md72bed8119" y="251.533749"/>
      </g>
     </g>
     <g id="text_8">
      <!-- −2 -->
      <g transform="translate(35.857813 255.332967)scale(0.1 -0.1)">
       <use xlink:href="#DejaVuSans-8722"/>
       <use x="83.789062" xlink:href="#DejaVuSans-50"/>
      </g>
     </g>
    </g>
    <g id="ytick_3">
     <g id="line2d_9">
      <g>
       <use style="stroke:#000000;stroke-width:0.8;" x="57.6" xlink:href="#md72bed8119" y="213.03059"/>
      </g>
     </g>
     <g id="text_9">
      <!-- −1 -->
      <g transform="translate(35.857813 216.829809)scale(0.1 -0.1)">
       <use xlink:href="#DejaVuSans-8722"/>
       <use x="83.789062" xlink:href="#DejaVuSans-49"/>
      </g>
     </g>
    </g>
    <g id="ytick_4">
     <g id="line2d_10">
      <g>
       <use style="stroke:#000000;stroke-width:0.8;" x="57.6" xlink:href="#md72bed8119" y="174.527432"/>
      </g>
     </g>
     <g id="text_10">
      <!-- 0 -->
      <g transform="translate(44.2375 178.32665)scale(0.1 -0.1)">
       <use xlink:href="#DejaVuSans-48"/>
      </g>
     </g>
    </g>
    <g id="ytick_5">
     <g id="line2d_11">
      <g>
       <use style="stroke:#000000;stroke-width:0.8;" x="57.6" xlink:href="#md72bed8119" y="136.024273"/>
      </g>
     </g>
     <g id="text_11">
      <!-- 1 -->
      <g transform="translate(44.2375 139.823492)scale(0.1 -0.1)">
       <use xlink:href="#DejaVuSans-49"/>
      </g>
     </g>
    </g>
    <g id="ytick_6">
     <g id="line2d_12">
      <g>
       <use style="stroke:#000000;stroke-width:0.8;" x="57.6" xlink:href="#md72bed8119" y="97.521115"/>
      </g>
     </g>
     <g id="text_12">
      <!-- 2 -->
      <g transform="translate(44.2375 101.320333)scale(0.1 -0.1)">
       <use xlink:href="#DejaVuSans-50"/>
      </g>
     </g>
    </g>
    <g id="ytick_7">
     <g id="line2d_13">
      <g>
       <use style="stroke:#000000;stroke-width:0.8;" x="57.6" xlink:href="#md72bed8119" y="59.017956"/>
      </g>
     </g>
     <g id="text_13">
      <!-- 3 -->
      <g transform="translate(44.2375 62.817175)scale(0.1 -0.1)">
       <use xlink:href="#DejaVuSans-51"/>
      </g>
     </g>
    </g>
   </g>
   <g id="line2d_14">
    <path clip-path="url(#p95d934c19b)" d="M 73.832727 174.540962 
L 82.675457 174.502576 
L 82.815818 174.40237 
L 83.096539 175.937014 
L 83.2369 175.608214 
L 83.517622 175.70153 
L 83.798343 173.926828 
L 83.938704 174.1342 
L 84.500147 174.215027 
L 96.150093 174.35043 
L 99.939834 174.623536 
L 100.501277 175.081055 
L 101.203081 176.045192 
L 102.185607 177.783674 
L 102.466328 178.511527 
L 102.74705 178.488082 
L 103.168132 179.897067 
L 103.448854 179.957714 
L 103.869936 181.620145 
L 104.150658 180.514731 
L 104.57174 182.84816 
L 104.852462 183.59639 
L 105.273544 186.011822 
L 105.413905 185.792506 
L 105.554266 186.606781 
L 105.834988 189.237183 
L 105.975348 189.877964 
L 106.115709 189.801289 
L 106.25607 190.488948 
L 106.677152 193.876741 
L 106.817513 193.463799 
L 106.957874 194.244517 
L 107.378956 198.800435 
L 107.519317 199.174856 
L 107.800038 202.677449 
L 108.080761 206.011955 
L 108.221122 206.570651 
L 108.782567 213.452807 
L 108.922927 213.822286 
L 109.34401 219.211099 
L 109.484372 218.865648 
L 109.624732 219.221626 
L 110.045814 223.269749 
L 110.326536 224.1138 
L 111.02834 227.760223 
L 111.309062 228.087141 
L 111.449422 227.728098 
L 111.730144 224.728376 
L 112.151226 223.652072 
L 112.431948 224.34383 
L 112.85303 221.690019 
L 112.993392 222.556294 
L 113.133752 222.43229 
L 113.554834 217.999059 
L 113.695195 218.008947 
L 113.835556 217.274863 
L 114.256638 212.640052 
L 114.396999 213.220201 
L 114.53736 212.175163 
L 114.818082 208.227807 
L 114.958442 207.857039 
L 115.098803 208.653243 
L 115.239164 207.878281 
L 115.660246 203.295836 
L 116.081328 199.705333 
L 116.36205 198.132417 
L 116.502411 198.524465 
L 116.642772 198.062182 
L 116.923493 195.892452 
L 117.063854 195.805282 
L 117.204215 196.580232 
L 117.344575 196.461723 
L 117.906018 193.349737 
L 118.327101 191.445696 
L 118.467462 191.358713 
L 118.607822 191.73428 
L 118.748183 191.657672 
L 119.169266 190.558383 
L 119.309626 190.525729 
L 119.730709 189.924584 
L 120.151791 189.202253 
L 120.572873 189.12 
L 120.713234 188.977485 
L 120.853595 189.001984 
L 121.274677 189.685082 
L 121.836121 191.195666 
L 122.678285 194.470638 
L 122.818646 194.111092 
L 122.959007 194.368813 
L 123.380089 196.611983 
L 123.52045 196.875904 
L 123.801172 198.595325 
L 124.081893 199.994793 
L 124.222254 199.622105 
L 124.362615 200.06338 
L 124.643337 202.658971 
L 124.783697 202.758747 
L 124.924058 201.713885 
L 125.064419 202.112562 
L 125.345141 205.260185 
L 125.485502 205.037675 
L 125.625862 203.88022 
L 125.766223 204.617754 
L 126.187305 208.711749 
L 126.327666 209.32886 
L 126.889109 213.525033 
L 127.029469 213.226394 
L 127.310191 215.616276 
L 127.590913 217.515185 
L 127.731274 217.946 
L 128.152356 221.575157 
L 128.292717 221.465178 
L 128.433078 221.010073 
L 128.713799 223.312598 
L 128.85416 224.357628 
L 129.134882 223.740246 
L 129.555964 226.997307 
L 129.836686 225.916839 
L 130.53849 231.750855 
L 130.959571 234.888179 
L 131.240294 232.556828 
L 131.801737 236.262733 
L 132.082458 238.037254 
L 132.36318 240.044712 
L 132.503541 239.96582 
L 132.643902 240.277753 
L 133.064984 243.377046 
L 133.205345 243.434116 
L 133.345706 243.870937 
L 133.766788 246.363085 
L 133.907149 244.922874 
L 134.04751 244.648204 
L 135.030035 253.62536 
L 135.170396 253.566723 
L 135.310756 251.795788 
L 135.451117 251.623758 
L 136.01256 256.355413 
L 136.433643 260.061968 
L 136.574004 259.663401 
L 136.714364 257.985727 
L 136.854725 258.114094 
L 137.135446 260.511846 
L 137.275807 260.809186 
L 137.416168 260.644265 
L 137.696889 262.420169 
L 138.117972 264.778106 
L 139.240858 271.231852 
L 139.381219 271.388208 
L 139.52158 271.146564 
L 139.66194 271.562583 
L 139.942662 273.156916 
L 140.083023 272.499752 
L 140.223383 271.185072 
L 140.363744 271.29414 
L 140.644466 272.791985 
L 140.784827 272.902402 
L 140.925187 272.815003 
L 141.205909 274.034717 
L 142.048074 277.744396 
L 142.188435 277.830514 
L 142.328795 277.772812 
L 142.749878 279.392472 
L 142.890239 279.172526 
L 143.030599 278.770521 
L 143.17096 279.089137 
L 143.451682 280.232788 
L 143.732403 280.023144 
L 144.013125 281.013261 
L 144.153486 281.466619 
L 144.434207 281.215975 
L 144.714929 282.147342 
L 145.697454 285.475467 
L 146.118537 286.7977 
L 146.258897 287.195901 
L 146.539619 286.87119 
L 146.67998 287.153675 
L 146.960701 287.912351 
L 147.241423 285.621936 
L 147.381784 285.778836 
L 147.662505 286.557341 
L 147.943227 286.189557 
L 148.364309 287.300104 
L 149.627556 291.6137 
L 149.767917 291.622384 
L 150.048639 289.522305 
L 150.189 289.552326 
L 150.469721 290.181687 
L 150.890803 291.645125 
L 151.171525 292.101714 
L 151.452247 292.02953 
L 152.01369 292.640349 
L 152.154051 292.658917 
L 152.575133 293.168226 
L 152.855855 293.038426 
L 153.136576 293.306206 
L 153.276937 293.609827 
L 153.557658 295.302163 
L 153.698019 53.621564 
L 153.978741 53.833003 
L 154.119102 53.635707 
L 154.259462 295.390085 
L 154.399823 295.445392 
L 154.540184 53.70853 
L 154.680545 53.593659 
L 154.820906 294.446397 
L 154.961266 293.443195 
L 155.101627 293.348397 
L 155.382349 293.609484 
L 155.803431 294.364783 
L 156.084153 294.52731 
L 156.364874 294.39886 
L 159.17209 295.39031 
L 159.593172 295.460306 
L 159.733533 53.568 
L 161.137141 53.940632 
L 161.698584 54.6559 
L 162.260028 56.140338 
L 162.400388 56.191192 
L 162.68111 54.32243 
L 162.821471 54.528642 
L 163.102192 55.403239 
L 163.382914 55.631328 
L 163.803996 57.388346 
L 164.365439 60.931263 
L 164.5058 61.494523 
L 164.786522 61.042357 
L 165.207604 63.377389 
L 165.488326 62.972902 
L 165.909408 65.841629 
L 166.19013 64.742164 
L 166.611212 68.133484 
L 166.751573 67.52565 
L 166.891934 67.437069 
L 167.453377 72.117814 
L 167.593738 73.072516 
L 168.01482 78.373312 
L 168.155181 78.284604 
L 168.295543 79.263915 
L 168.716624 85.456308 
L 168.856986 86.14385 
L 169.41843 94.092182 
L 169.55879 94.138953 
L 170.681678 106.683471 
L 170.962399 107.064403 
L 171.523843 113.090876 
L 171.664204 113.707298 
L 172.085286 118.828169 
L 172.225648 118.697208 
L 172.366008 119.033185 
L 172.78709 123.706485 
L 172.927452 123.481741 
L 173.067813 123.89843 
L 173.629256 129.208778 
L 173.909977 131.832278 
L 174.190699 134.723361 
L 174.33106 134.710527 
L 174.611781 136.95237 
L 174.892503 138.972987 
L 175.032864 139.038336 
L 175.313585 140.978782 
L 175.594307 142.950809 
L 175.734668 142.641254 
L 176.296111 146.096744 
L 176.436472 146.043677 
L 176.857555 149.130148 
L 176.997916 149.065872 
L 177.138276 148.507046 
L 177.418997 150.259585 
L 177.559359 151.605213 
L 177.69972 151.74517 
L 177.84008 151.552489 
L 178.962967 159.336692 
L 179.103328 159.638323 
L 179.243688 159.635006 
L 179.664771 162.650948 
L 179.945492 162.352569 
L 180.366575 164.837288 
L 180.506936 164.801656 
L 180.647296 164.904655 
L 181.770183 170.176357 
L 182.050904 169.036891 
L 182.471986 170.495869 
L 182.752708 169.333105 
L 183.17379 170.857631 
L 183.454512 173.420092 
L 183.735234 174.227233 
L 183.875595 174.793563 
L 184.156316 173.870036 
L 184.437038 174.783188 
L 184.577398 174.824737 
L 184.85812 173.317961 
L 185.279202 174.416684 
L 185.559924 176.728242 
L 185.700285 176.867573 
L 185.981006 177.45252 
L 186.261728 176.114231 
L 186.54245 176.813202 
L 186.68281 176.846278 
L 186.963532 176.062511 
L 187.524975 177.015671 
L 187.805697 177.299987 
L 188.086418 177.416595 
L 188.647861 177.271162 
L 189.209305 177.136583 
L 189.490026 176.87595 
L 189.630387 176.878219 
L 189.911109 176.522536 
L 190.19183 176.069021 
L 190.332191 176.084178 
L 190.472552 175.920868 
L 190.893634 174.905932 
L 191.033995 174.904947 
L 191.174356 174.680684 
L 191.595438 173.364842 
L 191.735799 173.448952 
L 191.87616 173.222458 
L 192.297242 171.65344 
L 192.437603 172.154735 
L 192.577964 172.105 
L 192.999046 170.053967 
L 193.139407 170.61586 
L 193.279768 170.401167 
L 194.402654 163.113354 
L 194.543015 163.351465 
L 194.823736 161.118805 
L 196.227346 141.687757 
L 196.648428 134.150084 
L 197.209876 123.303826 
L 197.490596 118.916928 
L 197.771318 114.591524 
L 197.91168 114.090962 
L 198.192401 109.974204 
L 198.473123 105.63606 
L 198.613484 104.864382 
L 199.736372 90.388322 
L 200.017094 89.225039 
L 200.438176 85.078107 
L 200.718898 85.599479 
L 201.13998 82.346378 
L 201.420702 83.267796 
L 201.841784 80.658453 
L 202.122506 81.611643 
L 202.543588 79.571362 
L 202.82431 80.293327 
L 203.245392 78.45545 
L 203.806835 76.728497 
L 204.508639 74.833704 
L 205.350804 73.399775 
L 205.631526 73.597026 
L 206.192969 72.657873 
L 206.894773 71.851742 
L 207.035134 71.833089 
L 207.456216 71.193928 
L 207.736938 71.776037 
L 208.15802 71.023675 
L 208.438742 70.916984 
L 208.859824 70.182032 
L 209.140545 70.154427 
L 209.561628 69.402945 
L 209.842349 69.274172 
L 210.123071 68.728348 
L 210.263432 68.692207 
L 210.544153 69.682292 
L 210.965236 68.70762 
L 211.245957 67.235731 
L 211.526679 66.690995 
L 211.66704 66.695938 
L 211.947761 67.889158 
L 213.070648 65.369036 
L 213.49173 63.960447 
L 213.632091 63.663369 
L 213.772452 63.667655 
L 214.053173 65.045676 
L 214.333895 64.420382 
L 214.474255 64.393197 
L 214.754977 65.325442 
L 215.456781 63.871862 
L 215.737503 63.238793 
L 215.877863 63.31543 
L 216.158585 64.47997 
L 217.00075 62.569253 
L 217.842914 60.763177 
L 217.983275 60.874382 
L 218.263997 62.176702 
L 218.685079 60.810592 
L 218.965801 58.67135 
L 219.246522 57.989385 
L 219.386883 58.181951 
L 219.667605 59.856123 
L 220.088687 58.934698 
L 220.229048 59.181053 
L 220.369409 59.200759 
L 220.65013 58.408654 
L 220.790491 57.654262 
L 221.071213 55.226437 
L 221.492295 54.204893 
L 221.773017 55.003416 
L 221.913377 54.289599 
L 222.053738 295.484824 
L 222.194099 295.182994 
L 222.33446 53.721842 
L 222.47482 53.652603 
L 222.615181 294.643811 
L 222.895903 292.915151 
L 223.176624 291.877202 
L 223.597707 288.998065 
L 223.738068 289.767448 
L 223.878428 289.721637 
L 224.299511 286.294174 
L 224.439872 287.468911 
L 224.580232 287.387809 
L 225.141675 281.221822 
L 225.422397 277.503753 
L 225.703118 274.171685 
L 225.843479 275.020889 
L 225.98384 274.403369 
L 226.404923 268.164617 
L 226.545284 268.803732 
L 226.685644 267.467384 
L 227.106727 260.799901 
L 227.247088 260.536067 
L 227.66817 254.404789 
L 227.808531 254.56207 
L 227.948892 255.238329 
L 228.369974 250.929692 
L 228.650696 252.305157 
L 229.212139 248.678992 
L 229.3525 248.487726 
L 230.194665 244.345929 
L 230.475386 243.469585 
L 231.03683 243.06982 
L 231.17719 243.163177 
L 231.738634 245.147635 
L 231.878994 245.341244 
L 232.159716 244.153609 
L 232.300077 244.446468 
L 232.580798 245.405754 
L 232.86152 243.791876 
L 233.142241 244.897552 
L 234.124767 249.289395 
L 234.405489 250.852053 
L 234.68621 251.715686 
L 234.966932 251.047199 
L 235.388014 252.191177 
L 235.668736 251.773083 
L 236.089818 252.822575 
L 236.37054 252.438735 
L 236.791622 253.339027 
L 237.072344 252.758382 
L 237.493426 253.526067 
L 237.774148 252.954444 
L 238.19523 253.720029 
L 238.475951 253.632706 
L 239.458477 255.210257 
L 239.739199 255.382736 
L 240.01992 255.635337 
L 240.160281 255.868915 
L 240.300642 255.845568 
L 240.581363 255.083586 
L 240.862085 255.346265 
L 241.002446 255.757117 
L 241.283167 257.510751 
L 241.563889 257.922907 
L 241.70425 257.918746 
L 241.984971 257.378624 
L 242.686775 258.381039 
L 243.107858 259.458952 
L 243.52894 261.366306 
L 243.669301 261.766791 
L 243.809661 261.78691 
L 244.090383 260.826835 
L 244.511465 261.835157 
L 244.792187 261.35598 
L 245.634352 264.056035 
L 245.774713 264.76261 
L 245.915073 264.704236 
L 246.195795 262.636347 
L 246.476516 263.893325 
L 247.318681 269.235109 
L 247.599402 266.879797 
L 248.301206 271.308038 
L 248.722289 274.117908 
L 248.86265 273.809078 
L 249.00301 274.124062 
L 249.424093 277.016122 
L 249.564453 276.000113 
L 249.704814 276.155885 
L 250.125896 279.689349 
L 250.266257 279.782829 
L 250.546979 282.078541 
L 250.827701 283.993248 
L 250.968061 283.448305 
L 251.108422 284.157485 
L 251.389144 287.268502 
L 251.529505 286.989777 
L 251.669865 285.837179 
L 251.810226 286.550048 
L 252.652391 294.706503 
L 252.792752 53.994073 
L 252.933113 53.763667 
L 253.073473 294.842819 
L 253.213834 295.402094 
L 253.354195 54.696653 
L 253.494556 55.716991 
L 253.634916 55.672128 
L 253.775277 55.317381 
L 254.055999 57.093053 
L 254.33672 58.592715 
L 254.477081 59.031195 
L 254.898163 61.641683 
L 255.178885 60.621357 
L 255.459607 62.080997 
L 255.599968 62.790627 
L 255.880689 63.010054 
L 256.442132 65.05655 
L 256.582493 65.07827 
L 257.003575 66.571381 
L 257.284297 64.189247 
L 257.565018 65.179562 
L 257.84574 67.130017 
L 258.126462 68.852606 
L 258.407183 69.640617 
L 258.687905 68.527181 
L 258.968626 69.313958 
L 259.810791 72.089644 
L 260.091513 71.189919 
L 260.372234 71.783115 
L 261.074038 73.863144 
L 261.214399 73.810669 
L 261.49512 72.002317 
L 261.635481 72.106258 
L 262.056564 72.676465 
L 262.477646 73.180085 
L 263.319811 74.161324 
L 263.600532 73.918888 
L 264.161976 74.323401 
L 265.284862 75.075931 
L 266.127027 75.252476 
L 266.407748 75.862293 
L 266.828831 76.029647 
L 267.109552 76.659178 
L 267.390274 76.755075 
L 267.530634 76.519643 
L 267.811356 74.95237 
L 268.092078 74.89106 
L 268.232438 75.028455 
L 268.51316 75.860106 
L 268.793882 75.951087 
L 268.934242 75.805119 
L 269.214964 74.79526 
L 269.495686 74.765585 
L 269.636046 74.863931 
L 269.916768 75.441527 
L 270.33785 75.46651 
L 270.618572 75.187968 
L 270.899293 75.178406 
L 271.039654 75.341904 
L 271.320376 76.307757 
L 272.302901 76.657495 
L 272.443262 76.482643 
L 272.723984 75.273962 
L 273.004705 75.233308 
L 273.145066 75.350068 
L 273.425788 76.025351 
L 273.706509 76.097731 
L 273.84687 75.93383 
L 274.127592 74.873977 
L 274.408313 74.846865 
L 274.548674 74.935329 
L 274.829396 75.415352 
L 275.250478 75.623767 
L 275.531199 76.834464 
L 275.811921 76.909507 
L 275.952282 76.831003 
L 276.233003 76.239301 
L 276.654086 76.11839 
L 276.934807 75.247058 
L 277.35589 75.309546 
L 277.636611 75.75582 
L 278.057694 75.757975 
L 278.338415 75.574622 
L 278.759498 75.629952 
L 279.040219 75.93919 
L 279.461302 75.895605 
L 279.742023 75.450778 
L 280.303466 75.540457 
L 281.00527 75.869782 
L 281.285992 76.019159 
L 281.426353 76.049898 
L 281.566713 75.92454 
L 281.847435 75.216982 
L 282.408878 75.086107 
L 282.829961 74.979619 
L 282.970321 75.276613 
L 283.251043 76.840389 
L 283.531765 76.902677 
L 283.672125 76.761522 
L 283.952847 75.882635 
L 284.373929 75.779739 
L 284.654651 75.214997 
L 285.075733 75.198252 
L 285.356455 75.339609 
L 285.637176 75.237452 
L 285.777537 75.384224 
L 286.058259 76.278123 
L 286.479341 76.015654 
L 286.760063 75.325111 
L 287.181145 75.04739 
L 287.461867 75.202046 
L 287.882949 74.550519 
L 288.304031 73.470073 
L 288.584753 72.612579 
L 288.725114 72.556123 
L 288.865475 72.232754 
L 289.286557 70.265122 
L 289.426918 70.348092 
L 289.567279 70.012325 
L 289.988361 67.238665 
L 290.128722 67.848517 
L 290.269083 67.800581 
L 290.830526 63.58801 
L 290.970887 62.875995 
L 291.391969 57.734389 
L 291.53233 57.605453 
L 291.813051 54.037043 
L 291.953416 293.490373 
L 292.234134 289.727341 
L 294.05883 245.820179 
L 294.199192 245.011698 
L 295.32208 232.596461 
L 296.164244 227.192838 
L 296.444965 225.987038 
L 297.28713 222.079372 
L 297.708212 220.704981 
L 298.269656 218.723448 
L 298.410016 218.792799 
L 298.97146 216.892728 
L 299.11182 217.177033 
L 299.392542 216.04659 
L 299.532903 215.257237 
L 299.673264 215.436618 
L 299.813624 216.21006 
L 300.094346 214.973738 
L 300.234707 214.069667 
L 300.375068 214.141901 
L 300.515428 214.653469 
L 301.497954 209.083991 
L 301.778676 207.521188 
L 301.919036 207.295717 
L 302.761202 199.588094 
L 303.041924 198.311969 
L 303.322645 195.909557 
L 303.603367 195.207429 
L 303.743728 195.090017 
L 304.024449 196.174603 
L 304.305171 196.2261 
L 304.445532 196.437767 
L 305.006975 198.490029 
L 305.147336 198.848908 
L 305.428057 197.659736 
L 305.849139 199.998481 
L 306.129861 199.494712 
L 306.691304 203.468944 
L 306.831665 204.263532 
L 307.252748 209.183282 
L 307.393109 209.070828 
L 307.533469 210.021235 
L 307.954552 216.575613 
L 308.094914 217.358229 
L 308.375635 221.310355 
L 308.656357 224.551896 
L 308.796718 224.58116 
L 309.077439 228.398754 
L 309.358161 231.30704 
L 309.498522 231.523195 
L 310.059966 237.711749 
L 310.200327 238.195209 
L 310.761771 244.70057 
L 310.902132 245.565384 
L 311.323215 251.389159 
L 311.463575 251.563049 
L 311.603936 252.167483 
L 312.025019 257.974017 
L 312.165379 257.764128 
L 312.30574 258.422301 
L 312.726823 264.629025 
L 312.867184 264.566209 
L 313.007543 265.614905 
L 313.428627 271.369144 
L 313.568988 271.112837 
L 313.709348 272.286139 
L 313.990071 276.723028 
L 314.130431 277.288865 
L 314.270793 276.985814 
L 314.551514 280.839 
L 314.691875 282.882405 
L 314.832236 283.288648 
L 314.972597 283.141072 
L 315.393679 288.483849 
L 315.53404 288.027244 
L 315.674401 287.999256 
L 316.235845 294.547974 
L 316.376206 54.078907 
L 316.797288 57.774113 
L 317.07801 56.946184 
L 317.499092 59.652401 
L 317.779814 57.930793 
L 318.200896 60.319035 
L 318.341257 60.330646 
L 318.481618 60.541904 
L 318.9027 62.337571 
L 319.183422 61.90343 
L 319.604504 63.349626 
L 319.885226 63.488084 
L 320.306308 64.433714 
L 320.58703 64.24159 
L 320.867751 64.67017 
L 321.008112 64.622322 
L 321.288834 63.754978 
L 321.569555 63.832908 
L 321.709916 64.139594 
L 321.990638 65.901586 
L 322.41172 65.885872 
L 322.692442 65.699585 
L 323.253885 66.223754 
L 323.534606 66.730205 
L 323.815328 67.324593 
L 323.955689 67.228013 
L 324.096049 67.382395 
L 324.938214 71.286876 
L 325.218936 72.545766 
L 325.499657 71.084018 
L 325.92074 74.394655 
L 326.0611 74.234006 
L 326.201461 74.590092 
L 326.762904 79.678453 
L 326.903265 80.640729 
L 327.324348 85.84994 
L 327.464708 84.84338 
L 327.605069 84.780191 
L 328.026152 91.328903 
L 328.166512 90.578319 
L 328.306873 91.043171 
L 328.727956 97.303271 
L 328.868316 96.347273 
L 329.008676 97.329433 
L 329.429759 103.568499 
L 329.57012 104.003115 
L 330.131563 109.983952 
L 330.271925 109.418209 
L 330.552646 112.475732 
L 330.833368 114.653034 
L 330.973728 115.007132 
L 331.394811 118.950263 
L 331.675533 117.761478 
L 332.096615 120.014342 
L 332.377337 117.317292 
L 332.798419 118.54186 
L 333.07914 120.241417 
L 333.219501 120.317042 
L 333.500223 119.865321 
L 333.640584 119.903034 
L 333.780944 119.790429 
L 334.202027 117.711041 
L 334.482748 118.305071 
L 334.903831 114.816395 
L 335.044191 115.799647 
L 335.184552 115.749112 
L 335.605635 110.54663 
L 335.745996 111.127158 
L 335.886355 110.126485 
L 336.307439 103.030798 
L 336.4478 102.764746 
L 336.58816 100.998754 
L 336.868882 94.774374 
L 337.009243 93.945024 
L 337.149605 94.172299 
L 337.430326 89.155222 
L 337.570687 86.989738 
L 337.851409 87.867208 
L 338.272492 82.99058 
L 338.553213 82.20991 
L 338.833935 81.605431 
L 338.974296 81.704616 
L 339.114657 81.990832 
L 339.395378 83.578817 
L 339.6761 86.583358 
L 339.956823 85.309796 
L 340.377905 91.6173 
L 340.518266 91.182162 
L 340.658625 92.108968 
L 341.07971 99.323766 
L 341.220071 99.647914 
L 341.500793 103.3399 
L 341.781514 106.532884 
L 341.921875 105.462086 
L 342.062235 105.798945 
L 342.483318 110.145634 
L 342.623678 109.569138 
L 342.764039 109.85983 
L 343.746564 118.677481 
L 343.886925 118.910097 
L 344.027286 117.966389 
L 344.167647 117.812047 
L 344.58873 120.093973 
L 344.869451 118.952573 
L 345.430894 122.622323 
L 345.992337 125.966909 
L 346.132698 125.751592 
L 346.273059 125.93684 
L 346.694141 128.425161 
L 346.834502 128.458377 
L 346.974863 128.794212 
L 347.395945 131.130123 
L 347.676667 129.614945 
L 348.097749 132.217132 
L 348.23811 131.70641 
L 348.378471 131.639061 
L 348.939914 136.269343 
L 349.501357 140.905886 
L 349.641717 140.293446 
L 349.782078 140.233326 
L 350.203161 144.227205 
L 350.343521 143.627484 
L 350.483882 143.578888 
L 350.904965 147.324852 
L 351.045326 147.007 
L 351.185686 147.512004 
L 351.606769 150.870547 
L 351.74713 150.456493 
L 351.88749 150.977865 
L 352.308573 153.657204 
L 352.448934 152.834151 
L 352.589294 153.279587 
L 353.571819 161.135643 
L 353.71218 161.165466 
L 353.852542 160.18095 
L 353.992902 160.539013 
L 354.273624 162.53103 
L 354.413983 162.046897 
L 354.554346 161.080046 
L 354.835067 162.407679 
L 355.677232 167.719904 
L 355.957954 165.840187 
L 356.098314 166.092118 
L 356.659757 168.159564 
L 357.2212 169.909343 
L 357.361561 169.885398 
L 357.782644 171.211105 
L 357.923004 171.115221 
L 358.063365 170.849293 
L 358.344087 171.516115 
L 358.484448 171.904399 
L 358.624808 171.806964 
L 358.765169 171.554531 
L 359.045891 172.084803 
L 359.186251 172.400686 
L 359.607334 172.539126 
L 360.028416 173.169667 
L 360.309138 173.426447 
L 360.870581 174.022578 
L 361.572385 174.465085 
L 362.133828 174.559912 
L 370.134393 174.547464 
L 398.487273 174.541436 
L 398.487273 174.541436 
" style="fill:none;stroke:#1f77b4;stroke-linecap:square;stroke-width:1.5;"/>
   </g>
   <g id="line2d_15">
    <path clip-path="url(#p95d934c19b)" d="M 73.832727 174.452946 
L 83.631618 174.52716 
L 84.063922 174.56639 
L 85.072632 174.602683 
L 103.805806 174.621476 
L 103.949907 174.676829 
L 104.23811 174.527532 
L 104.526311 175.449986 
L 104.958608 177.709324 
L 105.24681 178.386114 
L 105.39091 178.794747 
L 105.679113 178.481628 
L 106.255415 189.273151 
L 106.543618 189.336109 
L 107.120023 189.362101 
L 107.408226 189.513562 
L 107.696427 190.538769 
L 108.560962 203.583876 
L 109.281438 214.251575 
L 109.425513 216.941391 
L 109.713715 217.875405 
L 110.434221 217.97843 
L 110.722424 218.108612 
L 111.154728 218.235285 
L 111.731133 218.542902 
L 112.45164 218.36135 
L 113.172147 218.28734 
L 113.460349 218.194572 
L 113.748552 217.800643 
L 114.180854 215.477771 
L 114.61315 212.762862 
L 115.045426 207.090228 
L 115.189526 206.403631 
L 115.765916 200.824393 
L 116.486422 199.462929 
L 116.630523 199.112505 
L 117.062823 196.803681 
L 117.351025 196.41519 
L 117.639228 196.330716 
L 118.503836 196.2347 
L 118.93614 196.116879 
L 119.512546 196.116965 
L 121.529964 196.063464 
L 123.547383 196.252365 
L 124.26789 196.341608 
L 124.411991 196.479352 
L 124.84429 198.861657 
L 124.98839 199.34059 
L 126.717565 211.536895 
L 127.293966 213.961603 
L 129.023166 221.796869 
L 129.887772 223.772916 
L 130.320062 227.538305 
L 130.464162 228.019444 
L 131.040544 233.545641 
L 131.905151 234.94648 
L 132.337451 237.261921 
L 133.346153 240.729834 
L 133.778442 244.444692 
L 134.210744 245.632759 
L 134.498946 246.199917 
L 134.787146 247.427222 
L 135.219435 251.063811 
L 135.363536 251.397672 
L 135.795836 253.575784 
L 136.084037 254.835674 
L 136.804531 258.941474 
L 137.236815 263.90482 
L 137.380909 264.863664 
L 137.813213 265.168317 
L 137.957314 265.347557 
L 138.966024 265.454566 
L 139.398328 265.892921 
L 139.83063 267.392216 
L 140.11883 268.359157 
L 140.262931 268.625426 
L 140.695202 273.908083 
L 140.983402 274.884138 
L 141.271604 275.498703 
L 141.559806 275.967092 
L 141.703907 276.043388 
L 142.13621 277.052863 
L 142.568513 277.411752 
L 143.000817 277.949595 
L 143.144918 278.221625 
L 143.577217 280.13395 
L 144.297723 281.213567 
L 144.585925 281.74035 
L 145.018226 283.277912 
L 145.306428 283.704262 
L 145.450529 283.96298 
L 146.60334 284.004972 
L 147.179744 285.182923 
L 147.612039 289.234146 
L 147.756117 290.962386 
L 148.332521 292.449185 
L 149.485332 292.595195 
L 149.773534 292.678704 
L 150.061737 292.33342 
L 150.782236 295.019424 
L 151.646844 294.992093 
L 152.367351 294.994303 
L 154.096567 295.099824 
L 155.53758 295.27756 
L 155.969884 295.480284 
L 156.113986 53.572379 
L 156.258087 295.482976 
L 157.554999 295.464539 
L 162.742647 295.448145 
L 162.886748 53.608519 
L 163.03085 53.695194 
L 163.46315 55.046912 
L 163.751352 55.10994 
L 164.760062 55.047072 
L 165.192365 55.495893 
L 165.480568 55.435915 
L 165.624669 55.351688 
L 166.201073 56.375753 
L 166.489272 57.694681 
L 166.921552 61.295806 
L 167.642043 64.849268 
L 168.506603 72.050737 
L 168.938748 80.498705 
L 169.082845 81.139064 
L 169.514971 91.254021 
L 170.091343 96.399359 
L 170.379529 98.367439 
L 170.523627 99.001826 
L 170.955896 103.524423 
L 171.099995 104.011698 
L 171.532254 109.46076 
L 171.82045 111.567201 
L 172.252736 114.43123 
L 172.685028 118.588182 
L 172.973205 120.900959 
L 173.117304 121.422647 
L 173.549566 126.404988 
L 173.693666 126.795035 
L 174.125948 130.990128 
L 174.558238 133.7767 
L 174.846412 137.522648 
L 175.134614 137.937982 
L 175.566904 140.915831 
L 175.711005 141.231501 
L 176.2874 144.413617 
L 176.575602 145.024556 
L 177.0079 146.939673 
L 177.152001 147.160749 
L 177.584296 149.688332 
L 177.872497 150.846474 
L 178.592991 154.208807 
L 179.025276 157.416307 
L 179.169377 157.642911 
L 179.601664 161.293414 
L 179.889863 162.999108 
L 180.178057 165.846015 
L 180.466233 168.145356 
L 180.610333 168.5293 
L 181.042632 170.493217 
L 181.186733 170.800919 
L 183.204152 170.7425 
L 183.924658 170.876312 
L 184.212861 170.983877 
L 185.365672 170.992914 
L 185.653874 170.932182 
L 185.942077 171.017602 
L 186.518482 171.231956 
L 187.671293 171.18633 
L 189.832813 171.173023 
L 194.011752 171.04277 
L 194.299954 171.040966 
L 194.444056 171.001201 
L 194.732258 171.235102 
L 195.164539 168.089588 
L 195.30864 167.913542 
L 195.740786 158.769198 
L 196.028961 154.523832 
L 196.893403 137.567093 
L 197.181504 131.291789 
L 197.325592 129.69704 
L 197.75785 120.576222 
L 197.901941 118.847313 
L 198.334143 108.104371 
L 198.478241 107.135209 
L 198.910492 97.666127 
L 199.05459 96.483824 
L 199.630953 83.492362 
L 199.919156 83.388728 
L 200.207357 81.790677 
L 200.49556 81.847626 
L 200.783763 81.3518 
L 201.071965 81.447646 
L 201.648367 76.662297 
L 201.936569 76.47523 
L 202.224771 75.32504 
L 202.657075 75.097903 
L 202.801177 75.072073 
L 203.23348 74.669195 
L 203.953987 74.658712 
L 205.106798 74.616698 
L 205.539102 74.364773 
L 205.827304 74.253873 
L 206.547811 74.260289 
L 207.412419 73.984266 
L 207.844723 73.3727 
L 208.132926 73.298312 
L 209.429838 73.188481 
L 210.150344 72.859162 
L 210.582648 72.129187 
L 211.014952 72.367633 
L 211.303155 72.322058 
L 211.447256 72.256701 
L 211.87956 71.525559 
L 212.167762 71.081467 
L 212.311863 70.966215 
L 213.032369 69.677296 
L 213.176471 69.601654 
L 213.608774 68.937 
L 213.752876 68.864788 
L 214.329278 66.414823 
L 214.61748 65.824544 
L 215.049782 64.140318 
L 215.193883 63.985278 
L 215.770285 61.287846 
L 216.058487 60.515026 
L 216.490788 58.560216 
L 216.634889 58.362578 
L 217.211292 56.325506 
L 217.643596 55.652653 
L 217.787697 55.344706 
L 218.364102 55.71357 
L 219.084608 54.933355 
L 219.372811 55.129645 
L 219.661014 55.321792 
L 219.805115 55.364921 
L 220.237419 55.125519 
L 220.669723 55.047176 
L 221.102027 54.657938 
L 221.390229 54.625492 
L 222.254837 54.626678 
L 222.975344 54.650097 
L 223.263545 53.628554 
L 223.407647 295.360572 
L 223.839951 294.856164 
L 224.128153 295.135757 
L 224.704558 294.065857 
L 224.99276 293.795125 
L 225.425024 288.025557 
L 225.569124 287.339347 
L 226.001372 278.60682 
L 226.433634 272.236736 
L 226.721759 263.721279 
L 227.009959 262.019196 
L 227.442227 254.124307 
L 227.874525 250.771788 
L 228.018626 250.889996 
L 228.162728 251.024948 
L 229.45964 250.950347 
L 229.891944 250.886575 
L 230.900653 250.638223 
L 232.053464 250.676998 
L 232.629869 250.653446 
L 232.77397 250.610783 
L 233.206274 250.790735 
L 233.350376 250.800306 
L 234.070881 252.372455 
L 235.367793 252.291675 
L 235.800093 254.479972 
L 236.520598 256.454937 
L 237.241104 256.953345 
L 238.105712 257.319727 
L 239.834928 257.44463 
L 240.123131 257.579205 
L 241.852347 257.834738 
L 243.581563 257.914339 
L 243.725664 257.991948 
L 244.590271 259.151878 
L 245.022575 259.385422 
L 245.598981 259.468123 
L 245.743082 259.542574 
L 246.463587 261.122242 
L 246.751789 261.213002 
L 246.895891 261.295463 
L 247.184093 261.84679 
L 247.760487 265.944624 
L 248.625095 266.064329 
L 249.489688 271.284563 
L 249.777829 277.13226 
L 250.066031 277.778907 
L 250.498328 280.083847 
L 250.642429 280.407574 
L 250.930627 281.938712 
L 251.218815 284.83964 
L 251.507017 285.357904 
L 251.93929 290.01663 
L 252.08339 290.494745 
L 252.515683 294.349171 
L 252.659773 53.758964 
L 252.803875 53.631825 
L 252.947976 295.379867 
L 253.092077 295.436745 
L 253.236178 53.578439 
L 253.524381 53.731842 
L 253.956684 54.424324 
L 254.100786 54.500649 
L 254.821267 60.240783 
L 254.965367 60.496847 
L 255.397668 62.308775 
L 255.68587 63.157298 
L 256.40637 65.803143 
L 256.838663 68.827073 
L 256.982763 69.289518 
L 257.559157 72.883187 
L 257.991461 73.123354 
L 258.135562 73.156932 
L 258.711968 72.824963 
L 259.288373 73.140743 
L 261.017589 73.129596 
L 262.602704 73.232259 
L 267.502149 73.305527 
L 267.934453 73.39965 
L 268.943163 73.345523 
L 269.519568 73.386094 
L 271.392885 73.350577 
L 278.453851 73.396457 
L 283.209195 73.368539 
L 283.929702 73.420453 
L 284.938411 73.265614 
L 286.235323 73.302812 
L 286.95583 73.287166 
L 287.532235 73.173863 
L 288.252742 73.215432 
L 289.405552 73.149803 
L 290.558363 73.115351 
L 290.702464 73.021398 
L 291.278869 73.39739 
L 291.56707 72.655085 
L 291.855273 72.904341 
L 292.719539 55.492981 
L 292.863641 291.493058 
L 293.151451 281.744812 
L 293.295406 278.206388 
L 294.015688 249.590403 
L 294.303862 241.733877 
L 294.591988 234.563935 
L 294.880187 229.399942 
L 295.024289 228.307159 
L 295.312461 223.580214 
L 295.744765 222.571647 
L 295.888866 222.360402 
L 296.32117 222.572564 
L 297.906285 222.544889 
L 298.48269 222.460345 
L 299.203197 222.351475 
L 299.347298 222.419443 
L 299.635501 222.153799 
L 300.211906 222.317952 
L 300.644208 220.543843 
L 301.220611 218.954608 
L 301.364713 218.343208 
L 301.652915 218.043184 
L 301.941035 208.1575 
L 302.229235 206.583799 
L 302.517414 201.997433 
L 302.949718 202.031082 
L 303.958427 201.775421 
L 306.552251 202.056377 
L 307.416837 210.234718 
L 307.849128 214.626595 
L 307.99323 215.350509 
L 308.425511 220.184236 
L 308.569613 221.085526 
L 309.00188 227.289399 
L 309.290069 229.931554 
L 309.578268 232.497991 
L 309.866458 235.008082 
L 310.154634 238.913091 
L 310.298735 241.202164 
L 310.586937 242.150957 
L 310.875062 249.668393 
L 311.163264 250.374852 
L 311.59554 255.383236 
L 312.027837 258.396698 
L 312.460118 262.964761 
L 312.604219 263.541445 
L 313.036498 268.043342 
L 313.180599 268.752204 
L 313.612873 273.52649 
L 313.901061 275.844648 
L 314.33336 279.20095 
L 314.765632 283.441132 
L 315.053833 285.844206 
L 315.197934 286.541944 
L 315.486069 292.82542 
L 315.77427 294.047953 
L 315.918341 54.189527 
L 316.206533 57.394134 
L 316.782899 62.799259 
L 316.927001 64.761508 
L 317.215203 64.975281 
L 317.503404 66.076385 
L 318.079809 66.245179 
L 318.656214 66.191996 
L 320.961836 66.236667 
L 321.538241 66.63896 
L 322.835153 66.581174 
L 324.70847 66.62981 
L 325.140771 68.187685 
L 325.284873 68.905061 
L 325.573075 68.607206 
L 325.861278 68.66638 
L 326.14948 68.355826 
L 326.581779 70.463496 
L 326.72588 70.905932 
L 327.302193 82.170709 
L 327.59039 84.074741 
L 327.878501 91.646496 
L 328.166703 92.568868 
L 328.598884 101.832785 
L 328.887051 105.412263 
L 329.31933 111.184707 
L 329.607532 110.658637 
L 330.328039 110.810053 
L 330.616241 110.948776 
L 331.192646 111.289474 
L 333.210065 111.322493 
L 333.642369 111.205719 
L 334.074673 111.078896 
L 334.362876 111.006389 
L 334.506977 111.021121 
L 335.083382 110.704839 
L 335.659788 110.743933 
L 336.092055 105.996944 
L 336.236156 103.938077 
L 336.668322 94.57246 
L 336.812423 92.649319 
L 337.100625 92.964547 
L 337.821132 92.47542 
L 338.109334 92.275006 
L 338.397537 92.301277 
L 338.68574 92.487209 
L 338.973942 92.636284 
L 339.262145 92.768575 
L 339.406246 92.879273 
L 339.694448 93.61979 
L 340.270639 108.657501 
L 340.991123 113.597011 
L 341.135224 113.730683 
L 341.423422 115.341392 
L 341.711624 115.519682 
L 341.999827 115.341692 
L 342.288029 115.993434 
L 342.720333 116.079378 
L 343.152637 116.342767 
L 343.440839 116.182948 
L 343.873142 117.090961 
L 344.017243 117.257127 
L 344.305446 116.944092 
L 344.593649 117.030331 
L 344.881851 117.36687 
L 345.602349 120.212087 
L 345.746451 120.738473 
L 346.178744 123.258258 
L 346.322846 123.805735 
L 346.89923 128.216779 
L 347.187431 129.211135 
L 347.619728 131.21751 
L 347.763829 131.506754 
L 348.196112 135.176992 
L 348.340214 135.789765 
L 349.060679 142.524381 
L 349.20478 143.167979 
L 349.492967 145.867673 
L 349.781169 146.529665 
L 350.213465 148.704808 
L 350.645766 150.518626 
L 350.933956 153.009561 
L 351.222158 153.395625 
L 351.654453 155.749095 
L 351.942653 156.657625 
L 352.663154 159.605151 
L 352.951341 162.478913 
L 353.239543 163.103 
L 353.671829 166.365546 
L 353.81593 167.091906 
L 354.248165 172.66315 
L 354.392266 174.80515 
L 354.680466 173.935256 
L 354.968669 173.956129 
L 355.545074 174.578144 
L 356.697885 174.46757 
L 357.130189 174.429881 
L 357.418391 174.447008 
L 357.994797 174.444251 
L 359.579911 174.45758 
L 369.955208 174.45295 
L 398.487273 174.452946 
L 398.487273 174.452946 
" style="fill:none;stroke:#ff7f0e;stroke-linecap:square;stroke-width:1.5;"/>
   </g>
   <g id="line2d_16">
    <path clip-path="url(#p95d934c19b)" d="M 73.832727 174.467628 
L 82.055817 174.358461 
L 91.129571 174.324638 
L 98.78555 174.525201 
L 99.35266 174.668935 
L 99.919769 174.979147 
L 100.486879 175.510413 
L 101.195764 176.489909 
L 102.046426 178.137995 
L 103.03886 180.705243 
L 104.031292 183.955043 
L 105.165492 188.496741 
L 106.44145 194.710417 
L 107.575621 201.468915 
L 108.709773 209.324413 
L 109.560399 214.675526 
L 110.269272 217.874833 
L 110.836375 219.516489 
L 111.403483 220.359538 
L 111.828815 220.454987 
L 112.11237 220.282696 
L 112.395923 219.911321 
L 112.821254 219.000832 
L 113.388354 217.068375 
L 114.097211 213.5542 
L 116.223785 201.812031 
L 117.216202 197.963689 
L 118.066856 195.470928 
L 118.775739 193.97261 
L 119.484624 193.020721 
L 119.909956 192.692759 
L 120.477066 192.565327 
L 121.044175 192.779229 
L 121.611284 193.334735 
L 122.320167 194.518668 
L 123.029048 196.225431 
L 123.879698 198.994471 
L 124.872105 203.161657 
L 126.00627 209.006722 
L 128.416384 221.153931 
L 132.385984 239.964465 
L 136.213816 257.139974 
L 138.198644 264.541911 
L 139.758164 269.596406 
L 142.310115 276.651692 
L 144.153198 280.939273 
L 145.996289 284.651043 
L 147.414054 287.011825 
L 149.115374 289.510802 
L 150.391366 291.043368 
L 151.809136 292.466369 
L 153.085131 293.46006 
L 154.361127 294.181272 
L 155.637123 294.651067 
L 157.905561 295.264406 
L 159.03978 295.488 
L 159.181558 53.59088 
L 160.173999 53.864602 
L 161.16644 54.388901 
L 162.158881 55.174708 
L 162.725988 55.907214 
L 163.434865 57.369419 
L 164.14374 59.386643 
L 164.994374 62.551729 
L 165.986746 67.27746 
L 166.979107 73.148384 
L 168.113161 81.511162 
L 169.247124 91.89731 
L 170.806263 106.527376 
L 173.499525 129.198869 
L 174.917108 138.892289 
L 176.476496 147.933051 
L 178.035946 155.691259 
L 179.595406 162.385608 
L 181.013128 167.407034 
L 182.14732 170.702908 
L 183.281522 173.341669 
L 184.273955 175.124871 
L 185.266391 176.418785 
L 186.117054 177.135059 
L 186.825941 177.459664 
L 187.534828 177.527946 
L 188.243715 177.346652 
L 188.952601 176.909132 
L 189.661486 176.221805 
L 190.512146 175.056999 
L 191.079249 173.957313 
L 191.646345 172.3459 
L 192.355189 169.518576 
L 193.064028 165.847814 
L 193.914581 160.25888 
L 194.906772 151.965666 
L 195.75713 143.083607 
L 196.607305 131.901502 
L 198.307555 107.762785 
L 199.299719 97.69023 
L 200.291925 89.724214 
L 201.142486 84.381222 
L 201.993089 80.244364 
L 202.701951 77.653766 
L 203.41082 75.852665 
L 203.977926 74.995324 
L 204.545035 74.587317 
L 206.529917 73.466938 
L 208.231243 72.217772 
L 209.932567 70.681789 
L 211.633889 68.878468 
L 213.476987 66.624065 
L 215.461858 63.876027 
L 217.304948 60.944899 
L 219.148035 57.556077 
L 220.991113 53.763421 
L 221.13289 295.372489 
L 221.983536 293.185371 
L 222.83417 290.333098 
L 223.826543 286.156247 
L 224.818907 280.971408 
L 225.952977 273.824168 
L 228.788067 254.478757 
L 229.638673 250.730156 
L 230.347529 248.427958 
L 231.056407 246.868706 
L 231.623513 246.159385 
L 232.048845 245.94553 
L 232.474177 246.006069 
L 233.32484 246.587568 
L 234.884387 247.861503 
L 236.869264 249.832546 
L 238.570584 251.909845 
L 240.413679 254.535087 
L 242.256767 257.559195 
L 243.53275 260.016514 
L 244.950499 263.231016 
L 246.51001 267.371549 
L 248.069517 272.156139 
L 249.770773 278.222792 
L 250.904931 282.803042 
L 253.88207 295.385763 
L 254.023847 53.991085 
L 255.441566 58.783397 
L 256.859299 62.904047 
L 258.418816 66.721384 
L 259.694797 69.349081 
L 260.97078 71.495791 
L 262.104993 73.001545 
L 263.239208 74.131378 
L 264.231649 74.808724 
L 265.365867 75.315265 
L 267.91786 76.075529 
L 270.469852 76.61156 
L 273.021846 76.920299 
L 275.573839 77.003671 
L 278.125832 76.860712 
L 280.677825 76.491717 
L 283.229818 75.896579 
L 285.923588 75.024297 
L 288.192025 74.086096 
L 288.617357 73.747473 
L 289.042685 73.071231 
L 289.468011 71.899516 
L 289.893314 70.144878 
L 290.602141 65.947364 
L 291.310857 60.191864 
L 291.87777 54.269489 
L 292.019548 294.533594 
L 292.72798 285.099579 
L 293.436366 272.85854 
L 294.569436 252.441781 
L 295.41963 241.149472 
L 296.270021 232.525418 
L 297.120535 226.163378 
L 297.829348 222.362379 
L 299.530584 214.932024 
L 301.940699 205.409435 
L 303.07488 201.545034 
L 303.641978 200.186628 
L 304.067307 199.615409 
L 304.49264 199.457279 
L 304.776194 199.566441 
L 305.059749 199.852025 
L 305.485076 200.602374 
L 306.052172 202.232147 
L 306.761031 205.273267 
L 307.469842 209.34925 
L 308.32037 215.78409 
L 309.454293 226.866916 
L 310.87159 242.728351 
L 312.147223 256.744714 
L 313.564676 269.897683 
L 314.840438 280.11208 
L 315.974536 287.557301 
L 317.108674 293.671807 
L 317.392213 295.016264 
L 317.53399 53.746219 
L 318.526383 57.877964 
L 319.518801 61.186993 
L 320.369451 63.392488 
L 321.220107 65.016773 
L 321.92899 65.925851 
L 322.779652 66.922859 
L 323.488534 68.27999 
L 324.197407 70.175791 
L 325.048046 73.191614 
L 326.040449 77.725707 
L 327.032805 83.469839 
L 328.166895 91.517323 
L 330.151513 106.953477 
L 331.00213 111.289072 
L 331.711002 113.726835 
L 332.278105 114.936761 
L 332.703435 115.413681 
L 333.128768 115.475231 
L 333.412322 115.308111 
L 333.695877 114.966733 
L 334.121204 114.137568 
L 334.688303 112.392895 
L 335.397167 109.195761 
L 336.105992 104.900384 
L 337.807161 93.280413 
L 338.37426 91.508928 
L 338.657814 91.156718 
L 338.941369 91.160994 
L 339.224923 91.527721 
L 339.650251 92.792825 
L 340.07556 94.792295 
L 344.328643 118.248742 
L 347.022317 130.858674 
L 352.267911 153.980814 
L 353.685659 158.886384 
L 354.961642 162.592193 
L 356.521177 166.543668 
L 357.797167 169.171002 
L 358.931382 171.063649 
L 359.923821 172.382985 
L 361.058039 173.501202 
L 362.05048 174.135863 
L 362.901144 174.421558 
L 363.893586 174.536291 
L 377.362439 174.587673 
L 397.636608 174.480148 
L 398.487273 174.470824 
L 398.487273 174.470824 
" style="fill:none;stroke:#2ca02c;stroke-linecap:square;stroke-width:1.5;"/>
   </g>
   <g id="patch_3">
    <path d="M 57.6 307.584 
L 57.6 41.472 
" style="fill:none;stroke:#000000;stroke-linecap:square;stroke-linejoin:miter;stroke-width:0.8;"/>
   </g>
   <g id="patch_4">
    <path d="M 414.72 307.584 
L 414.72 41.472 
" style="fill:none;stroke:#000000;stroke-linecap:square;stroke-linejoin:miter;stroke-width:0.8;"/>
   </g>
   <g id="patch_5">
    <path d="M 57.6 307.584 
L 414.72 307.584 
" style="fill:none;stroke:#000000;stroke-linecap:square;stroke-linejoin:miter;stroke-width:0.8;"/>
   </g>
   <g id="patch_6">
    <path d="M 57.6 41.472 
L 414.72 41.472 
" style="fill:none;stroke:#000000;stroke-linecap:square;stroke-linejoin:miter;stroke-width:0.8;"/>
   </g>
   <g id="text_14">
    <!-- Heading vs Distance esp -->
    <g transform="translate(161.9325 35.472)scale(0.12 -0.12)">
     <defs>
      <path d="M 9.8125 72.90625 
L 19.671875 72.90625 
L 19.671875 43.015625 
L 55.515625 43.015625 
L 55.515625 72.90625 
L 65.375 72.90625 
L 65.375 0 
L 55.515625 0 
L 55.515625 34.71875 
L 19.671875 34.71875 
L 19.671875 0 
L 9.8125 0 
z
" id="DejaVuSans-72"/>
      <path d="M 56.203125 29.59375 
L 56.203125 25.203125 
L 14.890625 25.203125 
Q 15.484375 15.921875 20.484375 11.0625 
Q 25.484375 6.203125 34.421875 6.203125 
Q 39.59375 6.203125 44.453125 7.46875 
Q 49.3125 8.734375 54.109375 11.28125 
L 54.109375 2.78125 
Q 49.265625 0.734375 44.1875 -0.34375 
Q 39.109375 -1.421875 33.890625 -1.421875 
Q 20.796875 -1.421875 13.15625 6.1875 
Q 5.515625 13.8125 5.515625 26.8125 
Q 5.515625 40.234375 12.765625 48.109375 
Q 20.015625 56 32.328125 56 
Q 43.359375 56 49.78125 48.890625 
Q 56.203125 41.796875 56.203125 29.59375 
z
M 47.21875 32.234375 
Q 47.125 39.59375 43.09375 43.984375 
Q 39.0625 48.390625 32.421875 48.390625 
Q 24.90625 48.390625 20.390625 44.140625 
Q 15.875 39.890625 15.1875 32.171875 
z
" id="DejaVuSans-101"/>
      <path d="M 34.28125 27.484375 
Q 23.390625 27.484375 19.1875 25 
Q 14.984375 22.515625 14.984375 16.5 
Q 14.984375 11.71875 18.140625 8.90625 
Q 21.296875 6.109375 26.703125 6.109375 
Q 34.1875 6.109375 38.703125 11.40625 
Q 43.21875 16.703125 43.21875 25.484375 
L 43.21875 27.484375 
z
M 52.203125 31.203125 
L 52.203125 0 
L 43.21875 0 
L 43.21875 8.296875 
Q 40.140625 3.328125 35.546875 0.953125 
Q 30.953125 -1.421875 24.3125 -1.421875 
Q 15.921875 -1.421875 10.953125 3.296875 
Q 6 8.015625 6 15.921875 
Q 6 25.140625 12.171875 29.828125 
Q 18.359375 34.515625 30.609375 34.515625 
L 43.21875 34.515625 
L 43.21875 35.40625 
Q 43.21875 41.609375 39.140625 45 
Q 35.0625 48.390625 27.6875 48.390625 
Q 23 48.390625 18.546875 47.265625 
Q 14.109375 46.140625 10.015625 43.890625 
L 10.015625 52.203125 
Q 14.9375 54.109375 19.578125 55.046875 
Q 24.21875 56 28.609375 56 
Q 40.484375 56 46.34375 49.84375 
Q 52.203125 43.703125 52.203125 31.203125 
z
" id="DejaVuSans-97"/>
      <path d="M 45.40625 46.390625 
L 45.40625 75.984375 
L 54.390625 75.984375 
L 54.390625 0 
L 45.40625 0 
L 45.40625 8.203125 
Q 42.578125 3.328125 38.25 0.953125 
Q 33.9375 -1.421875 27.875 -1.421875 
Q 17.96875 -1.421875 11.734375 6.484375 
Q 5.515625 14.40625 5.515625 27.296875 
Q 5.515625 40.1875 11.734375 48.09375 
Q 17.96875 56 27.875 56 
Q 33.9375 56 38.25 53.625 
Q 42.578125 51.265625 45.40625 46.390625 
z
M 14.796875 27.296875 
Q 14.796875 17.390625 18.875 11.75 
Q 22.953125 6.109375 30.078125 6.109375 
Q 37.203125 6.109375 41.296875 11.75 
Q 45.40625 17.390625 45.40625 27.296875 
Q 45.40625 37.203125 41.296875 42.84375 
Q 37.203125 48.484375 30.078125 48.484375 
Q 22.953125 48.484375 18.875 42.84375 
Q 14.796875 37.203125 14.796875 27.296875 
z
" id="DejaVuSans-100"/>
      <path d="M 9.421875 54.6875 
L 18.40625 54.6875 
L 18.40625 0 
L 9.421875 0 
z
M 9.421875 75.984375 
L 18.40625 75.984375 
L 18.40625 64.59375 
L 9.421875 64.59375 
z
" id="DejaVuSans-105"/>
      <path d="M 54.890625 33.015625 
L 54.890625 0 
L 45.90625 0 
L 45.90625 32.71875 
Q 45.90625 40.484375 42.875 44.328125 
Q 39.84375 48.1875 33.796875 48.1875 
Q 26.515625 48.1875 22.3125 43.546875 
Q 18.109375 38.921875 18.109375 30.90625 
L 18.109375 0 
L 9.078125 0 
L 9.078125 54.6875 
L 18.109375 54.6875 
L 18.109375 46.1875 
Q 21.34375 51.125 25.703125 53.5625 
Q 30.078125 56 35.796875 56 
Q 45.21875 56 50.046875 50.171875 
Q 54.890625 44.34375 54.890625 33.015625 
z
" id="DejaVuSans-110"/>
      <path d="M 45.40625 27.984375 
Q 45.40625 37.75 41.375 43.109375 
Q 37.359375 48.484375 30.078125 48.484375 
Q 22.859375 48.484375 18.828125 43.109375 
Q 14.796875 37.75 14.796875 27.984375 
Q 14.796875 18.265625 18.828125 12.890625 
Q 22.859375 7.515625 30.078125 7.515625 
Q 37.359375 7.515625 41.375 12.890625 
Q 45.40625 18.265625 45.40625 27.984375 
z
M 54.390625 6.78125 
Q 54.390625 -7.171875 48.1875 -13.984375 
Q 42 -20.796875 29.203125 -20.796875 
Q 24.46875 -20.796875 20.265625 -20.09375 
Q 16.0625 -19.390625 12.109375 -17.921875 
L 12.109375 -9.1875 
Q 16.0625 -11.328125 19.921875 -12.34375 
Q 23.78125 -13.375 27.78125 -13.375 
Q 36.625 -13.375 41.015625 -8.765625 
Q 45.40625 -4.15625 45.40625 5.171875 
L 45.40625 9.625 
Q 42.625 4.78125 38.28125 2.390625 
Q 33.9375 0 27.875 0 
Q 17.828125 0 11.671875 7.65625 
Q 5.515625 15.328125 5.515625 27.984375 
Q 5.515625 40.671875 11.671875 48.328125 
Q 17.828125 56 27.875 56 
Q 33.9375 56 38.28125 53.609375 
Q 42.625 51.21875 45.40625 46.390625 
L 45.40625 54.6875 
L 54.390625 54.6875 
z
" id="DejaVuSans-103"/>
      <path id="DejaVuSans-32"/>
      <path d="M 2.984375 54.6875 
L 12.5 54.6875 
L 29.59375 8.796875 
L 46.6875 54.6875 
L 56.203125 54.6875 
L 35.6875 0 
L 23.484375 0 
z
" id="DejaVuSans-118"/>
      <path d="M 44.28125 53.078125 
L 44.28125 44.578125 
Q 40.484375 46.53125 36.375 47.5 
Q 32.28125 48.484375 27.875 48.484375 
Q 21.1875 48.484375 17.84375 46.4375 
Q 14.5 44.390625 14.5 40.28125 
Q 14.5 37.15625 16.890625 35.375 
Q 19.28125 33.59375 26.515625 31.984375 
L 29.59375 31.296875 
Q 39.15625 29.25 43.1875 25.515625 
Q 47.21875 21.78125 47.21875 15.09375 
Q 47.21875 7.46875 41.1875 3.015625 
Q 35.15625 -1.421875 24.609375 -1.421875 
Q 20.21875 -1.421875 15.453125 -0.5625 
Q 10.6875 0.296875 5.421875 2 
L 5.421875 11.28125 
Q 10.40625 8.6875 15.234375 7.390625 
Q 20.0625 6.109375 24.8125 6.109375 
Q 31.15625 6.109375 34.5625 8.28125 
Q 37.984375 10.453125 37.984375 14.40625 
Q 37.984375 18.0625 35.515625 20.015625 
Q 33.0625 21.96875 24.703125 23.78125 
L 21.578125 24.515625 
Q 13.234375 26.265625 9.515625 29.90625 
Q 5.8125 33.546875 5.8125 39.890625 
Q 5.8125 47.609375 11.28125 51.796875 
Q 16.75 56 26.8125 56 
Q 31.78125 56 36.171875 55.265625 
Q 40.578125 54.546875 44.28125 53.078125 
z
" id="DejaVuSans-115"/>
      <path d="M 19.671875 64.796875 
L 19.671875 8.109375 
L 31.59375 8.109375 
Q 46.6875 8.109375 53.6875 14.9375 
Q 60.6875 21.78125 60.6875 36.53125 
Q 60.6875 51.171875 53.6875 57.984375 
Q 46.6875 64.796875 31.59375 64.796875 
z
M 9.8125 72.90625 
L 30.078125 72.90625 
Q 51.265625 72.90625 61.171875 64.09375 
Q 71.09375 55.28125 71.09375 36.53125 
Q 71.09375 17.671875 61.125 8.828125 
Q 51.171875 0 30.078125 0 
L 9.8125 0 
z
" id="DejaVuSans-68"/>
      <path d="M 18.3125 70.21875 
L 18.3125 54.6875 
L 36.8125 54.6875 
L 36.8125 47.703125 
L 18.3125 47.703125 
L 18.3125 18.015625 
Q 18.3125 11.328125 20.140625 9.421875 
Q 21.96875 7.515625 27.59375 7.515625 
L 36.8125 7.515625 
L 36.8125 0 
L 27.59375 0 
Q 17.1875 0 13.234375 3.875 
Q 9.28125 7.765625 9.28125 18.015625 
L 9.28125 47.703125 
L 2.6875 47.703125 
L 2.6875 54.6875 
L 9.28125 54.6875 
L 9.28125 70.21875 
z
" id="DejaVuSans-116"/>
      <path d="M 48.78125 52.59375 
L 48.78125 44.1875 
Q 44.96875 46.296875 41.140625 47.34375 
Q 37.3125 48.390625 33.40625 48.390625 
Q 24.65625 48.390625 19.8125 42.84375 
Q 14.984375 37.3125 14.984375 27.296875 
Q 14.984375 17.28125 19.8125 11.734375 
Q 24.65625 6.203125 33.40625 6.203125 
Q 37.3125 6.203125 41.140625 7.25 
Q 44.96875 8.296875 48.78125 10.40625 
L 48.78125 2.09375 
Q 45.015625 0.34375 40.984375 -0.53125 
Q 36.96875 -1.421875 32.421875 -1.421875 
Q 20.0625 -1.421875 12.78125 6.34375 
Q 5.515625 14.109375 5.515625 27.296875 
Q 5.515625 40.671875 12.859375 48.328125 
Q 20.21875 56 33.015625 56 
Q 37.15625 56 41.109375 55.140625 
Q 45.0625 54.296875 48.78125 52.59375 
z
" id="DejaVuSans-99"/>
      <path d="M 18.109375 8.203125 
L 18.109375 -20.796875 
L 9.078125 -20.796875 
L 9.078125 54.6875 
L 18.109375 54.6875 
L 18.109375 46.390625 
Q 20.953125 51.265625 25.265625 53.625 
Q 29.59375 56 35.59375 56 
Q 45.5625 56 51.78125 48.09375 
Q 58.015625 40.1875 58.015625 27.296875 
Q 58.015625 14.40625 51.78125 6.484375 
Q 45.5625 -1.421875 35.59375 -1.421875 
Q 29.59375 -1.421875 25.265625 0.953125 
Q 20.953125 3.328125 18.109375 8.203125 
z
M 48.6875 27.296875 
Q 48.6875 37.203125 44.609375 42.84375 
Q 40.53125 48.484375 33.40625 48.484375 
Q 26.265625 48.484375 22.1875 42.84375 
Q 18.109375 37.203125 18.109375 27.296875 
Q 18.109375 17.390625 22.1875 11.75 
Q 26.265625 6.109375 33.40625 6.109375 
Q 40.53125 6.109375 44.609375 11.75 
Q 48.6875 17.390625 48.6875 27.296875 
z
" id="DejaVuSans-112"/>
     </defs>
     <use xlink:href="#DejaVuSans-72"/>
     <use x="75.195312" xlink:href="#DejaVuSans-101"/>
     <use x="136.71875" xlink:href="#DejaVuSans-97"/>
     <use x="197.998047" xlink:href="#DejaVuSans-100"/>
     <use x="261.474609" xlink:href="#DejaVuSans-105"/>
     <use x="289.257812" xlink:href="#DejaVuSans-110"/>
     <use x="352.636719" xlink:href="#DejaVuSans-103"/>
     <use x="416.113281" xlink:href="#DejaVuSans-32"/>
     <use x="447.900391" xlink:href="#DejaVuSans-118"/>
     <use x="507.080078" xlink:href="#DejaVuSans-115"/>
     <use x="559.179688" xlink:href="#DejaVuSans-32"/>
     <use x="590.966797" xlink:href="#DejaVuSans-68"/>
     <use x="667.96875" xlink:href="#DejaVuSans-105"/>
     <use x="695.751953" xlink:href="#DejaVuSans-115"/>
     <use x="747.851562" xlink:href="#DejaVuSans-116"/>
     <use x="787.060547" xlink:href="#DejaVuSans-97"/>
     <use x="848.339844" xlink:href="#DejaVuSans-110"/>
     <use x="911.71875" xlink:href="#DejaVuSans-99"/>
     <use x="966.699219" xlink:href="#DejaVuSans-101"/>
     <use x="1028.222656" xlink:href="#DejaVuSans-32"/>
     <use x="1060.009766" xlink:href="#DejaVuSans-101"/>
     <use x="1121.533203" xlink:href="#DejaVuSans-115"/>
     <use x="1173.632812" xlink:href="#DejaVuSans-112"/>
    </g>
   </g>
   <g id="legend_1">
    <g id="patch_7">
     <path d="M 276.42625 93.506375 
L 407.72 93.506375 
Q 409.72 93.506375 409.72 91.506375 
L 409.72 48.472 
Q 409.72 46.472 407.72 46.472 
L 276.42625 46.472 
Q 274.42625 46.472 274.42625 48.472 
L 274.42625 91.506375 
Q 274.42625 93.506375 276.42625 93.506375 
z
" style="fill:#ffffff;opacity:0.8;stroke:#cccccc;stroke-linejoin:miter;"/>
    </g>
    <g id="line2d_17">
     <path d="M 278.42625 54.570438 
L 298.42625 54.570438 
" style="fill:none;stroke:#1f77b4;stroke-linecap:square;stroke-width:1.5;"/>
    </g>
    <g id="line2d_18"/>
    <g id="text_15">
     <!-- Centreline -->
     <g transform="translate(306.42625 58.070438)scale(0.1 -0.1)">
      <defs>
       <path d="M 64.40625 67.28125 
L 64.40625 56.890625 
Q 59.421875 61.53125 53.78125 63.8125 
Q 48.140625 66.109375 41.796875 66.109375 
Q 29.296875 66.109375 22.65625 58.46875 
Q 16.015625 50.828125 16.015625 36.375 
Q 16.015625 21.96875 22.65625 14.328125 
Q 29.296875 6.6875 41.796875 6.6875 
Q 48.140625 6.6875 53.78125 8.984375 
Q 59.421875 11.28125 64.40625 15.921875 
L 64.40625 5.609375 
Q 59.234375 2.09375 53.4375 0.328125 
Q 47.65625 -1.421875 41.21875 -1.421875 
Q 24.65625 -1.421875 15.125 8.703125 
Q 5.609375 18.84375 5.609375 36.375 
Q 5.609375 53.953125 15.125 64.078125 
Q 24.65625 74.21875 41.21875 74.21875 
Q 47.75 74.21875 53.53125 72.484375 
Q 59.328125 70.75 64.40625 67.28125 
z
" id="DejaVuSans-67"/>
       <path d="M 41.109375 46.296875 
Q 39.59375 47.171875 37.8125 47.578125 
Q 36.03125 48 33.890625 48 
Q 26.265625 48 22.1875 43.046875 
Q 18.109375 38.09375 18.109375 28.8125 
L 18.109375 0 
L 9.078125 0 
L 9.078125 54.6875 
L 18.109375 54.6875 
L 18.109375 46.1875 
Q 20.953125 51.171875 25.484375 53.578125 
Q 30.03125 56 36.53125 56 
Q 37.453125 56 38.578125 55.875 
Q 39.703125 55.765625 41.0625 55.515625 
z
" id="DejaVuSans-114"/>
       <path d="M 9.421875 75.984375 
L 18.40625 75.984375 
L 18.40625 0 
L 9.421875 0 
z
" id="DejaVuSans-108"/>
      </defs>
      <use xlink:href="#DejaVuSans-67"/>
      <use x="69.824219" xlink:href="#DejaVuSans-101"/>
      <use x="131.347656" xlink:href="#DejaVuSans-110"/>
      <use x="194.726562" xlink:href="#DejaVuSans-116"/>
      <use x="233.935547" xlink:href="#DejaVuSans-114"/>
      <use x="272.798828" xlink:href="#DejaVuSans-101"/>
      <use x="334.322266" xlink:href="#DejaVuSans-108"/>
      <use x="362.105469" xlink:href="#DejaVuSans-105"/>
      <use x="389.888672" xlink:href="#DejaVuSans-110"/>
      <use x="453.267578" xlink:href="#DejaVuSans-101"/>
     </g>
    </g>
    <g id="line2d_19">
     <path d="M 278.42625 69.248563 
L 298.42625 69.248563 
" style="fill:none;stroke:#ff7f0e;stroke-linecap:square;stroke-width:1.5;"/>
    </g>
    <g id="line2d_20"/>
    <g id="text_16">
     <!-- Shortest Path -->
     <g transform="translate(306.42625 72.748563)scale(0.1 -0.1)">
      <defs>
       <path d="M 53.515625 70.515625 
L 53.515625 60.890625 
Q 47.90625 63.578125 42.921875 64.890625 
Q 37.9375 66.21875 33.296875 66.21875 
Q 25.25 66.21875 20.875 63.09375 
Q 16.5 59.96875 16.5 54.203125 
Q 16.5 49.359375 19.40625 46.890625 
Q 22.3125 44.4375 30.421875 42.921875 
L 36.375 41.703125 
Q 47.40625 39.59375 52.65625 34.296875 
Q 57.90625 29 57.90625 20.125 
Q 57.90625 9.515625 50.796875 4.046875 
Q 43.703125 -1.421875 29.984375 -1.421875 
Q 24.8125 -1.421875 18.96875 -0.25 
Q 13.140625 0.921875 6.890625 3.21875 
L 6.890625 13.375 
Q 12.890625 10.015625 18.65625 8.296875 
Q 24.421875 6.59375 29.984375 6.59375 
Q 38.421875 6.59375 43.015625 9.90625 
Q 47.609375 13.234375 47.609375 19.390625 
Q 47.609375 24.75 44.3125 27.78125 
Q 41.015625 30.8125 33.5 32.328125 
L 27.484375 33.5 
Q 16.453125 35.6875 11.515625 40.375 
Q 6.59375 45.0625 6.59375 53.421875 
Q 6.59375 63.09375 13.40625 68.65625 
Q 20.21875 74.21875 32.171875 74.21875 
Q 37.3125 74.21875 42.625 73.28125 
Q 47.953125 72.359375 53.515625 70.515625 
z
" id="DejaVuSans-83"/>
       <path d="M 54.890625 33.015625 
L 54.890625 0 
L 45.90625 0 
L 45.90625 32.71875 
Q 45.90625 40.484375 42.875 44.328125 
Q 39.84375 48.1875 33.796875 48.1875 
Q 26.515625 48.1875 22.3125 43.546875 
Q 18.109375 38.921875 18.109375 30.90625 
L 18.109375 0 
L 9.078125 0 
L 9.078125 75.984375 
L 18.109375 75.984375 
L 18.109375 46.1875 
Q 21.34375 51.125 25.703125 53.5625 
Q 30.078125 56 35.796875 56 
Q 45.21875 56 50.046875 50.171875 
Q 54.890625 44.34375 54.890625 33.015625 
z
" id="DejaVuSans-104"/>
       <path d="M 30.609375 48.390625 
Q 23.390625 48.390625 19.1875 42.75 
Q 14.984375 37.109375 14.984375 27.296875 
Q 14.984375 17.484375 19.15625 11.84375 
Q 23.34375 6.203125 30.609375 6.203125 
Q 37.796875 6.203125 41.984375 11.859375 
Q 46.1875 17.53125 46.1875 27.296875 
Q 46.1875 37.015625 41.984375 42.703125 
Q 37.796875 48.390625 30.609375 48.390625 
z
M 30.609375 56 
Q 42.328125 56 49.015625 48.375 
Q 55.71875 40.765625 55.71875 27.296875 
Q 55.71875 13.875 49.015625 6.21875 
Q 42.328125 -1.421875 30.609375 -1.421875 
Q 18.84375 -1.421875 12.171875 6.21875 
Q 5.515625 13.875 5.515625 27.296875 
Q 5.515625 40.765625 12.171875 48.375 
Q 18.84375 56 30.609375 56 
z
" id="DejaVuSans-111"/>
       <path d="M 19.671875 64.796875 
L 19.671875 37.40625 
L 32.078125 37.40625 
Q 38.96875 37.40625 42.71875 40.96875 
Q 46.484375 44.53125 46.484375 51.125 
Q 46.484375 57.671875 42.71875 61.234375 
Q 38.96875 64.796875 32.078125 64.796875 
z
M 9.8125 72.90625 
L 32.078125 72.90625 
Q 44.34375 72.90625 50.609375 67.359375 
Q 56.890625 61.8125 56.890625 51.125 
Q 56.890625 40.328125 50.609375 34.8125 
Q 44.34375 29.296875 32.078125 29.296875 
L 19.671875 29.296875 
L 19.671875 0 
L 9.8125 0 
z
" id="DejaVuSans-80"/>
      </defs>
      <use xlink:href="#DejaVuSans-83"/>
      <use x="63.476562" xlink:href="#DejaVuSans-104"/>
      <use x="126.855469" xlink:href="#DejaVuSans-111"/>
      <use x="188.037109" xlink:href="#DejaVuSans-114"/>
      <use x="229.150391" xlink:href="#DejaVuSans-116"/>
      <use x="268.359375" xlink:href="#DejaVuSans-101"/>
      <use x="329.882812" xlink:href="#DejaVuSans-115"/>
      <use x="381.982422" xlink:href="#DejaVuSans-116"/>
      <use x="421.191406" xlink:href="#DejaVuSans-32"/>
      <use x="452.978516" xlink:href="#DejaVuSans-80"/>
      <use x="508.78125" xlink:href="#DejaVuSans-97"/>
      <use x="570.060547" xlink:href="#DejaVuSans-116"/>
      <use x="609.269531" xlink:href="#DejaVuSans-104"/>
     </g>
    </g>
    <g id="line2d_21">
     <path d="M 278.42625 83.926688 
L 298.42625 83.926688 
" style="fill:none;stroke:#2ca02c;stroke-linecap:square;stroke-width:1.5;"/>
    </g>
    <g id="line2d_22"/>
    <g id="text_17">
     <!-- Minimum Curvature -->
     <g transform="translate(306.42625 87.426688)scale(0.1 -0.1)">
      <defs>
       <path d="M 9.8125 72.90625 
L 24.515625 72.90625 
L 43.109375 23.296875 
L 61.8125 72.90625 
L 76.515625 72.90625 
L 76.515625 0 
L 66.890625 0 
L 66.890625 64.015625 
L 48.09375 14.015625 
L 38.1875 14.015625 
L 19.390625 64.015625 
L 19.390625 0 
L 9.8125 0 
z
" id="DejaVuSans-77"/>
       <path d="M 52 44.1875 
Q 55.375 50.25 60.0625 53.125 
Q 64.75 56 71.09375 56 
Q 79.640625 56 84.28125 50.015625 
Q 88.921875 44.046875 88.921875 33.015625 
L 88.921875 0 
L 79.890625 0 
L 79.890625 32.71875 
Q 79.890625 40.578125 77.09375 44.375 
Q 74.3125 48.1875 68.609375 48.1875 
Q 61.625 48.1875 57.5625 43.546875 
Q 53.515625 38.921875 53.515625 30.90625 
L 53.515625 0 
L 44.484375 0 
L 44.484375 32.71875 
Q 44.484375 40.625 41.703125 44.40625 
Q 38.921875 48.1875 33.109375 48.1875 
Q 26.21875 48.1875 22.15625 43.53125 
Q 18.109375 38.875 18.109375 30.90625 
L 18.109375 0 
L 9.078125 0 
L 9.078125 54.6875 
L 18.109375 54.6875 
L 18.109375 46.1875 
Q 21.1875 51.21875 25.484375 53.609375 
Q 29.78125 56 35.6875 56 
Q 41.65625 56 45.828125 52.96875 
Q 50 49.953125 52 44.1875 
z
" id="DejaVuSans-109"/>
       <path d="M 8.5 21.578125 
L 8.5 54.6875 
L 17.484375 54.6875 
L 17.484375 21.921875 
Q 17.484375 14.15625 20.5 10.265625 
Q 23.53125 6.390625 29.59375 6.390625 
Q 36.859375 6.390625 41.078125 11.03125 
Q 45.3125 15.671875 45.3125 23.6875 
L 45.3125 54.6875 
L 54.296875 54.6875 
L 54.296875 0 
L 45.3125 0 
L 45.3125 8.40625 
Q 42.046875 3.421875 37.71875 1 
Q 33.40625 -1.421875 27.6875 -1.421875 
Q 18.265625 -1.421875 13.375 4.4375 
Q 8.5 10.296875 8.5 21.578125 
z
M 31.109375 56 
z
" id="DejaVuSans-117"/>
      </defs>
      <use xlink:href="#DejaVuSans-77"/>
      <use x="86.279297" xlink:href="#DejaVuSans-105"/>
      <use x="114.0625" xlink:href="#DejaVuSans-110"/>
      <use x="177.441406" xlink:href="#DejaVuSans-105"/>
      <use x="205.224609" xlink:href="#DejaVuSans-109"/>
      <use x="302.636719" xlink:href="#DejaVuSans-117"/>
      <use x="366.015625" xlink:href="#DejaVuSans-109"/>
      <use x="463.427734" xlink:href="#DejaVuSans-32"/>
      <use x="495.214844" xlink:href="#DejaVuSans-67"/>
      <use x="565.039062" xlink:href="#DejaVuSans-117"/>
      <use x="628.417969" xlink:href="#DejaVuSans-114"/>
      <use x="669.53125" xlink:href="#DejaVuSans-118"/>
      <use x="728.710938" xlink:href="#DejaVuSans-97"/>
      <use x="789.990234" xlink:href="#DejaVuSans-116"/>
      <use x="829.199219" xlink:href="#DejaVuSans-117"/>
      <use x="892.578125" xlink:href="#DejaVuSans-114"/>
      <use x="931.441406" xlink:href="#DejaVuSans-101"/>
     </g>
    </g>
   </g>
  </g>
 </g>
 <defs>
  <clipPath id="p95d934c19b">
   <rect height="266.112" width="357.12" x="57.6" y="41.472"/>
  </clipPath>
 </defs>
</svg>
