<?xml version="1.0" encoding="utf-8" standalone="no"?>
<!DOCTYPE svg PUBLIC "-//W3C//DTD SVG 1.1//EN"
  "http://www.w3.org/Graphics/SVG/1.1/DTD/svg11.dtd">
<!-- Created with matplotlib (https://matplotlib.org/) -->
<svg height="345.6pt" version="1.1" viewBox="0 0 460.8 345.6" width="460.8pt" xmlns="http://www.w3.org/2000/svg" xmlns:xlink="http://www.w3.org/1999/xlink">
 <metadata>
  <rdf:RDF xmlns:cc="http://creativecommons.org/ns#" xmlns:dc="http://purl.org/dc/elements/1.1/" xmlns:rdf="http://www.w3.org/1999/02/22-rdf-syntax-ns#">
   <cc:Work>
    <dc:type rdf:resource="http://purl.org/dc/dcmitype/StillImage"/>
    <dc:date>2024-10-14T23:31:27.280649</dc:date>
    <dc:format>image/svg+xml</dc:format>
    <dc:creator>
     <cc:Agent>
      <dc:title>Matplotlib v3.3.1, https://matplotlib.org/</dc:title>
     </cc:Agent>
    </dc:creator>
   </cc:Work>
  </rdf:RDF>
 </metadata>
 <defs>
  <style type="text/css">*{stroke-linecap:butt;stroke-linejoin:round;}</style>
 </defs>
 <g id="figure_1">
  <g id="patch_1">
   <path d="M 0 345.6 
L 460.8 345.6 
L 460.8 0 
L 0 0 
z
" style="fill:#ffffff;"/>
  </g>
  <g id="axes_1">
   <g id="patch_2">
    <path d="M 57.6 307.584 
L 414.72 307.584 
L 414.72 41.472 
L 57.6 41.472 
z
" style="fill:#ffffff;"/>
   </g>
   <g id="matplotlib.axis_1">
    <g id="xtick_1">
     <g id="line2d_1">
      <defs>
       <path d="M 0 0 
L 0 3.5 
" id="mc73907af91" style="stroke:#000000;stroke-width:0.8;"/>
      </defs>
      <g>
       <use style="stroke:#000000;stroke-width:0.8;" x="73.832727" xlink:href="#mc73907af91" y="307.584"/>
      </g>
     </g>
     <g id="text_1">
      <!-- 0.0 -->
      <g transform="translate(65.881165 322.182437)scale(0.1 -0.1)">
       <defs>
        <path d="M 31.78125 66.40625 
Q 24.171875 66.40625 20.328125 58.90625 
Q 16.5 51.421875 16.5 36.375 
Q 16.5 21.390625 20.328125 13.890625 
Q 24.171875 6.390625 31.78125 6.390625 
Q 39.453125 6.390625 43.28125 13.890625 
Q 47.125 21.390625 47.125 36.375 
Q 47.125 51.421875 43.28125 58.90625 
Q 39.453125 66.40625 31.78125 66.40625 
z
M 31.78125 74.21875 
Q 44.046875 74.21875 50.515625 64.515625 
Q 56.984375 54.828125 56.984375 36.375 
Q 56.984375 17.96875 50.515625 8.265625 
Q 44.046875 -1.421875 31.78125 -1.421875 
Q 19.53125 -1.421875 13.0625 8.265625 
Q 6.59375 17.96875 6.59375 36.375 
Q 6.59375 54.828125 13.0625 64.515625 
Q 19.53125 74.21875 31.78125 74.21875 
z
" id="DejaVuSans-48"/>
        <path d="M 10.6875 12.40625 
L 21 12.40625 
L 21 0 
L 10.6875 0 
z
" id="DejaVuSans-46"/>
       </defs>
       <use xlink:href="#DejaVuSans-48"/>
       <use x="63.623047" xlink:href="#DejaVuSans-46"/>
       <use x="95.410156" xlink:href="#DejaVuSans-48"/>
      </g>
     </g>
    </g>
    <g id="xtick_2">
     <g id="line2d_2">
      <g>
       <use style="stroke:#000000;stroke-width:0.8;" x="138.763636" xlink:href="#mc73907af91" y="307.584"/>
      </g>
     </g>
     <g id="text_2">
      <!-- 0.2 -->
      <g transform="translate(130.812074 322.182437)scale(0.1 -0.1)">
       <defs>
        <path d="M 19.1875 8.296875 
L 53.609375 8.296875 
L 53.609375 0 
L 7.328125 0 
L 7.328125 8.296875 
Q 12.9375 14.109375 22.625 23.890625 
Q 32.328125 33.6875 34.8125 36.53125 
Q 39.546875 41.84375 41.421875 45.53125 
Q 43.3125 49.21875 43.3125 52.78125 
Q 43.3125 58.59375 39.234375 62.25 
Q 35.15625 65.921875 28.609375 65.921875 
Q 23.96875 65.921875 18.8125 64.3125 
Q 13.671875 62.703125 7.8125 59.421875 
L 7.8125 69.390625 
Q 13.765625 71.78125 18.9375 73 
Q 24.125 74.21875 28.421875 74.21875 
Q 39.75 74.21875 46.484375 68.546875 
Q 53.21875 62.890625 53.21875 53.421875 
Q 53.21875 48.921875 51.53125 44.890625 
Q 49.859375 40.875 45.40625 35.40625 
Q 44.1875 33.984375 37.640625 27.21875 
Q 31.109375 20.453125 19.1875 8.296875 
z
" id="DejaVuSans-50"/>
       </defs>
       <use xlink:href="#DejaVuSans-48"/>
       <use x="63.623047" xlink:href="#DejaVuSans-46"/>
       <use x="95.410156" xlink:href="#DejaVuSans-50"/>
      </g>
     </g>
    </g>
    <g id="xtick_3">
     <g id="line2d_3">
      <g>
       <use style="stroke:#000000;stroke-width:0.8;" x="203.694545" xlink:href="#mc73907af91" y="307.584"/>
      </g>
     </g>
     <g id="text_3">
      <!-- 0.4 -->
      <g transform="translate(195.742983 322.182437)scale(0.1 -0.1)">
       <defs>
        <path d="M 37.796875 64.3125 
L 12.890625 25.390625 
L 37.796875 25.390625 
z
M 35.203125 72.90625 
L 47.609375 72.90625 
L 47.609375 25.390625 
L 58.015625 25.390625 
L 58.015625 17.1875 
L 47.609375 17.1875 
L 47.609375 0 
L 37.796875 0 
L 37.796875 17.1875 
L 4.890625 17.1875 
L 4.890625 26.703125 
z
" id="DejaVuSans-52"/>
       </defs>
       <use xlink:href="#DejaVuSans-48"/>
       <use x="63.623047" xlink:href="#DejaVuSans-46"/>
       <use x="95.410156" xlink:href="#DejaVuSans-52"/>
      </g>
     </g>
    </g>
    <g id="xtick_4">
     <g id="line2d_4">
      <g>
       <use style="stroke:#000000;stroke-width:0.8;" x="268.625455" xlink:href="#mc73907af91" y="307.584"/>
      </g>
     </g>
     <g id="text_4">
      <!-- 0.6 -->
      <g transform="translate(260.673892 322.182437)scale(0.1 -0.1)">
       <defs>
        <path d="M 33.015625 40.375 
Q 26.375 40.375 22.484375 35.828125 
Q 18.609375 31.296875 18.609375 23.390625 
Q 18.609375 15.53125 22.484375 10.953125 
Q 26.375 6.390625 33.015625 6.390625 
Q 39.65625 6.390625 43.53125 10.953125 
Q 47.40625 15.53125 47.40625 23.390625 
Q 47.40625 31.296875 43.53125 35.828125 
Q 39.65625 40.375 33.015625 40.375 
z
M 52.59375 71.296875 
L 52.59375 62.3125 
Q 48.875 64.0625 45.09375 64.984375 
Q 41.3125 65.921875 37.59375 65.921875 
Q 27.828125 65.921875 22.671875 59.328125 
Q 17.53125 52.734375 16.796875 39.40625 
Q 19.671875 43.65625 24.015625 45.921875 
Q 28.375 48.1875 33.59375 48.1875 
Q 44.578125 48.1875 50.953125 41.515625 
Q 57.328125 34.859375 57.328125 23.390625 
Q 57.328125 12.15625 50.6875 5.359375 
Q 44.046875 -1.421875 33.015625 -1.421875 
Q 20.359375 -1.421875 13.671875 8.265625 
Q 6.984375 17.96875 6.984375 36.375 
Q 6.984375 53.65625 15.1875 63.9375 
Q 23.390625 74.21875 37.203125 74.21875 
Q 40.921875 74.21875 44.703125 73.484375 
Q 48.484375 72.75 52.59375 71.296875 
z
" id="DejaVuSans-54"/>
       </defs>
       <use xlink:href="#DejaVuSans-48"/>
       <use x="63.623047" xlink:href="#DejaVuSans-46"/>
       <use x="95.410156" xlink:href="#DejaVuSans-54"/>
      </g>
     </g>
    </g>
    <g id="xtick_5">
     <g id="line2d_5">
      <g>
       <use style="stroke:#000000;stroke-width:0.8;" x="333.556364" xlink:href="#mc73907af91" y="307.584"/>
      </g>
     </g>
     <g id="text_5">
      <!-- 0.8 -->
      <g transform="translate(325.604801 322.182437)scale(0.1 -0.1)">
       <defs>
        <path d="M 31.78125 34.625 
Q 24.75 34.625 20.71875 30.859375 
Q 16.703125 27.09375 16.703125 20.515625 
Q 16.703125 13.921875 20.71875 10.15625 
Q 24.75 6.390625 31.78125 6.390625 
Q 38.8125 6.390625 42.859375 10.171875 
Q 46.921875 13.96875 46.921875 20.515625 
Q 46.921875 27.09375 42.890625 30.859375 
Q 38.875 34.625 31.78125 34.625 
z
M 21.921875 38.8125 
Q 15.578125 40.375 12.03125 44.71875 
Q 8.5 49.078125 8.5 55.328125 
Q 8.5 64.0625 14.71875 69.140625 
Q 20.953125 74.21875 31.78125 74.21875 
Q 42.671875 74.21875 48.875 69.140625 
Q 55.078125 64.0625 55.078125 55.328125 
Q 55.078125 49.078125 51.53125 44.71875 
Q 48 40.375 41.703125 38.8125 
Q 48.828125 37.15625 52.796875 32.3125 
Q 56.78125 27.484375 56.78125 20.515625 
Q 56.78125 9.90625 50.3125 4.234375 
Q 43.84375 -1.421875 31.78125 -1.421875 
Q 19.734375 -1.421875 13.25 4.234375 
Q 6.78125 9.90625 6.78125 20.515625 
Q 6.78125 27.484375 10.78125 32.3125 
Q 14.796875 37.15625 21.921875 38.8125 
z
M 18.3125 54.390625 
Q 18.3125 48.734375 21.84375 45.5625 
Q 25.390625 42.390625 31.78125 42.390625 
Q 38.140625 42.390625 41.71875 45.5625 
Q 45.3125 48.734375 45.3125 54.390625 
Q 45.3125 60.0625 41.71875 63.234375 
Q 38.140625 66.40625 31.78125 66.40625 
Q 25.390625 66.40625 21.84375 63.234375 
Q 18.3125 60.0625 18.3125 54.390625 
z
" id="DejaVuSans-56"/>
       </defs>
       <use xlink:href="#DejaVuSans-48"/>
       <use x="63.623047" xlink:href="#DejaVuSans-46"/>
       <use x="95.410156" xlink:href="#DejaVuSans-56"/>
      </g>
     </g>
    </g>
    <g id="xtick_6">
     <g id="line2d_6">
      <g>
       <use style="stroke:#000000;stroke-width:0.8;" x="398.487273" xlink:href="#mc73907af91" y="307.584"/>
      </g>
     </g>
     <g id="text_6">
      <!-- 1.0 -->
      <g transform="translate(390.53571 322.182437)scale(0.1 -0.1)">
       <defs>
        <path d="M 12.40625 8.296875 
L 28.515625 8.296875 
L 28.515625 63.921875 
L 10.984375 60.40625 
L 10.984375 69.390625 
L 28.421875 72.90625 
L 38.28125 72.90625 
L 38.28125 8.296875 
L 54.390625 8.296875 
L 54.390625 0 
L 12.40625 0 
z
" id="DejaVuSans-49"/>
       </defs>
       <use xlink:href="#DejaVuSans-49"/>
       <use x="63.623047" xlink:href="#DejaVuSans-46"/>
       <use x="95.410156" xlink:href="#DejaVuSans-48"/>
      </g>
     </g>
    </g>
   </g>
   <g id="matplotlib.axis_2">
    <g id="ytick_1">
     <g id="line2d_7">
      <defs>
       <path d="M 0 0 
L -3.5 0 
" id="m98eb9dd83d" style="stroke:#000000;stroke-width:0.8;"/>
      </defs>
      <g>
       <use style="stroke:#000000;stroke-width:0.8;" x="57.6" xlink:href="#m98eb9dd83d" y="284.066546"/>
      </g>
     </g>
     <g id="text_7">
      <!-- −1.5 -->
      <g transform="translate(26.317187 287.865764)scale(0.1 -0.1)">
       <defs>
        <path d="M 10.59375 35.5 
L 73.1875 35.5 
L 73.1875 27.203125 
L 10.59375 27.203125 
z
" id="DejaVuSans-8722"/>
        <path d="M 10.796875 72.90625 
L 49.515625 72.90625 
L 49.515625 64.59375 
L 19.828125 64.59375 
L 19.828125 46.734375 
Q 21.96875 47.46875 24.109375 47.828125 
Q 26.265625 48.1875 28.421875 48.1875 
Q 40.625 48.1875 47.75 41.5 
Q 54.890625 34.8125 54.890625 23.390625 
Q 54.890625 11.625 47.5625 5.09375 
Q 40.234375 -1.421875 26.90625 -1.421875 
Q 22.3125 -1.421875 17.546875 -0.640625 
Q 12.796875 0.140625 7.71875 1.703125 
L 7.71875 11.625 
Q 12.109375 9.234375 16.796875 8.0625 
Q 21.484375 6.890625 26.703125 6.890625 
Q 35.15625 6.890625 40.078125 11.328125 
Q 45.015625 15.765625 45.015625 23.390625 
Q 45.015625 31 40.078125 35.4375 
Q 35.15625 39.890625 26.703125 39.890625 
Q 22.75 39.890625 18.8125 39.015625 
Q 14.890625 38.140625 10.796875 36.28125 
z
" id="DejaVuSans-53"/>
       </defs>
       <use xlink:href="#DejaVuSans-8722"/>
       <use x="83.789062" xlink:href="#DejaVuSans-49"/>
       <use x="147.412109" xlink:href="#DejaVuSans-46"/>
       <use x="179.199219" xlink:href="#DejaVuSans-53"/>
      </g>
     </g>
    </g>
    <g id="ytick_2">
     <g id="line2d_8">
      <g>
       <use style="stroke:#000000;stroke-width:0.8;" x="57.6" xlink:href="#m98eb9dd83d" y="248.295062"/>
      </g>
     </g>
     <g id="text_8">
      <!-- −1.0 -->
      <g transform="translate(26.317187 252.094281)scale(0.1 -0.1)">
       <use xlink:href="#DejaVuSans-8722"/>
       <use x="83.789062" xlink:href="#DejaVuSans-49"/>
       <use x="147.412109" xlink:href="#DejaVuSans-46"/>
       <use x="179.199219" xlink:href="#DejaVuSans-48"/>
      </g>
     </g>
    </g>
    <g id="ytick_3">
     <g id="line2d_9">
      <g>
       <use style="stroke:#000000;stroke-width:0.8;" x="57.6" xlink:href="#m98eb9dd83d" y="212.523579"/>
      </g>
     </g>
     <g id="text_9">
      <!-- −0.5 -->
      <g transform="translate(26.317187 216.322798)scale(0.1 -0.1)">
       <use xlink:href="#DejaVuSans-8722"/>
       <use x="83.789062" xlink:href="#DejaVuSans-48"/>
       <use x="147.412109" xlink:href="#DejaVuSans-46"/>
       <use x="179.199219" xlink:href="#DejaVuSans-53"/>
      </g>
     </g>
    </g>
    <g id="ytick_4">
     <g id="line2d_10">
      <g>
       <use style="stroke:#000000;stroke-width:0.8;" x="57.6" xlink:href="#m98eb9dd83d" y="176.752096"/>
      </g>
     </g>
     <g id="text_10">
      <!-- 0.0 -->
      <g transform="translate(34.696875 180.551314)scale(0.1 -0.1)">
       <use xlink:href="#DejaVuSans-48"/>
       <use x="63.623047" xlink:href="#DejaVuSans-46"/>
       <use x="95.410156" xlink:href="#DejaVuSans-48"/>
      </g>
     </g>
    </g>
    <g id="ytick_5">
     <g id="line2d_11">
      <g>
       <use style="stroke:#000000;stroke-width:0.8;" x="57.6" xlink:href="#m98eb9dd83d" y="140.980612"/>
      </g>
     </g>
     <g id="text_11">
      <!-- 0.5 -->
      <g transform="translate(34.696875 144.779831)scale(0.1 -0.1)">
       <use xlink:href="#DejaVuSans-48"/>
       <use x="63.623047" xlink:href="#DejaVuSans-46"/>
       <use x="95.410156" xlink:href="#DejaVuSans-53"/>
      </g>
     </g>
    </g>
    <g id="ytick_6">
     <g id="line2d_12">
      <g>
       <use style="stroke:#000000;stroke-width:0.8;" x="57.6" xlink:href="#m98eb9dd83d" y="105.209129"/>
      </g>
     </g>
     <g id="text_12">
      <!-- 1.0 -->
      <g transform="translate(34.696875 109.008348)scale(0.1 -0.1)">
       <use xlink:href="#DejaVuSans-49"/>
       <use x="63.623047" xlink:href="#DejaVuSans-46"/>
       <use x="95.410156" xlink:href="#DejaVuSans-48"/>
      </g>
     </g>
    </g>
    <g id="ytick_7">
     <g id="line2d_13">
      <g>
       <use style="stroke:#000000;stroke-width:0.8;" x="57.6" xlink:href="#m98eb9dd83d" y="69.437646"/>
      </g>
     </g>
     <g id="text_13">
      <!-- 1.5 -->
      <g transform="translate(34.696875 73.236864)scale(0.1 -0.1)">
       <use xlink:href="#DejaVuSans-49"/>
       <use x="63.623047" xlink:href="#DejaVuSans-46"/>
       <use x="95.410156" xlink:href="#DejaVuSans-53"/>
      </g>
     </g>
    </g>
   </g>
   <g id="line2d_14">
    <path clip-path="url(#pd49da912e0)" d="M 73.832727 176.705031 
L 74.491924 176.657031 
L 74.821523 176.622097 
L 75.151121 176.532748 
L 75.48072 176.686179 
L 75.975117 176.443593 
L 76.304716 176.678825 
L 76.799113 176.354485 
L 77.128712 176.671357 
L 77.45831 176.283987 
L 77.62311 176.265426 
L 77.952708 176.663878 
L 78.282307 176.195032 
L 78.447106 176.176417 
L 78.776704 176.65636 
L 79.106303 176.106083 
L 79.271102 176.087456 
L 79.6007 176.648799 
L 79.930299 176.017138 
L 80.095098 175.998537 
L 80.424697 176.641178 
L 80.754295 175.928197 
L 80.919094 175.909647 
L 81.248693 176.633134 
L 81.578291 175.819032 
L 81.74309 175.766435 
L 82.072689 176.475278 
L 82.402287 175.499376 
L 82.567087 175.431206 
L 82.896685 176.216756 
L 83.226284 175.159353 
L 83.391083 175.092168 
L 83.720681 175.958132 
L 84.05028 174.819451 
L 84.215079 174.753467 
L 84.544677 175.699474 
L 84.874276 174.480399 
L 85.039075 174.414931 
L 85.368674 175.440721 
L 85.698272 174.143554 
L 85.863071 174.076186 
L 86.19267 175.201432 
L 86.522268 173.811371 
L 86.687068 173.735585 
L 87.016666 175.230135 
L 87.346264 173.491441 
L 87.511064 173.376035 
L 87.840662 176.543423 
L 88.170261 173.205511 
L 88.33506 172.944947 
L 88.664658 179.829642 
L 88.994257 172.928651 
L 89.159056 172.493438 
L 89.488655 182.626852 
L 89.818253 172.499789 
L 89.983052 172.196312 
L 90.312651 182.070574 
L 90.642249 171.956058 
L 90.807048 171.945276 
L 91.136647 181.978744 
L 91.631044 168.926614 
L 91.960643 181.003066 
L 92.125442 170.729856 
L 92.290241 169.18949 
L 92.455041 173.848456 
L 92.78464 157.190587 
L 93.114238 173.716117 
L 93.279037 164.669358 
L 93.443837 164.31999 
L 93.608636 169.022454 
L 93.773435 162.934987 
L 93.938234 167.263475 
L 94.103034 176.153585 
L 94.432633 162.481766 
L 94.597431 171.713292 
L 94.76223 174.182463 
L 94.927029 164.385114 
L 95.09183 166.214702 
L 95.256629 172.21329 
L 95.421428 166.290593 
L 95.586227 167.691695 
L 95.915825 179.13133 
L 96.080625 181.86301 
L 96.410223 175.373031 
L 96.575022 175.772663 
L 96.739822 173.478312 
L 96.904621 172.914224 
L 97.06942 176.544313 
L 97.234219 177.676663 
L 97.399019 177.354262 
L 97.728617 190.032238 
L 97.893416 180.174168 
L 98.058215 179.391036 
L 98.223015 182.188395 
L 98.552613 165.767159 
L 98.882211 186.322737 
L 99.047011 183.480454 
L 99.376609 166.194396 
L 99.706208 189.208435 
L 99.871007 187.059611 
L 100.035806 180.915812 
L 100.200605 179.3704 
L 100.530204 193.11516 
L 100.695003 193.318232 
L 100.859802 182.884629 
L 101.024602 180.659155 
L 101.3542 199.853715 
L 101.519 196.526251 
L 101.683798 184.943655 
L 101.848598 184.769423 
L 102.178196 203.883747 
L 102.342997 202.542996 
L 102.507794 193.529141 
L 102.672594 195.786447 
L 102.837394 204.378706 
L 103.002192 206.502267 
L 103.166994 204.033037 
L 103.331791 195.567671 
L 103.826189 209.478215 
L 103.990991 204.36893 
L 104.155788 191.865353 
L 104.650187 214.545624 
L 104.814989 209.504731 
L 104.979786 198.108378 
L 105.309384 211.813596 
L 105.474184 209.986227 
L 105.803782 186.889528 
L 106.133381 204.223269 
L 106.29818 197.245387 
L 106.627779 175.722424 
L 106.957377 191.987302 
L 107.122176 190.752372 
L 107.451775 171.148956 
L 107.781373 185.632476 
L 108.110972 169.063914 
L 108.275771 162.603951 
L 108.605369 175.000773 
L 108.770169 171.263552 
L 109.099767 184.879985 
L 109.429366 163.575794 
L 109.594165 162.839217 
L 109.923764 174.689582 
L 110.253362 154.540114 
L 110.418162 158.932073 
L 110.58296 171.275454 
L 110.74776 174.026449 
L 111.077358 147.911822 
L 111.242158 148.256213 
L 111.406957 156.856895 
L 111.571757 158.601246 
L 111.736555 149.220615 
L 111.901355 148.770617 
L 112.230953 172.569096 
L 112.395753 171.170126 
L 112.560552 158.134098 
L 112.725351 157.263277 
L 113.05495 172.771689 
L 113.219749 172.260381 
L 113.549347 162.725723 
L 113.714147 168.404737 
L 113.878946 180.55861 
L 114.043745 176.590767 
L 114.208544 166.464458 
L 114.373343 168.826117 
L 114.538143 166.899623 
L 114.702942 158.666222 
L 114.867741 162.070772 
L 115.19734 174.960813 
L 115.526938 174.058451 
L 115.691737 175.349891 
L 116.021336 178.937283 
L 116.186135 185.623271 
L 116.350934 197.449089 
L 116.515733 195.234441 
L 116.680533 184.82911 
L 116.845332 183.638361 
L 117.010131 179.299253 
L 117.174931 168.10615 
L 117.33973 171.970774 
L 117.669328 189.670344 
L 117.834127 182.845601 
L 117.998927 170.182672 
L 118.163726 175.304254 
L 118.493324 195.818037 
L 118.658124 188.829546 
L 118.822923 176.179216 
L 119.317321 201.724004 
L 119.64692 177.311345 
L 120.141317 201.12914 
L 120.470916 175.479188 
L 120.800514 196.782397 
L 120.965314 194.198703 
L 121.294912 179.396591 
L 121.624511 190.363876 
L 121.78931 189.300388 
L 122.118909 163.211588 
L 122.448507 186.387027 
L 122.613306 185.217603 
L 122.942905 175.327559 
L 123.272503 182.220685 
L 123.437302 181.572805 
L 123.766901 181.90317 
L 124.261298 177.628817 
L 124.590897 180.878467 
L 125.085295 173.425349 
L 125.414893 169.232294 
L 125.744492 170.395905 
L 125.909291 169.932704 
L 126.23889 192.081143 
L 126.568488 168.045234 
L 126.898086 168.494236 
L 127.062885 168.75744 
L 127.392484 168.710231 
L 127.557283 169.218116 
L 127.886882 181.643329 
L 128.21648 169.185171 
L 128.381279 170.17955 
L 128.710878 192.043377 
L 129.040476 168.984364 
L 129.205275 169.443571 
L 129.534874 159.340533 
L 129.864472 170.568209 
L 130.029272 170.807418 
L 130.35887 174.662275 
L 130.688469 171.131532 
L 130.853268 171.765346 
L 131.182866 183.156638 
L 131.512465 171.517174 
L 131.677264 173.316487 
L 132.006863 193.692426 
L 132.336461 171.686871 
L 132.50126 171.631339 
L 132.830859 160.909918 
L 133.160457 173.403894 
L 133.325256 173.569318 
L 133.654855 177.1589 
L 133.984453 173.823284 
L 134.149253 175.651875 
L 134.478851 193.0055 
L 134.808449 173.958322 
L 134.973249 176.223385 
L 135.302847 184.261813 
L 135.632446 175.197214 
L 135.797245 175.043365 
L 136.126843 169.023265 
L 136.456442 176.338939 
L 136.621241 176.114391 
L 136.950839 174.707284 
L 137.280438 176.955487 
L 137.445237 176.321988 
L 137.774836 168.751913 
L 138.104434 177.818871 
L 138.269233 177.183088 
L 138.598832 172.716 
L 138.92843 178.375284 
L 139.093229 179.364122 
L 139.422828 188.528324 
L 139.752426 178.889444 
L 139.917226 178.318981 
L 140.246824 168.097595 
L 140.576423 180.061681 
L 141.07082 179.000415 
L 141.400419 180.62446 
L 141.565218 179.318716 
L 141.894817 167.730816 
L 142.224415 181.773162 
L 142.389214 180.596555 
L 142.718813 176.39859 
L 143.048411 182.183571 
L 143.542809 181.641126 
L 143.872407 182.926588 
L 144.037206 181.238683 
L 144.366805 170.013134 
L 144.696403 184.092245 
L 144.861203 182.987847 
L 145.190801 179.902196 
L 145.5204 184.495659 
L 145.685199 184.711789 
L 146.014797 186.429765 
L 146.179596 185.490638 
L 146.344396 185.292906 
L 146.509195 183.665198 
L 146.838794 171.044639 
L 147.168392 186.963888 
L 147.333191 183.224343 
L 147.49799 170.781208 
L 147.66279 167.540165 
L 147.992388 188.070967 
L 148.321986 186.352793 
L 148.486786 186.337738 
L 148.816384 188.709641 
L 148.981183 185.548844 
L 149.145982 173.862964 
L 149.310782 171.864425 
L 149.64038 191.214142 
L 149.80518 185.446982 
L 149.969979 171.786045 
L 150.134778 173.127653 
L 150.299577 188.391181 
L 150.464376 192.812552 
L 150.793974 181.179181 
L 150.958774 182.635374 
L 151.288372 193.859481 
L 151.453172 188.492777 
L 151.617971 178.02084 
L 151.78277 180.617187 
L 152.112368 196.569192 
L 152.277168 188.278162 
L 152.441967 173.391984 
L 152.606766 179.44248 
L 152.771566 195.364861 
L 152.936364 199.147015 
L 153.265963 177.275725 
L 153.430762 184.279283 
L 153.76036 204.759303 
L 153.925162 199.373984 
L 154.08996 188.88948 
L 154.419559 206.598071 
L 154.584358 203.01183 
L 154.913957 177.076687 
L 155.408354 202.803919 
L 155.737954 176.958264 
L 156.067551 204.335038 
L 156.232351 204.045644 
L 156.56195 181.029808 
L 156.891547 204.797221 
L 157.056347 199.388636 
L 157.385946 178.670261 
L 157.715544 196.946898 
L 157.880343 197.385799 
L 158.209942 184.550978 
L 158.374742 196.684425 
L 158.53954 197.398432 
L 159.033938 177.670877 
L 159.363537 190.544498 
L 159.528336 186.311902 
L 159.857935 169.967152 
L 160.187533 188.469659 
L 160.352332 186.058685 
L 160.681931 180.319732 
L 161.011529 185.978904 
L 161.176328 184.570515 
L 161.505927 180.167055 
L 161.835525 184.255835 
L 162.000325 180.865165 
L 162.165123 167.524271 
L 162.329923 163.618433 
L 162.659521 183.451388 
L 162.824321 182.758087 
L 163.153919 192.422808 
L 163.483518 179.916999 
L 163.648317 181.353806 
L 163.813116 185.887998 
L 163.977915 187.116682 
L 164.307514 178.844153 
L 164.472313 176.01306 
L 164.801912 161.317623 
L 165.13151 178.308955 
L 165.296309 178.597961 
L 165.461108 182.92016 
L 165.625908 184.278699 
L 165.955506 176.857851 
L 166.120305 177.578335 
L 166.449904 179.76267 
L 166.779502 176.903939 
L 166.944301 177.202496 
L 167.2739 178.094084 
L 167.768298 175.689174 
L 167.933097 170.96015 
L 168.097896 169.466134 
L 168.427495 176.980965 
L 168.592294 177.798295 
L 168.757093 182.07599 
L 168.921892 183.36869 
L 169.251491 176.494864 
L 169.745888 177.553041 
L 169.910688 176.896281 
L 170.075487 176.727735 
L 170.240286 174.463325 
L 170.569885 163.064129 
L 170.899483 176.899699 
L 171.064282 177.026981 
L 171.393881 180.675503 
L 171.723479 176.248303 
L 171.888278 177.626506 
L 172.217877 184.163505 
L 172.547475 176.445202 
L 173.041873 178.230325 
L 173.371472 177.430577 
L 173.536271 177.020794 
L 173.70107 174.985304 
L 173.865869 174.503426 
L 174.195468 178.301956 
L 174.360267 177.491817 
L 174.525066 174.59993 
L 174.689865 173.771832 
L 175.019464 179.086669 
L 175.184263 177.587273 
L 175.513862 170.359243 
L 175.84346 179.695216 
L 176.008259 181.537463 
L 176.337858 192.632818 
L 176.667456 180.066038 
L 176.832255 177.143487 
L 176.997054 163.480424 
L 177.161855 159.113639 
L 177.491452 181.67395 
L 177.656252 182.01888 
L 177.98585 187.493657 
L 178.315449 181.914839 
L 178.809846 183.704723 
L 178.974645 183.07385 
L 179.139445 183.177097 
L 179.304244 180.173724 
L 179.633844 161.438215 
L 179.963441 185.061458 
L 180.12824 185.268405 
L 180.457839 193.827954 
L 180.787437 185.058829 
L 180.952236 183.069292 
L 181.281835 168.120808 
L 181.611433 187.091516 
L 181.776233 185.140763 
L 182.105831 175.176895 
L 182.435429 188.271413 
L 182.600229 188.112974 
L 182.929827 188.465203 
L 183.259425 189.418738 
L 183.424225 187.137151 
L 183.753824 165.517975 
L 184.083421 192.173141 
L 184.248221 188.72695 
L 184.57782 171.537125 
L 184.907417 194.338573 
L 185.072217 189.826407 
L 185.237016 175.231275 
L 185.401816 171.070735 
L 185.731413 195.100273 
L 185.896214 188.590647 
L 186.061012 173.515094 
L 186.225812 170.898265 
L 186.55541 193.275377 
L 186.720209 188.795967 
L 186.885008 180.564192 
L 187.049808 179.419959 
L 187.379406 191.631118 
L 187.544206 186.535399 
L 187.709004 174.694316 
L 187.873804 173.42909 
L 188.203402 190.594281 
L 188.6978 184.551425 
L 189.027398 189.454941 
L 189.192198 183.992818 
L 189.356997 169.929669 
L 189.521796 168.492202 
L 189.851394 189.054415 
L 190.345792 183.466635 
L 190.675391 187.883149 
L 190.84019 187.031448 
L 191.004989 185.488777 
L 191.169788 185.244356 
L 191.499387 187.366121 
L 191.664186 183.239623 
L 191.828985 171.854675 
L 191.993785 170.471132 
L 192.323383 187.802048 
L 192.488183 182.565409 
L 192.652981 168.858552 
L 192.817781 168.703955 
L 192.98258 183.895337 
L 193.147379 188.267579 
L 193.641777 178.033528 
L 193.971375 187.144878 
L 194.136175 184.788296 
L 194.300974 178.795576 
L 194.465773 177.823494 
L 194.795371 187.359882 
L 195.12497 186.56866 
L 195.289769 186.551956 
L 195.619368 187.575061 
L 195.784167 185.513004 
L 195.948966 179.490192 
L 196.113765 178.750262 
L 196.443364 188.476678 
L 196.608163 183.738261 
L 196.772962 170.162459 
L 196.937762 167.366433 
L 197.26736 189.280056 
L 197.432159 189.181872 
L 197.596958 191.096368 
L 197.761758 191.550809 
L 198.256155 187.336416 
L 198.420955 179.422583 
L 198.585754 177.719805 
L 198.915352 191.180444 
L 199.080152 188.428432 
L 199.24495 175.34423 
L 199.409751 172.386337 
L 199.739348 194.535637 
L 200.233746 185.554115 
L 200.563344 195.271876 
L 200.728144 194.243849 
L 200.892943 183.499238 
L 201.057742 182.847258 
L 201.38734 202.717129 
L 201.552142 198.179834 
L 201.716939 189.625561 
L 201.881738 193.300438 
L 202.046539 206.329258 
L 202.211336 207.844281 
L 202.540935 188.928074 
L 202.705734 193.893863 
L 203.035332 220.799426 
L 203.20014 221.424082 
L 203.36493 211.735406 
L 203.529732 214.909598 
L 203.85933 234.642312 
L 204.02414 227.387761 
L 204.188931 209.690009 
L 204.683329 237.25885 
L 205.012928 200.204752 
L 205.342526 229.713622 
L 205.507327 229.25707 
L 205.836926 200.737157 
L 206.166523 238.531296 
L 206.331328 234.876607 
L 206.496123 215.81248 
L 206.660924 212.15643 
L 206.990521 249.323499 
L 207.155333 243.044167 
L 207.320121 224.510138 
L 207.484922 225.737476 
L 207.649723 237.82287 
L 207.814523 237.145337 
L 208.144122 187.857662 
L 208.47372 228.457942 
L 208.63852 226.352933 
L 208.968119 191.322754 
L 209.297717 216.945257 
L 209.792115 192.602474 
L 209.956915 201.23474 
L 210.121714 203.805357 
L 210.286513 190.322594 
L 210.451312 167.214893 
L 210.616111 166.633206 
L 210.780911 187.205345 
L 210.945709 191.336692 
L 211.275308 173.370498 
L 211.440107 170.855868 
L 211.604906 176.004183 
L 211.769706 176.955182 
L 211.934505 179.668561 
L 212.099304 189.717761 
L 212.264103 187.970557 
L 212.593702 163.276141 
L 212.758501 170.930295 
L 212.9233 186.716305 
L 213.088099 182.704791 
L 213.417698 149.224263 
L 213.747296 163.755514 
L 213.912095 159.409856 
L 214.241694 135.481853 
L 214.571293 171.143111 
L 214.736093 161.937616 
L 215.065691 122.095077 
L 215.39529 167.001217 
L 215.56009 154.398999 
L 215.724889 121.407846 
L 215.889688 113.829175 
L 216.21929 158.347605 
L 216.548889 113.583079 
L 216.713689 120.582229 
L 217.043287 173.113899 
L 217.372886 121.125411 
L 217.537685 123.30227 
L 217.867284 151.690739 
L 218.196882 127.558822 
L 218.361681 140.202234 
L 218.52648 173.279023 
L 218.69128 183.946952 
L 219.020878 139.071687 
L 219.185678 154.734784 
L 219.350477 183.843995 
L 219.515275 184.608385 
L 219.844874 145.953203 
L 220.174472 160.547237 
L 220.339272 161.263822 
L 220.504071 154.667165 
L 220.66887 152.896757 
L 221.163268 176.162191 
L 221.328067 162.380474 
L 221.492866 158.378542 
L 221.822465 198.718986 
L 221.987264 192.483121 
L 222.152063 168.19426 
L 222.316862 161.598664 
L 222.481661 163.072524 
L 222.64646 162.302665 
L 222.976059 165.07487 
L 223.140858 166.614503 
L 223.470457 179.148354 
L 223.635256 178.53961 
L 223.800055 171.844533 
L 223.964854 169.86642 
L 224.459252 175.72442 
L 224.95365 169.860226 
L 225.118449 163.678212 
L 225.283248 165.627652 
L 225.612847 176.514373 
L 225.942445 188.632831 
L 226.107244 187.060129 
L 226.436843 175.527696 
L 226.601642 172.318515 
L 226.766441 166.707071 
L 226.931241 167.935558 
L 227.260839 176.465433 
L 227.425638 177.355472 
L 227.590437 179.135226 
L 227.755237 178.769489 
L 227.920036 176.864113 
L 228.084835 176.485177 
L 228.414434 184.200597 
L 228.579233 183.302484 
L 228.908831 176.117547 
L 229.073631 172.840268 
L 229.23843 167.300715 
L 229.403229 168.485193 
L 229.732828 177.080161 
L 229.897627 179.575795 
L 230.062426 183.780816 
L 230.227225 182.907629 
L 230.556824 176.551767 
L 230.721623 175.155801 
L 230.886422 172.655347 
L 231.051221 173.193072 
L 231.216021 175.998307 
L 231.38082 176.79639 
L 231.710418 170.472215 
L 231.875218 171.454265 
L 232.204816 177.341499 
L 232.534414 185.47856 
L 232.699214 184.268842 
L 233.028812 176.605921 
L 233.193611 175.180869 
L 233.358411 172.626725 
L 233.52321 173.21882 
L 233.852808 177.02179 
L 234.017608 177.070509 
L 234.182407 177.350778 
L 234.347206 177.302706 
L 234.512005 176.957301 
L 234.676805 177.160188 
L 235.006403 185.184848 
L 235.171202 184.11579 
L 235.830399 164.169093 
L 235.995198 165.922626 
L 236.324797 177.480333 
L 236.489596 179.935806 
L 236.654395 184.194163 
L 236.819195 183.152069 
L 237.148793 176.6846 
L 237.313592 175.532472 
L 237.478391 173.488329 
L 237.643191 173.980451 
L 237.80799 176.260446 
L 237.972789 176.834371 
L 238.302388 170.622393 
L 238.467187 171.597723 
L 238.961585 183.021044 
L 239.126384 191.289239 
L 239.291183 189.270235 
L 239.620782 176.539008 
L 239.785581 175.141877 
L 239.95038 172.351724 
L 240.115179 172.963795 
L 240.279978 176.01259 
L 240.444778 176.86575 
L 240.774376 169.31481 
L 240.939175 170.429335 
L 241.598372 188.611429 
L 241.763172 186.946335 
L 242.09277 176.496776 
L 242.422369 166.72432 
L 242.587168 168.194099 
L 242.916766 177.468944 
L 243.081565 179.664293 
L 243.246365 183.365385 
L 243.411164 182.426618 
L 243.740762 176.69278 
L 244.070361 169.857608 
L 244.23516 170.95155 
L 244.564759 177.464135 
L 244.894357 184.475908 
L 245.059156 183.400789 
L 245.388755 176.892199 
L 245.553554 176.919445 
L 245.718353 176.613904 
L 245.883152 176.668014 
L 246.047952 177.032361 
L 246.212751 176.827766 
L 246.542349 167.537042 
L 246.707149 169.043391 
L 247.036747 177.674457 
L 247.366346 186.626423 
L 247.531145 185.160218 
L 247.860743 176.68621 
L 248.190342 168.742207 
L 248.355141 169.928421 
L 248.51994 175.117984 
L 248.684739 176.775283 
L 248.849539 176.573175 
L 249.014338 176.793691 
L 249.179137 176.436817 
L 249.343936 175.62462 
L 249.508736 175.725999 
L 249.838334 186.747167 
L 250.003133 184.737298 
L 250.332732 173.522229 
L 250.66233 161.164553 
L 250.827129 162.8445 
L 251.156728 172.906266 
L 251.486326 180.660292 
L 251.651126 178.55887 
L 251.980724 169.55233 
L 252.310322 171.569761 
L 252.475122 170.650527 
L 252.639921 168.168762 
L 252.80472 167.375856 
L 253.134319 177.113568 
L 253.299118 175.289307 
L 253.463917 167.361183 
L 253.628716 164.904919 
L 253.958315 190.279195 
L 254.123114 185.698543 
L 254.452712 161.402501 
L 254.782311 175.962053 
L 254.94711 172.703362 
L 255.111909 161.824842 
L 255.276708 158.742039 
L 255.606307 178.569372 
L 255.771106 173.86712 
L 256.100705 154.525326 
L 256.430303 156.740199 
L 256.595102 155.645184 
L 256.759902 152.683702 
L 256.924701 152.522483 
L 257.254301 191.776639 
L 257.419098 181.92683 
L 257.583898 154.124638 
L 257.748697 148.250338 
L 258.078297 187.030156 
L 258.243095 173.590593 
L 258.407894 151.027016 
L 258.572693 149.300646 
L 258.902292 172.079776 
L 259.23189 151.888382 
L 259.39669 152.705354 
L 259.726288 179.653299 
L 260.220686 153.606952 
L 260.550284 170.556974 
L 260.879883 154.652652 
L 261.044682 156.170883 
L 261.374281 185.138178 
L 261.703879 156.658741 
L 261.868678 157.181151 
L 262.198277 189.373718 
L 262.692674 154.467565 
L 263.022273 160.198478 
L 263.187072 158.088784 
L 263.351871 153.929769 
L 263.516671 154.847094 
L 263.846269 177.513376 
L 264.011068 167.381847 
L 264.175868 149.537737 
L 264.340667 146.113759 
L 264.670265 174.086108 
L 264.835064 160.00317 
L 264.999864 134.240219 
L 265.164662 127.632333 
L 265.494261 164.226771 
L 265.659059 154.061039 
L 265.82386 126.453859 
L 265.988657 118.528091 
L 266.318257 171.570736 
L 266.483056 167.369558 
L 266.812654 111.042824 
L 267.142256 157.299439 
L 267.307056 145.610324 
L 267.636654 100.159559 
L 267.801466 96.534257 
L 268.131053 108.081669 
L 268.295853 109.12853 
L 268.460654 116.061628 
L 268.625451 111.0816 
L 268.79024 97.24646 
L 268.955051 99.355541 
L 269.44945 164.776436 
L 269.77905 114.365212 
L 269.94385 132.951742 
L 270.108649 171.869153 
L 270.273448 176.459105 
L 270.603046 127.502755 
L 270.767845 127.912559 
L 271.427042 152.861844 
L 271.591842 156.548995 
L 271.756641 155.2209 
L 271.92144 160.375787 
L 272.580637 210.436727 
L 272.745436 221.929687 
L 273.075035 219.506739 
L 273.239833 212.302496 
L 273.569432 172.935607 
L 273.899031 236.755104 
L 274.063831 227.710231 
L 274.22863 200.170511 
L 274.39343 204.75305 
L 274.723029 245.450943 
L 275.052627 211.390595 
L 275.382228 247.987957 
L 275.547026 242.551192 
L 275.876625 199.183695 
L 276.206226 241.147614 
L 276.371024 232.14887 
L 276.700622 183.413747 
L 277.030223 225.980598 
L 277.195022 225.589144 
L 277.52462 200.023997 
L 277.854219 215.273285 
L 278.019018 211.582017 
L 278.348616 169.366605 
L 278.843014 202.751824 
L 279.172611 162.408219 
L 279.337412 171.058205 
L 279.502211 188.304225 
L 279.66701 191.205254 
L 279.996608 203.611005 
L 280.655805 171.292192 
L 280.820604 160.337226 
L 281.315002 178.21826 
L 281.644601 184.8493 
L 282.138998 174.278617 
L 282.468597 184.420881 
L 282.962995 171.450994 
L 283.292593 164.306766 
L 283.786991 170.102627 
L 284.116588 193.673276 
L 284.610987 166.997546 
L 284.940585 164.715944 
L 285.105385 164.865555 
L 285.270184 164.75613 
L 285.434983 165.359832 
L 285.764581 182.052089 
L 286.09418 163.356024 
L 286.258979 163.170191 
L 286.588578 181.7383 
L 286.918176 160.54427 
L 287.082976 159.78446 
L 287.412574 167.581524 
L 287.742173 156.406221 
L 287.906972 157.393132 
L 288.236569 186.792737 
L 288.566169 154.87702 
L 288.730968 156.830436 
L 289.060567 174.683547 
L 289.390165 153.025462 
L 289.554964 155.334817 
L 289.719764 167.366257 
L 289.884563 171.2843 
L 290.214162 150.541008 
L 290.37896 155.626215 
L 290.54376 177.003997 
L 290.708559 183.159376 
L 291.038158 152.519654 
L 291.202956 158.035924 
L 291.367756 173.36663 
L 291.532555 176.403471 
L 291.862154 157.335678 
L 292.026953 164.367079 
L 292.191752 181.868339 
L 292.356551 183.758297 
L 292.68615 162.183995 
L 292.850949 168.258116 
L 293.015748 182.453066 
L 293.180547 183.831115 
L 293.510146 167.102339 
L 293.674945 168.252779 
L 294.004544 171.840081 
L 294.169343 171.049097 
L 294.334142 171.127818 
L 294.498941 170.926765 
L 294.66374 168.80761 
L 294.82854 169.124355 
L 295.158138 175.276326 
L 295.322937 173.434613 
L 295.487737 166.871647 
L 295.652536 167.178801 
L 295.982134 179.143103 
L 296.146934 179.241496 
L 296.311733 178.149697 
L 296.476532 178.966821 
L 296.806131 183.551401 
L 296.97093 181.508025 
L 297.135729 175.36945 
L 297.300528 176.106498 
L 297.630127 187.336199 
L 298.289324 190.323894 
L 298.454123 192.154062 
L 298.618922 188.248185 
L 298.783721 176.918392 
L 298.948521 177.494064 
L 299.278119 196.928429 
L 299.442918 189.069882 
L 299.607717 169.235722 
L 299.772517 171.908071 
L 300.102115 201.323742 
L 300.266914 193.721041 
L 300.431713 178.426502 
L 300.596513 183.327691 
L 300.926111 206.785229 
L 301.09091 195.477821 
L 301.25571 175.44252 
L 301.420509 183.680352 
L 301.750108 211.526597 
L 302.079706 176.32751 
L 302.244505 185.758374 
L 302.409304 204.764161 
L 302.574104 208.183005 
L 302.903702 171.524893 
L 303.3981 201.583429 
L 303.727699 180.984668 
L 304.222096 197.481174 
L 304.551695 179.373897 
L 305.046093 194.167148 
L 305.37569 162.542212 
L 305.70529 189.495052 
L 305.870089 190.327173 
L 306.199687 179.786991 
L 306.529286 188.008452 
L 306.694085 187.522536 
L 307.023683 171.376798 
L 307.518081 185.618123 
L 307.84768 192.891721 
L 308.671676 170.867016 
L 309.166073 180.964114 
L 309.495672 182.92278 
L 309.99007 178.182325 
L 310.319668 163.99038 
L 310.978865 186.563778 
L 311.143664 196.080301 
L 311.638062 175.148094 
L 311.96766 161.458155 
L 312.462058 175.992733 
L 312.791657 184.458575 
L 313.286054 175.716926 
L 313.615653 175.263521 
L 313.780452 175.435862 
L 313.945251 175.777726 
L 314.11005 175.439037 
L 314.439649 167.067838 
L 314.934047 176.188589 
L 315.263645 192.577784 
L 316.087641 161.680832 
L 316.911637 188.410397 
L 317.570834 170.500288 
L 317.735634 166.206312 
L 318.230031 175.78982 
L 318.55963 179.619222 
L 318.889228 175.797963 
L 319.054027 176.231381 
L 319.383626 192.588322 
L 319.713224 176.751013 
L 319.878024 175.016983 
L 320.207622 163.336976 
L 320.537221 174.760459 
L 320.70202 175.588615 
L 321.031618 174.163166 
L 321.526016 176.034961 
L 321.855614 186.392422 
L 322.679611 161.223388 
L 323.503607 195.524833 
L 323.833205 177.859296 
L 323.998004 176.880651 
L 324.327603 173.325019 
L 324.657201 178.832519 
L 324.822001 179.038279 
L 325.151599 171.122589 
L 325.645997 182.060974 
L 325.975595 186.724814 
L 326.305194 184.024998 
L 326.469993 184.074991 
L 326.799591 182.148163 
L 327.293989 186.111165 
L 327.623588 159.25778 
L 327.953186 187.126538 
L 328.117985 188.624653 
L 328.447584 175.106667 
L 328.777182 190.850351 
L 328.941982 191.894897 
L 329.27158 186.152937 
L 329.765978 195.088796 
L 330.095576 166.998265 
L 330.425175 197.788967 
L 330.589974 196.725124 
L 330.919573 171.692814 
L 331.249171 202.272029 
L 331.413971 200.639824 
L 331.743569 182.520394 
L 332.073168 207.865758 
L 332.237967 207.353055 
L 332.567565 181.19469 
L 332.897164 208.665528 
L 333.061964 200.908547 
L 333.226762 178.96565 
L 333.391562 175.652352 
L 333.72116 204.494472 
L 333.885959 201.666103 
L 334.050759 194.830456 
L 334.215558 194.267443 
L 334.545156 203.586001 
L 334.709956 196.505428 
L 334.874755 176.113297 
L 335.039554 175.091065 
L 335.369153 204.212886 
L 335.533952 199.491984 
L 335.698751 180.534808 
L 335.86355 180.672297 
L 336.193149 203.502527 
L 336.357948 194.043851 
L 336.522747 177.79598 
L 336.687546 184.650244 
L 337.017145 206.385314 
L 337.346744 175.129774 
L 337.511543 185.991434 
L 337.841141 211.862402 
L 338.00594 202.966677 
L 338.17074 187.594715 
L 338.500339 212.017806 
L 338.665138 211.855172 
L 338.994738 188.614453 
L 339.324337 215.884275 
L 339.489136 211.734075 
L 339.653935 194.563842 
L 339.818735 190.255647 
L 340.148334 221.751628 
L 340.313134 215.237343 
L 340.477932 202.13838 
L 340.642732 208.651414 
L 340.807531 221.02519 
L 340.972332 222.787002 
L 341.30193 194.20132 
L 341.631529 210.572415 
L 341.796328 210.334184 
L 342.125926 182.345618 
L 342.455525 195.599761 
L 342.620324 190.097624 
L 342.949923 194.16103 
L 343.773919 157.275721 
L 343.938718 158.537909 
L 344.103517 163.522163 
L 344.433115 148.844533 
L 344.597915 155.358183 
L 344.927515 140.828023 
L 345.092314 140.45534 
L 345.421915 146.595616 
L 345.586709 137.180604 
L 345.751513 134.43564 
L 345.916311 141.408697 
L 346.081111 158.347242 
L 346.245911 163.74868 
L 346.57551 148.033531 
L 346.740308 147.762979 
L 346.905107 149.847256 
L 347.069906 148.520157 
L 347.564304 157.421419 
L 347.729104 166.223348 
L 348.058703 159.412064 
L 348.223502 166.094315 
L 348.388301 166.15816 
L 348.5531 163.463581 
L 348.7179 165.106749 
L 349.047498 169.625342 
L 349.212297 168.847478 
L 349.377097 167.064201 
L 349.541896 168.415595 
L 349.871494 172.323269 
L 350.201093 175.849929 
L 350.365892 175.720725 
L 350.530691 174.560062 
L 350.695491 174.377502 
L 351.025089 175.297396 
L 351.189888 175.0673 
L 351.354687 174.449251 
L 351.519487 174.485574 
L 351.684286 172.816751 
L 351.849085 169.981781 
L 352.013884 171.100808 
L 352.178684 173.872708 
L 352.343483 173.960895 
L 352.508282 177.808552 
L 352.673081 184.569138 
L 352.837881 181.920466 
L 353.00268 175.27371 
L 353.497077 171.08053 
L 353.661877 171.772687 
L 353.826676 173.60731 
L 353.991475 173.804346 
L 354.156274 174.999596 
L 354.321074 177.292332 
L 354.485873 176.384522 
L 354.815471 173.249107 
L 354.980271 177.373102 
L 355.14507 184.809379 
L 355.309869 182.230188 
L 355.474668 174.870181 
L 355.639468 173.644589 
L 355.804267 170.50115 
L 355.969066 164.318609 
L 356.133865 166.303968 
L 356.298664 172.439799 
L 356.463464 172.638392 
L 356.628263 179.512716 
L 356.793062 193.187433 
L 356.957862 188.601357 
L 357.122661 175.482638 
L 357.452259 170.367889 
L 357.617058 164.856233 
L 357.781858 166.66353 
L 357.946657 171.926941 
L 358.111456 172.446425 
L 358.276255 176.150686 
L 358.441054 183.622716 
L 358.605854 180.963554 
L 358.770653 173.894625 
L 358.935452 171.931902 
L 359.265051 180.896523 
L 359.42985 178.855057 
L 359.594649 173.891853 
L 359.759448 173.235169 
L 360.089047 175.869699 
L 360.253846 175.799803 
L 360.583444 175.114381 
L 360.913043 185.23256 
L 361.077842 182.962237 
L 361.242641 177.989404 
L 361.407441 177.982266 
L 361.57224 175.299465 
L 361.737039 170.563063 
L 361.901838 173.650558 
L 362.066638 179.274144 
L 362.231437 180.778724 
L 362.396236 180.365687 
L 362.561035 179.623276 
L 363.055433 183.415935 
L 363.220232 183.412229 
L 363.385031 183.119531 
L 363.879429 186.549556 
L 364.044228 181.764743 
L 364.209028 172.914485 
L 364.373827 177.224389 
L 364.703425 190.049717 
L 364.868225 182.256923 
L 365.033024 168.144728 
L 365.197823 174.75931 
L 365.527422 194.124274 
L 365.692221 186.149892 
L 365.85702 171.916208 
L 366.351418 198.19668 
L 366.681016 175.490376 
L 367.175414 202.769918 
L 367.505013 182.48502 
L 367.834611 203.319467 
L 367.999411 203.615498 
L 368.329009 181.49237 
L 368.658608 205.172751 
L 368.823407 206.91917 
L 369.153005 188.591179 
L 369.482605 210.23224 
L 369.647404 209.630831 
L 369.977003 197.022557 
L 370.306602 212.693352 
L 370.471401 210.150953 
L 370.801001 200.503626 
L 370.965798 208.849308 
L 371.130599 210.677008 
L 371.295397 203.936445 
L 371.460197 188.042694 
L 371.624997 186.66709 
L 371.954595 206.905617 
L 372.119394 199.913206 
L 372.284193 183.869965 
L 372.448993 185.029087 
L 372.778592 205.092467 
L 372.943391 205.524011 
L 373.108189 200.215951 
L 373.437789 204.075195 
L 373.602588 199.510609 
L 373.932186 176.863253 
L 374.096986 182.932745 
L 374.261785 194.160355 
L 374.426584 197.498297 
L 374.756182 176.122041 
L 375.085781 194.109396 
L 375.41538 189.372862 
L 375.580179 186.296657 
L 375.909777 189.472055 
L 376.074577 192.242699 
L 376.239376 185.502378 
L 376.404175 173.5093 
L 376.733774 190.306435 
L 376.898573 188.139039 
L 377.228171 168.486809 
L 377.55777 186.534905 
L 377.722569 186.37494 
L 378.052168 174.018649 
L 378.381766 185.276963 
L 378.546565 185.141006 
L 378.876164 175.487155 
L 379.205762 184.095577 
L 379.370562 183.980475 
L 379.70016 180.236952 
L 380.029759 183.026472 
L 380.194558 182.82741 
L 380.524156 184.547489 
L 380.853755 181.875545 
L 381.018554 183.725818 
L 381.348152 165.438461 
L 381.677751 182.813402 
L 382.007349 180.187708 
L 382.172149 179.642191 
L 382.501747 180.085214 
L 383.325743 179.372222 
L 383.490542 176.976846 
L 383.82014 191.591529 
L 384.149739 176.164927 
L 384.314539 180.459125 
L 384.644137 163.146147 
L 384.973736 180.355402 
L 385.138535 176.223381 
L 385.468133 191.16291 
L 385.797732 175.579141 
L 385.962531 180.441263 
L 386.292129 164.320541 
L 386.621728 180.219498 
L 386.786527 178.017247 
L 387.116126 176.745179 
L 387.445724 177.884061 
L 387.610523 177.871835 
L 387.940122 177.071644 
L 388.26972 177.796061 
L 388.434519 177.782227 
L 388.764118 176.825679 
L 389.093716 177.70663 
L 389.258516 177.693006 
L 389.588114 176.859545 
L 389.917713 177.618011 
L 390.082512 177.603617 
L 390.41211 176.828296 
L 390.741709 177.529197 
L 390.906508 177.514316 
L 391.236106 176.815852 
L 391.565705 177.440398 
L 391.730504 177.425042 
L 392.060103 176.798218 
L 392.389701 177.351554 
L 392.5545 177.335799 
L 392.884099 176.781703 
L 393.213697 177.262679 
L 393.378496 177.246575 
L 393.708095 176.764745 
L 394.037693 177.173774 
L 394.202493 177.15736 
L 394.532091 176.748013 
L 394.86169 177.084845 
L 395.026489 177.068144 
L 395.356087 176.73337 
L 395.685686 176.995898 
L 396.015284 176.851783 
L 396.180083 176.723354 
L 396.674481 176.88968 
L 397.00408 176.717483 
L 397.498477 176.800439 
L 397.992875 176.716369 
L 398.487273 176.731656 
L 398.487273 176.731656 
" style="fill:none;stroke:#1f77b4;stroke-linecap:square;stroke-width:1.5;"/>
   </g>
   <g id="line2d_15">
    <path clip-path="url(#pd49da912e0)" d="M 73.832727 176.752094 
L 88.552995 176.661177 
L 88.722193 176.560931 
L 89.229789 176.800002 
L 89.398987 176.800344 
L 89.737384 176.580246 
L 90.075781 176.921168 
L 90.414178 176.56989 
L 90.921774 176.854071 
L 91.090972 176.874619 
L 91.429369 176.61004 
L 91.767766 177.018886 
L 92.106163 176.552251 
L 92.44456 176.727403 
L 92.782957 178.225763 
L 93.121352 170.782002 
L 93.459728 159.096794 
L 93.798125 176.320654 
L 94.474912 166.641083 
L 94.813238 144.451251 
L 95.490018 177.47159 
L 95.828415 176.269917 
L 96.166812 176.600765 
L 96.674408 176.73393 
L 96.843606 176.813209 
L 97.351202 176.734906 
L 98.366393 176.775283 
L 98.873988 176.639253 
L 99.212385 176.858072 
L 99.71998 176.769706 
L 99.889179 176.792517 
L 100.227576 177.076777 
L 100.565973 176.69263 
L 100.90437 177.105053 
L 101.073568 176.025457 
L 101.242766 175.772668 
L 102.257859 206.446627 
L 102.934583 193.827975 
L 103.272913 203.163123 
L 103.6113 189.932895 
L 103.949537 216.244242 
L 104.28793 186.835361 
L 104.626085 225.690518 
L 104.96444 199.212292 
L 105.640827 227.250314 
L 105.979221 183.796287 
L 106.317561 198.709405 
L 106.655958 176.570987 
L 106.994354 177.53296 
L 107.332751 176.814566 
L 107.671148 177.288247 
L 108.178744 176.866172 
L 108.855538 176.548404 
L 109.024736 176.618813 
L 109.363133 176.933508 
L 110.039927 176.137536 
L 110.378324 176.456729 
L 110.547522 176.236549 
L 110.716721 175.489185 
L 111.393488 163.126853 
L 111.562686 167.289636 
L 111.731881 167.27784 
L 112.070125 142.079186 
L 112.4085 161.883573 
L 112.916044 153.294611 
L 113.085172 154.793734 
L 113.423568 178.540766 
L 113.761965 176.102601 
L 114.100362 176.793917 
L 114.438759 176.467838 
L 114.777156 176.933815 
L 115.115553 176.717303 
L 115.45395 176.071459 
L 115.961545 176.466413 
L 116.807538 177.462741 
L 117.145935 177.013191 
L 117.484332 176.438159 
L 118.161126 176.972386 
L 118.499523 176.721417 
L 118.837919 177.056735 
L 119.007118 176.907778 
L 119.176316 176.914052 
L 119.345515 177.384815 
L 119.514713 177.090527 
L 119.683912 174.53599 
L 119.853108 176.069188 
L 120.19144 199.087697 
L 120.69898 196.736018 
L 120.868131 196.881761 
L 121.03733 199.811758 
L 121.206446 199.166325 
L 121.544841 180.414119 
L 121.883238 176.042274 
L 122.221635 177.002697 
L 122.560032 177.018828 
L 123.067627 176.684265 
L 123.236826 176.672205 
L 123.575223 176.847161 
L 123.91362 176.727476 
L 124.759612 176.850473 
L 126.282398 176.608929 
L 126.620795 176.931581 
L 126.959192 176.782409 
L 127.128391 176.952093 
L 127.297589 176.18027 
L 127.635982 171.252927 
L 127.974376 173.217344 
L 128.312773 176.755167 
L 128.65117 176.846925 
L 128.989567 176.732733 
L 129.327964 176.901 
L 130.004758 176.239319 
L 130.343155 176.636121 
L 131.358346 176.735162 
L 131.696743 176.554487 
L 132.204338 176.735031 
L 132.881132 176.745657 
L 133.388727 176.935853 
L 134.065521 176.375759 
L 134.573117 176.696221 
L 134.742315 176.719131 
L 135.080712 176.603471 
L 135.588307 176.829791 
L 136.772697 176.744237 
L 138.63388 176.668035 
L 139.310674 176.752694 
L 139.649071 176.770339 
L 139.818269 176.894072 
L 140.156666 177.276174 
L 140.495063 176.923077 
L 140.83346 176.364174 
L 141.171857 176.518337 
L 141.510254 176.959179 
L 141.848651 177.014126 
L 142.187048 176.867821 
L 142.356246 176.6844 
L 142.525445 177.37669 
L 142.863839 181.085854 
L 143.033038 181.77324 
L 143.202232 181.45462 
L 143.37143 179.454865 
L 143.540628 178.85732 
L 143.709827 180.553614 
L 143.879022 181.081647 
L 144.217418 178.821989 
L 144.555814 178.616339 
L 144.725013 178.812027 
L 144.89421 178.631063 
L 145.063409 177.847455 
L 145.232607 178.37326 
L 145.401806 180.946584 
L 145.570999 181.777127 
L 146.078594 177.323165 
L 146.247792 176.755386 
L 146.586189 177.098685 
L 146.924586 177.034588 
L 147.262983 176.782167 
L 147.432182 176.748543 
L 147.60138 177.098164 
L 147.939777 179.245307 
L 148.278169 181.74362 
L 148.447368 181.218122 
L 148.616563 181.923783 
L 148.785762 184.537949 
L 148.954946 184.220693 
L 149.293343 176.74102 
L 149.970137 177.171886 
L 150.139336 177.425769 
L 150.308534 177.243912 
L 150.477733 176.457682 
L 150.646931 176.53797 
L 150.985327 179.515077 
L 151.323718 182.614011 
L 151.492916 181.392267 
L 151.662112 181.182402 
L 151.831311 182.323205 
L 152.000503 182.620518 
L 152.338897 181.422188 
L 152.67729 181.606868 
L 153.015682 182.10632 
L 153.184881 181.970215 
L 153.354075 184.22101 
L 153.523273 189.66674 
L 153.69243 190.098275 
L 153.861629 183.951208 
L 154.030825 185.510954 
L 154.369106 201.115371 
L 154.707461 192.176293 
L 154.87666 190.88534 
L 155.045829 195.43596 
L 155.215028 207.474449 
L 155.383998 207.086773 
L 155.553197 191.026217 
L 155.722391 193.197307 
L 155.891589 218.199908 
L 156.060291 222.700052 
L 156.398658 192.959914 
L 156.906149 208.188996 
L 157.075162 204.214156 
L 157.24436 190.383487 
L 157.413553 193.773362 
L 157.582751 217.634457 
L 157.751478 219.427268 
L 157.920676 195.347636 
L 158.089869 188.910782 
L 158.428082 209.137519 
L 158.59728 206.692975 
L 158.935542 194.241133 
L 159.104711 196.413778 
L 159.27391 209.65538 
L 159.442847 207.387056 
L 159.781244 179.9437 
L 159.950442 184.804843 
L 160.119622 186.320912 
L 160.458013 181.31367 
L 160.796409 176.294925 
L 161.134806 178.302453 
L 161.304005 178.521649 
L 161.473202 178.103923 
L 161.811599 176.597051 
L 161.980798 176.965003 
L 162.149996 177.008388 
L 162.488393 176.521563 
L 162.657592 176.458803 
L 163.165187 175.894819 
L 163.503584 177.250534 
L 163.672782 178.298868 
L 163.84198 178.63432 
L 164.180377 177.520444 
L 164.518774 176.402124 
L 164.857171 176.741068 
L 165.195568 176.949 
L 165.364766 177.212608 
L 165.533965 177.208268 
L 165.703163 176.956563 
L 165.872362 176.914098 
L 166.210758 177.146337 
L 166.549155 177.007318 
L 166.887552 176.720319 
L 167.902743 176.777089 
L 168.579537 176.802678 
L 168.917934 176.886361 
L 169.425529 176.79907 
L 171.117514 176.758949 
L 171.286713 177.093455 
L 171.455911 177.723943 
L 171.625109 177.822636 
L 171.963506 177.264907 
L 172.809499 176.76342 
L 173.147896 176.823656 
L 173.655491 176.748627 
L 175.009079 176.766345 
L 175.347476 176.729872 
L 175.516674 176.5926 
L 175.685873 177.039961 
L 176.024269 178.279206 
L 176.193468 178.148018 
L 176.870261 176.856623 
L 177.377857 177.098547 
L 177.547055 176.855979 
L 177.716254 177.09179 
L 177.885452 177.688001 
L 178.054651 177.77861 
L 178.731444 176.737245 
L 179.408238 176.813785 
L 179.577437 176.960174 
L 179.746635 176.948074 
L 179.915834 176.820615 
L 180.254231 176.981829 
L 180.592628 178.704277 
L 180.761825 178.407285 
L 181.269421 175.036931 
L 181.438618 175.009196 
L 181.777015 176.716081 
L 182.28461 179.939382 
L 182.453807 178.980564 
L 182.623005 176.765828 
L 182.792203 176.26102 
L 182.961402 176.920266 
L 183.46896 191.003178 
L 183.807335 186.356945 
L 183.976533 182.801598 
L 184.145729 185.271386 
L 184.314927 191.746744 
L 184.484077 190.308515 
L 184.653275 183.671516 
L 184.822471 184.128595 
L 184.991669 189.261665 
L 185.160835 189.792945 
L 185.499217 185.932687 
L 185.668415 185.179626 
L 185.837604 187.336489 
L 186.006802 191.427087 
L 186.175959 189.704774 
L 186.345157 184.220341 
L 186.514351 185.672016 
L 186.68355 191.526188 
L 186.852703 191.648402 
L 187.021901 188.197548 
L 187.191084 187.369361 
L 187.360282 188.117763 
L 187.698658 192.501742 
L 187.867813 189.87104 
L 188.037012 183.98097 
L 188.206206 184.007221 
L 188.375405 187.646843 
L 188.54458 187.005924 
L 188.713778 183.800534 
L 188.882972 184.454569 
L 189.05217 187.377749 
L 189.221348 188.372973 
L 189.390546 188.31692 
L 189.728922 185.509015 
L 189.898111 187.584348 
L 190.067309 191.880716 
L 190.236465 190.042456 
L 190.405663 184.657038 
L 190.574856 183.033261 
L 190.913246 183.947337 
L 191.082444 184.288324 
L 191.251634 182.638231 
L 191.420832 179.762672 
L 191.59003 178.78312 
L 191.759229 178.901733 
L 192.097625 177.984073 
L 192.266823 180.168499 
L 192.436022 183.872499 
L 192.605209 183.504073 
L 192.774408 180.89203 
L 192.943605 181.270576 
L 193.451193 186.087715 
L 193.620377 184.804951 
L 193.789575 182.058793 
L 193.958771 184.744618 
L 194.127969 190.29734 
L 194.297132 189.411458 
L 194.466331 185.2321 
L 194.635522 185.837311 
L 194.973893 190.438007 
L 195.143092 191.359152 
L 195.819853 176.831233 
L 195.989051 177.274124 
L 196.158249 178.170396 
L 196.327448 178.013386 
L 196.665844 177.045871 
L 196.835043 176.977733 
L 197.17344 177.619724 
L 197.511837 180.057063 
L 197.681033 179.659818 
L 197.850232 178.377922 
L 198.01943 178.29338 
L 198.188628 178.803431 
L 198.357826 178.822768 
L 198.527025 178.631238 
L 199.03462 176.824419 
L 199.542215 178.119874 
L 199.711413 177.50992 
L 199.880612 176.428875 
L 200.04981 176.763398 
L 200.219008 177.734979 
L 200.388207 177.85223 
L 200.557405 177.581143 
L 200.895802 174.289736 
L 201.064999 177.72366 
L 201.403386 187.350632 
L 201.572584 190.211517 
L 201.741754 189.186574 
L 201.910952 186.429449 
L 202.249338 207.091572 
L 202.418374 201.751744 
L 202.587573 188.579531 
L 202.756763 191.265624 
L 202.925961 200.766284 
L 203.09506 201.925706 
L 203.264259 199.508195 
L 203.433391 203.076684 
L 203.940827 217.956501 
L 204.109781 218.308523 
L 204.278979 217.07292 
L 204.61716 254.569743 
L 204.785445 242.369141 
L 204.954643 217.35989 
L 205.123692 230.251318 
L 205.292891 257.79268 
L 205.461072 242.408221 
L 205.63027 210.560754 
L 205.799389 217.069955 
L 205.968587 237.757529 
L 206.13723 227.638349 
L 206.306428 206.60149 
L 206.475553 213.1874 
L 206.644751 229.325181 
L 206.813554 234.580192 
L 206.982752 236.111229 
L 207.320715 220.046079 
L 207.658908 256.350742 
L 207.827265 241.945942 
L 207.996464 216.661383 
L 208.165522 227.103473 
L 208.334721 247.479115 
L 208.672494 210.483988 
L 208.841601 218.678248 
L 209.010799 235.572278 
L 209.348763 198.147104 
L 209.517931 210.631419 
L 209.68713 232.73428 
L 209.855928 222.287896 
L 210.025126 203.146849 
L 210.19427 198.500018 
L 210.363469 197.676186 
L 210.871018 177.752914 
L 211.040217 177.971332 
L 211.71701 176.654167 
L 212.055407 177.128642 
L 212.563003 176.725931 
L 213.239797 176.755787 
L 213.408995 176.618035 
L 213.747392 176.706524 
L 214.085789 175.704866 
L 214.254987 175.8485 
L 214.762583 176.977364 
L 215.10098 173.450259 
L 215.439375 134.85504 
L 215.608373 137.350371 
L 215.777572 144.951081 
L 216.454092 124.431203 
L 216.792229 137.348006 
L 217.130493 109.969846 
L 217.468479 146.023931 
L 217.806811 114.234912 
L 218.144856 150.894962 
L 218.314009 144.847481 
L 218.483208 134.31017 
L 218.821447 157.609232 
L 218.990622 153.388996 
L 219.159821 146.254156 
L 219.498142 142.252705 
L 219.836446 165.487728 
L 220.174836 142.910341 
L 220.513137 164.012051 
L 220.851525 143.629687 
L 221.189837 155.65003 
L 221.528205 169.153764 
L 221.6974 167.733673 
L 221.866599 165.143723 
L 222.204986 180.489016 
L 222.374183 179.185019 
L 222.881778 172.302912 
L 223.220174 174.765708 
L 223.55857 177.611388 
L 223.727769 177.740987 
L 223.896967 177.706228 
L 224.404563 176.664003 
L 224.573761 176.591187 
L 224.912158 176.882347 
L 225.419753 176.612133 
L 225.588952 176.669297 
L 225.927349 176.48778 
L 226.265746 176.053278 
L 226.604143 176.646528 
L 227.619334 176.61671 
L 227.957731 176.452213 
L 228.465326 176.714371 
L 229.818914 176.722763 
L 229.988112 176.758806 
L 230.326509 176.353177 
L 231.3417 176.781875 
L 232.187692 176.791369 
L 232.356891 176.838455 
L 233.033685 176.293426 
L 233.54128 176.763167 
L 233.879677 176.81188 
L 235.571662 176.691071 
L 236.079257 176.702095 
L 236.417654 176.485402 
L 236.756051 176.713315 
L 237.094448 176.339686 
L 237.940441 176.760732 
L 238.786433 176.754545 
L 239.12483 176.808676 
L 239.801624 176.305971 
L 240.140021 176.714794 
L 240.478418 176.442153 
L 240.986013 176.64734 
L 241.155212 176.784398 
L 241.662807 176.731908 
L 241.832006 176.759417 
L 242.170403 176.561914 
L 242.677998 176.672393 
L 242.847197 176.62969 
L 243.185594 176.213839 
L 243.693189 176.697216 
L 244.031586 176.776459 
L 244.539181 176.693829 
L 244.877578 176.488912 
L 245.554372 176.779739 
L 246.061968 176.738451 
L 246.569563 176.562965 
L 246.90796 176.736082 
L 247.584754 176.532925 
L 248.092349 176.800314 
L 248.599945 176.809616 
L 248.938342 176.239784 
L 249.276739 176.307213 
L 249.615136 176.82552 
L 250.122731 176.794643 
L 250.461128 176.766833 
L 250.968723 176.903101 
L 251.476319 176.138108 
L 251.645517 175.805778 
L 251.983914 176.551382 
L 252.322311 176.308196 
L 252.660708 176.507821 
L 252.999105 177.024929 
L 253.675899 176.884079 
L 254.183495 176.306493 
L 254.352693 176.254851 
L 254.69109 177.000062 
L 255.029487 174.538467 
L 255.367884 177.600232 
L 255.706281 178.444596 
L 256.044677 176.062489 
L 256.383074 177.613162 
L 257.059866 169.432468 
L 257.229064 168.755623 
L 257.39826 167.210531 
L 257.736605 141.902245 
L 258.074981 154.377316 
L 258.751626 130.846104 
L 259.09 153.488892 
L 259.428262 125.936697 
L 259.766633 153.387632 
L 260.105004 154.242968 
L 260.274202 153.50711 
L 260.443371 153.500764 
L 260.781765 168.670515 
L 261.120147 160.561821 
L 261.458541 168.623617 
L 261.796933 167.757347 
L 262.135328 171.355772 
L 262.473724 172.48847 
L 262.812117 168.477918 
L 263.150513 173.241478 
L 263.488906 168.905101 
L 263.827299 167.928904 
L 264.504091 174.440865 
L 264.842482 167.687772 
L 265.180874 167.772742 
L 265.519268 170.875154 
L 265.857665 178.32796 
L 266.196053 166.204513 
L 266.365251 169.283853 
L 266.534448 168.623885 
L 266.872646 128.208009 
L 267.041845 129.20733 
L 267.210885 128.637573 
L 267.380084 123.473696 
L 267.549035 114.258759 
L 267.886181 53.568 
L 268.223967 80.399759 
L 268.393166 76.376691 
L 268.561316 76.22798 
L 268.898446 67.380821 
L 269.236281 104.75002 
L 269.405479 99.094465 
L 269.573939 100.04264 
L 270.081441 167.923744 
L 270.250637 180.862766 
L 270.927429 172.453275 
L 271.265818 168.547064 
L 271.942604 172.363138 
L 272.619393 183.582855 
L 272.788591 182.858218 
L 272.957786 181.517748 
L 273.296183 175.841053 
L 273.465381 177.257692 
L 273.63458 177.711394 
L 273.803778 174.890315 
L 273.972975 176.479961 
L 274.311277 206.159764 
L 274.480476 210.256173 
L 274.649511 222.436198 
L 274.986217 295.488 
L 275.323666 262.554187 
L 275.660878 272.988266 
L 275.830077 274.344783 
L 275.997984 265.37025 
L 276.33623 210.635999 
L 276.505428 212.976214 
L 276.674429 210.371475 
L 277.012813 184.797555 
L 277.35121 175.931866 
L 277.689607 176.464756 
L 278.197202 176.520748 
L 278.366401 176.868073 
L 278.535599 177.997213 
L 278.704797 178.35334 
L 279.212393 174.956069 
L 279.38159 174.993226 
L 279.889185 181.318282 
L 280.058379 181.94994 
L 280.565974 176.415457 
L 280.735172 175.49963 
L 280.90437 175.614157 
L 281.073569 175.937741 
L 281.411966 177.194293 
L 282.08876 176.806547 
L 282.427156 176.943474 
L 282.934752 176.342472 
L 283.10395 176.340188 
L 283.611546 177.033639 
L 283.780744 176.988184 
L 284.119141 176.144797 
L 284.457538 175.879489 
L 284.795935 176.386262 
L 285.134332 176.995879 
L 285.472729 176.859887 
L 285.811126 176.517534 
L 286.149523 176.810625 
L 286.48792 176.712188 
L 286.826317 176.760455 
L 287.333912 176.633899 
L 287.503111 174.63339 
L 288.010687 157.451429 
L 288.179804 156.625549 
L 288.349003 165.022272 
L 288.518195 167.039676 
L 288.856497 154.235971 
L 289.194874 165.796859 
L 289.364072 167.199538 
L 289.533259 167.518672 
L 289.871635 164.827993 
L 290.040833 164.633933 
L 290.210009 159.455284 
L 290.379207 145.759041 
L 290.548164 141.783852 
L 290.886528 162.133999 
L 291.055726 162.536395 
L 291.224894 164.096929 
L 291.90168 177.320509 
L 292.240077 176.601033 
L 292.578474 176.773631 
L 292.916871 176.687219 
L 293.255268 176.808201 
L 295.454848 176.612751 
L 296.470039 176.988318 
L 296.977635 176.746212 
L 297.654428 177.491496 
L 298.162024 176.907056 
L 298.669619 176.657 
L 299.346413 176.924876 
L 299.515612 177.275855 
L 299.68481 176.805126 
L 299.854008 175.196274 
L 300.023206 179.698706 
L 300.361516 200.700124 
L 300.530715 202.520467 
L 300.699797 200.719309 
L 300.868996 193.894335 
L 301.038166 194.059561 
L 301.207364 203.719236 
L 301.376392 204.211387 
L 301.545591 192.48343 
L 301.714776 193.496462 
L 301.883974 211.123402 
L 302.052855 216.266123 
L 302.391169 200.38175 
L 302.560368 202.597355 
L 302.898646 212.541044 
L 303.067595 209.248485 
L 303.236793 194.314581 
L 303.405978 191.593426 
L 303.575176 203.824746 
L 303.744188 205.163876 
L 304.082569 186.477546 
L 304.420954 185.331663 
L 304.590153 185.776023 
L 304.759337 183.615756 
L 305.097734 175.719619 
L 305.436131 177.328396 
L 305.605329 178.773136 
L 305.774526 178.813841 
L 306.112923 176.49678 
L 306.282122 176.853647 
L 306.45132 176.742754 
L 306.620519 176.09868 
L 306.789717 176.047299 
L 307.297312 177.744636 
L 307.466511 177.722247 
L 307.804908 176.812583 
L 308.143304 177.11453 
L 308.312503 177.178062 
L 308.481701 177.055274 
L 308.820098 176.549068 
L 309.158495 176.593391 
L 309.496892 177.032932 
L 309.835289 177.483027 
L 310.004488 177.433649 
L 310.173686 177.177863 
L 310.512083 176.383316 
L 310.681281 176.20712 
L 310.85048 176.32693 
L 311.188877 177.379635 
L 311.358075 178.100667 
L 311.527273 178.225896 
L 312.204067 176.401694 
L 312.542464 176.537418 
L 313.050059 176.93878 
L 313.388456 176.86644 
L 313.896052 176.816776 
L 314.234449 176.860819 
L 314.742044 176.778755 
L 315.24964 176.847288 
L 315.757235 177.355798 
L 315.926433 177.241705 
L 316.26483 176.77585 
L 316.772426 176.918762 
L 318.126014 176.858803 
L 318.633609 176.846483 
L 318.972006 176.802104 
L 319.310403 176.867749 
L 319.6488 176.890111 
L 319.987197 177.039499 
L 320.663991 176.826671 
L 321.002388 176.87693 
L 321.340785 176.778743 
L 321.84838 177.04674 
L 322.017579 176.954169 
L 322.355975 176.585228 
L 322.694372 176.537483 
L 322.863571 176.626605 
L 323.201968 177.504241 
L 323.540365 178.226256 
L 323.709563 177.833083 
L 324.04796 176.439074 
L 324.386357 176.579613 
L 324.724754 176.798194 
L 325.401547 176.742151 
L 325.909143 177.069791 
L 326.585937 176.850803 
L 327.093532 176.837151 
L 327.431929 177.497784 
L 327.601128 177.922892 
L 327.770326 177.600299 
L 328.108723 176.281025 
L 328.277921 176.061182 
L 328.44712 176.216442 
L 328.616318 176.655574 
L 328.785517 176.537913 
L 328.954715 176.005989 
L 329.123913 176.088264 
L 329.46231 176.873369 
L 329.631509 176.914616 
L 329.969906 179.205048 
L 330.308301 180.904262 
L 330.477497 180.366216 
L 330.646695 178.972155 
L 330.815893 187.2618 
L 331.154131 209.048439 
L 331.32333 210.309088 
L 331.492343 206.386545 
L 331.661541 198.756248 
L 331.830683 209.823816 
L 331.999882 233.858616 
L 332.168377 229.29182 
L 332.337576 205.352427 
L 332.506717 205.802131 
L 332.675915 222.370378 
L 332.844688 223.849914 
L 333.352086 197.954861 
L 333.521235 199.538523 
L 333.690434 207.730936 
L 333.859451 203.208709 
L 334.197834 186.039314 
L 334.367033 185.812252 
L 334.705417 180.665165 
L 334.874614 181.896288 
L 335.212995 187.229633 
L 335.551374 187.446053 
L 335.720572 187.38039 
L 336.058952 199.809867 
L 336.228047 196.281472 
L 336.397245 186.096021 
L 336.566439 185.462443 
L 336.735638 190.444558 
L 336.904799 188.584067 
L 337.073997 182.748798 
L 337.243194 186.308781 
L 337.412392 195.139089 
L 337.581521 193.912796 
L 337.750719 187.280306 
L 337.919907 189.763827 
L 338.089105 197.105851 
L 338.258224 198.84151 
L 338.427423 197.534976 
L 338.934936 189.069899 
L 339.104135 190.793358 
L 339.611575 206.201985 
L 339.949823 209.783721 
L 340.119022 211.996224 
L 340.457227 241.114064 
L 340.625704 230.938186 
L 340.794902 206.656717 
L 340.964032 206.366219 
L 341.133231 218.257592 
L 341.30213 205.200632 
L 341.471328 179.994377 
L 341.640523 175.087055 
L 341.809722 179.954425 
L 341.978917 180.228523 
L 342.148116 178.358315 
L 342.317314 178.236004 
L 342.486512 178.920198 
L 342.65571 178.916443 
L 342.824909 178.59406 
L 343.670899 173.821614 
L 343.840097 174.084643 
L 344.009295 173.703083 
L 344.178493 173.010067 
L 344.516888 179.277172 
L 345.193436 118.937461 
L 345.362118 124.314336 
L 345.531316 136.463843 
L 345.700331 126.891886 
L 345.869529 107.573429 
L 346.037959 123.412988 
L 346.207157 154.170298 
L 346.37633 151.20751 
L 346.545529 134.33592 
L 346.714426 148.154913 
L 346.883624 174.360572 
L 347.052819 179.969325 
L 347.222017 177.230845 
L 347.391216 176.828983 
L 347.560414 177.381361 
L 347.729613 177.231493 
L 347.898811 176.801312 
L 348.06801 176.812299 
L 348.237208 176.998508 
L 348.575605 176.84162 
L 349.421597 176.571208 
L 350.098391 176.768088 
L 350.605987 176.763863 
L 350.944384 177.018501 
L 351.282781 176.785423 
L 351.621178 176.010005 
L 351.790376 175.995391 
L 351.959575 176.128581 
L 352.46717 177.25656 
L 352.636368 177.419183 
L 353.482361 176.378863 
L 353.989956 176.797774 
L 354.328353 176.104018 
L 354.497551 176.287438 
L 355.005147 177.64791 
L 355.174345 177.54471 
L 355.512742 176.796181 
L 355.681941 176.309069 
L 356.020338 174.427076 
L 356.358734 167.82893 
L 356.527921 169.805127 
L 356.866317 175.435533 
L 357.035515 176.669013 
L 357.204714 176.757576 
L 357.712309 176.043988 
L 358.389103 176.926927 
L 358.896699 176.688065 
L 359.235095 176.769223 
L 359.911889 176.721261 
L 360.757882 176.820718 
L 361.096279 176.560577 
L 361.434676 176.721316 
L 361.773073 177.056075 
L 362.619065 176.939163 
L 365.157042 176.60047 
L 365.495439 177.11497 
L 365.833836 175.526831 
L 366.172233 181.664585 
L 366.510627 202.507838 
L 366.848944 184.954468 
L 367.187338 212.670578 
L 367.356386 208.574815 
L 367.525584 199.822329 
L 367.863936 195.278188 
L 368.202301 215.152328 
L 368.540542 186.073932 
L 368.878935 214.254956 
L 369.21718 191.167689 
L 369.555564 219.825956 
L 369.724568 216.933731 
L 370.062876 206.686455 
L 370.232074 204.405554 
L 370.570405 216.556492 
L 370.908661 190.722224 
L 371.247047 211.997221 
L 371.585329 185.516545 
L 371.923723 216.040234 
L 372.261979 199.014952 
L 372.431143 199.960832 
L 372.600341 202.764368 
L 372.938682 217.481289 
L 373.276945 181.593248 
L 373.615341 219.278396 
L 373.953584 185.500219 
L 374.12278 189.352387 
L 374.291978 196.662134 
L 374.461145 195.659685 
L 374.630344 193.505382 
L 374.968721 179.52518 
L 375.137919 181.446996 
L 375.307118 184.691698 
L 375.64551 179.716394 
L 375.983906 190.706735 
L 376.660684 174.842348 
L 376.999081 177.786654 
L 377.168279 177.737665 
L 377.506676 176.974329 
L 377.675875 176.467825 
L 378.014272 177.106784 
L 378.352669 176.330647 
L 378.691065 177.141668 
L 379.706256 176.592817 
L 380.044653 177.841158 
L 380.38305 175.661774 
L 380.721447 191.416064 
L 381.398227 176.930533 
L 381.567425 176.739466 
L 381.736624 176.828483 
L 382.413418 176.754166 
L 382.751815 176.804346 
L 383.090212 176.474275 
L 383.428608 176.842952 
L 383.767005 178.298937 
L 384.274601 176.744594 
L 384.612998 176.293607 
L 384.782196 176.013002 
L 385.120593 176.892236 
L 385.45899 178.290373 
L 385.966585 176.661578 
L 386.135784 176.487724 
L 386.643379 176.653576 
L 386.981776 176.739539 
L 387.320173 176.746763 
L 387.65857 176.762343 
L 388.166166 176.796051 
L 389.519753 176.736062 
L 390.365746 176.747888 
L 392.226929 176.743149 
L 393.580517 176.757273 
L 397.472082 176.752711 
L 398.487273 176.752461 
L 398.487273 176.752461 
" style="fill:none;stroke:#ff7f0e;stroke-linecap:square;stroke-width:1.5;"/>
   </g>
   <g id="line2d_16">
    <path clip-path="url(#pd49da912e0)" d="M 73.832727 176.752096 
L 74.165196 176.368258 
L 84.305498 175.083932 
L 92.783454 172.44512 
L 93.115923 172.580323 
L 93.614626 172.236776 
L 94.113329 172.074426 
L 94.445798 172.294409 
L 94.944501 171.93299 
L 95.110736 171.748717 
L 95.443204 171.858602 
L 95.941908 173.108587 
L 99.100362 183.085541 
L 102.757511 194.819813 
L 103.921143 199.607307 
L 104.419844 201.208017 
L 104.75231 200.830337 
L 105.583475 195.793946 
L 111.069205 163.955549 
L 111.401673 162.936379 
L 111.734141 163.148812 
L 112.232843 164.487125 
L 112.731546 165.87088 
L 113.562716 168.147034 
L 119.38092 184.924582 
L 120.045857 186.19878 
L 120.544559 185.59413 
L 121.708199 183.400619 
L 126.695231 173.034181 
L 127.193934 172.991846 
L 128.025106 173.294372 
L 141.65633 179.300015 
L 142.487502 179.633219 
L 144.482315 180.529435 
L 145.147252 180.858967 
L 146.809596 181.885786 
L 151.796619 186.530751 
L 154.12389 188.964919 
L 156.284924 191.599441 
L 156.61739 191.274618 
L 157.282323 189.967521 
L 158.445956 188.02578 
L 158.944658 187.322311 
L 159.443359 186.667641 
L 159.942061 185.970059 
L 164.596618 179.318844 
L 166.9239 176.896357 
L 167.921307 176.961657 
L 172.90834 177.629304 
L 178.726545 179.830723 
L 186.539556 182.622458 
L 187.370726 182.645697 
L 194.352558 183.025249 
L 196.846069 183.488755 
L 198.009707 183.799988 
L 198.175941 183.913755 
L 198.674642 185.302749 
L 201.500597 195.703714 
L 202.497979 200.053042 
L 203.495349 205.200629 
L 204.326468 210.785 
L 204.991356 216.964925 
L 205.65623 222.835405 
L 206.321097 227.046913 
L 206.653529 230.275946 
L 207.152192 236.399591 
L 207.48462 234.941764 
L 208.648172 215.249587 
L 209.479328 204.786134 
L 211.640361 183.657957 
L 214.133874 158.583769 
L 216.128663 137.426332 
L 216.461125 138.268556 
L 217.292284 145.202817 
L 217.957217 149.189505 
L 218.95462 154.071258 
L 220.284493 159.271125 
L 221.281899 162.542783 
L 225.603994 176.157618 
L 225.936462 176.517447 
L 226.268931 176.600356 
L 233.583247 176.707401 
L 247.380707 176.883927 
L 248.876817 176.363109 
L 249.209286 176.100518 
L 250.040458 175.131902 
L 252.035271 172.864908 
L 256.856065 168.139668 
L 257.354768 167.714023 
L 258.68464 166.345853 
L 260.014512 164.652794 
L 262.341783 161.419355 
L 263.671649 158.971498 
L 264.170347 157.34055 
L 264.669047 154.88186 
L 265.998902 146.864035 
L 267.162512 137.912279 
L 267.82743 130.629505 
L 268.159888 125.623436 
L 268.824808 114.680476 
L 268.991043 113.230257 
L 269.323506 116.038669 
L 270.320891 135.26004 
L 273.313096 195.188074 
L 274.642948 216.658211 
L 275.141637 224.983569 
L 275.307853 226.827236 
L 275.806538 222.228771 
L 276.970121 208.885191 
L 278.133739 198.945782 
L 279.131133 192.456903 
L 280.294767 185.28157 
L 280.79347 181.9339 
L 281.125938 180.827506 
L 282.289579 178.324892 
L 289.105182 164.239761 
L 289.437649 163.912399 
L 289.770116 163.851268 
L 290.102583 163.958697 
L 290.43505 164.255509 
L 290.933751 165.049026 
L 292.263622 168.068593 
L 300.409103 188.072746 
L 301.074038 189.757618 
L 301.738972 191.241857 
L 301.905205 191.372098 
L 302.736374 189.870028 
L 303.401309 188.758979 
L 304.564946 187.031816 
L 308.720801 180.885258 
L 311.048083 177.432847 
L 311.380552 177.29649 
L 314.040304 176.840185 
L 319.52604 175.987689 
L 320.855916 176.360326 
L 323.681902 177.3 
L 324.014371 177.685551 
L 326.341653 181.350283 
L 332.159851 191.642001 
L 332.658554 192.527854 
L 333.32349 193.087442 
L 333.822191 193.223681 
L 334.487127 193.594001 
L 335.48453 194.090323 
L 336.149465 194.595867 
L 337.479334 196.300711 
L 338.476735 198.148569 
L 340.139065 202.566309 
L 340.47153 202.003071 
L 340.97023 198.420674 
L 342.466334 184.013142 
L 345.12608 157.489727 
L 345.458546 157.019816 
L 346.289714 159.268118 
L 346.954649 160.743045 
L 347.287116 161.599908 
L 347.952052 163.308192 
L 350.778032 169.977776 
L 351.442969 170.466323 
L 356.76247 175.481585 
L 358.25858 176.824502 
L 361.417035 179.81444 
L 362.081972 181.122841 
L 367.567703 193.721784 
L 369.72874 200.198418 
L 370.061207 200.262918 
L 370.559908 199.064369 
L 372.056009 194.746194 
L 374.050816 190.707882 
L 376.045625 187.346308 
L 379.370311 182.481129 
L 380.533952 181.058744 
L 382.528765 178.85523 
L 383.027469 178.378316 
L 383.858641 178.137639 
L 385.853454 177.904299 
L 387.682033 177.698505 
L 398.487273 176.44652 
L 398.487273 176.44652 
" style="fill:none;stroke:#2ca02c;stroke-linecap:square;stroke-width:1.5;"/>
   </g>
   <g id="patch_3">
    <path d="M 57.6 307.584 
L 57.6 41.472 
" style="fill:none;stroke:#000000;stroke-linecap:square;stroke-linejoin:miter;stroke-width:0.8;"/>
   </g>
   <g id="patch_4">
    <path d="M 414.72 307.584 
L 414.72 41.472 
" style="fill:none;stroke:#000000;stroke-linecap:square;stroke-linejoin:miter;stroke-width:0.8;"/>
   </g>
   <g id="patch_5">
    <path d="M 57.6 307.584 
L 414.72 307.584 
" style="fill:none;stroke:#000000;stroke-linecap:square;stroke-linejoin:miter;stroke-width:0.8;"/>
   </g>
   <g id="patch_6">
    <path d="M 57.6 41.472 
L 414.72 41.472 
" style="fill:none;stroke:#000000;stroke-linecap:square;stroke-linejoin:miter;stroke-width:0.8;"/>
   </g>
   <g id="text_14">
    <!-- Curvature vs Distance gbr -->
    <g transform="translate(157.577812 35.472)scale(0.12 -0.12)">
     <defs>
      <path d="M 64.40625 67.28125 
L 64.40625 56.890625 
Q 59.421875 61.53125 53.78125 63.8125 
Q 48.140625 66.109375 41.796875 66.109375 
Q 29.296875 66.109375 22.65625 58.46875 
Q 16.015625 50.828125 16.015625 36.375 
Q 16.015625 21.96875 22.65625 14.328125 
Q 29.296875 6.6875 41.796875 6.6875 
Q 48.140625 6.6875 53.78125 8.984375 
Q 59.421875 11.28125 64.40625 15.921875 
L 64.40625 5.609375 
Q 59.234375 2.09375 53.4375 0.328125 
Q 47.65625 -1.421875 41.21875 -1.421875 
Q 24.65625 -1.421875 15.125 8.703125 
Q 5.609375 18.84375 5.609375 36.375 
Q 5.609375 53.953125 15.125 64.078125 
Q 24.65625 74.21875 41.21875 74.21875 
Q 47.75 74.21875 53.53125 72.484375 
Q 59.328125 70.75 64.40625 67.28125 
z
" id="DejaVuSans-67"/>
      <path d="M 8.5 21.578125 
L 8.5 54.6875 
L 17.484375 54.6875 
L 17.484375 21.921875 
Q 17.484375 14.15625 20.5 10.265625 
Q 23.53125 6.390625 29.59375 6.390625 
Q 36.859375 6.390625 41.078125 11.03125 
Q 45.3125 15.671875 45.3125 23.6875 
L 45.3125 54.6875 
L 54.296875 54.6875 
L 54.296875 0 
L 45.3125 0 
L 45.3125 8.40625 
Q 42.046875 3.421875 37.71875 1 
Q 33.40625 -1.421875 27.6875 -1.421875 
Q 18.265625 -1.421875 13.375 4.4375 
Q 8.5 10.296875 8.5 21.578125 
z
M 31.109375 56 
z
" id="DejaVuSans-117"/>
      <path d="M 41.109375 46.296875 
Q 39.59375 47.171875 37.8125 47.578125 
Q 36.03125 48 33.890625 48 
Q 26.265625 48 22.1875 43.046875 
Q 18.109375 38.09375 18.109375 28.8125 
L 18.109375 0 
L 9.078125 0 
L 9.078125 54.6875 
L 18.109375 54.6875 
L 18.109375 46.1875 
Q 20.953125 51.171875 25.484375 53.578125 
Q 30.03125 56 36.53125 56 
Q 37.453125 56 38.578125 55.875 
Q 39.703125 55.765625 41.0625 55.515625 
z
" id="DejaVuSans-114"/>
      <path d="M 2.984375 54.6875 
L 12.5 54.6875 
L 29.59375 8.796875 
L 46.6875 54.6875 
L 56.203125 54.6875 
L 35.6875 0 
L 23.484375 0 
z
" id="DejaVuSans-118"/>
      <path d="M 34.28125 27.484375 
Q 23.390625 27.484375 19.1875 25 
Q 14.984375 22.515625 14.984375 16.5 
Q 14.984375 11.71875 18.140625 8.90625 
Q 21.296875 6.109375 26.703125 6.109375 
Q 34.1875 6.109375 38.703125 11.40625 
Q 43.21875 16.703125 43.21875 25.484375 
L 43.21875 27.484375 
z
M 52.203125 31.203125 
L 52.203125 0 
L 43.21875 0 
L 43.21875 8.296875 
Q 40.140625 3.328125 35.546875 0.953125 
Q 30.953125 -1.421875 24.3125 -1.421875 
Q 15.921875 -1.421875 10.953125 3.296875 
Q 6 8.015625 6 15.921875 
Q 6 25.140625 12.171875 29.828125 
Q 18.359375 34.515625 30.609375 34.515625 
L 43.21875 34.515625 
L 43.21875 35.40625 
Q 43.21875 41.609375 39.140625 45 
Q 35.0625 48.390625 27.6875 48.390625 
Q 23 48.390625 18.546875 47.265625 
Q 14.109375 46.140625 10.015625 43.890625 
L 10.015625 52.203125 
Q 14.9375 54.109375 19.578125 55.046875 
Q 24.21875 56 28.609375 56 
Q 40.484375 56 46.34375 49.84375 
Q 52.203125 43.703125 52.203125 31.203125 
z
" id="DejaVuSans-97"/>
      <path d="M 18.3125 70.21875 
L 18.3125 54.6875 
L 36.8125 54.6875 
L 36.8125 47.703125 
L 18.3125 47.703125 
L 18.3125 18.015625 
Q 18.3125 11.328125 20.140625 9.421875 
Q 21.96875 7.515625 27.59375 7.515625 
L 36.8125 7.515625 
L 36.8125 0 
L 27.59375 0 
Q 17.1875 0 13.234375 3.875 
Q 9.28125 7.765625 9.28125 18.015625 
L 9.28125 47.703125 
L 2.6875 47.703125 
L 2.6875 54.6875 
L 9.28125 54.6875 
L 9.28125 70.21875 
z
" id="DejaVuSans-116"/>
      <path d="M 56.203125 29.59375 
L 56.203125 25.203125 
L 14.890625 25.203125 
Q 15.484375 15.921875 20.484375 11.0625 
Q 25.484375 6.203125 34.421875 6.203125 
Q 39.59375 6.203125 44.453125 7.46875 
Q 49.3125 8.734375 54.109375 11.28125 
L 54.109375 2.78125 
Q 49.265625 0.734375 44.1875 -0.34375 
Q 39.109375 -1.421875 33.890625 -1.421875 
Q 20.796875 -1.421875 13.15625 6.1875 
Q 5.515625 13.8125 5.515625 26.8125 
Q 5.515625 40.234375 12.765625 48.109375 
Q 20.015625 56 32.328125 56 
Q 43.359375 56 49.78125 48.890625 
Q 56.203125 41.796875 56.203125 29.59375 
z
M 47.21875 32.234375 
Q 47.125 39.59375 43.09375 43.984375 
Q 39.0625 48.390625 32.421875 48.390625 
Q 24.90625 48.390625 20.390625 44.140625 
Q 15.875 39.890625 15.1875 32.171875 
z
" id="DejaVuSans-101"/>
      <path id="DejaVuSans-32"/>
      <path d="M 44.28125 53.078125 
L 44.28125 44.578125 
Q 40.484375 46.53125 36.375 47.5 
Q 32.28125 48.484375 27.875 48.484375 
Q 21.1875 48.484375 17.84375 46.4375 
Q 14.5 44.390625 14.5 40.28125 
Q 14.5 37.15625 16.890625 35.375 
Q 19.28125 33.59375 26.515625 31.984375 
L 29.59375 31.296875 
Q 39.15625 29.25 43.1875 25.515625 
Q 47.21875 21.78125 47.21875 15.09375 
Q 47.21875 7.46875 41.1875 3.015625 
Q 35.15625 -1.421875 24.609375 -1.421875 
Q 20.21875 -1.421875 15.453125 -0.5625 
Q 10.6875 0.296875 5.421875 2 
L 5.421875 11.28125 
Q 10.40625 8.6875 15.234375 7.390625 
Q 20.0625 6.109375 24.8125 6.109375 
Q 31.15625 6.109375 34.5625 8.28125 
Q 37.984375 10.453125 37.984375 14.40625 
Q 37.984375 18.0625 35.515625 20.015625 
Q 33.0625 21.96875 24.703125 23.78125 
L 21.578125 24.515625 
Q 13.234375 26.265625 9.515625 29.90625 
Q 5.8125 33.546875 5.8125 39.890625 
Q 5.8125 47.609375 11.28125 51.796875 
Q 16.75 56 26.8125 56 
Q 31.78125 56 36.171875 55.265625 
Q 40.578125 54.546875 44.28125 53.078125 
z
" id="DejaVuSans-115"/>
      <path d="M 19.671875 64.796875 
L 19.671875 8.109375 
L 31.59375 8.109375 
Q 46.6875 8.109375 53.6875 14.9375 
Q 60.6875 21.78125 60.6875 36.53125 
Q 60.6875 51.171875 53.6875 57.984375 
Q 46.6875 64.796875 31.59375 64.796875 
z
M 9.8125 72.90625 
L 30.078125 72.90625 
Q 51.265625 72.90625 61.171875 64.09375 
Q 71.09375 55.28125 71.09375 36.53125 
Q 71.09375 17.671875 61.125 8.828125 
Q 51.171875 0 30.078125 0 
L 9.8125 0 
z
" id="DejaVuSans-68"/>
      <path d="M 9.421875 54.6875 
L 18.40625 54.6875 
L 18.40625 0 
L 9.421875 0 
z
M 9.421875 75.984375 
L 18.40625 75.984375 
L 18.40625 64.59375 
L 9.421875 64.59375 
z
" id="DejaVuSans-105"/>
      <path d="M 54.890625 33.015625 
L 54.890625 0 
L 45.90625 0 
L 45.90625 32.71875 
Q 45.90625 40.484375 42.875 44.328125 
Q 39.84375 48.1875 33.796875 48.1875 
Q 26.515625 48.1875 22.3125 43.546875 
Q 18.109375 38.921875 18.109375 30.90625 
L 18.109375 0 
L 9.078125 0 
L 9.078125 54.6875 
L 18.109375 54.6875 
L 18.109375 46.1875 
Q 21.34375 51.125 25.703125 53.5625 
Q 30.078125 56 35.796875 56 
Q 45.21875 56 50.046875 50.171875 
Q 54.890625 44.34375 54.890625 33.015625 
z
" id="DejaVuSans-110"/>
      <path d="M 48.78125 52.59375 
L 48.78125 44.1875 
Q 44.96875 46.296875 41.140625 47.34375 
Q 37.3125 48.390625 33.40625 48.390625 
Q 24.65625 48.390625 19.8125 42.84375 
Q 14.984375 37.3125 14.984375 27.296875 
Q 14.984375 17.28125 19.8125 11.734375 
Q 24.65625 6.203125 33.40625 6.203125 
Q 37.3125 6.203125 41.140625 7.25 
Q 44.96875 8.296875 48.78125 10.40625 
L 48.78125 2.09375 
Q 45.015625 0.34375 40.984375 -0.53125 
Q 36.96875 -1.421875 32.421875 -1.421875 
Q 20.0625 -1.421875 12.78125 6.34375 
Q 5.515625 14.109375 5.515625 27.296875 
Q 5.515625 40.671875 12.859375 48.328125 
Q 20.21875 56 33.015625 56 
Q 37.15625 56 41.109375 55.140625 
Q 45.0625 54.296875 48.78125 52.59375 
z
" id="DejaVuSans-99"/>
      <path d="M 45.40625 27.984375 
Q 45.40625 37.75 41.375 43.109375 
Q 37.359375 48.484375 30.078125 48.484375 
Q 22.859375 48.484375 18.828125 43.109375 
Q 14.796875 37.75 14.796875 27.984375 
Q 14.796875 18.265625 18.828125 12.890625 
Q 22.859375 7.515625 30.078125 7.515625 
Q 37.359375 7.515625 41.375 12.890625 
Q 45.40625 18.265625 45.40625 27.984375 
z
M 54.390625 6.78125 
Q 54.390625 -7.171875 48.1875 -13.984375 
Q 42 -20.796875 29.203125 -20.796875 
Q 24.46875 -20.796875 20.265625 -20.09375 
Q 16.0625 -19.390625 12.109375 -17.921875 
L 12.109375 -9.1875 
Q 16.0625 -11.328125 19.921875 -12.34375 
Q 23.78125 -13.375 27.78125 -13.375 
Q 36.625 -13.375 41.015625 -8.765625 
Q 45.40625 -4.15625 45.40625 5.171875 
L 45.40625 9.625 
Q 42.625 4.78125 38.28125 2.390625 
Q 33.9375 0 27.875 0 
Q 17.828125 0 11.671875 7.65625 
Q 5.515625 15.328125 5.515625 27.984375 
Q 5.515625 40.671875 11.671875 48.328125 
Q 17.828125 56 27.875 56 
Q 33.9375 56 38.28125 53.609375 
Q 42.625 51.21875 45.40625 46.390625 
L 45.40625 54.6875 
L 54.390625 54.6875 
z
" id="DejaVuSans-103"/>
      <path d="M 48.6875 27.296875 
Q 48.6875 37.203125 44.609375 42.84375 
Q 40.53125 48.484375 33.40625 48.484375 
Q 26.265625 48.484375 22.1875 42.84375 
Q 18.109375 37.203125 18.109375 27.296875 
Q 18.109375 17.390625 22.1875 11.75 
Q 26.265625 6.109375 33.40625 6.109375 
Q 40.53125 6.109375 44.609375 11.75 
Q 48.6875 17.390625 48.6875 27.296875 
z
M 18.109375 46.390625 
Q 20.953125 51.265625 25.265625 53.625 
Q 29.59375 56 35.59375 56 
Q 45.5625 56 51.78125 48.09375 
Q 58.015625 40.1875 58.015625 27.296875 
Q 58.015625 14.40625 51.78125 6.484375 
Q 45.5625 -1.421875 35.59375 -1.421875 
Q 29.59375 -1.421875 25.265625 0.953125 
Q 20.953125 3.328125 18.109375 8.203125 
L 18.109375 0 
L 9.078125 0 
L 9.078125 75.984375 
L 18.109375 75.984375 
z
" id="DejaVuSans-98"/>
     </defs>
     <use xlink:href="#DejaVuSans-67"/>
     <use x="69.824219" xlink:href="#DejaVuSans-117"/>
     <use x="133.203125" xlink:href="#DejaVuSans-114"/>
     <use x="174.316406" xlink:href="#DejaVuSans-118"/>
     <use x="233.496094" xlink:href="#DejaVuSans-97"/>
     <use x="294.775391" xlink:href="#DejaVuSans-116"/>
     <use x="333.984375" xlink:href="#DejaVuSans-117"/>
     <use x="397.363281" xlink:href="#DejaVuSans-114"/>
     <use x="436.226562" xlink:href="#DejaVuSans-101"/>
     <use x="497.75" xlink:href="#DejaVuSans-32"/>
     <use x="529.537109" xlink:href="#DejaVuSans-118"/>
     <use x="588.716797" xlink:href="#DejaVuSans-115"/>
     <use x="640.816406" xlink:href="#DejaVuSans-32"/>
     <use x="672.603516" xlink:href="#DejaVuSans-68"/>
     <use x="749.605469" xlink:href="#DejaVuSans-105"/>
     <use x="777.388672" xlink:href="#DejaVuSans-115"/>
     <use x="829.488281" xlink:href="#DejaVuSans-116"/>
     <use x="868.697266" xlink:href="#DejaVuSans-97"/>
     <use x="929.976562" xlink:href="#DejaVuSans-110"/>
     <use x="993.355469" xlink:href="#DejaVuSans-99"/>
     <use x="1048.335938" xlink:href="#DejaVuSans-101"/>
     <use x="1109.859375" xlink:href="#DejaVuSans-32"/>
     <use x="1141.646484" xlink:href="#DejaVuSans-103"/>
     <use x="1205.123047" xlink:href="#DejaVuSans-98"/>
     <use x="1268.599609" xlink:href="#DejaVuSans-114"/>
    </g>
   </g>
   <g id="legend_1">
    <g id="patch_7">
     <path d="M 276.42625 93.506375 
L 407.72 93.506375 
Q 409.72 93.506375 409.72 91.506375 
L 409.72 48.472 
Q 409.72 46.472 407.72 46.472 
L 276.42625 46.472 
Q 274.42625 46.472 274.42625 48.472 
L 274.42625 91.506375 
Q 274.42625 93.506375 276.42625 93.506375 
z
" style="fill:#ffffff;opacity:0.8;stroke:#cccccc;stroke-linejoin:miter;"/>
    </g>
    <g id="line2d_17">
     <path d="M 278.42625 54.570438 
L 298.42625 54.570438 
" style="fill:none;stroke:#1f77b4;stroke-linecap:square;stroke-width:1.5;"/>
    </g>
    <g id="line2d_18"/>
    <g id="text_15">
     <!-- Centreline -->
     <g transform="translate(306.42625 58.070438)scale(0.1 -0.1)">
      <defs>
       <path d="M 9.421875 75.984375 
L 18.40625 75.984375 
L 18.40625 0 
L 9.421875 0 
z
" id="DejaVuSans-108"/>
      </defs>
      <use xlink:href="#DejaVuSans-67"/>
      <use x="69.824219" xlink:href="#DejaVuSans-101"/>
      <use x="131.347656" xlink:href="#DejaVuSans-110"/>
      <use x="194.726562" xlink:href="#DejaVuSans-116"/>
      <use x="233.935547" xlink:href="#DejaVuSans-114"/>
      <use x="272.798828" xlink:href="#DejaVuSans-101"/>
      <use x="334.322266" xlink:href="#DejaVuSans-108"/>
      <use x="362.105469" xlink:href="#DejaVuSans-105"/>
      <use x="389.888672" xlink:href="#DejaVuSans-110"/>
      <use x="453.267578" xlink:href="#DejaVuSans-101"/>
     </g>
    </g>
    <g id="line2d_19">
     <path d="M 278.42625 69.248563 
L 298.42625 69.248563 
" style="fill:none;stroke:#ff7f0e;stroke-linecap:square;stroke-width:1.5;"/>
    </g>
    <g id="line2d_20"/>
    <g id="text_16">
     <!-- Shortest Path -->
     <g transform="translate(306.42625 72.748563)scale(0.1 -0.1)">
      <defs>
       <path d="M 53.515625 70.515625 
L 53.515625 60.890625 
Q 47.90625 63.578125 42.921875 64.890625 
Q 37.9375 66.21875 33.296875 66.21875 
Q 25.25 66.21875 20.875 63.09375 
Q 16.5 59.96875 16.5 54.203125 
Q 16.5 49.359375 19.40625 46.890625 
Q 22.3125 44.4375 30.421875 42.921875 
L 36.375 41.703125 
Q 47.40625 39.59375 52.65625 34.296875 
Q 57.90625 29 57.90625 20.125 
Q 57.90625 9.515625 50.796875 4.046875 
Q 43.703125 -1.421875 29.984375 -1.421875 
Q 24.8125 -1.421875 18.96875 -0.25 
Q 13.140625 0.921875 6.890625 3.21875 
L 6.890625 13.375 
Q 12.890625 10.015625 18.65625 8.296875 
Q 24.421875 6.59375 29.984375 6.59375 
Q 38.421875 6.59375 43.015625 9.90625 
Q 47.609375 13.234375 47.609375 19.390625 
Q 47.609375 24.75 44.3125 27.78125 
Q 41.015625 30.8125 33.5 32.328125 
L 27.484375 33.5 
Q 16.453125 35.6875 11.515625 40.375 
Q 6.59375 45.0625 6.59375 53.421875 
Q 6.59375 63.09375 13.40625 68.65625 
Q 20.21875 74.21875 32.171875 74.21875 
Q 37.3125 74.21875 42.625 73.28125 
Q 47.953125 72.359375 53.515625 70.515625 
z
" id="DejaVuSans-83"/>
       <path d="M 54.890625 33.015625 
L 54.890625 0 
L 45.90625 0 
L 45.90625 32.71875 
Q 45.90625 40.484375 42.875 44.328125 
Q 39.84375 48.1875 33.796875 48.1875 
Q 26.515625 48.1875 22.3125 43.546875 
Q 18.109375 38.921875 18.109375 30.90625 
L 18.109375 0 
L 9.078125 0 
L 9.078125 75.984375 
L 18.109375 75.984375 
L 18.109375 46.1875 
Q 21.34375 51.125 25.703125 53.5625 
Q 30.078125 56 35.796875 56 
Q 45.21875 56 50.046875 50.171875 
Q 54.890625 44.34375 54.890625 33.015625 
z
" id="DejaVuSans-104"/>
       <path d="M 30.609375 48.390625 
Q 23.390625 48.390625 19.1875 42.75 
Q 14.984375 37.109375 14.984375 27.296875 
Q 14.984375 17.484375 19.15625 11.84375 
Q 23.34375 6.203125 30.609375 6.203125 
Q 37.796875 6.203125 41.984375 11.859375 
Q 46.1875 17.53125 46.1875 27.296875 
Q 46.1875 37.015625 41.984375 42.703125 
Q 37.796875 48.390625 30.609375 48.390625 
z
M 30.609375 56 
Q 42.328125 56 49.015625 48.375 
Q 55.71875 40.765625 55.71875 27.296875 
Q 55.71875 13.875 49.015625 6.21875 
Q 42.328125 -1.421875 30.609375 -1.421875 
Q 18.84375 -1.421875 12.171875 6.21875 
Q 5.515625 13.875 5.515625 27.296875 
Q 5.515625 40.765625 12.171875 48.375 
Q 18.84375 56 30.609375 56 
z
" id="DejaVuSans-111"/>
       <path d="M 19.671875 64.796875 
L 19.671875 37.40625 
L 32.078125 37.40625 
Q 38.96875 37.40625 42.71875 40.96875 
Q 46.484375 44.53125 46.484375 51.125 
Q 46.484375 57.671875 42.71875 61.234375 
Q 38.96875 64.796875 32.078125 64.796875 
z
M 9.8125 72.90625 
L 32.078125 72.90625 
Q 44.34375 72.90625 50.609375 67.359375 
Q 56.890625 61.8125 56.890625 51.125 
Q 56.890625 40.328125 50.609375 34.8125 
Q 44.34375 29.296875 32.078125 29.296875 
L 19.671875 29.296875 
L 19.671875 0 
L 9.8125 0 
z
" id="DejaVuSans-80"/>
      </defs>
      <use xlink:href="#DejaVuSans-83"/>
      <use x="63.476562" xlink:href="#DejaVuSans-104"/>
      <use x="126.855469" xlink:href="#DejaVuSans-111"/>
      <use x="188.037109" xlink:href="#DejaVuSans-114"/>
      <use x="229.150391" xlink:href="#DejaVuSans-116"/>
      <use x="268.359375" xlink:href="#DejaVuSans-101"/>
      <use x="329.882812" xlink:href="#DejaVuSans-115"/>
      <use x="381.982422" xlink:href="#DejaVuSans-116"/>
      <use x="421.191406" xlink:href="#DejaVuSans-32"/>
      <use x="452.978516" xlink:href="#DejaVuSans-80"/>
      <use x="508.78125" xlink:href="#DejaVuSans-97"/>
      <use x="570.060547" xlink:href="#DejaVuSans-116"/>
      <use x="609.269531" xlink:href="#DejaVuSans-104"/>
     </g>
    </g>
    <g id="line2d_21">
     <path d="M 278.42625 83.926688 
L 298.42625 83.926688 
" style="fill:none;stroke:#2ca02c;stroke-linecap:square;stroke-width:1.5;"/>
    </g>
    <g id="line2d_22"/>
    <g id="text_17">
     <!-- Minimum Curvature -->
     <g transform="translate(306.42625 87.426688)scale(0.1 -0.1)">
      <defs>
       <path d="M 9.8125 72.90625 
L 24.515625 72.90625 
L 43.109375 23.296875 
L 61.8125 72.90625 
L 76.515625 72.90625 
L 76.515625 0 
L 66.890625 0 
L 66.890625 64.015625 
L 48.09375 14.015625 
L 38.1875 14.015625 
L 19.390625 64.015625 
L 19.390625 0 
L 9.8125 0 
z
" id="DejaVuSans-77"/>
       <path d="M 52 44.1875 
Q 55.375 50.25 60.0625 53.125 
Q 64.75 56 71.09375 56 
Q 79.640625 56 84.28125 50.015625 
Q 88.921875 44.046875 88.921875 33.015625 
L 88.921875 0 
L 79.890625 0 
L 79.890625 32.71875 
Q 79.890625 40.578125 77.09375 44.375 
Q 74.3125 48.1875 68.609375 48.1875 
Q 61.625 48.1875 57.5625 43.546875 
Q 53.515625 38.921875 53.515625 30.90625 
L 53.515625 0 
L 44.484375 0 
L 44.484375 32.71875 
Q 44.484375 40.625 41.703125 44.40625 
Q 38.921875 48.1875 33.109375 48.1875 
Q 26.21875 48.1875 22.15625 43.53125 
Q 18.109375 38.875 18.109375 30.90625 
L 18.109375 0 
L 9.078125 0 
L 9.078125 54.6875 
L 18.109375 54.6875 
L 18.109375 46.1875 
Q 21.1875 51.21875 25.484375 53.609375 
Q 29.78125 56 35.6875 56 
Q 41.65625 56 45.828125 52.96875 
Q 50 49.953125 52 44.1875 
z
" id="DejaVuSans-109"/>
      </defs>
      <use xlink:href="#DejaVuSans-77"/>
      <use x="86.279297" xlink:href="#DejaVuSans-105"/>
      <use x="114.0625" xlink:href="#DejaVuSans-110"/>
      <use x="177.441406" xlink:href="#DejaVuSans-105"/>
      <use x="205.224609" xlink:href="#DejaVuSans-109"/>
      <use x="302.636719" xlink:href="#DejaVuSans-117"/>
      <use x="366.015625" xlink:href="#DejaVuSans-109"/>
      <use x="463.427734" xlink:href="#DejaVuSans-32"/>
      <use x="495.214844" xlink:href="#DejaVuSans-67"/>
      <use x="565.039062" xlink:href="#DejaVuSans-117"/>
      <use x="628.417969" xlink:href="#DejaVuSans-114"/>
      <use x="669.53125" xlink:href="#DejaVuSans-118"/>
      <use x="728.710938" xlink:href="#DejaVuSans-97"/>
      <use x="789.990234" xlink:href="#DejaVuSans-116"/>
      <use x="829.199219" xlink:href="#DejaVuSans-117"/>
      <use x="892.578125" xlink:href="#DejaVuSans-114"/>
      <use x="931.441406" xlink:href="#DejaVuSans-101"/>
     </g>
    </g>
   </g>
  </g>
 </g>
 <defs>
  <clipPath id="pd49da912e0">
   <rect height="266.112" width="357.12" x="57.6" y="41.472"/>
  </clipPath>
 </defs>
</svg>
