<?xml version="1.0" encoding="utf-8" standalone="no"?>
<!DOCTYPE svg PUBLIC "-//W3C//DTD SVG 1.1//EN"
  "http://www.w3.org/Graphics/SVG/1.1/DTD/svg11.dtd">
<!-- Created with matplotlib (https://matplotlib.org/) -->
<svg height="345.6pt" version="1.1" viewBox="0 0 460.8 345.6" width="460.8pt" xmlns="http://www.w3.org/2000/svg" xmlns:xlink="http://www.w3.org/1999/xlink">
 <metadata>
  <rdf:RDF xmlns:cc="http://creativecommons.org/ns#" xmlns:dc="http://purl.org/dc/elements/1.1/" xmlns:rdf="http://www.w3.org/1999/02/22-rdf-syntax-ns#">
   <cc:Work>
    <dc:type rdf:resource="http://purl.org/dc/dcmitype/StillImage"/>
    <dc:date>2024-10-14T23:04:52.993758</dc:date>
    <dc:format>image/svg+xml</dc:format>
    <dc:creator>
     <cc:Agent>
      <dc:title>Matplotlib v3.3.1, https://matplotlib.org/</dc:title>
     </cc:Agent>
    </dc:creator>
   </cc:Work>
  </rdf:RDF>
 </metadata>
 <defs>
  <style type="text/css">*{stroke-linecap:butt;stroke-linejoin:round;}</style>
 </defs>
 <g id="figure_1">
  <g id="patch_1">
   <path d="M 0 345.6 
L 460.8 345.6 
L 460.8 0 
L 0 0 
z
" style="fill:#ffffff;"/>
  </g>
  <g id="axes_1">
   <g id="patch_2">
    <path d="M 57.6 307.584 
L 414.72 307.584 
L 414.72 41.472 
L 57.6 41.472 
z
" style="fill:#ffffff;"/>
   </g>
   <g id="matplotlib.axis_1">
    <g id="xtick_1">
     <g id="line2d_1">
      <defs>
       <path d="M 0 0 
L 0 3.5 
" id="m3df8b974a4" style="stroke:#000000;stroke-width:0.8;"/>
      </defs>
      <g>
       <use style="stroke:#000000;stroke-width:0.8;" x="73.832727" xlink:href="#m3df8b974a4" y="307.584"/>
      </g>
     </g>
     <g id="text_1">
      <!-- 0.0 -->
      <g transform="translate(65.881165 322.182437)scale(0.1 -0.1)">
       <defs>
        <path d="M 31.78125 66.40625 
Q 24.171875 66.40625 20.328125 58.90625 
Q 16.5 51.421875 16.5 36.375 
Q 16.5 21.390625 20.328125 13.890625 
Q 24.171875 6.390625 31.78125 6.390625 
Q 39.453125 6.390625 43.28125 13.890625 
Q 47.125 21.390625 47.125 36.375 
Q 47.125 51.421875 43.28125 58.90625 
Q 39.453125 66.40625 31.78125 66.40625 
z
M 31.78125 74.21875 
Q 44.046875 74.21875 50.515625 64.515625 
Q 56.984375 54.828125 56.984375 36.375 
Q 56.984375 17.96875 50.515625 8.265625 
Q 44.046875 -1.421875 31.78125 -1.421875 
Q 19.53125 -1.421875 13.0625 8.265625 
Q 6.59375 17.96875 6.59375 36.375 
Q 6.59375 54.828125 13.0625 64.515625 
Q 19.53125 74.21875 31.78125 74.21875 
z
" id="DejaVuSans-48"/>
        <path d="M 10.6875 12.40625 
L 21 12.40625 
L 21 0 
L 10.6875 0 
z
" id="DejaVuSans-46"/>
       </defs>
       <use xlink:href="#DejaVuSans-48"/>
       <use x="63.623047" xlink:href="#DejaVuSans-46"/>
       <use x="95.410156" xlink:href="#DejaVuSans-48"/>
      </g>
     </g>
    </g>
    <g id="xtick_2">
     <g id="line2d_2">
      <g>
       <use style="stroke:#000000;stroke-width:0.8;" x="138.763636" xlink:href="#m3df8b974a4" y="307.584"/>
      </g>
     </g>
     <g id="text_2">
      <!-- 0.2 -->
      <g transform="translate(130.812074 322.182437)scale(0.1 -0.1)">
       <defs>
        <path d="M 19.1875 8.296875 
L 53.609375 8.296875 
L 53.609375 0 
L 7.328125 0 
L 7.328125 8.296875 
Q 12.9375 14.109375 22.625 23.890625 
Q 32.328125 33.6875 34.8125 36.53125 
Q 39.546875 41.84375 41.421875 45.53125 
Q 43.3125 49.21875 43.3125 52.78125 
Q 43.3125 58.59375 39.234375 62.25 
Q 35.15625 65.921875 28.609375 65.921875 
Q 23.96875 65.921875 18.8125 64.3125 
Q 13.671875 62.703125 7.8125 59.421875 
L 7.8125 69.390625 
Q 13.765625 71.78125 18.9375 73 
Q 24.125 74.21875 28.421875 74.21875 
Q 39.75 74.21875 46.484375 68.546875 
Q 53.21875 62.890625 53.21875 53.421875 
Q 53.21875 48.921875 51.53125 44.890625 
Q 49.859375 40.875 45.40625 35.40625 
Q 44.1875 33.984375 37.640625 27.21875 
Q 31.109375 20.453125 19.1875 8.296875 
z
" id="DejaVuSans-50"/>
       </defs>
       <use xlink:href="#DejaVuSans-48"/>
       <use x="63.623047" xlink:href="#DejaVuSans-46"/>
       <use x="95.410156" xlink:href="#DejaVuSans-50"/>
      </g>
     </g>
    </g>
    <g id="xtick_3">
     <g id="line2d_3">
      <g>
       <use style="stroke:#000000;stroke-width:0.8;" x="203.694545" xlink:href="#m3df8b974a4" y="307.584"/>
      </g>
     </g>
     <g id="text_3">
      <!-- 0.4 -->
      <g transform="translate(195.742983 322.182437)scale(0.1 -0.1)">
       <defs>
        <path d="M 37.796875 64.3125 
L 12.890625 25.390625 
L 37.796875 25.390625 
z
M 35.203125 72.90625 
L 47.609375 72.90625 
L 47.609375 25.390625 
L 58.015625 25.390625 
L 58.015625 17.1875 
L 47.609375 17.1875 
L 47.609375 0 
L 37.796875 0 
L 37.796875 17.1875 
L 4.890625 17.1875 
L 4.890625 26.703125 
z
" id="DejaVuSans-52"/>
       </defs>
       <use xlink:href="#DejaVuSans-48"/>
       <use x="63.623047" xlink:href="#DejaVuSans-46"/>
       <use x="95.410156" xlink:href="#DejaVuSans-52"/>
      </g>
     </g>
    </g>
    <g id="xtick_4">
     <g id="line2d_4">
      <g>
       <use style="stroke:#000000;stroke-width:0.8;" x="268.625455" xlink:href="#m3df8b974a4" y="307.584"/>
      </g>
     </g>
     <g id="text_4">
      <!-- 0.6 -->
      <g transform="translate(260.673892 322.182437)scale(0.1 -0.1)">
       <defs>
        <path d="M 33.015625 40.375 
Q 26.375 40.375 22.484375 35.828125 
Q 18.609375 31.296875 18.609375 23.390625 
Q 18.609375 15.53125 22.484375 10.953125 
Q 26.375 6.390625 33.015625 6.390625 
Q 39.65625 6.390625 43.53125 10.953125 
Q 47.40625 15.53125 47.40625 23.390625 
Q 47.40625 31.296875 43.53125 35.828125 
Q 39.65625 40.375 33.015625 40.375 
z
M 52.59375 71.296875 
L 52.59375 62.3125 
Q 48.875 64.0625 45.09375 64.984375 
Q 41.3125 65.921875 37.59375 65.921875 
Q 27.828125 65.921875 22.671875 59.328125 
Q 17.53125 52.734375 16.796875 39.40625 
Q 19.671875 43.65625 24.015625 45.921875 
Q 28.375 48.1875 33.59375 48.1875 
Q 44.578125 48.1875 50.953125 41.515625 
Q 57.328125 34.859375 57.328125 23.390625 
Q 57.328125 12.15625 50.6875 5.359375 
Q 44.046875 -1.421875 33.015625 -1.421875 
Q 20.359375 -1.421875 13.671875 8.265625 
Q 6.984375 17.96875 6.984375 36.375 
Q 6.984375 53.65625 15.1875 63.9375 
Q 23.390625 74.21875 37.203125 74.21875 
Q 40.921875 74.21875 44.703125 73.484375 
Q 48.484375 72.75 52.59375 71.296875 
z
" id="DejaVuSans-54"/>
       </defs>
       <use xlink:href="#DejaVuSans-48"/>
       <use x="63.623047" xlink:href="#DejaVuSans-46"/>
       <use x="95.410156" xlink:href="#DejaVuSans-54"/>
      </g>
     </g>
    </g>
    <g id="xtick_5">
     <g id="line2d_5">
      <g>
       <use style="stroke:#000000;stroke-width:0.8;" x="333.556364" xlink:href="#m3df8b974a4" y="307.584"/>
      </g>
     </g>
     <g id="text_5">
      <!-- 0.8 -->
      <g transform="translate(325.604801 322.182437)scale(0.1 -0.1)">
       <defs>
        <path d="M 31.78125 34.625 
Q 24.75 34.625 20.71875 30.859375 
Q 16.703125 27.09375 16.703125 20.515625 
Q 16.703125 13.921875 20.71875 10.15625 
Q 24.75 6.390625 31.78125 6.390625 
Q 38.8125 6.390625 42.859375 10.171875 
Q 46.921875 13.96875 46.921875 20.515625 
Q 46.921875 27.09375 42.890625 30.859375 
Q 38.875 34.625 31.78125 34.625 
z
M 21.921875 38.8125 
Q 15.578125 40.375 12.03125 44.71875 
Q 8.5 49.078125 8.5 55.328125 
Q 8.5 64.0625 14.71875 69.140625 
Q 20.953125 74.21875 31.78125 74.21875 
Q 42.671875 74.21875 48.875 69.140625 
Q 55.078125 64.0625 55.078125 55.328125 
Q 55.078125 49.078125 51.53125 44.71875 
Q 48 40.375 41.703125 38.8125 
Q 48.828125 37.15625 52.796875 32.3125 
Q 56.78125 27.484375 56.78125 20.515625 
Q 56.78125 9.90625 50.3125 4.234375 
Q 43.84375 -1.421875 31.78125 -1.421875 
Q 19.734375 -1.421875 13.25 4.234375 
Q 6.78125 9.90625 6.78125 20.515625 
Q 6.78125 27.484375 10.78125 32.3125 
Q 14.796875 37.15625 21.921875 38.8125 
z
M 18.3125 54.390625 
Q 18.3125 48.734375 21.84375 45.5625 
Q 25.390625 42.390625 31.78125 42.390625 
Q 38.140625 42.390625 41.71875 45.5625 
Q 45.3125 48.734375 45.3125 54.390625 
Q 45.3125 60.0625 41.71875 63.234375 
Q 38.140625 66.40625 31.78125 66.40625 
Q 25.390625 66.40625 21.84375 63.234375 
Q 18.3125 60.0625 18.3125 54.390625 
z
" id="DejaVuSans-56"/>
       </defs>
       <use xlink:href="#DejaVuSans-48"/>
       <use x="63.623047" xlink:href="#DejaVuSans-46"/>
       <use x="95.410156" xlink:href="#DejaVuSans-56"/>
      </g>
     </g>
    </g>
    <g id="xtick_6">
     <g id="line2d_6">
      <g>
       <use style="stroke:#000000;stroke-width:0.8;" x="398.487273" xlink:href="#m3df8b974a4" y="307.584"/>
      </g>
     </g>
     <g id="text_6">
      <!-- 1.0 -->
      <g transform="translate(390.53571 322.182437)scale(0.1 -0.1)">
       <defs>
        <path d="M 12.40625 8.296875 
L 28.515625 8.296875 
L 28.515625 63.921875 
L 10.984375 60.40625 
L 10.984375 69.390625 
L 28.421875 72.90625 
L 38.28125 72.90625 
L 38.28125 8.296875 
L 54.390625 8.296875 
L 54.390625 0 
L 12.40625 0 
z
" id="DejaVuSans-49"/>
       </defs>
       <use xlink:href="#DejaVuSans-49"/>
       <use x="63.623047" xlink:href="#DejaVuSans-46"/>
       <use x="95.410156" xlink:href="#DejaVuSans-48"/>
      </g>
     </g>
    </g>
   </g>
   <g id="matplotlib.axis_2">
    <g id="ytick_1">
     <g id="line2d_7">
      <defs>
       <path d="M 0 0 
L -3.5 0 
" id="m0be299505a" style="stroke:#000000;stroke-width:0.8;"/>
      </defs>
      <g>
       <use style="stroke:#000000;stroke-width:0.8;" x="57.6" xlink:href="#m0be299505a" y="290.06914"/>
      </g>
     </g>
     <g id="text_7">
      <!-- −3 -->
      <g transform="translate(35.857813 293.868359)scale(0.1 -0.1)">
       <defs>
        <path d="M 10.59375 35.5 
L 73.1875 35.5 
L 73.1875 27.203125 
L 10.59375 27.203125 
z
" id="DejaVuSans-8722"/>
        <path d="M 40.578125 39.3125 
Q 47.65625 37.796875 51.625 33 
Q 55.609375 28.21875 55.609375 21.1875 
Q 55.609375 10.40625 48.1875 4.484375 
Q 40.765625 -1.421875 27.09375 -1.421875 
Q 22.515625 -1.421875 17.65625 -0.515625 
Q 12.796875 0.390625 7.625 2.203125 
L 7.625 11.71875 
Q 11.71875 9.328125 16.59375 8.109375 
Q 21.484375 6.890625 26.8125 6.890625 
Q 36.078125 6.890625 40.9375 10.546875 
Q 45.796875 14.203125 45.796875 21.1875 
Q 45.796875 27.640625 41.28125 31.265625 
Q 36.765625 34.90625 28.71875 34.90625 
L 20.21875 34.90625 
L 20.21875 43.015625 
L 29.109375 43.015625 
Q 36.375 43.015625 40.234375 45.921875 
Q 44.09375 48.828125 44.09375 54.296875 
Q 44.09375 59.90625 40.109375 62.90625 
Q 36.140625 65.921875 28.71875 65.921875 
Q 24.65625 65.921875 20.015625 65.03125 
Q 15.375 64.15625 9.8125 62.3125 
L 9.8125 71.09375 
Q 15.4375 72.65625 20.34375 73.4375 
Q 25.25 74.21875 29.59375 74.21875 
Q 40.828125 74.21875 47.359375 69.109375 
Q 53.90625 64.015625 53.90625 55.328125 
Q 53.90625 49.265625 50.4375 45.09375 
Q 46.96875 40.921875 40.578125 39.3125 
z
" id="DejaVuSans-51"/>
       </defs>
       <use xlink:href="#DejaVuSans-8722"/>
       <use x="83.789062" xlink:href="#DejaVuSans-51"/>
      </g>
     </g>
    </g>
    <g id="ytick_2">
     <g id="line2d_8">
      <g>
       <use style="stroke:#000000;stroke-width:0.8;" x="57.6" xlink:href="#m0be299505a" y="251.558898"/>
      </g>
     </g>
     <g id="text_8">
      <!-- −2 -->
      <g transform="translate(35.857813 255.358116)scale(0.1 -0.1)">
       <use xlink:href="#DejaVuSans-8722"/>
       <use x="83.789062" xlink:href="#DejaVuSans-50"/>
      </g>
     </g>
    </g>
    <g id="ytick_3">
     <g id="line2d_9">
      <g>
       <use style="stroke:#000000;stroke-width:0.8;" x="57.6" xlink:href="#m0be299505a" y="213.048655"/>
      </g>
     </g>
     <g id="text_9">
      <!-- −1 -->
      <g transform="translate(35.857813 216.847874)scale(0.1 -0.1)">
       <use xlink:href="#DejaVuSans-8722"/>
       <use x="83.789062" xlink:href="#DejaVuSans-49"/>
      </g>
     </g>
    </g>
    <g id="ytick_4">
     <g id="line2d_10">
      <g>
       <use style="stroke:#000000;stroke-width:0.8;" x="57.6" xlink:href="#m0be299505a" y="174.538413"/>
      </g>
     </g>
     <g id="text_10">
      <!-- 0 -->
      <g transform="translate(44.2375 178.337632)scale(0.1 -0.1)">
       <use xlink:href="#DejaVuSans-48"/>
      </g>
     </g>
    </g>
    <g id="ytick_5">
     <g id="line2d_11">
      <g>
       <use style="stroke:#000000;stroke-width:0.8;" x="57.6" xlink:href="#m0be299505a" y="136.028171"/>
      </g>
     </g>
     <g id="text_11">
      <!-- 1 -->
      <g transform="translate(44.2375 139.82739)scale(0.1 -0.1)">
       <use xlink:href="#DejaVuSans-49"/>
      </g>
     </g>
    </g>
    <g id="ytick_6">
     <g id="line2d_12">
      <g>
       <use style="stroke:#000000;stroke-width:0.8;" x="57.6" xlink:href="#m0be299505a" y="97.517929"/>
      </g>
     </g>
     <g id="text_12">
      <!-- 2 -->
      <g transform="translate(44.2375 101.317147)scale(0.1 -0.1)">
       <use xlink:href="#DejaVuSans-50"/>
      </g>
     </g>
    </g>
    <g id="ytick_7">
     <g id="line2d_13">
      <g>
       <use style="stroke:#000000;stroke-width:0.8;" x="57.6" xlink:href="#m0be299505a" y="59.007686"/>
      </g>
     </g>
     <g id="text_13">
      <!-- 3 -->
      <g transform="translate(44.2375 62.806905)scale(0.1 -0.1)">
       <use xlink:href="#DejaVuSans-51"/>
      </g>
     </g>
    </g>
   </g>
   <g id="line2d_14">
    <path clip-path="url(#pb2dc2d7244)" d="M 73.832727 172.921518 
L 76.634314 173.067167 
L 81.74309 173.803547 
L 84.215079 174.709145 
L 85.368674 175.37206 
L 85.698272 175.583183 
L 87.016666 176.600531 
L 87.346264 176.856467 
L 87.840662 177.235801 
L 88.005461 177.242327 
L 88.499859 177.840392 
L 88.829458 177.509125 
L 89.323855 178.166657 
L 89.653454 177.5343 
L 90.147851 178.246632 
L 90.47745 177.674152 
L 90.971848 178.449971 
L 91.301446 177.887376 
L 91.631044 178.442848 
L 91.795844 179.004634 
L 91.960643 178.621473 
L 92.125442 178.54706 
L 92.290241 179.269704 
L 92.455041 179.361097 
L 92.61984 179.582251 
L 92.949438 181.687846 
L 93.114238 181.718773 
L 93.279037 182.014637 
L 93.608636 183.352828 
L 93.773435 183.851373 
L 93.938234 184.840095 
L 94.267833 184.904519 
L 94.597431 186.440573 
L 94.76223 186.336604 
L 94.927029 186.717167 
L 95.09183 187.667784 
L 95.421428 188.156339 
L 95.586227 188.977482 
L 95.915825 189.230009 
L 96.245424 188.679872 
L 96.575022 188.828314 
L 96.739822 188.910362 
L 97.06942 189.323469 
L 97.234219 189.203069 
L 97.563818 189.138252 
L 97.893416 187.708781 
L 98.058215 187.82598 
L 98.387814 187.240819 
L 98.717412 188.423235 
L 99.047011 187.393054 
L 99.21181 187.140383 
L 99.541408 188.276812 
L 100.035806 186.443946 
L 100.200605 186.487834 
L 100.365405 186.162112 
L 100.859802 183.586237 
L 101.024602 183.740693 
L 101.189401 183.165682 
L 101.683798 179.774378 
L 101.848598 179.797294 
L 102.178196 177.526442 
L 102.507794 174.750318 
L 102.672594 174.185074 
L 104.155788 161.17622 
L 104.320588 160.549696 
L 104.979786 153.272088 
L 105.144586 152.200712 
L 105.638983 146.485825 
L 105.968582 145.394635 
L 106.29818 142.437647 
L 106.462979 141.421494 
L 106.792578 141.532327 
L 107.286975 139.141326 
L 107.616574 139.744447 
L 107.946173 138.788565 
L 108.110972 138.748865 
L 108.44057 140.271767 
L 108.605369 140.247455 
L 108.934968 140.83824 
L 109.264567 139.963357 
L 109.758964 142.234315 
L 109.923764 142.083867 
L 110.088563 142.456323 
L 110.58296 145.702593 
L 110.74776 145.43672 
L 110.912559 145.995981 
L 111.571757 151.241856 
L 112.230953 156.232964 
L 112.395753 156.021238 
L 113.05495 159.377763 
L 113.219749 159.360026 
L 113.549347 160.54711 
L 113.714147 161.371045 
L 113.878946 161.445617 
L 114.043745 160.961313 
L 114.702942 163.129189 
L 115.03254 164.709481 
L 115.856537 165.187047 
L 116.186135 164.951834 
L 116.845332 161.85461 
L 117.010131 161.368817 
L 117.174931 161.580434 
L 117.33973 162.299463 
L 117.504529 162.095094 
L 117.834127 160.704578 
L 117.998927 160.778425 
L 118.163726 161.411708 
L 118.328525 160.93427 
L 118.822923 158.706867 
L 118.987722 158.94368 
L 119.64692 154.966612 
L 119.811719 155.097254 
L 120.306117 151.187392 
L 120.470916 151.173897 
L 120.635715 151.324407 
L 121.130113 148.28393 
L 121.459711 147.999278 
L 121.954109 145.90518 
L 122.283708 147.362677 
L 122.778105 145.909609 
L 123.107704 146.062946 
L 123.9317 144.681638 
L 124.920495 144.132048 
L 125.250094 144.490138 
L 126.07409 146.368487 
L 126.403688 144.718473 
L 127.722082 148.221036 
L 128.051681 147.694545 
L 128.546078 148.814419 
L 128.875677 147.16847 
L 129.534874 149.445548 
L 129.864472 150.65869 
L 130.194071 151.298573 
L 130.523669 151.523521 
L 131.018067 152.367361 
L 131.347666 151.677979 
L 131.842063 152.339258 
L 132.171662 150.515805 
L 132.666059 151.430595 
L 132.995658 153.135842 
L 133.490056 153.64394 
L 133.819654 153.600152 
L 134.149253 153.915408 
L 134.314051 153.876427 
L 134.64365 152.126915 
L 134.973249 152.427636 
L 135.138048 152.398517 
L 135.467646 151.590173 
L 135.962044 151.897038 
L 136.291642 152.728967 
L 136.78604 152.810332 
L 137.115639 153.030434 
L 137.610036 153.070788 
L 137.939635 153.931925 
L 138.434032 153.817615 
L 138.763631 154.252059 
L 139.258029 153.868811 
L 139.587627 152.601221 
L 140.082025 152.342773 
L 140.411623 153.27434 
L 141.07082 152.650089 
L 141.730017 152.040086 
L 142.059616 153.011133 
L 142.554013 152.292067 
L 142.718813 152.379479 
L 142.883612 152.330118 
L 144.037206 150.270441 
L 144.202006 150.135059 
L 144.531604 150.860439 
L 145.026002 149.756901 
L 145.3556 149.417826 
L 146.673994 145.915449 
L 146.838794 146.404684 
L 147.003593 146.529798 
L 147.333191 145.430604 
L 147.49799 145.270739 
L 147.66279 146.073308 
L 147.827589 146.262309 
L 148.321986 144.491196 
L 148.816384 142.853398 
L 149.145982 141.906519 
L 149.310782 142.483279 
L 149.475581 142.432627 
L 149.80518 140.875936 
L 149.969979 140.721081 
L 150.134778 141.410479 
L 150.299577 141.111215 
L 150.629176 139.382472 
L 150.793974 138.949532 
L 150.958774 138.905943 
L 151.288372 137.405972 
L 151.617971 136.142208 
L 151.78277 136.338256 
L 152.112368 134.700965 
L 152.277168 133.593062 
L 152.441967 133.4603 
L 152.606766 133.954743 
L 152.936364 131.951272 
L 153.101164 130.760125 
L 153.265963 130.506281 
L 153.430762 130.703761 
L 153.76036 128.377956 
L 154.08996 125.942935 
L 154.254759 125.374895 
L 154.749158 120.775422 
L 154.913957 120.666652 
L 155.078756 120.740483 
L 155.573154 116.63681 
L 155.902752 116.614618 
L 156.39715 112.131795 
L 156.56195 112.021686 
L 156.726749 111.671343 
L 157.221146 107.522099 
L 157.385946 107.493294 
L 157.550745 107.315628 
L 158.045143 103.962833 
L 158.209942 103.803114 
L 158.374742 103.123363 
L 158.70434 100.900999 
L 158.869139 100.313129 
L 159.033938 100.428195 
L 159.198738 100.214231 
L 159.693135 98.404227 
L 159.857935 99.023747 
L 160.022734 99.134556 
L 160.517131 97.430254 
L 160.681931 97.316425 
L 160.84673 97.046235 
L 161.341128 95.682818 
L 161.670726 95.315232 
L 162.000325 94.507532 
L 162.165123 94.478231 
L 162.494722 95.891936 
L 162.824321 95.170827 
L 162.98912 94.73767 
L 163.318718 93.050879 
L 163.648317 92.71021 
L 163.813116 92.400102 
L 164.142714 91.284461 
L 164.472313 91.059273 
L 164.637112 91.285935 
L 164.966711 92.947298 
L 165.461108 92.612531 
L 165.790707 91.80237 
L 166.120305 91.790987 
L 166.285105 91.724661 
L 166.614703 91.400604 
L 167.109101 91.350859 
L 167.603498 91.205815 
L 167.768298 91.186364 
L 167.933097 91.320228 
L 168.262695 92.104486 
L 168.757093 91.953115 
L 169.086691 91.240907 
L 169.581089 91.256955 
L 170.075487 91.186266 
L 170.240286 91.173363 
L 170.405085 91.432628 
L 170.734684 92.905997 
L 171.229082 92.829255 
L 171.55868 92.406941 
L 171.888278 92.461169 
L 172.053078 92.343035 
L 172.382676 91.545274 
L 172.712275 91.578308 
L 173.371472 91.364752 
L 173.70107 91.335829 
L 174.030668 91.577876 
L 174.525066 91.413263 
L 174.854665 91.734057 
L 175.184263 91.482765 
L 175.349062 91.516809 
L 175.678661 92.204934 
L 176.173058 91.501837 
L 176.502657 89.792441 
L 176.832255 89.435729 
L 176.997054 89.638842 
L 177.326653 91.537441 
L 177.821051 90.657278 
L 178.150649 89.50106 
L 178.645047 88.625236 
L 179.304244 87.185272 
L 179.469043 87.193935 
L 179.798642 88.842319 
L 180.457839 86.376196 
L 180.787437 85.152639 
L 181.117035 84.472659 
L 181.446634 85.401729 
L 181.941032 83.915241 
L 182.105831 84.138913 
L 182.27063 84.084795 
L 183.589023 79.184198 
L 183.918623 80.393438 
L 184.41302 78.230116 
L 184.57782 78.769931 
L 184.742619 78.791455 
L 185.237016 76.4077 
L 185.401816 77.062153 
L 185.566615 77.019242 
L 185.896214 75.04425 
L 186.061012 74.684874 
L 186.225812 75.39268 
L 186.390611 75.31498 
L 186.885008 73.045116 
L 187.049808 73.126088 
L 187.214607 72.757947 
L 187.544206 71.156374 
L 187.709004 70.877053 
L 187.873804 71.377873 
L 188.038603 71.234741 
L 188.533001 69.179804 
L 188.862599 68.340286 
L 189.192198 66.972956 
L 189.356997 66.883731 
L 189.521796 67.70732 
L 189.686596 67.772825 
L 190.180993 65.953001 
L 190.510592 65.23025 
L 191.169788 63.091694 
L 191.828985 61.338391 
L 191.993785 61.980219 
L 192.158584 62.014473 
L 192.488183 60.82506 
L 192.652981 60.787537 
L 192.817781 61.674717 
L 192.98258 61.653838 
L 193.312179 60.414316 
L 193.476978 60.109618 
L 193.641777 60.204586 
L 193.806576 59.971685 
L 194.300974 58.53476 
L 194.465773 58.63305 
L 194.630572 58.419435 
L 195.784167 54.512335 
L 195.948966 54.161423 
L 196.113765 54.217607 
L 196.278565 53.946341 
L 196.443364 295.276705 
L 196.608163 294.651299 
L 196.772962 294.524717 
L 196.937762 295.360606 
L 197.102561 53.568 
L 197.26736 294.808711 
L 197.761758 292.642471 
L 198.420955 290.075807 
L 198.585754 290.218753 
L 198.750553 289.971643 
L 199.24495 287.947359 
L 199.409751 288.570123 
L 199.57455 288.41729 
L 200.068947 285.788893 
L 200.233746 285.447271 
L 200.563344 283.901776 
L 200.892943 282.018969 
L 201.057742 282.121723 
L 201.222543 281.362885 
L 201.716939 277.564706 
L 201.881738 277.182327 
L 203.035332 267.530224 
L 204.188931 250.389057 
L 204.353733 248.837616 
L 205.012928 237.971838 
L 205.177729 236.784266 
L 205.836926 227.287296 
L 206.001726 225.738991 
L 206.660924 214.884613 
L 206.990521 208.789592 
L 207.320121 201.653899 
L 207.649723 196.381072 
L 207.979323 189.880335 
L 208.308921 188.684936 
L 208.803319 180.735376 
L 208.968119 180.272493 
L 209.132918 179.166994 
L 209.627316 173.28267 
L 209.956915 171.576538 
L 210.286513 168.664533 
L 210.451312 168.523657 
L 210.616111 169.691113 
L 210.780911 169.612851 
L 211.110509 168.042971 
L 211.275308 167.946889 
L 211.604906 168.581557 
L 211.769706 168.48747 
L 211.934505 168.559697 
L 212.099304 168.173542 
L 212.264103 167.164077 
L 212.428903 166.965991 
L 212.758501 168.416538 
L 212.9233 168.320458 
L 213.088099 167.343995 
L 213.252899 167.679711 
L 213.747296 171.58136 
L 213.912095 172.041745 
L 214.241694 175.695082 
L 214.571293 178.627126 
L 214.736093 178.494154 
L 214.900892 180.221752 
L 215.230492 186.105047 
L 215.39529 187.074399 
L 215.56009 187.154626 
L 215.889688 193.11186 
L 216.054491 196.253559 
L 216.384089 198.234604 
L 216.878488 207.494673 
L 217.043287 207.442242 
L 217.208087 207.886288 
L 217.867284 217.49162 
L 218.196882 221.791699 
L 218.52648 225.725912 
L 218.69128 224.76765 
L 218.856079 224.95146 
L 219.185678 229.00737 
L 219.350477 229.470767 
L 219.515275 228.244002 
L 219.680075 228.62512 
L 220.174472 233.032795 
L 220.504071 234.699948 
L 220.833669 237.26773 
L 220.998469 237.682076 
L 221.163268 237.334088 
L 221.328067 237.745574 
L 221.657666 239.723298 
L 221.822465 239.031864 
L 221.987264 237.358791 
L 222.152063 237.338586 
L 222.81126 240.525028 
L 223.305657 242.283524 
L 223.470457 242.3254 
L 223.635256 242.025592 
L 223.800055 242.132992 
L 224.129654 242.874164 
L 224.294453 243.023769 
L 224.459252 243.020931 
L 224.788851 243.31991 
L 224.95365 243.497184 
L 225.448047 245.25918 
L 225.777646 245.284768 
L 226.272044 243.698609 
L 226.601642 243.830403 
L 227.260839 245.198784 
L 227.425638 245.226303 
L 228.084835 244.957726 
L 228.249634 244.945417 
L 228.908831 243.974905 
L 229.073631 244.012642 
L 229.732828 245.267115 
L 229.897627 245.250507 
L 230.556824 244.31631 
L 230.721623 244.322157 
L 231.38082 244.844267 
L 231.545619 244.866459 
L 232.040017 245.693829 
L 232.369615 245.630386 
L 232.864013 244.456742 
L 233.193611 244.472476 
L 233.852808 244.99832 
L 234.841604 244.860851 
L 235.500801 243.725895 
L 235.6656 243.753251 
L 236.159998 245.428009 
L 236.489596 245.349622 
L 236.983994 244.348058 
L 237.313592 244.355323 
L 237.972789 244.759555 
L 238.137588 244.778448 
L 238.631986 245.583672 
L 238.961585 245.495241 
L 239.455982 243.54196 
L 239.785581 243.564897 
L 240.444778 244.118151 
L 240.609577 244.139561 
L 241.103975 245.121727 
L 241.433573 245.034726 
L 241.927971 243.440662 
L 242.257569 243.468144 
L 242.751967 244.797852 
L 243.081565 244.72069 
L 243.575963 243.830132 
L 243.905562 243.836517 
L 244.399959 244.743212 
L 244.729558 244.666568 
L 245.223955 243.6246 
L 246.37755 243.61347 
L 246.871948 244.82099 
L 247.201546 244.721707 
L 247.695944 243.395834 
L 248.025542 243.402926 
L 248.51994 244.465243 
L 249.179137 244.45827 
L 249.673535 244.604647 
L 250.167932 243.342843 
L 250.497531 243.690505 
L 251.156728 246.061686 
L 251.321527 246.282055 
L 251.486326 246.161946 
L 251.651126 245.861378 
L 251.815925 245.967465 
L 252.969519 248.709824 
L 253.134319 248.821309 
L 253.299118 248.670916 
L 253.463917 248.978764 
L 253.793516 250.25399 
L 253.958315 249.850711 
L 254.123114 248.797938 
L 254.287913 248.887718 
L 254.617512 250.539943 
L 254.782311 250.746863 
L 254.94711 250.624983 
L 255.111909 251.182667 
L 255.441508 253.121264 
L 255.606307 253.238589 
L 255.771106 252.925653 
L 255.935906 253.549127 
L 257.0895 261.915002 
L 257.254301 261.50893 
L 257.419098 260.297767 
L 257.583898 260.951925 
L 257.913496 264.019842 
L 258.078297 263.636303 
L 258.243095 262.913516 
L 258.572693 265.682555 
L 258.737493 266.931469 
L 259.067091 267.434396 
L 259.561489 271.175734 
L 259.891087 270.86345 
L 260.550284 274.709248 
L 260.715084 275.027606 
L 261.209481 278.287117 
L 261.53908 277.384442 
L 262.033477 280.322428 
L 262.363076 278.963841 
L 262.527875 279.696715 
L 263.022273 283.002705 
L 263.351871 285.011618 
L 263.68147 287.369465 
L 263.846269 287.388618 
L 264.011068 287.287521 
L 264.340667 290.216867 
L 264.505466 291.695126 
L 264.835064 291.982091 
L 264.999864 293.737917 
L 265.164662 54.591066 
L 265.494261 58.052193 
L 265.659059 58.40637 
L 265.988657 63.820452 
L 266.318257 67.820889 
L 266.483056 67.319593 
L 266.647856 68.830824 
L 267.142256 77.349303 
L 267.307056 77.997727 
L 267.636654 84.524429 
L 268.460654 104.050295 
L 268.79024 111.11879 
L 269.284649 121.676235 
L 269.44945 121.756696 
L 269.614248 122.965295 
L 270.108649 130.927584 
L 270.273448 130.206262 
L 270.438247 130.959122 
L 271.262243 142.48782 
L 271.756641 146.148168 
L 272.086239 147.910908 
L 272.251038 147.606357 
L 272.415838 146.968677 
L 272.580637 145.669803 
L 273.404633 134.788862 
L 273.569432 135.495252 
L 273.734231 135.199668 
L 274.22863 126.86925 
L 274.39343 126.220192 
L 274.723029 120.198931 
L 275.052627 114.645447 
L 275.217425 112.732009 
L 275.711825 101.791374 
L 276.041422 99.376859 
L 276.535824 89.877954 
L 276.865422 89.160896 
L 277.52462 80.089552 
L 277.854219 76.89405 
L 278.183817 73.144969 
L 278.513416 73.93994 
L 279.007813 70.035525 
L 279.172611 70.533509 
L 279.337412 71.579496 
L 279.502211 71.146399 
L 279.996608 68.162795 
L 280.326207 66.082934 
L 280.655805 65.450395 
L 281.150203 67.308239 
L 281.479801 67.150421 
L 281.8094 66.278841 
L 281.974199 66.285898 
L 282.303798 66.552143 
L 282.633396 65.726677 
L 282.962995 66.114722 
L 283.127794 66.433616 
L 283.786991 68.594593 
L 283.95179 68.904716 
L 284.281389 67.083325 
L 284.610987 67.894902 
L 285.270184 70.350708 
L 285.599782 71.576968 
L 285.929381 71.006478 
L 286.423779 73.076802 
L 286.753377 72.540089 
L 288.071771 79.192475 
L 288.401369 78.111704 
L 288.895767 81.321809 
L 289.060567 81.224908 
L 289.225366 81.544467 
L 289.719764 85.034728 
L 289.884563 85.108683 
L 290.049362 85.623279 
L 290.54376 89.167067 
L 290.708559 88.417518 
L 290.873358 88.47739 
L 291.367756 91.734554 
L 291.532555 91.450175 
L 291.697354 91.77208 
L 292.191752 94.086904 
L 292.356551 93.311346 
L 292.52135 93.332759 
L 292.850949 94.900865 
L 293.015748 94.988704 
L 293.180547 94.287214 
L 293.345347 94.22672 
L 293.839744 95.660509 
L 294.498941 96.794632 
L 295.158138 98.11229 
L 295.322937 98.130608 
L 295.487737 98.469382 
L 295.817335 99.499849 
L 296.641331 98.89877 
L 297.135729 98.073184 
L 297.300528 98.315723 
L 297.465327 98.142676 
L 298.124524 95.750915 
L 298.783721 93.052616 
L 298.948521 93.362311 
L 299.11332 92.972751 
L 299.607717 90.705708 
L 299.772517 91.610037 
L 299.937315 91.227117 
L 300.431713 88.176896 
L 300.596513 88.401999 
L 300.926111 85.970679 
L 301.09091 84.236345 
L 301.25571 83.955051 
L 301.420509 84.377307 
L 301.750108 81.457822 
L 301.914906 79.466181 
L 302.079706 79.160903 
L 302.244505 79.511883 
L 302.738903 74.808257 
L 302.903702 74.888737 
L 303.068502 75.370912 
L 303.727699 71.270612 
L 303.892498 71.101516 
L 304.551695 67.647824 
L 304.716494 67.553339 
L 305.210892 64.845752 
L 305.540491 66.375301 
L 306.199687 64.146452 
L 306.364487 63.997709 
L 306.858884 62.273882 
L 307.188483 62.852477 
L 307.68288 61.537433 
L 308.177278 59.354435 
L 308.506877 58.729247 
L 308.836475 59.362715 
L 309.166073 58.981228 
L 309.495672 58.419016 
L 309.82527 57.935381 
L 310.154869 57.781432 
L 310.484467 59.155098 
L 310.814066 59.276998 
L 310.978865 59.237302 
L 311.308464 57.15682 
L 311.638062 57.105876 
L 311.802861 57.244548 
L 312.13246 58.890783 
L 312.462058 59.134943 
L 312.626857 59.153593 
L 312.956456 58.32407 
L 313.286054 58.361379 
L 314.27485 58.781519 
L 314.604448 59.823929 
L 314.934047 60.021659 
L 315.098846 60.010512 
L 315.428444 58.30704 
L 315.758043 58.273676 
L 315.922842 58.410524 
L 316.252441 60.03279 
L 316.582039 60.274786 
L 316.746838 60.277857 
L 317.076437 59.022962 
L 317.406035 59.027829 
L 317.570834 59.139329 
L 317.900433 60.274473 
L 318.230031 60.475692 
L 318.394831 60.517762 
L 318.724429 60.209145 
L 319.218827 60.284683 
L 319.548425 58.580077 
L 319.878024 58.580193 
L 320.042823 58.729276 
L 320.372421 60.173275 
L 320.70202 60.387654 
L 321.031618 60.59469 
L 321.526016 60.877939 
L 321.690815 60.879776 
L 322.020414 59.842094 
L 322.350012 59.868369 
L 322.514811 60.024855 
L 322.84441 61.69636 
L 323.174008 61.951001 
L 323.338808 61.926986 
L 323.668406 59.906295 
L 323.998004 59.787116 
L 324.162804 59.791273 
L 324.492402 60.160163 
L 324.9868 59.841939 
L 325.316398 60.447897 
L 325.645997 60.019761 
L 325.975595 59.177832 
L 326.469993 57.849328 
L 327.458788 55.414957 
L 327.788387 57.29804 
L 328.117985 56.181339 
L 328.282785 55.591776 
L 328.612383 55.76889 
L 328.941982 54.251358 
L 329.106781 295.421591 
L 329.436379 294.409688 
L 329.930777 291.563425 
L 330.260376 292.613325 
L 330.754773 289.469689 
L 330.919573 289.96434 
L 331.084372 290.014269 
L 331.57877 286.180151 
L 331.743569 286.113295 
L 331.908368 285.559253 
L 332.402766 280.786403 
L 332.567565 280.849875 
L 332.732364 280.308204 
L 333.226762 276.071833 
L 333.391562 276.634779 
L 333.556361 276.190209 
L 334.215558 271.258078 
L 334.874755 266.694248 
L 335.039554 267.327446 
L 335.204353 266.873041 
L 335.698751 263.168686 
L 335.86355 263.509994 
L 336.028349 262.746717 
L 336.522747 259.530023 
L 336.687546 259.754944 
L 337.017145 257.197495 
L 337.181944 255.490157 
L 337.346744 255.325995 
L 337.511543 255.664783 
L 337.841141 252.664469 
L 338.17074 249.842741 
L 338.335538 249.385121 
L 338.829938 243.701848 
L 339.159536 242.424993 
L 339.653935 236.577312 
L 339.818735 236.295539 
L 339.983533 235.123797 
L 340.477932 228.64361 
L 340.642732 227.547458 
L 341.30193 219.071131 
L 341.466729 218.376533 
L 341.961127 212.837277 
L 342.290725 212.235192 
L 342.620324 210.206433 
L 342.949923 208.557372 
L 343.114722 207.67506 
L 343.279521 207.453953 
L 343.44432 207.454762 
L 343.60912 207.631416 
L 344.268317 211.151914 
L 344.597915 214.155874 
L 344.762712 215.206866 
L 346.081111 230.664744 
L 346.245911 230.982008 
L 346.57551 233.592009 
L 347.564304 242.092868 
L 348.7179 246.982379 
L 349.541896 249.29641 
L 350.036294 250.116379 
L 351.684286 251.087562 
L 352.343483 252.126253 
L 352.508282 252.311152 
L 352.673081 252.012536 
L 352.837881 251.469728 
L 353.00268 251.456215 
L 353.497077 252.025094 
L 353.826676 252.561076 
L 354.321074 252.892478 
L 354.485873 252.82022 
L 354.815471 253.088206 
L 354.980271 253.309104 
L 355.14507 253.021361 
L 355.309869 252.441821 
L 355.474668 252.431701 
L 355.804267 252.766192 
L 356.298664 254.441872 
L 356.463464 254.568703 
L 356.628263 254.88467 
L 356.793062 254.271551 
L 356.957862 253.115575 
L 357.122661 252.9961 
L 357.617058 253.939413 
L 357.946657 255.025343 
L 358.276255 255.488804 
L 358.441054 255.265293 
L 358.605854 254.749253 
L 358.770653 254.811973 
L 359.100251 255.330817 
L 359.265051 255.212201 
L 359.42985 254.884712 
L 359.759448 255.192588 
L 360.089047 255.442266 
L 360.418645 255.54477 
L 360.748244 255.721053 
L 361.242641 254.69642 
L 361.57224 254.564005 
L 362.066638 255.165244 
L 363.055433 253.792861 
L 363.879429 251.82073 
L 364.044228 251.233246 
L 364.209028 251.281171 
L 364.373827 251.646325 
L 364.703425 250.600634 
L 364.868225 249.798981 
L 365.033024 250.008096 
L 365.197823 250.725476 
L 365.527422 249.414333 
L 365.692221 248.352662 
L 365.85702 248.402758 
L 366.021819 248.873196 
L 366.681016 245.637589 
L 366.845816 245.837194 
L 367.505013 241.480321 
L 367.669812 241.223721 
L 368.16421 236.772794 
L 368.493808 236.262553 
L 368.988206 231.392555 
L 369.317804 230.118203 
L 369.812204 224.589868 
L 370.1418 222.407977 
L 370.636201 216.695853 
L 370.965798 214.139258 
L 371.460197 209.307681 
L 371.624997 209.272257 
L 371.954595 206.613408 
L 372.284193 204.120357 
L 372.448993 204.228551 
L 372.778592 201.861061 
L 373.437789 195.939268 
L 373.767387 193.489552 
L 373.932186 193.261028 
L 374.096986 193.477587 
L 374.756182 190.233565 
L 374.920982 190.43045 
L 375.41538 187.761817 
L 376.074577 185.36527 
L 376.239376 184.35732 
L 376.404175 184.423394 
L 376.568974 184.706374 
L 377.063372 182.632722 
L 377.392971 183.522395 
L 377.887369 181.953184 
L 378.216967 182.247411 
L 378.711365 180.880747 
L 379.040963 181.016905 
L 379.70016 179.64345 
L 379.864959 179.467763 
L 381.183353 176.594262 
L 381.512952 177.812058 
L 381.84255 177.159621 
L 382.666546 176.283375 
L 383.490542 175.524449 
L 383.655342 175.64766 
L 383.98494 174.050348 
L 384.149739 174.234856 
L 384.314539 174.113551 
L 384.479338 173.835832 
L 384.808936 175.300372 
L 385.138535 174.912513 
L 385.303334 175.079276 
L 385.632933 173.5281 
L 385.797732 173.713876 
L 385.962531 173.654357 
L 386.12733 173.316775 
L 386.456929 174.654904 
L 386.786527 174.281674 
L 387.116126 174.217112 
L 387.445724 174.157754 
L 388.599319 173.835445 
L 389.258516 173.724779 
L 390.247311 173.52445 
L 391.400906 173.385173 
L 392.7193 173.174878 
L 394.202493 173.043829 
L 395.685686 172.959005 
L 397.663277 172.908598 
L 398.487273 172.917344 
L 398.487273 172.917344 
" style="fill:none;stroke:#1f77b4;stroke-linecap:square;stroke-width:1.5;"/>
   </g>
   <g id="line2d_15">
    <path clip-path="url(#pb2dc2d7244)" d="M 73.832727 176.015875 
L 92.952155 175.909074 
L 93.29055 176.551742 
L 93.628926 178.452189 
L 93.967323 178.498633 
L 94.305719 179.041351 
L 94.644111 180.12977 
L 95.151622 184.380591 
L 95.32082 185.063911 
L 95.828415 185.013499 
L 96.843606 185.063426 
L 101.411965 185.076566 
L 101.750357 184.189625 
L 102.088737 182.5235 
L 102.765407 176.81968 
L 103.103781 174.98161 
L 103.442111 172.139068 
L 103.780498 170.720218 
L 104.118736 166.470954 
L 104.28793 166.129368 
L 104.457129 165.385519 
L 104.795284 160.12114 
L 105.133639 157.703635 
L 105.640827 150.76547 
L 105.810026 148.287459 
L 106.14842 147.529169 
L 106.486759 145.165902 
L 106.994354 145.139084 
L 107.840347 145.036898 
L 109.532332 145.035228 
L 110.716721 145.201986 
L 110.885919 145.300769 
L 111.224312 146.058464 
L 111.562686 147.525102 
L 111.731881 147.856275 
L 111.901079 148.544978 
L 112.239323 152.275776 
L 112.746845 155.019959 
L 113.25437 158.566852 
L 113.592767 158.374305 
L 114.269561 158.43972 
L 116.469141 158.578775 
L 118.499523 158.470972 
L 119.683912 158.383152 
L 119.853108 158.605137 
L 120.022307 158.456666 
L 121.375645 149.234285 
L 121.714039 148.840077 
L 122.221635 148.903524 
L 123.91362 148.862036 
L 127.466788 148.901915 
L 127.974376 149.717309 
L 128.143575 149.874392 
L 134.23472 150.015688 
L 136.603498 150.033632 
L 142.525445 149.974095 
L 142.694643 149.897025 
L 144.04822 148.231606 
L 145.063409 147.605836 
L 145.401806 147.43132 
L 145.740198 146.890392 
L 146.078594 146.714338 
L 147.60138 146.644304 
L 147.939777 146.508093 
L 148.278169 146.058247 
L 148.785762 145.243341 
L 149.124145 144.439392 
L 150.139336 144.378433 
L 150.477733 144.32549 
L 150.81613 144.34854 
L 151.154526 144.05111 
L 151.662112 143.208752 
L 153.354075 140.434353 
L 153.69243 139.044283 
L 154.200024 137.526381 
L 154.707461 134.046044 
L 155.215028 131.233311 
L 155.553197 127.97003 
L 155.722391 127.683202 
L 155.891589 126.199753 
L 156.22949 121.260784 
L 156.567857 119.516193 
L 157.582751 111.805137 
L 157.920676 107.21763 
L 158.089869 106.912838 
L 158.259068 105.908787 
L 158.935542 99.721078 
L 159.104711 98.99992 
L 159.781244 94.262673 
L 159.950442 93.96588 
L 160.458013 92.595445 
L 160.627211 92.444832 
L 160.965608 92.494046 
L 161.811599 92.199578 
L 162.995989 92.252944 
L 163.503584 92.345237 
L 164.687972 92.043916 
L 166.04156 91.957361 
L 167.395148 91.890539 
L 171.455911 91.803723 
L 172.132705 91.633278 
L 173.486293 91.575272 
L 175.855071 91.544836 
L 176.531864 91.271595 
L 178.054651 91.097425 
L 178.731444 91.005065 
L 180.423429 90.951713 
L 181.100222 90.698698 
L 181.946214 90.959871 
L 182.28461 90.714712 
L 182.623005 90.474823 
L 183.1306 90.504105 
L 183.46896 89.175027 
L 183.976533 87.433397 
L 184.145729 87.185728 
L 185.330033 82.859451 
L 186.006802 80.731859 
L 186.345157 79.337695 
L 186.514351 79.05166 
L 188.54458 71.359923 
L 189.390546 68.835571 
L 190.574856 64.790611 
L 191.420832 63.024728 
L 192.266823 62.555781 
L 193.451193 60.167316 
L 193.789575 59.300476 
L 193.958771 59.067339 
L 195.312257 53.823464 
L 195.481456 295.488 
L 197.004241 295.196266 
L 197.342638 295.102867 
L 198.188628 294.470613 
L 198.865421 294.122596 
L 199.373016 294.083011 
L 199.880612 293.935208 
L 200.219008 293.933991 
L 200.726604 293.775515 
L 201.064999 294.040583 
L 201.403386 293.307578 
L 202.08014 290.817098 
L 202.587573 286.701536 
L 202.756763 286.279498 
L 203.433391 281.24599 
L 203.940827 275.607086 
L 204.61716 265.126948 
L 204.954643 258.082447 
L 205.123692 256.2641 
L 205.63027 245.279357 
L 205.799389 243.927856 
L 206.306428 235.4714 
L 206.475553 234.158965 
L 207.489709 217.466739 
L 207.996464 206.463889 
L 208.165522 204.624967 
L 208.672494 194.943407 
L 208.841601 193.395138 
L 209.348763 185.655249 
L 209.517931 184.768411 
L 210.025126 177.112468 
L 210.532621 173.656118 
L 210.70182 173.393314 
L 211.886209 173.196808 
L 213.408995 173.150534 
L 214.424186 173.312122 
L 215.10098 173.475716 
L 215.270177 173.672507 
L 216.454092 189.042539 
L 217.468479 205.140933 
L 217.637613 206.62201 
L 218.144856 214.899633 
L 218.314009 216.127982 
L 218.821447 221.831819 
L 218.990622 222.755215 
L 219.836446 230.448554 
L 220.005637 230.962886 
L 220.513137 235.37621 
L 220.682327 235.976279 
L 221.359006 241.812368 
L 222.035787 243.879895 
L 222.543381 243.468243 
L 222.71258 243.487115 
L 223.220174 244.084912 
L 223.389372 244.179891 
L 224.573761 243.990296 
L 231.849296 244.277793 
L 236.92525 244.395244 
L 238.278838 244.458691 
L 240.816815 244.566704 
L 242.847197 244.611396 
L 255.029487 245.186362 
L 255.198685 245.300952 
L 256.552273 245.008999 
L 256.890669 245.421371 
L 257.567458 247.236438 
L 258.074981 252.167426 
L 258.413324 255.264894 
L 259.428262 267.419752 
L 259.766633 271.342958 
L 260.612569 277.527925 
L 260.950963 278.397886 
L 261.458541 280.573685 
L 262.304527 282.564837 
L 262.642922 283.023808 
L 263.150513 284.089899 
L 263.319712 284.292411 
L 264.334892 286.617816 
L 264.673289 286.866617 
L 265.519268 289.152643 
L 265.688467 289.441598 
L 266.026863 289.271959 
L 266.703647 291.282344 
L 266.872646 293.932831 
L 267.041845 54.537977 
L 267.549035 62.812717 
L 267.718233 66.437404 
L 268.393166 90.002417 
L 269.573939 124.685061 
L 269.912243 130.074534 
L 270.081441 131.268341 
L 270.419836 130.825837 
L 270.758233 130.787724 
L 271.096628 131.250483 
L 271.773409 132.795993 
L 272.111803 133.268453 
L 272.4502 133.140909 
L 273.126985 131.892591 
L 273.465381 131.990664 
L 273.803778 131.887397 
L 273.972975 132.104983 
L 274.142173 131.916692 
L 274.649511 126.792087 
L 274.81871 123.836429 
L 275.492864 101.908009 
L 276.167183 82.081382 
L 277.012813 74.301878 
L 277.182012 73.952461 
L 278.028004 74.083264 
L 278.535599 74.082598 
L 278.873996 73.910227 
L 279.212393 74.003533 
L 279.550789 74.192872 
L 279.889185 73.910096 
L 280.227577 73.350564 
L 280.565974 73.236389 
L 281.242767 73.458879 
L 282.596355 73.357381 
L 287.672309 73.812768 
L 288.010687 75.248965 
L 288.349003 77.415036 
L 288.518195 77.756021 
L 288.687394 78.460544 
L 289.025695 80.883688 
L 290.379207 86.202239 
L 290.717363 89.96383 
L 291.394093 92.899476 
L 291.732482 93.508721 
L 292.240077 93.458213 
L 296.470039 93.490226 
L 299.854008 93.297006 
L 300.023206 93.431078 
L 300.192404 92.979809 
L 302.052855 78.822612 
L 302.560368 74.410793 
L 303.913387 63.064471 
L 304.759337 60.595067 
L 304.928535 60.355216 
L 305.436131 60.471043 
L 306.282122 60.209864 
L 306.789717 60.264434 
L 307.297312 60.235228 
L 307.804908 60.1322 
L 311.527273 59.863218 
L 312.034869 59.739365 
L 313.219258 59.778785 
L 322.694372 59.419722 
L 323.371166 59.352264 
L 324.04796 59.181948 
L 325.570746 59.212719 
L 328.785517 59.072167 
L 329.800707 59.148929 
L 330.139103 58.884873 
L 330.815893 58.198918 
L 331.154131 55.457855 
L 331.32333 53.681684 
L 331.492343 293.814464 
L 331.999882 288.900792 
L 332.337576 283.256727 
L 332.506717 282.233234 
L 333.521235 270.87381 
L 334.02865 266.528721 
L 334.705417 264.772737 
L 334.874614 264.626125 
L 335.212995 263.65759 
L 335.889754 261.371745 
L 336.397245 258.183626 
L 336.566439 257.884528 
L 337.073997 255.972431 
L 337.243194 255.765186 
L 338.258224 250.462422 
L 338.765757 247.439946 
L 339.273301 245.323312 
L 339.780774 240.863177 
L 340.288029 235.377962 
L 340.794902 226.411685 
L 340.964032 225.24574 
L 341.471328 220.164684 
L 341.640523 220.432669 
L 341.809722 220.343921 
L 342.148116 219.969693 
L 342.486512 219.809952 
L 342.994107 219.483363 
L 343.332503 219.536651 
L 344.178493 220.308913 
L 344.34769 220.522347 
L 344.516888 220.453763 
L 344.686085 220.250528 
L 345.024237 223.937713 
L 346.207157 243.618996 
L 346.37633 244.347245 
L 346.883624 249.444321 
L 347.222017 249.097995 
L 347.729613 249.047372 
L 349.759994 249.041965 
L 351.959575 249.123472 
L 352.46717 249.12756 
L 353.313162 249.068767 
L 354.835948 249.195054 
L 355.681941 249.063492 
L 356.020338 249.205964 
L 356.189535 249.34405 
L 356.697119 250.524727 
L 357.035515 250.666452 
L 357.712309 250.719137 
L 358.219905 250.765291 
L 360.92708 250.738391 
L 362.280668 250.712342 
L 364.818645 250.661106 
L 366.003034 250.770574 
L 366.341428 250.241758 
L 366.848944 246.916783 
L 367.018139 246.586878 
L 367.694738 240.238883 
L 368.033103 238.244767 
L 368.540542 233.450134 
L 368.709737 233.109477 
L 369.21718 228.167394 
L 369.386365 227.522418 
L 370.232074 217.81405 
L 370.570405 214.254105 
L 370.908661 211.190944 
L 371.077848 210.558406 
L 371.585329 206.172192 
L 371.754524 205.822139 
L 372.431143 199.198275 
L 372.938682 194.260202 
L 373.107746 192.015864 
L 373.276945 191.611263 
L 373.446143 191.494722 
L 373.953584 186.310443 
L 374.12278 185.977207 
L 374.799522 182.030762 
L 375.307118 181.32595 
L 375.64551 180.699112 
L 375.814708 180.55847 
L 376.322289 178.752505 
L 376.491486 178.513005 
L 376.999081 178.673261 
L 377.506676 178.530964 
L 378.860264 178.526815 
L 380.552249 178.526584 
L 381.059832 176.591684 
L 381.229028 176.27791 
L 382.075021 176.251132 
L 383.767005 176.186221 
L 384.105402 176.085945 
L 384.782196 176.136109 
L 385.289792 176.161905 
L 385.797387 175.987292 
L 388.673761 176.029652 
L 398.487273 176.015745 
L 398.487273 176.015745 
" style="fill:none;stroke:#ff7f0e;stroke-linecap:square;stroke-width:1.5;"/>
   </g>
   <g id="line2d_16">
    <path clip-path="url(#pb2dc2d7244)" d="M 73.832727 171.9334 
L 74.6639 172.020229 
L 77.157416 172.496386 
L 79.484699 173.154135 
L 81.811981 174.018643 
L 84.139263 175.095481 
L 85.635373 175.99657 
L 87.297718 177.266864 
L 89.126297 178.978252 
L 90.788641 180.819506 
L 92.617219 183.166483 
L 95.110736 186.802008 
L 96.108142 188.213505 
L 96.606845 188.606295 
L 97.271783 188.713553 
L 97.936721 188.366877 
L 98.601659 187.566675 
L 99.266596 186.315872 
L 100.097768 184.10603 
L 100.928938 181.215173 
L 101.926342 176.820977 
L 102.923743 171.363419 
L 104.087378 163.387497 
L 105.74971 151.428236 
L 106.580878 147.192445 
L 107.412049 144.315171 
L 107.910752 143.178748 
L 108.409456 142.567718 
L 108.741924 142.407246 
L 109.074393 142.458793 
L 109.406862 142.721815 
L 109.739331 143.196297 
L 110.238034 144.277025 
L 110.902971 146.445713 
L 113.230248 155.669484 
L 114.227653 158.292291 
L 115.058825 159.753116 
L 115.557529 160.338776 
L 116.222466 160.741521 
L 116.887404 160.728908 
L 117.552342 160.298977 
L 118.21728 159.454269 
L 119.048451 157.800422 
L 119.879622 155.56946 
L 121.209496 151.783895 
L 122.206902 149.634965 
L 123.038074 148.374897 
L 123.703011 147.699581 
L 124.201715 147.382376 
L 124.866652 147.236303 
L 125.53159 147.392416 
L 126.196528 147.85179 
L 127.360169 149.20456 
L 128.856278 150.861353 
L 130.352388 152.192343 
L 131.682264 153.109304 
L 133.012139 153.774626 
L 134.17578 154.150826 
L 135.505656 154.343266 
L 136.835532 154.283281 
L 138.165407 153.970732 
L 139.495283 153.407054 
L 140.825158 152.588997 
L 142.321268 151.376636 
L 143.651143 150.037582 
L 145.147252 148.223666 
L 146.643362 146.040294 
L 147.807001 143.969613 
L 149.136875 141.083684 
L 150.632982 137.205962 
L 151.962853 133.207433 
L 153.458956 128.026779 
L 154.955058 122.063241 
L 156.451156 115.180837 
L 157.781022 109.347984 
L 159.277125 103.940393 
L 160.440762 100.424112 
L 161.770635 97.201499 
L 162.934274 95.062509 
L 163.765446 93.913663 
L 164.762852 92.948206 
L 165.760259 92.337714 
L 166.591431 92.091457 
L 168.586245 91.95808 
L 170.913527 91.639229 
L 173.074575 91.148615 
L 174.570685 90.556752 
L 175.90056 89.803788 
L 177.230435 88.830652 
L 178.726545 87.47849 
L 180.388888 85.655518 
L 182.217466 83.251367 
L 184.212277 80.228055 
L 185.874619 77.314864 
L 190.529175 68.426971 
L 195.183729 59.094786 
L 197.677239 53.69274 
L 197.843473 295.286544 
L 198.840877 292.794174 
L 199.505811 290.564771 
L 200.336973 287.058886 
L 201.334363 281.756749 
L 202.497979 273.942083 
L 203.495349 265.617874 
L 204.326468 257.286696 
L 205.323795 244.823869 
L 206.653529 224.083751 
L 208.48195 192.699895 
L 209.313094 183.173059 
L 210.144258 176.358133 
L 210.809191 172.462 
L 211.307892 170.403335 
L 211.806595 169.201349 
L 212.139064 168.80534 
L 212.305298 168.695347 
L 212.637767 168.82754 
L 213.13647 169.742682 
L 213.468939 170.776469 
L 213.96764 172.967792 
L 214.632573 177.249462 
L 215.463737 184.720495 
L 216.128663 192.445123 
L 217.292284 206.029836 
L 218.455919 216.58159 
L 219.453323 223.921073 
L 220.450728 229.967605 
L 221.448133 234.894232 
L 222.279305 238.235525 
L 223.276711 241.262959 
L 224.107884 242.978031 
L 224.606587 243.675377 
L 225.271525 244.17207 
L 226.102697 244.308522 
L 232.585841 244.529503 
L 239.733922 244.540629 
L 246.549534 244.324231 
L 248.710582 244.313631 
L 249.541755 244.469621 
L 250.372927 244.883282 
L 251.204099 245.556543 
L 252.201505 246.701757 
L 253.365146 248.449391 
L 254.528786 250.620797 
L 255.85866 253.660326 
L 257.354768 257.736695 
L 258.68464 261.914862 
L 260.014512 266.757471 
L 261.344381 272.335474 
L 262.67425 278.725125 
L 264.004115 286.111508 
L 264.835277 291.637491 
L 265.167741 294.19171 
L 265.333976 53.607997 
L 266.16513 61.192984 
L 267.162512 72.398776 
L 268.159888 86.67417 
L 269.157275 105.848523 
L 270.154663 123.462817 
L 270.985819 133.131944 
L 271.48452 136.778711 
L 271.983223 138.464524 
L 272.149457 138.766272 
L 272.481926 138.640336 
L 272.814395 137.841369 
L 273.313096 135.435061 
L 273.811796 131.921143 
L 274.476723 125.23933 
L 275.307853 113.262404 
L 276.305208 98.665112 
L 277.136356 89.260275 
L 278.133739 80.803774 
L 279.131133 74.733546 
L 279.962299 71.169471 
L 280.461001 69.664678 
L 281.125938 68.548673 
L 281.95711 67.710391 
L 282.455814 67.419554 
L 283.120751 67.305347 
L 283.785689 67.489701 
L 284.450627 67.974251 
L 285.281799 69.006977 
L 285.946736 70.163594 
L 286.777907 72.02008 
L 287.775311 74.880806 
L 288.938947 79.039641 
L 291.931154 90.592227 
L 292.762325 92.881567 
L 293.75973 94.893286 
L 294.590902 95.958554 
L 295.089606 96.351601 
L 295.754543 96.552835 
L 296.419481 96.400541 
L 297.084419 95.892473 
L 297.749356 95.028782 
L 298.580528 93.436087 
L 299.411699 91.305611 
L 300.409103 88.004358 
L 301.572738 83.175738 
L 303.401309 75.167316 
L 304.897414 69.90498 
L 306.061053 66.52693 
L 307.224692 63.812391 
L 308.222098 61.997462 
L 309.05327 60.845138 
L 309.884442 60.06106 
L 310.54938 59.689595 
L 311.380552 59.4783 
L 313.5416 59.233564 
L 315.536414 59.23 
L 317.531227 59.440582 
L 319.52604 59.85916 
L 321.022151 60.134735 
L 322.684495 60.180921 
L 324.014371 60.006714 
L 324.845543 59.585051 
L 325.510481 59.019126 
L 326.175418 58.219068 
L 327.00659 56.873331 
L 328.003996 54.740128 
L 328.336465 53.903241 
L 328.502699 295.420475 
L 329.500105 292.433356 
L 330.49751 288.863204 
L 331.66115 284.009855 
L 332.991022 277.486764 
L 335.983232 261.164254 
L 337.811802 250.033017 
L 339.141668 240.777145 
L 341.801397 221.506037 
L 342.3001 219.630936 
L 342.798803 218.635383 
L 343.131271 218.384587 
L 343.297506 218.347886 
L 343.629975 218.630385 
L 344.128677 219.779352 
L 344.461145 220.974976 
L 344.959847 223.401232 
L 346.788414 234.254738 
L 347.952052 239.887458 
L 349.115689 244.410242 
L 350.113094 247.459157 
L 350.944266 249.419056 
L 352.440375 252.340575 
L 353.604016 254.15044 
L 354.767657 255.538543 
L 355.765063 256.409124 
L 356.596236 256.889857 
L 357.593642 257.20782 
L 358.591049 257.232839 
L 359.588456 256.962578 
L 360.585862 256.396702 
L 361.583269 255.522944 
L 362.414441 254.385714 
L 363.079379 253.123364 
L 363.910551 251.105505 
L 364.907956 248.01293 
L 366.071596 243.467495 
L 367.235235 237.965755 
L 368.398872 231.291606 
L 369.396273 224.471868 
L 371.723542 207.988499 
L 372.887179 201.406029 
L 374.383284 194.305306 
L 375.713157 189.026706 
L 376.876797 185.150095 
L 378.206671 181.525047 
L 379.370311 179.053037 
L 380.367718 177.410267 
L 381.19889 176.341597 
L 382.196297 175.370499 
L 383.193703 174.742775 
L 385.520986 173.732837 
L 388.346971 172.788055 
L 390.674253 172.237102 
L 393.001536 171.892574 
L 395.328818 171.754387 
L 397.6561 171.822502 
L 398.487273 171.896301 
L 398.487273 171.896301 
" style="fill:none;stroke:#2ca02c;stroke-linecap:square;stroke-width:1.5;"/>
   </g>
   <g id="patch_3">
    <path d="M 57.6 307.584 
L 57.6 41.472 
" style="fill:none;stroke:#000000;stroke-linecap:square;stroke-linejoin:miter;stroke-width:0.8;"/>
   </g>
   <g id="patch_4">
    <path d="M 414.72 307.584 
L 414.72 41.472 
" style="fill:none;stroke:#000000;stroke-linecap:square;stroke-linejoin:miter;stroke-width:0.8;"/>
   </g>
   <g id="patch_5">
    <path d="M 57.6 307.584 
L 414.72 307.584 
" style="fill:none;stroke:#000000;stroke-linecap:square;stroke-linejoin:miter;stroke-width:0.8;"/>
   </g>
   <g id="patch_6">
    <path d="M 57.6 41.472 
L 414.72 41.472 
" style="fill:none;stroke:#000000;stroke-linecap:square;stroke-linejoin:miter;stroke-width:0.8;"/>
   </g>
   <g id="text_14">
    <!-- Heading vs Distance gbr -->
    <g transform="translate(162.474375 35.472)scale(0.12 -0.12)">
     <defs>
      <path d="M 9.8125 72.90625 
L 19.671875 72.90625 
L 19.671875 43.015625 
L 55.515625 43.015625 
L 55.515625 72.90625 
L 65.375 72.90625 
L 65.375 0 
L 55.515625 0 
L 55.515625 34.71875 
L 19.671875 34.71875 
L 19.671875 0 
L 9.8125 0 
z
" id="DejaVuSans-72"/>
      <path d="M 56.203125 29.59375 
L 56.203125 25.203125 
L 14.890625 25.203125 
Q 15.484375 15.921875 20.484375 11.0625 
Q 25.484375 6.203125 34.421875 6.203125 
Q 39.59375 6.203125 44.453125 7.46875 
Q 49.3125 8.734375 54.109375 11.28125 
L 54.109375 2.78125 
Q 49.265625 0.734375 44.1875 -0.34375 
Q 39.109375 -1.421875 33.890625 -1.421875 
Q 20.796875 -1.421875 13.15625 6.1875 
Q 5.515625 13.8125 5.515625 26.8125 
Q 5.515625 40.234375 12.765625 48.109375 
Q 20.015625 56 32.328125 56 
Q 43.359375 56 49.78125 48.890625 
Q 56.203125 41.796875 56.203125 29.59375 
z
M 47.21875 32.234375 
Q 47.125 39.59375 43.09375 43.984375 
Q 39.0625 48.390625 32.421875 48.390625 
Q 24.90625 48.390625 20.390625 44.140625 
Q 15.875 39.890625 15.1875 32.171875 
z
" id="DejaVuSans-101"/>
      <path d="M 34.28125 27.484375 
Q 23.390625 27.484375 19.1875 25 
Q 14.984375 22.515625 14.984375 16.5 
Q 14.984375 11.71875 18.140625 8.90625 
Q 21.296875 6.109375 26.703125 6.109375 
Q 34.1875 6.109375 38.703125 11.40625 
Q 43.21875 16.703125 43.21875 25.484375 
L 43.21875 27.484375 
z
M 52.203125 31.203125 
L 52.203125 0 
L 43.21875 0 
L 43.21875 8.296875 
Q 40.140625 3.328125 35.546875 0.953125 
Q 30.953125 -1.421875 24.3125 -1.421875 
Q 15.921875 -1.421875 10.953125 3.296875 
Q 6 8.015625 6 15.921875 
Q 6 25.140625 12.171875 29.828125 
Q 18.359375 34.515625 30.609375 34.515625 
L 43.21875 34.515625 
L 43.21875 35.40625 
Q 43.21875 41.609375 39.140625 45 
Q 35.0625 48.390625 27.6875 48.390625 
Q 23 48.390625 18.546875 47.265625 
Q 14.109375 46.140625 10.015625 43.890625 
L 10.015625 52.203125 
Q 14.9375 54.109375 19.578125 55.046875 
Q 24.21875 56 28.609375 56 
Q 40.484375 56 46.34375 49.84375 
Q 52.203125 43.703125 52.203125 31.203125 
z
" id="DejaVuSans-97"/>
      <path d="M 45.40625 46.390625 
L 45.40625 75.984375 
L 54.390625 75.984375 
L 54.390625 0 
L 45.40625 0 
L 45.40625 8.203125 
Q 42.578125 3.328125 38.25 0.953125 
Q 33.9375 -1.421875 27.875 -1.421875 
Q 17.96875 -1.421875 11.734375 6.484375 
Q 5.515625 14.40625 5.515625 27.296875 
Q 5.515625 40.1875 11.734375 48.09375 
Q 17.96875 56 27.875 56 
Q 33.9375 56 38.25 53.625 
Q 42.578125 51.265625 45.40625 46.390625 
z
M 14.796875 27.296875 
Q 14.796875 17.390625 18.875 11.75 
Q 22.953125 6.109375 30.078125 6.109375 
Q 37.203125 6.109375 41.296875 11.75 
Q 45.40625 17.390625 45.40625 27.296875 
Q 45.40625 37.203125 41.296875 42.84375 
Q 37.203125 48.484375 30.078125 48.484375 
Q 22.953125 48.484375 18.875 42.84375 
Q 14.796875 37.203125 14.796875 27.296875 
z
" id="DejaVuSans-100"/>
      <path d="M 9.421875 54.6875 
L 18.40625 54.6875 
L 18.40625 0 
L 9.421875 0 
z
M 9.421875 75.984375 
L 18.40625 75.984375 
L 18.40625 64.59375 
L 9.421875 64.59375 
z
" id="DejaVuSans-105"/>
      <path d="M 54.890625 33.015625 
L 54.890625 0 
L 45.90625 0 
L 45.90625 32.71875 
Q 45.90625 40.484375 42.875 44.328125 
Q 39.84375 48.1875 33.796875 48.1875 
Q 26.515625 48.1875 22.3125 43.546875 
Q 18.109375 38.921875 18.109375 30.90625 
L 18.109375 0 
L 9.078125 0 
L 9.078125 54.6875 
L 18.109375 54.6875 
L 18.109375 46.1875 
Q 21.34375 51.125 25.703125 53.5625 
Q 30.078125 56 35.796875 56 
Q 45.21875 56 50.046875 50.171875 
Q 54.890625 44.34375 54.890625 33.015625 
z
" id="DejaVuSans-110"/>
      <path d="M 45.40625 27.984375 
Q 45.40625 37.75 41.375 43.109375 
Q 37.359375 48.484375 30.078125 48.484375 
Q 22.859375 48.484375 18.828125 43.109375 
Q 14.796875 37.75 14.796875 27.984375 
Q 14.796875 18.265625 18.828125 12.890625 
Q 22.859375 7.515625 30.078125 7.515625 
Q 37.359375 7.515625 41.375 12.890625 
Q 45.40625 18.265625 45.40625 27.984375 
z
M 54.390625 6.78125 
Q 54.390625 -7.171875 48.1875 -13.984375 
Q 42 -20.796875 29.203125 -20.796875 
Q 24.46875 -20.796875 20.265625 -20.09375 
Q 16.0625 -19.390625 12.109375 -17.921875 
L 12.109375 -9.1875 
Q 16.0625 -11.328125 19.921875 -12.34375 
Q 23.78125 -13.375 27.78125 -13.375 
Q 36.625 -13.375 41.015625 -8.765625 
Q 45.40625 -4.15625 45.40625 5.171875 
L 45.40625 9.625 
Q 42.625 4.78125 38.28125 2.390625 
Q 33.9375 0 27.875 0 
Q 17.828125 0 11.671875 7.65625 
Q 5.515625 15.328125 5.515625 27.984375 
Q 5.515625 40.671875 11.671875 48.328125 
Q 17.828125 56 27.875 56 
Q 33.9375 56 38.28125 53.609375 
Q 42.625 51.21875 45.40625 46.390625 
L 45.40625 54.6875 
L 54.390625 54.6875 
z
" id="DejaVuSans-103"/>
      <path id="DejaVuSans-32"/>
      <path d="M 2.984375 54.6875 
L 12.5 54.6875 
L 29.59375 8.796875 
L 46.6875 54.6875 
L 56.203125 54.6875 
L 35.6875 0 
L 23.484375 0 
z
" id="DejaVuSans-118"/>
      <path d="M 44.28125 53.078125 
L 44.28125 44.578125 
Q 40.484375 46.53125 36.375 47.5 
Q 32.28125 48.484375 27.875 48.484375 
Q 21.1875 48.484375 17.84375 46.4375 
Q 14.5 44.390625 14.5 40.28125 
Q 14.5 37.15625 16.890625 35.375 
Q 19.28125 33.59375 26.515625 31.984375 
L 29.59375 31.296875 
Q 39.15625 29.25 43.1875 25.515625 
Q 47.21875 21.78125 47.21875 15.09375 
Q 47.21875 7.46875 41.1875 3.015625 
Q 35.15625 -1.421875 24.609375 -1.421875 
Q 20.21875 -1.421875 15.453125 -0.5625 
Q 10.6875 0.296875 5.421875 2 
L 5.421875 11.28125 
Q 10.40625 8.6875 15.234375 7.390625 
Q 20.0625 6.109375 24.8125 6.109375 
Q 31.15625 6.109375 34.5625 8.28125 
Q 37.984375 10.453125 37.984375 14.40625 
Q 37.984375 18.0625 35.515625 20.015625 
Q 33.0625 21.96875 24.703125 23.78125 
L 21.578125 24.515625 
Q 13.234375 26.265625 9.515625 29.90625 
Q 5.8125 33.546875 5.8125 39.890625 
Q 5.8125 47.609375 11.28125 51.796875 
Q 16.75 56 26.8125 56 
Q 31.78125 56 36.171875 55.265625 
Q 40.578125 54.546875 44.28125 53.078125 
z
" id="DejaVuSans-115"/>
      <path d="M 19.671875 64.796875 
L 19.671875 8.109375 
L 31.59375 8.109375 
Q 46.6875 8.109375 53.6875 14.9375 
Q 60.6875 21.78125 60.6875 36.53125 
Q 60.6875 51.171875 53.6875 57.984375 
Q 46.6875 64.796875 31.59375 64.796875 
z
M 9.8125 72.90625 
L 30.078125 72.90625 
Q 51.265625 72.90625 61.171875 64.09375 
Q 71.09375 55.28125 71.09375 36.53125 
Q 71.09375 17.671875 61.125 8.828125 
Q 51.171875 0 30.078125 0 
L 9.8125 0 
z
" id="DejaVuSans-68"/>
      <path d="M 18.3125 70.21875 
L 18.3125 54.6875 
L 36.8125 54.6875 
L 36.8125 47.703125 
L 18.3125 47.703125 
L 18.3125 18.015625 
Q 18.3125 11.328125 20.140625 9.421875 
Q 21.96875 7.515625 27.59375 7.515625 
L 36.8125 7.515625 
L 36.8125 0 
L 27.59375 0 
Q 17.1875 0 13.234375 3.875 
Q 9.28125 7.765625 9.28125 18.015625 
L 9.28125 47.703125 
L 2.6875 47.703125 
L 2.6875 54.6875 
L 9.28125 54.6875 
L 9.28125 70.21875 
z
" id="DejaVuSans-116"/>
      <path d="M 48.78125 52.59375 
L 48.78125 44.1875 
Q 44.96875 46.296875 41.140625 47.34375 
Q 37.3125 48.390625 33.40625 48.390625 
Q 24.65625 48.390625 19.8125 42.84375 
Q 14.984375 37.3125 14.984375 27.296875 
Q 14.984375 17.28125 19.8125 11.734375 
Q 24.65625 6.203125 33.40625 6.203125 
Q 37.3125 6.203125 41.140625 7.25 
Q 44.96875 8.296875 48.78125 10.40625 
L 48.78125 2.09375 
Q 45.015625 0.34375 40.984375 -0.53125 
Q 36.96875 -1.421875 32.421875 -1.421875 
Q 20.0625 -1.421875 12.78125 6.34375 
Q 5.515625 14.109375 5.515625 27.296875 
Q 5.515625 40.671875 12.859375 48.328125 
Q 20.21875 56 33.015625 56 
Q 37.15625 56 41.109375 55.140625 
Q 45.0625 54.296875 48.78125 52.59375 
z
" id="DejaVuSans-99"/>
      <path d="M 48.6875 27.296875 
Q 48.6875 37.203125 44.609375 42.84375 
Q 40.53125 48.484375 33.40625 48.484375 
Q 26.265625 48.484375 22.1875 42.84375 
Q 18.109375 37.203125 18.109375 27.296875 
Q 18.109375 17.390625 22.1875 11.75 
Q 26.265625 6.109375 33.40625 6.109375 
Q 40.53125 6.109375 44.609375 11.75 
Q 48.6875 17.390625 48.6875 27.296875 
z
M 18.109375 46.390625 
Q 20.953125 51.265625 25.265625 53.625 
Q 29.59375 56 35.59375 56 
Q 45.5625 56 51.78125 48.09375 
Q 58.015625 40.1875 58.015625 27.296875 
Q 58.015625 14.40625 51.78125 6.484375 
Q 45.5625 -1.421875 35.59375 -1.421875 
Q 29.59375 -1.421875 25.265625 0.953125 
Q 20.953125 3.328125 18.109375 8.203125 
L 18.109375 0 
L 9.078125 0 
L 9.078125 75.984375 
L 18.109375 75.984375 
z
" id="DejaVuSans-98"/>
      <path d="M 41.109375 46.296875 
Q 39.59375 47.171875 37.8125 47.578125 
Q 36.03125 48 33.890625 48 
Q 26.265625 48 22.1875 43.046875 
Q 18.109375 38.09375 18.109375 28.8125 
L 18.109375 0 
L 9.078125 0 
L 9.078125 54.6875 
L 18.109375 54.6875 
L 18.109375 46.1875 
Q 20.953125 51.171875 25.484375 53.578125 
Q 30.03125 56 36.53125 56 
Q 37.453125 56 38.578125 55.875 
Q 39.703125 55.765625 41.0625 55.515625 
z
" id="DejaVuSans-114"/>
     </defs>
     <use xlink:href="#DejaVuSans-72"/>
     <use x="75.195312" xlink:href="#DejaVuSans-101"/>
     <use x="136.71875" xlink:href="#DejaVuSans-97"/>
     <use x="197.998047" xlink:href="#DejaVuSans-100"/>
     <use x="261.474609" xlink:href="#DejaVuSans-105"/>
     <use x="289.257812" xlink:href="#DejaVuSans-110"/>
     <use x="352.636719" xlink:href="#DejaVuSans-103"/>
     <use x="416.113281" xlink:href="#DejaVuSans-32"/>
     <use x="447.900391" xlink:href="#DejaVuSans-118"/>
     <use x="507.080078" xlink:href="#DejaVuSans-115"/>
     <use x="559.179688" xlink:href="#DejaVuSans-32"/>
     <use x="590.966797" xlink:href="#DejaVuSans-68"/>
     <use x="667.96875" xlink:href="#DejaVuSans-105"/>
     <use x="695.751953" xlink:href="#DejaVuSans-115"/>
     <use x="747.851562" xlink:href="#DejaVuSans-116"/>
     <use x="787.060547" xlink:href="#DejaVuSans-97"/>
     <use x="848.339844" xlink:href="#DejaVuSans-110"/>
     <use x="911.71875" xlink:href="#DejaVuSans-99"/>
     <use x="966.699219" xlink:href="#DejaVuSans-101"/>
     <use x="1028.222656" xlink:href="#DejaVuSans-32"/>
     <use x="1060.009766" xlink:href="#DejaVuSans-103"/>
     <use x="1123.486328" xlink:href="#DejaVuSans-98"/>
     <use x="1186.962891" xlink:href="#DejaVuSans-114"/>
    </g>
   </g>
   <g id="legend_1">
    <g id="patch_7">
     <path d="M 276.42625 93.506375 
L 407.72 93.506375 
Q 409.72 93.506375 409.72 91.506375 
L 409.72 48.472 
Q 409.72 46.472 407.72 46.472 
L 276.42625 46.472 
Q 274.42625 46.472 274.42625 48.472 
L 274.42625 91.506375 
Q 274.42625 93.506375 276.42625 93.506375 
z
" style="fill:#ffffff;opacity:0.8;stroke:#cccccc;stroke-linejoin:miter;"/>
    </g>
    <g id="line2d_17">
     <path d="M 278.42625 54.570438 
L 298.42625 54.570438 
" style="fill:none;stroke:#1f77b4;stroke-linecap:square;stroke-width:1.5;"/>
    </g>
    <g id="line2d_18"/>
    <g id="text_15">
     <!-- Centreline -->
     <g transform="translate(306.42625 58.070438)scale(0.1 -0.1)">
      <defs>
       <path d="M 64.40625 67.28125 
L 64.40625 56.890625 
Q 59.421875 61.53125 53.78125 63.8125 
Q 48.140625 66.109375 41.796875 66.109375 
Q 29.296875 66.109375 22.65625 58.46875 
Q 16.015625 50.828125 16.015625 36.375 
Q 16.015625 21.96875 22.65625 14.328125 
Q 29.296875 6.6875 41.796875 6.6875 
Q 48.140625 6.6875 53.78125 8.984375 
Q 59.421875 11.28125 64.40625 15.921875 
L 64.40625 5.609375 
Q 59.234375 2.09375 53.4375 0.328125 
Q 47.65625 -1.421875 41.21875 -1.421875 
Q 24.65625 -1.421875 15.125 8.703125 
Q 5.609375 18.84375 5.609375 36.375 
Q 5.609375 53.953125 15.125 64.078125 
Q 24.65625 74.21875 41.21875 74.21875 
Q 47.75 74.21875 53.53125 72.484375 
Q 59.328125 70.75 64.40625 67.28125 
z
" id="DejaVuSans-67"/>
       <path d="M 9.421875 75.984375 
L 18.40625 75.984375 
L 18.40625 0 
L 9.421875 0 
z
" id="DejaVuSans-108"/>
      </defs>
      <use xlink:href="#DejaVuSans-67"/>
      <use x="69.824219" xlink:href="#DejaVuSans-101"/>
      <use x="131.347656" xlink:href="#DejaVuSans-110"/>
      <use x="194.726562" xlink:href="#DejaVuSans-116"/>
      <use x="233.935547" xlink:href="#DejaVuSans-114"/>
      <use x="272.798828" xlink:href="#DejaVuSans-101"/>
      <use x="334.322266" xlink:href="#DejaVuSans-108"/>
      <use x="362.105469" xlink:href="#DejaVuSans-105"/>
      <use x="389.888672" xlink:href="#DejaVuSans-110"/>
      <use x="453.267578" xlink:href="#DejaVuSans-101"/>
     </g>
    </g>
    <g id="line2d_19">
     <path d="M 278.42625 69.248563 
L 298.42625 69.248563 
" style="fill:none;stroke:#ff7f0e;stroke-linecap:square;stroke-width:1.5;"/>
    </g>
    <g id="line2d_20"/>
    <g id="text_16">
     <!-- Shortest Path -->
     <g transform="translate(306.42625 72.748563)scale(0.1 -0.1)">
      <defs>
       <path d="M 53.515625 70.515625 
L 53.515625 60.890625 
Q 47.90625 63.578125 42.921875 64.890625 
Q 37.9375 66.21875 33.296875 66.21875 
Q 25.25 66.21875 20.875 63.09375 
Q 16.5 59.96875 16.5 54.203125 
Q 16.5 49.359375 19.40625 46.890625 
Q 22.3125 44.4375 30.421875 42.921875 
L 36.375 41.703125 
Q 47.40625 39.59375 52.65625 34.296875 
Q 57.90625 29 57.90625 20.125 
Q 57.90625 9.515625 50.796875 4.046875 
Q 43.703125 -1.421875 29.984375 -1.421875 
Q 24.8125 -1.421875 18.96875 -0.25 
Q 13.140625 0.921875 6.890625 3.21875 
L 6.890625 13.375 
Q 12.890625 10.015625 18.65625 8.296875 
Q 24.421875 6.59375 29.984375 6.59375 
Q 38.421875 6.59375 43.015625 9.90625 
Q 47.609375 13.234375 47.609375 19.390625 
Q 47.609375 24.75 44.3125 27.78125 
Q 41.015625 30.8125 33.5 32.328125 
L 27.484375 33.5 
Q 16.453125 35.6875 11.515625 40.375 
Q 6.59375 45.0625 6.59375 53.421875 
Q 6.59375 63.09375 13.40625 68.65625 
Q 20.21875 74.21875 32.171875 74.21875 
Q 37.3125 74.21875 42.625 73.28125 
Q 47.953125 72.359375 53.515625 70.515625 
z
" id="DejaVuSans-83"/>
       <path d="M 54.890625 33.015625 
L 54.890625 0 
L 45.90625 0 
L 45.90625 32.71875 
Q 45.90625 40.484375 42.875 44.328125 
Q 39.84375 48.1875 33.796875 48.1875 
Q 26.515625 48.1875 22.3125 43.546875 
Q 18.109375 38.921875 18.109375 30.90625 
L 18.109375 0 
L 9.078125 0 
L 9.078125 75.984375 
L 18.109375 75.984375 
L 18.109375 46.1875 
Q 21.34375 51.125 25.703125 53.5625 
Q 30.078125 56 35.796875 56 
Q 45.21875 56 50.046875 50.171875 
Q 54.890625 44.34375 54.890625 33.015625 
z
" id="DejaVuSans-104"/>
       <path d="M 30.609375 48.390625 
Q 23.390625 48.390625 19.1875 42.75 
Q 14.984375 37.109375 14.984375 27.296875 
Q 14.984375 17.484375 19.15625 11.84375 
Q 23.34375 6.203125 30.609375 6.203125 
Q 37.796875 6.203125 41.984375 11.859375 
Q 46.1875 17.53125 46.1875 27.296875 
Q 46.1875 37.015625 41.984375 42.703125 
Q 37.796875 48.390625 30.609375 48.390625 
z
M 30.609375 56 
Q 42.328125 56 49.015625 48.375 
Q 55.71875 40.765625 55.71875 27.296875 
Q 55.71875 13.875 49.015625 6.21875 
Q 42.328125 -1.421875 30.609375 -1.421875 
Q 18.84375 -1.421875 12.171875 6.21875 
Q 5.515625 13.875 5.515625 27.296875 
Q 5.515625 40.765625 12.171875 48.375 
Q 18.84375 56 30.609375 56 
z
" id="DejaVuSans-111"/>
       <path d="M 19.671875 64.796875 
L 19.671875 37.40625 
L 32.078125 37.40625 
Q 38.96875 37.40625 42.71875 40.96875 
Q 46.484375 44.53125 46.484375 51.125 
Q 46.484375 57.671875 42.71875 61.234375 
Q 38.96875 64.796875 32.078125 64.796875 
z
M 9.8125 72.90625 
L 32.078125 72.90625 
Q 44.34375 72.90625 50.609375 67.359375 
Q 56.890625 61.8125 56.890625 51.125 
Q 56.890625 40.328125 50.609375 34.8125 
Q 44.34375 29.296875 32.078125 29.296875 
L 19.671875 29.296875 
L 19.671875 0 
L 9.8125 0 
z
" id="DejaVuSans-80"/>
      </defs>
      <use xlink:href="#DejaVuSans-83"/>
      <use x="63.476562" xlink:href="#DejaVuSans-104"/>
      <use x="126.855469" xlink:href="#DejaVuSans-111"/>
      <use x="188.037109" xlink:href="#DejaVuSans-114"/>
      <use x="229.150391" xlink:href="#DejaVuSans-116"/>
      <use x="268.359375" xlink:href="#DejaVuSans-101"/>
      <use x="329.882812" xlink:href="#DejaVuSans-115"/>
      <use x="381.982422" xlink:href="#DejaVuSans-116"/>
      <use x="421.191406" xlink:href="#DejaVuSans-32"/>
      <use x="452.978516" xlink:href="#DejaVuSans-80"/>
      <use x="508.78125" xlink:href="#DejaVuSans-97"/>
      <use x="570.060547" xlink:href="#DejaVuSans-116"/>
      <use x="609.269531" xlink:href="#DejaVuSans-104"/>
     </g>
    </g>
    <g id="line2d_21">
     <path d="M 278.42625 83.926688 
L 298.42625 83.926688 
" style="fill:none;stroke:#2ca02c;stroke-linecap:square;stroke-width:1.5;"/>
    </g>
    <g id="line2d_22"/>
    <g id="text_17">
     <!-- Minimum Curvature -->
     <g transform="translate(306.42625 87.426688)scale(0.1 -0.1)">
      <defs>
       <path d="M 9.8125 72.90625 
L 24.515625 72.90625 
L 43.109375 23.296875 
L 61.8125 72.90625 
L 76.515625 72.90625 
L 76.515625 0 
L 66.890625 0 
L 66.890625 64.015625 
L 48.09375 14.015625 
L 38.1875 14.015625 
L 19.390625 64.015625 
L 19.390625 0 
L 9.8125 0 
z
" id="DejaVuSans-77"/>
       <path d="M 52 44.1875 
Q 55.375 50.25 60.0625 53.125 
Q 64.75 56 71.09375 56 
Q 79.640625 56 84.28125 50.015625 
Q 88.921875 44.046875 88.921875 33.015625 
L 88.921875 0 
L 79.890625 0 
L 79.890625 32.71875 
Q 79.890625 40.578125 77.09375 44.375 
Q 74.3125 48.1875 68.609375 48.1875 
Q 61.625 48.1875 57.5625 43.546875 
Q 53.515625 38.921875 53.515625 30.90625 
L 53.515625 0 
L 44.484375 0 
L 44.484375 32.71875 
Q 44.484375 40.625 41.703125 44.40625 
Q 38.921875 48.1875 33.109375 48.1875 
Q 26.21875 48.1875 22.15625 43.53125 
Q 18.109375 38.875 18.109375 30.90625 
L 18.109375 0 
L 9.078125 0 
L 9.078125 54.6875 
L 18.109375 54.6875 
L 18.109375 46.1875 
Q 21.1875 51.21875 25.484375 53.609375 
Q 29.78125 56 35.6875 56 
Q 41.65625 56 45.828125 52.96875 
Q 50 49.953125 52 44.1875 
z
" id="DejaVuSans-109"/>
       <path d="M 8.5 21.578125 
L 8.5 54.6875 
L 17.484375 54.6875 
L 17.484375 21.921875 
Q 17.484375 14.15625 20.5 10.265625 
Q 23.53125 6.390625 29.59375 6.390625 
Q 36.859375 6.390625 41.078125 11.03125 
Q 45.3125 15.671875 45.3125 23.6875 
L 45.3125 54.6875 
L 54.296875 54.6875 
L 54.296875 0 
L 45.3125 0 
L 45.3125 8.40625 
Q 42.046875 3.421875 37.71875 1 
Q 33.40625 -1.421875 27.6875 -1.421875 
Q 18.265625 -1.421875 13.375 4.4375 
Q 8.5 10.296875 8.5 21.578125 
z
M 31.109375 56 
z
" id="DejaVuSans-117"/>
      </defs>
      <use xlink:href="#DejaVuSans-77"/>
      <use x="86.279297" xlink:href="#DejaVuSans-105"/>
      <use x="114.0625" xlink:href="#DejaVuSans-110"/>
      <use x="177.441406" xlink:href="#DejaVuSans-105"/>
      <use x="205.224609" xlink:href="#DejaVuSans-109"/>
      <use x="302.636719" xlink:href="#DejaVuSans-117"/>
      <use x="366.015625" xlink:href="#DejaVuSans-109"/>
      <use x="463.427734" xlink:href="#DejaVuSans-32"/>
      <use x="495.214844" xlink:href="#DejaVuSans-67"/>
      <use x="565.039062" xlink:href="#DejaVuSans-117"/>
      <use x="628.417969" xlink:href="#DejaVuSans-114"/>
      <use x="669.53125" xlink:href="#DejaVuSans-118"/>
      <use x="728.710938" xlink:href="#DejaVuSans-97"/>
      <use x="789.990234" xlink:href="#DejaVuSans-116"/>
      <use x="829.199219" xlink:href="#DejaVuSans-117"/>
      <use x="892.578125" xlink:href="#DejaVuSans-114"/>
      <use x="931.441406" xlink:href="#DejaVuSans-101"/>
     </g>
    </g>
   </g>
  </g>
 </g>
 <defs>
  <clipPath id="pb2dc2d7244">
   <rect height="266.112" width="357.12" x="57.6" y="41.472"/>
  </clipPath>
 </defs>
</svg>
