<?xml version="1.0" encoding="utf-8" standalone="no"?>
<!DOCTYPE svg PUBLIC "-//W3C//DTD SVG 1.1//EN"
  "http://www.w3.org/Graphics/SVG/1.1/DTD/svg11.dtd">
<!-- Created with matplotlib (https://matplotlib.org/) -->
<svg height="345.6pt" version="1.1" viewBox="0 0 460.8 345.6" width="460.8pt" xmlns="http://www.w3.org/2000/svg" xmlns:xlink="http://www.w3.org/1999/xlink">
 <metadata>
  <rdf:RDF xmlns:cc="http://creativecommons.org/ns#" xmlns:dc="http://purl.org/dc/elements/1.1/" xmlns:rdf="http://www.w3.org/1999/02/22-rdf-syntax-ns#">
   <cc:Work>
    <dc:type rdf:resource="http://purl.org/dc/dcmitype/StillImage"/>
    <dc:date>2024-10-14T23:04:58.752454</dc:date>
    <dc:format>image/svg+xml</dc:format>
    <dc:creator>
     <cc:Agent>
      <dc:title>Matplotlib v3.3.1, https://matplotlib.org/</dc:title>
     </cc:Agent>
    </dc:creator>
   </cc:Work>
  </rdf:RDF>
 </metadata>
 <defs>
  <style type="text/css">*{stroke-linecap:butt;stroke-linejoin:round;}</style>
 </defs>
 <g id="figure_1">
  <g id="patch_1">
   <path d="M 0 345.6 
L 460.8 345.6 
L 460.8 0 
L 0 0 
z
" style="fill:#ffffff;"/>
  </g>
  <g id="axes_1">
   <g id="patch_2">
    <path d="M 57.6 307.584 
L 414.72 307.584 
L 414.72 41.472 
L 57.6 41.472 
z
" style="fill:#ffffff;"/>
   </g>
   <g id="matplotlib.axis_1">
    <g id="xtick_1">
     <g id="line2d_1">
      <defs>
       <path d="M 0 0 
L 0 3.5 
" id="m0f4229af83" style="stroke:#000000;stroke-width:0.8;"/>
      </defs>
      <g>
       <use style="stroke:#000000;stroke-width:0.8;" x="73.832727" xlink:href="#m0f4229af83" y="307.584"/>
      </g>
     </g>
     <g id="text_1">
      <!-- 0.0 -->
      <g transform="translate(65.881165 322.182437)scale(0.1 -0.1)">
       <defs>
        <path d="M 31.78125 66.40625 
Q 24.171875 66.40625 20.328125 58.90625 
Q 16.5 51.421875 16.5 36.375 
Q 16.5 21.390625 20.328125 13.890625 
Q 24.171875 6.390625 31.78125 6.390625 
Q 39.453125 6.390625 43.28125 13.890625 
Q 47.125 21.390625 47.125 36.375 
Q 47.125 51.421875 43.28125 58.90625 
Q 39.453125 66.40625 31.78125 66.40625 
z
M 31.78125 74.21875 
Q 44.046875 74.21875 50.515625 64.515625 
Q 56.984375 54.828125 56.984375 36.375 
Q 56.984375 17.96875 50.515625 8.265625 
Q 44.046875 -1.421875 31.78125 -1.421875 
Q 19.53125 -1.421875 13.0625 8.265625 
Q 6.59375 17.96875 6.59375 36.375 
Q 6.59375 54.828125 13.0625 64.515625 
Q 19.53125 74.21875 31.78125 74.21875 
z
" id="DejaVuSans-48"/>
        <path d="M 10.6875 12.40625 
L 21 12.40625 
L 21 0 
L 10.6875 0 
z
" id="DejaVuSans-46"/>
       </defs>
       <use xlink:href="#DejaVuSans-48"/>
       <use x="63.623047" xlink:href="#DejaVuSans-46"/>
       <use x="95.410156" xlink:href="#DejaVuSans-48"/>
      </g>
     </g>
    </g>
    <g id="xtick_2">
     <g id="line2d_2">
      <g>
       <use style="stroke:#000000;stroke-width:0.8;" x="138.763636" xlink:href="#m0f4229af83" y="307.584"/>
      </g>
     </g>
     <g id="text_2">
      <!-- 0.2 -->
      <g transform="translate(130.812074 322.182437)scale(0.1 -0.1)">
       <defs>
        <path d="M 19.1875 8.296875 
L 53.609375 8.296875 
L 53.609375 0 
L 7.328125 0 
L 7.328125 8.296875 
Q 12.9375 14.109375 22.625 23.890625 
Q 32.328125 33.6875 34.8125 36.53125 
Q 39.546875 41.84375 41.421875 45.53125 
Q 43.3125 49.21875 43.3125 52.78125 
Q 43.3125 58.59375 39.234375 62.25 
Q 35.15625 65.921875 28.609375 65.921875 
Q 23.96875 65.921875 18.8125 64.3125 
Q 13.671875 62.703125 7.8125 59.421875 
L 7.8125 69.390625 
Q 13.765625 71.78125 18.9375 73 
Q 24.125 74.21875 28.421875 74.21875 
Q 39.75 74.21875 46.484375 68.546875 
Q 53.21875 62.890625 53.21875 53.421875 
Q 53.21875 48.921875 51.53125 44.890625 
Q 49.859375 40.875 45.40625 35.40625 
Q 44.1875 33.984375 37.640625 27.21875 
Q 31.109375 20.453125 19.1875 8.296875 
z
" id="DejaVuSans-50"/>
       </defs>
       <use xlink:href="#DejaVuSans-48"/>
       <use x="63.623047" xlink:href="#DejaVuSans-46"/>
       <use x="95.410156" xlink:href="#DejaVuSans-50"/>
      </g>
     </g>
    </g>
    <g id="xtick_3">
     <g id="line2d_3">
      <g>
       <use style="stroke:#000000;stroke-width:0.8;" x="203.694545" xlink:href="#m0f4229af83" y="307.584"/>
      </g>
     </g>
     <g id="text_3">
      <!-- 0.4 -->
      <g transform="translate(195.742983 322.182437)scale(0.1 -0.1)">
       <defs>
        <path d="M 37.796875 64.3125 
L 12.890625 25.390625 
L 37.796875 25.390625 
z
M 35.203125 72.90625 
L 47.609375 72.90625 
L 47.609375 25.390625 
L 58.015625 25.390625 
L 58.015625 17.1875 
L 47.609375 17.1875 
L 47.609375 0 
L 37.796875 0 
L 37.796875 17.1875 
L 4.890625 17.1875 
L 4.890625 26.703125 
z
" id="DejaVuSans-52"/>
       </defs>
       <use xlink:href="#DejaVuSans-48"/>
       <use x="63.623047" xlink:href="#DejaVuSans-46"/>
       <use x="95.410156" xlink:href="#DejaVuSans-52"/>
      </g>
     </g>
    </g>
    <g id="xtick_4">
     <g id="line2d_4">
      <g>
       <use style="stroke:#000000;stroke-width:0.8;" x="268.625455" xlink:href="#m0f4229af83" y="307.584"/>
      </g>
     </g>
     <g id="text_4">
      <!-- 0.6 -->
      <g transform="translate(260.673892 322.182437)scale(0.1 -0.1)">
       <defs>
        <path d="M 33.015625 40.375 
Q 26.375 40.375 22.484375 35.828125 
Q 18.609375 31.296875 18.609375 23.390625 
Q 18.609375 15.53125 22.484375 10.953125 
Q 26.375 6.390625 33.015625 6.390625 
Q 39.65625 6.390625 43.53125 10.953125 
Q 47.40625 15.53125 47.40625 23.390625 
Q 47.40625 31.296875 43.53125 35.828125 
Q 39.65625 40.375 33.015625 40.375 
z
M 52.59375 71.296875 
L 52.59375 62.3125 
Q 48.875 64.0625 45.09375 64.984375 
Q 41.3125 65.921875 37.59375 65.921875 
Q 27.828125 65.921875 22.671875 59.328125 
Q 17.53125 52.734375 16.796875 39.40625 
Q 19.671875 43.65625 24.015625 45.921875 
Q 28.375 48.1875 33.59375 48.1875 
Q 44.578125 48.1875 50.953125 41.515625 
Q 57.328125 34.859375 57.328125 23.390625 
Q 57.328125 12.15625 50.6875 5.359375 
Q 44.046875 -1.421875 33.015625 -1.421875 
Q 20.359375 -1.421875 13.671875 8.265625 
Q 6.984375 17.96875 6.984375 36.375 
Q 6.984375 53.65625 15.1875 63.9375 
Q 23.390625 74.21875 37.203125 74.21875 
Q 40.921875 74.21875 44.703125 73.484375 
Q 48.484375 72.75 52.59375 71.296875 
z
" id="DejaVuSans-54"/>
       </defs>
       <use xlink:href="#DejaVuSans-48"/>
       <use x="63.623047" xlink:href="#DejaVuSans-46"/>
       <use x="95.410156" xlink:href="#DejaVuSans-54"/>
      </g>
     </g>
    </g>
    <g id="xtick_5">
     <g id="line2d_5">
      <g>
       <use style="stroke:#000000;stroke-width:0.8;" x="333.556364" xlink:href="#m0f4229af83" y="307.584"/>
      </g>
     </g>
     <g id="text_5">
      <!-- 0.8 -->
      <g transform="translate(325.604801 322.182437)scale(0.1 -0.1)">
       <defs>
        <path d="M 31.78125 34.625 
Q 24.75 34.625 20.71875 30.859375 
Q 16.703125 27.09375 16.703125 20.515625 
Q 16.703125 13.921875 20.71875 10.15625 
Q 24.75 6.390625 31.78125 6.390625 
Q 38.8125 6.390625 42.859375 10.171875 
Q 46.921875 13.96875 46.921875 20.515625 
Q 46.921875 27.09375 42.890625 30.859375 
Q 38.875 34.625 31.78125 34.625 
z
M 21.921875 38.8125 
Q 15.578125 40.375 12.03125 44.71875 
Q 8.5 49.078125 8.5 55.328125 
Q 8.5 64.0625 14.71875 69.140625 
Q 20.953125 74.21875 31.78125 74.21875 
Q 42.671875 74.21875 48.875 69.140625 
Q 55.078125 64.0625 55.078125 55.328125 
Q 55.078125 49.078125 51.53125 44.71875 
Q 48 40.375 41.703125 38.8125 
Q 48.828125 37.15625 52.796875 32.3125 
Q 56.78125 27.484375 56.78125 20.515625 
Q 56.78125 9.90625 50.3125 4.234375 
Q 43.84375 -1.421875 31.78125 -1.421875 
Q 19.734375 -1.421875 13.25 4.234375 
Q 6.78125 9.90625 6.78125 20.515625 
Q 6.78125 27.484375 10.78125 32.3125 
Q 14.796875 37.15625 21.921875 38.8125 
z
M 18.3125 54.390625 
Q 18.3125 48.734375 21.84375 45.5625 
Q 25.390625 42.390625 31.78125 42.390625 
Q 38.140625 42.390625 41.71875 45.5625 
Q 45.3125 48.734375 45.3125 54.390625 
Q 45.3125 60.0625 41.71875 63.234375 
Q 38.140625 66.40625 31.78125 66.40625 
Q 25.390625 66.40625 21.84375 63.234375 
Q 18.3125 60.0625 18.3125 54.390625 
z
" id="DejaVuSans-56"/>
       </defs>
       <use xlink:href="#DejaVuSans-48"/>
       <use x="63.623047" xlink:href="#DejaVuSans-46"/>
       <use x="95.410156" xlink:href="#DejaVuSans-56"/>
      </g>
     </g>
    </g>
    <g id="xtick_6">
     <g id="line2d_6">
      <g>
       <use style="stroke:#000000;stroke-width:0.8;" x="398.487273" xlink:href="#m0f4229af83" y="307.584"/>
      </g>
     </g>
     <g id="text_6">
      <!-- 1.0 -->
      <g transform="translate(390.53571 322.182437)scale(0.1 -0.1)">
       <defs>
        <path d="M 12.40625 8.296875 
L 28.515625 8.296875 
L 28.515625 63.921875 
L 10.984375 60.40625 
L 10.984375 69.390625 
L 28.421875 72.90625 
L 38.28125 72.90625 
L 38.28125 8.296875 
L 54.390625 8.296875 
L 54.390625 0 
L 12.40625 0 
z
" id="DejaVuSans-49"/>
       </defs>
       <use xlink:href="#DejaVuSans-49"/>
       <use x="63.623047" xlink:href="#DejaVuSans-46"/>
       <use x="95.410156" xlink:href="#DejaVuSans-48"/>
      </g>
     </g>
    </g>
   </g>
   <g id="matplotlib.axis_2">
    <g id="ytick_1">
     <g id="line2d_7">
      <defs>
       <path d="M 0 0 
L -3.5 0 
" id="mb0715a3a0b" style="stroke:#000000;stroke-width:0.8;"/>
      </defs>
      <g>
       <use style="stroke:#000000;stroke-width:0.8;" x="57.6" xlink:href="#mb0715a3a0b" y="296.826044"/>
      </g>
     </g>
     <g id="text_7">
      <!-- −1.5 -->
      <g transform="translate(26.317187 300.625263)scale(0.1 -0.1)">
       <defs>
        <path d="M 10.59375 35.5 
L 73.1875 35.5 
L 73.1875 27.203125 
L 10.59375 27.203125 
z
" id="DejaVuSans-8722"/>
        <path d="M 10.796875 72.90625 
L 49.515625 72.90625 
L 49.515625 64.59375 
L 19.828125 64.59375 
L 19.828125 46.734375 
Q 21.96875 47.46875 24.109375 47.828125 
Q 26.265625 48.1875 28.421875 48.1875 
Q 40.625 48.1875 47.75 41.5 
Q 54.890625 34.8125 54.890625 23.390625 
Q 54.890625 11.625 47.5625 5.09375 
Q 40.234375 -1.421875 26.90625 -1.421875 
Q 22.3125 -1.421875 17.546875 -0.640625 
Q 12.796875 0.140625 7.71875 1.703125 
L 7.71875 11.625 
Q 12.109375 9.234375 16.796875 8.0625 
Q 21.484375 6.890625 26.703125 6.890625 
Q 35.15625 6.890625 40.078125 11.328125 
Q 45.015625 15.765625 45.015625 23.390625 
Q 45.015625 31 40.078125 35.4375 
Q 35.15625 39.890625 26.703125 39.890625 
Q 22.75 39.890625 18.8125 39.015625 
Q 14.890625 38.140625 10.796875 36.28125 
z
" id="DejaVuSans-53"/>
       </defs>
       <use xlink:href="#DejaVuSans-8722"/>
       <use x="83.789062" xlink:href="#DejaVuSans-49"/>
       <use x="147.412109" xlink:href="#DejaVuSans-46"/>
       <use x="179.199219" xlink:href="#DejaVuSans-53"/>
      </g>
     </g>
    </g>
    <g id="ytick_2">
     <g id="line2d_8">
      <g>
       <use style="stroke:#000000;stroke-width:0.8;" x="57.6" xlink:href="#mb0715a3a0b" y="264.531892"/>
      </g>
     </g>
     <g id="text_8">
      <!-- −1.0 -->
      <g transform="translate(26.317187 268.331111)scale(0.1 -0.1)">
       <use xlink:href="#DejaVuSans-8722"/>
       <use x="83.789062" xlink:href="#DejaVuSans-49"/>
       <use x="147.412109" xlink:href="#DejaVuSans-46"/>
       <use x="179.199219" xlink:href="#DejaVuSans-48"/>
      </g>
     </g>
    </g>
    <g id="ytick_3">
     <g id="line2d_9">
      <g>
       <use style="stroke:#000000;stroke-width:0.8;" x="57.6" xlink:href="#mb0715a3a0b" y="232.23774"/>
      </g>
     </g>
     <g id="text_9">
      <!-- −0.5 -->
      <g transform="translate(26.317187 236.036959)scale(0.1 -0.1)">
       <use xlink:href="#DejaVuSans-8722"/>
       <use x="83.789062" xlink:href="#DejaVuSans-48"/>
       <use x="147.412109" xlink:href="#DejaVuSans-46"/>
       <use x="179.199219" xlink:href="#DejaVuSans-53"/>
      </g>
     </g>
    </g>
    <g id="ytick_4">
     <g id="line2d_10">
      <g>
       <use style="stroke:#000000;stroke-width:0.8;" x="57.6" xlink:href="#mb0715a3a0b" y="199.943588"/>
      </g>
     </g>
     <g id="text_10">
      <!-- 0.0 -->
      <g transform="translate(34.696875 203.742807)scale(0.1 -0.1)">
       <use xlink:href="#DejaVuSans-48"/>
       <use x="63.623047" xlink:href="#DejaVuSans-46"/>
       <use x="95.410156" xlink:href="#DejaVuSans-48"/>
      </g>
     </g>
    </g>
    <g id="ytick_5">
     <g id="line2d_11">
      <g>
       <use style="stroke:#000000;stroke-width:0.8;" x="57.6" xlink:href="#mb0715a3a0b" y="167.649437"/>
      </g>
     </g>
     <g id="text_11">
      <!-- 0.5 -->
      <g transform="translate(34.696875 171.448655)scale(0.1 -0.1)">
       <use xlink:href="#DejaVuSans-48"/>
       <use x="63.623047" xlink:href="#DejaVuSans-46"/>
       <use x="95.410156" xlink:href="#DejaVuSans-53"/>
      </g>
     </g>
    </g>
    <g id="ytick_6">
     <g id="line2d_12">
      <g>
       <use style="stroke:#000000;stroke-width:0.8;" x="57.6" xlink:href="#mb0715a3a0b" y="135.355285"/>
      </g>
     </g>
     <g id="text_12">
      <!-- 1.0 -->
      <g transform="translate(34.696875 139.154503)scale(0.1 -0.1)">
       <use xlink:href="#DejaVuSans-49"/>
       <use x="63.623047" xlink:href="#DejaVuSans-46"/>
       <use x="95.410156" xlink:href="#DejaVuSans-48"/>
      </g>
     </g>
    </g>
    <g id="ytick_7">
     <g id="line2d_13">
      <g>
       <use style="stroke:#000000;stroke-width:0.8;" x="57.6" xlink:href="#mb0715a3a0b" y="103.061133"/>
      </g>
     </g>
     <g id="text_13">
      <!-- 1.5 -->
      <g transform="translate(34.696875 106.860351)scale(0.1 -0.1)">
       <use xlink:href="#DejaVuSans-49"/>
       <use x="63.623047" xlink:href="#DejaVuSans-46"/>
       <use x="95.410156" xlink:href="#DejaVuSans-53"/>
      </g>
     </g>
    </g>
    <g id="ytick_8">
     <g id="line2d_14">
      <g>
       <use style="stroke:#000000;stroke-width:0.8;" x="57.6" xlink:href="#mb0715a3a0b" y="70.766981"/>
      </g>
     </g>
     <g id="text_14">
      <!-- 2.0 -->
      <g transform="translate(34.696875 74.566199)scale(0.1 -0.1)">
       <use xlink:href="#DejaVuSans-50"/>
       <use x="63.623047" xlink:href="#DejaVuSans-46"/>
       <use x="95.410156" xlink:href="#DejaVuSans-48"/>
      </g>
     </g>
    </g>
   </g>
   <g id="line2d_15">
    <path clip-path="url(#p3b2e81818e)" d="M 73.832727 190.586384 
L 74.02028 189.609943 
L 74.395387 194.94521 
L 74.770493 185.457739 
L 75.145599 194.96328 
L 75.333152 194.828029 
L 75.708259 213.636741 
L 76.083365 194.420148 
L 76.458471 196.189811 
L 76.646024 197.139832 
L 77.021131 195.013619 
L 77.208684 195.461728 
L 77.58379 202.710613 
L 77.958896 195.019379 
L 78.14645 195.994311 
L 78.521556 205.189504 
L 78.896662 195.181388 
L 79.084215 196.954546 
L 79.459322 207.405274 
L 79.834428 195.891254 
L 80.021981 195.273082 
L 80.397088 180.370014 
L 80.772194 197.757934 
L 80.959747 196.540847 
L 81.334853 212.015174 
L 81.709959 194.834027 
L 81.897512 197.048319 
L 82.085066 196.490397 
L 82.272619 196.515125 
L 82.835278 197.206906 
L 83.210384 198.263767 
L 83.585491 197.014145 
L 83.773044 200.490723 
L 83.960597 212.519551 
L 84.14815 214.636417 
L 84.335703 200.863362 
L 84.523256 195.926272 
L 84.710809 194.014453 
L 84.898362 181.904497 
L 85.085916 179.776813 
L 85.461022 198.4418 
L 85.648575 200.774952 
L 85.836128 213.684504 
L 86.023681 216.304449 
L 86.398787 195.905876 
L 86.586341 196.834919 
L 86.773894 194.777032 
L 86.961447 194.503767 
L 87.336553 197.110008 
L 87.524106 197.318959 
L 87.711659 198.263682 
L 87.899213 198.416774 
L 88.274319 196.864591 
L 88.461872 201.599211 
L 88.649425 214.324661 
L 88.836978 217.016999 
L 89.212084 196.309192 
L 89.399638 192.998571 
L 89.58719 180.06614 
L 89.774744 177.033651 
L 90.14985 197.527852 
L 90.337403 200.933318 
L 90.524956 212.665187 
L 90.71251 214.637855 
L 91.087616 195.639195 
L 91.275169 193.609038 
L 91.462722 187.11603 
L 91.650275 185.792884 
L 92.025381 195.822717 
L 92.212934 198.071455 
L 92.400488 204.210365 
L 92.588041 204.884398 
L 92.963147 194.805745 
L 93.1507 195.472911 
L 93.338253 196.593054 
L 93.525806 196.701742 
L 93.900913 194.52858 
L 94.088466 197.407449 
L 94.276019 204.198761 
L 94.463572 205.256765 
L 94.838678 193.839972 
L 95.026232 194.713413 
L 95.213785 196.560919 
L 95.401338 196.837357 
L 95.776444 193.37675 
L 95.963997 194.452801 
L 96.15155 197.048396 
L 96.339103 197.11632 
L 96.71421 191.579034 
L 96.901763 192.308315 
L 97.089316 194.336636 
L 97.276869 194.274678 
L 97.651975 189.687223 
L 97.839529 196.62458 
L 98.027082 213.475005 
L 98.214635 216.634689 
L 98.589741 187.326954 
L 98.777294 188.025568 
L 98.964847 191.030092 
L 99.152401 191.388275 
L 99.527507 184.662328 
L 99.71506 185.123815 
L 99.902613 187.075621 
L 100.090166 187.0403 
L 100.465273 182.286206 
L 100.652826 186.129931 
L 100.840379 196.362355 
L 101.027932 198.260815 
L 101.403038 179.449359 
L 101.590592 188.548355 
L 101.778144 214.847475 
L 101.965698 220.14064 
L 102.340804 175.267028 
L 102.528357 176.488948 
L 102.71591 180.95317 
L 102.903463 181.015709 
L 103.278569 170.186423 
L 103.466123 177.737469 
L 103.653676 198.720165 
L 103.841229 201.111876 
L 104.216334 163.309145 
L 104.403889 179.299868 
L 104.591442 212.217882 
L 104.778994 208.526777 
L 104.966547 175.091223 
L 105.154099 164.99082 
L 105.529206 191.300893 
L 105.716759 188.061243 
L 105.904313 174.578791 
L 106.091865 171.632883 
L 106.466972 192.189735 
L 106.654525 189.388171 
L 106.842078 178.934662 
L 107.029631 177.365554 
L 107.404738 204.019403 
L 107.592291 198.701851 
L 107.779844 184.533574 
L 107.967397 182.041496 
L 108.342503 200.789913 
L 108.530056 196.971889 
L 108.71761 187.449088 
L 108.905163 187.232892 
L 109.280269 212.985132 
L 109.467822 205.451415 
L 109.655375 192.268449 
L 109.842928 190.781322 
L 110.218035 203.850961 
L 110.405588 200.736012 
L 110.593141 195.166856 
L 110.780694 193.892052 
L 111.1558 187.374641 
L 111.343353 190.568198 
L 111.530907 196.234931 
L 111.71846 197.765907 
L 112.093566 191.173451 
L 112.843779 202.554499 
L 113.031332 204.715877 
L 113.593991 199.782216 
L 113.969097 194.114776 
L 114.531757 201.533939 
L 114.906863 212.546931 
L 115.844629 191.981236 
L 116.407288 201.865281 
L 116.782395 204.324881 
L 117.157501 202.223565 
L 117.345054 202.181661 
L 117.72016 203.910109 
L 118.28282 201.732497 
L 118.657926 186.272049 
L 119.033032 201.71916 
L 119.220585 203.814234 
L 119.595692 211.606957 
L 120.158351 202.230179 
L 120.533458 186.757744 
L 120.908564 202.415694 
L 121.096117 204.338155 
L 121.471223 212.850019 
L 121.846329 203.9997 
L 122.033882 201.626463 
L 122.408989 185.621145 
L 122.784095 201.975114 
L 122.971648 204.034431 
L 123.346754 213.794264 
L 123.721861 203.400423 
L 123.909414 200.311452 
L 124.28452 181.786981 
L 124.659626 201.622953 
L 124.847179 203.037085 
L 125.034732 207.686462 
L 125.222285 209.182896 
L 125.597392 202.271922 
L 125.784945 199.980917 
L 125.972498 191.778374 
L 126.160051 189.024761 
L 126.535157 200.971893 
L 126.722711 203.252458 
L 126.910264 212.038397 
L 127.097817 215.122858 
L 127.472923 202.339579 
L 127.660476 200.444033 
L 128.035583 182.906642 
L 128.410689 200.434776 
L 128.598242 202.177151 
L 128.973349 219.641947 
L 129.348454 201.321528 
L 129.536007 198.407065 
L 129.72356 186.587933 
L 129.911114 182.552225 
L 130.28622 200.015174 
L 130.473773 201.981517 
L 130.84888 216.832622 
L 131.223985 200.650881 
L 131.411539 199.21721 
L 131.599092 193.024894 
L 131.786645 190.994424 
L 132.161751 199.486824 
L 132.349304 201.026684 
L 132.536857 211.990291 
L 132.72441 215.201926 
L 132.911963 203.928878 
L 133.099516 200.619154 
L 133.28707 200.651732 
L 133.474623 189.390402 
L 133.662177 185.588742 
L 133.849729 196.175052 
L 134.037282 200.264121 
L 134.224836 201.236937 
L 134.412388 212.902237 
L 134.599942 216.903207 
L 134.975048 199.054831 
L 135.162601 201.262013 
L 135.350154 206.07695 
L 135.537707 206.708617 
L 135.72526 201.580103 
L 135.912814 199.575265 
L 136.100367 199.434827 
L 136.28792 197.818953 
L 136.475473 197.624732 
L 136.850579 199.960588 
L 137.038132 198.217295 
L 137.225685 191.866725 
L 137.413239 190.529321 
L 137.788345 200.341357 
L 137.975898 197.248245 
L 138.163451 185.892398 
L 138.351005 183.132911 
L 138.538557 195.091678 
L 138.726111 199.053586 
L 138.913664 197.189755 
L 139.101216 205.547065 
L 139.28877 208.591545 
L 139.476323 199.528197 
L 139.663876 197.386723 
L 139.851429 199.07827 
L 140.038982 197.307743 
L 140.226536 197.150161 
L 140.414089 198.51299 
L 140.789195 199.610818 
L 140.976748 202.381885 
L 141.164301 202.720565 
L 141.539408 198.494798 
L 141.726961 199.682778 
L 141.914514 202.762817 
L 142.102067 203.072122 
L 142.28962 199.827078 
L 142.664726 197.840034 
L 142.852279 194.368868 
L 143.039833 194.102338 
L 143.227386 197.830719 
L 143.414939 198.990909 
L 143.602492 201.899396 
L 143.790045 210.754642 
L 143.977598 211.232646 
L 144.165151 202.360086 
L 144.540258 197.851932 
L 144.727811 191.241747 
L 144.915364 191.357568 
L 145.29047 201.589544 
L 145.478023 199.020411 
L 145.665576 193.065982 
L 145.85313 192.811475 
L 146.040683 199.754133 
L 146.415789 206.341833 
L 146.603342 217.299348 
L 146.790895 217.782979 
L 146.978448 206.901369 
L 147.166001 203.104552 
L 147.353555 202.30444 
L 147.541108 197.967408 
L 147.728661 198.382581 
L 148.103767 205.383815 
L 148.29132 199.863483 
L 148.478873 186.959121 
L 148.666427 186.921554 
L 149.041533 207.164864 
L 149.229086 206.925316 
L 149.416639 208.239919 
L 149.604192 208.515614 
L 149.791745 207.940845 
L 149.979298 207.968203 
L 150.166852 202.880801 
L 150.354405 190.672997 
L 150.541958 190.874348 
L 150.917064 210.205806 
L 151.104617 212.000469 
L 151.29217 217.554161 
L 151.479724 217.766382 
L 151.667277 212.692173 
L 151.85483 210.889572 
L 152.042383 206.276138 
L 152.229936 194.626077 
L 152.417489 194.942104 
L 152.792595 213.768715 
L 152.980149 209.106823 
L 153.167702 200.33917 
L 153.355255 200.841926 
L 153.730361 215.724658 
L 153.917915 207.019569 
L 154.105468 191.354043 
L 154.29302 194.464825 
L 154.480574 212.73364 
L 154.668126 218.799353 
L 155.043233 208.330879 
L 155.230786 210.474576 
L 155.418339 218.419427 
L 155.605892 220.959069 
L 155.981 193.857119 
L 156.168551 202.563362 
L 156.356106 221.427273 
L 156.543657 224.340457 
L 156.918765 197.784705 
L 157.106317 207.702061 
L 157.293871 224.898688 
L 157.481424 227.462504 
L 157.85653 210.216828 
L 158.41919 230.621606 
L 158.7943 198.740222 
L 159.169403 237.25081 
L 159.356958 234.461798 
L 159.732066 200.67127 
L 160.107168 244.6709 
L 160.294725 239.511944 
L 160.669831 202.843511 
L 161.044934 247.940207 
L 161.232491 236.049638 
L 161.420041 207.460999 
L 161.607595 204.358751 
L 161.9827 244.728495 
L 162.357807 210.562348 
L 162.545361 212.322706 
L 162.732915 231.716589 
L 162.920466 235.628564 
L 163.295574 194.437718 
L 163.483126 200.84805 
L 163.670681 222.697102 
L 163.858233 225.675479 
L 164.23334 191.957874 
L 164.420892 199.477572 
L 164.608446 216.059923 
L 164.795998 219.468943 
L 164.983552 219.195877 
L 165.171105 219.976513 
L 165.921318 208.090008 
L 166.108871 204.81886 
L 166.296424 204.544981 
L 166.483977 205.432385 
L 166.67153 204.331393 
L 167.046636 195.994029 
L 167.23419 195.990749 
L 167.421743 197.981036 
L 167.609296 197.428775 
L 167.984402 191.800681 
L 168.171955 191.0846 
L 168.359508 191.366754 
L 168.547062 190.042431 
L 168.922168 183.23799 
L 169.109721 183.484543 
L 169.297274 184.338422 
L 169.484827 184.65948 
L 169.859933 192.037463 
L 170.422593 177.737207 
L 170.797703 222.082488 
L 170.985251 207.197696 
L 171.172806 174.927548 
L 171.360358 169.057638 
L 171.735468 214.081363 
L 172.110573 166.090595 
L 172.298125 163.626621 
L 172.673231 174.476831 
L 173.048337 162.189397 
L 173.235892 166.610187 
L 173.610999 208.288062 
L 173.986103 164.987735 
L 174.17366 173.280501 
L 174.36121 201.511368 
L 174.548763 206.984926 
L 174.923869 172.052673 
L 175.111424 177.896519 
L 175.298976 191.390906 
L 175.486529 192.886876 
L 175.861635 176.981179 
L 176.049189 181.443211 
L 176.236742 191.425426 
L 176.424295 192.495821 
L 176.799401 181.346776 
L 176.986955 188.370825 
L 177.174508 203.807192 
L 177.36206 204.870743 
L 177.737167 185.962101 
L 177.92472 192.000625 
L 178.112273 205.442053 
L 178.299826 206.317846 
L 178.674933 190.869509 
L 178.862485 188.034452 
L 179.050039 181.246289 
L 179.237592 181.870348 
L 179.800251 201.634678 
L 179.987805 219.797213 
L 180.175357 221.080039 
L 180.550464 199.030402 
L 180.738017 195.086881 
L 180.925571 184.988361 
L 181.113123 185.27268 
L 181.488229 201.725382 
L 181.675783 200.99267 
L 181.863336 198.045388 
L 182.050889 198.701681 
L 182.425995 203.429281 
L 182.613548 203.819635 
L 182.801101 204.508227 
L 182.988655 204.485361 
L 183.176208 203.783828 
L 183.363761 203.87518 
L 183.551314 201.191694 
L 183.738867 195.505909 
L 183.92642 195.989464 
L 184.113973 200.5799 
L 184.301526 202.127006 
L 184.48908 199.650827 
L 184.676633 195.456044 
L 184.864186 195.586965 
L 185.051739 198.514398 
L 185.239292 198.564899 
L 185.426845 203.887447 
L 185.614399 214.596489 
L 185.801951 211.912238 
L 186.177058 195.999902 
L 186.364611 195.724088 
L 186.552164 195.94714 
L 186.739717 195.247428 
L 186.92727 193.757116 
L 187.114824 193.207653 
L 187.302377 189.507376 
L 187.48993 182.977105 
L 187.677483 183.820164 
L 187.865036 188.867464 
L 188.052589 189.466451 
L 188.240143 193.188213 
L 188.427696 200.896796 
L 188.615248 198.144799 
L 188.990354 184.808139 
L 189.177909 190.232754 
L 189.365462 205.370281 
L 189.553014 202.545828 
L 189.92812 180.575912 
L 190.115675 187.913214 
L 190.303228 204.048845 
L 190.490779 199.392338 
L 190.865885 175.169461 
L 191.053441 182.890402 
L 191.240994 198.872872 
L 191.428545 191.514152 
L 191.80365 168.775179 
L 191.991215 165.632967 
L 192.178756 166.679842 
L 192.366314 158.348517 
L 192.553863 159.73127 
L 192.74142 165.366143 
L 193.116527 181.873103 
L 193.491632 156.531192 
L 193.679187 157.390853 
L 193.866745 156.504486 
L 194.054295 153.944249 
L 194.429398 138.05949 
L 194.8045 130.303854 
L 194.992056 130.693372 
L 195.179612 139.657297 
L 195.367166 142.271075 
L 195.554726 152.654185 
L 195.742274 171.842618 
L 196.304934 159.531393 
L 196.492491 166.388831 
L 196.680043 178.89698 
L 197.055148 169.360524 
L 197.242703 173.670599 
L 197.430255 182.558731 
L 197.617809 184.895185 
L 197.805362 175.861784 
L 197.992915 176.030813 
L 198.368022 200.212047 
L 198.555575 200.123907 
L 198.743128 188.852778 
L 198.930681 187.058157 
L 199.305787 204.780791 
L 199.49334 204.71103 
L 199.680894 198.984776 
L 199.868447 199.459106 
L 200.243553 207.772877 
L 200.431106 209.214485 
L 200.618659 209.374998 
L 200.806212 210.692546 
L 200.993765 202.751614 
L 201.181319 189.693114 
L 201.368871 198.168216 
L 201.556426 217.763431 
L 201.743978 224.018759 
L 201.931532 214.628753 
L 202.119084 198.906828 
L 202.306637 206.338737 
L 202.494192 229.762682 
L 202.681743 237.787613 
L 202.869297 226.283964 
L 203.05685 205.358339 
L 203.244403 209.257831 
L 203.619508 251.765873 
L 203.807063 240.509448 
L 203.994615 214.474427 
L 204.182168 214.154713 
L 204.557274 262.177077 
L 204.744833 257.419752 
L 204.932382 239.179612 
L 205.119937 237.116791 
L 205.495043 268.507306 
L 205.68261 259.08675 
L 205.870153 238.03761 
L 206.057707 243.077483 
L 206.432814 274.286848 
L 206.620374 283.21914 
L 206.995469 265.571909 
L 207.183025 264.306618 
L 207.558133 245.248895 
L 207.745685 246.690153 
L 207.93324 257.303939 
L 208.120794 246.425125 
L 208.308347 212.488941 
L 208.4959 200.968919 
L 208.871007 251.81168 
L 209.05856 254.124655 
L 209.433666 232.740243 
L 209.808772 249.00077 
L 209.996325 238.636331 
L 210.371431 193.38982 
L 210.746537 212.735309 
L 210.934091 211.648491 
L 211.121644 214.437881 
L 211.309197 213.382807 
L 211.871856 175.187162 
L 212.059409 175.287887 
L 212.246963 171.625914 
L 212.622069 151.351787 
L 212.809622 157.616001 
L 213.184728 199.524863 
L 213.559838 147.128949 
L 213.74739 157.455091 
L 213.934944 180.268572 
L 214.122497 174.892756 
L 214.497604 142.36693 
L 214.87271 183.09432 
L 215.060264 173.60013 
L 215.247817 150.807073 
L 215.435371 147.763867 
L 215.810477 188.188261 
L 216.185587 151.224569 
L 216.37314 156.650963 
L 216.560694 178.862536 
L 216.748247 187.755105 
L 217.123356 154.903207 
L 217.310908 164.095945 
L 217.498461 182.668443 
L 217.686016 178.534437 
L 217.873567 160.302278 
L 218.061123 153.742642 
L 218.436228 183.589295 
L 218.811336 152.066889 
L 218.998889 153.811757 
L 219.373995 180.962946 
L 219.749104 146.854487 
L 219.936657 151.658836 
L 220.124212 159.451371 
L 220.311768 158.351844 
L 220.499309 147.528695 
L 220.686874 147.590495 
L 221.061978 179.597563 
L 221.249532 178.388374 
L 221.437082 165.606822 
L 221.62464 162.944488 
L 221.812189 171.406285 
L 221.999744 185.839237 
L 222.187298 182.745178 
L 222.37485 173.175372 
L 222.562405 171.806619 
L 222.749956 180.414626 
L 222.93751 196.87598 
L 223.125064 193.436955 
L 223.312616 181.396396 
L 223.50017 179.506548 
L 223.875275 204.137945 
L 224.06283 199.185044 
L 224.250382 186.883741 
L 224.437936 183.179644 
L 224.625488 191.112425 
L 224.813041 206.034499 
L 225.000595 201.958959 
L 225.188148 189.51705 
L 225.375701 188.424059 
L 225.563255 186.315315 
L 225.750807 180.58325 
L 225.938361 183.109387 
L 226.125914 189.655281 
L 226.313467 191.033625 
L 226.50102 197.30768 
L 226.688573 208.081186 
L 226.876127 205.048707 
L 227.063679 195.630361 
L 227.251233 194.394015 
L 227.438786 192.15732 
L 227.626339 186.921844 
L 227.813892 189.397117 
L 228.001445 195.075557 
L 228.188998 195.317984 
L 228.376551 202.186374 
L 228.564103 214.754815 
L 228.751658 210.208623 
L 228.939211 197.74885 
L 229.126764 196.009373 
L 229.314317 191.538499 
L 229.50187 182.162927 
L 229.689424 185.874664 
L 229.876976 194.87562 
L 230.06453 195.968925 
L 230.252083 199.015261 
L 230.439636 205.1007 
L 230.627189 202.649854 
L 230.814742 196.896129 
L 231.002295 195.30658 
L 231.189848 200.517293 
L 231.377401 209.325732 
L 231.564955 206.137792 
L 231.752508 197.250418 
L 232.315167 192.422829 
L 232.50272 193.215937 
L 232.690273 195.554364 
L 232.877827 195.50995 
L 233.06538 201.184303 
L 233.252932 211.269133 
L 233.440486 207.383073 
L 233.628039 197.251477 
L 233.815592 195.290089 
L 234.003145 195.09237 
L 234.190699 193.85209 
L 234.378252 194.27273 
L 234.565805 195.431208 
L 234.753358 195.400725 
L 234.940911 199.980151 
L 235.128464 207.455238 
L 235.316018 204.206978 
L 235.50357 196.503713 
L 235.878677 193.357171 
L 236.06623 190.071763 
L 236.253783 191.43472 
L 236.441336 194.744817 
L 236.628889 195.227174 
L 237.003995 208.070249 
L 237.191549 204.364113 
L 237.379102 196.217045 
L 237.566655 194.647008 
L 237.941761 201.728923 
L 238.129315 199.600749 
L 238.316868 195.375128 
L 238.504421 194.68786 
L 238.879526 211.882766 
L 239.06708 206.175487 
L 239.254633 195.682258 
L 239.442186 193.730143 
L 239.817292 175.887008 
L 240.004846 181.661403 
L 240.192399 192.623117 
L 240.379952 194.659869 
L 240.755057 215.708714 
L 240.942612 207.658076 
L 241.130164 194.4837 
L 241.317718 192.89188 
L 241.692824 196.899492 
L 241.880377 195.495656 
L 242.06793 193.04378 
L 242.255483 192.373135 
L 242.63059 188.388076 
L 242.818143 189.608661 
L 243.005696 191.762662 
L 243.193249 192.368913 
L 243.568355 203.259977 
L 243.755909 199.240774 
L 243.943462 192.292234 
L 244.131015 191.564367 
L 244.506121 210.948749 
L 245.068781 191.414809 
L 245.443887 203.424129 
L 245.818993 191.888292 
L 246.006546 192.666738 
L 246.381652 209.592042 
L 246.756759 192.388848 
L 246.944312 191.877021 
L 247.319418 193.865678 
L 247.694524 192.208839 
L 247.882078 191.103508 
L 248.257184 181.193999 
L 248.819843 194.33243 
L 249.194949 213.111478 
L 249.570056 193.438006 
L 249.757609 193.097306 
L 250.132715 200.937713 
L 250.507822 192.899812 
L 250.695375 193.629654 
L 251.070481 202.825383 
L 252.008246 179.533088 
L 252.758459 208.20186 
L 252.946012 218.359911 
L 253.321119 193.383404 
L 253.508672 193.589196 
L 253.883778 201.846213 
L 254.258884 192.386404 
L 254.446437 193.074735 
L 254.821544 197.950452 
L 255.19665 191.901294 
L 255.384203 195.321295 
L 255.571756 206.592242 
L 255.759309 210.136374 
L 256.134416 192.046489 
L 256.321969 193.497808 
L 256.509522 197.027034 
L 256.697075 197.896105 
L 257.072181 192.541171 
L 257.259734 193.615191 
L 257.447288 196.389352 
L 257.634841 197.130208 
L 258.009947 192.973298 
L 258.1975 194.14466 
L 258.385053 197.115435 
L 258.572606 197.813491 
L 258.947713 193.424297 
L 259.135266 193.653208 
L 259.322819 194.224895 
L 259.510372 194.385929 
L 259.885478 193.723599 
L 260.073032 198.685735 
L 260.260585 210.789133 
L 260.448138 212.870014 
L 260.823244 194.388338 
L 261.010797 190.551552 
L 261.19835 181.83781 
L 261.385903 180.759736 
L 261.76101 194.403085 
L 261.948563 196.031605 
L 262.136116 199.459657 
L 262.323669 199.93672 
L 262.698776 194.593119 
L 262.886329 200.965139 
L 263.073882 216.182136 
L 263.261435 217.438701 
L 263.636541 194.923028 
L 263.824094 195.692949 
L 264.011647 197.065088 
L 264.199201 197.084146 
L 264.574307 195.140879 
L 264.76186 190.107521 
L 264.949413 180.288974 
L 265.136966 180.566883 
L 265.512073 194.88322 
L 265.699626 199.684864 
L 265.887179 210.18822 
L 266.074732 210.52446 
L 266.449838 195.154684 
L 266.637391 200.035521 
L 266.824944 209.480061 
L 267.012498 208.433159 
L 267.387604 195.097768 
L 267.575157 193.337056 
L 267.76271 190.232595 
L 267.950263 190.743351 
L 268.32537 195.112887 
L 268.512923 196.505857 
L 268.700476 198.960242 
L 268.888029 198.567873 
L 269.263135 195.024976 
L 269.450688 202.245407 
L 269.638241 213.994718 
L 269.825795 210.748998 
L 270.013348 198.966018 
L 270.576007 188.607845 
L 270.76356 189.753698 
L 270.951113 193.559227 
L 271.138667 194.895632 
L 271.513773 191.242788 
L 271.701326 191.820817 
L 271.888879 194.029963 
L 272.076432 194.666975 
L 272.263985 199.226507 
L 272.451539 206.78573 
L 272.639092 204.725862 
L 272.826645 197.212616 
L 273.014198 194.590032 
L 273.389304 204.160652 
L 273.576857 202.093437 
L 273.764411 196.662445 
L 273.951964 195.429878 
L 274.32707 206.108531 
L 274.514623 203.348548 
L 274.702176 197.803193 
L 275.077283 196.064843 
L 275.264836 195.348794 
L 275.452389 196.14359 
L 275.639942 197.476401 
L 275.827495 197.800994 
L 276.202601 188.733904 
L 276.390155 191.740919 
L 276.577708 197.485098 
L 276.765261 199.248952 
L 277.140367 209.837559 
L 277.32792 207.106038 
L 277.515473 201.55811 
L 277.703026 200.976421 
L 278.078133 217.262705 
L 278.828345 193.371147 
L 279.015898 183.330377 
L 279.578558 206.493924 
L 279.953664 209.715326 
L 280.141217 209.539644 
L 280.32877 209.026712 
L 280.516324 209.316263 
L 280.89143 198.3628 
L 281.266536 210.437995 
L 281.454089 215.830783 
L 281.641643 208.978652 
L 281.829196 195.685616 
L 282.391855 216.224017 
L 282.766962 202.961819 
L 283.329621 221.932073 
L 283.704727 196.740461 
L 284.079834 226.521315 
L 284.267387 228.670692 
L 284.642494 207.593409 
L 285.017601 226.081533 
L 285.205154 221.004007 
L 285.392707 206.733566 
L 285.58026 202.108879 
L 285.767813 211.035718 
L 285.955367 213.612584 
L 286.14292 207.094185 
L 286.330473 192.455198 
L 286.518026 188.180099 
L 286.705579 197.792226 
L 286.893132 198.829568 
L 287.080685 199.208839 
L 287.268238 210.960658 
L 287.455791 211.634395 
L 288.018452 174.829095 
L 288.206003 174.648873 
L 288.581111 173.600585 
L 288.95622 170.376179 
L 289.14377 176.208898 
L 289.331323 171.701762 
L 289.706431 169.587181 
L 289.893986 170.33327 
L 290.081538 179.099693 
L 290.269089 174.632017 
L 290.456645 174.922073 
L 290.644198 177.328811 
L 291.019305 188.557215 
L 291.206857 180.640134 
L 291.394412 178.749363 
L 291.581965 181.761599 
L 291.769518 187.165028 
L 291.957072 188.626875 
L 292.144623 182.438968 
L 292.332178 185.260047 
L 292.707284 208.830057 
L 292.894837 207.907822 
L 293.08239 195.732944 
L 293.269943 193.66464 
L 293.645049 203.424017 
L 293.832602 204.128183 
L 294.020155 200.02193 
L 294.207709 200.062446 
L 294.395262 197.189683 
L 294.582815 185.564648 
L 294.770368 185.952783 
L 295.145474 206.806329 
L 295.333027 202.337505 
L 295.52058 191.813401 
L 295.708133 194.915102 
L 295.895686 207.498957 
L 296.08324 209.314985 
L 296.270793 207.446151 
L 296.458346 207.312327 
L 296.645899 207.31944 
L 296.833452 207.935372 
L 297.021005 208.101108 
L 297.208558 208.458747 
L 297.396112 209.163367 
L 297.583665 209.017654 
L 297.771218 208.215801 
L 297.958771 208.027427 
L 298.146324 204.656967 
L 298.333877 198.209912 
L 298.52143 199.51336 
L 298.708983 206.211584 
L 298.896537 208.616835 
L 299.08409 200.237154 
L 299.271643 186.722552 
L 299.459196 191.353949 
L 299.646749 205.387273 
L 299.834302 207.914831 
L 300.209408 192.484136 
L 300.396962 196.841763 
L 300.584515 205.412954 
L 300.959621 208.218221 
L 301.147174 210.79587 
L 301.334727 209.164683 
L 301.897387 197.893563 
L 302.08494 188.927173 
L 302.272493 193.329485 
L 302.460046 202.764488 
L 302.647599 204.210879 
L 303.022705 195.383374 
L 303.210259 197.367887 
L 303.397812 202.272209 
L 303.585365 203.703638 
L 303.960471 222.234724 
L 304.148024 216.836021 
L 304.335577 205.006783 
L 304.710683 197.315104 
L 304.898237 190.954542 
L 305.08579 194.640269 
L 305.273343 202.112892 
L 305.460896 203.672314 
L 305.836002 198.455837 
L 306.023555 200.111055 
L 306.211109 203.504267 
L 306.398662 204.753614 
L 306.773768 210.758693 
L 306.961321 209.504721 
L 307.148874 206.825661 
L 307.336427 205.86895 
L 307.711534 195.128859 
L 307.899087 199.680231 
L 308.08664 207.925802 
L 308.274193 209.782612 
L 308.649299 203.22841 
L 308.836852 206.245296 
L 309.024406 211.738596 
L 309.211959 212.407147 
L 309.587065 197.820993 
L 309.774618 203.247378 
L 309.962171 213.994745 
L 310.149724 215.695842 
L 310.524831 195.561351 
L 310.712384 202.799833 
L 310.899937 217.039693 
L 311.08749 219.190273 
L 311.462597 191.621051 
L 311.65015 201.646577 
L 311.837703 220.488357 
L 312.025256 224.678391 
L 312.400362 214.767883 
L 312.587915 219.423476 
L 312.775468 227.645253 
L 312.963022 227.535656 
L 313.338128 193.948577 
L 313.525681 208.429936 
L 313.713234 231.829766 
L 313.900788 233.394508 
L 314.275895 196.952179 
L 314.651001 236.613566 
L 314.838554 231.422228 
L 315.213661 189.985534 
L 315.588767 231.689804 
L 315.776321 224.951599 
L 315.963874 205.37729 
L 316.151427 199.933685 
L 316.526533 227.270186 
L 316.714086 225.476168 
L 316.901639 220.517425 
L 317.089193 218.976088 
L 317.464299 224.132248 
L 317.651852 218.718504 
L 317.839405 204.394775 
L 318.026958 200.40169 
L 318.402065 220.744002 
L 318.589618 214.867067 
L 318.777171 197.78542 
L 318.964724 193.967097 
L 319.33983 218.326449 
L 319.527383 210.167149 
L 319.714937 193.68011 
L 319.90249 194.359967 
L 320.090043 209.979705 
L 320.277596 216.162667 
L 320.652702 208.390075 
L 320.840255 208.773424 
L 321.027808 212.733797 
L 321.215362 213.928417 
L 321.590468 194.413371 
L 321.778021 197.269061 
L 321.965574 208.934177 
L 322.153127 211.659528 
L 322.528234 188.078664 
L 322.715787 194.893563 
L 322.90334 207.975423 
L 323.090893 210.619572 
L 323.465999 208.312763 
L 323.653552 208.440381 
L 323.841106 209.280223 
L 324.028659 208.602598 
L 324.403765 194.236099 
L 324.591318 197.880305 
L 324.778871 205.602087 
L 324.966424 208.594476 
L 325.341531 227.024012 
L 325.529084 220.804783 
L 325.716637 209.507933 
L 326.091743 201.40802 
L 326.279296 195.985842 
L 326.466849 198.504018 
L 326.841956 207.449309 
L 327.217062 175.611654 
L 327.404616 184.730342 
L 327.592168 201.187054 
L 327.779721 205.968127 
L 328.154828 229.662729 
L 328.717487 202.518083 
L 329.092593 200.942906 
L 329.280146 201.178497 
L 329.4677 201.670446 
L 329.655253 201.42049 
L 330.030359 197.343296 
L 330.217912 198.312479 
L 330.405465 200.37313 
L 330.593018 199.471554 
L 330.968125 179.523837 
L 331.343231 197.71488 
L 331.530784 198.381438 
L 331.90589 196.504632 
L 332.280997 196.746662 
L 332.46855 195.805771 
L 332.843656 189.958307 
L 333.218762 194.127395 
L 333.406315 194.245716 
L 333.781422 217.756321 
L 334.344081 190.308715 
L 334.719187 212.635814 
L 335.094294 190.661781 
L 335.281847 190.519239 
L 335.656953 191.367469 
L 336.03206 189.678708 
L 336.219613 189.371337 
L 336.594719 188.348196 
L 336.782272 188.878792 
L 336.969825 188.273241 
L 337.157379 190.753202 
L 337.532485 211.954801 
L 337.907591 187.586354 
L 338.095144 189.883075 
L 338.282697 199.831055 
L 338.47025 202.984465 
L 338.845357 188.985111 
L 339.595569 192.210815 
L 339.783122 191.863243 
L 339.970675 195.401897 
L 340.158228 206.303624 
L 340.345782 209.097678 
L 340.720888 195.639544 
L 340.908441 201.099844 
L 341.095994 214.206357 
L 341.283547 215.707055 
L 341.4711 204.572644 
L 341.846206 199.119945 
L 342.03376 188.238323 
L 342.221313 187.349295 
L 342.596419 206.138218 
L 342.783972 204.988709 
L 342.971525 199.56802 
L 343.159078 199.590862 
L 343.534185 212.282194 
L 343.721738 212.125003 
L 343.909291 201.083551 
L 344.096844 200.078872 
L 344.47195 217.575346 
L 344.659504 213.226326 
L 344.847056 203.56779 
L 345.03461 205.753586 
L 345.409716 224.902804 
L 345.597271 224.259756 
L 345.784822 214.295296 
L 345.972376 217.627376 
L 346.159929 225.454318 
L 346.347482 227.707494 
L 346.535037 223.824198 
L 346.722589 212.421465 
L 347.097695 223.00607 
L 347.285248 222.340331 
L 347.660356 200.511688 
L 348.223014 221.111397 
L 348.598122 200.82051 
L 348.973227 219.554438 
L 349.16078 217.996617 
L 349.535887 196.624343 
L 349.910993 216.88852 
L 350.098546 217.011682 
L 350.473653 197.069774 
L 350.848759 217.353794 
L 351.036312 214.773461 
L 351.411419 203.259415 
L 351.786525 215.896555 
L 351.974078 214.754878 
L 352.349184 195.834694 
L 352.72429 216.023279 
L 352.911844 211.890878 
L 353.28695 198.880664 
L 353.662056 213.61349 
L 353.84961 213.237706 
L 354.037163 207.47943 
L 354.224716 208.536708 
L 354.412269 216.342591 
L 354.599822 211.377466 
L 354.787375 209.624954 
L 354.974928 220.177951 
L 355.162482 219.846443 
L 355.537588 201.983499 
L 355.725141 198.577382 
L 355.912694 187.28253 
L 356.100247 184.999073 
L 356.2878 194.432323 
L 356.662907 199.86424 
L 356.85046 209.284226 
L 357.038013 209.055851 
L 357.413119 191.211654 
L 357.600673 191.993468 
L 357.788226 194.155865 
L 357.975779 193.359761 
L 358.350885 184.837341 
L 358.538438 188.154128 
L 358.725991 199.804796 
L 358.913545 200.108883 
L 359.288651 174.825697 
L 359.476204 177.789879 
L 359.663757 187.783829 
L 359.85131 188.110719 
L 360.226416 165.083864 
L 360.41397 169.98347 
L 360.601522 188.542329 
L 360.789076 194.231226 
L 361.164182 154.363817 
L 361.351736 153.060279 
L 361.726843 173.584728 
L 362.101949 136.616609 
L 362.289507 139.05784 
L 362.477057 155.401026 
L 362.664613 160.801517 
L 363.039718 127.76482 
L 363.227296 128.44279 
L 363.41483 144.353695 
L 363.602382 144.714344 
L 363.789936 137.385518 
L 363.977489 142.1577 
L 364.352597 168.529074 
L 364.727703 143.296107 
L 365.102809 190.548092 
L 365.290363 182.693584 
L 365.477916 155.09267 
L 365.665468 145.530349 
L 366.040574 188.610072 
L 366.228128 185.820846 
L 366.41568 164.433857 
L 366.603234 158.862017 
L 367.165893 197.813091 
L 367.353446 184.723822 
L 367.540999 181.684956 
L 367.916105 194.932479 
L 368.103659 196.056084 
L 368.291212 192.602755 
L 368.478765 191.899575 
L 369.041424 203.031057 
L 369.228977 198.73852 
L 369.416531 197.484924 
L 369.604084 198.19561 
L 369.791637 198.38358 
L 370.166743 200.046809 
L 370.354296 200.046342 
L 370.541849 198.132299 
L 370.729403 195.027596 
L 370.916956 194.12703 
L 371.104509 194.740194 
L 371.479615 193.340749 
L 371.667168 193.4193 
L 371.854721 191.21104 
L 372.229828 185.25415 
L 372.417381 191.308888 
L 372.604934 201.935177 
L 372.792487 197.647283 
L 373.167593 175.799983 
L 373.355146 187.574721 
L 373.542699 207.943982 
L 373.730253 200.696368 
L 374.105359 165.158091 
L 374.480465 205.861975 
L 374.668019 194.130793 
L 374.855571 162.926513 
L 375.043125 154.0028 
L 375.418231 183.823002 
L 375.605785 171.988137 
L 375.793338 151.347631 
L 375.980891 149.457537 
L 376.355999 192.899441 
L 376.731109 153.048863 
L 376.918662 160.960471 
L 377.106215 188.556427 
L 377.293768 194.601787 
L 377.668875 162.576106 
L 377.856428 174.340729 
L 378.043981 198.355293 
L 378.231534 202.312124 
L 378.606641 181.456916 
L 378.794194 187.973643 
L 378.981747 199.979831 
L 379.1693 204.144954 
L 379.356853 199.531821 
L 379.544406 199.622427 
L 379.731959 197.692619 
L 379.919512 186.28853 
L 380.107065 187.174751 
L 380.482172 211.104215 
L 380.669725 204.191248 
L 380.857278 187.562678 
L 381.044831 188.877725 
L 381.232384 204.009974 
L 381.60749 214.002899 
L 381.795043 224.203458 
L 381.982597 222.858907 
L 382.17015 212.17795 
L 382.545256 202.594911 
L 382.732809 190.158561 
L 382.920362 190.270104 
L 383.295469 205.31944 
L 383.483022 203.32907 
L 383.670575 199.530494 
L 383.858128 199.63817 
L 384.233234 203.343985 
L 384.420787 199.592267 
L 384.60834 192.837758 
L 384.795894 193.894373 
L 384.983447 199.331262 
L 385.171 201.188582 
L 385.358553 196.566443 
L 385.546106 189.142195 
L 385.733659 191.079839 
L 385.921212 197.514422 
L 386.108766 198.298457 
L 386.296319 204.07732 
L 386.483872 215.268367 
L 386.671425 212.004894 
L 386.858978 200.519289 
L 387.421637 190.890264 
L 387.609191 191.244831 
L 387.796744 194.040079 
L 387.984297 194.064584 
L 388.17185 197.218571 
L 388.359403 204.205224 
L 388.546956 202.080008 
L 388.922063 190.9355 
L 389.109616 197.768714 
L 389.297169 211.872346 
L 389.484722 207.158279 
L 389.672275 194.134328 
L 389.859828 191.280087 
L 390.234934 192.35997 
L 390.422488 192.245186 
L 390.797594 191.675641 
L 390.985147 194.556936 
L 391.1727 199.277038 
L 391.360253 197.353264 
L 391.73536 191.392691 
L 392.110466 213.047429 
L 392.298019 205.739169 
L 392.485572 194.002244 
L 392.673125 192.644629 
L 393.048232 199.986717 
L 393.610891 193.24815 
L 393.985997 190.908407 
L 394.548657 193.525169 
L 394.923763 198.909888 
L 395.486422 193.609932 
L 395.861529 209.024186 
L 396.236635 194.74374 
L 396.424188 194.223455 
L 396.799294 202.820876 
L 397.174401 194.711554 
L 397.361954 194.692864 
L 397.73706 189.29237 
L 398.487273 198.094954 
L 398.487273 198.094954 
" style="fill:none;stroke:#1f77b4;stroke-linecap:square;stroke-width:1.5;"/>
   </g>
   <g id="line2d_16">
    <path clip-path="url(#p3b2e81818e)" d="M 73.832727 199.943588 
L 74.221136 199.900198 
L 74.609545 190.159479 
L 74.997954 192.883741 
L 75.386363 198.447762 
L 75.774772 198.623932 
L 76.16318 197.901929 
L 76.551588 186.657918 
L 76.939997 199.948562 
L 77.328406 199.605727 
L 77.716815 200.034251 
L 78.299429 199.825204 
L 78.493633 199.710958 
L 78.882042 200.684174 
L 79.464655 194.449878 
L 79.65886 191.935833 
L 80.047269 199.315276 
L 80.435677 194.728331 
L 80.824086 198.897259 
L 81.212495 199.272309 
L 81.600904 200.293429 
L 82.377722 199.553048 
L 82.766131 199.918987 
L 83.15454 199.965429 
L 83.542949 199.509155 
L 83.931358 199.587273 
L 84.319767 199.089552 
L 84.708176 199.492861 
L 85.096585 194.562842 
L 85.484992 193.32272 
L 85.873401 196.706092 
L 86.261809 192.621653 
L 86.650218 195.983071 
L 87.038625 191.060771 
L 87.427033 193.122401 
L 87.815442 201.327609 
L 88.203851 199.577065 
L 88.59226 200.261316 
L 88.980669 200.052631 
L 89.369078 199.428135 
L 89.757487 194.305766 
L 89.951691 194.234806 
L 90.145894 194.340324 
L 90.534303 199.914961 
L 90.922712 200.013603 
L 91.311121 199.491991 
L 91.69953 196.202094 
L 92.087939 196.931634 
L 92.476348 198.663297 
L 92.864754 191.121594 
L 93.253163 196.053695 
L 94.029979 193.975636 
L 94.418388 199.066211 
L 94.806795 194.110379 
L 95.195204 197.232443 
L 95.583612 194.935756 
L 95.97202 194.992537 
L 96.360429 198.561394 
L 96.748836 191.50833 
L 97.137245 198.593004 
L 97.525649 188.728237 
L 98.302465 200.142078 
L 98.690874 199.07972 
L 99.079283 196.134825 
L 99.467692 199.704865 
L 99.856101 199.491729 
L 100.24451 200.153796 
L 100.632919 199.238543 
L 101.021327 197.762457 
L 101.409736 201.448882 
L 101.798142 193.427475 
L 102.380756 203.669779 
L 102.574959 207.891593 
L 103.351775 191.919307 
L 103.74014 168.503073 
L 104.128299 129.461596 
L 104.516703 188.435681 
L 104.904631 108.901774 
L 105.293009 175.34912 
L 105.681364 170.561761 
L 105.875568 169.395865 
L 106.069715 169.222012 
L 106.458124 198.628328 
L 106.846529 192.786632 
L 107.234938 201.740894 
L 107.623347 199.970124 
L 108.011756 199.736518 
L 108.59437 199.989628 
L 108.788574 199.979844 
L 109.176983 199.273389 
L 109.565392 200.05295 
L 109.953801 200.101927 
L 110.34221 199.734167 
L 110.730619 200.386956 
L 111.119028 200.26173 
L 111.507437 199.254727 
L 111.895846 199.692743 
L 112.284255 199.671223 
L 112.672663 198.777379 
L 113.255277 199.916973 
L 113.643686 200.339829 
L 113.83789 200.45082 
L 114.614708 199.298267 
L 115.391526 200.222434 
L 115.779935 200.239801 
L 116.362549 199.847699 
L 116.556753 199.80908 
L 117.139367 199.994755 
L 118.110389 199.995701 
L 118.887207 199.766 
L 119.46982 200.286532 
L 119.664025 200.488945 
L 120.246638 199.874808 
L 120.440843 199.641716 
L 120.829252 199.694455 
L 121.60607 200.618349 
L 122.382887 199.684982 
L 122.771296 199.771047 
L 123.548114 200.581549 
L 123.936523 200.019566 
L 124.713341 199.853344 
L 125.295955 200.401178 
L 125.490159 200.488806 
L 126.072773 199.875044 
L 126.266977 199.768053 
L 126.655386 199.842397 
L 127.432204 200.549929 
L 127.820613 199.998099 
L 128.209022 200.148881 
L 128.597431 199.946876 
L 128.98584 200.194293 
L 129.374249 200.686183 
L 129.762658 200.021961 
L 130.151067 200.590683 
L 130.539476 200.011754 
L 130.927885 200.168525 
L 131.316293 200.524943 
L 131.704702 199.995722 
L 132.093111 200.356843 
L 132.48152 199.989883 
L 133.064134 199.990838 
L 133.646747 200.00755 
L 134.035156 200.894904 
L 134.423564 202.782749 
L 134.811973 200.059294 
L 135.588791 200.013792 
L 135.9772 200.27807 
L 136.365609 199.894613 
L 136.754018 200.240013 
L 137.530836 199.930366 
L 137.919245 200.103799 
L 138.696063 199.879436 
L 139.084472 200.041365 
L 139.472881 199.966188 
L 139.86129 200.412756 
L 140.443903 199.904744 
L 140.832312 199.86861 
L 142.191744 199.978072 
L 142.580153 199.885007 
L 142.968562 200.014453 
L 143.939584 199.833726 
L 144.327993 200.054761 
L 144.910606 200.505955 
L 145.49322 199.788057 
L 145.687424 199.686551 
L 146.464242 200.202528 
L 146.852651 199.75321 
L 147.24106 200.051206 
L 147.629469 201.542667 
L 148.017878 200.349197 
L 148.406287 199.833107 
L 148.794696 199.998423 
L 149.183105 199.933897 
L 149.571514 200.087862 
L 149.959923 199.969434 
L 150.348331 200.233012 
L 150.73674 199.973425 
L 151.125149 200.035626 
L 151.513558 200.68241 
L 152.290376 199.218738 
L 152.484581 199.233363 
L 152.678785 199.396013 
L 153.261398 202.153431 
L 153.455602 202.581171 
L 153.844011 199.507432 
L 154.038215 199.502341 
L 154.23242 200.910521 
L 154.62079 218.270935 
L 155.00913 222.902404 
L 155.397523 212.875678 
L 155.785791 232.181803 
L 156.174189 210.448286 
L 156.562542 220.658295 
L 156.950919 215.871294 
L 157.145123 215.252048 
L 157.3393 215.411344 
L 157.727633 223.297224 
L 158.116036 207.138828 
L 158.504425 211.837026 
L 158.892831 205.176163 
L 159.475443 200.944765 
L 159.669648 201.406346 
L 160.058021 216.59759 
L 160.252225 218.295699 
L 160.446379 218.934372 
L 160.640584 213.671146 
L 160.834777 212.802988 
L 161.222844 247.028978 
L 161.61125 209.178047 
L 161.999222 253.689954 
L 162.387573 222.530197 
L 162.775765 239.799905 
L 162.96997 242.160583 
L 163.163907 242.019571 
L 163.55226 221.784502 
L 163.940454 237.06071 
L 164.328804 219.458269 
L 164.717188 211.45583 
L 165.105597 197.795787 
L 165.494005 200.442248 
L 165.882414 199.688944 
L 166.270823 200.009754 
L 167.047641 201.260371 
L 167.824459 200.427508 
L 168.407072 199.970105 
L 168.989686 199.55212 
L 169.572299 199.26323 
L 170.154912 199.15589 
L 171.125935 199.998263 
L 171.514344 199.858794 
L 171.708548 199.706593 
L 172.096957 198.939164 
L 172.485364 196.247951 
L 172.679569 193.761027 
L 172.873763 187.752909 
L 173.261832 155.994643 
L 173.650209 183.836433 
L 174.038486 171.285037 
L 174.232691 174.452382 
L 174.426814 175.566609 
L 174.621018 169.229937 
L 174.815024 159.211989 
L 175.202364 125.541523 
L 175.590755 185.468292 
L 175.97884 158.476376 
L 176.561405 192.980075 
L 176.755609 199.599994 
L 177.144016 197.021085 
L 177.532425 199.391684 
L 177.920834 200.008136 
L 178.309243 200.984479 
L 178.503448 201.114054 
L 178.697652 200.990056 
L 179.086061 199.49047 
L 179.474469 200.733692 
L 179.862878 198.867663 
L 180.057083 198.482523 
L 180.251287 198.35589 
L 180.639696 199.688358 
L 181.028104 198.186834 
L 181.416513 199.712041 
L 181.999126 198.767995 
L 182.19333 198.701618 
L 182.581739 199.88796 
L 182.970148 199.764375 
L 183.358557 199.92124 
L 183.941171 199.902445 
L 184.523784 199.932115 
L 184.912193 199.646773 
L 185.300602 199.789528 
L 185.689011 200.042154 
L 186.07742 199.817847 
L 187.242647 199.99726 
L 187.631056 198.7432 
L 188.407874 199.779506 
L 188.796283 199.560198 
L 188.990487 199.806822 
L 189.184691 199.78475 
L 189.5731 198.471748 
L 189.961509 199.41662 
L 190.155713 200.129764 
L 190.349918 200.29719 
L 190.544122 198.849193 
L 190.738326 198.270718 
L 191.126734 201.56157 
L 191.709348 198.884415 
L 191.903552 198.981224 
L 192.097756 202.263159 
L 192.291957 200.996756 
L 192.680259 177.211747 
L 193.068645 186.958764 
L 193.26285 181.029427 
L 193.45696 169.435956 
L 193.84426 126.722078 
L 194.038464 151.661119 
L 194.232508 155.682261 
L 194.617592 80.367692 
L 195.005904 168.096022 
L 195.39301 118.674506 
L 195.587214 124.083888 
L 195.780437 122.415712 
L 195.974642 109.033611 
L 196.166915 106.936667 
L 196.554577 140.02621 
L 196.748781 142.743488 
L 196.942356 155.023826 
L 197.330758 204.757734 
L 197.719167 198.984619 
L 198.107575 197.995957 
L 198.301779 197.804399 
L 198.495983 197.333425 
L 198.690187 196.371763 
L 198.884388 196.237876 
L 199.272797 198.5748 
L 199.467001 198.919113 
L 199.661205 198.998504 
L 199.85541 198.575791 
L 200.049614 198.628795 
L 200.438023 200.242577 
L 200.826432 200.49094 
L 201.020636 200.7704 
L 201.214841 200.811497 
L 201.603249 200.095006 
L 201.797454 200.055865 
L 201.991658 200.426801 
L 202.185863 201.598575 
L 202.380066 202.063045 
L 202.768475 200.748 
L 203.156883 201.835746 
L 203.351088 201.762455 
L 203.545292 201.493774 
L 203.739496 200.861887 
L 203.933701 199.42334 
L 204.127905 196.413879 
L 204.322103 202.778245 
L 204.710141 238.920268 
L 204.904346 231.608527 
L 205.098396 233.983111 
L 205.680094 283.771475 
L 205.87251 284.60798 
L 206.066715 265.074768 
L 206.260315 263.394839 
L 206.454519 287.46275 
L 206.646497 295.488 
L 206.840701 285.980661 
L 207.033461 286.683135 
L 207.227666 291.393886 
L 207.419988 285.249572 
L 207.807412 266.133355 
L 208.001616 266.33706 
L 208.194819 258.763697 
L 208.389023 241.463675 
L 208.582994 234.889075 
L 208.777198 242.756934 
L 208.970888 236.565849 
L 209.359295 197.922948 
L 209.747703 203.158469 
L 209.941908 207.00787 
L 210.136093 208.159059 
L 210.524496 203.870593 
L 210.7187 201.110118 
L 210.912905 200.168991 
L 211.107109 201.392535 
L 211.301312 201.579474 
L 211.689721 199.058734 
L 212.078127 195.772539 
L 212.272331 195.2315 
L 212.46653 195.569598 
L 212.854938 198.867848 
L 213.049143 200.980662 
L 213.243346 189.884742 
L 213.631136 148.754875 
L 213.825341 150.459744 
L 214.019004 141.493401 
L 214.213209 120.117838 
L 214.405532 123.102295 
L 214.599736 153.124911 
L 214.793714 157.698216 
L 214.987919 135.190333 
L 215.180795 137.529865 
L 215.56911 178.270199 
L 215.763314 175.250136 
L 215.957359 180.201973 
L 216.345768 200.424656 
L 216.928381 199.075414 
L 217.122585 197.851919 
L 217.31679 195.848312 
L 217.510988 187.793995 
L 217.899138 156.281393 
L 218.093342 135.226751 
L 218.286244 134.566834 
L 218.480448 154.799253 
L 218.674368 150.957236 
L 218.868572 123.653399 
L 219.060956 117.106076 
L 219.25516 129.119179 
L 219.448376 119.518705 
L 219.64258 92.697884 
L 219.833648 105.767984 
L 220.027852 150.350318 
L 220.221849 159.850399 
L 220.416054 141.18814 
L 220.609228 149.309113 
L 220.803432 179.509987 
L 220.997626 183.366272 
L 221.19183 165.918612 
L 221.385634 168.396508 
L 221.579839 186.897835 
L 221.774038 192.99198 
L 221.968243 189.259901 
L 222.162412 189.609419 
L 222.939222 201.455975 
L 223.327631 197.595045 
L 223.716032 193.681781 
L 223.910236 193.191571 
L 224.10443 194.010671 
L 224.68704 199.077053 
L 224.881245 199.784284 
L 225.075449 199.700543 
L 225.463858 198.929719 
L 225.852267 197.340384 
L 226.046469 197.96272 
L 226.240674 199.827973 
L 226.434878 200.389192 
L 226.629083 199.900042 
L 227.405898 194.739766 
L 227.600095 195.606208 
L 227.988504 199.469666 
L 228.182708 200.370459 
L 228.376913 200.265633 
L 228.765321 198.740853 
L 228.959526 198.368272 
L 229.15373 198.575676 
L 229.542139 200.033099 
L 229.736343 201.072458 
L 229.930547 198.965048 
L 230.318944 191.983344 
L 230.513148 190.789496 
L 230.707331 193.353713 
L 230.901535 198.929204 
L 231.095739 200.817559 
L 231.289944 199.835126 
L 231.484148 199.752424 
L 231.678353 200.355137 
L 231.872557 198.362107 
L 232.066762 194.502421 
L 232.260955 192.86115 
L 232.455159 192.685962 
L 232.649351 194.89426 
L 232.843556 199.066087 
L 233.03776 200.496521 
L 233.231965 199.811919 
L 233.426169 199.821929 
L 233.620374 200.351689 
L 233.814578 198.932306 
L 234.008782 196.112045 
L 234.202981 195.246648 
L 234.397186 195.733552 
L 234.979795 200.668991 
L 235.174 199.947171 
L 235.368204 199.678091 
L 235.562409 199.750161 
L 235.756613 198.717086 
L 235.950818 196.899189 
L 236.145019 196.312641 
L 236.72763 197.119782 
L 236.921833 196.487651 
L 237.116037 195.163643 
L 237.310235 195.369254 
L 237.698642 197.422297 
L 238.281255 198.520114 
L 238.863868 200.170222 
L 239.058072 199.581279 
L 239.252277 199.358654 
L 239.446481 199.409773 
L 239.640686 196.090081 
L 239.83489 190.433806 
L 240.029063 189.400879 
L 240.417459 194.001246 
L 240.611663 197.015401 
L 240.805867 197.89576 
L 241.000072 197.228141 
L 241.194274 197.847283 
L 241.388479 199.361188 
L 241.582683 198.651353 
L 241.776888 196.384358 
L 241.971088 196.475852 
L 242.165292 198.22248 
L 242.359496 196.224712 
L 242.942087 184.861262 
L 243.136231 187.46627 
L 243.330435 194.069556 
L 243.524638 189.109789 
L 243.718842 176.177075 
L 243.912858 176.381528 
L 244.301241 190.660509 
L 244.495446 193.071786 
L 244.689642 193.379752 
L 244.883847 192.22687 
L 245.078036 193.700376 
L 245.272241 196.968078 
L 245.466445 196.860077 
L 245.660649 194.472955 
L 245.854844 194.262852 
L 246.24325 196.324187 
L 246.631657 197.826018 
L 246.825862 198.843926 
L 247.020066 199.161693 
L 247.21427 199.000662 
L 247.408475 199.18431 
L 247.796884 199.877112 
L 247.991088 200.048871 
L 248.185293 198.838457 
L 248.767902 192.735421 
L 248.962093 193.893459 
L 249.350501 198.84627 
L 249.544706 199.605846 
L 249.73891 199.899556 
L 250.127319 199.933391 
L 250.321523 200.019606 
L 250.904137 199.824232 
L 251.098341 199.929959 
L 251.292546 199.755782 
L 251.680955 198.841701 
L 251.875159 198.164907 
L 252.069363 198.096094 
L 252.263567 198.368652 
L 252.457771 197.822533 
L 252.651976 196.758202 
L 252.846177 196.443338 
L 253.040382 196.651912 
L 253.234584 195.470259 
L 253.428789 193.369044 
L 253.622981 194.604643 
L 253.817185 197.988707 
L 254.01139 198.240999 
L 254.205594 196.490337 
L 254.399795 196.587307 
L 254.593999 197.858144 
L 254.788203 196.03674 
L 255.176594 189.497132 
L 255.370799 187.142097 
L 255.564961 190.149749 
L 255.759166 196.699417 
L 255.95337 197.556266 
L 256.147575 194.783483 
L 256.341771 195.159618 
L 256.535975 197.490883 
L 256.730179 198.380194 
L 256.924383 198.378611 
L 257.312792 198.002281 
L 257.506995 198.542628 
L 257.7012 199.567641 
L 257.895404 199.739849 
L 258.089609 199.382453 
L 258.283813 199.490999 
L 258.478018 199.887107 
L 258.672222 199.769249 
L 258.866427 199.33478 
L 259.060631 199.66535 
L 259.254836 200.461899 
L 259.44904 197.708521 
L 259.643244 192.856881 
L 259.837432 191.393522 
L 260.031636 191.848042 
L 260.614235 201.240634 
L 261.002644 199.398466 
L 261.196848 199.029265 
L 261.391053 199.07979 
L 261.585257 199.36926 
L 261.779461 199.138182 
L 261.973666 198.596771 
L 262.362074 196.426704 
L 262.75048 180.589795 
L 262.944571 180.662411 
L 263.332951 190.026183 
L 263.527155 192.721869 
L 263.721351 193.399701 
L 263.915556 192.860189 
L 264.109749 195.334891 
L 264.303953 199.563746 
L 264.498157 200.571095 
L 264.692362 199.677122 
L 264.886566 199.568462 
L 265.080771 199.927318 
L 265.274975 199.167678 
L 265.46918 197.77207 
L 265.663383 197.383008 
L 265.857587 197.543753 
L 266.05179 196.884574 
L 266.245995 195.780118 
L 266.440195 196.113675 
L 267.022807 199.472461 
L 267.217012 199.803578 
L 267.411216 199.705167 
L 268.188034 199.904455 
L 268.770648 199.90251 
L 269.159057 199.77347 
L 270.324284 199.958102 
L 271.683715 199.659186 
L 272.072124 199.49881 
L 272.848942 200.006244 
L 273.62576 199.952016 
L 274.985191 199.858393 
L 275.762009 199.746981 
L 276.150418 199.592802 
L 276.344622 199.61242 
L 276.927236 200.931774 
L 277.12144 200.914268 
L 277.509849 200.145083 
L 277.704053 200.297453 
L 277.898258 200.783687 
L 278.092462 200.775275 
L 278.286667 200.499107 
L 278.86928 198.583123 
L 279.063484 198.922443 
L 279.646096 201.838477 
L 279.840301 201.668832 
L 280.617118 199.609918 
L 280.811323 199.582908 
L 281.588141 200.214708 
L 282.170754 199.812973 
L 282.753367 199.944122 
L 283.335981 199.527224 
L 283.72439 203.620408 
L 284.306904 219.673702 
L 284.501108 217.068195 
L 285.083668 202.030693 
L 285.277873 202.729102 
L 285.472075 202.855054 
L 285.66628 202.713277 
L 286.6373 200.193304 
L 286.831505 199.44699 
L 287.025709 199.972449 
L 287.219913 201.121563 
L 287.414117 200.683541 
L 287.608322 199.471163 
L 287.996731 195.018156 
L 288.57929 181.155859 
L 288.773494 175.764662 
L 288.967561 177.288767 
L 289.161766 182.1052 
L 289.355916 182.274415 
L 289.55012 180.178404 
L 289.744238 183.005348 
L 290.326832 197.581685 
L 290.521036 199.175119 
L 291.10365 199.811013 
L 291.297854 199.549212 
L 291.880467 197.961808 
L 292.268875 194.939278 
L 292.463074 195.7984 
L 293.045687 200.690327 
L 293.239891 200.566052 
L 293.434096 199.72583 
L 293.6283 199.596326 
L 293.822505 199.798699 
L 294.210913 200.719431 
L 294.405118 200.390211 
L 294.793527 199.295927 
L 294.987731 199.081345 
L 295.181936 199.262247 
L 296.152958 200.848378 
L 296.347162 200.826979 
L 296.541367 200.66332 
L 297.12398 200.632537 
L 297.318184 200.481393 
L 297.706593 201.019232 
L 298.095002 202.249271 
L 298.289205 202.296483 
L 298.48341 202.086714 
L 299.260227 198.84138 
L 299.454431 199.404092 
L 299.648635 200.515165 
L 299.84284 200.739485 
L 300.037044 200.574613 
L 300.425453 199.420172 
L 300.619658 200.125433 
L 300.813862 201.434002 
L 301.008066 201.706672 
L 301.20227 201.506227 
L 301.784883 198.944043 
L 301.979088 198.66695 
L 302.173292 199.036242 
L 302.561701 200.099507 
L 302.755905 200.481773 
L 302.95011 200.258664 
L 303.144314 199.770196 
L 303.338519 200.05232 
L 303.726927 201.426124 
L 303.921132 202.275373 
L 304.115335 201.767561 
L 304.503744 200.0055 
L 304.697948 199.696896 
L 304.892153 199.691733 
L 305.086357 199.805665 
L 305.474766 200.659058 
L 305.668971 200.602429 
L 306.05738 200.110609 
L 306.251584 199.962831 
L 306.834197 200.122131 
L 307.028402 200.020143 
L 307.416811 200.287818 
L 307.80522 203.427166 
L 307.999421 202.70884 
L 308.38783 200.186989 
L 308.582035 199.785733 
L 308.776239 199.694777 
L 309.164648 199.877992 
L 309.358853 200.068654 
L 309.747262 200.952803 
L 309.941466 200.252004 
L 310.13567 199.072894 
L 310.329875 199.962253 
L 310.524079 201.676998 
L 310.718283 200.939434 
L 310.912487 199.234766 
L 311.106691 199.563223 
L 311.300896 200.699899 
L 311.689304 206.526839 
L 311.883498 205.057569 
L 312.077703 201.781263 
L 312.271907 207.801035 
L 312.466112 217.479855 
L 312.660238 221.50538 
L 313.048543 223.915997 
L 313.242748 224.311385 
L 313.631047 253.300595 
L 313.824614 246.051619 
L 314.018819 228.912817 
L 314.212916 234.447833 
L 314.40712 248.844116 
L 314.600812 246.895088 
L 314.988979 234.01877 
L 315.183184 230.651228 
L 315.377229 234.148856 
L 315.571434 240.243083 
L 315.765324 230.606979 
L 315.959529 215.421007 
L 316.153709 216.720228 
L 316.347913 223.683643 
L 316.542003 221.448978 
L 317.318778 201.434561 
L 317.512983 200.889051 
L 317.707187 201.344745 
L 317.901392 202.148094 
L 318.2898 208.975881 
L 318.483986 206.92331 
L 318.678191 202.819377 
L 318.872395 205.47715 
L 319.066599 210.467026 
L 319.260779 208.236935 
L 319.454984 203.560546 
L 319.649187 203.460591 
L 319.843392 204.86474 
L 320.231796 205.450133 
L 320.814404 199.723909 
L 321.202813 200.347107 
L 321.397017 200.765181 
L 321.591221 200.613965 
L 321.785426 200.284783 
L 322.173835 200.137032 
L 322.562244 202.471599 
L 322.756447 201.770391 
L 323.144856 199.73296 
L 323.33906 199.215749 
L 323.533265 199.637399 
L 323.727469 200.374923 
L 323.921674 200.466071 
L 324.115878 200.341786 
L 324.504287 207.501509 
L 324.698479 206.472523 
L 324.892684 203.86143 
L 325.086886 206.532122 
L 325.281091 210.910746 
L 325.669474 227.625988 
L 325.863528 222.157208 
L 326.251921 206.881671 
L 326.640329 201.614567 
L 326.834533 200.628685 
L 327.028738 200.355192 
L 327.417147 200.145009 
L 327.99976 199.472996 
L 328.388169 199.97402 
L 328.776578 201.058693 
L 328.970782 200.857928 
L 329.359191 200.201494 
L 329.7476 199.985221 
L 330.524418 199.792189 
L 330.912827 199.38517 
L 331.107032 199.083213 
L 331.883849 200.206528 
L 333.049076 199.752596 
L 334.020099 200.071994 
L 334.214303 200.020194 
L 334.602712 199.560204 
L 335.185325 199.932378 
L 335.573734 199.658059 
L 335.767939 199.628601 
L 336.544757 199.969484 
L 337.12737 199.80853 
L 337.321575 199.678149 
L 337.709984 198.483288 
L 338.098392 199.979269 
L 338.292597 199.256735 
L 338.486801 198.069688 
L 338.875209 187.217261 
L 339.069383 187.515289 
L 339.846177 195.677353 
L 340.040382 199.170825 
L 340.234586 199.727433 
L 340.428791 199.467857 
L 341.399813 200.003759 
L 341.788222 199.977626 
L 342.176631 199.996832 
L 342.759244 199.900948 
L 343.924471 200.05085 
L 344.701289 199.919892 
L 345.089698 200.332692 
L 345.672254 227.002344 
L 345.866459 236.779802 
L 346.254639 208.22942 
L 346.643044 245.744346 
L 346.836868 233.62573 
L 347.031073 212.647215 
L 347.225267 213.840019 
L 347.419471 220.566191 
L 347.613604 218.811134 
L 348.196187 208.507408 
L 348.584587 219.631663 
L 348.97293 206.146986 
L 349.167132 211.762108 
L 349.361336 220.77642 
L 349.555466 215.221553 
L 349.749671 206.160768 
L 349.943873 209.530211 
L 350.138077 215.828384 
L 350.33224 216.306993 
L 350.526445 215.553398 
L 350.914818 201.398141 
L 351.109023 201.946987 
L 351.303227 204.533077 
L 351.497428 203.137568 
L 351.691632 200.794683 
L 351.885837 200.697397 
L 352.080041 201.13146 
L 352.46845 200.219335 
L 353.245266 204.79902 
L 353.633672 201.84914 
L 353.827876 202.393153 
L 354.02208 203.460128 
L 354.604692 199.830904 
L 355.187305 200.437493 
L 355.575714 200.840183 
L 355.964123 202.069266 
L 356.158327 202.065572 
L 356.352531 201.919032 
L 356.74094 199.327527 
L 356.935144 199.25077 
L 357.129349 199.469483 
L 357.517757 200.480944 
L 357.906166 199.813678 
L 358.294575 198.294787 
L 358.488779 198.425177 
L 358.682984 198.760035 
L 359.071393 198.319155 
L 359.459801 200.627196 
L 360.042414 198.046189 
L 360.236619 198.1432 
L 360.819232 199.933877 
L 361.013436 200.23603 
L 361.401845 192.517491 
L 361.790246 207.594611 
L 362.178643 114.389806 
L 362.371638 116.148209 
L 362.565842 130.526537 
L 362.759504 127.073685 
L 362.953708 119.576745 
L 363.34134 132.676993 
L 363.72927 91.363658 
L 364.116271 156.286585 
L 364.504543 53.568 
L 364.891367 159.864507 
L 365.27968 120.606722 
L 365.86173 177.860807 
L 366.250129 190.957741 
L 366.444334 194.240477 
L 366.832741 206.025088 
L 367.221148 199.505139 
L 367.415352 199.74668 
L 367.609557 200.212274 
L 367.997966 200.132474 
L 368.386375 199.786712 
L 369.357397 199.962023 
L 369.745806 199.911178 
L 370.134215 200.006245 
L 370.716828 200.169811 
L 371.105237 199.977058 
L 371.493646 200.561313 
L 371.882055 199.828513 
L 372.270464 198.250568 
L 372.658873 202.656158 
L 373.241483 190.579677 
L 373.435688 188.582081 
L 373.629883 188.868693 
L 373.824087 189.509117 
L 374.21249 147.678728 
L 374.600732 173.385409 
L 374.989099 149.2088 
L 375.37737 173.586412 
L 375.571542 174.104178 
L 375.765746 173.885703 
L 376.154125 170.629088 
L 376.736597 134.492525 
L 376.930802 119.125549 
L 377.318994 205.522371 
L 377.513197 202.613128 
L 377.707402 197.954877 
L 378.095811 200.326418 
L 378.48422 199.346436 
L 378.872629 200.05156 
L 379.261038 200.205359 
L 379.649447 199.37073 
L 380.426264 200.218417 
L 380.814673 199.286921 
L 381.203082 199.534851 
L 381.591491 199.999871 
L 381.9799 199.677804 
L 382.562514 199.905364 
L 382.756718 200.048629 
L 384.310354 199.854289 
L 384.892968 199.915456 
L 385.669785 199.911235 
L 386.640808 199.878018 
L 387.029217 198.896481 
L 387.417626 195.964637 
L 387.806035 195.256059 
L 388.194443 192.895583 
L 388.582851 196.155116 
L 388.97126 195.583329 
L 389.359669 194.240918 
L 389.748077 195.235748 
L 390.136486 183.133117 
L 390.913299 199.279967 
L 391.301708 198.947933 
L 392.078526 191.650502 
L 392.661139 198.683082 
L 392.855343 200.191634 
L 393.243752 199.2406 
L 393.632161 199.358388 
L 394.214774 200.064393 
L 394.408979 200.199809 
L 394.991592 200.010449 
L 395.185797 200.014513 
L 395.574206 198.317264 
L 395.962615 192.297907 
L 396.351023 198.68238 
L 396.739432 197.709239 
L 397.322046 199.236524 
L 397.51625 199.558653 
L 397.904659 199.042281 
L 398.293068 199.90394 
L 398.487273 199.90394 
L 398.487273 199.90394 
" style="fill:none;stroke:#ff7f0e;stroke-linecap:square;stroke-width:1.5;"/>
   </g>
   <g id="line2d_17">
    <path clip-path="url(#p3b2e81818e)" d="M 73.832727 199.943588 
L 74.213556 197.599334 
L 74.784799 197.700877 
L 76.1177 197.574793 
L 76.498528 197.725673 
L 77.069771 197.538262 
L 79.164329 197.501667 
L 79.735573 197.537944 
L 80.116401 197.502345 
L 80.878059 197.462972 
L 82.972617 197.384307 
L 87.92339 197.228546 
L 90.970019 197.051056 
L 95.920791 194.333037 
L 96.682448 194.013351 
L 97.444105 193.753718 
L 98.205762 193.217166 
L 98.967419 192.719268 
L 100.87156 191.607612 
L 102.585286 190.466411 
L 103.346942 189.83705 
L 103.918184 189.56412 
L 104.299012 189.800263 
L 104.870253 189.308339 
L 105.631908 188.991563 
L 105.822322 188.796732 
L 106.774391 189.851019 
L 107.155219 190.281293 
L 108.488117 192.043191 
L 113.629301 198.365943 
L 115.343031 199.137847 
L 120.293804 199.907304 
L 126.767893 200.006828 
L 134.574882 200.100755 
L 136.66944 200.148415 
L 145.809329 200.391568 
L 147.523058 201.238854 
L 148.094301 201.644847 
L 150.950515 204.892011 
L 155.710856 210.421393 
L 158.567041 214.895976 
L 160.471149 218.566991 
L 161.232788 220.315131 
L 162.37524 223.404742 
L 162.565654 223.742568 
L 163.136872 221.719058 
L 164.660155 215.442569 
L 168.087595 202.320762 
L 173.609578 181.356246 
L 173.990398 181.77458 
L 174.94245 184.524487 
L 175.513687 185.488977 
L 176.084921 186.533634 
L 176.465746 187.132402 
L 180.083598 193.869062 
L 183.891883 200.406936 
L 185.034369 201.568264 
L 185.415197 201.221755 
L 187.128926 197.894525 
L 188.271412 195.491039 
L 188.65224 194.383507 
L 189.413895 191.476161 
L 192.270069 178.67718 
L 192.841286 175.672707 
L 194.554928 164.337877 
L 195.697301 152.300161 
L 196.078082 151.005434 
L 196.649241 156.973222 
L 197.410849 165.395155 
L 200.076596 190.552469 
L 205.217721 239.281479 
L 205.979338 250.262639 
L 206.740946 263.167021 
L 207.121754 264.157412 
L 207.502571 263.908062 
L 207.883387 262.375533 
L 208.454612 253.10686 
L 209.787456 229.309632 
L 212.262832 189.773893 
L 214.166937 162.381924 
L 214.357332 160.940579 
L 214.738141 161.688038 
L 215.49976 165.040125 
L 216.26138 166.737488 
L 216.832605 167.246106 
L 217.023 167.331923 
L 217.403809 167.195101 
L 218.355836 165.537127 
L 218.546226 165.072782 
L 219.498236 161.110341 
L 219.688615 160.744849 
L 220.45021 165.735211 
L 221.402236 172.229466 
L 222.35426 177.477894 
L 223.306311 182.152677 
L 226.162497 194.903472 
L 226.73374 196.040216 
L 226.924154 196.285687 
L 228.066639 196.452492 
L 230.732438 196.494645 
L 231.303681 196.57152 
L 232.63658 196.543397 
L 233.398237 196.592865 
L 234.350308 196.552543 
L 236.064036 196.570408 
L 238.92025 196.623006 
L 240.443564 196.670799 
L 241.014806 196.719393 
L 242.157292 196.626703 
L 244.061434 196.747632 
L 244.632677 196.842039 
L 245.013506 196.766056 
L 245.584749 196.674415 
L 248.821791 196.61119 
L 249.964276 196.614579 
L 251.106762 196.577918 
L 255.676704 196.628325 
L 256.247947 196.596812 
L 257.580847 196.493981 
L 260.246647 196.480857 
L 260.627475 196.459716 
L 261.579546 196.356408 
L 262.912446 196.420836 
L 263.483689 196.510378 
L 264.054932 196.41362 
L 264.816589 196.587148 
L 265.578246 196.883016 
L 267.863218 197.78104 
L 283.667609 204.016743 
L 284.048437 203.949858 
L 284.429266 203.526338 
L 285.571752 200.490622 
L 288.618381 192.189134 
L 288.999209 191.582049 
L 289.570451 191.916453 
L 300.043238 200.619859 
L 306.898155 206.218506 
L 308.040641 207.510014 
L 312.800999 213.024055 
L 314.324313 214.967629 
L 314.514728 215.0623 
L 315.085971 214.231128 
L 315.657214 213.375317 
L 319.4655 209.335726 
L 321.17923 208.058359 
L 323.654616 206.152818 
L 325.177931 204.887942 
L 325.939588 204.150928 
L 326.510831 203.920881 
L 327.653318 203.0809 
L 331.080776 200.278711 
L 338.506935 194.062539 
L 338.887764 193.885231 
L 339.268592 193.998256 
L 339.839835 195.390603 
L 341.36315 200.140921 
L 346.313916 215.523231 
L 346.50433 215.934903 
L 346.885157 215.966779 
L 348.408465 213.315576 
L 351.074259 209.582643 
L 354.501714 205.178223 
L 356.025028 202.717432 
L 356.405857 201.764587 
L 357.167514 197.912156 
L 358.119585 192.239443 
L 360.975779 171.032967 
L 361.547007 165.212897 
L 362.11824 160.320669 
L 362.689464 152.560991 
L 362.879878 149.471018 
L 363.260697 147.102309 
L 363.641521 149.577989 
L 364.21276 156.341711 
L 366.116878 172.821754 
L 367.068939 178.888616 
L 368.973075 190.053545 
L 369.353903 191.786448 
L 369.734732 191.946449 
L 371.638872 189.546704 
L 373.733426 186.714678 
L 374.114253 186.274995 
L 374.495081 185.871526 
L 374.875908 185.216842 
L 376.208802 182.518252 
L 376.589629 182.323287 
L 377.351283 184.847476 
L 377.732111 185.716465 
L 378.493766 189.274527 
L 380.397909 197.089207 
L 380.778737 197.632068 
L 381.540395 197.715277 
L 387.824068 197.825051 
L 390.489869 197.91708 
L 391.061113 197.750618 
L 392.774842 197.728776 
L 394.488571 197.685355 
L 398.487273 197.616388 
L 398.487273 197.616388 
" style="fill:none;stroke:#2ca02c;stroke-linecap:square;stroke-width:1.5;"/>
   </g>
   <g id="patch_3">
    <path d="M 57.6 307.584 
L 57.6 41.472 
" style="fill:none;stroke:#000000;stroke-linecap:square;stroke-linejoin:miter;stroke-width:0.8;"/>
   </g>
   <g id="patch_4">
    <path d="M 414.72 307.584 
L 414.72 41.472 
" style="fill:none;stroke:#000000;stroke-linecap:square;stroke-linejoin:miter;stroke-width:0.8;"/>
   </g>
   <g id="patch_5">
    <path d="M 57.6 307.584 
L 414.72 307.584 
" style="fill:none;stroke:#000000;stroke-linecap:square;stroke-linejoin:miter;stroke-width:0.8;"/>
   </g>
   <g id="patch_6">
    <path d="M 57.6 41.472 
L 414.72 41.472 
" style="fill:none;stroke:#000000;stroke-linecap:square;stroke-linejoin:miter;stroke-width:0.8;"/>
   </g>
   <g id="text_15">
    <!-- Curvature vs Distance mco -->
    <g transform="translate(154.847813 35.472)scale(0.12 -0.12)">
     <defs>
      <path d="M 64.40625 67.28125 
L 64.40625 56.890625 
Q 59.421875 61.53125 53.78125 63.8125 
Q 48.140625 66.109375 41.796875 66.109375 
Q 29.296875 66.109375 22.65625 58.46875 
Q 16.015625 50.828125 16.015625 36.375 
Q 16.015625 21.96875 22.65625 14.328125 
Q 29.296875 6.6875 41.796875 6.6875 
Q 48.140625 6.6875 53.78125 8.984375 
Q 59.421875 11.28125 64.40625 15.921875 
L 64.40625 5.609375 
Q 59.234375 2.09375 53.4375 0.328125 
Q 47.65625 -1.421875 41.21875 -1.421875 
Q 24.65625 -1.421875 15.125 8.703125 
Q 5.609375 18.84375 5.609375 36.375 
Q 5.609375 53.953125 15.125 64.078125 
Q 24.65625 74.21875 41.21875 74.21875 
Q 47.75 74.21875 53.53125 72.484375 
Q 59.328125 70.75 64.40625 67.28125 
z
" id="DejaVuSans-67"/>
      <path d="M 8.5 21.578125 
L 8.5 54.6875 
L 17.484375 54.6875 
L 17.484375 21.921875 
Q 17.484375 14.15625 20.5 10.265625 
Q 23.53125 6.390625 29.59375 6.390625 
Q 36.859375 6.390625 41.078125 11.03125 
Q 45.3125 15.671875 45.3125 23.6875 
L 45.3125 54.6875 
L 54.296875 54.6875 
L 54.296875 0 
L 45.3125 0 
L 45.3125 8.40625 
Q 42.046875 3.421875 37.71875 1 
Q 33.40625 -1.421875 27.6875 -1.421875 
Q 18.265625 -1.421875 13.375 4.4375 
Q 8.5 10.296875 8.5 21.578125 
z
M 31.109375 56 
z
" id="DejaVuSans-117"/>
      <path d="M 41.109375 46.296875 
Q 39.59375 47.171875 37.8125 47.578125 
Q 36.03125 48 33.890625 48 
Q 26.265625 48 22.1875 43.046875 
Q 18.109375 38.09375 18.109375 28.8125 
L 18.109375 0 
L 9.078125 0 
L 9.078125 54.6875 
L 18.109375 54.6875 
L 18.109375 46.1875 
Q 20.953125 51.171875 25.484375 53.578125 
Q 30.03125 56 36.53125 56 
Q 37.453125 56 38.578125 55.875 
Q 39.703125 55.765625 41.0625 55.515625 
z
" id="DejaVuSans-114"/>
      <path d="M 2.984375 54.6875 
L 12.5 54.6875 
L 29.59375 8.796875 
L 46.6875 54.6875 
L 56.203125 54.6875 
L 35.6875 0 
L 23.484375 0 
z
" id="DejaVuSans-118"/>
      <path d="M 34.28125 27.484375 
Q 23.390625 27.484375 19.1875 25 
Q 14.984375 22.515625 14.984375 16.5 
Q 14.984375 11.71875 18.140625 8.90625 
Q 21.296875 6.109375 26.703125 6.109375 
Q 34.1875 6.109375 38.703125 11.40625 
Q 43.21875 16.703125 43.21875 25.484375 
L 43.21875 27.484375 
z
M 52.203125 31.203125 
L 52.203125 0 
L 43.21875 0 
L 43.21875 8.296875 
Q 40.140625 3.328125 35.546875 0.953125 
Q 30.953125 -1.421875 24.3125 -1.421875 
Q 15.921875 -1.421875 10.953125 3.296875 
Q 6 8.015625 6 15.921875 
Q 6 25.140625 12.171875 29.828125 
Q 18.359375 34.515625 30.609375 34.515625 
L 43.21875 34.515625 
L 43.21875 35.40625 
Q 43.21875 41.609375 39.140625 45 
Q 35.0625 48.390625 27.6875 48.390625 
Q 23 48.390625 18.546875 47.265625 
Q 14.109375 46.140625 10.015625 43.890625 
L 10.015625 52.203125 
Q 14.9375 54.109375 19.578125 55.046875 
Q 24.21875 56 28.609375 56 
Q 40.484375 56 46.34375 49.84375 
Q 52.203125 43.703125 52.203125 31.203125 
z
" id="DejaVuSans-97"/>
      <path d="M 18.3125 70.21875 
L 18.3125 54.6875 
L 36.8125 54.6875 
L 36.8125 47.703125 
L 18.3125 47.703125 
L 18.3125 18.015625 
Q 18.3125 11.328125 20.140625 9.421875 
Q 21.96875 7.515625 27.59375 7.515625 
L 36.8125 7.515625 
L 36.8125 0 
L 27.59375 0 
Q 17.1875 0 13.234375 3.875 
Q 9.28125 7.765625 9.28125 18.015625 
L 9.28125 47.703125 
L 2.6875 47.703125 
L 2.6875 54.6875 
L 9.28125 54.6875 
L 9.28125 70.21875 
z
" id="DejaVuSans-116"/>
      <path d="M 56.203125 29.59375 
L 56.203125 25.203125 
L 14.890625 25.203125 
Q 15.484375 15.921875 20.484375 11.0625 
Q 25.484375 6.203125 34.421875 6.203125 
Q 39.59375 6.203125 44.453125 7.46875 
Q 49.3125 8.734375 54.109375 11.28125 
L 54.109375 2.78125 
Q 49.265625 0.734375 44.1875 -0.34375 
Q 39.109375 -1.421875 33.890625 -1.421875 
Q 20.796875 -1.421875 13.15625 6.1875 
Q 5.515625 13.8125 5.515625 26.8125 
Q 5.515625 40.234375 12.765625 48.109375 
Q 20.015625 56 32.328125 56 
Q 43.359375 56 49.78125 48.890625 
Q 56.203125 41.796875 56.203125 29.59375 
z
M 47.21875 32.234375 
Q 47.125 39.59375 43.09375 43.984375 
Q 39.0625 48.390625 32.421875 48.390625 
Q 24.90625 48.390625 20.390625 44.140625 
Q 15.875 39.890625 15.1875 32.171875 
z
" id="DejaVuSans-101"/>
      <path id="DejaVuSans-32"/>
      <path d="M 44.28125 53.078125 
L 44.28125 44.578125 
Q 40.484375 46.53125 36.375 47.5 
Q 32.28125 48.484375 27.875 48.484375 
Q 21.1875 48.484375 17.84375 46.4375 
Q 14.5 44.390625 14.5 40.28125 
Q 14.5 37.15625 16.890625 35.375 
Q 19.28125 33.59375 26.515625 31.984375 
L 29.59375 31.296875 
Q 39.15625 29.25 43.1875 25.515625 
Q 47.21875 21.78125 47.21875 15.09375 
Q 47.21875 7.46875 41.1875 3.015625 
Q 35.15625 -1.421875 24.609375 -1.421875 
Q 20.21875 -1.421875 15.453125 -0.5625 
Q 10.6875 0.296875 5.421875 2 
L 5.421875 11.28125 
Q 10.40625 8.6875 15.234375 7.390625 
Q 20.0625 6.109375 24.8125 6.109375 
Q 31.15625 6.109375 34.5625 8.28125 
Q 37.984375 10.453125 37.984375 14.40625 
Q 37.984375 18.0625 35.515625 20.015625 
Q 33.0625 21.96875 24.703125 23.78125 
L 21.578125 24.515625 
Q 13.234375 26.265625 9.515625 29.90625 
Q 5.8125 33.546875 5.8125 39.890625 
Q 5.8125 47.609375 11.28125 51.796875 
Q 16.75 56 26.8125 56 
Q 31.78125 56 36.171875 55.265625 
Q 40.578125 54.546875 44.28125 53.078125 
z
" id="DejaVuSans-115"/>
      <path d="M 19.671875 64.796875 
L 19.671875 8.109375 
L 31.59375 8.109375 
Q 46.6875 8.109375 53.6875 14.9375 
Q 60.6875 21.78125 60.6875 36.53125 
Q 60.6875 51.171875 53.6875 57.984375 
Q 46.6875 64.796875 31.59375 64.796875 
z
M 9.8125 72.90625 
L 30.078125 72.90625 
Q 51.265625 72.90625 61.171875 64.09375 
Q 71.09375 55.28125 71.09375 36.53125 
Q 71.09375 17.671875 61.125 8.828125 
Q 51.171875 0 30.078125 0 
L 9.8125 0 
z
" id="DejaVuSans-68"/>
      <path d="M 9.421875 54.6875 
L 18.40625 54.6875 
L 18.40625 0 
L 9.421875 0 
z
M 9.421875 75.984375 
L 18.40625 75.984375 
L 18.40625 64.59375 
L 9.421875 64.59375 
z
" id="DejaVuSans-105"/>
      <path d="M 54.890625 33.015625 
L 54.890625 0 
L 45.90625 0 
L 45.90625 32.71875 
Q 45.90625 40.484375 42.875 44.328125 
Q 39.84375 48.1875 33.796875 48.1875 
Q 26.515625 48.1875 22.3125 43.546875 
Q 18.109375 38.921875 18.109375 30.90625 
L 18.109375 0 
L 9.078125 0 
L 9.078125 54.6875 
L 18.109375 54.6875 
L 18.109375 46.1875 
Q 21.34375 51.125 25.703125 53.5625 
Q 30.078125 56 35.796875 56 
Q 45.21875 56 50.046875 50.171875 
Q 54.890625 44.34375 54.890625 33.015625 
z
" id="DejaVuSans-110"/>
      <path d="M 48.78125 52.59375 
L 48.78125 44.1875 
Q 44.96875 46.296875 41.140625 47.34375 
Q 37.3125 48.390625 33.40625 48.390625 
Q 24.65625 48.390625 19.8125 42.84375 
Q 14.984375 37.3125 14.984375 27.296875 
Q 14.984375 17.28125 19.8125 11.734375 
Q 24.65625 6.203125 33.40625 6.203125 
Q 37.3125 6.203125 41.140625 7.25 
Q 44.96875 8.296875 48.78125 10.40625 
L 48.78125 2.09375 
Q 45.015625 0.34375 40.984375 -0.53125 
Q 36.96875 -1.421875 32.421875 -1.421875 
Q 20.0625 -1.421875 12.78125 6.34375 
Q 5.515625 14.109375 5.515625 27.296875 
Q 5.515625 40.671875 12.859375 48.328125 
Q 20.21875 56 33.015625 56 
Q 37.15625 56 41.109375 55.140625 
Q 45.0625 54.296875 48.78125 52.59375 
z
" id="DejaVuSans-99"/>
      <path d="M 52 44.1875 
Q 55.375 50.25 60.0625 53.125 
Q 64.75 56 71.09375 56 
Q 79.640625 56 84.28125 50.015625 
Q 88.921875 44.046875 88.921875 33.015625 
L 88.921875 0 
L 79.890625 0 
L 79.890625 32.71875 
Q 79.890625 40.578125 77.09375 44.375 
Q 74.3125 48.1875 68.609375 48.1875 
Q 61.625 48.1875 57.5625 43.546875 
Q 53.515625 38.921875 53.515625 30.90625 
L 53.515625 0 
L 44.484375 0 
L 44.484375 32.71875 
Q 44.484375 40.625 41.703125 44.40625 
Q 38.921875 48.1875 33.109375 48.1875 
Q 26.21875 48.1875 22.15625 43.53125 
Q 18.109375 38.875 18.109375 30.90625 
L 18.109375 0 
L 9.078125 0 
L 9.078125 54.6875 
L 18.109375 54.6875 
L 18.109375 46.1875 
Q 21.1875 51.21875 25.484375 53.609375 
Q 29.78125 56 35.6875 56 
Q 41.65625 56 45.828125 52.96875 
Q 50 49.953125 52 44.1875 
z
" id="DejaVuSans-109"/>
      <path d="M 30.609375 48.390625 
Q 23.390625 48.390625 19.1875 42.75 
Q 14.984375 37.109375 14.984375 27.296875 
Q 14.984375 17.484375 19.15625 11.84375 
Q 23.34375 6.203125 30.609375 6.203125 
Q 37.796875 6.203125 41.984375 11.859375 
Q 46.1875 17.53125 46.1875 27.296875 
Q 46.1875 37.015625 41.984375 42.703125 
Q 37.796875 48.390625 30.609375 48.390625 
z
M 30.609375 56 
Q 42.328125 56 49.015625 48.375 
Q 55.71875 40.765625 55.71875 27.296875 
Q 55.71875 13.875 49.015625 6.21875 
Q 42.328125 -1.421875 30.609375 -1.421875 
Q 18.84375 -1.421875 12.171875 6.21875 
Q 5.515625 13.875 5.515625 27.296875 
Q 5.515625 40.765625 12.171875 48.375 
Q 18.84375 56 30.609375 56 
z
" id="DejaVuSans-111"/>
     </defs>
     <use xlink:href="#DejaVuSans-67"/>
     <use x="69.824219" xlink:href="#DejaVuSans-117"/>
     <use x="133.203125" xlink:href="#DejaVuSans-114"/>
     <use x="174.316406" xlink:href="#DejaVuSans-118"/>
     <use x="233.496094" xlink:href="#DejaVuSans-97"/>
     <use x="294.775391" xlink:href="#DejaVuSans-116"/>
     <use x="333.984375" xlink:href="#DejaVuSans-117"/>
     <use x="397.363281" xlink:href="#DejaVuSans-114"/>
     <use x="436.226562" xlink:href="#DejaVuSans-101"/>
     <use x="497.75" xlink:href="#DejaVuSans-32"/>
     <use x="529.537109" xlink:href="#DejaVuSans-118"/>
     <use x="588.716797" xlink:href="#DejaVuSans-115"/>
     <use x="640.816406" xlink:href="#DejaVuSans-32"/>
     <use x="672.603516" xlink:href="#DejaVuSans-68"/>
     <use x="749.605469" xlink:href="#DejaVuSans-105"/>
     <use x="777.388672" xlink:href="#DejaVuSans-115"/>
     <use x="829.488281" xlink:href="#DejaVuSans-116"/>
     <use x="868.697266" xlink:href="#DejaVuSans-97"/>
     <use x="929.976562" xlink:href="#DejaVuSans-110"/>
     <use x="993.355469" xlink:href="#DejaVuSans-99"/>
     <use x="1048.335938" xlink:href="#DejaVuSans-101"/>
     <use x="1109.859375" xlink:href="#DejaVuSans-32"/>
     <use x="1141.646484" xlink:href="#DejaVuSans-109"/>
     <use x="1239.058594" xlink:href="#DejaVuSans-99"/>
     <use x="1294.039062" xlink:href="#DejaVuSans-111"/>
    </g>
   </g>
   <g id="legend_1">
    <g id="patch_7">
     <path d="M 276.42625 93.506375 
L 407.72 93.506375 
Q 409.72 93.506375 409.72 91.506375 
L 409.72 48.472 
Q 409.72 46.472 407.72 46.472 
L 276.42625 46.472 
Q 274.42625 46.472 274.42625 48.472 
L 274.42625 91.506375 
Q 274.42625 93.506375 276.42625 93.506375 
z
" style="fill:#ffffff;opacity:0.8;stroke:#cccccc;stroke-linejoin:miter;"/>
    </g>
    <g id="line2d_18">
     <path d="M 278.42625 54.570438 
L 298.42625 54.570438 
" style="fill:none;stroke:#1f77b4;stroke-linecap:square;stroke-width:1.5;"/>
    </g>
    <g id="line2d_19"/>
    <g id="text_16">
     <!-- Centreline -->
     <g transform="translate(306.42625 58.070438)scale(0.1 -0.1)">
      <defs>
       <path d="M 9.421875 75.984375 
L 18.40625 75.984375 
L 18.40625 0 
L 9.421875 0 
z
" id="DejaVuSans-108"/>
      </defs>
      <use xlink:href="#DejaVuSans-67"/>
      <use x="69.824219" xlink:href="#DejaVuSans-101"/>
      <use x="131.347656" xlink:href="#DejaVuSans-110"/>
      <use x="194.726562" xlink:href="#DejaVuSans-116"/>
      <use x="233.935547" xlink:href="#DejaVuSans-114"/>
      <use x="272.798828" xlink:href="#DejaVuSans-101"/>
      <use x="334.322266" xlink:href="#DejaVuSans-108"/>
      <use x="362.105469" xlink:href="#DejaVuSans-105"/>
      <use x="389.888672" xlink:href="#DejaVuSans-110"/>
      <use x="453.267578" xlink:href="#DejaVuSans-101"/>
     </g>
    </g>
    <g id="line2d_20">
     <path d="M 278.42625 69.248563 
L 298.42625 69.248563 
" style="fill:none;stroke:#ff7f0e;stroke-linecap:square;stroke-width:1.5;"/>
    </g>
    <g id="line2d_21"/>
    <g id="text_17">
     <!-- Shortest Path -->
     <g transform="translate(306.42625 72.748563)scale(0.1 -0.1)">
      <defs>
       <path d="M 53.515625 70.515625 
L 53.515625 60.890625 
Q 47.90625 63.578125 42.921875 64.890625 
Q 37.9375 66.21875 33.296875 66.21875 
Q 25.25 66.21875 20.875 63.09375 
Q 16.5 59.96875 16.5 54.203125 
Q 16.5 49.359375 19.40625 46.890625 
Q 22.3125 44.4375 30.421875 42.921875 
L 36.375 41.703125 
Q 47.40625 39.59375 52.65625 34.296875 
Q 57.90625 29 57.90625 20.125 
Q 57.90625 9.515625 50.796875 4.046875 
Q 43.703125 -1.421875 29.984375 -1.421875 
Q 24.8125 -1.421875 18.96875 -0.25 
Q 13.140625 0.921875 6.890625 3.21875 
L 6.890625 13.375 
Q 12.890625 10.015625 18.65625 8.296875 
Q 24.421875 6.59375 29.984375 6.59375 
Q 38.421875 6.59375 43.015625 9.90625 
Q 47.609375 13.234375 47.609375 19.390625 
Q 47.609375 24.75 44.3125 27.78125 
Q 41.015625 30.8125 33.5 32.328125 
L 27.484375 33.5 
Q 16.453125 35.6875 11.515625 40.375 
Q 6.59375 45.0625 6.59375 53.421875 
Q 6.59375 63.09375 13.40625 68.65625 
Q 20.21875 74.21875 32.171875 74.21875 
Q 37.3125 74.21875 42.625 73.28125 
Q 47.953125 72.359375 53.515625 70.515625 
z
" id="DejaVuSans-83"/>
       <path d="M 54.890625 33.015625 
L 54.890625 0 
L 45.90625 0 
L 45.90625 32.71875 
Q 45.90625 40.484375 42.875 44.328125 
Q 39.84375 48.1875 33.796875 48.1875 
Q 26.515625 48.1875 22.3125 43.546875 
Q 18.109375 38.921875 18.109375 30.90625 
L 18.109375 0 
L 9.078125 0 
L 9.078125 75.984375 
L 18.109375 75.984375 
L 18.109375 46.1875 
Q 21.34375 51.125 25.703125 53.5625 
Q 30.078125 56 35.796875 56 
Q 45.21875 56 50.046875 50.171875 
Q 54.890625 44.34375 54.890625 33.015625 
z
" id="DejaVuSans-104"/>
       <path d="M 19.671875 64.796875 
L 19.671875 37.40625 
L 32.078125 37.40625 
Q 38.96875 37.40625 42.71875 40.96875 
Q 46.484375 44.53125 46.484375 51.125 
Q 46.484375 57.671875 42.71875 61.234375 
Q 38.96875 64.796875 32.078125 64.796875 
z
M 9.8125 72.90625 
L 32.078125 72.90625 
Q 44.34375 72.90625 50.609375 67.359375 
Q 56.890625 61.8125 56.890625 51.125 
Q 56.890625 40.328125 50.609375 34.8125 
Q 44.34375 29.296875 32.078125 29.296875 
L 19.671875 29.296875 
L 19.671875 0 
L 9.8125 0 
z
" id="DejaVuSans-80"/>
      </defs>
      <use xlink:href="#DejaVuSans-83"/>
      <use x="63.476562" xlink:href="#DejaVuSans-104"/>
      <use x="126.855469" xlink:href="#DejaVuSans-111"/>
      <use x="188.037109" xlink:href="#DejaVuSans-114"/>
      <use x="229.150391" xlink:href="#DejaVuSans-116"/>
      <use x="268.359375" xlink:href="#DejaVuSans-101"/>
      <use x="329.882812" xlink:href="#DejaVuSans-115"/>
      <use x="381.982422" xlink:href="#DejaVuSans-116"/>
      <use x="421.191406" xlink:href="#DejaVuSans-32"/>
      <use x="452.978516" xlink:href="#DejaVuSans-80"/>
      <use x="508.78125" xlink:href="#DejaVuSans-97"/>
      <use x="570.060547" xlink:href="#DejaVuSans-116"/>
      <use x="609.269531" xlink:href="#DejaVuSans-104"/>
     </g>
    </g>
    <g id="line2d_22">
     <path d="M 278.42625 83.926688 
L 298.42625 83.926688 
" style="fill:none;stroke:#2ca02c;stroke-linecap:square;stroke-width:1.5;"/>
    </g>
    <g id="line2d_23"/>
    <g id="text_18">
     <!-- Minimum Curvature -->
     <g transform="translate(306.42625 87.426688)scale(0.1 -0.1)">
      <defs>
       <path d="M 9.8125 72.90625 
L 24.515625 72.90625 
L 43.109375 23.296875 
L 61.8125 72.90625 
L 76.515625 72.90625 
L 76.515625 0 
L 66.890625 0 
L 66.890625 64.015625 
L 48.09375 14.015625 
L 38.1875 14.015625 
L 19.390625 64.015625 
L 19.390625 0 
L 9.8125 0 
z
" id="DejaVuSans-77"/>
      </defs>
      <use xlink:href="#DejaVuSans-77"/>
      <use x="86.279297" xlink:href="#DejaVuSans-105"/>
      <use x="114.0625" xlink:href="#DejaVuSans-110"/>
      <use x="177.441406" xlink:href="#DejaVuSans-105"/>
      <use x="205.224609" xlink:href="#DejaVuSans-109"/>
      <use x="302.636719" xlink:href="#DejaVuSans-117"/>
      <use x="366.015625" xlink:href="#DejaVuSans-109"/>
      <use x="463.427734" xlink:href="#DejaVuSans-32"/>
      <use x="495.214844" xlink:href="#DejaVuSans-67"/>
      <use x="565.039062" xlink:href="#DejaVuSans-117"/>
      <use x="628.417969" xlink:href="#DejaVuSans-114"/>
      <use x="669.53125" xlink:href="#DejaVuSans-118"/>
      <use x="728.710938" xlink:href="#DejaVuSans-97"/>
      <use x="789.990234" xlink:href="#DejaVuSans-116"/>
      <use x="829.199219" xlink:href="#DejaVuSans-117"/>
      <use x="892.578125" xlink:href="#DejaVuSans-114"/>
      <use x="931.441406" xlink:href="#DejaVuSans-101"/>
     </g>
    </g>
   </g>
  </g>
 </g>
 <defs>
  <clipPath id="p3b2e81818e">
   <rect height="266.112" width="357.12" x="57.6" y="41.472"/>
  </clipPath>
 </defs>
</svg>
