<?xml version="1.0" encoding="utf-8" standalone="no"?>
<!DOCTYPE svg PUBLIC "-//W3C//DTD SVG 1.1//EN"
  "http://www.w3.org/Graphics/SVG/1.1/DTD/svg11.dtd">
<!-- Created with matplotlib (https://matplotlib.org/) -->
<svg height="345.6pt" version="1.1" viewBox="0 0 460.8 345.6" width="460.8pt" xmlns="http://www.w3.org/2000/svg" xmlns:xlink="http://www.w3.org/1999/xlink">
 <metadata>
  <rdf:RDF xmlns:cc="http://creativecommons.org/ns#" xmlns:dc="http://purl.org/dc/elements/1.1/" xmlns:rdf="http://www.w3.org/1999/02/22-rdf-syntax-ns#">
   <cc:Work>
    <dc:type rdf:resource="http://purl.org/dc/dcmitype/StillImage"/>
    <dc:date>2024-10-14T23:05:00.410115</dc:date>
    <dc:format>image/svg+xml</dc:format>
    <dc:creator>
     <cc:Agent>
      <dc:title>Matplotlib v3.3.1, https://matplotlib.org/</dc:title>
     </cc:Agent>
    </dc:creator>
   </cc:Work>
  </rdf:RDF>
 </metadata>
 <defs>
  <style type="text/css">*{stroke-linecap:butt;stroke-linejoin:round;}</style>
 </defs>
 <g id="figure_1">
  <g id="patch_1">
   <path d="M 0 345.6 
L 460.8 345.6 
L 460.8 0 
L 0 0 
z
" style="fill:#ffffff;"/>
  </g>
  <g id="axes_1">
   <g id="patch_2">
    <path d="M 57.6 307.584 
L 414.72 307.584 
L 414.72 41.472 
L 57.6 41.472 
z
" style="fill:#ffffff;"/>
   </g>
   <g id="matplotlib.axis_1">
    <g id="xtick_1">
     <g id="line2d_1">
      <defs>
       <path d="M 0 0 
L 0 3.5 
" id="mc1c70c76dc" style="stroke:#000000;stroke-width:0.8;"/>
      </defs>
      <g>
       <use style="stroke:#000000;stroke-width:0.8;" x="73.832727" xlink:href="#mc1c70c76dc" y="307.584"/>
      </g>
     </g>
     <g id="text_1">
      <!-- 0.0 -->
      <g transform="translate(65.881165 322.182437)scale(0.1 -0.1)">
       <defs>
        <path d="M 31.78125 66.40625 
Q 24.171875 66.40625 20.328125 58.90625 
Q 16.5 51.421875 16.5 36.375 
Q 16.5 21.390625 20.328125 13.890625 
Q 24.171875 6.390625 31.78125 6.390625 
Q 39.453125 6.390625 43.28125 13.890625 
Q 47.125 21.390625 47.125 36.375 
Q 47.125 51.421875 43.28125 58.90625 
Q 39.453125 66.40625 31.78125 66.40625 
z
M 31.78125 74.21875 
Q 44.046875 74.21875 50.515625 64.515625 
Q 56.984375 54.828125 56.984375 36.375 
Q 56.984375 17.96875 50.515625 8.265625 
Q 44.046875 -1.421875 31.78125 -1.421875 
Q 19.53125 -1.421875 13.0625 8.265625 
Q 6.59375 17.96875 6.59375 36.375 
Q 6.59375 54.828125 13.0625 64.515625 
Q 19.53125 74.21875 31.78125 74.21875 
z
" id="DejaVuSans-48"/>
        <path d="M 10.6875 12.40625 
L 21 12.40625 
L 21 0 
L 10.6875 0 
z
" id="DejaVuSans-46"/>
       </defs>
       <use xlink:href="#DejaVuSans-48"/>
       <use x="63.623047" xlink:href="#DejaVuSans-46"/>
       <use x="95.410156" xlink:href="#DejaVuSans-48"/>
      </g>
     </g>
    </g>
    <g id="xtick_2">
     <g id="line2d_2">
      <g>
       <use style="stroke:#000000;stroke-width:0.8;" x="138.763636" xlink:href="#mc1c70c76dc" y="307.584"/>
      </g>
     </g>
     <g id="text_2">
      <!-- 0.2 -->
      <g transform="translate(130.812074 322.182437)scale(0.1 -0.1)">
       <defs>
        <path d="M 19.1875 8.296875 
L 53.609375 8.296875 
L 53.609375 0 
L 7.328125 0 
L 7.328125 8.296875 
Q 12.9375 14.109375 22.625 23.890625 
Q 32.328125 33.6875 34.8125 36.53125 
Q 39.546875 41.84375 41.421875 45.53125 
Q 43.3125 49.21875 43.3125 52.78125 
Q 43.3125 58.59375 39.234375 62.25 
Q 35.15625 65.921875 28.609375 65.921875 
Q 23.96875 65.921875 18.8125 64.3125 
Q 13.671875 62.703125 7.8125 59.421875 
L 7.8125 69.390625 
Q 13.765625 71.78125 18.9375 73 
Q 24.125 74.21875 28.421875 74.21875 
Q 39.75 74.21875 46.484375 68.546875 
Q 53.21875 62.890625 53.21875 53.421875 
Q 53.21875 48.921875 51.53125 44.890625 
Q 49.859375 40.875 45.40625 35.40625 
Q 44.1875 33.984375 37.640625 27.21875 
Q 31.109375 20.453125 19.1875 8.296875 
z
" id="DejaVuSans-50"/>
       </defs>
       <use xlink:href="#DejaVuSans-48"/>
       <use x="63.623047" xlink:href="#DejaVuSans-46"/>
       <use x="95.410156" xlink:href="#DejaVuSans-50"/>
      </g>
     </g>
    </g>
    <g id="xtick_3">
     <g id="line2d_3">
      <g>
       <use style="stroke:#000000;stroke-width:0.8;" x="203.694545" xlink:href="#mc1c70c76dc" y="307.584"/>
      </g>
     </g>
     <g id="text_3">
      <!-- 0.4 -->
      <g transform="translate(195.742983 322.182437)scale(0.1 -0.1)">
       <defs>
        <path d="M 37.796875 64.3125 
L 12.890625 25.390625 
L 37.796875 25.390625 
z
M 35.203125 72.90625 
L 47.609375 72.90625 
L 47.609375 25.390625 
L 58.015625 25.390625 
L 58.015625 17.1875 
L 47.609375 17.1875 
L 47.609375 0 
L 37.796875 0 
L 37.796875 17.1875 
L 4.890625 17.1875 
L 4.890625 26.703125 
z
" id="DejaVuSans-52"/>
       </defs>
       <use xlink:href="#DejaVuSans-48"/>
       <use x="63.623047" xlink:href="#DejaVuSans-46"/>
       <use x="95.410156" xlink:href="#DejaVuSans-52"/>
      </g>
     </g>
    </g>
    <g id="xtick_4">
     <g id="line2d_4">
      <g>
       <use style="stroke:#000000;stroke-width:0.8;" x="268.625455" xlink:href="#mc1c70c76dc" y="307.584"/>
      </g>
     </g>
     <g id="text_4">
      <!-- 0.6 -->
      <g transform="translate(260.673892 322.182437)scale(0.1 -0.1)">
       <defs>
        <path d="M 33.015625 40.375 
Q 26.375 40.375 22.484375 35.828125 
Q 18.609375 31.296875 18.609375 23.390625 
Q 18.609375 15.53125 22.484375 10.953125 
Q 26.375 6.390625 33.015625 6.390625 
Q 39.65625 6.390625 43.53125 10.953125 
Q 47.40625 15.53125 47.40625 23.390625 
Q 47.40625 31.296875 43.53125 35.828125 
Q 39.65625 40.375 33.015625 40.375 
z
M 52.59375 71.296875 
L 52.59375 62.3125 
Q 48.875 64.0625 45.09375 64.984375 
Q 41.3125 65.921875 37.59375 65.921875 
Q 27.828125 65.921875 22.671875 59.328125 
Q 17.53125 52.734375 16.796875 39.40625 
Q 19.671875 43.65625 24.015625 45.921875 
Q 28.375 48.1875 33.59375 48.1875 
Q 44.578125 48.1875 50.953125 41.515625 
Q 57.328125 34.859375 57.328125 23.390625 
Q 57.328125 12.15625 50.6875 5.359375 
Q 44.046875 -1.421875 33.015625 -1.421875 
Q 20.359375 -1.421875 13.671875 8.265625 
Q 6.984375 17.96875 6.984375 36.375 
Q 6.984375 53.65625 15.1875 63.9375 
Q 23.390625 74.21875 37.203125 74.21875 
Q 40.921875 74.21875 44.703125 73.484375 
Q 48.484375 72.75 52.59375 71.296875 
z
" id="DejaVuSans-54"/>
       </defs>
       <use xlink:href="#DejaVuSans-48"/>
       <use x="63.623047" xlink:href="#DejaVuSans-46"/>
       <use x="95.410156" xlink:href="#DejaVuSans-54"/>
      </g>
     </g>
    </g>
    <g id="xtick_5">
     <g id="line2d_5">
      <g>
       <use style="stroke:#000000;stroke-width:0.8;" x="333.556364" xlink:href="#mc1c70c76dc" y="307.584"/>
      </g>
     </g>
     <g id="text_5">
      <!-- 0.8 -->
      <g transform="translate(325.604801 322.182437)scale(0.1 -0.1)">
       <defs>
        <path d="M 31.78125 34.625 
Q 24.75 34.625 20.71875 30.859375 
Q 16.703125 27.09375 16.703125 20.515625 
Q 16.703125 13.921875 20.71875 10.15625 
Q 24.75 6.390625 31.78125 6.390625 
Q 38.8125 6.390625 42.859375 10.171875 
Q 46.921875 13.96875 46.921875 20.515625 
Q 46.921875 27.09375 42.890625 30.859375 
Q 38.875 34.625 31.78125 34.625 
z
M 21.921875 38.8125 
Q 15.578125 40.375 12.03125 44.71875 
Q 8.5 49.078125 8.5 55.328125 
Q 8.5 64.0625 14.71875 69.140625 
Q 20.953125 74.21875 31.78125 74.21875 
Q 42.671875 74.21875 48.875 69.140625 
Q 55.078125 64.0625 55.078125 55.328125 
Q 55.078125 49.078125 51.53125 44.71875 
Q 48 40.375 41.703125 38.8125 
Q 48.828125 37.15625 52.796875 32.3125 
Q 56.78125 27.484375 56.78125 20.515625 
Q 56.78125 9.90625 50.3125 4.234375 
Q 43.84375 -1.421875 31.78125 -1.421875 
Q 19.734375 -1.421875 13.25 4.234375 
Q 6.78125 9.90625 6.78125 20.515625 
Q 6.78125 27.484375 10.78125 32.3125 
Q 14.796875 37.15625 21.921875 38.8125 
z
M 18.3125 54.390625 
Q 18.3125 48.734375 21.84375 45.5625 
Q 25.390625 42.390625 31.78125 42.390625 
Q 38.140625 42.390625 41.71875 45.5625 
Q 45.3125 48.734375 45.3125 54.390625 
Q 45.3125 60.0625 41.71875 63.234375 
Q 38.140625 66.40625 31.78125 66.40625 
Q 25.390625 66.40625 21.84375 63.234375 
Q 18.3125 60.0625 18.3125 54.390625 
z
" id="DejaVuSans-56"/>
       </defs>
       <use xlink:href="#DejaVuSans-48"/>
       <use x="63.623047" xlink:href="#DejaVuSans-46"/>
       <use x="95.410156" xlink:href="#DejaVuSans-56"/>
      </g>
     </g>
    </g>
    <g id="xtick_6">
     <g id="line2d_6">
      <g>
       <use style="stroke:#000000;stroke-width:0.8;" x="398.487273" xlink:href="#mc1c70c76dc" y="307.584"/>
      </g>
     </g>
     <g id="text_6">
      <!-- 1.0 -->
      <g transform="translate(390.53571 322.182437)scale(0.1 -0.1)">
       <defs>
        <path d="M 12.40625 8.296875 
L 28.515625 8.296875 
L 28.515625 63.921875 
L 10.984375 60.40625 
L 10.984375 69.390625 
L 28.421875 72.90625 
L 38.28125 72.90625 
L 38.28125 8.296875 
L 54.390625 8.296875 
L 54.390625 0 
L 12.40625 0 
z
" id="DejaVuSans-49"/>
       </defs>
       <use xlink:href="#DejaVuSans-49"/>
       <use x="63.623047" xlink:href="#DejaVuSans-46"/>
       <use x="95.410156" xlink:href="#DejaVuSans-48"/>
      </g>
     </g>
    </g>
   </g>
   <g id="matplotlib.axis_2">
    <g id="ytick_1">
     <g id="line2d_7">
      <defs>
       <path d="M 0 0 
L -3.5 0 
" id="md358704a96" style="stroke:#000000;stroke-width:0.8;"/>
      </defs>
      <g>
       <use style="stroke:#000000;stroke-width:0.8;" x="57.6" xlink:href="#md358704a96" y="290.061929"/>
      </g>
     </g>
     <g id="text_7">
      <!-- −3 -->
      <g transform="translate(35.857813 293.861148)scale(0.1 -0.1)">
       <defs>
        <path d="M 10.59375 35.5 
L 73.1875 35.5 
L 73.1875 27.203125 
L 10.59375 27.203125 
z
" id="DejaVuSans-8722"/>
        <path d="M 40.578125 39.3125 
Q 47.65625 37.796875 51.625 33 
Q 55.609375 28.21875 55.609375 21.1875 
Q 55.609375 10.40625 48.1875 4.484375 
Q 40.765625 -1.421875 27.09375 -1.421875 
Q 22.515625 -1.421875 17.65625 -0.515625 
Q 12.796875 0.390625 7.625 2.203125 
L 7.625 11.71875 
Q 11.71875 9.328125 16.59375 8.109375 
Q 21.484375 6.890625 26.8125 6.890625 
Q 36.078125 6.890625 40.9375 10.546875 
Q 45.796875 14.203125 45.796875 21.1875 
Q 45.796875 27.640625 41.28125 31.265625 
Q 36.765625 34.90625 28.71875 34.90625 
L 20.21875 34.90625 
L 20.21875 43.015625 
L 29.109375 43.015625 
Q 36.375 43.015625 40.234375 45.921875 
Q 44.09375 48.828125 44.09375 54.296875 
Q 44.09375 59.90625 40.109375 62.90625 
Q 36.140625 65.921875 28.71875 65.921875 
Q 24.65625 65.921875 20.015625 65.03125 
Q 15.375 64.15625 9.8125 62.3125 
L 9.8125 71.09375 
Q 15.4375 72.65625 20.34375 73.4375 
Q 25.25 74.21875 29.59375 74.21875 
Q 40.828125 74.21875 47.359375 69.109375 
Q 53.90625 64.015625 53.90625 55.328125 
Q 53.90625 49.265625 50.4375 45.09375 
Q 46.96875 40.921875 40.578125 39.3125 
z
" id="DejaVuSans-51"/>
       </defs>
       <use xlink:href="#DejaVuSans-8722"/>
       <use x="83.789062" xlink:href="#DejaVuSans-51"/>
      </g>
     </g>
    </g>
    <g id="ytick_2">
     <g id="line2d_8">
      <g>
       <use style="stroke:#000000;stroke-width:0.8;" x="57.6" xlink:href="#md358704a96" y="251.535446"/>
      </g>
     </g>
     <g id="text_8">
      <!-- −2 -->
      <g transform="translate(35.857813 255.334665)scale(0.1 -0.1)">
       <use xlink:href="#DejaVuSans-8722"/>
       <use x="83.789062" xlink:href="#DejaVuSans-50"/>
      </g>
     </g>
    </g>
    <g id="ytick_3">
     <g id="line2d_9">
      <g>
       <use style="stroke:#000000;stroke-width:0.8;" x="57.6" xlink:href="#md358704a96" y="213.008963"/>
      </g>
     </g>
     <g id="text_9">
      <!-- −1 -->
      <g transform="translate(35.857813 216.808182)scale(0.1 -0.1)">
       <use xlink:href="#DejaVuSans-8722"/>
       <use x="83.789062" xlink:href="#DejaVuSans-49"/>
      </g>
     </g>
    </g>
    <g id="ytick_4">
     <g id="line2d_10">
      <g>
       <use style="stroke:#000000;stroke-width:0.8;" x="57.6" xlink:href="#md358704a96" y="174.48248"/>
      </g>
     </g>
     <g id="text_10">
      <!-- 0 -->
      <g transform="translate(44.2375 178.281699)scale(0.1 -0.1)">
       <use xlink:href="#DejaVuSans-48"/>
      </g>
     </g>
    </g>
    <g id="ytick_5">
     <g id="line2d_11">
      <g>
       <use style="stroke:#000000;stroke-width:0.8;" x="57.6" xlink:href="#md358704a96" y="135.955997"/>
      </g>
     </g>
     <g id="text_11">
      <!-- 1 -->
      <g transform="translate(44.2375 139.755216)scale(0.1 -0.1)">
       <use xlink:href="#DejaVuSans-49"/>
      </g>
     </g>
    </g>
    <g id="ytick_6">
     <g id="line2d_12">
      <g>
       <use style="stroke:#000000;stroke-width:0.8;" x="57.6" xlink:href="#md358704a96" y="97.429514"/>
      </g>
     </g>
     <g id="text_12">
      <!-- 2 -->
      <g transform="translate(44.2375 101.228733)scale(0.1 -0.1)">
       <use xlink:href="#DejaVuSans-50"/>
      </g>
     </g>
    </g>
    <g id="ytick_7">
     <g id="line2d_13">
      <g>
       <use style="stroke:#000000;stroke-width:0.8;" x="57.6" xlink:href="#md358704a96" y="58.903031"/>
      </g>
     </g>
     <g id="text_13">
      <!-- 3 -->
      <g transform="translate(44.2375 62.702249)scale(0.1 -0.1)">
       <use xlink:href="#DejaVuSans-51"/>
      </g>
     </g>
    </g>
   </g>
   <g id="line2d_14">
    <path clip-path="url(#p10439e5fbd)" d="M 73.832727 168.167019 
L 74.395387 169.665844 
L 74.58294 169.995336 
L 74.958046 171.722749 
L 75.520706 172.637 
L 75.895812 171.004115 
L 76.458471 171.953651 
L 76.833578 172.287994 
L 77.396237 173.118158 
L 77.771343 172.788195 
L 78.334003 173.565574 
L 78.709109 172.940007 
L 79.084215 173.507891 
L 79.271768 173.607517 
L 79.646875 172.717724 
L 80.209534 173.585901 
L 80.58464 175.920015 
L 80.772194 175.966584 
L 81.1473 176.372355 
L 81.522406 174.932839 
L 81.709959 175.399735 
L 82.272619 175.953932 
L 83.022831 176.653667 
L 83.585491 177.019647 
L 83.773044 177.203314 
L 83.960597 176.954402 
L 84.14815 175.703654 
L 84.335703 175.202308 
L 84.523256 175.593973 
L 84.710809 175.681366 
L 84.898362 176.301012 
L 85.273469 178.705865 
L 85.461022 178.686657 
L 85.648575 178.884951 
L 85.836128 178.587518 
L 86.211234 176.636514 
L 86.398787 176.997875 
L 86.773894 177.368578 
L 87.149 178.017267 
L 88.461872 179.039337 
L 88.649425 178.665753 
L 89.024531 176.629779 
L 89.399638 177.063174 
L 89.58719 177.726962 
L 89.962297 180.458932 
L 90.14985 180.518401 
L 90.337403 180.747004 
L 90.524956 180.400377 
L 90.900062 178.648111 
L 91.462722 179.683854 
L 91.837828 181.3713 
L 92.212934 181.862707 
L 92.400488 181.819035 
L 92.588041 181.353901 
L 92.775594 181.229852 
L 93.338253 182.086522 
L 93.71336 182.473106 
L 94.088466 183.118836 
L 94.276019 183.109003 
L 94.463572 182.611415 
L 94.651125 182.475416 
L 95.213785 183.475403 
L 95.588891 183.845816 
L 96.15155 184.894696 
L 96.339103 184.974146 
L 96.526657 185.231843 
L 97.089316 186.637613 
L 97.464422 187.313621 
L 97.839529 188.536675 
L 98.027082 188.333764 
L 98.402188 186.343378 
L 99.152401 188.910808 
L 99.527507 190.407476 
L 100.840379 196.404182 
L 101.027932 196.246071 
L 101.215485 196.60485 
L 101.590592 199.048752 
L 101.778144 199.128881 
L 101.965698 197.271488 
L 102.153251 196.720413 
L 103.653676 207.581102 
L 103.841229 206.910042 
L 104.028783 207.441785 
L 104.403889 211.810383 
L 104.591442 212.019592 
L 104.778994 210.346702 
L 104.966547 210.996064 
L 105.341653 215.164117 
L 105.529206 215.98885 
L 105.716759 216.194742 
L 106.091865 219.219449 
L 106.466972 221.466838 
L 106.654525 221.706435 
L 107.029631 224.211713 
L 107.217185 225.417944 
L 107.404738 225.418497 
L 107.592291 224.931911 
L 107.779844 225.566572 
L 108.15495 227.701365 
L 108.342503 227.796431 
L 108.530056 227.600442 
L 108.71761 228.150801 
L 109.092716 229.666528 
L 109.467822 228.111347 
L 109.655375 228.353225 
L 110.030482 229.445809 
L 110.405588 228.979861 
L 110.780694 229.549479 
L 110.968247 229.908498 
L 111.530907 231.748572 
L 111.906013 232.008256 
L 112.281119 233.05408 
L 112.656225 233.201754 
L 112.843779 233.164467 
L 113.406438 232.521002 
L 113.781544 232.540245 
L 114.156651 233.235321 
L 114.531757 233.250741 
L 114.71931 233.083387 
L 115.094416 231.58046 
L 115.469523 231.283133 
L 115.657076 231.282855 
L 116.032182 232.232352 
L 116.219735 232.257509 
L 116.594841 232.028351 
L 117.157501 231.353525 
L 117.532607 231.086639 
L 118.28282 230.263675 
L 118.470373 230.244232 
L 118.845479 231.87454 
L 119.033032 231.829536 
L 119.408138 231.367968 
L 119.783245 229.977132 
L 120.158351 229.467312 
L 120.345904 229.440116 
L 120.72101 231.012505 
L 121.096117 230.717711 
L 121.28367 230.369649 
L 121.658776 228.83058 
L 122.033882 228.346895 
L 122.221435 228.385872 
L 122.596542 230.093799 
L 122.971648 229.851543 
L 123.159201 229.488541 
L 123.534307 227.836872 
L 123.909414 227.42465 
L 124.096966 227.604154 
L 124.472073 229.769299 
L 124.847179 229.569037 
L 125.034732 229.286317 
L 125.409839 228.184546 
L 125.784945 227.906896 
L 125.972498 228.065528 
L 126.347604 229.367579 
L 126.722711 229.244955 
L 126.910264 228.873622 
L 127.28537 227.063521 
L 127.472923 226.997508 
L 127.660476 226.777803 
L 127.848029 226.937831 
L 128.223135 228.969458 
L 128.410689 228.842636 
L 128.598242 228.910885 
L 128.785794 228.576288 
L 129.160901 226.227293 
L 129.348454 226.204002 
L 129.536007 226.062976 
L 129.72356 226.38723 
L 130.098667 228.46112 
L 130.473773 228.452584 
L 130.661326 228.164031 
L 131.036432 226.150042 
L 131.599092 226.235427 
L 131.974198 227.302599 
L 132.161751 227.242659 
L 132.349304 227.357068 
L 132.536857 227.113502 
L 132.911963 225.293972 
L 133.099516 225.445282 
L 133.28707 225.213412 
L 133.474623 225.360837 
L 133.849729 227.072629 
L 134.037282 226.921254 
L 134.224836 227.034406 
L 134.412388 226.767025 
L 134.787495 224.744619 
L 135.162601 224.850602 
L 135.350154 224.675268 
L 135.72526 223.86855 
L 137.038132 224.259219 
L 137.225685 224.487805 
L 137.600792 225.61044 
L 137.975898 225.563007 
L 138.163451 225.936511 
L 138.538557 227.941155 
L 138.726111 227.817169 
L 139.101216 228.145559 
L 139.28877 227.379081 
L 139.476323 227.114304 
L 139.663876 227.428616 
L 139.851429 227.419205 
L 140.789195 227.985287 
L 140.976748 227.943804 
L 141.351854 227.612654 
L 141.726961 227.78542 
L 141.914514 227.732105 
L 142.28962 227.359033 
L 142.852279 227.713971 
L 143.227386 228.41053 
L 143.602492 228.524135 
L 143.790045 228.185729 
L 144.165151 226.839528 
L 144.352704 226.946773 
L 144.540258 226.892909 
L 144.727811 227.196199 
L 145.102917 228.220067 
L 145.478023 228.02379 
L 145.665576 228.218818 
L 145.85313 228.843933 
L 146.040683 229.069311 
L 146.415789 228.767777 
L 146.603342 228.103546 
L 146.978448 225.976231 
L 147.166001 225.86843 
L 147.353555 225.599292 
L 147.541108 225.586902 
L 147.728661 225.834948 
L 147.916214 225.77305 
L 148.29132 225.124312 
L 148.478873 225.459508 
L 148.666427 226.672688 
L 148.85398 227.012364 
L 150.166852 223.708131 
L 150.354405 223.858001 
L 150.541958 224.813633 
L 150.729511 224.939494 
L 151.29217 222.834128 
L 151.667277 220.708791 
L 152.042383 219.403501 
L 152.229936 219.340321 
L 152.417489 220.037605 
L 152.605043 219.936741 
L 152.980149 218.288119 
L 153.167702 217.971516 
L 153.355255 218.240947 
L 153.542808 217.86439 
L 153.917915 215.982525 
L 154.105468 216.045456 
L 154.29302 217.006811 
L 154.480574 216.698789 
L 154.85568 214.450274 
L 155.418339 212.539812 
L 155.793446 210.033751 
L 155.981 210.116523 
L 156.168551 210.75955 
L 156.356106 209.80412 
L 156.731212 206.894837 
L 156.918765 206.857577 
L 157.106317 207.152279 
L 157.481424 204.176427 
L 157.85653 201.992086 
L 158.044084 201.425746 
L 158.606744 196.158225 
L 158.7943 196.385342 
L 158.981851 196.301724 
L 159.54451 190.07026 
L 159.732066 190.342759 
L 159.919618 189.983485 
L 160.482275 182.726957 
L 160.669831 183.020355 
L 160.857384 182.381144 
L 161.420041 175.253751 
L 161.607595 175.761189 
L 161.79515 174.727247 
L 162.170256 169.386725 
L 162.357807 168.195337 
L 162.545361 168.120463 
L 162.732915 166.719143 
L 163.108021 162.463775 
L 163.295574 162.339917 
L 163.483126 163.120338 
L 163.670681 162.232062 
L 164.045786 159.163584 
L 164.23334 159.387412 
L 164.420892 160.115865 
L 164.608446 159.442984 
L 165.546211 153.825088 
L 165.921318 152.471808 
L 166.67153 151.235911 
L 166.859083 151.047481 
L 167.046636 151.195611 
L 167.421743 151.66698 
L 167.609296 151.75249 
L 167.796849 151.966867 
L 168.359508 153.445338 
L 168.734615 154.626034 
L 169.859933 159.800036 
L 170.047487 160.297918 
L 170.610145 163.977919 
L 170.797703 163.005697 
L 170.985251 161.337896 
L 171.172806 162.140666 
L 171.547911 165.823746 
L 171.923018 164.137835 
L 172.860785 173.189888 
L 173.423442 179.241399 
L 173.610999 178.456879 
L 173.798551 178.246329 
L 174.36121 183.253509 
L 174.548763 182.227826 
L 174.736317 182.41384 
L 175.298976 186.650929 
L 175.486529 186.759677 
L 175.674083 187.49243 
L 176.236742 191.032752 
L 176.424295 191.246433 
L 176.799401 192.984198 
L 176.986955 194.138525 
L 177.174508 194.364231 
L 177.36206 193.677798 
L 177.549614 193.776676 
L 177.92472 195.443945 
L 178.112273 195.504573 
L 178.299826 194.788263 
L 178.487379 194.744455 
L 179.050039 196.734865 
L 179.425145 198.890065 
L 179.800251 199.688453 
L 179.987805 199.047379 
L 180.362911 196.526899 
L 180.738017 196.635795 
L 180.925571 197.204075 
L 181.300676 198.953552 
L 181.863336 198.774031 
L 182.050889 198.967433 
L 182.238442 198.922126 
L 182.988655 197.962138 
L 183.551314 197.242266 
L 183.738867 197.355362 
L 183.92642 197.771452 
L 184.113973 197.826884 
L 184.48908 197.566515 
L 184.676633 197.730484 
L 185.051739 198.250003 
L 185.239292 198.272076 
L 185.426845 198.41441 
L 185.614399 197.801777 
L 185.801951 196.667078 
L 185.989505 196.374538 
L 186.739717 197.321385 
L 187.302377 198.449381 
L 188.240143 202.475681 
L 188.427696 202.59898 
L 188.615248 202.362013 
L 188.802802 202.813483 
L 189.365462 204.723299 
L 189.553014 203.971241 
L 189.740568 204.412986 
L 190.115675 206.722552 
L 190.303228 206.883972 
L 190.490779 206.23301 
L 190.678334 206.949708 
L 191.240994 210.309439 
L 191.428545 210.031669 
L 191.80365 212.797888 
L 192.928975 225.972874 
L 193.116527 226.794777 
L 193.304082 228.127752 
L 194.616965 248.877062 
L 195.554726 268.075871 
L 197.430255 286.408996 
L 197.617809 286.985189 
L 198.368022 291.46863 
L 198.555575 291.023043 
L 198.743128 291.447127 
L 199.118234 292.983692 
L 199.305787 292.950757 
L 199.49334 292.406864 
L 199.680894 292.382248 
L 199.868447 292.521201 
L 200.056 292.440022 
L 200.431106 291.506393 
L 200.993765 289.694646 
L 201.181319 290.046861 
L 201.368871 290.916996 
L 201.556426 290.258572 
L 201.931532 287.387652 
L 202.119084 287.040828 
L 202.306637 287.511284 
L 202.494192 286.278215 
L 202.869297 281.76539 
L 203.05685 280.814363 
L 203.244403 281.119692 
L 203.431957 279.703652 
L 203.994615 271.811257 
L 204.182168 271.79117 
L 204.369723 270.116599 
L 204.932382 259.70029 
L 205.119937 258.016481 
L 205.495043 251.391798 
L 205.870153 244.339007 
L 206.057707 242.548504 
L 206.432814 235.346085 
L 207.183025 217.589575 
L 207.745685 208.444016 
L 208.308347 199.734351 
L 208.4959 200.10783 
L 208.683453 199.612082 
L 210.183878 179.06385 
L 210.558984 179.845375 
L 211.49675 176.092932 
L 211.684303 176.851151 
L 212.434515 183.180143 
L 212.997175 190.982053 
L 213.184728 190.624566 
L 213.372282 191.031986 
L 213.934944 199.012081 
L 214.122497 199.676291 
L 214.497604 205.390989 
L 214.87271 210.303611 
L 215.060264 210.874527 
L 215.810477 220.405326 
L 215.99803 221.069186 
L 216.560694 229.013806 
L 216.748247 229.392784 
L 216.935798 230.467252 
L 217.498461 237.346464 
L 217.686016 237.898334 
L 218.061123 242.625508 
L 218.248675 245.408869 
L 218.623781 247.359091 
L 219.186441 255.707943 
L 219.561545 257.971337 
L 220.124212 267.036548 
L 220.499309 271.996169 
L 220.874423 278.239313 
L 221.061978 279.969699 
L 221.249532 280.665562 
L 221.999744 288.163182 
L 222.187298 288.634122 
L 222.93751 294.154981 
L 223.125064 293.935147 
L 223.312616 294.930886 
L 223.50017 54.077836 
L 223.687722 55.298933 
L 223.875275 55.346239 
L 224.06283 54.798762 
L 224.437936 56.356126 
L 224.625488 57.435763 
L 224.813041 57.409222 
L 225.000595 56.70943 
L 225.188148 57.168892 
L 225.750807 59.577921 
L 226.125914 61.585372 
L 226.50102 62.647869 
L 226.688573 62.392453 
L 226.876127 61.677474 
L 227.063679 61.783675 
L 227.626339 63.120316 
L 228.001445 64.377966 
L 228.376551 64.929561 
L 228.564103 64.311329 
L 228.751658 63.163346 
L 228.939211 63.087239 
L 229.314317 63.556387 
L 229.876976 66.105052 
L 230.252083 66.579024 
L 230.439636 66.391748 
L 230.627189 65.964047 
L 230.814742 66.06903 
L 231.189848 66.621986 
L 231.377401 66.259038 
L 231.564955 65.503181 
L 231.752508 65.520389 
L 233.06538 67.775004 
L 233.252932 67.31241 
L 233.440486 66.424452 
L 233.628039 66.425263 
L 234.940911 68.541949 
L 235.128464 68.240319 
L 235.316018 67.646198 
L 235.50357 67.731917 
L 236.06623 68.841815 
L 236.441336 69.856483 
L 236.816443 70.418908 
L 237.003995 70.079293 
L 237.191549 69.449817 
L 237.379102 69.552152 
L 237.754208 70.183761 
L 237.941761 70.1471 
L 238.129315 69.970862 
L 238.504421 70.515643 
L 238.691974 70.81472 
L 239.06708 69.390993 
L 239.254633 69.50532 
L 239.62974 70.246264 
L 240.192399 73.708594 
L 240.567505 74.338669 
L 240.942612 72.458703 
L 241.130164 72.632295 
L 241.505271 73.473199 
L 242.06793 74.212776 
L 242.63059 75.776866 
L 243.005696 77.009289 
L 243.380802 77.912555 
L 243.568355 77.790959 
L 243.755909 77.517082 
L 244.131015 78.429492 
L 244.318568 78.873976 
L 244.693675 77.561629 
L 244.881227 77.907312 
L 245.256334 78.924354 
L 245.63144 78.509305 
L 246.194099 79.799239 
L 246.569206 78.648678 
L 247.694524 81.181242 
L 248.069631 82.235406 
L 248.63229 84.998796 
L 249.007397 85.667917 
L 249.382503 84.097669 
L 249.757609 84.873448 
L 249.945162 85.201877 
L 250.320268 85.08333 
L 250.882928 86.215029 
L 251.258034 85.87138 
L 251.63314 86.685789 
L 251.820694 87.319013 
L 252.1958 89.752929 
L 252.570906 90.696196 
L 252.758459 90.86672 
L 253.133566 88.670604 
L 253.696225 89.718397 
L 254.071331 89.491512 
L 254.633991 90.734301 
L 255.009097 90.971979 
L 255.384203 91.931008 
L 255.571756 91.97571 
L 255.946863 90.760239 
L 256.509522 92.002405 
L 256.697075 92.049748 
L 256.884628 92.246564 
L 257.447288 93.441454 
L 257.822394 93.776945 
L 258.385053 94.881267 
L 258.572606 94.945392 
L 258.76016 95.135277 
L 260.073032 97.676897 
L 260.260585 97.446756 
L 260.635691 95.905303 
L 261.010797 96.567757 
L 261.19835 97.356794 
L 261.573457 99.644435 
L 262.136116 100.448941 
L 262.323669 100.362838 
L 262.511222 100.44976 
L 262.886329 101.087794 
L 263.073882 100.614864 
L 263.448988 98.528603 
L 264.011647 99.339797 
L 264.386754 99.68078 
L 264.76186 100.253495 
L 264.949413 101.145984 
L 265.324519 103.456623 
L 265.699626 104.060063 
L 265.887179 103.774498 
L 266.074732 102.838408 
L 266.262285 102.512748 
L 266.637391 103.083817 
L 266.824944 102.769503 
L 267.012498 101.946609 
L 267.200051 101.757137 
L 267.76271 102.838459 
L 268.137816 103.935572 
L 268.700476 104.632219 
L 268.888029 104.628887 
L 269.263135 105.080736 
L 269.450688 105.382807 
L 269.638241 104.806248 
L 269.825795 103.707234 
L 270.013348 103.517722 
L 270.388454 104.120748 
L 271.138667 106.23384 
L 271.513773 107.008626 
L 271.888879 107.977253 
L 272.263985 108.606479 
L 272.451539 108.36558 
L 272.639092 107.790566 
L 272.826645 107.795302 
L 273.201751 108.433705 
L 273.389304 108.286114 
L 273.576857 107.930827 
L 273.764411 108.029749 
L 274.139517 108.568001 
L 274.702176 107.879918 
L 276.015048 109.259258 
L 276.577708 110.839945 
L 276.952814 110.922779 
L 277.515473 109.566528 
L 277.89058 109.443365 
L 278.453239 107.067027 
L 278.828345 106.72426 
L 279.203452 108.705356 
L 279.391005 108.671998 
L 279.953664 107.335513 
L 280.703877 105.073525 
L 281.078983 105.262032 
L 281.454089 104.010592 
L 281.641643 102.847743 
L 281.829196 102.933176 
L 282.016749 103.355499 
L 282.579408 100.524981 
L 282.954515 100.165062 
L 283.517174 96.476135 
L 283.892281 96.858102 
L 284.642494 91.73246 
L 284.830047 91.10267 
L 285.392707 86.995393 
L 285.58026 87.176064 
L 285.767813 86.737186 
L 286.14292 85.107181 
L 286.330473 85.000651 
L 286.705579 86.403426 
L 286.893132 86.256703 
L 287.080685 86.536271 
L 287.268238 86.344321 
L 287.455791 85.222505 
L 287.643344 84.950213 
L 287.830898 85.507239 
L 288.393557 89.847963 
L 290.081538 104.823689 
L 290.644198 108.972324 
L 290.831752 110.538833 
L 291.206857 111.896632 
L 291.769518 115.549799 
L 291.957072 115.947842 
L 292.519731 118.650285 
L 292.707284 118.545314 
L 292.894837 117.59059 
L 293.08239 117.595595 
L 293.457496 118.344348 
L 293.645049 118.318086 
L 293.832602 117.929313 
L 294.020155 117.819081 
L 294.207709 117.919971 
L 294.395262 117.804907 
L 294.582815 118.24837 
L 294.770368 119.519569 
L 294.957921 119.916748 
L 295.333027 119.098377 
L 295.52058 119.253099 
L 295.708133 120.067888 
L 295.895686 119.852736 
L 296.270793 118.735213 
L 298.333877 113.771977 
L 298.52143 114.048768 
L 298.708983 113.823281 
L 299.08409 112.789012 
L 299.271643 113.266313 
L 299.459196 114.365597 
L 299.646749 114.290611 
L 300.021855 113.340054 
L 300.209408 113.65172 
L 300.396962 114.229581 
L 300.584515 114.021608 
L 301.147174 112.590633 
L 301.52228 111.491034 
L 301.897387 110.922561 
L 302.460046 112.219406 
L 302.835152 111.710539 
L 303.022705 111.894685 
L 303.210259 112.254337 
L 303.397812 112.201832 
L 303.772918 111.753453 
L 304.335577 108.598349 
L 304.710683 108.35858 
L 305.273343 109.437351 
L 305.648449 108.992707 
L 306.211109 109.019399 
L 306.586215 108.445811 
L 307.336427 106.335454 
L 307.52398 106.008464 
L 307.899087 106.582612 
L 308.08664 106.265127 
L 308.461746 105.091841 
L 308.836852 104.700131 
L 309.587065 102.654235 
L 309.774618 102.877773 
L 309.962171 102.260264 
L 310.337278 100.381835 
L 310.524831 100.512416 
L 310.712384 100.90441 
L 310.899937 100.171814 
L 311.275043 97.876681 
L 311.462597 98.199733 
L 311.65015 98.869129 
L 311.837703 97.996654 
L 312.400362 94.130892 
L 312.587915 93.279301 
L 313.150575 88.517643 
L 313.338128 88.773132 
L 313.525681 89.232538 
L 313.900788 85.430167 
L 314.088341 83.772184 
L 314.275895 84.072233 
L 314.463448 84.128905 
L 315.026107 78.4275 
L 315.213661 79.372661 
L 315.401214 79.614982 
L 315.963874 74.818249 
L 316.151427 75.181337 
L 316.33898 74.81943 
L 317.089193 69.107386 
L 317.839405 64.241013 
L 318.026958 64.487008 
L 318.214511 64.186385 
L 318.777171 61.230129 
L 318.964724 61.963329 
L 319.152277 61.942815 
L 319.527383 59.750691 
L 319.714937 59.649511 
L 319.90249 60.497599 
L 320.090043 60.315348 
L 320.652702 57.763511 
L 320.840255 57.374022 
L 321.402915 55.042902 
L 321.590468 55.110787 
L 321.778021 55.70237 
L 321.965574 55.429719 
L 322.34068 54.032614 
L 322.715787 55.447486 
L 322.90334 55.174953 
L 323.278446 53.90186 
L 323.465999 295.451899 
L 324.216212 293.4061 
L 324.403765 293.631971 
L 324.591318 294.086708 
L 324.778871 293.878014 
L 325.153977 292.846411 
L 325.716637 288.854983 
L 326.091743 288.134278 
L 326.466849 288.606232 
L 326.654403 288.473621 
L 327.029509 287.578578 
L 327.592168 290.566372 
L 327.779721 290.331844 
L 327.967274 289.847957 
L 328.342381 286.304002 
L 328.529934 285.768002 
L 329.092593 285.392898 
L 329.655253 285.135907 
L 329.842806 285.069519 
L 330.405465 285.40177 
L 330.593018 285.328377 
L 330.780571 285.458059 
L 331.155678 287.89308 
L 331.530784 288.15885 
L 331.90589 288.482839 
L 332.656103 289.378882 
L 333.218762 290.884126 
L 333.593868 291.563587 
L 333.968975 289.439448 
L 334.156528 289.627165 
L 334.531634 290.776106 
L 334.906741 289.262578 
L 336.407166 293.816476 
L 336.782272 295.199206 
L 336.969825 53.755348 
L 337.344931 54.851285 
L 337.532485 53.879728 
L 337.720038 295.488 
L 337.907591 54.099389 
L 338.282697 55.299088 
L 338.47025 54.905966 
L 338.657803 54.936468 
L 339.408016 57.286645 
L 339.970675 58.724296 
L 340.158228 58.750353 
L 340.533335 57.658744 
L 340.908441 58.171994 
L 341.095994 57.759056 
L 341.4711 55.879291 
L 341.658653 55.919178 
L 341.846206 55.711819 
L 342.03376 56.017396 
L 342.221313 57.107652 
L 342.408866 57.519244 
L 342.971525 56.591093 
L 343.159078 56.825331 
L 343.346632 56.633155 
L 343.534185 56.078995 
L 343.909291 54.626383 
L 344.096844 55.025858 
L 344.284397 54.610251 
L 344.47195 53.568 
L 344.659504 294.576725 
L 344.847056 294.053088 
L 345.03461 294.144546 
L 345.409716 292.117832 
L 345.784822 289.218171 
L 345.972376 288.672492 
L 346.722589 282.782658 
L 346.910142 282.310633 
L 347.472802 278.131715 
L 347.660356 277.921958 
L 347.847908 278.06397 
L 348.410568 274.34625 
L 348.598122 274.214488 
L 348.785674 274.241678 
L 349.348334 270.811986 
L 349.72344 271.2078 
L 350.286099 268.124926 
L 350.661206 268.467624 
L 351.223865 265.533098 
L 351.411419 265.419666 
L 351.598972 265.137691 
L 352.161631 262.406193 
L 352.349184 262.857956 
L 352.536738 262.896172 
L 352.911844 260.978696 
L 353.099397 260.377892 
L 353.28695 260.628956 
L 353.474503 260.504644 
L 354.037163 258.116867 
L 354.224716 257.975896 
L 355.350035 252.492478 
L 355.537588 252.441512 
L 355.725141 252.249222 
L 355.912694 252.60443 
L 356.2878 254.386537 
L 356.475354 254.41624 
L 356.662907 254.656931 
L 356.85046 254.425702 
L 357.038013 253.543075 
L 357.225566 253.33908 
L 357.788226 254.819281 
L 357.975779 255.070523 
L 358.350885 256.457897 
L 358.725991 257.863769 
L 358.913545 257.422336 
L 359.101098 257.844058 
L 359.663757 261.975109 
L 359.85131 262.289349 
L 360.038864 263.38616 
L 360.601522 269.037606 
L 360.789076 268.902698 
L 360.97663 269.718796 
L 361.726843 279.178441 
L 361.914395 281.074647 
L 362.664613 293.938008 
L 362.852164 54.587085 
L 364.165043 80.465293 
L 364.540148 84.211412 
L 364.915256 90.966552 
L 365.102809 91.963476 
L 365.290363 92.08695 
L 365.477916 94.020511 
L 365.853021 100.509178 
L 366.040574 101.740289 
L 366.228128 101.860681 
L 366.41568 103.424401 
L 366.790786 108.3233 
L 366.97834 109.126459 
L 367.165893 108.81306 
L 367.353446 109.380517 
L 367.728552 111.557827 
L 367.916105 112.032897 
L 368.103659 112.155393 
L 368.478765 113.030775 
L 368.666318 113.45571 
L 368.853871 113.468941 
L 369.041424 113.141951 
L 369.228977 113.100766 
L 369.604084 113.393958 
L 370.166743 113.590358 
L 370.541849 113.578105 
L 370.729403 113.78367 
L 372.042274 116.613542 
L 372.417381 118.365232 
L 372.604934 118.490907 
L 372.792487 118.127738 
L 372.98004 118.764738 
L 373.355146 121.643821 
L 373.542699 121.631979 
L 373.730253 120.689787 
L 373.917806 121.542211 
L 374.292912 125.690324 
L 374.480465 125.824597 
L 374.668019 124.984565 
L 374.855571 126.517763 
L 375.230678 131.996128 
L 375.605785 133.91848 
L 376.355999 142.958748 
L 376.543553 143.309608 
L 377.106215 150.488362 
L 377.293768 150.259668 
L 377.48132 151.125361 
L 377.856428 155.581384 
L 378.043981 156.391059 
L 378.231534 155.770786 
L 378.419087 156.108616 
L 378.794194 158.31312 
L 378.981747 158.678218 
L 379.356853 158.177212 
L 379.544406 158.3579 
L 379.731959 158.21551 
L 379.919512 158.626325 
L 380.107065 159.843851 
L 380.294618 160.148985 
L 380.669725 158.818099 
L 380.857278 159.097313 
L 381.044831 160.294501 
L 381.232384 160.416896 
L 381.60749 159.305817 
L 382.357703 154.953944 
L 382.545256 154.418363 
L 382.732809 154.637778 
L 382.920362 155.58521 
L 383.107915 155.791324 
L 383.483022 155.150263 
L 383.670575 155.075556 
L 383.858128 155.199524 
L 384.233234 154.925943 
L 384.420787 154.706486 
L 384.60834 154.967838 
L 384.795894 155.553843 
L 384.983447 155.689196 
L 385.358553 155.540733 
L 385.546106 156.029581 
L 385.733659 156.82878 
L 385.921212 157.086568 
L 386.108766 157.118454 
L 386.296319 157.282747 
L 386.483872 156.625514 
L 386.671425 155.455293 
L 386.858978 155.187224 
L 387.234084 155.574269 
L 388.17185 157.765411 
L 388.359403 157.682799 
L 388.546956 157.257219 
L 388.734509 157.428034 
L 389.109616 158.502233 
L 389.297169 158.100877 
L 389.484722 157.079749 
L 389.672275 157.240538 
L 390.985147 160.642397 
L 391.1727 160.771539 
L 391.360253 160.721882 
L 391.73536 161.51049 
L 391.922913 162.10011 
L 392.298019 160.537499 
L 392.673125 161.245994 
L 392.860678 161.68123 
L 393.235785 161.676087 
L 393.798444 162.834729 
L 394.548657 164.689947 
L 394.73621 165.082373 
L 395.111316 165.20564 
L 395.673976 166.287606 
L 396.049082 165.204761 
L 396.611741 166.169876 
L 396.986848 165.826764 
L 397.549507 166.758435 
L 398.112166 168.357511 
L 398.487273 168.735422 
L 398.487273 168.735422 
" style="fill:none;stroke:#1f77b4;stroke-linecap:square;stroke-width:1.5;"/>
   </g>
   <g id="line2d_15">
    <path clip-path="url(#p10439e5fbd)" d="M 73.832727 168.067632 
L 74.415341 168.072807 
L 75.192158 170.081719 
L 76.357385 170.661012 
L 76.745793 172.245537 
L 79.076247 172.213732 
L 79.464655 172.568903 
L 79.853064 173.523956 
L 80.241473 173.598892 
L 80.629882 174.220895 
L 81.4067 174.425748 
L 82.377722 174.409049 
L 84.90238 174.682392 
L 86.844422 177.845511 
L 87.621238 179.71846 
L 88.203851 179.575848 
L 88.980669 179.552425 
L 89.563282 179.607684 
L 90.340099 180.948363 
L 91.505326 180.997287 
L 92.282143 181.802744 
L 92.670552 181.955439 
L 93.253163 183.237835 
L 93.835775 184.07635 
L 94.224183 184.788123 
L 94.612592 184.892764 
L 95.195204 185.747097 
L 95.583612 186.210214 
L 96.166225 187.099569 
L 96.554634 187.264418 
L 96.94304 188.270452 
L 97.331449 188.431531 
L 97.914056 190.133574 
L 98.108261 190.482326 
L 98.690874 190.507198 
L 98.885079 190.561684 
L 99.273487 191.015939 
L 100.827123 191.15732 
L 101.215532 191.417455 
L 101.603941 191.237925 
L 101.992347 192.015071 
L 102.380756 192.099133 
L 102.769164 191.151208 
L 103.157573 191.254004 
L 103.545979 192.211023 
L 103.934344 195.960392 
L 104.322503 204.36109 
L 104.710908 205.733578 
L 105.098835 216.57832 
L 105.875568 223.015143 
L 106.263919 226.67864 
L 106.652328 226.835506 
L 107.040734 227.689081 
L 107.623347 227.472614 
L 111.701641 227.553652 
L 112.672663 227.687731 
L 113.255277 227.792612 
L 114.808913 227.787611 
L 115.779935 227.754904 
L 116.945162 227.757318 
L 123.548114 227.58871 
L 124.324932 227.545528 
L 125.684364 227.454252 
L 129.374249 227.268723 
L 130.345271 227.140186 
L 132.093111 227.003683 
L 133.258338 226.968833 
L 134.229361 226.843431 
L 134.617769 226.504816 
L 143.551175 226.293735 
L 144.716402 226.2873 
L 145.49322 226.222656 
L 147.046856 226.249622 
L 147.435265 226.236787 
L 148.017878 226.01952 
L 148.9889 226.004333 
L 151.319354 225.936145 
L 152.096172 225.849734 
L 152.87299 226.001491 
L 153.455602 225.664053 
L 153.649806 225.522714 
L 154.23242 225.601263 
L 154.426624 225.45941 
L 155.00913 221.848651 
L 155.397523 219.868759 
L 155.591728 218.993776 
L 155.979995 215.15025 
L 156.368393 213.897431 
L 157.145123 209.527742 
L 157.533504 207.683097 
L 157.921838 204.898342 
L 158.310241 204.040206 
L 158.69863 202.621794 
L 159.281239 201.858381 
L 159.863852 201.567224 
L 161.028982 195.782841 
L 161.417048 190.172098 
L 161.61125 189.895874 
L 161.805454 189.070748 
L 162.193426 182.667841 
L 162.581777 179.974427 
L 163.55226 169.014736 
L 163.746464 167.604274 
L 164.328804 161.975749 
L 164.717188 160.077383 
L 164.911393 159.479886 
L 165.299801 159.736045 
L 166.076619 159.706943 
L 166.853437 159.604487 
L 167.824459 159.315878 
L 168.795481 159.280247 
L 170.154912 159.538504 
L 170.93173 159.625655 
L 172.096957 159.692563 
L 172.485364 159.956772 
L 172.679569 160.207611 
L 172.873763 160.694123 
L 173.067968 161.661508 
L 173.456037 166.898536 
L 173.844413 168.819416 
L 175.009228 179.998401 
L 175.396569 188.847634 
L 175.590755 189.479043 
L 175.78496 190.573967 
L 176.173045 195.515473 
L 176.561405 197.402957 
L 176.949813 197.443936 
L 177.338221 197.79249 
L 178.115039 197.850615 
L 179.086061 197.640261 
L 179.474469 197.594626 
L 179.862878 197.621151 
L 181.804922 198.198354 
L 182.775944 198.410757 
L 185.689011 198.49238 
L 187.631056 198.562419 
L 188.407874 198.719509 
L 189.5731 198.890915 
L 190.155713 199.034582 
L 190.544122 198.992409 
L 190.93253 199.191926 
L 191.515143 198.990509 
L 192.097756 199.125868 
L 192.291957 198.840189 
L 192.486161 199.000262 
L 192.874463 201.710656 
L 193.26285 203.259216 
L 193.45696 204.650007 
L 193.651164 206.896858 
L 194.038464 215.60476 
L 194.232508 217.38771 
L 194.426712 220.88145 
L 194.811796 235.02072 
L 195.005904 236.395361 
L 195.200109 238.818113 
L 196.748781 275.87111 
L 197.136561 281.219836 
L 197.524962 280.645682 
L 198.107575 280.872226 
L 198.690187 281.303644 
L 199.078593 281.745606 
L 200.243818 282.178382 
L 201.991658 281.950706 
L 202.380066 281.753323 
L 203.545292 281.218631 
L 203.933701 281.109109 
L 204.127905 281.201017 
L 204.322103 281.530077 
L 204.516308 280.862944 
L 205.485889 268.238806 
L 207.033461 229.929775 
L 207.807412 210.454168 
L 208.389023 199.508843 
L 208.777198 195.343543 
L 209.165092 190.981539 
L 209.553499 191.222532 
L 209.747703 191.137023 
L 209.941908 190.839106 
L 210.330297 189.859327 
L 210.7187 189.390976 
L 211.107109 189.364093 
L 211.495517 189.168988 
L 211.883926 189.274521 
L 212.854938 190.41497 
L 213.049143 190.421942 
L 213.243346 190.291282 
L 213.43755 191.621618 
L 214.213209 204.678391 
L 214.599736 213.798558 
L 214.793714 215.663211 
L 215.56911 227.457046 
L 216.151563 231.190265 
L 216.734177 231.140638 
L 217.122585 231.244181 
L 217.510988 231.732602 
L 217.705193 232.876195 
L 217.899138 234.868119 
L 218.868572 251.689337 
L 220.027852 282.231508 
L 220.221849 284.021718 
L 220.803432 293.033673 
L 220.997626 293.44763 
L 221.19183 295.010729 
L 221.385634 55.432444 
L 221.579839 56.700318 
L 221.774038 56.988339 
L 222.550815 59.084005 
L 222.745019 59.144084 
L 223.133427 58.963708 
L 223.327631 59.018914 
L 223.716032 59.600142 
L 224.298634 60.698191 
L 224.68704 60.999964 
L 225.463858 61.083898 
L 225.852267 61.287318 
L 226.240674 61.523567 
L 226.823287 61.485945 
L 227.211693 61.817354 
L 227.7943 62.615281 
L 228.182708 62.671803 
L 228.571117 62.633394 
L 229.736343 62.92931 
L 229.930547 62.835177 
L 230.124751 63.046016 
L 230.901535 64.781279 
L 231.289944 64.677044 
L 231.678353 64.699843 
L 231.872557 64.660034 
L 232.066762 64.88846 
L 232.843556 66.335325 
L 233.231965 66.269379 
L 234.008782 66.404501 
L 234.591387 67.205287 
L 234.785591 67.270346 
L 235.174 67.18383 
L 235.950818 67.361775 
L 237.698642 69.286696 
L 238.475459 69.719865 
L 239.640686 69.805811 
L 239.83489 70.235059 
L 240.417459 71.950305 
L 240.805867 72.299538 
L 241.388479 72.695295 
L 241.582683 72.692858 
L 242.359496 73.322618 
L 242.747882 74.313293 
L 243.330435 76.623786 
L 243.524638 76.812394 
L 244.495446 81.831759 
L 245.854844 84.109997 
L 246.437454 84.836091 
L 246.825862 85.088644 
L 248.379497 85.412187 
L 248.767902 86.038876 
L 249.156297 86.760425 
L 249.544706 86.891298 
L 251.680955 86.972159 
L 252.651976 87.536565 
L 253.428789 88.487537 
L 253.817185 89.124272 
L 254.01139 89.161867 
L 254.788203 89.822442 
L 255.176594 90.734189 
L 255.759166 92.607371 
L 255.95337 92.647727 
L 256.730179 93.555664 
L 257.895404 94.018682 
L 259.254836 94.151967 
L 259.44904 94.103136 
L 259.643244 94.418535 
L 260.225827 95.913792 
L 260.420031 96.02257 
L 260.808439 95.867877 
L 261.779461 96.063868 
L 262.16787 96.224498 
L 262.556275 96.643939 
L 263.527155 101.069709 
L 264.303953 102.399801 
L 264.692362 102.324961 
L 265.46918 102.462241 
L 266.245995 103.132466 
L 266.634399 103.58924 
L 267.022807 103.774688 
L 277.12144 103.91228 
L 278.092462 103.730534 
L 278.675076 103.717813 
L 279.257688 103.934249 
L 279.840301 103.649424 
L 280.228709 103.501623 
L 280.811323 103.520656 
L 281.782345 103.499182 
L 283.72439 103.402055 
L 283.91859 103.133236 
L 284.889464 98.517231 
L 285.277873 98.26831 
L 286.054687 97.648236 
L 286.6373 97.45983 
L 287.219913 97.471277 
L 287.608322 97.383026 
L 287.802526 97.43491 
L 288.190928 98.022336 
L 288.57929 99.638326 
L 289.744238 107.005042 
L 290.132627 108.392945 
L 290.326832 108.620873 
L 291.10365 108.754571 
L 291.686263 108.862885 
L 292.074671 109.099243 
L 292.657278 109.862697 
L 293.045687 109.94323 
L 293.434096 109.868992 
L 294.210913 109.878657 
L 294.599322 109.82539 
L 295.958753 109.958107 
L 298.095002 109.353967 
L 298.677613 108.949121 
L 299.066022 108.899561 
L 299.648635 109.016994 
L 300.425453 108.907088 
L 300.813862 108.885401 
L 301.396474 108.585889 
L 301.979088 108.710824 
L 302.367496 108.81904 
L 303.532723 108.749898 
L 303.921132 108.573082 
L 304.309539 108.355545 
L 305.086357 108.378199 
L 305.668971 108.299266 
L 306.834197 108.228857 
L 307.611015 108.178672 
L 308.193626 107.672141 
L 308.776239 107.659504 
L 309.747262 107.617911 
L 310.13567 107.581127 
L 310.329875 107.65335 
L 310.912487 107.460131 
L 311.300896 107.505496 
L 311.4951 107.44095 
L 312.077703 106.491885 
L 312.271907 106.43664 
L 312.660238 104.345576 
L 313.436842 98.668809 
L 314.018819 90.297899 
L 314.212916 88.861474 
L 315.183184 76.530034 
L 315.571434 72.452171 
L 315.959529 68.798026 
L 316.153709 68.109302 
L 316.93037 63.331482 
L 317.318778 62.891738 
L 318.095595 62.516054 
L 318.678191 61.203862 
L 318.872395 61.095874 
L 319.454984 59.554844 
L 319.843392 59.135386 
L 320.425995 58.16583 
L 320.814404 58.11906 
L 321.591221 58.018286 
L 322.562244 57.822652 
L 322.950651 57.604777 
L 324.310083 57.582216 
L 325.281091 55.625331 
L 325.47527 54.905652 
L 325.669474 295.44925 
L 326.057732 292.800948 
L 326.446125 291.973504 
L 326.834533 291.774213 
L 327.805556 291.70308 
L 328.582374 291.755576 
L 329.553396 291.557143 
L 331.107032 291.637839 
L 331.689645 291.712392 
L 333.049076 291.71437 
L 336.544757 291.809244 
L 337.515779 291.842059 
L 338.098392 292.026201 
L 338.486801 292.108119 
L 338.681005 292.23546 
L 339.65198 295.44685 
L 339.846177 53.79521 
L 340.234586 53.887375 
L 341.399813 53.951323 
L 345.283903 53.870224 
L 345.478107 295.021673 
L 345.672254 293.870138 
L 346.254639 288.776348 
L 346.44884 288.49121 
L 347.031073 282.025702 
L 347.225267 281.519007 
L 348.001983 277.269246 
L 348.390383 276.247897 
L 348.97293 273.431799 
L 349.167132 273.160325 
L 349.749671 270.200466 
L 349.943873 269.934655 
L 350.914818 266.000194 
L 351.109023 266.005308 
L 351.691632 265.380327 
L 352.662655 265.181877 
L 353.245266 264.510699 
L 353.633672 264.079733 
L 354.02208 263.787583 
L 354.216283 263.566095 
L 355.964123 263.2573 
L 356.546735 262.887949 
L 358.488779 263.166021 
L 359.459801 263.473917 
L 359.654006 263.419387 
L 360.819232 263.886193 
L 361.207641 263.851315 
L 361.596041 264.736978 
L 361.984438 263.824497 
L 363.147136 291.829787 
L 363.34134 53.851243 
L 363.535065 57.773474 
L 364.116271 73.614779 
L 364.310338 75.881407 
L 364.697162 93.267819 
L 365.27968 102.649777 
L 365.473395 107.496987 
L 365.86173 111.352731 
L 366.250129 112.899783 
L 366.638536 113.579967 
L 367.026943 112.854654 
L 368.580579 112.871083 
L 371.299442 112.828016 
L 372.07626 112.768067 
L 372.464669 112.969987 
L 372.853077 112.64647 
L 373.241483 113.515565 
L 374.018286 116.115034 
L 374.600732 123.978239 
L 374.794894 125.512928 
L 375.37737 133.181646 
L 376.34829 141.308434 
L 376.736597 147.283397 
L 377.12479 156.916878 
L 377.318994 156.679477 
L 377.513197 156.251521 
L 378.095811 156.468427 
L 378.48422 156.477729 
L 379.066833 156.501391 
L 379.843651 156.538493 
L 387.223421 156.851207 
L 388.000239 157.884823 
L 388.582851 158.953326 
L 389.165464 159.697277 
L 389.942281 160.938896 
L 390.524891 163.412563 
L 390.719095 163.872104 
L 391.495912 164.07 
L 391.884321 164.640887 
L 392.27273 165.629969 
L 392.661139 165.958706 
L 393.437956 166.012965 
L 394.214774 166.084898 
L 395.380001 166.038339 
L 395.76841 166.232304 
L 396.156819 167.144174 
L 398.098864 167.836699 
L 398.487273 167.841428 
L 398.487273 167.841428 
" style="fill:none;stroke:#ff7f0e;stroke-linecap:square;stroke-width:1.5;"/>
   </g>
   <g id="line2d_16">
    <path clip-path="url(#p10439e5fbd)" d="M 73.832727 167.092723 
L 74.023142 167.092723 
L 82.020545 173.099538 
L 88.685047 178.516433 
L 91.922091 181.408467 
L 93.445406 183.217078 
L 94.96872 185.431393 
L 96.682448 188.412402 
L 98.396176 191.788089 
L 100.300318 196.230631 
L 102.204458 201.348769 
L 103.918184 206.638877 
L 108.107289 219.981945 
L 109.249773 222.723626 
L 110.392258 224.942264 
L 111.344329 226.405393 
L 112.486815 227.677417 
L 113.438887 228.318611 
L 114.581373 228.795051 
L 116.295102 229.221279 
L 118.38966 229.500196 
L 120.674633 229.558643 
L 127.910379 229.505728 
L 134.95571 229.230433 
L 142.191456 228.698357 
L 146.380572 228.232912 
L 147.713473 227.792114 
L 148.665544 227.253416 
L 149.617616 226.389482 
L 150.569687 225.212715 
L 151.712171 223.363302 
L 153.045068 220.597503 
L 154.18755 217.71077 
L 155.520442 213.801748 
L 156.853334 209.132296 
L 158.186217 203.650096 
L 159.709508 196.170232 
L 161.232788 187.289031 
L 162.756055 176.590972 
L 163.898511 169.110842 
L 165.040979 163.313838 
L 165.993044 159.690733 
L 166.754697 157.559196 
L 167.325938 156.395592 
L 168.087595 155.479257 
L 168.658838 155.271995 
L 169.039667 155.33981 
L 169.420495 155.584013 
L 169.801324 156.004842 
L 170.372566 156.946944 
L 171.13422 158.850547 
L 172.086286 162.244286 
L 172.847934 165.714374 
L 173.799984 170.957545 
L 175.132864 177.93053 
L 176.465746 183.755334 
L 177.798636 188.544534 
L 178.941116 191.83103 
L 179.893184 194.011088 
L 180.845254 195.660659 
L 181.606911 196.620472 
L 182.178153 197.13324 
L 182.939811 197.514524 
L 183.701468 197.573959 
L 184.65354 197.335623 
L 185.98644 196.840339 
L 186.748098 196.970886 
L 187.509755 197.459638 
L 188.271412 198.313575 
L 189.033068 199.640359 
L 189.794721 201.660396 
L 190.746785 205.288152 
L 191.508431 209.055447 
L 192.270069 213.688566 
L 193.222097 220.748011 
L 194.364513 231.535192 
L 195.316517 243.185911 
L 197.601264 273.906851 
L 198.362892 280.771138 
L 199.124534 285.932114 
L 199.695769 288.766115 
L 200.267011 290.554088 
L 200.647839 291.248258 
L 200.838253 291.487099 
L 201.219081 291.540549 
L 201.59991 291.16838 
L 202.171153 289.773673 
L 202.55198 288.365482 
L 203.123216 285.54467 
L 203.884859 280.311578 
L 204.836908 271.28985 
L 205.598531 261.874659 
L 206.360142 249.811003 
L 207.502571 227.388054 
L 208.645007 206.399703 
L 209.406637 196.303712 
L 209.977871 190.681012 
L 210.739519 185.929523 
L 211.310761 184.37319 
L 211.501175 184.099027 
L 211.882004 184.265062 
L 212.262832 185.132405 
L 212.834069 187.811309 
L 213.214891 190.412532 
L 213.786124 195.531078 
L 217.403809 235.308744 
L 219.11744 253.804317 
L 220.831014 273.418102 
L 221.783046 281.896182 
L 222.925491 289.910697 
L 223.87754 295.056999 
L 224.067954 53.887715 
L 225.020015 57.459906 
L 225.591256 59.030954 
L 226.352911 60.405231 
L 227.685811 61.974316 
L 233.398237 68.14641 
L 244.442263 79.587283 
L 247.488891 82.689874 
L 259.48499 95.369786 
L 265.959075 102.374648 
L 267.672804 103.73889 
L 269.005704 104.565369 
L 270.529019 105.23749 
L 272.052334 105.621769 
L 273.575649 105.718134 
L 275.098964 105.527928 
L 276.622279 105.049545 
L 278.145593 104.290022 
L 279.668908 103.239142 
L 281.192223 101.906501 
L 282.905952 100.055068 
L 285.000509 97.648965 
L 285.571752 97.419726 
L 285.952581 97.418852 
L 286.333409 97.545972 
L 286.714238 97.8006 
L 287.285481 98.408414 
L 288.047138 99.686877 
L 288.999209 101.92832 
L 290.712936 106.130743 
L 292.23625 109.225455 
L 293.759565 111.684803 
L 295.092465 113.322915 
L 296.044537 114.210963 
L 297.187023 114.958004 
L 298.329509 115.379817 
L 299.281581 115.470153 
L 300.233652 115.342351 
L 301.376139 114.885772 
L 302.518625 114.092053 
L 303.661111 112.974173 
L 304.803597 111.523047 
L 306.136497 109.399955 
L 307.278983 107.210021 
L 308.421469 104.587225 
L 309.75437 100.957564 
L 311.277684 96.02355 
L 312.800999 90.215882 
L 314.514728 82.605717 
L 316.038042 75.918222 
L 317.561357 70.124207 
L 319.084672 65.11515 
L 320.607986 60.768884 
L 322.131301 56.97656 
L 323.464202 54.117596 
L 323.654616 53.747351 
L 323.84503 295.446106 
L 325.368345 292.858603 
L 326.89166 290.871834 
L 328.224561 289.536713 
L 329.176632 288.849927 
L 330.319119 288.335411 
L 331.461605 288.158942 
L 332.413677 288.282897 
L 333.175334 288.551387 
L 334.127406 289.101096 
L 335.269892 290.084892 
L 336.412378 291.415305 
L 337.745278 293.407255 
L 338.887764 295.460457 
L 339.078178 53.752743 
L 340.03025 55.309416 
L 340.601492 55.882099 
L 341.172736 56.097656 
L 341.553564 56.074122 
L 341.934393 55.907244 
L 342.315222 55.597151 
L 342.886465 54.881287 
L 343.457708 53.80873 
L 343.648122 295.472159 
L 344.600192 292.798858 
L 345.361848 290.050055 
L 346.123503 286.751208 
L 348.979706 273.655333 
L 350.503017 268.227938 
L 352.026329 263.736926 
L 353.359228 260.599745 
L 354.501714 258.463147 
L 355.453785 257.116234 
L 356.215442 256.378678 
L 356.786685 256.155406 
L 356.9771 256.150319 
L 357.548343 256.63503 
L 357.929171 257.255154 
L 358.31 258.173961 
L 358.690828 259.428514 
L 359.262067 261.892868 
L 360.023718 266.361765 
L 360.975779 273.914812 
L 361.737421 281.762793 
L 362.499059 291.288059 
L 362.689464 293.927811 
L 362.879878 54.869799 
L 364.593584 80.585559 
L 365.545639 91.146438 
L 366.497702 99.476626 
L 367.449765 105.891377 
L 368.211419 109.856971 
L 368.782661 112.178403 
L 369.734732 114.807534 
L 370.877216 117.917719 
L 372.0197 121.547871 
L 373.352598 126.46619 
L 374.875908 132.978118 
L 376.208802 139.694085 
L 377.732111 147.419812 
L 378.493766 150.353485 
L 379.065009 152.063769 
L 379.826666 153.643421 
L 380.588323 154.486566 
L 385.539096 157.934132 
L 391.82277 162.131819 
L 396.2023 165.173782 
L 398.487273 166.817193 
L 398.487273 166.817193 
" style="fill:none;stroke:#2ca02c;stroke-linecap:square;stroke-width:1.5;"/>
   </g>
   <g id="patch_3">
    <path d="M 57.6 307.584 
L 57.6 41.472 
" style="fill:none;stroke:#000000;stroke-linecap:square;stroke-linejoin:miter;stroke-width:0.8;"/>
   </g>
   <g id="patch_4">
    <path d="M 414.72 307.584 
L 414.72 41.472 
" style="fill:none;stroke:#000000;stroke-linecap:square;stroke-linejoin:miter;stroke-width:0.8;"/>
   </g>
   <g id="patch_5">
    <path d="M 57.6 307.584 
L 414.72 307.584 
" style="fill:none;stroke:#000000;stroke-linecap:square;stroke-linejoin:miter;stroke-width:0.8;"/>
   </g>
   <g id="patch_6">
    <path d="M 57.6 41.472 
L 414.72 41.472 
" style="fill:none;stroke:#000000;stroke-linecap:square;stroke-linejoin:miter;stroke-width:0.8;"/>
   </g>
   <g id="text_14">
    <!-- Heading vs Distance mco -->
    <g transform="translate(159.744375 35.472)scale(0.12 -0.12)">
     <defs>
      <path d="M 9.8125 72.90625 
L 19.671875 72.90625 
L 19.671875 43.015625 
L 55.515625 43.015625 
L 55.515625 72.90625 
L 65.375 72.90625 
L 65.375 0 
L 55.515625 0 
L 55.515625 34.71875 
L 19.671875 34.71875 
L 19.671875 0 
L 9.8125 0 
z
" id="DejaVuSans-72"/>
      <path d="M 56.203125 29.59375 
L 56.203125 25.203125 
L 14.890625 25.203125 
Q 15.484375 15.921875 20.484375 11.0625 
Q 25.484375 6.203125 34.421875 6.203125 
Q 39.59375 6.203125 44.453125 7.46875 
Q 49.3125 8.734375 54.109375 11.28125 
L 54.109375 2.78125 
Q 49.265625 0.734375 44.1875 -0.34375 
Q 39.109375 -1.421875 33.890625 -1.421875 
Q 20.796875 -1.421875 13.15625 6.1875 
Q 5.515625 13.8125 5.515625 26.8125 
Q 5.515625 40.234375 12.765625 48.109375 
Q 20.015625 56 32.328125 56 
Q 43.359375 56 49.78125 48.890625 
Q 56.203125 41.796875 56.203125 29.59375 
z
M 47.21875 32.234375 
Q 47.125 39.59375 43.09375 43.984375 
Q 39.0625 48.390625 32.421875 48.390625 
Q 24.90625 48.390625 20.390625 44.140625 
Q 15.875 39.890625 15.1875 32.171875 
z
" id="DejaVuSans-101"/>
      <path d="M 34.28125 27.484375 
Q 23.390625 27.484375 19.1875 25 
Q 14.984375 22.515625 14.984375 16.5 
Q 14.984375 11.71875 18.140625 8.90625 
Q 21.296875 6.109375 26.703125 6.109375 
Q 34.1875 6.109375 38.703125 11.40625 
Q 43.21875 16.703125 43.21875 25.484375 
L 43.21875 27.484375 
z
M 52.203125 31.203125 
L 52.203125 0 
L 43.21875 0 
L 43.21875 8.296875 
Q 40.140625 3.328125 35.546875 0.953125 
Q 30.953125 -1.421875 24.3125 -1.421875 
Q 15.921875 -1.421875 10.953125 3.296875 
Q 6 8.015625 6 15.921875 
Q 6 25.140625 12.171875 29.828125 
Q 18.359375 34.515625 30.609375 34.515625 
L 43.21875 34.515625 
L 43.21875 35.40625 
Q 43.21875 41.609375 39.140625 45 
Q 35.0625 48.390625 27.6875 48.390625 
Q 23 48.390625 18.546875 47.265625 
Q 14.109375 46.140625 10.015625 43.890625 
L 10.015625 52.203125 
Q 14.9375 54.109375 19.578125 55.046875 
Q 24.21875 56 28.609375 56 
Q 40.484375 56 46.34375 49.84375 
Q 52.203125 43.703125 52.203125 31.203125 
z
" id="DejaVuSans-97"/>
      <path d="M 45.40625 46.390625 
L 45.40625 75.984375 
L 54.390625 75.984375 
L 54.390625 0 
L 45.40625 0 
L 45.40625 8.203125 
Q 42.578125 3.328125 38.25 0.953125 
Q 33.9375 -1.421875 27.875 -1.421875 
Q 17.96875 -1.421875 11.734375 6.484375 
Q 5.515625 14.40625 5.515625 27.296875 
Q 5.515625 40.1875 11.734375 48.09375 
Q 17.96875 56 27.875 56 
Q 33.9375 56 38.25 53.625 
Q 42.578125 51.265625 45.40625 46.390625 
z
M 14.796875 27.296875 
Q 14.796875 17.390625 18.875 11.75 
Q 22.953125 6.109375 30.078125 6.109375 
Q 37.203125 6.109375 41.296875 11.75 
Q 45.40625 17.390625 45.40625 27.296875 
Q 45.40625 37.203125 41.296875 42.84375 
Q 37.203125 48.484375 30.078125 48.484375 
Q 22.953125 48.484375 18.875 42.84375 
Q 14.796875 37.203125 14.796875 27.296875 
z
" id="DejaVuSans-100"/>
      <path d="M 9.421875 54.6875 
L 18.40625 54.6875 
L 18.40625 0 
L 9.421875 0 
z
M 9.421875 75.984375 
L 18.40625 75.984375 
L 18.40625 64.59375 
L 9.421875 64.59375 
z
" id="DejaVuSans-105"/>
      <path d="M 54.890625 33.015625 
L 54.890625 0 
L 45.90625 0 
L 45.90625 32.71875 
Q 45.90625 40.484375 42.875 44.328125 
Q 39.84375 48.1875 33.796875 48.1875 
Q 26.515625 48.1875 22.3125 43.546875 
Q 18.109375 38.921875 18.109375 30.90625 
L 18.109375 0 
L 9.078125 0 
L 9.078125 54.6875 
L 18.109375 54.6875 
L 18.109375 46.1875 
Q 21.34375 51.125 25.703125 53.5625 
Q 30.078125 56 35.796875 56 
Q 45.21875 56 50.046875 50.171875 
Q 54.890625 44.34375 54.890625 33.015625 
z
" id="DejaVuSans-110"/>
      <path d="M 45.40625 27.984375 
Q 45.40625 37.75 41.375 43.109375 
Q 37.359375 48.484375 30.078125 48.484375 
Q 22.859375 48.484375 18.828125 43.109375 
Q 14.796875 37.75 14.796875 27.984375 
Q 14.796875 18.265625 18.828125 12.890625 
Q 22.859375 7.515625 30.078125 7.515625 
Q 37.359375 7.515625 41.375 12.890625 
Q 45.40625 18.265625 45.40625 27.984375 
z
M 54.390625 6.78125 
Q 54.390625 -7.171875 48.1875 -13.984375 
Q 42 -20.796875 29.203125 -20.796875 
Q 24.46875 -20.796875 20.265625 -20.09375 
Q 16.0625 -19.390625 12.109375 -17.921875 
L 12.109375 -9.1875 
Q 16.0625 -11.328125 19.921875 -12.34375 
Q 23.78125 -13.375 27.78125 -13.375 
Q 36.625 -13.375 41.015625 -8.765625 
Q 45.40625 -4.15625 45.40625 5.171875 
L 45.40625 9.625 
Q 42.625 4.78125 38.28125 2.390625 
Q 33.9375 0 27.875 0 
Q 17.828125 0 11.671875 7.65625 
Q 5.515625 15.328125 5.515625 27.984375 
Q 5.515625 40.671875 11.671875 48.328125 
Q 17.828125 56 27.875 56 
Q 33.9375 56 38.28125 53.609375 
Q 42.625 51.21875 45.40625 46.390625 
L 45.40625 54.6875 
L 54.390625 54.6875 
z
" id="DejaVuSans-103"/>
      <path id="DejaVuSans-32"/>
      <path d="M 2.984375 54.6875 
L 12.5 54.6875 
L 29.59375 8.796875 
L 46.6875 54.6875 
L 56.203125 54.6875 
L 35.6875 0 
L 23.484375 0 
z
" id="DejaVuSans-118"/>
      <path d="M 44.28125 53.078125 
L 44.28125 44.578125 
Q 40.484375 46.53125 36.375 47.5 
Q 32.28125 48.484375 27.875 48.484375 
Q 21.1875 48.484375 17.84375 46.4375 
Q 14.5 44.390625 14.5 40.28125 
Q 14.5 37.15625 16.890625 35.375 
Q 19.28125 33.59375 26.515625 31.984375 
L 29.59375 31.296875 
Q 39.15625 29.25 43.1875 25.515625 
Q 47.21875 21.78125 47.21875 15.09375 
Q 47.21875 7.46875 41.1875 3.015625 
Q 35.15625 -1.421875 24.609375 -1.421875 
Q 20.21875 -1.421875 15.453125 -0.5625 
Q 10.6875 0.296875 5.421875 2 
L 5.421875 11.28125 
Q 10.40625 8.6875 15.234375 7.390625 
Q 20.0625 6.109375 24.8125 6.109375 
Q 31.15625 6.109375 34.5625 8.28125 
Q 37.984375 10.453125 37.984375 14.40625 
Q 37.984375 18.0625 35.515625 20.015625 
Q 33.0625 21.96875 24.703125 23.78125 
L 21.578125 24.515625 
Q 13.234375 26.265625 9.515625 29.90625 
Q 5.8125 33.546875 5.8125 39.890625 
Q 5.8125 47.609375 11.28125 51.796875 
Q 16.75 56 26.8125 56 
Q 31.78125 56 36.171875 55.265625 
Q 40.578125 54.546875 44.28125 53.078125 
z
" id="DejaVuSans-115"/>
      <path d="M 19.671875 64.796875 
L 19.671875 8.109375 
L 31.59375 8.109375 
Q 46.6875 8.109375 53.6875 14.9375 
Q 60.6875 21.78125 60.6875 36.53125 
Q 60.6875 51.171875 53.6875 57.984375 
Q 46.6875 64.796875 31.59375 64.796875 
z
M 9.8125 72.90625 
L 30.078125 72.90625 
Q 51.265625 72.90625 61.171875 64.09375 
Q 71.09375 55.28125 71.09375 36.53125 
Q 71.09375 17.671875 61.125 8.828125 
Q 51.171875 0 30.078125 0 
L 9.8125 0 
z
" id="DejaVuSans-68"/>
      <path d="M 18.3125 70.21875 
L 18.3125 54.6875 
L 36.8125 54.6875 
L 36.8125 47.703125 
L 18.3125 47.703125 
L 18.3125 18.015625 
Q 18.3125 11.328125 20.140625 9.421875 
Q 21.96875 7.515625 27.59375 7.515625 
L 36.8125 7.515625 
L 36.8125 0 
L 27.59375 0 
Q 17.1875 0 13.234375 3.875 
Q 9.28125 7.765625 9.28125 18.015625 
L 9.28125 47.703125 
L 2.6875 47.703125 
L 2.6875 54.6875 
L 9.28125 54.6875 
L 9.28125 70.21875 
z
" id="DejaVuSans-116"/>
      <path d="M 48.78125 52.59375 
L 48.78125 44.1875 
Q 44.96875 46.296875 41.140625 47.34375 
Q 37.3125 48.390625 33.40625 48.390625 
Q 24.65625 48.390625 19.8125 42.84375 
Q 14.984375 37.3125 14.984375 27.296875 
Q 14.984375 17.28125 19.8125 11.734375 
Q 24.65625 6.203125 33.40625 6.203125 
Q 37.3125 6.203125 41.140625 7.25 
Q 44.96875 8.296875 48.78125 10.40625 
L 48.78125 2.09375 
Q 45.015625 0.34375 40.984375 -0.53125 
Q 36.96875 -1.421875 32.421875 -1.421875 
Q 20.0625 -1.421875 12.78125 6.34375 
Q 5.515625 14.109375 5.515625 27.296875 
Q 5.515625 40.671875 12.859375 48.328125 
Q 20.21875 56 33.015625 56 
Q 37.15625 56 41.109375 55.140625 
Q 45.0625 54.296875 48.78125 52.59375 
z
" id="DejaVuSans-99"/>
      <path d="M 52 44.1875 
Q 55.375 50.25 60.0625 53.125 
Q 64.75 56 71.09375 56 
Q 79.640625 56 84.28125 50.015625 
Q 88.921875 44.046875 88.921875 33.015625 
L 88.921875 0 
L 79.890625 0 
L 79.890625 32.71875 
Q 79.890625 40.578125 77.09375 44.375 
Q 74.3125 48.1875 68.609375 48.1875 
Q 61.625 48.1875 57.5625 43.546875 
Q 53.515625 38.921875 53.515625 30.90625 
L 53.515625 0 
L 44.484375 0 
L 44.484375 32.71875 
Q 44.484375 40.625 41.703125 44.40625 
Q 38.921875 48.1875 33.109375 48.1875 
Q 26.21875 48.1875 22.15625 43.53125 
Q 18.109375 38.875 18.109375 30.90625 
L 18.109375 0 
L 9.078125 0 
L 9.078125 54.6875 
L 18.109375 54.6875 
L 18.109375 46.1875 
Q 21.1875 51.21875 25.484375 53.609375 
Q 29.78125 56 35.6875 56 
Q 41.65625 56 45.828125 52.96875 
Q 50 49.953125 52 44.1875 
z
" id="DejaVuSans-109"/>
      <path d="M 30.609375 48.390625 
Q 23.390625 48.390625 19.1875 42.75 
Q 14.984375 37.109375 14.984375 27.296875 
Q 14.984375 17.484375 19.15625 11.84375 
Q 23.34375 6.203125 30.609375 6.203125 
Q 37.796875 6.203125 41.984375 11.859375 
Q 46.1875 17.53125 46.1875 27.296875 
Q 46.1875 37.015625 41.984375 42.703125 
Q 37.796875 48.390625 30.609375 48.390625 
z
M 30.609375 56 
Q 42.328125 56 49.015625 48.375 
Q 55.71875 40.765625 55.71875 27.296875 
Q 55.71875 13.875 49.015625 6.21875 
Q 42.328125 -1.421875 30.609375 -1.421875 
Q 18.84375 -1.421875 12.171875 6.21875 
Q 5.515625 13.875 5.515625 27.296875 
Q 5.515625 40.765625 12.171875 48.375 
Q 18.84375 56 30.609375 56 
z
" id="DejaVuSans-111"/>
     </defs>
     <use xlink:href="#DejaVuSans-72"/>
     <use x="75.195312" xlink:href="#DejaVuSans-101"/>
     <use x="136.71875" xlink:href="#DejaVuSans-97"/>
     <use x="197.998047" xlink:href="#DejaVuSans-100"/>
     <use x="261.474609" xlink:href="#DejaVuSans-105"/>
     <use x="289.257812" xlink:href="#DejaVuSans-110"/>
     <use x="352.636719" xlink:href="#DejaVuSans-103"/>
     <use x="416.113281" xlink:href="#DejaVuSans-32"/>
     <use x="447.900391" xlink:href="#DejaVuSans-118"/>
     <use x="507.080078" xlink:href="#DejaVuSans-115"/>
     <use x="559.179688" xlink:href="#DejaVuSans-32"/>
     <use x="590.966797" xlink:href="#DejaVuSans-68"/>
     <use x="667.96875" xlink:href="#DejaVuSans-105"/>
     <use x="695.751953" xlink:href="#DejaVuSans-115"/>
     <use x="747.851562" xlink:href="#DejaVuSans-116"/>
     <use x="787.060547" xlink:href="#DejaVuSans-97"/>
     <use x="848.339844" xlink:href="#DejaVuSans-110"/>
     <use x="911.71875" xlink:href="#DejaVuSans-99"/>
     <use x="966.699219" xlink:href="#DejaVuSans-101"/>
     <use x="1028.222656" xlink:href="#DejaVuSans-32"/>
     <use x="1060.009766" xlink:href="#DejaVuSans-109"/>
     <use x="1157.421875" xlink:href="#DejaVuSans-99"/>
     <use x="1212.402344" xlink:href="#DejaVuSans-111"/>
    </g>
   </g>
   <g id="legend_1">
    <g id="patch_7">
     <path d="M 276.42625 93.506375 
L 407.72 93.506375 
Q 409.72 93.506375 409.72 91.506375 
L 409.72 48.472 
Q 409.72 46.472 407.72 46.472 
L 276.42625 46.472 
Q 274.42625 46.472 274.42625 48.472 
L 274.42625 91.506375 
Q 274.42625 93.506375 276.42625 93.506375 
z
" style="fill:#ffffff;opacity:0.8;stroke:#cccccc;stroke-linejoin:miter;"/>
    </g>
    <g id="line2d_17">
     <path d="M 278.42625 54.570438 
L 298.42625 54.570438 
" style="fill:none;stroke:#1f77b4;stroke-linecap:square;stroke-width:1.5;"/>
    </g>
    <g id="line2d_18"/>
    <g id="text_15">
     <!-- Centreline -->
     <g transform="translate(306.42625 58.070438)scale(0.1 -0.1)">
      <defs>
       <path d="M 64.40625 67.28125 
L 64.40625 56.890625 
Q 59.421875 61.53125 53.78125 63.8125 
Q 48.140625 66.109375 41.796875 66.109375 
Q 29.296875 66.109375 22.65625 58.46875 
Q 16.015625 50.828125 16.015625 36.375 
Q 16.015625 21.96875 22.65625 14.328125 
Q 29.296875 6.6875 41.796875 6.6875 
Q 48.140625 6.6875 53.78125 8.984375 
Q 59.421875 11.28125 64.40625 15.921875 
L 64.40625 5.609375 
Q 59.234375 2.09375 53.4375 0.328125 
Q 47.65625 -1.421875 41.21875 -1.421875 
Q 24.65625 -1.421875 15.125 8.703125 
Q 5.609375 18.84375 5.609375 36.375 
Q 5.609375 53.953125 15.125 64.078125 
Q 24.65625 74.21875 41.21875 74.21875 
Q 47.75 74.21875 53.53125 72.484375 
Q 59.328125 70.75 64.40625 67.28125 
z
" id="DejaVuSans-67"/>
       <path d="M 41.109375 46.296875 
Q 39.59375 47.171875 37.8125 47.578125 
Q 36.03125 48 33.890625 48 
Q 26.265625 48 22.1875 43.046875 
Q 18.109375 38.09375 18.109375 28.8125 
L 18.109375 0 
L 9.078125 0 
L 9.078125 54.6875 
L 18.109375 54.6875 
L 18.109375 46.1875 
Q 20.953125 51.171875 25.484375 53.578125 
Q 30.03125 56 36.53125 56 
Q 37.453125 56 38.578125 55.875 
Q 39.703125 55.765625 41.0625 55.515625 
z
" id="DejaVuSans-114"/>
       <path d="M 9.421875 75.984375 
L 18.40625 75.984375 
L 18.40625 0 
L 9.421875 0 
z
" id="DejaVuSans-108"/>
      </defs>
      <use xlink:href="#DejaVuSans-67"/>
      <use x="69.824219" xlink:href="#DejaVuSans-101"/>
      <use x="131.347656" xlink:href="#DejaVuSans-110"/>
      <use x="194.726562" xlink:href="#DejaVuSans-116"/>
      <use x="233.935547" xlink:href="#DejaVuSans-114"/>
      <use x="272.798828" xlink:href="#DejaVuSans-101"/>
      <use x="334.322266" xlink:href="#DejaVuSans-108"/>
      <use x="362.105469" xlink:href="#DejaVuSans-105"/>
      <use x="389.888672" xlink:href="#DejaVuSans-110"/>
      <use x="453.267578" xlink:href="#DejaVuSans-101"/>
     </g>
    </g>
    <g id="line2d_19">
     <path d="M 278.42625 69.248563 
L 298.42625 69.248563 
" style="fill:none;stroke:#ff7f0e;stroke-linecap:square;stroke-width:1.5;"/>
    </g>
    <g id="line2d_20"/>
    <g id="text_16">
     <!-- Shortest Path -->
     <g transform="translate(306.42625 72.748563)scale(0.1 -0.1)">
      <defs>
       <path d="M 53.515625 70.515625 
L 53.515625 60.890625 
Q 47.90625 63.578125 42.921875 64.890625 
Q 37.9375 66.21875 33.296875 66.21875 
Q 25.25 66.21875 20.875 63.09375 
Q 16.5 59.96875 16.5 54.203125 
Q 16.5 49.359375 19.40625 46.890625 
Q 22.3125 44.4375 30.421875 42.921875 
L 36.375 41.703125 
Q 47.40625 39.59375 52.65625 34.296875 
Q 57.90625 29 57.90625 20.125 
Q 57.90625 9.515625 50.796875 4.046875 
Q 43.703125 -1.421875 29.984375 -1.421875 
Q 24.8125 -1.421875 18.96875 -0.25 
Q 13.140625 0.921875 6.890625 3.21875 
L 6.890625 13.375 
Q 12.890625 10.015625 18.65625 8.296875 
Q 24.421875 6.59375 29.984375 6.59375 
Q 38.421875 6.59375 43.015625 9.90625 
Q 47.609375 13.234375 47.609375 19.390625 
Q 47.609375 24.75 44.3125 27.78125 
Q 41.015625 30.8125 33.5 32.328125 
L 27.484375 33.5 
Q 16.453125 35.6875 11.515625 40.375 
Q 6.59375 45.0625 6.59375 53.421875 
Q 6.59375 63.09375 13.40625 68.65625 
Q 20.21875 74.21875 32.171875 74.21875 
Q 37.3125 74.21875 42.625 73.28125 
Q 47.953125 72.359375 53.515625 70.515625 
z
" id="DejaVuSans-83"/>
       <path d="M 54.890625 33.015625 
L 54.890625 0 
L 45.90625 0 
L 45.90625 32.71875 
Q 45.90625 40.484375 42.875 44.328125 
Q 39.84375 48.1875 33.796875 48.1875 
Q 26.515625 48.1875 22.3125 43.546875 
Q 18.109375 38.921875 18.109375 30.90625 
L 18.109375 0 
L 9.078125 0 
L 9.078125 75.984375 
L 18.109375 75.984375 
L 18.109375 46.1875 
Q 21.34375 51.125 25.703125 53.5625 
Q 30.078125 56 35.796875 56 
Q 45.21875 56 50.046875 50.171875 
Q 54.890625 44.34375 54.890625 33.015625 
z
" id="DejaVuSans-104"/>
       <path d="M 19.671875 64.796875 
L 19.671875 37.40625 
L 32.078125 37.40625 
Q 38.96875 37.40625 42.71875 40.96875 
Q 46.484375 44.53125 46.484375 51.125 
Q 46.484375 57.671875 42.71875 61.234375 
Q 38.96875 64.796875 32.078125 64.796875 
z
M 9.8125 72.90625 
L 32.078125 72.90625 
Q 44.34375 72.90625 50.609375 67.359375 
Q 56.890625 61.8125 56.890625 51.125 
Q 56.890625 40.328125 50.609375 34.8125 
Q 44.34375 29.296875 32.078125 29.296875 
L 19.671875 29.296875 
L 19.671875 0 
L 9.8125 0 
z
" id="DejaVuSans-80"/>
      </defs>
      <use xlink:href="#DejaVuSans-83"/>
      <use x="63.476562" xlink:href="#DejaVuSans-104"/>
      <use x="126.855469" xlink:href="#DejaVuSans-111"/>
      <use x="188.037109" xlink:href="#DejaVuSans-114"/>
      <use x="229.150391" xlink:href="#DejaVuSans-116"/>
      <use x="268.359375" xlink:href="#DejaVuSans-101"/>
      <use x="329.882812" xlink:href="#DejaVuSans-115"/>
      <use x="381.982422" xlink:href="#DejaVuSans-116"/>
      <use x="421.191406" xlink:href="#DejaVuSans-32"/>
      <use x="452.978516" xlink:href="#DejaVuSans-80"/>
      <use x="508.78125" xlink:href="#DejaVuSans-97"/>
      <use x="570.060547" xlink:href="#DejaVuSans-116"/>
      <use x="609.269531" xlink:href="#DejaVuSans-104"/>
     </g>
    </g>
    <g id="line2d_21">
     <path d="M 278.42625 83.926688 
L 298.42625 83.926688 
" style="fill:none;stroke:#2ca02c;stroke-linecap:square;stroke-width:1.5;"/>
    </g>
    <g id="line2d_22"/>
    <g id="text_17">
     <!-- Minimum Curvature -->
     <g transform="translate(306.42625 87.426688)scale(0.1 -0.1)">
      <defs>
       <path d="M 9.8125 72.90625 
L 24.515625 72.90625 
L 43.109375 23.296875 
L 61.8125 72.90625 
L 76.515625 72.90625 
L 76.515625 0 
L 66.890625 0 
L 66.890625 64.015625 
L 48.09375 14.015625 
L 38.1875 14.015625 
L 19.390625 64.015625 
L 19.390625 0 
L 9.8125 0 
z
" id="DejaVuSans-77"/>
       <path d="M 8.5 21.578125 
L 8.5 54.6875 
L 17.484375 54.6875 
L 17.484375 21.921875 
Q 17.484375 14.15625 20.5 10.265625 
Q 23.53125 6.390625 29.59375 6.390625 
Q 36.859375 6.390625 41.078125 11.03125 
Q 45.3125 15.671875 45.3125 23.6875 
L 45.3125 54.6875 
L 54.296875 54.6875 
L 54.296875 0 
L 45.3125 0 
L 45.3125 8.40625 
Q 42.046875 3.421875 37.71875 1 
Q 33.40625 -1.421875 27.6875 -1.421875 
Q 18.265625 -1.421875 13.375 4.4375 
Q 8.5 10.296875 8.5 21.578125 
z
M 31.109375 56 
z
" id="DejaVuSans-117"/>
      </defs>
      <use xlink:href="#DejaVuSans-77"/>
      <use x="86.279297" xlink:href="#DejaVuSans-105"/>
      <use x="114.0625" xlink:href="#DejaVuSans-110"/>
      <use x="177.441406" xlink:href="#DejaVuSans-105"/>
      <use x="205.224609" xlink:href="#DejaVuSans-109"/>
      <use x="302.636719" xlink:href="#DejaVuSans-117"/>
      <use x="366.015625" xlink:href="#DejaVuSans-109"/>
      <use x="463.427734" xlink:href="#DejaVuSans-32"/>
      <use x="495.214844" xlink:href="#DejaVuSans-67"/>
      <use x="565.039062" xlink:href="#DejaVuSans-117"/>
      <use x="628.417969" xlink:href="#DejaVuSans-114"/>
      <use x="669.53125" xlink:href="#DejaVuSans-118"/>
      <use x="728.710938" xlink:href="#DejaVuSans-97"/>
      <use x="789.990234" xlink:href="#DejaVuSans-116"/>
      <use x="829.199219" xlink:href="#DejaVuSans-117"/>
      <use x="892.578125" xlink:href="#DejaVuSans-114"/>
      <use x="931.441406" xlink:href="#DejaVuSans-101"/>
     </g>
    </g>
   </g>
  </g>
 </g>
 <defs>
  <clipPath id="p10439e5fbd">
   <rect height="266.112" width="357.12" x="57.6" y="41.472"/>
  </clipPath>
 </defs>
</svg>
