<?xml version="1.0" encoding="utf-8" standalone="no"?>
<!DOCTYPE svg PUBLIC "-//W3C//DTD SVG 1.1//EN"
  "http://www.w3.org/Graphics/SVG/1.1/DTD/svg11.dtd">
<!-- Created with matplotlib (https://matplotlib.org/) -->
<svg height="345.6pt" version="1.1" viewBox="0 0 460.8 345.6" width="460.8pt" xmlns="http://www.w3.org/2000/svg" xmlns:xlink="http://www.w3.org/1999/xlink">
 <metadata>
  <rdf:RDF xmlns:cc="http://creativecommons.org/ns#" xmlns:dc="http://purl.org/dc/elements/1.1/" xmlns:rdf="http://www.w3.org/1999/02/22-rdf-syntax-ns#">
   <cc:Work>
    <dc:type rdf:resource="http://purl.org/dc/dcmitype/StillImage"/>
    <dc:date>2024-09-02T20:47:05.333283</dc:date>
    <dc:format>image/svg+xml</dc:format>
    <dc:creator>
     <cc:Agent>
      <dc:title>Matplotlib v3.3.1, https://matplotlib.org/</dc:title>
     </cc:Agent>
    </dc:creator>
   </cc:Work>
  </rdf:RDF>
 </metadata>
 <defs>
  <style type="text/css">*{stroke-linecap:butt;stroke-linejoin:round;}</style>
 </defs>
 <g id="figure_1">
  <g id="patch_1">
   <path d="M 0 345.6 
L 460.8 345.6 
L 460.8 0 
L 0 0 
z
" style="fill:#ffffff;"/>
  </g>
  <g id="axes_1">
   <g id="patch_2">
    <path d="M 143.629859 307.584 
L 328.690141 307.584 
L 328.690141 41.472 
L 143.629859 41.472 
z
" style="fill:#ffffff;"/>
   </g>
   <g id="matplotlib.axis_1">
    <g id="xtick_1">
     <g id="line2d_1">
      <defs>
       <path d="M 0 0 
L 0 3.5 
" id="m386dd6bad5" style="stroke:#000000;stroke-width:0.8;"/>
      </defs>
      <g>
       <use style="stroke:#000000;stroke-width:0.8;" x="169.985851" xlink:href="#m386dd6bad5" y="307.584"/>
      </g>
     </g>
     <g id="text_1">
      <!-- −5 -->
      <g transform="translate(162.614757 322.182437)scale(0.1 -0.1)">
       <defs>
        <path d="M 10.59375 35.5 
L 73.1875 35.5 
L 73.1875 27.203125 
L 10.59375 27.203125 
z
" id="DejaVuSans-8722"/>
        <path d="M 10.796875 72.90625 
L 49.515625 72.90625 
L 49.515625 64.59375 
L 19.828125 64.59375 
L 19.828125 46.734375 
Q 21.96875 47.46875 24.109375 47.828125 
Q 26.265625 48.1875 28.421875 48.1875 
Q 40.625 48.1875 47.75 41.5 
Q 54.890625 34.8125 54.890625 23.390625 
Q 54.890625 11.625 47.5625 5.09375 
Q 40.234375 -1.421875 26.90625 -1.421875 
Q 22.3125 -1.421875 17.546875 -0.640625 
Q 12.796875 0.140625 7.71875 1.703125 
L 7.71875 11.625 
Q 12.109375 9.234375 16.796875 8.0625 
Q 21.484375 6.890625 26.703125 6.890625 
Q 35.15625 6.890625 40.078125 11.328125 
Q 45.015625 15.765625 45.015625 23.390625 
Q 45.015625 31 40.078125 35.4375 
Q 35.15625 39.890625 26.703125 39.890625 
Q 22.75 39.890625 18.8125 39.015625 
Q 14.890625 38.140625 10.796875 36.28125 
z
" id="DejaVuSans-53"/>
       </defs>
       <use xlink:href="#DejaVuSans-8722"/>
       <use x="83.789062" xlink:href="#DejaVuSans-53"/>
      </g>
     </g>
    </g>
    <g id="xtick_2">
     <g id="line2d_2">
      <g>
       <use style="stroke:#000000;stroke-width:0.8;" x="212.5774" xlink:href="#m386dd6bad5" y="307.584"/>
      </g>
     </g>
     <g id="text_2">
      <!-- 0 -->
      <g transform="translate(209.39615 322.182437)scale(0.1 -0.1)">
       <defs>
        <path d="M 31.78125 66.40625 
Q 24.171875 66.40625 20.328125 58.90625 
Q 16.5 51.421875 16.5 36.375 
Q 16.5 21.390625 20.328125 13.890625 
Q 24.171875 6.390625 31.78125 6.390625 
Q 39.453125 6.390625 43.28125 13.890625 
Q 47.125 21.390625 47.125 36.375 
Q 47.125 51.421875 43.28125 58.90625 
Q 39.453125 66.40625 31.78125 66.40625 
z
M 31.78125 74.21875 
Q 44.046875 74.21875 50.515625 64.515625 
Q 56.984375 54.828125 56.984375 36.375 
Q 56.984375 17.96875 50.515625 8.265625 
Q 44.046875 -1.421875 31.78125 -1.421875 
Q 19.53125 -1.421875 13.0625 8.265625 
Q 6.59375 17.96875 6.59375 36.375 
Q 6.59375 54.828125 13.0625 64.515625 
Q 19.53125 74.21875 31.78125 74.21875 
z
" id="DejaVuSans-48"/>
       </defs>
       <use xlink:href="#DejaVuSans-48"/>
      </g>
     </g>
    </g>
    <g id="xtick_3">
     <g id="line2d_3">
      <g>
       <use style="stroke:#000000;stroke-width:0.8;" x="255.168949" xlink:href="#m386dd6bad5" y="307.584"/>
      </g>
     </g>
     <g id="text_3">
      <!-- 5 -->
      <g transform="translate(251.987699 322.182437)scale(0.1 -0.1)">
       <use xlink:href="#DejaVuSans-53"/>
      </g>
     </g>
    </g>
    <g id="xtick_4">
     <g id="line2d_4">
      <g>
       <use style="stroke:#000000;stroke-width:0.8;" x="297.760498" xlink:href="#m386dd6bad5" y="307.584"/>
      </g>
     </g>
     <g id="text_4">
      <!-- 10 -->
      <g transform="translate(291.397998 322.182437)scale(0.1 -0.1)">
       <defs>
        <path d="M 12.40625 8.296875 
L 28.515625 8.296875 
L 28.515625 63.921875 
L 10.984375 60.40625 
L 10.984375 69.390625 
L 28.421875 72.90625 
L 38.28125 72.90625 
L 38.28125 8.296875 
L 54.390625 8.296875 
L 54.390625 0 
L 12.40625 0 
z
" id="DejaVuSans-49"/>
       </defs>
       <use xlink:href="#DejaVuSans-49"/>
       <use x="63.623047" xlink:href="#DejaVuSans-48"/>
      </g>
     </g>
    </g>
   </g>
   <g id="matplotlib.axis_2">
    <g id="ytick_1">
     <g id="line2d_5">
      <defs>
       <path d="M 0 0 
L -3.5 0 
" id="m07b7667786" style="stroke:#000000;stroke-width:0.8;"/>
      </defs>
      <g>
       <use style="stroke:#000000;stroke-width:0.8;" x="143.629859" xlink:href="#m07b7667786" y="287.218484"/>
      </g>
     </g>
     <g id="text_5">
      <!-- −25 -->
      <g transform="translate(115.525172 291.017703)scale(0.1 -0.1)">
       <defs>
        <path d="M 19.1875 8.296875 
L 53.609375 8.296875 
L 53.609375 0 
L 7.328125 0 
L 7.328125 8.296875 
Q 12.9375 14.109375 22.625 23.890625 
Q 32.328125 33.6875 34.8125 36.53125 
Q 39.546875 41.84375 41.421875 45.53125 
Q 43.3125 49.21875 43.3125 52.78125 
Q 43.3125 58.59375 39.234375 62.25 
Q 35.15625 65.921875 28.609375 65.921875 
Q 23.96875 65.921875 18.8125 64.3125 
Q 13.671875 62.703125 7.8125 59.421875 
L 7.8125 69.390625 
Q 13.765625 71.78125 18.9375 73 
Q 24.125 74.21875 28.421875 74.21875 
Q 39.75 74.21875 46.484375 68.546875 
Q 53.21875 62.890625 53.21875 53.421875 
Q 53.21875 48.921875 51.53125 44.890625 
Q 49.859375 40.875 45.40625 35.40625 
Q 44.1875 33.984375 37.640625 27.21875 
Q 31.109375 20.453125 19.1875 8.296875 
z
" id="DejaVuSans-50"/>
       </defs>
       <use xlink:href="#DejaVuSans-8722"/>
       <use x="83.789062" xlink:href="#DejaVuSans-50"/>
       <use x="147.412109" xlink:href="#DejaVuSans-53"/>
      </g>
     </g>
    </g>
    <g id="ytick_2">
     <g id="line2d_6">
      <g>
       <use style="stroke:#000000;stroke-width:0.8;" x="143.629859" xlink:href="#m07b7667786" y="244.626935"/>
      </g>
     </g>
     <g id="text_6">
      <!-- −20 -->
      <g transform="translate(115.525172 248.426154)scale(0.1 -0.1)">
       <use xlink:href="#DejaVuSans-8722"/>
       <use x="83.789062" xlink:href="#DejaVuSans-50"/>
       <use x="147.412109" xlink:href="#DejaVuSans-48"/>
      </g>
     </g>
    </g>
    <g id="ytick_3">
     <g id="line2d_7">
      <g>
       <use style="stroke:#000000;stroke-width:0.8;" x="143.629859" xlink:href="#m07b7667786" y="202.035386"/>
      </g>
     </g>
     <g id="text_7">
      <!-- −15 -->
      <g transform="translate(115.525172 205.834605)scale(0.1 -0.1)">
       <use xlink:href="#DejaVuSans-8722"/>
       <use x="83.789062" xlink:href="#DejaVuSans-49"/>
       <use x="147.412109" xlink:href="#DejaVuSans-53"/>
      </g>
     </g>
    </g>
    <g id="ytick_4">
     <g id="line2d_8">
      <g>
       <use style="stroke:#000000;stroke-width:0.8;" x="143.629859" xlink:href="#m07b7667786" y="159.443837"/>
      </g>
     </g>
     <g id="text_8">
      <!-- −10 -->
      <g transform="translate(115.525172 163.243055)scale(0.1 -0.1)">
       <use xlink:href="#DejaVuSans-8722"/>
       <use x="83.789062" xlink:href="#DejaVuSans-49"/>
       <use x="147.412109" xlink:href="#DejaVuSans-48"/>
      </g>
     </g>
    </g>
    <g id="ytick_5">
     <g id="line2d_9">
      <g>
       <use style="stroke:#000000;stroke-width:0.8;" x="143.629859" xlink:href="#m07b7667786" y="116.852287"/>
      </g>
     </g>
     <g id="text_9">
      <!-- −5 -->
      <g transform="translate(121.887672 120.651506)scale(0.1 -0.1)">
       <use xlink:href="#DejaVuSans-8722"/>
       <use x="83.789062" xlink:href="#DejaVuSans-53"/>
      </g>
     </g>
    </g>
    <g id="ytick_6">
     <g id="line2d_10">
      <g>
       <use style="stroke:#000000;stroke-width:0.8;" x="143.629859" xlink:href="#m07b7667786" y="74.260738"/>
      </g>
     </g>
     <g id="text_10">
      <!-- 0 -->
      <g transform="translate(130.267359 78.059957)scale(0.1 -0.1)">
       <use xlink:href="#DejaVuSans-48"/>
      </g>
     </g>
    </g>
   </g>
   <g id="line2d_11">
    <path clip-path="url(#p360cc6d22f)" d="M 228.706479 53.568 
L 228.280563 53.993915 
L 224.021408 53.993915 
L 223.595493 54.419831 
L 220.614085 54.419831 
L 220.188169 54.845746 
L 217.632676 54.845746 
L 217.206761 55.271662 
L 215.077183 55.271662 
L 214.651268 55.697577 
L 212.947606 55.697577 
L 212.52169 56.123493 
L 210.392113 56.123493 
L 209.966197 56.549408 
L 207.83662 56.549408 
L 207.410704 56.975324 
L 205.281127 56.975324 
L 204.855211 57.401239 
L 203.577465 57.401239 
L 203.151549 57.827155 
L 201.873803 57.827155 
L 201.447887 58.25307 
L 199.744225 58.25307 
L 199.31831 58.678986 
L 198.040563 58.678986 
L 197.614648 59.104901 
L 196.336901 59.104901 
L 195.910986 59.530817 
L 195.059155 59.530817 
L 194.633239 59.956732 
L 193.355493 59.956732 
L 192.929577 60.382648 
L 192.077746 60.382648 
L 191.651831 60.808563 
L 190.8 60.808563 
L 190.374085 61.234479 
L 189.522254 61.234479 
L 189.096338 61.660394 
L 188.244507 61.660394 
L 187.818592 62.08631 
L 186.966761 62.08631 
L 186.540845 62.512225 
L 185.689014 62.512225 
L 185.263099 62.938141 
L 184.837183 62.938141 
L 184.411268 63.364056 
L 183.559437 63.364056 
L 183.133521 63.789972 
L 182.707606 63.789972 
L 182.28169 64.215887 
L 181.855775 64.215887 
L 181.429859 64.641803 
L 181.003944 64.641803 
L 180.578028 65.067718 
L 180.152113 65.067718 
L 179.726197 65.493634 
L 179.300282 65.493634 
L 178.874366 65.919549 
L 178.448451 65.919549 
L 178.022535 66.345465 
L 177.59662 66.345465 
L 176.744789 67.197296 
L 176.318873 67.197296 
L 175.892958 67.623211 
L 175.467042 67.623211 
L 174.615211 68.475042 
L 174.189296 68.475042 
L 173.76338 68.900958 
L 173.337465 68.900958 
L 172.485634 69.752789 
L 172.059718 69.752789 
L 171.207887 70.60462 
L 170.781972 70.60462 
L 169.504225 71.882366 
L 169.07831 71.882366 
L 167.800563 73.160113 
L 167.374648 73.160113 
L 160.985915 79.548845 
L 160.985915 79.974761 
L 159.282254 81.678423 
L 159.282254 82.104338 
L 158.004507 83.382085 
L 158.004507 83.808 
L 157.152676 84.659831 
L 157.152676 85.085746 
L 156.300845 85.937577 
L 156.300845 86.363493 
L 155.87493 86.789408 
L 155.87493 87.215324 
L 155.449014 87.641239 
L 155.449014 88.067155 
L 155.023099 88.49307 
L 155.023099 88.918986 
L 154.597183 89.344901 
L 154.597183 89.770817 
L 154.171268 90.196732 
L 154.171268 91.048563 
L 153.745352 91.474479 
L 153.745352 92.32631 
L 153.319437 92.752225 
L 153.319437 94.029972 
L 152.893521 94.455887 
L 152.893521 96.159549 
L 152.467606 96.585465 
L 152.467606 100.418704 
L 152.04169 100.84462 
L 152.04169 102.548282 
L 152.467606 102.974197 
L 152.467606 106.807437 
L 152.893521 107.233352 
L 152.893521 108.937014 
L 153.319437 109.36293 
L 153.319437 111.066592 
L 153.745352 111.492507 
L 153.745352 112.344338 
L 154.171268 112.770254 
L 154.171268 113.622085 
L 154.597183 114.048 
L 154.597183 114.899831 
L 155.023099 115.325746 
L 155.023099 115.751662 
L 155.449014 116.177577 
L 155.449014 117.029408 
L 155.87493 117.455324 
L 155.87493 117.881239 
L 156.300845 118.307155 
L 156.300845 118.73307 
L 156.726761 119.158986 
L 156.726761 119.584901 
L 157.152676 120.010817 
L 157.152676 120.436732 
L 157.578592 120.862648 
L 157.578592 121.288563 
L 158.004507 121.714479 
L 158.004507 122.140394 
L 158.430423 122.56631 
L 158.430423 122.992225 
L 159.282254 123.844056 
L 159.282254 124.269972 
L 159.708169 124.695887 
L 159.708169 125.121803 
L 160.56 125.973634 
L 160.56 126.399549 
L 161.837746 127.677296 
L 161.837746 128.103211 
L 166.522817 132.788282 
L 166.948732 132.788282 
L 168.226479 134.066028 
L 168.652394 134.066028 
L 169.07831 134.491944 
L 169.504225 134.491944 
L 169.930141 134.917859 
L 172.911549 134.917859 
L 173.337465 134.491944 
L 175.041127 134.491944 
L 175.467042 134.066028 
L 176.744789 134.066028 
L 177.170704 133.640113 
L 178.022535 133.640113 
L 178.448451 133.214197 
L 179.300282 133.214197 
L 179.726197 132.788282 
L 180.152113 132.788282 
L 180.578028 132.362366 
L 181.003944 132.362366 
L 181.429859 131.936451 
L 181.855775 131.936451 
L 182.28169 131.510535 
L 182.707606 131.510535 
L 183.133521 131.08462 
L 183.559437 131.08462 
L 183.985352 130.658704 
L 184.411268 130.658704 
L 184.837183 130.232789 
L 185.263099 130.232789 
L 186.11493 129.380958 
L 186.540845 129.380958 
L 186.966761 128.955042 
L 187.392676 128.955042 
L 188.244507 128.103211 
L 188.670423 128.103211 
L 189.522254 127.25138 
L 189.948169 127.25138 
L 190.8 126.399549 
L 191.225915 126.399549 
L 192.077746 125.547718 
L 192.503662 125.547718 
L 192.929577 125.121803 
L 193.355493 125.121803 
L 194.207324 124.269972 
L 194.633239 124.269972 
L 195.48507 123.418141 
L 195.910986 123.418141 
L 196.336901 122.992225 
L 196.762817 122.992225 
L 197.614648 122.140394 
L 198.892394 122.140394 
L 199.31831 122.56631 
L 199.31831 123.844056 
L 198.040563 125.121803 
L 197.614648 125.121803 
L 197.188732 125.547718 
L 196.762817 125.547718 
L 195.910986 126.399549 
L 195.48507 126.399549 
L 194.207324 127.677296 
L 193.781408 127.677296 
L 192.929577 128.529127 
L 192.503662 128.529127 
L 192.077746 128.955042 
L 191.651831 128.955042 
L 190.8 129.806873 
L 190.374085 129.806873 
L 189.948169 130.232789 
L 189.522254 130.232789 
L 188.670423 131.08462 
L 188.244507 131.08462 
L 187.818592 131.510535 
L 187.392676 131.510535 
L 186.540845 132.362366 
L 186.11493 132.362366 
L 184.837183 133.640113 
L 184.411268 133.640113 
L 183.559437 134.491944 
L 183.133521 134.491944 
L 181.429859 136.195606 
L 181.003944 136.195606 
L 180.578028 136.621521 
L 180.578028 137.047437 
L 179.300282 138.325183 
L 179.300282 138.751099 
L 178.874366 139.177014 
L 178.874366 140.028845 
L 178.448451 140.454761 
L 178.448451 141.306592 
L 178.022535 141.732507 
L 178.022535 143.010254 
L 177.59662 143.436169 
L 177.59662 148.547155 
L 178.022535 148.97307 
L 178.022535 151.528563 
L 178.448451 151.954479 
L 178.448451 153.232225 
L 178.874366 153.658141 
L 178.874366 154.509972 
L 179.300282 154.935887 
L 179.300282 155.787718 
L 179.726197 156.213634 
L 179.726197 157.065465 
L 180.152113 157.49138 
L 180.152113 158.769127 
L 180.578028 159.195042 
L 180.578028 160.046873 
L 181.003944 160.472789 
L 181.003944 161.32462 
L 181.429859 161.750535 
L 181.429859 162.602366 
L 181.855775 163.028282 
L 181.855775 163.880113 
L 182.28169 164.306028 
L 182.28169 165.157859 
L 182.707606 165.583775 
L 182.707606 166.435606 
L 183.133521 166.861521 
L 183.133521 167.713352 
L 183.559437 168.139268 
L 183.559437 169.417014 
L 183.985352 169.84293 
L 183.985352 170.694761 
L 184.411268 171.120676 
L 184.411268 171.972507 
L 184.837183 172.398423 
L 184.837183 173.250254 
L 185.263099 173.676169 
L 185.263099 174.528 
L 185.689014 174.953915 
L 185.689014 175.805746 
L 186.11493 176.231662 
L 186.11493 177.083493 
L 186.966761 177.935324 
L 186.966761 178.361239 
L 187.392676 178.787155 
L 187.392676 179.638986 
L 187.818592 180.064901 
L 187.818592 180.490817 
L 188.244507 180.916732 
L 188.244507 181.342648 
L 188.670423 181.768563 
L 188.670423 182.194479 
L 189.096338 182.620394 
L 189.096338 183.04631 
L 189.522254 183.472225 
L 189.522254 183.898141 
L 189.948169 184.324056 
L 189.948169 184.749972 
L 190.374085 185.175887 
L 190.374085 185.601803 
L 190.8 186.027718 
L 190.8 186.453634 
L 191.651831 187.305465 
L 191.651831 187.73138 
L 192.077746 188.157296 
L 192.077746 188.583211 
L 192.929577 189.435042 
L 192.929577 189.860958 
L 193.355493 190.286873 
L 193.781408 190.286873 
L 194.633239 191.138704 
L 195.059155 191.138704 
L 195.910986 191.990535 
L 196.336901 191.990535 
L 196.762817 192.416451 
L 197.188732 192.416451 
L 198.040563 193.268282 
L 198.466479 193.268282 
L 198.892394 193.694197 
L 199.744225 193.694197 
L 200.170141 194.120113 
L 201.447887 194.120113 
L 201.873803 194.546028 
L 203.577465 194.546028 
L 204.00338 194.971944 
L 206.132958 194.971944 
L 206.558873 195.397859 
L 215.077183 195.397859 
L 215.503099 195.823775 
L 215.929014 195.823775 
L 216.35493 196.24969 
L 216.35493 198.379268 
L 215.929014 198.805183 
L 215.929014 200.508845 
L 215.503099 200.934761 
L 215.503099 207.749408 
L 215.929014 208.175324 
L 215.929014 212.434479 
L 216.35493 212.860394 
L 216.35493 215.415887 
L 216.780845 215.841803 
L 216.780845 217.97138 
L 217.206761 218.397296 
L 217.206761 220.100958 
L 217.632676 220.526873 
L 217.632676 222.230535 
L 218.058592 222.656451 
L 218.058592 224.360113 
L 218.484507 224.786028 
L 218.484507 226.063775 
L 218.910423 226.48969 
L 218.910423 228.193352 
L 219.336338 228.619268 
L 219.336338 230.32293 
L 219.762254 230.748845 
L 219.762254 232.878423 
L 220.188169 233.304338 
L 220.188169 234.582085 
L 220.614085 235.008 
L 220.614085 236.285746 
L 221.04 236.711662 
L 221.04 237.989408 
L 221.465915 238.415324 
L 221.465915 239.267155 
L 221.891831 239.69307 
L 221.891831 240.970817 
L 222.317746 241.396732 
L 222.317746 243.52631 
L 222.743662 243.952225 
L 222.743662 246.507718 
L 223.169577 246.933634 
L 223.169577 250.340958 
L 222.743662 250.766873 
L 222.743662 253.322366 
L 222.317746 253.748282 
L 222.317746 267.803493 
L 222.743662 268.229408 
L 222.743662 270.784901 
L 223.169577 271.210817 
L 223.169577 272.914479 
L 223.595493 273.340394 
L 223.595493 275.044056 
L 224.021408 275.469972 
L 224.021408 276.747718 
L 224.447324 277.173634 
L 224.447324 278.025465 
L 224.873239 278.45138 
L 224.873239 279.303211 
L 225.299155 279.729127 
L 225.299155 280.580958 
L 225.72507 281.006873 
L 225.72507 281.432789 
L 226.150986 281.858704 
L 226.150986 282.28462 
L 227.002817 283.136451 
L 227.002817 283.562366 
L 227.854648 284.414197 
L 227.854648 284.840113 
L 233.391549 290.377014 
L 233.817465 290.377014 
L 234.669296 291.228845 
L 235.095211 291.228845 
L 235.521127 291.654761 
L 235.947042 291.654761 
L 236.798873 292.506592 
L 237.650704 292.506592 
L 238.07662 292.932507 
L 238.928451 292.932507 
L 239.354366 293.358423 
L 240.206197 293.358423 
L 240.632113 293.784338 
L 241.909859 293.784338 
L 242.335775 294.210254 
L 244.891268 294.210254 
L 245.317183 294.636169 
L 248.298592 294.636169 
L 248.724507 295.062085 
L 251.705915 295.062085 
L 252.131831 295.488 
L 260.650141 295.488 
L 261.076056 295.062085 
L 263.631549 295.062085 
L 264.057465 294.636169 
L 266.612958 294.636169 
L 267.038873 294.210254 
L 268.742535 294.210254 
L 269.168451 293.784338 
L 270.446197 293.784338 
L 270.872113 293.358423 
L 272.149859 293.358423 
L 272.575775 292.932507 
L 273.427606 292.932507 
L 273.853521 292.506592 
L 274.279437 292.506592 
L 274.705352 292.080676 
L 275.131268 292.080676 
L 275.557183 291.654761 
L 275.983099 291.654761 
L 276.83493 290.80293 
L 277.260845 290.80293 
L 277.686761 290.377014 
L 278.112676 290.377014 
L 278.964507 289.525183 
L 279.390423 289.525183 
L 280.668169 288.247437 
L 281.094085 288.247437 
L 284.927324 284.414197 
L 284.927324 283.988282 
L 285.779155 283.136451 
L 285.779155 282.710535 
L 286.630986 281.858704 
L 286.630986 281.432789 
L 287.056901 281.006873 
L 287.056901 280.580958 
L 287.482817 280.155042 
L 287.482817 279.729127 
L 287.908732 279.303211 
L 287.908732 278.45138 
L 288.334648 278.025465 
L 288.334648 277.173634 
L 288.760563 276.747718 
L 288.760563 275.044056 
L 289.186479 274.618141 
L 289.186479 272.062648 
L 289.612394 271.636732 
L 289.612394 267.377577 
L 289.186479 266.951662 
L 289.186479 263.970254 
L 288.760563 263.544338 
L 288.760563 261.414761 
L 288.334648 260.988845 
L 288.334648 259.285183 
L 287.908732 258.859268 
L 287.908732 257.155606 
L 287.482817 256.72969 
L 287.482817 255.026028 
L 287.056901 254.600113 
L 287.056901 253.322366 
L 286.630986 252.896451 
L 286.630986 251.618704 
L 286.20507 251.192789 
L 286.20507 249.915042 
L 285.779155 249.489127 
L 285.779155 248.21138 
L 285.353239 247.785465 
L 285.353239 246.507718 
L 284.927324 246.081803 
L 284.927324 244.804056 
L 284.501408 244.378141 
L 284.501408 243.100394 
L 284.075493 242.674479 
L 284.075493 241.396732 
L 283.649577 240.970817 
L 283.649577 239.69307 
L 283.223662 239.267155 
L 283.223662 237.989408 
L 282.797746 237.563493 
L 282.797746 236.285746 
L 282.371831 235.859831 
L 282.371831 234.156169 
L 281.945915 233.730254 
L 281.945915 232.026592 
L 281.52 231.600676 
L 281.52 229.897014 
L 281.094085 229.471099 
L 281.094085 227.767437 
L 280.668169 227.341521 
L 280.668169 225.637859 
L 280.242254 225.211944 
L 280.242254 222.656451 
L 279.816338 222.230535 
L 279.816338 218.397296 
L 279.390423 217.97138 
L 279.390423 211.156732 
L 279.816338 210.730817 
L 279.816338 208.601239 
L 280.242254 208.175324 
L 280.242254 205.619831 
L 280.668169 205.193915 
L 280.668169 204.342085 
L 281.094085 203.916169 
L 281.094085 202.212507 
L 281.52 201.786592 
L 281.52 200.08293 
L 281.945915 199.657014 
L 281.945915 198.805183 
L 282.371831 198.379268 
L 282.371831 197.101521 
L 282.797746 196.675606 
L 282.797746 195.823775 
L 283.223662 195.397859 
L 283.223662 194.546028 
L 283.649577 194.120113 
L 283.649577 193.268282 
L 284.075493 192.842366 
L 284.075493 192.416451 
L 284.501408 191.990535 
L 284.501408 191.138704 
L 284.927324 190.712789 
L 284.927324 190.286873 
L 285.353239 189.860958 
L 285.353239 189.009127 
L 285.779155 188.583211 
L 285.779155 188.157296 
L 286.20507 187.73138 
L 286.20507 187.305465 
L 286.630986 186.879549 
L 286.630986 186.453634 
L 287.056901 186.027718 
L 287.056901 185.175887 
L 287.482817 184.749972 
L 287.482817 184.324056 
L 287.908732 183.898141 
L 287.908732 183.472225 
L 288.334648 183.04631 
L 288.334648 182.620394 
L 289.186479 181.768563 
L 289.186479 181.342648 
L 289.612394 180.916732 
L 289.612394 180.490817 
L 290.03831 180.064901 
L 290.03831 179.638986 
L 290.890141 178.787155 
L 290.890141 178.361239 
L 292.167887 177.083493 
L 292.167887 176.657577 
L 293.445634 175.379831 
L 293.445634 174.953915 
L 295.149296 173.250254 
L 295.149296 172.824338 
L 297.704789 170.268845 
L 297.704789 169.84293 
L 307.926761 159.620958 
L 308.352676 159.620958 
L 310.482254 157.49138 
L 310.908169 157.49138 
L 313.463662 154.935887 
L 313.463662 154.509972 
L 315.167324 152.80631 
L 315.167324 152.380394 
L 316.44507 151.102648 
L 316.44507 150.676732 
L 316.870986 150.250817 
L 316.870986 149.824901 
L 317.296901 149.398986 
L 317.296901 148.97307 
L 317.722817 148.547155 
L 317.722817 148.121239 
L 318.148732 147.695324 
L 318.148732 147.269408 
L 318.574648 146.843493 
L 318.574648 145.991662 
L 319.000563 145.565746 
L 319.000563 144.713915 
L 319.426479 144.288 
L 319.426479 143.436169 
L 319.852394 143.010254 
L 319.852394 140.880676 
L 320.27831 140.454761 
L 320.27831 135.343775 
L 319.852394 134.917859 
L 319.852394 132.788282 
L 319.426479 132.362366 
L 319.426479 130.658704 
L 319.000563 130.232789 
L 319.000563 128.955042 
L 318.574648 128.529127 
L 318.574648 127.25138 
L 318.148732 126.825465 
L 318.148732 125.973634 
L 317.722817 125.547718 
L 317.722817 124.695887 
L 317.296901 124.269972 
L 317.296901 123.418141 
L 316.870986 122.992225 
L 316.870986 122.56631 
L 316.44507 122.140394 
L 316.44507 121.288563 
L 316.019155 120.862648 
L 316.019155 120.436732 
L 315.593239 120.010817 
L 315.593239 119.158986 
L 315.167324 118.73307 
L 315.167324 118.307155 
L 314.741408 117.881239 
L 314.741408 117.455324 
L 314.315493 117.029408 
L 314.315493 116.603493 
L 313.889577 116.177577 
L 313.889577 115.751662 
L 313.463662 115.325746 
L 313.463662 114.473915 
L 313.037746 114.048 
L 313.037746 113.622085 
L 312.185915 112.770254 
L 312.185915 112.344338 
L 311.76 111.918423 
L 311.76 111.492507 
L 311.334085 111.066592 
L 311.334085 110.640676 
L 310.908169 110.214761 
L 310.908169 109.788845 
L 310.482254 109.36293 
L 310.482254 108.937014 
L 309.630423 108.085183 
L 309.630423 107.659268 
L 308.778592 106.807437 
L 308.778592 106.381521 
L 308.352676 105.955606 
L 308.352676 105.52969 
L 307.500845 104.677859 
L 307.500845 104.251944 
L 306.223099 102.974197 
L 306.223099 102.548282 
L 305.371268 101.696451 
L 305.371268 101.270535 
L 304.093521 99.992789 
L 304.093521 99.566873 
L 302.815775 98.289127 
L 302.815775 97.863211 
L 301.112113 96.159549 
L 301.112113 95.733634 
L 299.408451 94.029972 
L 299.408451 93.604056 
L 296.427042 90.622648 
L 296.427042 90.196732 
L 284.501408 78.271099 
L 284.075493 78.271099 
L 281.094085 75.28969 
L 280.668169 75.28969 
L 278.112676 72.734197 
L 277.686761 72.734197 
L 275.983099 71.030535 
L 275.557183 71.030535 
L 273.853521 69.326873 
L 273.427606 69.326873 
L 272.149859 68.049127 
L 271.723944 68.049127 
L 270.872113 67.197296 
L 270.446197 67.197296 
L 269.168451 65.919549 
L 268.742535 65.919549 
L 267.890704 65.067718 
L 267.464789 65.067718 
L 267.038873 64.641803 
L 266.612958 64.641803 
L 265.761127 63.789972 
L 265.335211 63.789972 
L 264.909296 63.364056 
L 264.48338 63.364056 
L 263.631549 62.512225 
L 263.205634 62.512225 
L 262.779718 62.08631 
L 262.353803 62.08631 
L 261.927887 61.660394 
L 261.501972 61.660394 
L 261.076056 61.234479 
L 260.650141 61.234479 
L 260.224225 60.808563 
L 259.79831 60.808563 
L 259.372394 60.382648 
L 258.946479 60.382648 
L 258.520563 59.956732 
L 258.094648 59.956732 
L 257.668732 59.530817 
L 257.242817 59.530817 
L 256.816901 59.104901 
L 256.390986 59.104901 
L 255.96507 58.678986 
L 255.539155 58.678986 
L 255.113239 58.25307 
L 254.687324 58.25307 
L 254.261408 57.827155 
L 253.835493 57.827155 
L 253.409577 57.401239 
L 252.557746 57.401239 
L 252.131831 56.975324 
L 251.705915 56.975324 
L 251.28 56.549408 
L 250.428169 56.549408 
L 250.002254 56.123493 
L 249.576338 56.123493 
L 249.150423 55.697577 
L 248.724507 55.697577 
L 248.298592 55.271662 
L 247.872676 55.271662 
L 247.446761 54.845746 
L 246.59493 54.845746 
L 246.169014 54.419831 
L 244.891268 54.419831 
L 244.465352 53.993915 
L 242.335775 53.993915 
L 241.909859 53.568 
L 229.132394 53.568 
L 229.132394 53.568 
" style="fill:none;stroke:#ff0000;stroke-linecap:square;stroke-width:1.5;"/>
   </g>
   <g id="line2d_12">
    <path clip-path="url(#p360cc6d22f)" d="M 220.188169 90.196732 
L 220.614085 89.770817 
L 227.854648 89.770817 
L 228.280563 90.196732 
L 231.261972 90.196732 
L 231.687887 90.622648 
L 233.817465 90.622648 
L 234.24338 91.048563 
L 235.521127 91.048563 
L 235.947042 91.474479 
L 236.798873 91.474479 
L 237.224789 91.900394 
L 238.502535 91.900394 
L 238.928451 92.32631 
L 239.780282 92.32631 
L 240.206197 92.752225 
L 240.632113 92.752225 
L 241.058028 93.178141 
L 241.909859 93.178141 
L 242.335775 93.604056 
L 242.76169 93.604056 
L 243.187606 94.029972 
L 243.613521 94.029972 
L 244.465352 94.881803 
L 244.891268 94.881803 
L 245.317183 95.307718 
L 245.743099 95.307718 
L 246.169014 95.733634 
L 246.59493 95.733634 
L 247.020845 96.159549 
L 247.446761 96.159549 
L 248.298592 97.01138 
L 248.724507 97.01138 
L 249.576338 97.863211 
L 250.002254 97.863211 
L 250.854085 98.715042 
L 251.28 98.715042 
L 252.557746 99.992789 
L 252.983662 99.992789 
L 255.113239 102.122366 
L 255.539155 102.122366 
L 263.631549 110.214761 
L 263.631549 110.640676 
L 265.761127 112.770254 
L 265.761127 113.196169 
L 269.168451 116.603493 
L 269.168451 117.029408 
L 270.872113 118.73307 
L 270.872113 119.158986 
L 272.149859 120.436732 
L 272.149859 120.862648 
L 273.853521 122.56631 
L 273.853521 122.992225 
L 274.279437 123.418141 
L 274.279437 123.844056 
L 274.705352 124.269972 
L 274.705352 124.695887 
L 275.131268 125.121803 
L 275.131268 125.973634 
L 275.557183 126.399549 
L 275.557183 131.08462 
L 275.131268 131.510535 
L 275.131268 132.362366 
L 274.705352 132.788282 
L 274.705352 133.214197 
L 274.279437 133.640113 
L 274.279437 134.066028 
L 273.00169 135.343775 
L 273.00169 135.76969 
L 271.298028 137.473352 
L 271.298028 137.899268 
L 270.872113 138.325183 
L 270.872113 138.751099 
L 268.742535 140.880676 
L 268.742535 141.306592 
L 268.31662 141.732507 
L 268.31662 142.158423 
L 267.464789 143.010254 
L 267.464789 143.436169 
L 266.187042 144.713915 
L 266.187042 145.139831 
L 264.909296 146.417577 
L 264.909296 146.843493 
L 263.205634 148.547155 
L 263.205634 148.97307 
L 261.501972 150.676732 
L 261.501972 151.102648 
L 259.372394 153.232225 
L 259.372394 153.658141 
L 258.094648 154.935887 
L 258.094648 155.361803 
L 257.668732 155.787718 
L 257.668732 156.213634 
L 257.242817 156.639549 
L 257.242817 157.065465 
L 256.816901 157.49138 
L 256.816901 158.343211 
L 255.96507 159.195042 
L 255.96507 159.620958 
L 255.539155 160.046873 
L 255.539155 160.472789 
L 255.113239 160.898704 
L 255.113239 161.750535 
L 254.687324 162.176451 
L 254.687324 162.602366 
L 254.261408 163.028282 
L 254.261408 163.454197 
L 253.835493 163.880113 
L 253.835493 164.306028 
L 253.409577 164.731944 
L 253.409577 165.157859 
L 252.983662 165.583775 
L 252.983662 166.00969 
L 252.557746 166.435606 
L 252.557746 166.861521 
L 252.131831 167.287437 
L 252.131831 167.713352 
L 250.854085 168.991099 
L 250.854085 169.417014 
L 249.150423 171.120676 
L 248.724507 171.120676 
L 247.446761 172.398423 
L 247.020845 172.398423 
L 246.59493 172.824338 
L 246.59493 173.250254 
L 246.169014 173.676169 
L 246.169014 174.102085 
L 245.743099 174.528 
L 245.743099 174.953915 
L 245.317183 175.379831 
L 245.317183 175.805746 
L 244.891268 176.231662 
L 244.891268 177.509408 
L 244.465352 177.935324 
L 244.465352 182.620394 
L 244.891268 183.04631 
L 244.891268 188.157296 
L 245.317183 188.583211 
L 245.317183 194.120113 
L 244.891268 194.546028 
L 244.891268 198.805183 
L 244.465352 199.231099 
L 244.465352 200.508845 
L 244.891268 200.934761 
L 244.891268 210.304901 
L 245.317183 210.730817 
L 245.317183 213.712225 
L 245.743099 214.138141 
L 245.743099 217.119549 
L 246.169014 217.545465 
L 246.169014 220.100958 
L 246.59493 220.526873 
L 246.59493 223.082366 
L 247.020845 223.508282 
L 247.020845 225.637859 
L 247.446761 226.063775 
L 247.446761 227.767437 
L 247.872676 228.193352 
L 247.872676 229.897014 
L 248.298592 230.32293 
L 248.298592 232.026592 
L 248.724507 232.452507 
L 248.724507 234.582085 
L 249.150423 235.008 
L 249.150423 236.711662 
L 249.576338 237.137577 
L 249.576338 238.841239 
L 250.002254 239.267155 
L 250.002254 240.544901 
L 250.428169 240.970817 
L 250.428169 242.248563 
L 250.854085 242.674479 
L 250.854085 243.52631 
L 251.28 243.952225 
L 251.28 245.229972 
L 251.705915 245.655887 
L 251.705915 246.933634 
L 252.131831 247.359549 
L 252.131831 248.21138 
L 252.557746 248.637296 
L 252.557746 249.915042 
L 252.983662 250.340958 
L 252.983662 251.192789 
L 253.409577 251.618704 
L 253.409577 252.896451 
L 253.835493 253.322366 
L 253.835493 254.600113 
L 254.261408 255.026028 
L 254.261408 256.303775 
L 254.687324 256.72969 
L 254.687324 258.007437 
L 255.113239 258.433352 
L 255.113239 260.137014 
L 255.539155 260.56293 
L 255.539155 263.118423 
L 254.687324 263.970254 
L 253.409577 263.970254 
L 252.131831 262.692507 
L 252.131831 262.266592 
L 251.28 261.414761 
L 251.28 260.988845 
L 250.854085 260.56293 
L 250.854085 260.137014 
L 250.002254 259.285183 
L 250.002254 258.859268 
L 249.576338 258.433352 
L 249.576338 258.007437 
L 249.150423 257.581521 
L 249.150423 257.155606 
L 248.724507 256.72969 
L 248.724507 256.303775 
L 248.298592 255.877859 
L 248.298592 255.451944 
L 247.872676 255.026028 
L 247.872676 254.600113 
L 247.446761 254.174197 
L 247.446761 253.748282 
L 247.020845 253.322366 
L 247.020845 252.470535 
L 246.59493 252.04462 
L 246.59493 251.618704 
L 246.169014 251.192789 
L 246.169014 250.766873 
L 245.743099 250.340958 
L 245.743099 249.489127 
L 245.317183 249.063211 
L 245.317183 248.637296 
L 244.891268 248.21138 
L 244.891268 247.359549 
L 244.465352 246.933634 
L 244.465352 246.081803 
L 244.039437 245.655887 
L 244.039437 244.804056 
L 243.613521 244.378141 
L 243.613521 243.52631 
L 243.187606 243.100394 
L 243.187606 241.822648 
L 242.76169 241.396732 
L 242.76169 240.544901 
L 242.335775 240.118986 
L 242.335775 238.841239 
L 241.909859 238.415324 
L 241.909859 236.711662 
L 241.483944 236.285746 
L 241.483944 234.156169 
L 241.058028 233.730254 
L 241.058028 230.748845 
L 240.632113 230.32293 
L 240.632113 226.915606 
L 240.206197 226.48969 
L 240.206197 212.008563 
L 240.632113 211.582648 
L 240.632113 209.45307 
L 241.058028 209.027155 
L 241.058028 206.045746 
L 241.483944 205.619831 
L 241.483944 195.823775 
L 241.058028 195.397859 
L 241.058028 191.990535 
L 240.632113 191.56462 
L 240.632113 189.435042 
L 240.206197 189.009127 
L 240.206197 187.73138 
L 239.780282 187.305465 
L 239.780282 186.027718 
L 239.354366 185.601803 
L 239.354366 184.749972 
L 238.928451 184.324056 
L 238.928451 183.898141 
L 238.502535 183.472225 
L 238.502535 183.04631 
L 238.07662 182.620394 
L 238.07662 182.194479 
L 237.650704 181.768563 
L 237.650704 181.342648 
L 236.798873 180.490817 
L 236.798873 180.064901 
L 232.965634 176.231662 
L 232.539718 176.231662 
L 232.113803 175.805746 
L 230.836056 175.805746 
L 230.410141 175.379831 
L 228.706479 175.379831 
L 228.280563 174.953915 
L 227.428732 174.953915 
L 227.002817 174.528 
L 226.150986 174.528 
L 225.72507 174.102085 
L 225.299155 174.102085 
L 224.873239 173.676169 
L 224.447324 173.676169 
L 224.021408 173.250254 
L 223.595493 173.250254 
L 223.169577 172.824338 
L 222.743662 172.824338 
L 222.317746 172.398423 
L 221.891831 172.398423 
L 221.465915 171.972507 
L 221.04 171.972507 
L 220.188169 171.120676 
L 219.762254 171.120676 
L 218.910423 170.268845 
L 218.484507 170.268845 
L 217.206761 168.991099 
L 217.206761 168.565183 
L 216.35493 167.713352 
L 216.35493 167.287437 
L 215.929014 166.861521 
L 215.929014 166.435606 
L 215.503099 166.00969 
L 215.503099 165.157859 
L 215.077183 164.731944 
L 215.077183 164.306028 
L 214.651268 163.880113 
L 214.651268 163.028282 
L 214.225352 162.602366 
L 214.225352 162.176451 
L 213.799437 161.750535 
L 213.799437 160.898704 
L 213.373521 160.472789 
L 213.373521 159.195042 
L 212.947606 158.769127 
L 212.947606 157.065465 
L 212.52169 156.639549 
L 212.52169 155.787718 
L 212.095775 155.361803 
L 212.095775 154.935887 
L 211.669859 154.509972 
L 211.669859 153.658141 
L 211.243944 153.232225 
L 211.243944 152.380394 
L 210.818028 151.954479 
L 210.818028 151.102648 
L 210.392113 150.676732 
L 210.392113 143.436169 
L 210.818028 143.010254 
L 210.818028 141.732507 
L 211.243944 141.306592 
L 211.243944 140.028845 
L 211.669859 139.60293 
L 211.669859 138.751099 
L 212.095775 138.325183 
L 212.095775 137.899268 
L 212.52169 137.473352 
L 212.52169 137.047437 
L 212.947606 136.621521 
L 212.947606 136.195606 
L 213.373521 135.76969 
L 213.373521 135.343775 
L 213.799437 134.917859 
L 213.799437 134.491944 
L 216.35493 131.936451 
L 216.35493 131.510535 
L 221.891831 125.973634 
L 221.891831 125.547718 
L 223.169577 124.269972 
L 223.169577 123.844056 
L 224.447324 122.56631 
L 224.447324 122.140394 
L 224.873239 121.714479 
L 224.873239 121.288563 
L 225.299155 120.862648 
L 225.299155 120.436732 
L 225.72507 120.010817 
L 225.72507 119.584901 
L 226.150986 119.158986 
L 226.150986 118.307155 
L 226.576901 117.881239 
L 226.576901 111.918423 
L 226.150986 111.492507 
L 226.150986 110.640676 
L 225.72507 110.214761 
L 225.72507 109.788845 
L 225.299155 109.36293 
L 225.299155 108.937014 
L 224.873239 108.511099 
L 224.873239 108.085183 
L 224.447324 107.659268 
L 224.447324 107.233352 
L 223.595493 106.381521 
L 223.595493 105.955606 
L 221.891831 104.251944 
L 221.891831 103.826028 
L 220.614085 102.548282 
L 220.188169 102.548282 
L 218.484507 100.84462 
L 218.058592 100.84462 
L 217.206761 99.992789 
L 216.780845 99.992789 
L 215.929014 99.140958 
L 215.503099 99.140958 
L 215.077183 98.715042 
L 214.651268 98.715042 
L 214.225352 98.289127 
L 213.373521 98.289127 
L 212.947606 97.863211 
L 212.095775 97.863211 
L 211.669859 97.437296 
L 210.392113 97.437296 
L 209.966197 97.01138 
L 204.855211 97.01138 
L 204.429296 97.437296 
L 204.00338 97.437296 
L 202.299718 99.140958 
L 201.873803 99.140958 
L 199.31831 101.696451 
L 198.892394 101.696451 
L 196.762817 103.826028 
L 196.336901 103.826028 
L 195.059155 105.103775 
L 194.633239 105.103775 
L 194.207324 105.52969 
L 193.781408 105.52969 
L 193.355493 105.955606 
L 192.929577 105.955606 
L 192.503662 106.381521 
L 192.077746 106.381521 
L 191.651831 106.807437 
L 191.225915 106.807437 
L 190.8 107.233352 
L 189.948169 107.233352 
L 189.522254 107.659268 
L 189.096338 107.659268 
L 188.670423 108.085183 
L 187.818592 108.085183 
L 187.392676 108.511099 
L 186.540845 108.511099 
L 186.11493 108.937014 
L 184.837183 108.937014 
L 184.411268 109.36293 
L 183.133521 109.36293 
L 182.707606 109.788845 
L 178.448451 109.788845 
L 178.022535 109.36293 
L 177.170704 109.36293 
L 176.318873 108.511099 
L 176.318873 106.807437 
L 177.59662 105.52969 
L 178.022535 105.52969 
L 178.874366 104.677859 
L 179.300282 104.677859 
L 179.726197 104.251944 
L 180.152113 104.251944 
L 181.003944 103.400113 
L 181.429859 103.400113 
L 181.855775 102.974197 
L 182.707606 102.974197 
L 183.133521 102.548282 
L 183.559437 102.548282 
L 183.985352 102.122366 
L 184.411268 102.122366 
L 184.837183 101.696451 
L 185.263099 101.696451 
L 185.689014 101.270535 
L 186.11493 101.270535 
L 186.540845 100.84462 
L 186.966761 100.84462 
L 187.392676 100.418704 
L 188.244507 100.418704 
L 188.670423 99.992789 
L 189.096338 99.992789 
L 189.522254 99.566873 
L 189.948169 99.566873 
L 190.374085 99.140958 
L 191.225915 99.140958 
L 191.651831 98.715042 
L 192.077746 98.715042 
L 192.503662 98.289127 
L 192.929577 98.289127 
L 193.355493 97.863211 
L 194.207324 97.863211 
L 194.633239 97.437296 
L 195.059155 97.437296 
L 195.48507 97.01138 
L 196.336901 97.01138 
L 196.762817 96.585465 
L 197.188732 96.585465 
L 197.614648 96.159549 
L 198.466479 96.159549 
L 198.892394 95.733634 
L 199.744225 95.733634 
L 200.170141 95.307718 
L 200.596056 95.307718 
L 201.021972 94.881803 
L 201.873803 94.881803 
L 202.299718 94.455887 
L 203.151549 94.455887 
L 203.577465 94.029972 
L 204.429296 94.029972 
L 204.855211 93.604056 
L 205.707042 93.604056 
L 206.132958 93.178141 
L 206.984789 93.178141 
L 207.410704 92.752225 
L 208.262535 92.752225 
L 208.688451 92.32631 
L 209.966197 92.32631 
L 210.392113 91.900394 
L 211.669859 91.900394 
L 212.095775 91.474479 
L 213.373521 91.474479 
L 213.799437 91.048563 
L 215.077183 91.048563 
L 215.503099 90.622648 
L 217.632676 90.622648 
L 218.058592 90.196732 
L 219.762254 90.196732 
L 219.762254 90.196732 
" style="fill:none;stroke:#0000ff;stroke-linecap:square;stroke-width:1.5;"/>
   </g>
   <g id="line2d_13">
    <path clip-path="url(#p360cc6d22f)" d="M 212.600282 73.604339 
L 219.340377 72.386959 
L 224.45873 71.954648 
L 226.169316 71.87964 
L 227.862008 71.663741 
L 231.280936 71.863903 
L 236.408357 72.095997 
L 238.104441 72.328377 
L 241.432129 73.135093 
L 244.67498 74.236809 
L 247.848216 75.526279 
L 250.948391 76.982705 
L 253.971822 78.592474 
L 256.914649 80.345509 
L 259.775351 82.229709 
L 263.916026 85.271554 
L 267.88141 88.538681 
L 271.69469 91.982341 
L 276.582519 96.783018 
L 281.31104 101.740614 
L 284.672932 105.626161 
L 287.809452 109.695284 
L 290.668061 113.963331 
L 292.393727 116.92083 
L 293.945529 119.971944 
L 295.311343 123.108652 
L 296.481186 126.323751 
L 297.375735 129.625998 
L 297.684095 131.309452 
L 297.853712 133.012428 
L 297.859036 134.723976 
L 297.681902 136.42624 
L 297.314653 138.097917 
L 296.7469 139.71293 
L 295.971147 141.23924 
L 295.043425 142.67756 
L 293.994605 144.029924 
L 291.675399 146.544439 
L 286.910513 151.458257 
L 284.802168 154.159135 
L 279.296011 160.714642 
L 276.175889 164.794847 
L 274.40196 167.730078 
L 269.513707 176.770244 
L 268.749881 178.302362 
L 268.156629 179.908591 
L 267.241092 183.21414 
L 266.384205 186.53926 
L 265.868789 188.17223 
L 265.237279 189.765777 
L 264.335856 193.057621 
L 263.937494 194.720506 
L 263.426556 198.107246 
L 262.933462 203.220823 
L 262.702469 208.352868 
L 262.680062 213.489885 
L 262.815774 216.912463 
L 263.301129 222.026987 
L 264.116762 227.099878 
L 265.486194 233.812898 
L 267.387904 242.163196 
L 269.146142 248.78477 
L 270.865687 255.416242 
L 271.582914 258.764813 
L 272.10963 262.147103 
L 272.288465 263.84997 
L 272.346264 265.560949 
L 272.270111 267.269944 
L 272.07006 268.970051 
L 271.624232 270.622236 
L 270.950594 272.194523 
L 270.013291 273.625982 
L 268.883832 274.912771 
L 267.608164 276.053331 
L 266.198313 277.024323 
L 264.684106 277.823043 
L 263.090692 278.449359 
L 261.442158 278.912079 
L 259.758747 279.225766 
L 256.34814 279.517588 
L 252.925032 279.41218 
L 249.515846 279.082279 
L 247.842089 278.730503 
L 246.204504 278.233453 
L 244.662761 277.490883 
L 243.237559 276.542257 
L 241.933921 275.432513 
L 240.763458 274.183018 
L 239.720948 272.824834 
L 238.796124 271.385543 
L 237.996655 269.874189 
L 236.66478 266.728148 
L 235.672732 263.460376 
L 234.625023 258.447117 
L 234.167053 255.064646 
L 233.343685 248.273854 
L 232.786433 243.174423 
L 232.179827 239.804127 
L 229.998145 229.764979 
L 229.296808 224.675653 
L 228.531881 217.871058 
L 228.280447 214.456941 
L 228.196795 209.32095 
L 228.373346 204.185736 
L 228.599233 200.767766 
L 228.897435 197.356427 
L 228.785226 195.662936 
L 228.335646 194.050274 
L 227.59332 192.519225 
L 226.613975 191.066998 
L 225.453336 189.690805 
L 222.811086 187.155361 
L 220.119189 184.872779 
L 218.495155 184.341188 
L 213.466115 183.443228 
L 210.185911 182.545788 
L 208.63563 181.83328 
L 207.181617 180.938866 
L 205.857284 179.857324 
L 204.740528 178.560784 
L 203.83796 177.106287 
L 200.734076 171.00224 
L 199.590385 167.774088 
L 196.508585 157.970801 
L 194.988919 153.064301 
L 194.2835 149.715225 
L 194.079204 148.015452 
L 194.005824 146.304601 
L 194.247844 142.920527 
L 193.971379 141.385856 
L 193.209048 139.97871 
L 192.053175 138.675263 
L 190.596084 137.451686 
L 187.147541 135.148825 
L 183.602007 132.879502 
L 182.023677 131.697845 
L 180.69807 130.453088 
L 179.71751 129.121402 
L 179.174321 127.678957 
L 179.160825 126.101926 
L 179.67327 124.4761 
L 180.764907 123.210442 
L 182.188914 122.307774 
L 185.221531 120.768181 
L 186.769905 120.048448 
L 191.273275 117.594655 
L 192.771187 117.235759 
L 194.150564 117.849247 
L 195.427092 119.230307 
L 196.618108 121.161416 
L 198.812952 125.803691 
L 199.851455 128.07981 
L 200.873795 130.035887 
L 201.897309 131.454399 
L 202.939335 132.117822 
L 204.017209 131.808633 
L 205.252945 130.716219 
L 206.344006 129.424677 
L 206.629482 127.996279 
L 206.139028 126.645481 
L 205.047327 125.349883 
L 203.529062 124.087087 
L 198.161707 120.271527 
L 196.684011 118.915954 
L 195.653165 117.481191 
L 195.243851 115.944839 
L 194.986206 114.52142 
L 193.38386 115.123266 
L 190.300766 116.615645 
L 184.250844 119.792084 
L 181.104523 121.096167 
L 179.474464 121.594474 
L 177.802126 121.929165 
L 176.102596 122.072018 
L 174.397525 122.005191 
L 172.763375 121.512076 
L 171.320845 120.593727 
L 170.125714 119.369269 
L 168.127613 116.592675 
L 166.484552 113.588769 
L 165.826998 112.007845 
L 165.274891 110.386905 
L 164.857488 108.726147 
L 164.580219 107.036445 
L 164.507096 103.615756 
L 164.760566 101.927535 
L 165.124746 100.254722 
L 165.731529 98.654527 
L 167.410181 95.677441 
L 169.530329 92.994814 
L 171.928405 90.557753 
L 174.563236 88.376803 
L 177.379218 86.435112 
L 180.329902 84.703083 
L 183.386168 83.160344 
L 189.658158 80.403692 
L 194.432483 78.504464 
L 199.294916 76.844548 
L 204.237403 75.441911 
L 209.239678 74.268826 
L 210.918113 73.92717 
L 210.918113 73.92717 
" style="fill:none;stroke:#000000;stroke-linecap:square;stroke-width:1.5;"/>
   </g>
   <g id="line2d_14">
    <defs>
     <path d="M 0 5 
C 1.326016 5 2.597899 4.473168 3.535534 3.535534 
C 4.473168 2.597899 5 1.326016 5 0 
C 5 -1.326016 4.473168 -2.597899 3.535534 -3.535534 
C 2.597899 -4.473168 1.326016 -5 0 -5 
C -1.326016 -5 -2.597899 -4.473168 -3.535534 -3.535534 
C -4.473168 -2.597899 -5 -1.326016 -5 0 
C -5 1.326016 -4.473168 2.597899 -3.535534 3.535534 
C -2.597899 4.473168 -1.326016 5 0 5 
z
" id="mb4ced0aede" style="stroke:#ff0000;"/>
    </defs>
    <g clip-path="url(#p360cc6d22f)">
     <use style="fill:#ff0000;stroke:#ff0000;" x="212.600282" xlink:href="#mb4ced0aede" y="73.604339"/>
    </g>
   </g>
   <g id="line2d_15">
    <defs>
     <path d="M 0 5 
C 1.326016 5 2.597899 4.473168 3.535534 3.535534 
C 4.473168 2.597899 5 1.326016 5 0 
C 5 -1.326016 4.473168 -2.597899 3.535534 -3.535534 
C 2.597899 -4.473168 1.326016 -5 0 -5 
C -1.326016 -5 -2.597899 -4.473168 -3.535534 -3.535534 
C -4.473168 -2.597899 -5 -1.326016 -5 0 
C -5 1.326016 -4.473168 2.597899 -3.535534 3.535534 
C -2.597899 4.473168 -1.326016 5 0 5 
z
" id="m55d0e90067" style="stroke:#008000;"/>
    </defs>
    <g clip-path="url(#p360cc6d22f)">
     <use style="fill:#008000;stroke:#008000;" x="246.26805" xlink:href="#m55d0e90067" y="74.865506"/>
    </g>
   </g>
   <g id="patch_3">
    <path d="M 143.629859 307.584 
L 143.629859 41.472 
" style="fill:none;stroke:#000000;stroke-linecap:square;stroke-linejoin:miter;stroke-width:0.8;"/>
   </g>
   <g id="patch_4">
    <path d="M 328.690141 307.584 
L 328.690141 41.472 
" style="fill:none;stroke:#000000;stroke-linecap:square;stroke-linejoin:miter;stroke-width:0.8;"/>
   </g>
   <g id="patch_5">
    <path d="M 143.629859 307.584 
L 328.690141 307.584 
" style="fill:none;stroke:#000000;stroke-linecap:square;stroke-linejoin:miter;stroke-width:0.8;"/>
   </g>
   <g id="patch_6">
    <path d="M 143.629859 41.472 
L 328.690141 41.472 
" style="fill:none;stroke:#000000;stroke-linecap:square;stroke-linejoin:miter;stroke-width:0.8;"/>
   </g>
  </g>
 </g>
 <defs>
  <clipPath id="p360cc6d22f">
   <rect height="266.112" width="185.060282" x="143.629859" y="41.472"/>
  </clipPath>
 </defs>
</svg>
