<?xml version="1.0" encoding="utf-8" standalone="no"?>
<!DOCTYPE svg PUBLIC "-//W3C//DTD SVG 1.1//EN"
  "http://www.w3.org/Graphics/SVG/1.1/DTD/svg11.dtd">
<!-- Created with matplotlib (https://matplotlib.org/) -->
<svg height="345.6pt" version="1.1" viewBox="0 0 460.8 345.6" width="460.8pt" xmlns="http://www.w3.org/2000/svg" xmlns:xlink="http://www.w3.org/1999/xlink">
 <metadata>
  <rdf:RDF xmlns:cc="http://creativecommons.org/ns#" xmlns:dc="http://purl.org/dc/elements/1.1/" xmlns:rdf="http://www.w3.org/1999/02/22-rdf-syntax-ns#">
   <cc:Work>
    <dc:type rdf:resource="http://purl.org/dc/dcmitype/StillImage"/>
    <dc:date>2024-09-02T20:47:17.375130</dc:date>
    <dc:format>image/svg+xml</dc:format>
    <dc:creator>
     <cc:Agent>
      <dc:title>Matplotlib v3.3.1, https://matplotlib.org/</dc:title>
     </cc:Agent>
    </dc:creator>
   </cc:Work>
  </rdf:RDF>
 </metadata>
 <defs>
  <style type="text/css">*{stroke-linecap:butt;stroke-linejoin:round;}</style>
 </defs>
 <g id="figure_1">
  <g id="patch_1">
   <path d="M 0 345.6 
L 460.8 345.6 
L 460.8 0 
L 0 0 
z
" style="fill:#ffffff;"/>
  </g>
  <g id="axes_1">
   <g id="patch_2">
    <path d="M 83.402891 307.584 
L 388.917109 307.584 
L 388.917109 41.472 
L 83.402891 41.472 
z
" style="fill:#ffffff;"/>
   </g>
   <g id="matplotlib.axis_1">
    <g id="xtick_1">
     <g id="line2d_1">
      <defs>
       <path d="M 0 0 
L 0 3.5 
" id="m7e850b29f0" style="stroke:#000000;stroke-width:0.8;"/>
      </defs>
      <g>
       <use style="stroke:#000000;stroke-width:0.8;" x="109.586387" xlink:href="#m7e850b29f0" y="307.584"/>
      </g>
     </g>
     <g id="text_1">
      <!-- −10 -->
      <g transform="translate(99.034043 322.182437)scale(0.1 -0.1)">
       <defs>
        <path d="M 10.59375 35.5 
L 73.1875 35.5 
L 73.1875 27.203125 
L 10.59375 27.203125 
z
" id="DejaVuSans-8722"/>
        <path d="M 12.40625 8.296875 
L 28.515625 8.296875 
L 28.515625 63.921875 
L 10.984375 60.40625 
L 10.984375 69.390625 
L 28.421875 72.90625 
L 38.28125 72.90625 
L 38.28125 8.296875 
L 54.390625 8.296875 
L 54.390625 0 
L 12.40625 0 
z
" id="DejaVuSans-49"/>
        <path d="M 31.78125 66.40625 
Q 24.171875 66.40625 20.328125 58.90625 
Q 16.5 51.421875 16.5 36.375 
Q 16.5 21.390625 20.328125 13.890625 
Q 24.171875 6.390625 31.78125 6.390625 
Q 39.453125 6.390625 43.28125 13.890625 
Q 47.125 21.390625 47.125 36.375 
Q 47.125 51.421875 43.28125 58.90625 
Q 39.453125 66.40625 31.78125 66.40625 
z
M 31.78125 74.21875 
Q 44.046875 74.21875 50.515625 64.515625 
Q 56.984375 54.828125 56.984375 36.375 
Q 56.984375 17.96875 50.515625 8.265625 
Q 44.046875 -1.421875 31.78125 -1.421875 
Q 19.53125 -1.421875 13.0625 8.265625 
Q 6.59375 17.96875 6.59375 36.375 
Q 6.59375 54.828125 13.0625 64.515625 
Q 19.53125 74.21875 31.78125 74.21875 
z
" id="DejaVuSans-48"/>
       </defs>
       <use xlink:href="#DejaVuSans-8722"/>
       <use x="83.789062" xlink:href="#DejaVuSans-49"/>
       <use x="147.412109" xlink:href="#DejaVuSans-48"/>
      </g>
     </g>
    </g>
    <g id="xtick_2">
     <g id="line2d_2">
      <g>
       <use style="stroke:#000000;stroke-width:0.8;" x="163.04937" xlink:href="#m7e850b29f0" y="307.584"/>
      </g>
     </g>
     <g id="text_2">
      <!-- 0 -->
      <g transform="translate(159.86812 322.182437)scale(0.1 -0.1)">
       <use xlink:href="#DejaVuSans-48"/>
      </g>
     </g>
    </g>
    <g id="xtick_3">
     <g id="line2d_3">
      <g>
       <use style="stroke:#000000;stroke-width:0.8;" x="216.512354" xlink:href="#m7e850b29f0" y="307.584"/>
      </g>
     </g>
     <g id="text_3">
      <!-- 10 -->
      <g transform="translate(210.149854 322.182437)scale(0.1 -0.1)">
       <use xlink:href="#DejaVuSans-49"/>
       <use x="63.623047" xlink:href="#DejaVuSans-48"/>
      </g>
     </g>
    </g>
    <g id="xtick_4">
     <g id="line2d_4">
      <g>
       <use style="stroke:#000000;stroke-width:0.8;" x="269.975337" xlink:href="#m7e850b29f0" y="307.584"/>
      </g>
     </g>
     <g id="text_4">
      <!-- 20 -->
      <g transform="translate(263.612837 322.182437)scale(0.1 -0.1)">
       <defs>
        <path d="M 19.1875 8.296875 
L 53.609375 8.296875 
L 53.609375 0 
L 7.328125 0 
L 7.328125 8.296875 
Q 12.9375 14.109375 22.625 23.890625 
Q 32.328125 33.6875 34.8125 36.53125 
Q 39.546875 41.84375 41.421875 45.53125 
Q 43.3125 49.21875 43.3125 52.78125 
Q 43.3125 58.59375 39.234375 62.25 
Q 35.15625 65.921875 28.609375 65.921875 
Q 23.96875 65.921875 18.8125 64.3125 
Q 13.671875 62.703125 7.8125 59.421875 
L 7.8125 69.390625 
Q 13.765625 71.78125 18.9375 73 
Q 24.125 74.21875 28.421875 74.21875 
Q 39.75 74.21875 46.484375 68.546875 
Q 53.21875 62.890625 53.21875 53.421875 
Q 53.21875 48.921875 51.53125 44.890625 
Q 49.859375 40.875 45.40625 35.40625 
Q 44.1875 33.984375 37.640625 27.21875 
Q 31.109375 20.453125 19.1875 8.296875 
z
" id="DejaVuSans-50"/>
       </defs>
       <use xlink:href="#DejaVuSans-50"/>
       <use x="63.623047" xlink:href="#DejaVuSans-48"/>
      </g>
     </g>
    </g>
    <g id="xtick_5">
     <g id="line2d_5">
      <g>
       <use style="stroke:#000000;stroke-width:0.8;" x="323.43832" xlink:href="#m7e850b29f0" y="307.584"/>
      </g>
     </g>
     <g id="text_5">
      <!-- 30 -->
      <g transform="translate(317.07582 322.182437)scale(0.1 -0.1)">
       <defs>
        <path d="M 40.578125 39.3125 
Q 47.65625 37.796875 51.625 33 
Q 55.609375 28.21875 55.609375 21.1875 
Q 55.609375 10.40625 48.1875 4.484375 
Q 40.765625 -1.421875 27.09375 -1.421875 
Q 22.515625 -1.421875 17.65625 -0.515625 
Q 12.796875 0.390625 7.625 2.203125 
L 7.625 11.71875 
Q 11.71875 9.328125 16.59375 8.109375 
Q 21.484375 6.890625 26.8125 6.890625 
Q 36.078125 6.890625 40.9375 10.546875 
Q 45.796875 14.203125 45.796875 21.1875 
Q 45.796875 27.640625 41.28125 31.265625 
Q 36.765625 34.90625 28.71875 34.90625 
L 20.21875 34.90625 
L 20.21875 43.015625 
L 29.109375 43.015625 
Q 36.375 43.015625 40.234375 45.921875 
Q 44.09375 48.828125 44.09375 54.296875 
Q 44.09375 59.90625 40.109375 62.90625 
Q 36.140625 65.921875 28.71875 65.921875 
Q 24.65625 65.921875 20.015625 65.03125 
Q 15.375 64.15625 9.8125 62.3125 
L 9.8125 71.09375 
Q 15.4375 72.65625 20.34375 73.4375 
Q 25.25 74.21875 29.59375 74.21875 
Q 40.828125 74.21875 47.359375 69.109375 
Q 53.90625 64.015625 53.90625 55.328125 
Q 53.90625 49.265625 50.4375 45.09375 
Q 46.96875 40.921875 40.578125 39.3125 
z
" id="DejaVuSans-51"/>
       </defs>
       <use xlink:href="#DejaVuSans-51"/>
       <use x="63.623047" xlink:href="#DejaVuSans-48"/>
      </g>
     </g>
    </g>
    <g id="xtick_6">
     <g id="line2d_6">
      <g>
       <use style="stroke:#000000;stroke-width:0.8;" x="376.901304" xlink:href="#m7e850b29f0" y="307.584"/>
      </g>
     </g>
     <g id="text_6">
      <!-- 40 -->
      <g transform="translate(370.538804 322.182437)scale(0.1 -0.1)">
       <defs>
        <path d="M 37.796875 64.3125 
L 12.890625 25.390625 
L 37.796875 25.390625 
z
M 35.203125 72.90625 
L 47.609375 72.90625 
L 47.609375 25.390625 
L 58.015625 25.390625 
L 58.015625 17.1875 
L 47.609375 17.1875 
L 47.609375 0 
L 37.796875 0 
L 37.796875 17.1875 
L 4.890625 17.1875 
L 4.890625 26.703125 
z
" id="DejaVuSans-52"/>
       </defs>
       <use xlink:href="#DejaVuSans-52"/>
       <use x="63.623047" xlink:href="#DejaVuSans-48"/>
      </g>
     </g>
    </g>
   </g>
   <g id="matplotlib.axis_2">
    <g id="ytick_1">
     <g id="line2d_7">
      <defs>
       <path d="M 0 0 
L -3.5 0 
" id="ma00652734b" style="stroke:#000000;stroke-width:0.8;"/>
      </defs>
      <g>
       <use style="stroke:#000000;stroke-width:0.8;" x="83.402891" xlink:href="#ma00652734b" y="274.102807"/>
      </g>
     </g>
     <g id="text_7">
      <!-- −40 -->
      <g transform="translate(55.298203 277.902025)scale(0.1 -0.1)">
       <use xlink:href="#DejaVuSans-8722"/>
       <use x="83.789062" xlink:href="#DejaVuSans-52"/>
       <use x="147.412109" xlink:href="#DejaVuSans-48"/>
      </g>
     </g>
    </g>
    <g id="ytick_2">
     <g id="line2d_8">
      <g>
       <use style="stroke:#000000;stroke-width:0.8;" x="83.402891" xlink:href="#ma00652734b" y="220.639823"/>
      </g>
     </g>
     <g id="text_8">
      <!-- −30 -->
      <g transform="translate(55.298203 224.439042)scale(0.1 -0.1)">
       <use xlink:href="#DejaVuSans-8722"/>
       <use x="83.789062" xlink:href="#DejaVuSans-51"/>
       <use x="147.412109" xlink:href="#DejaVuSans-48"/>
      </g>
     </g>
    </g>
    <g id="ytick_3">
     <g id="line2d_9">
      <g>
       <use style="stroke:#000000;stroke-width:0.8;" x="83.402891" xlink:href="#ma00652734b" y="167.17684"/>
      </g>
     </g>
     <g id="text_9">
      <!-- −20 -->
      <g transform="translate(55.298203 170.976059)scale(0.1 -0.1)">
       <use xlink:href="#DejaVuSans-8722"/>
       <use x="83.789062" xlink:href="#DejaVuSans-50"/>
       <use x="147.412109" xlink:href="#DejaVuSans-48"/>
      </g>
     </g>
    </g>
    <g id="ytick_4">
     <g id="line2d_10">
      <g>
       <use style="stroke:#000000;stroke-width:0.8;" x="83.402891" xlink:href="#ma00652734b" y="113.713856"/>
      </g>
     </g>
     <g id="text_10">
      <!-- −10 -->
      <g transform="translate(55.298203 117.513075)scale(0.1 -0.1)">
       <use xlink:href="#DejaVuSans-8722"/>
       <use x="83.789062" xlink:href="#DejaVuSans-49"/>
       <use x="147.412109" xlink:href="#DejaVuSans-48"/>
      </g>
     </g>
    </g>
    <g id="ytick_5">
     <g id="line2d_11">
      <g>
       <use style="stroke:#000000;stroke-width:0.8;" x="83.402891" xlink:href="#ma00652734b" y="60.250873"/>
      </g>
     </g>
     <g id="text_11">
      <!-- 0 -->
      <g transform="translate(70.040391 64.050092)scale(0.1 -0.1)">
       <use xlink:href="#DejaVuSans-48"/>
      </g>
     </g>
    </g>
   </g>
   <g id="line2d_12">
    <path clip-path="url(#p98375ba6cb)" d="M 189.246232 53.568 
L 188.978917 53.835315 
L 179.622895 53.835315 
L 179.35558 54.10263 
L 174.543912 54.10263 
L 174.276597 54.369945 
L 170.534188 54.369945 
L 170.266873 54.63726 
L 167.326409 54.63726 
L 167.059094 54.904575 
L 165.18789 54.904575 
L 164.920575 55.17189 
L 163.584 55.17189 
L 163.316685 55.439204 
L 161.98011 55.439204 
L 161.712796 55.706519 
L 160.376221 55.706519 
L 160.108906 55.973834 
L 159.039646 55.973834 
L 158.772331 56.241149 
L 157.703072 56.241149 
L 157.435757 56.508464 
L 156.366497 56.508464 
L 156.099182 56.775779 
L 155.029923 56.775779 
L 154.762608 57.043094 
L 153.693348 57.043094 
L 153.426033 57.310409 
L 152.356773 57.310409 
L 152.089459 57.577724 
L 151.287514 57.577724 
L 151.020199 57.845039 
L 149.950939 57.845039 
L 149.683624 58.112354 
L 148.88168 58.112354 
L 148.614365 58.379669 
L 147.81242 58.379669 
L 147.545105 58.646983 
L 146.475845 58.646983 
L 146.20853 58.914298 
L 145.406586 58.914298 
L 145.139271 59.181613 
L 144.337326 59.181613 
L 144.070011 59.448928 
L 143.000751 59.448928 
L 142.733436 59.716243 
L 141.931492 59.716243 
L 141.664177 59.983558 
L 140.862232 59.983558 
L 140.594917 60.250873 
L 140.060287 60.250873 
L 139.792972 60.518188 
L 138.991028 60.518188 
L 138.723713 60.785503 
L 138.189083 60.785503 
L 137.921768 61.052818 
L 137.387138 61.052818 
L 137.119823 61.320133 
L 136.852508 61.320133 
L 136.585193 61.587448 
L 136.050564 61.587448 
L 135.783249 61.854762 
L 135.248619 61.854762 
L 134.981304 62.122077 
L 134.713989 62.122077 
L 134.446674 62.389392 
L 134.179359 62.389392 
L 133.912044 62.656707 
L 133.377414 62.656707 
L 133.110099 62.924022 
L 132.842785 62.924022 
L 132.57547 63.191337 
L 132.308155 63.191337 
L 132.04084 63.458652 
L 131.773525 63.458652 
L 131.50621 63.725967 
L 131.238895 63.725967 
L 130.97158 63.993282 
L 130.704265 63.993282 
L 130.43695 64.260597 
L 130.169635 64.260597 
L 129.90232 64.527912 
L 129.635006 64.527912 
L 129.367691 64.795227 
L 129.100376 64.795227 
L 128.833061 65.062541 
L 128.565746 65.062541 
L 128.298431 65.329856 
L 128.031116 65.329856 
L 127.763801 65.597171 
L 127.496486 65.597171 
L 126.961856 66.131801 
L 126.694541 66.131801 
L 126.427227 66.399116 
L 126.159912 66.399116 
L 125.625282 66.933746 
L 125.357967 66.933746 
L 124.823337 67.468376 
L 124.556022 67.468376 
L 124.021392 68.003006 
L 123.754077 68.003006 
L 123.219448 68.537635 
L 122.952133 68.537635 
L 122.417503 69.072265 
L 122.150188 69.072265 
L 121.348243 69.87421 
L 121.080928 69.87421 
L 120.278983 70.676155 
L 120.011669 70.676155 
L 118.942409 71.745414 
L 118.675094 71.745414 
L 118.140464 72.280044 
L 117.873149 72.280044 
L 117.338519 72.814674 
L 117.071204 72.814674 
L 116.001945 73.883934 
L 115.73463 73.883934 
L 115.2 74.418564 
L 114.932685 74.418564 
L 114.13074 75.220508 
L 113.59611 75.220508 
L 113.328796 75.487823 
L 113.061481 75.487823 
L 112.794166 75.755138 
L 112.526851 75.755138 
L 112.259536 76.022453 
L 111.724906 76.022453 
L 111.457591 76.289768 
L 108.517127 76.289768 
L 108.249812 76.022453 
L 103.705459 76.022453 
L 103.438144 76.289768 
L 102.903514 76.289768 
L 102.636199 76.557083 
L 102.101569 76.557083 
L 101.834254 76.824398 
L 101.566939 76.824398 
L 101.032309 77.359028 
L 100.764994 77.359028 
L 99.161105 78.962917 
L 99.161105 79.230232 
L 98.626475 79.764862 
L 98.626475 80.032177 
L 98.35916 80.299492 
L 98.35916 80.566807 
L 98.091845 80.834122 
L 98.091845 81.101436 
L 97.82453 81.368751 
L 97.82453 82.170696 
L 97.557215 82.438011 
L 97.557215 83.507271 
L 97.289901 83.774586 
L 97.289901 85.378475 
L 97.557215 85.64579 
L 97.557215 97.407646 
L 97.82453 97.674961 
L 97.82453 110.506077 
L 98.091845 110.773392 
L 98.091845 117.990895 
L 98.35916 118.25821 
L 98.35916 119.060155 
L 98.626475 119.32747 
L 98.626475 119.862099 
L 98.89379 120.129414 
L 98.89379 120.664044 
L 99.161105 120.931359 
L 99.161105 121.198674 
L 99.42842 121.465989 
L 99.42842 121.733304 
L 99.695735 122.000619 
L 99.695735 122.267934 
L 100.230365 122.802564 
L 100.230365 123.069878 
L 101.299624 124.139138 
L 101.299624 124.406453 
L 101.566939 124.673768 
L 101.834254 124.673768 
L 102.636199 125.475713 
L 102.903514 125.475713 
L 103.170829 125.743028 
L 103.438144 125.743028 
L 103.705459 126.010343 
L 104.240088 126.010343 
L 104.507403 126.277657 
L 105.042033 126.277657 
L 105.309348 126.544972 
L 109.853702 126.544972 
L 110.121017 126.277657 
L 110.922961 126.277657 
L 111.190276 126.010343 
L 111.457591 126.010343 
L 111.724906 125.743028 
L 112.259536 125.743028 
L 112.526851 125.475713 
L 112.794166 125.475713 
L 113.061481 125.208398 
L 113.328796 125.208398 
L 113.863425 124.673768 
L 114.13074 124.673768 
L 114.66537 124.139138 
L 114.932685 124.139138 
L 117.071204 122.000619 
L 117.071204 121.733304 
L 117.605834 121.198674 
L 117.605834 120.931359 
L 117.873149 120.664044 
L 117.873149 120.396729 
L 118.675094 119.594785 
L 118.675094 119.32747 
L 119.209724 118.79284 
L 119.209724 118.25821 
L 119.477039 117.990895 
L 119.477039 117.18895 
L 119.744354 116.921635 
L 119.744354 116.65432 
L 120.011669 116.387006 
L 120.011669 115.852376 
L 120.278983 115.585061 
L 120.278983 115.317746 
L 120.546298 115.050431 
L 120.546298 114.515801 
L 121.080928 113.981171 
L 121.080928 113.446541 
L 121.348243 113.179227 
L 121.348243 112.911912 
L 121.615558 112.644597 
L 121.615558 112.377282 
L 121.882873 112.109967 
L 121.882873 111.842652 
L 122.417503 111.308022 
L 122.417503 111.040707 
L 122.684818 110.773392 
L 122.684818 110.506077 
L 122.952133 110.238762 
L 122.952133 109.971448 
L 123.486762 109.436818 
L 123.486762 109.169503 
L 123.754077 108.902188 
L 123.754077 108.634873 
L 124.021392 108.367558 
L 124.021392 108.100243 
L 124.556022 107.565613 
L 124.556022 107.298298 
L 125.625282 106.229039 
L 125.625282 105.961724 
L 125.892597 105.694409 
L 125.892597 105.427094 
L 126.427227 104.892464 
L 126.427227 104.625149 
L 126.694541 104.357834 
L 126.694541 104.090519 
L 126.961856 103.823204 
L 126.961856 103.55589 
L 128.565746 101.952 
L 128.565746 101.684685 
L 129.90232 100.34811 
L 129.90232 100.080796 
L 133.644729 96.338387 
L 133.912044 96.338387 
L 136.317878 93.932552 
L 136.585193 93.932552 
L 137.921768 92.595978 
L 138.189083 92.595978 
L 138.456398 92.328663 
L 138.723713 92.328663 
L 139.258343 91.794033 
L 139.525657 91.794033 
L 140.060287 91.259403 
L 140.327602 91.259403 
L 140.594917 90.992088 
L 141.129547 90.992088 
L 141.396862 90.724773 
L 141.664177 90.724773 
L 141.931492 90.457459 
L 142.198807 90.457459 
L 142.466122 90.190144 
L 143.000751 90.190144 
L 143.268066 89.922829 
L 144.337326 89.922829 
L 144.604641 89.655514 
L 148.614365 89.655514 
L 148.88168 89.922829 
L 149.683624 89.922829 
L 149.950939 90.190144 
L 150.218254 90.190144 
L 150.752884 90.724773 
L 151.020199 90.724773 
L 151.287514 90.992088 
L 151.554829 90.992088 
L 151.822144 91.259403 
L 152.089459 91.259403 
L 152.356773 91.526718 
L 152.624088 91.526718 
L 152.891403 91.794033 
L 153.158718 91.794033 
L 153.426033 92.061348 
L 153.693348 92.061348 
L 153.960663 92.328663 
L 154.227978 92.328663 
L 154.495293 92.595978 
L 155.029923 92.595978 
L 155.297238 92.863293 
L 155.564552 92.863293 
L 155.831867 93.130608 
L 156.366497 93.130608 
L 156.633812 93.397923 
L 157.168442 93.397923 
L 157.435757 93.665238 
L 157.970387 93.665238 
L 158.237702 93.932552 
L 158.772331 93.932552 
L 159.039646 94.199867 
L 160.108906 94.199867 
L 160.376221 94.467182 
L 162.247425 94.467182 
L 162.51474 94.734497 
L 163.851315 94.734497 
L 164.11863 94.467182 
L 165.722519 94.467182 
L 165.989834 94.199867 
L 167.593724 94.199867 
L 167.861039 93.932552 
L 169.197613 93.932552 
L 169.464928 93.665238 
L 171.068818 93.665238 
L 171.336133 93.397923 
L 172.940022 93.397923 
L 173.207337 93.130608 
L 174.543912 93.130608 
L 174.811227 92.863293 
L 176.415116 92.863293 
L 176.682431 92.595978 
L 178.28632 92.595978 
L 178.553635 92.328663 
L 179.89021 92.328663 
L 180.157525 92.061348 
L 181.761414 92.061348 
L 182.028729 91.794033 
L 183.632619 91.794033 
L 183.899934 91.526718 
L 185.236508 91.526718 
L 185.503823 91.259403 
L 187.107713 91.259403 
L 187.375028 90.992088 
L 188.711602 90.992088 
L 188.978917 90.724773 
L 189.780862 90.724773 
L 190.048177 90.457459 
L 190.582807 90.457459 
L 190.850122 90.190144 
L 191.117436 90.190144 
L 191.384751 89.922829 
L 191.919381 89.922829 
L 192.186696 89.655514 
L 192.454011 89.655514 
L 192.988641 89.120884 
L 193.255956 89.120884 
L 194.057901 88.318939 
L 194.325215 88.318939 
L 194.859845 87.784309 
L 195.12716 87.784309 
L 195.66179 87.24968 
L 195.929105 87.24968 
L 196.19642 86.982365 
L 196.73105 86.982365 
L 196.998365 86.71505 
L 197.800309 86.71505 
L 198.067624 86.447735 
L 198.334939 86.447735 
L 198.602254 86.18042 
L 198.869569 86.18042 
L 199.136884 86.447735 
L 202.611978 86.447735 
L 202.879293 86.71505 
L 205.819757 86.71505 
L 206.087072 86.982365 
L 208.225591 86.982365 
L 208.492906 87.24968 
L 210.631425 87.24968 
L 210.89874 87.516994 
L 212.50263 87.516994 
L 212.769945 87.784309 
L 214.373834 87.784309 
L 214.641149 88.051624 
L 215.977724 88.051624 
L 216.245039 88.318939 
L 217.581613 88.318939 
L 217.848928 88.586254 
L 218.918188 88.586254 
L 219.185503 88.853569 
L 220.254762 88.853569 
L 220.522077 89.120884 
L 221.324022 89.120884 
L 221.591337 89.388199 
L 222.393282 89.388199 
L 222.660597 89.655514 
L 223.462541 89.655514 
L 223.729856 89.922829 
L 224.264486 89.922829 
L 224.531801 90.190144 
L 225.066431 90.190144 
L 225.333746 90.457459 
L 225.868376 90.457459 
L 226.135691 90.724773 
L 226.403006 90.724773 
L 226.937635 91.259403 
L 227.20495 91.259403 
L 228.27421 92.328663 
L 228.27421 92.595978 
L 228.80884 93.130608 
L 228.80884 93.397923 
L 229.076155 93.665238 
L 229.076155 94.199867 
L 229.34347 94.467182 
L 229.34347 95.803757 
L 229.610785 96.071072 
L 229.610785 97.407646 
L 229.878099 97.674961 
L 229.878099 99.011536 
L 230.145414 99.278851 
L 230.145414 100.615425 
L 230.412729 100.88274 
L 230.412729 102.219315 
L 230.680044 102.48663 
L 230.680044 103.823204 
L 230.947359 104.090519 
L 230.947359 105.159779 
L 231.214674 105.427094 
L 231.214674 106.763669 
L 231.481989 107.030983 
L 231.481989 108.367558 
L 231.749304 108.634873 
L 231.749304 109.971448 
L 232.016619 110.238762 
L 232.016619 111.575337 
L 232.283934 111.842652 
L 232.283934 113.179227 
L 232.551249 113.446541 
L 232.551249 115.050431 
L 232.818564 115.317746 
L 232.818564 117.18895 
L 233.085878 117.456265 
L 233.085878 119.060155 
L 233.353193 119.32747 
L 233.353193 121.198674 
L 233.620508 121.465989 
L 233.620508 123.069878 
L 233.887823 123.337193 
L 233.887823 124.941083 
L 234.155138 125.208398 
L 234.155138 127.079602 
L 234.422453 127.346917 
L 234.422453 128.950807 
L 234.689768 129.218122 
L 234.689768 131.089326 
L 234.957083 131.356641 
L 234.957083 132.96053 
L 235.224398 133.227845 
L 235.224398 135.09905 
L 235.491713 135.366365 
L 235.491713 136.970254 
L 235.759028 137.237569 
L 235.759028 139.643403 
L 235.491713 139.910718 
L 235.491713 140.979978 
L 235.224398 141.247293 
L 235.224398 141.514608 
L 234.957083 141.781923 
L 234.957083 142.583867 
L 234.689768 142.851182 
L 234.689768 143.385812 
L 234.422453 143.653127 
L 234.422453 143.920442 
L 234.155138 144.187757 
L 234.155138 144.455072 
L 233.887823 144.722387 
L 233.887823 144.989702 
L 233.620508 145.257017 
L 233.620508 145.524331 
L 233.353193 145.791646 
L 233.353193 146.058961 
L 233.085878 146.326276 
L 233.085878 147.128221 
L 232.818564 147.395536 
L 232.818564 148.197481 
L 232.551249 148.464796 
L 232.551249 150.603315 
L 232.818564 150.87063 
L 232.818564 152.741834 
L 233.085878 153.009149 
L 233.085878 154.880354 
L 233.353193 155.147669 
L 233.353193 156.751558 
L 233.620508 157.018873 
L 233.620508 158.890077 
L 233.887823 159.157392 
L 233.887823 160.761282 
L 234.155138 161.028597 
L 234.155138 162.097856 
L 234.422453 162.365171 
L 234.422453 163.434431 
L 234.689768 163.701746 
L 234.689768 164.503691 
L 234.957083 164.771006 
L 234.957083 165.57295 
L 235.224398 165.840265 
L 235.224398 166.64221 
L 235.491713 166.909525 
L 235.491713 167.71147 
L 235.759028 167.978785 
L 235.759028 168.513414 
L 236.026343 168.513414 
L 236.293657 168.780729 
L 236.560972 168.780729 
L 237.095602 169.315359 
L 240.303381 169.315359 
L 240.570696 169.582674 
L 241.639956 169.582674 
L 241.907271 169.849989 
L 242.174586 169.849989 
L 243.51116 171.186564 
L 243.51116 171.453878 
L 243.778475 171.721193 
L 243.778475 172.523138 
L 244.04579 172.790453 
L 244.04579 174.127028 
L 244.313105 174.394343 
L 244.313105 175.998232 
L 244.58042 176.265547 
L 244.58042 177.602122 
L 244.847735 177.869436 
L 244.847735 179.206011 
L 245.11505 179.473326 
L 245.11505 181.077215 
L 245.382365 181.34453 
L 245.382365 182.681105 
L 245.64968 182.94842 
L 245.64968 184.284994 
L 245.916994 184.552309 
L 245.916994 186.156199 
L 246.184309 186.423514 
L 246.184309 187.760088 
L 246.451624 188.027403 
L 246.451624 189.363978 
L 246.718939 189.631293 
L 246.718939 191.235182 
L 246.986254 191.502497 
L 246.986254 192.839072 
L 247.253569 193.106387 
L 247.253569 194.442961 
L 247.520884 194.710276 
L 247.520884 196.314166 
L 247.788199 196.581481 
L 247.788199 197.918055 
L 248.055514 198.18537 
L 248.055514 199.521945 
L 248.322829 199.78926 
L 248.322829 201.393149 
L 248.590144 201.660464 
L 248.590144 202.997039 
L 248.857459 203.264354 
L 248.857459 204.600928 
L 249.124773 204.868243 
L 249.124773 206.204818 
L 249.392088 206.472133 
L 249.392088 207.808707 
L 249.659403 208.076022 
L 249.659403 209.412597 
L 249.926718 209.679912 
L 249.926718 210.749171 
L 250.194033 211.016486 
L 250.194033 212.085746 
L 250.461348 212.353061 
L 250.461348 213.155006 
L 250.728663 213.42232 
L 250.728663 214.49158 
L 250.995978 214.758895 
L 250.995978 215.828155 
L 251.263293 216.09547 
L 251.263293 216.897414 
L 251.530608 217.164729 
L 251.530608 217.966674 
L 251.797923 218.233989 
L 251.797923 219.035934 
L 252.065238 219.303249 
L 252.065238 220.105193 
L 252.332552 220.372508 
L 252.332552 220.907138 
L 252.599867 221.174453 
L 252.599867 221.976398 
L 252.867182 222.243713 
L 252.867182 222.778343 
L 253.134497 223.045657 
L 253.134497 223.847602 
L 253.401812 224.114917 
L 253.401812 224.649547 
L 253.669127 224.916862 
L 253.669127 225.451492 
L 253.936442 225.718807 
L 253.936442 226.253436 
L 254.203757 226.520751 
L 254.203757 226.788066 
L 254.471072 227.055381 
L 254.471072 227.590011 
L 254.738387 227.857326 
L 254.738387 228.391956 
L 255.005702 228.659271 
L 255.005702 228.926586 
L 255.273017 229.193901 
L 255.273017 229.72853 
L 255.540331 229.995845 
L 255.540331 230.26316 
L 255.807646 230.530475 
L 255.807646 231.065105 
L 256.074961 231.33242 
L 256.074961 231.599735 
L 256.342276 231.86705 
L 256.342276 232.40168 
L 256.609591 232.668994 
L 256.609591 232.936309 
L 256.876906 233.203624 
L 256.876906 233.738254 
L 257.144221 234.005569 
L 257.144221 234.272884 
L 257.411536 234.540199 
L 257.411536 234.807514 
L 257.678851 235.074829 
L 257.678851 235.342144 
L 257.946166 235.609459 
L 257.946166 235.876773 
L 258.213481 236.144088 
L 258.213481 236.411403 
L 258.480796 236.678718 
L 258.480796 237.213348 
L 258.74811 237.480663 
L 258.74811 237.747978 
L 259.015425 238.015293 
L 259.015425 238.282608 
L 259.550055 238.817238 
L 259.550055 239.084552 
L 259.81737 239.351867 
L 259.81737 239.619182 
L 260.084685 239.886497 
L 260.084685 240.153812 
L 260.352 240.421127 
L 260.352 240.688442 
L 260.619315 240.955757 
L 260.619315 241.223072 
L 261.153945 241.757702 
L 261.153945 242.025017 
L 261.42126 242.292331 
L 261.42126 242.559646 
L 261.688575 242.826961 
L 261.688575 243.094276 
L 262.223204 243.628906 
L 262.223204 243.896221 
L 262.490519 244.163536 
L 262.490519 244.430851 
L 263.025149 244.965481 
L 263.025149 245.232796 
L 263.559779 245.767425 
L 263.559779 246.03474 
L 263.827094 246.302055 
L 263.827094 246.56937 
L 264.361724 247.104 
L 264.361724 247.371315 
L 264.896354 247.905945 
L 264.896354 248.17326 
L 265.430983 248.70789 
L 265.430983 248.975204 
L 265.965613 249.509834 
L 265.965613 249.777149 
L 266.500243 250.311779 
L 266.500243 250.579094 
L 267.302188 251.381039 
L 267.302188 251.648354 
L 268.104133 252.450298 
L 268.104133 252.717613 
L 268.638762 253.252243 
L 268.638762 253.519558 
L 269.440707 254.321503 
L 269.440707 254.588818 
L 270.242652 255.390762 
L 270.242652 255.658077 
L 271.311912 256.727337 
L 271.311912 256.994652 
L 272.381171 258.063912 
L 272.381171 258.331227 
L 273.450431 259.400486 
L 273.450431 259.667801 
L 274.787006 261.004376 
L 274.787006 261.271691 
L 276.12358 262.608265 
L 276.12358 262.87558 
L 278.262099 265.014099 
L 278.262099 265.281414 
L 281.737193 268.756508 
L 281.737193 269.023823 
L 286.014232 273.300862 
L 286.281547 273.300862 
L 286.816177 273.835492 
L 287.083492 273.835492 
L 287.618122 274.370122 
L 287.885436 274.370122 
L 288.420066 274.904751 
L 288.687381 274.904751 
L 289.222011 275.439381 
L 289.489326 275.439381 
L 290.023956 275.974011 
L 290.291271 275.974011 
L 290.558586 276.241326 
L 290.825901 276.241326 
L 291.36053 276.775956 
L 291.627845 276.775956 
L 291.89516 277.043271 
L 292.162475 277.043271 
L 292.697105 277.577901 
L 292.96442 277.577901 
L 293.231735 277.845215 
L 293.49905 277.845215 
L 293.766365 278.11253 
L 294.03368 278.11253 
L 294.568309 278.64716 
L 294.835624 278.64716 
L 295.102939 278.914475 
L 295.370254 278.914475 
L 295.637569 279.18179 
L 295.904884 279.18179 
L 296.172199 279.449105 
L 296.439514 279.449105 
L 296.706829 279.71642 
L 296.974144 279.71642 
L 297.241459 279.983735 
L 297.508773 279.983735 
L 297.776088 280.25105 
L 298.043403 280.25105 
L 298.310718 280.518365 
L 298.578033 280.518365 
L 298.845348 280.78568 
L 299.112663 280.78568 
L 299.379978 281.052994 
L 299.647293 281.052994 
L 299.914608 281.320309 
L 300.181923 281.320309 
L 300.449238 281.587624 
L 300.716552 281.587624 
L 300.983867 281.854939 
L 301.251182 281.854939 
L 301.518497 282.122254 
L 301.785812 282.122254 
L 302.053127 282.389569 
L 302.320442 282.389569 
L 302.587757 282.656884 
L 302.855072 282.656884 
L 303.122387 282.924199 
L 303.657017 282.924199 
L 303.924331 283.191514 
L 304.191646 283.191514 
L 304.458961 283.458829 
L 304.726276 283.458829 
L 304.993591 283.726144 
L 305.260906 283.726144 
L 305.528221 283.993459 
L 306.062851 283.993459 
L 306.330166 284.260773 
L 306.597481 284.260773 
L 306.864796 284.528088 
L 307.399425 284.528088 
L 307.66674 284.795403 
L 307.934055 284.795403 
L 308.20137 285.062718 
L 308.736 285.062718 
L 309.003315 285.330033 
L 309.27063 285.330033 
L 309.537945 285.597348 
L 310.072575 285.597348 
L 310.33989 285.864663 
L 310.607204 285.864663 
L 310.874519 286.131978 
L 311.409149 286.131978 
L 311.676464 286.399293 
L 312.211094 286.399293 
L 312.478409 286.666608 
L 312.745724 286.666608 
L 313.013039 286.933923 
L 313.547669 286.933923 
L 313.814983 287.201238 
L 314.349613 287.201238 
L 314.616928 287.468552 
L 315.151558 287.468552 
L 315.418873 287.735867 
L 315.953503 287.735867 
L 316.220818 288.003182 
L 316.755448 288.003182 
L 317.022762 288.270497 
L 317.557392 288.270497 
L 317.824707 288.537812 
L 318.359337 288.537812 
L 318.626652 288.805127 
L 319.161282 288.805127 
L 319.428597 289.072442 
L 319.963227 289.072442 
L 320.230541 289.339757 
L 320.765171 289.339757 
L 321.032486 289.607072 
L 321.834431 289.607072 
L 322.101746 289.874387 
L 322.636376 289.874387 
L 322.903691 290.141702 
L 323.705635 290.141702 
L 323.97295 290.409017 
L 324.50758 290.409017 
L 324.774895 290.676331 
L 325.57684 290.676331 
L 325.844155 290.943646 
L 326.378785 290.943646 
L 326.646099 291.210961 
L 327.448044 291.210961 
L 327.715359 291.478276 
L 328.517304 291.478276 
L 328.784619 291.745591 
L 329.586564 291.745591 
L 329.853878 292.012906 
L 330.655823 292.012906 
L 330.923138 292.280221 
L 331.992398 292.280221 
L 332.259713 292.547536 
L 333.061657 292.547536 
L 333.328972 292.814851 
L 334.398232 292.814851 
L 334.665547 293.082166 
L 335.467492 293.082166 
L 335.734807 293.349481 
L 337.071381 293.349481 
L 337.338696 293.616796 
L 338.407956 293.616796 
L 338.675271 293.88411 
L 340.011845 293.88411 
L 340.27916 294.151425 
L 342.41768 294.151425 
L 342.684994 294.41874 
L 345.090829 294.41874 
L 345.358144 294.686055 
L 347.763978 294.686055 
L 348.031293 294.95337 
L 350.437127 294.95337 
L 350.704442 295.220685 
L 353.110276 295.220685 
L 353.377591 295.488 
L 357.65463 295.488 
L 357.921945 295.220685 
L 358.991204 295.220685 
L 359.258519 294.95337 
L 359.793149 294.95337 
L 360.060464 294.686055 
L 360.327779 294.686055 
L 360.595094 294.41874 
L 360.862409 294.41874 
L 361.129724 294.151425 
L 361.397039 294.151425 
L 361.664354 293.88411 
L 361.931669 293.88411 
L 364.070188 291.745591 
L 364.070188 291.478276 
L 364.337503 291.210961 
L 364.337503 290.943646 
L 364.604818 290.676331 
L 364.604818 290.409017 
L 364.872133 290.141702 
L 364.872133 289.607072 
L 365.139448 289.339757 
L 365.139448 288.537812 
L 365.406762 288.270497 
L 365.406762 285.864663 
L 365.139448 285.597348 
L 365.139448 284.528088 
L 364.872133 284.260773 
L 364.872133 282.924199 
L 364.604818 282.656884 
L 364.604818 281.320309 
L 364.337503 281.052994 
L 364.337503 279.71642 
L 364.070188 279.449105 
L 364.070188 278.11253 
L 363.802873 277.845215 
L 363.802873 276.775956 
L 363.535558 276.508641 
L 363.535558 275.172066 
L 363.268243 274.904751 
L 363.268243 273.568177 
L 363.000928 273.300862 
L 363.000928 272.498917 
L 362.733613 272.231602 
L 362.733613 271.696972 
L 362.466298 271.429657 
L 362.466298 271.162343 
L 362.198983 270.895028 
L 362.198983 270.627713 
L 361.931669 270.360398 
L 361.931669 270.093083 
L 361.664354 269.825768 
L 361.664354 269.558453 
L 361.129724 269.023823 
L 361.129724 268.756508 
L 360.060464 267.687249 
L 360.060464 267.419934 
L 359.793149 267.152619 
L 359.525834 267.152619 
L 358.456575 266.083359 
L 358.18926 266.083359 
L 357.65463 265.548729 
L 357.387315 265.548729 
L 357.12 265.281414 
L 356.58537 265.281414 
L 356.318055 265.014099 
L 355.783425 265.014099 
L 355.51611 264.746785 
L 350.971757 264.746785 
L 350.704442 265.014099 
L 349.902497 265.014099 
L 349.635182 265.281414 
L 348.565923 265.281414 
L 348.298608 265.548729 
L 346.694718 265.548729 
L 346.427403 265.816044 
L 344.556199 265.816044 
L 344.288884 265.548729 
L 343.754254 265.548729 
L 343.486939 265.281414 
L 342.952309 265.281414 
L 341.615735 263.94484 
L 341.615735 263.142895 
L 341.88305 262.87558 
L 341.88305 262.608265 
L 342.41768 262.073635 
L 342.952309 262.073635 
L 343.219624 261.80632 
L 343.486939 261.80632 
L 343.754254 261.539006 
L 344.288884 261.539006 
L 344.556199 261.271691 
L 345.090829 261.271691 
L 345.358144 261.004376 
L 346.694718 261.004376 
L 346.962033 260.737061 
L 348.298608 260.737061 
L 348.565923 260.469746 
L 349.902497 260.469746 
L 350.169812 260.202431 
L 350.971757 260.202431 
L 351.239072 259.935116 
L 354.446851 259.935116 
L 354.714166 259.667801 
L 355.248796 259.667801 
L 355.51611 259.400486 
L 357.65463 259.400486 
L 357.921945 259.133171 
L 360.327779 259.133171 
L 360.595094 258.865856 
L 362.198983 258.865856 
L 362.466298 258.598541 
L 363.802873 258.598541 
L 364.070188 258.331227 
L 364.872133 258.331227 
L 365.139448 258.063912 
L 365.941392 258.063912 
L 366.208707 257.796597 
L 366.743337 257.796597 
L 367.010652 257.529282 
L 367.545282 257.529282 
L 367.812597 257.261967 
L 368.614541 257.261967 
L 368.881856 256.994652 
L 369.683801 256.994652 
L 369.951116 256.727337 
L 370.485746 256.727337 
L 370.753061 256.460022 
L 371.020376 256.460022 
L 371.287691 256.192707 
L 371.555006 256.192707 
L 372.089635 255.658077 
L 372.35695 255.658077 
L 373.42621 254.588818 
L 373.42621 254.321503 
L 373.96084 253.786873 
L 373.96084 253.519558 
L 374.228155 253.252243 
L 374.228155 252.984928 
L 374.49547 252.717613 
L 374.49547 252.450298 
L 374.762785 252.182983 
L 374.762785 251.381039 
L 375.030099 251.113724 
L 375.030099 247.905945 
L 374.762785 247.63863 
L 374.762785 247.104 
L 374.49547 246.836685 
L 374.49547 246.03474 
L 374.228155 245.767425 
L 374.228155 245.232796 
L 373.96084 244.965481 
L 373.96084 244.698166 
L 373.693525 244.430851 
L 373.693525 244.163536 
L 373.42621 243.896221 
L 373.42621 243.628906 
L 372.624265 242.826961 
L 372.624265 242.559646 
L 370.753061 240.688442 
L 370.753061 240.421127 
L 370.485746 240.153812 
L 370.485746 239.886497 
L 369.149171 238.549923 
L 368.881856 238.549923 
L 368.079912 237.747978 
L 367.812597 237.747978 
L 365.406762 235.342144 
L 365.139448 235.342144 
L 364.604818 234.807514 
L 364.337503 234.807514 
L 363.535558 234.005569 
L 363.268243 234.005569 
L 363.000928 233.738254 
L 362.733613 233.738254 
L 361.664354 232.668994 
L 361.397039 232.668994 
L 360.595094 231.86705 
L 360.327779 231.86705 
L 359.793149 231.33242 
L 359.525834 231.33242 
L 358.72389 230.530475 
L 358.456575 230.530475 
L 357.65463 229.72853 
L 357.387315 229.72853 
L 356.58537 228.926586 
L 356.318055 228.926586 
L 355.783425 228.391956 
L 355.51611 228.391956 
L 354.981481 227.857326 
L 354.714166 227.857326 
L 353.912221 227.055381 
L 353.644906 227.055381 
L 353.377591 226.788066 
L 353.110276 226.788066 
L 352.575646 226.253436 
L 352.308331 226.253436 
L 352.041017 225.986122 
L 351.773702 225.986122 
L 351.239072 225.451492 
L 350.971757 225.451492 
L 350.437127 224.916862 
L 350.169812 224.916862 
L 349.635182 224.382232 
L 349.367867 224.382232 
L 348.833238 223.847602 
L 348.565923 223.847602 
L 347.763978 223.045657 
L 347.496663 223.045657 
L 346.694718 222.243713 
L 346.427403 222.243713 
L 345.625459 221.441768 
L 345.358144 221.441768 
L 344.556199 220.639823 
L 344.288884 220.639823 
L 342.952309 219.303249 
L 342.684994 219.303249 
L 342.150365 218.768619 
L 341.88305 218.768619 
L 341.34842 218.233989 
L 341.081105 218.233989 
L 340.546475 217.699359 
L 340.27916 217.699359 
L 339.74453 217.164729 
L 339.477215 217.164729 
L 338.942586 216.630099 
L 338.675271 216.630099 
L 337.606011 215.56084 
L 337.338696 215.56084 
L 336.536751 214.758895 
L 336.269436 214.758895 
L 335.200177 213.689635 
L 334.932862 213.689635 
L 334.398232 213.155006 
L 334.130917 213.155006 
L 333.328972 212.353061 
L 333.061657 212.353061 
L 332.527028 211.818431 
L 332.259713 211.818431 
L 331.190453 210.749171 
L 330.923138 210.749171 
L 330.388508 210.214541 
L 330.121193 210.214541 
L 329.586564 209.679912 
L 329.319249 209.679912 
L 329.051934 209.412597 
L 328.784619 209.412597 
L 328.249989 208.877967 
L 327.982674 208.877967 
L 327.448044 208.343337 
L 327.180729 208.343337 
L 326.913414 208.076022 
L 326.646099 208.076022 
L 326.378785 207.808707 
L 326.11147 207.808707 
L 325.844155 207.541392 
L 318.626652 207.541392 
L 318.359337 207.808707 
L 316.755448 207.808707 
L 316.488133 208.076022 
L 315.686188 208.076022 
L 315.418873 208.343337 
L 314.884243 208.343337 
L 314.616928 208.610652 
L 314.082298 208.610652 
L 313.814983 208.877967 
L 313.547669 208.877967 
L 313.280354 209.145282 
L 312.745724 209.145282 
L 312.478409 209.412597 
L 312.211094 209.412597 
L 311.943779 209.679912 
L 311.676464 209.679912 
L 311.409149 209.947227 
L 311.141834 209.947227 
L 310.607204 210.481856 
L 310.33989 210.481856 
L 309.80526 211.016486 
L 309.537945 211.016486 
L 309.003315 211.551116 
L 308.736 211.551116 
L 308.20137 212.085746 
L 307.934055 212.085746 
L 307.399425 212.620376 
L 307.13211 212.620376 
L 306.597481 213.155006 
L 306.330166 213.155006 
L 305.795536 213.689635 
L 305.528221 213.689635 
L 304.993591 214.224265 
L 304.726276 214.224265 
L 303.924331 215.02621 
L 303.657017 215.02621 
L 303.122387 215.56084 
L 302.855072 215.56084 
L 302.320442 216.09547 
L 302.053127 216.09547 
L 301.518497 216.630099 
L 301.251182 216.630099 
L 300.716552 217.164729 
L 300.449238 217.164729 
L 299.914608 217.699359 
L 299.647293 217.699359 
L 299.112663 218.233989 
L 298.845348 218.233989 
L 298.310718 218.768619 
L 298.043403 218.768619 
L 297.508773 219.303249 
L 297.241459 219.303249 
L 296.706829 219.837878 
L 296.439514 219.837878 
L 295.904884 220.372508 
L 295.637569 220.372508 
L 295.102939 220.907138 
L 294.835624 220.907138 
L 294.300994 221.441768 
L 294.03368 221.441768 
L 293.766365 221.709083 
L 293.231735 221.709083 
L 292.96442 221.976398 
L 291.627845 221.976398 
L 291.36053 222.243713 
L 290.825901 222.243713 
L 290.558586 221.976398 
L 289.222011 221.976398 
L 288.954696 221.709083 
L 288.420066 221.709083 
L 288.152751 221.441768 
L 287.885436 221.441768 
L 287.618122 221.174453 
L 287.350807 221.174453 
L 287.083492 220.907138 
L 286.816177 220.907138 
L 285.479602 219.570564 
L 285.212287 219.570564 
L 282.806453 217.164729 
L 282.539138 217.164729 
L 280.133304 214.758895 
L 280.133304 214.49158 
L 279.331359 213.689635 
L 279.331359 213.42232 
L 278.529414 212.620376 
L 278.529414 212.353061 
L 278.262099 212.085746 
L 278.262099 211.818431 
L 277.994785 211.551116 
L 277.994785 211.283801 
L 277.72747 211.016486 
L 277.72747 210.214541 
L 277.460155 209.947227 
L 277.460155 208.877967 
L 277.19284 208.610652 
L 277.19284 207.274077 
L 276.925525 207.006762 
L 276.925525 205.937503 
L 276.65821 205.670188 
L 276.65821 204.333613 
L 276.390895 204.066298 
L 276.390895 202.729724 
L 276.12358 202.462409 
L 276.12358 201.125834 
L 275.856265 200.858519 
L 275.856265 199.78926 
L 275.58895 199.521945 
L 275.58895 198.18537 
L 275.321635 197.918055 
L 275.321635 196.581481 
L 275.05432 196.314166 
L 275.05432 195.244906 
L 274.787006 194.977591 
L 274.787006 193.641017 
L 274.519691 193.373702 
L 274.519691 192.037127 
L 274.252376 191.769812 
L 274.252376 190.700552 
L 273.985061 190.433238 
L 273.985061 189.096663 
L 273.717746 188.829348 
L 273.717746 187.492773 
L 273.450431 187.225459 
L 273.450431 186.156199 
L 273.183116 185.888884 
L 273.183116 184.552309 
L 272.915801 184.284994 
L 272.915801 182.94842 
L 272.648486 182.681105 
L 272.648486 181.34453 
L 272.381171 181.077215 
L 272.381171 179.740641 
L 272.113856 179.473326 
L 272.113856 178.404066 
L 271.846541 178.136751 
L 271.846541 177.334807 
L 271.579227 177.067492 
L 271.579227 176.265547 
L 271.311912 175.998232 
L 271.311912 175.196287 
L 271.044597 174.928972 
L 271.044597 174.394343 
L 270.777282 174.127028 
L 270.777282 173.592398 
L 270.509967 173.325083 
L 270.509967 172.790453 
L 270.242652 172.523138 
L 270.242652 171.988508 
L 269.975337 171.721193 
L 269.975337 171.186564 
L 269.708022 170.919249 
L 269.708022 170.384619 
L 269.440707 170.117304 
L 269.440707 169.849989 
L 269.173392 169.582674 
L 269.173392 169.315359 
L 268.906077 169.048044 
L 268.906077 168.780729 
L 268.638762 168.513414 
L 268.638762 168.246099 
L 268.371448 167.978785 
L 268.371448 167.71147 
L 268.104133 167.444155 
L 268.104133 167.17684 
L 267.836818 166.909525 
L 267.836818 166.374895 
L 267.569503 166.10758 
L 267.569503 165.840265 
L 267.302188 165.57295 
L 267.302188 165.305635 
L 267.034873 165.03832 
L 267.034873 164.503691 
L 266.767558 164.236376 
L 266.767558 163.434431 
L 266.500243 163.167116 
L 266.500243 161.830541 
L 266.232928 161.563227 
L 266.232928 159.959337 
L 265.965613 159.692022 
L 265.965613 158.622762 
L 265.698298 158.355448 
L 265.698298 157.018873 
L 265.430983 156.751558 
L 265.430983 156.216928 
L 265.163669 155.949613 
L 265.163669 155.414983 
L 264.896354 155.147669 
L 264.896354 154.078409 
L 264.629039 153.811094 
L 264.629039 152.474519 
L 264.361724 152.207204 
L 264.361724 150.603315 
L 264.094409 150.336 
L 264.094409 148.999425 
L 263.827094 148.73211 
L 263.827094 146.860906 
L 263.559779 146.593591 
L 263.559779 145.257017 
L 263.292464 144.989702 
L 263.292464 143.653127 
L 263.025149 143.385812 
L 263.025149 141.247293 
L 262.757834 140.979978 
L 262.757834 139.910718 
L 262.490519 139.643403 
L 262.490519 138.306829 
L 262.223204 138.039514 
L 262.223204 136.168309 
L 261.95589 135.900994 
L 261.95589 134.56442 
L 261.688575 134.297105 
L 261.688575 132.693215 
L 261.42126 132.425901 
L 261.42126 131.623956 
L 261.153945 131.356641 
L 261.153945 130.554696 
L 260.88663 130.287381 
L 260.88663 128.950807 
L 260.619315 128.683492 
L 260.619315 126.812287 
L 260.352 126.544972 
L 260.352 124.941083 
L 260.084685 124.673768 
L 260.084685 123.069878 
L 259.81737 122.802564 
L 259.81737 121.465989 
L 259.550055 121.198674 
L 259.550055 119.060155 
L 259.28274 118.79284 
L 259.28274 117.456265 
L 259.015425 117.18895 
L 259.015425 116.119691 
L 258.74811 115.852376 
L 258.74811 114.248486 
L 258.480796 113.981171 
L 258.480796 112.911912 
L 258.213481 112.644597 
L 258.213481 110.506077 
L 257.946166 110.238762 
L 257.946166 108.902188 
L 257.678851 108.634873 
L 257.678851 107.298298 
L 257.411536 107.030983 
L 257.411536 105.159779 
L 257.144221 104.892464 
L 257.144221 103.288575 
L 256.876906 103.02126 
L 256.876906 101.684685 
L 256.609591 101.41737 
L 256.609591 99.813481 
L 256.342276 99.546166 
L 256.342276 97.674961 
L 256.074961 97.407646 
L 256.074961 96.071072 
L 255.807646 95.803757 
L 255.807646 94.734497 
L 255.540331 94.467182 
L 255.540331 93.130608 
L 255.273017 92.863293 
L 255.273017 88.853569 
L 255.005702 88.586254 
L 255.005702 85.378475 
L 254.738387 85.11116 
L 254.738387 84.309215 
L 255.005702 84.041901 
L 255.005702 77.091713 
L 254.738387 76.824398 
L 254.738387 76.022453 
L 254.471072 75.755138 
L 254.471072 74.953193 
L 254.203757 74.685878 
L 254.203757 74.418564 
L 253.936442 74.151249 
L 253.936442 73.883934 
L 253.669127 73.616619 
L 253.669127 73.349304 
L 253.401812 73.081989 
L 253.401812 72.814674 
L 253.134497 72.547359 
L 253.134497 72.280044 
L 250.728663 69.87421 
L 250.461348 69.87421 
L 250.194033 69.606895 
L 249.926718 69.606895 
L 249.659403 69.33958 
L 249.392088 69.33958 
L 249.124773 69.072265 
L 248.857459 69.072265 
L 248.590144 68.80495 
L 248.055514 68.80495 
L 247.788199 68.537635 
L 247.253569 68.537635 
L 246.986254 68.27032 
L 246.451624 68.27032 
L 246.184309 68.003006 
L 245.916994 68.003006 
L 245.64968 67.735691 
L 245.382365 67.735691 
L 245.11505 67.468376 
L 244.847735 67.468376 
L 244.58042 67.201061 
L 244.313105 67.201061 
L 244.04579 66.933746 
L 243.51116 66.933746 
L 243.243845 66.666431 
L 242.97653 66.666431 
L 242.709215 66.399116 
L 242.441901 66.399116 
L 242.174586 66.131801 
L 241.907271 66.131801 
L 241.639956 65.864486 
L 241.105326 65.864486 
L 240.838011 65.597171 
L 240.570696 65.597171 
L 240.303381 65.329856 
L 240.036066 65.329856 
L 239.768751 65.062541 
L 239.501436 65.062541 
L 239.234122 64.795227 
L 238.966807 64.795227 
L 238.699492 64.527912 
L 238.164862 64.527912 
L 237.897547 64.260597 
L 237.630232 64.260597 
L 237.362917 63.993282 
L 237.095602 63.993282 
L 236.828287 63.725967 
L 236.560972 63.725967 
L 236.293657 63.458652 
L 236.026343 63.458652 
L 235.759028 63.191337 
L 235.224398 63.191337 
L 234.957083 62.924022 
L 234.689768 62.924022 
L 234.422453 62.656707 
L 234.155138 62.656707 
L 233.887823 62.389392 
L 233.620508 62.389392 
L 233.353193 62.122077 
L 233.085878 62.122077 
L 232.818564 61.854762 
L 232.283934 61.854762 
L 232.016619 61.587448 
L 231.749304 61.587448 
L 231.481989 61.320133 
L 231.214674 61.320133 
L 230.947359 61.052818 
L 230.412729 61.052818 
L 230.145414 60.785503 
L 229.878099 60.785503 
L 229.610785 60.518188 
L 229.076155 60.518188 
L 228.80884 60.250873 
L 228.541525 60.250873 
L 228.27421 59.983558 
L 227.73958 59.983558 
L 227.472265 59.716243 
L 226.937635 59.716243 
L 226.67032 59.448928 
L 226.135691 59.448928 
L 225.868376 59.181613 
L 225.333746 59.181613 
L 225.066431 58.914298 
L 224.531801 58.914298 
L 224.264486 58.646983 
L 223.729856 58.646983 
L 223.462541 58.379669 
L 222.660597 58.379669 
L 222.393282 58.112354 
L 221.858652 58.112354 
L 221.591337 57.845039 
L 220.789392 57.845039 
L 220.522077 57.577724 
L 219.720133 57.577724 
L 219.452818 57.310409 
L 218.650873 57.310409 
L 218.383558 57.043094 
L 217.581613 57.043094 
L 217.314298 56.775779 
L 216.245039 56.775779 
L 215.977724 56.508464 
L 214.908464 56.508464 
L 214.641149 56.241149 
L 213.57189 56.241149 
L 213.304575 55.973834 
L 212.235315 55.973834 
L 211.968 55.706519 
L 210.631425 55.706519 
L 210.36411 55.439204 
L 208.760221 55.439204 
L 208.492906 55.17189 
L 206.889017 55.17189 
L 206.621702 54.904575 
L 204.750497 54.904575 
L 204.483182 54.63726 
L 202.344663 54.63726 
L 202.077348 54.369945 
L 200.473459 54.369945 
L 200.206144 54.10263 
L 197.532994 54.10263 
L 197.26568 53.835315 
L 189.513547 53.835315 
L 189.513547 53.835315 
" style="fill:none;stroke:#ff0000;stroke-linecap:square;stroke-width:1.5;"/>
   </g>
   <g id="line2d_13">
    <path clip-path="url(#p98375ba6cb)" d="M 179.35558 63.725967 
L 179.622895 63.458652 
L 196.463735 63.458652 
L 196.73105 63.725967 
L 199.404199 63.725967 
L 199.671514 63.993282 
L 201.275403 63.993282 
L 201.542718 64.260597 
L 203.681238 64.260597 
L 203.948552 64.527912 
L 205.552442 64.527912 
L 205.819757 64.795227 
L 207.423646 64.795227 
L 207.690961 65.062541 
L 209.027536 65.062541 
L 209.294851 65.329856 
L 210.631425 65.329856 
L 210.89874 65.597171 
L 211.968 65.597171 
L 212.235315 65.864486 
L 213.304575 65.864486 
L 213.57189 66.131801 
L 214.641149 66.131801 
L 214.908464 66.399116 
L 215.710409 66.399116 
L 215.977724 66.666431 
L 217.046983 66.666431 
L 217.314298 66.933746 
L 218.116243 66.933746 
L 218.383558 67.201061 
L 218.918188 67.201061 
L 219.185503 67.468376 
L 219.987448 67.468376 
L 220.254762 67.735691 
L 220.789392 67.735691 
L 221.056707 68.003006 
L 221.858652 68.003006 
L 222.125967 68.27032 
L 222.660597 68.27032 
L 222.927912 68.537635 
L 223.462541 68.537635 
L 223.729856 68.80495 
L 224.264486 68.80495 
L 224.531801 69.072265 
L 225.066431 69.072265 
L 225.333746 69.33958 
L 225.601061 69.33958 
L 225.868376 69.606895 
L 226.403006 69.606895 
L 226.67032 69.87421 
L 226.937635 69.87421 
L 227.20495 70.141525 
L 227.73958 70.141525 
L 228.006895 70.40884 
L 228.27421 70.40884 
L 228.541525 70.676155 
L 228.80884 70.676155 
L 229.076155 70.94347 
L 229.34347 70.94347 
L 229.610785 71.210785 
L 229.878099 71.210785 
L 230.145414 71.478099 
L 230.412729 71.478099 
L 230.680044 71.745414 
L 230.947359 71.745414 
L 231.214674 72.012729 
L 231.481989 72.012729 
L 231.749304 72.280044 
L 232.016619 72.280044 
L 232.283934 72.547359 
L 232.551249 72.547359 
L 232.818564 72.814674 
L 233.085878 72.814674 
L 233.353193 73.081989 
L 233.620508 73.081989 
L 233.887823 73.349304 
L 234.422453 73.349304 
L 234.689768 73.616619 
L 234.957083 73.616619 
L 235.224398 73.883934 
L 235.491713 73.883934 
L 235.759028 74.151249 
L 236.026343 74.151249 
L 236.293657 74.418564 
L 236.560972 74.418564 
L 236.828287 74.685878 
L 237.095602 74.685878 
L 237.362917 74.953193 
L 237.630232 74.953193 
L 237.897547 75.220508 
L 238.164862 75.220508 
L 238.432177 75.487823 
L 238.699492 75.487823 
L 238.966807 75.755138 
L 239.234122 75.755138 
L 239.501436 76.022453 
L 239.768751 76.022453 
L 240.036066 76.289768 
L 240.303381 76.289768 
L 240.570696 76.557083 
L 241.105326 76.557083 
L 241.372641 76.824398 
L 241.639956 76.824398 
L 241.907271 77.091713 
L 242.174586 77.091713 
L 242.441901 77.359028 
L 242.709215 77.359028 
L 243.51116 78.160972 
L 243.51116 78.428287 
L 243.778475 78.695602 
L 243.778475 78.962917 
L 244.04579 79.230232 
L 244.04579 80.032177 
L 244.313105 80.299492 
L 244.313105 81.636066 
L 244.58042 81.903381 
L 244.58042 83.507271 
L 244.847735 83.774586 
L 244.847735 86.18042 
L 245.11505 86.447735 
L 245.11505 89.388199 
L 245.382365 89.655514 
L 245.382365 93.397923 
L 245.64968 93.665238 
L 245.64968 97.140331 
L 245.916994 97.407646 
L 245.916994 99.278851 
L 246.184309 99.546166 
L 246.184309 100.88274 
L 246.451624 101.150055 
L 246.451624 102.753945 
L 246.718939 103.02126 
L 246.718939 104.357834 
L 246.986254 104.625149 
L 246.986254 106.229039 
L 247.253569 106.496354 
L 247.253569 107.832928 
L 247.520884 108.100243 
L 247.520884 109.704133 
L 247.788199 109.971448 
L 247.788199 111.575337 
L 248.055514 111.842652 
L 248.055514 113.179227 
L 248.322829 113.446541 
L 248.322829 115.050431 
L 248.590144 115.317746 
L 248.590144 116.65432 
L 248.857459 116.921635 
L 248.857459 118.525525 
L 249.124773 118.79284 
L 249.124773 120.129414 
L 249.392088 120.396729 
L 249.392088 122.000619 
L 249.659403 122.267934 
L 249.659403 123.871823 
L 249.926718 124.139138 
L 249.926718 125.475713 
L 250.194033 125.743028 
L 250.194033 127.346917 
L 250.461348 127.614232 
L 250.461348 128.950807 
L 250.728663 129.218122 
L 250.728663 130.822011 
L 250.995978 131.089326 
L 250.995978 132.425901 
L 251.263293 132.693215 
L 251.263293 134.297105 
L 251.530608 134.56442 
L 251.530608 135.900994 
L 251.797923 136.168309 
L 251.797923 137.772199 
L 252.065238 138.039514 
L 252.065238 139.643403 
L 252.332552 139.910718 
L 252.332552 141.247293 
L 252.599867 141.514608 
L 252.599867 143.118497 
L 252.867182 143.385812 
L 252.867182 144.722387 
L 253.134497 144.989702 
L 253.134497 146.593591 
L 253.401812 146.860906 
L 253.401812 148.197481 
L 253.669127 148.464796 
L 253.669127 150.068685 
L 253.936442 150.336 
L 253.936442 151.93989 
L 254.203757 152.207204 
L 254.203757 153.543779 
L 254.471072 153.811094 
L 254.471072 155.414983 
L 254.738387 155.682298 
L 254.738387 157.018873 
L 255.005702 157.286188 
L 255.005702 158.890077 
L 255.273017 159.157392 
L 255.273017 160.493967 
L 255.540331 160.761282 
L 255.540331 161.563227 
L 255.807646 161.830541 
L 255.807646 162.365171 
L 256.074961 162.632486 
L 256.074961 163.167116 
L 256.342276 163.434431 
L 256.342276 163.969061 
L 256.609591 164.236376 
L 256.609591 164.771006 
L 256.876906 165.03832 
L 256.876906 165.57295 
L 257.144221 165.840265 
L 257.144221 166.374895 
L 257.411536 166.64221 
L 257.411536 166.909525 
L 257.678851 167.17684 
L 257.678851 167.71147 
L 257.946166 167.978785 
L 257.946166 168.246099 
L 258.213481 168.513414 
L 258.213481 168.780729 
L 258.480796 169.048044 
L 258.480796 169.582674 
L 258.74811 169.849989 
L 258.74811 170.117304 
L 259.015425 170.384619 
L 259.015425 170.651934 
L 259.28274 170.919249 
L 259.28274 171.186564 
L 259.550055 171.453878 
L 259.550055 171.721193 
L 259.81737 171.988508 
L 259.81737 172.255823 
L 260.084685 172.523138 
L 260.084685 172.790453 
L 260.352 173.057768 
L 260.352 173.325083 
L 260.619315 173.592398 
L 260.619315 174.127028 
L 260.88663 174.394343 
L 260.88663 174.928972 
L 261.153945 175.196287 
L 261.153945 175.730917 
L 261.42126 175.998232 
L 261.42126 176.532862 
L 261.688575 176.800177 
L 261.688575 177.334807 
L 261.95589 177.602122 
L 261.95589 178.404066 
L 262.223204 178.671381 
L 262.223204 179.206011 
L 262.490519 179.473326 
L 262.490519 180.542586 
L 262.757834 180.809901 
L 262.757834 181.87916 
L 263.025149 182.146475 
L 263.025149 183.48305 
L 263.292464 183.750365 
L 263.292464 185.086939 
L 263.559779 185.354254 
L 263.559779 186.690829 
L 263.827094 186.958144 
L 263.827094 188.027403 
L 264.094409 188.294718 
L 264.094409 189.631293 
L 264.361724 189.898608 
L 264.361724 191.235182 
L 264.629039 191.502497 
L 264.629039 192.571757 
L 264.896354 192.839072 
L 264.896354 194.175646 
L 265.163669 194.442961 
L 265.163669 195.779536 
L 265.430983 196.046851 
L 265.430983 197.11611 
L 265.698298 197.383425 
L 265.698298 198.72 
L 265.965613 198.987315 
L 265.965613 200.32389 
L 266.232928 200.591204 
L 266.232928 201.660464 
L 266.500243 201.927779 
L 266.500243 203.264354 
L 266.767558 203.531669 
L 266.767558 204.868243 
L 267.034873 205.135558 
L 267.034873 206.472133 
L 267.302188 206.739448 
L 267.302188 207.808707 
L 267.569503 208.076022 
L 267.569503 209.412597 
L 267.836818 209.679912 
L 267.836818 211.016486 
L 268.104133 211.283801 
L 268.104133 212.887691 
L 268.371448 213.155006 
L 268.371448 213.689635 
L 268.638762 213.95695 
L 268.638762 214.49158 
L 268.906077 214.758895 
L 268.906077 215.02621 
L 269.173392 215.293525 
L 269.173392 215.56084 
L 269.440707 215.828155 
L 269.440707 216.09547 
L 269.708022 216.362785 
L 269.708022 216.630099 
L 269.975337 216.897414 
L 269.975337 217.164729 
L 270.509967 217.699359 
L 270.509967 217.966674 
L 271.044597 218.501304 
L 271.044597 218.768619 
L 271.579227 219.303249 
L 271.579227 219.570564 
L 272.648486 220.639823 
L 272.648486 220.907138 
L 279.331359 227.590011 
L 279.598674 227.590011 
L 280.400619 228.391956 
L 280.667934 228.391956 
L 281.202564 228.926586 
L 281.469878 228.926586 
L 282.004508 229.461215 
L 282.271823 229.461215 
L 282.806453 229.995845 
L 283.073768 229.995845 
L 283.341083 230.26316 
L 283.608398 230.26316 
L 284.143028 230.79779 
L 284.410343 230.79779 
L 284.677657 231.065105 
L 284.944972 231.065105 
L 285.212287 231.33242 
L 285.746917 231.33242 
L 286.014232 231.599735 
L 286.281547 231.599735 
L 286.548862 231.86705 
L 287.083492 231.86705 
L 287.350807 232.134365 
L 288.152751 232.134365 
L 288.420066 232.40168 
L 292.697105 232.40168 
L 292.96442 232.134365 
L 293.766365 232.134365 
L 294.03368 231.86705 
L 294.568309 231.86705 
L 294.835624 231.599735 
L 295.370254 231.599735 
L 295.637569 231.33242 
L 295.904884 231.33242 
L 296.172199 231.065105 
L 296.706829 231.065105 
L 296.974144 230.79779 
L 297.241459 230.79779 
L 297.508773 230.530475 
L 297.776088 230.530475 
L 298.043403 230.26316 
L 298.310718 230.26316 
L 298.578033 229.995845 
L 298.845348 229.995845 
L 299.112663 229.72853 
L 299.379978 229.72853 
L 299.914608 229.193901 
L 300.181923 229.193901 
L 300.716552 228.659271 
L 300.983867 228.659271 
L 301.518497 228.124641 
L 301.785812 228.124641 
L 302.320442 227.590011 
L 302.587757 227.590011 
L 303.389702 226.788066 
L 303.657017 226.788066 
L 304.191646 226.253436 
L 304.458961 226.253436 
L 304.993591 225.718807 
L 305.260906 225.718807 
L 305.795536 225.184177 
L 306.062851 225.184177 
L 306.597481 224.649547 
L 306.864796 224.649547 
L 307.399425 224.114917 
L 307.66674 224.114917 
L 308.20137 223.580287 
L 308.468685 223.580287 
L 309.003315 223.045657 
L 309.27063 223.045657 
L 309.80526 222.511028 
L 310.072575 222.511028 
L 310.607204 221.976398 
L 310.874519 221.976398 
L 311.409149 221.441768 
L 311.676464 221.441768 
L 312.211094 220.907138 
L 312.478409 220.907138 
L 313.013039 220.372508 
L 313.280354 220.372508 
L 313.814983 219.837878 
L 314.082298 219.837878 
L 314.884243 219.035934 
L 315.151558 219.035934 
L 315.686188 218.501304 
L 315.953503 218.501304 
L 316.220818 218.233989 
L 316.488133 218.233989 
L 316.755448 217.966674 
L 317.290077 217.966674 
L 317.557392 217.699359 
L 318.092022 217.699359 
L 318.359337 217.432044 
L 319.161282 217.432044 
L 319.428597 217.164729 
L 321.834431 217.164729 
L 322.101746 217.432044 
L 322.369061 217.432044 
L 323.171006 218.233989 
L 323.43832 218.233989 
L 323.97295 218.768619 
L 324.240265 218.768619 
L 325.04221 219.570564 
L 325.309525 219.570564 
L 325.844155 220.105193 
L 326.11147 220.105193 
L 326.913414 220.907138 
L 327.180729 220.907138 
L 327.715359 221.441768 
L 327.982674 221.441768 
L 328.517304 221.976398 
L 328.784619 221.976398 
L 329.586564 222.778343 
L 329.853878 222.778343 
L 330.388508 223.312972 
L 330.655823 223.312972 
L 331.457768 224.114917 
L 331.725083 224.114917 
L 332.259713 224.649547 
L 332.527028 224.649547 
L 333.328972 225.451492 
L 333.596287 225.451492 
L 334.130917 225.986122 
L 334.398232 225.986122 
L 335.200177 226.788066 
L 335.467492 226.788066 
L 336.002122 227.322696 
L 336.269436 227.322696 
L 337.071381 228.124641 
L 337.338696 228.124641 
L 337.873326 228.659271 
L 338.140641 228.659271 
L 338.942586 229.461215 
L 339.209901 229.461215 
L 339.74453 229.995845 
L 340.011845 229.995845 
L 340.81379 230.79779 
L 341.081105 230.79779 
L 341.615735 231.33242 
L 341.88305 231.33242 
L 342.684994 232.134365 
L 342.952309 232.134365 
L 343.486939 232.668994 
L 343.754254 232.668994 
L 344.556199 233.470939 
L 344.823514 233.470939 
L 345.358144 234.005569 
L 345.625459 234.005569 
L 346.427403 234.807514 
L 346.694718 234.807514 
L 347.229348 235.342144 
L 347.496663 235.342144 
L 348.298608 236.144088 
L 348.565923 236.144088 
L 349.100552 236.678718 
L 349.367867 236.678718 
L 350.169812 237.480663 
L 350.437127 237.480663 
L 350.971757 238.015293 
L 351.239072 238.015293 
L 352.041017 238.817238 
L 352.308331 238.817238 
L 352.842961 239.351867 
L 353.110276 239.351867 
L 353.644906 239.886497 
L 353.912221 239.886497 
L 354.714166 240.688442 
L 354.981481 240.688442 
L 355.51611 241.223072 
L 355.783425 241.223072 
L 356.58537 242.025017 
L 356.852685 242.025017 
L 357.387315 242.559646 
L 357.65463 242.559646 
L 358.456575 243.361591 
L 358.72389 243.361591 
L 359.258519 243.896221 
L 359.525834 243.896221 
L 360.327779 244.698166 
L 360.595094 244.698166 
L 361.129724 245.232796 
L 361.397039 245.232796 
L 362.198983 246.03474 
L 362.198983 246.302055 
L 362.733613 246.836685 
L 362.733613 247.104 
L 362.466298 247.371315 
L 362.466298 247.63863 
L 361.664354 248.440575 
L 361.397039 248.440575 
L 361.129724 248.70789 
L 360.327779 248.70789 
L 360.060464 248.975204 
L 359.525834 248.975204 
L 359.258519 249.242519 
L 358.72389 249.242519 
L 358.456575 249.509834 
L 357.387315 249.509834 
L 357.12 249.777149 
L 353.377591 249.777149 
L 353.110276 250.044464 
L 349.902497 250.044464 
L 349.635182 250.311779 
L 346.962033 250.311779 
L 346.694718 250.579094 
L 345.090829 250.579094 
L 344.823514 250.846409 
L 343.754254 250.846409 
L 343.486939 251.113724 
L 342.684994 251.113724 
L 342.41768 251.381039 
L 341.615735 251.381039 
L 341.34842 251.648354 
L 340.81379 251.648354 
L 340.546475 251.915669 
L 340.27916 251.915669 
L 340.011845 252.182983 
L 339.477215 252.182983 
L 339.209901 252.450298 
L 338.942586 252.450298 
L 338.675271 252.717613 
L 338.407956 252.717613 
L 338.140641 252.984928 
L 337.873326 252.984928 
L 337.338696 253.519558 
L 337.071381 253.519558 
L 336.536751 254.054188 
L 336.269436 254.054188 
L 335.200177 255.123448 
L 334.932862 255.123448 
L 334.398232 255.658077 
L 334.398232 255.925392 
L 333.863602 256.460022 
L 333.863602 256.727337 
L 333.328972 257.261967 
L 333.328972 257.529282 
L 333.061657 257.796597 
L 333.061657 258.063912 
L 332.527028 258.598541 
L 332.527028 258.865856 
L 332.259713 259.133171 
L 332.259713 259.667801 
L 331.992398 259.935116 
L 331.992398 260.202431 
L 331.725083 260.469746 
L 331.725083 261.004376 
L 331.457768 261.271691 
L 331.457768 261.80632 
L 331.190453 262.073635 
L 331.190453 263.142895 
L 330.923138 263.41021 
L 330.923138 265.548729 
L 331.190453 265.816044 
L 331.190453 266.885304 
L 331.457768 267.152619 
L 331.457768 267.687249 
L 331.725083 267.954564 
L 331.725083 268.489193 
L 332.259713 269.023823 
L 332.259713 269.291138 
L 332.527028 269.558453 
L 332.527028 269.825768 
L 333.328972 270.627713 
L 333.328972 270.895028 
L 335.467492 273.033547 
L 335.734807 273.033547 
L 336.536751 273.835492 
L 336.804066 273.835492 
L 337.071381 274.102807 
L 337.338696 274.102807 
L 337.606011 274.370122 
L 337.873326 274.370122 
L 338.140641 274.637436 
L 338.675271 274.637436 
L 338.942586 274.904751 
L 339.74453 274.904751 
L 340.011845 275.172066 
L 341.34842 275.172066 
L 341.615735 275.439381 
L 349.100552 275.439381 
L 349.367867 275.172066 
L 350.971757 275.172066 
L 351.239072 274.904751 
L 352.041017 274.904751 
L 352.575646 275.439381 
L 353.110276 275.439381 
L 353.644906 275.974011 
L 353.644906 276.241326 
L 353.912221 276.508641 
L 353.912221 277.577901 
L 354.179536 277.845215 
L 354.179536 278.11253 
L 354.446851 278.379845 
L 354.446851 281.052994 
L 354.714166 281.320309 
L 354.714166 282.389569 
L 354.981481 282.656884 
L 354.981481 284.795403 
L 353.912221 285.864663 
L 353.110276 285.864663 
L 352.842961 286.131978 
L 350.169812 286.131978 
L 349.902497 285.864663 
L 348.298608 285.864663 
L 348.031293 285.597348 
L 346.694718 285.597348 
L 346.427403 285.330033 
L 345.090829 285.330033 
L 344.823514 285.062718 
L 343.754254 285.062718 
L 343.486939 284.795403 
L 342.41768 284.795403 
L 342.150365 284.528088 
L 341.081105 284.528088 
L 340.81379 284.260773 
L 339.74453 284.260773 
L 339.477215 283.993459 
L 338.407956 283.993459 
L 338.140641 283.726144 
L 337.071381 283.726144 
L 336.804066 283.458829 
L 335.734807 283.458829 
L 335.467492 283.191514 
L 334.665547 283.191514 
L 334.398232 282.924199 
L 333.596287 282.924199 
L 333.328972 282.656884 
L 332.527028 282.656884 
L 332.259713 282.389569 
L 331.457768 282.389569 
L 331.190453 282.122254 
L 330.388508 282.122254 
L 330.121193 281.854939 
L 329.319249 281.854939 
L 329.051934 281.587624 
L 328.517304 281.587624 
L 328.249989 281.320309 
L 327.448044 281.320309 
L 327.180729 281.052994 
L 326.646099 281.052994 
L 326.378785 280.78568 
L 325.57684 280.78568 
L 325.309525 280.518365 
L 324.774895 280.518365 
L 324.50758 280.25105 
L 323.705635 280.25105 
L 323.43832 279.983735 
L 322.903691 279.983735 
L 322.636376 279.71642 
L 322.101746 279.71642 
L 321.834431 279.449105 
L 321.299801 279.449105 
L 321.032486 279.18179 
L 320.497856 279.18179 
L 320.230541 278.914475 
L 319.695912 278.914475 
L 319.428597 278.64716 
L 318.893967 278.64716 
L 318.626652 278.379845 
L 318.092022 278.379845 
L 317.824707 278.11253 
L 317.290077 278.11253 
L 317.022762 277.845215 
L 316.488133 277.845215 
L 316.220818 277.577901 
L 315.953503 277.577901 
L 315.686188 277.310586 
L 315.151558 277.310586 
L 314.884243 277.043271 
L 314.349613 277.043271 
L 314.082298 276.775956 
L 313.814983 276.775956 
L 313.547669 276.508641 
L 313.013039 276.508641 
L 312.745724 276.241326 
L 312.478409 276.241326 
L 312.211094 275.974011 
L 311.676464 275.974011 
L 311.409149 275.706696 
L 311.141834 275.706696 
L 310.874519 275.439381 
L 310.33989 275.439381 
L 310.072575 275.172066 
L 309.80526 275.172066 
L 309.537945 274.904751 
L 309.003315 274.904751 
L 308.736 274.637436 
L 308.468685 274.637436 
L 308.20137 274.370122 
L 307.934055 274.370122 
L 307.66674 274.102807 
L 307.399425 274.102807 
L 307.13211 273.835492 
L 306.597481 273.835492 
L 306.330166 273.568177 
L 306.062851 273.568177 
L 305.795536 273.300862 
L 305.528221 273.300862 
L 305.260906 273.033547 
L 304.993591 273.033547 
L 304.726276 272.766232 
L 304.458961 272.766232 
L 304.191646 272.498917 
L 303.924331 272.498917 
L 303.657017 272.231602 
L 303.389702 272.231602 
L 303.122387 271.964287 
L 302.855072 271.964287 
L 302.587757 271.696972 
L 302.320442 271.696972 
L 302.053127 271.429657 
L 301.785812 271.429657 
L 301.518497 271.162343 
L 301.251182 271.162343 
L 300.983867 270.895028 
L 300.716552 270.895028 
L 300.449238 270.627713 
L 300.181923 270.627713 
L 299.914608 270.360398 
L 299.647293 270.360398 
L 299.379978 270.093083 
L 299.112663 270.093083 
L 298.578033 269.558453 
L 298.310718 269.558453 
L 298.043403 269.291138 
L 297.776088 269.291138 
L 297.508773 269.023823 
L 297.241459 269.023823 
L 296.706829 268.489193 
L 296.439514 268.489193 
L 296.172199 268.221878 
L 295.904884 268.221878 
L 295.370254 267.687249 
L 295.102939 267.687249 
L 287.618122 260.202431 
L 287.618122 259.935116 
L 284.677657 256.994652 
L 284.677657 256.727337 
L 283.073768 255.123448 
L 283.073768 254.856133 
L 282.271823 254.054188 
L 282.271823 253.786873 
L 281.737193 253.252243 
L 281.737193 252.984928 
L 279.865989 251.113724 
L 279.865989 250.846409 
L 278.529414 249.509834 
L 278.529414 249.242519 
L 277.72747 248.440575 
L 277.72747 248.17326 
L 276.925525 247.371315 
L 276.925525 247.104 
L 276.390895 246.56937 
L 276.390895 246.302055 
L 275.58895 245.50011 
L 275.58895 245.232796 
L 274.519691 244.163536 
L 274.519691 243.896221 
L 273.985061 243.361591 
L 273.985061 243.094276 
L 273.450431 242.559646 
L 273.450431 242.292331 
L 272.915801 241.757702 
L 272.915801 241.490387 
L 272.648486 241.223072 
L 272.648486 240.955757 
L 272.381171 240.688442 
L 272.381171 240.421127 
L 271.846541 239.886497 
L 271.846541 239.619182 
L 271.579227 239.351867 
L 271.579227 239.084552 
L 271.311912 238.817238 
L 271.311912 238.549923 
L 271.044597 238.282608 
L 271.044597 238.015293 
L 270.777282 237.747978 
L 270.777282 237.480663 
L 270.509967 237.213348 
L 270.509967 236.946033 
L 269.975337 236.411403 
L 269.975337 236.144088 
L 269.440707 235.609459 
L 269.440707 235.342144 
L 268.906077 234.807514 
L 268.906077 234.540199 
L 268.638762 234.272884 
L 268.638762 234.005569 
L 268.371448 233.738254 
L 268.371448 233.470939 
L 268.104133 233.203624 
L 268.104133 232.936309 
L 267.836818 232.668994 
L 267.836818 232.134365 
L 267.569503 231.86705 
L 267.569503 231.599735 
L 267.302188 231.33242 
L 267.302188 231.065105 
L 267.034873 230.79779 
L 267.034873 230.530475 
L 266.767558 230.26316 
L 266.767558 229.995845 
L 266.232928 229.461215 
L 266.232928 228.926586 
L 265.965613 228.659271 
L 265.965613 228.391956 
L 265.698298 228.124641 
L 265.698298 227.857326 
L 265.430983 227.590011 
L 265.430983 227.322696 
L 265.163669 227.055381 
L 265.163669 226.788066 
L 264.896354 226.520751 
L 264.896354 226.253436 
L 264.629039 225.986122 
L 264.629039 225.718807 
L 264.361724 225.451492 
L 264.361724 225.184177 
L 264.094409 224.916862 
L 264.094409 224.382232 
L 263.827094 224.114917 
L 263.827094 223.580287 
L 263.559779 223.312972 
L 263.559779 222.511028 
L 263.292464 222.243713 
L 263.292464 221.709083 
L 263.025149 221.441768 
L 263.025149 220.639823 
L 262.757834 220.372508 
L 262.757834 219.837878 
L 262.490519 219.570564 
L 262.490519 219.035934 
L 262.223204 218.768619 
L 262.223204 217.966674 
L 261.95589 217.699359 
L 261.95589 217.164729 
L 261.688575 216.897414 
L 261.688575 216.362785 
L 261.42126 216.09547 
L 261.42126 215.293525 
L 261.153945 215.02621 
L 261.153945 213.42232 
L 260.88663 213.155006 
L 260.88663 212.085746 
L 260.619315 211.818431 
L 260.619315 210.749171 
L 260.352 210.481856 
L 260.352 209.947227 
L 260.084685 209.679912 
L 260.084685 208.076022 
L 259.81737 207.808707 
L 259.81737 207.274077 
L 259.550055 207.006762 
L 259.550055 204.868243 
L 259.28274 204.600928 
L 259.28274 203.531669 
L 259.015425 203.264354 
L 259.015425 201.660464 
L 258.74811 201.393149 
L 258.74811 200.591204 
L 258.480796 200.32389 
L 258.480796 198.452685 
L 258.213481 198.18537 
L 258.213481 196.848796 
L 257.946166 196.581481 
L 257.946166 194.175646 
L 257.678851 193.908331 
L 257.678851 192.839072 
L 257.411536 192.571757 
L 257.411536 189.631293 
L 257.144221 189.363978 
L 257.144221 188.562033 
L 256.876906 188.294718 
L 256.876906 187.492773 
L 256.609591 187.225459 
L 256.609591 185.888884 
L 256.342276 185.621569 
L 256.342276 184.552309 
L 256.074961 184.284994 
L 256.074961 182.41379 
L 255.807646 182.146475 
L 255.807646 180.542586 
L 255.540331 180.275271 
L 255.540331 179.473326 
L 255.273017 179.206011 
L 255.273017 177.602122 
L 255.005702 177.334807 
L 255.005702 175.998232 
L 254.738387 175.730917 
L 254.738387 174.394343 
L 254.471072 174.127028 
L 254.471072 172.790453 
L 254.203757 172.523138 
L 254.203757 171.186564 
L 253.936442 170.919249 
L 253.936442 169.582674 
L 253.669127 169.315359 
L 253.669127 168.513414 
L 253.401812 168.246099 
L 253.401812 166.10758 
L 253.134497 165.840265 
L 253.134497 165.305635 
L 252.867182 165.03832 
L 252.867182 163.701746 
L 252.599867 163.434431 
L 252.599867 162.632486 
L 252.332552 162.632486 
L 251.797923 162.097856 
L 251.530608 162.097856 
L 250.995978 161.563227 
L 250.728663 161.563227 
L 250.194033 161.028597 
L 249.926718 161.028597 
L 249.392088 160.493967 
L 249.124773 160.493967 
L 248.857459 160.226652 
L 248.590144 160.226652 
L 248.322829 159.959337 
L 247.788199 159.959337 
L 247.520884 159.692022 
L 246.718939 159.692022 
L 246.451624 159.424707 
L 245.64968 159.424707 
L 245.382365 159.157392 
L 244.847735 159.157392 
L 244.313105 158.622762 
L 244.313105 157.553503 
L 244.04579 157.286188 
L 244.04579 156.484243 
L 243.778475 156.216928 
L 243.778475 155.949613 
L 243.51116 155.682298 
L 243.51116 155.147669 
L 243.243845 154.880354 
L 243.243845 152.741834 
L 242.97653 152.474519 
L 242.97653 151.40526 
L 242.709215 151.137945 
L 242.709215 149.534055 
L 242.97653 149.26674 
L 242.97653 148.999425 
L 243.243845 148.73211 
L 243.243845 148.197481 
L 243.51116 147.930166 
L 243.51116 147.662851 
L 244.04579 147.128221 
L 244.04579 146.860906 
L 244.313105 146.593591 
L 244.313105 146.326276 
L 244.58042 146.058961 
L 244.58042 145.791646 
L 244.847735 145.524331 
L 244.847735 144.989702 
L 245.11505 144.722387 
L 245.11505 144.187757 
L 245.382365 143.920442 
L 245.382365 143.118497 
L 245.64968 142.851182 
L 245.64968 141.247293 
L 245.916994 140.979978 
L 245.916994 139.643403 
L 245.64968 139.376088 
L 245.64968 137.504884 
L 245.382365 137.237569 
L 245.382365 136.435624 
L 245.11505 136.168309 
L 245.11505 134.56442 
L 244.847735 134.297105 
L 244.847735 132.693215 
L 244.58042 132.425901 
L 244.58042 130.554696 
L 244.313105 130.287381 
L 244.313105 128.683492 
L 244.04579 128.416177 
L 244.04579 126.544972 
L 243.778475 126.277657 
L 243.778475 124.673768 
L 243.51116 124.406453 
L 243.51116 122.802564 
L 243.243845 122.535249 
L 243.243845 120.664044 
L 242.97653 120.396729 
L 242.97653 118.79284 
L 242.709215 118.525525 
L 242.709215 116.65432 
L 242.441901 116.387006 
L 242.441901 114.783116 
L 242.174586 114.515801 
L 242.174586 112.911912 
L 241.907271 112.644597 
L 241.907271 111.040707 
L 241.639956 110.773392 
L 241.639956 109.436818 
L 241.372641 109.169503 
L 241.372641 107.832928 
L 241.105326 107.565613 
L 241.105326 106.496354 
L 240.838011 106.229039 
L 240.838011 104.892464 
L 240.570696 104.625149 
L 240.570696 103.288575 
L 240.303381 103.02126 
L 240.303381 101.684685 
L 240.036066 101.41737 
L 240.036066 100.080796 
L 239.768751 99.813481 
L 239.768751 98.476906 
L 239.501436 98.209591 
L 239.501436 96.873017 
L 239.234122 96.605702 
L 239.234122 95.269127 
L 238.966807 95.001812 
L 238.966807 93.932552 
L 238.699492 93.665238 
L 238.699492 92.863293 
L 238.432177 92.595978 
L 238.432177 92.061348 
L 238.164862 91.794033 
L 238.164862 91.259403 
L 237.897547 90.992088 
L 237.897547 90.457459 
L 237.630232 90.190144 
L 237.630232 89.922829 
L 237.362917 89.655514 
L 237.362917 89.388199 
L 237.095602 89.120884 
L 237.095602 88.853569 
L 236.828287 88.586254 
L 236.828287 88.318939 
L 236.560972 88.051624 
L 236.560972 87.784309 
L 236.026343 87.24968 
L 236.026343 86.982365 
L 235.224398 86.18042 
L 235.224398 85.913105 
L 232.818564 83.507271 
L 232.551249 83.507271 
L 231.749304 82.705326 
L 231.481989 82.705326 
L 231.214674 82.438011 
L 230.947359 82.438011 
L 230.680044 82.170696 
L 230.412729 82.170696 
L 230.145414 81.903381 
L 229.878099 81.903381 
L 229.610785 81.636066 
L 229.34347 81.636066 
L 229.076155 81.368751 
L 228.541525 81.368751 
L 228.27421 81.101436 
L 227.73958 81.101436 
L 227.472265 80.834122 
L 226.937635 80.834122 
L 226.67032 80.566807 
L 225.868376 80.566807 
L 225.601061 80.299492 
L 224.799116 80.299492 
L 224.531801 80.032177 
L 223.729856 80.032177 
L 223.462541 79.764862 
L 222.660597 79.764862 
L 222.393282 79.497547 
L 221.324022 79.497547 
L 221.056707 79.230232 
L 219.987448 79.230232 
L 219.720133 78.962917 
L 218.650873 78.962917 
L 218.383558 78.695602 
L 217.046983 78.695602 
L 216.779669 78.428287 
L 215.175779 78.428287 
L 214.908464 78.160972 
L 213.304575 78.160972 
L 213.03726 77.893657 
L 211.43337 77.893657 
L 211.166055 77.626343 
L 209.027536 77.626343 
L 208.760221 77.359028 
L 206.621702 77.359028 
L 206.354387 77.091713 
L 203.413923 77.091713 
L 203.146608 76.824398 
L 199.938829 76.824398 
L 199.671514 76.557083 
L 194.859845 76.557083 
L 194.59253 76.289768 
L 191.384751 76.289768 
L 191.384751 76.557083 
L 190.315492 77.626343 
L 190.315492 77.893657 
L 188.711602 79.497547 
L 188.444287 79.497547 
L 187.909657 80.032177 
L 187.375028 80.032177 
L 187.107713 80.299492 
L 186.305768 80.299492 
L 186.038453 80.566807 
L 184.969193 80.566807 
L 184.701878 80.834122 
L 183.365304 80.834122 
L 183.097989 81.101436 
L 182.296044 81.101436 
L 182.028729 81.368751 
L 180.95947 81.368751 
L 180.692155 81.636066 
L 179.088265 81.636066 
L 178.82095 81.903381 
L 177.484376 81.903381 
L 177.217061 82.170696 
L 175.880486 82.170696 
L 175.613171 82.438011 
L 174.543912 82.438011 
L 174.276597 82.705326 
L 173.474652 82.705326 
L 173.207337 82.972641 
L 171.870762 82.972641 
L 171.603448 83.239956 
L 170.801503 83.239956 
L 170.534188 83.507271 
L 168.128354 83.507271 
L 167.861039 83.774586 
L 166.257149 83.774586 
L 165.989834 84.041901 
L 164.385945 84.041901 
L 164.11863 84.309215 
L 162.247425 84.309215 
L 161.98011 84.57653 
L 160.643536 84.57653 
L 160.376221 84.309215 
L 159.841591 84.309215 
L 159.574276 84.041901 
L 159.039646 84.041901 
L 158.772331 83.774586 
L 158.505017 83.774586 
L 158.237702 83.507271 
L 157.970387 83.507271 
L 157.703072 83.239956 
L 157.435757 83.239956 
L 157.168442 82.972641 
L 156.901127 82.972641 
L 156.633812 82.705326 
L 156.366497 82.705326 
L 156.099182 82.438011 
L 155.831867 82.438011 
L 155.564552 82.170696 
L 155.297238 82.170696 
L 155.029923 81.903381 
L 154.762608 81.903381 
L 154.495293 81.636066 
L 154.227978 81.636066 
L 153.960663 81.368751 
L 153.693348 81.368751 
L 153.426033 81.101436 
L 152.891403 81.101436 
L 152.624088 80.834122 
L 152.089459 80.834122 
L 151.822144 80.566807 
L 151.020199 80.566807 
L 150.752884 80.299492 
L 149.416309 80.299492 
L 149.148994 80.032177 
L 144.070011 80.032177 
L 143.802696 80.299492 
L 142.466122 80.299492 
L 142.198807 80.566807 
L 141.129547 80.566807 
L 140.862232 80.834122 
L 140.060287 80.834122 
L 139.792972 81.101436 
L 139.258343 81.101436 
L 138.991028 81.368751 
L 138.189083 81.368751 
L 137.921768 81.636066 
L 137.654453 81.636066 
L 137.387138 81.903381 
L 136.852508 81.903381 
L 136.585193 82.170696 
L 136.317878 82.170696 
L 136.050564 82.438011 
L 135.783249 82.438011 
L 135.515934 82.705326 
L 135.248619 82.705326 
L 134.981304 82.972641 
L 134.713989 82.972641 
L 134.446674 83.239956 
L 134.179359 83.239956 
L 133.644729 83.774586 
L 133.377414 83.774586 
L 132.842785 84.309215 
L 132.57547 84.309215 
L 132.04084 84.843845 
L 131.773525 84.843845 
L 131.238895 85.378475 
L 130.97158 85.378475 
L 130.43695 85.913105 
L 130.169635 85.913105 
L 129.100376 86.982365 
L 128.833061 86.982365 
L 127.763801 88.051624 
L 127.496486 88.051624 
L 121.882873 93.665238 
L 121.882873 93.932552 
L 120.813613 95.001812 
L 120.813613 95.269127 
L 120.011669 96.071072 
L 120.011669 96.338387 
L 119.477039 96.873017 
L 119.477039 97.140331 
L 118.942409 97.674961 
L 118.942409 97.942276 
L 118.407779 98.476906 
L 118.407779 98.744221 
L 117.873149 99.278851 
L 117.873149 99.546166 
L 117.605834 99.813481 
L 117.605834 100.080796 
L 116.80389 100.88274 
L 116.80389 101.150055 
L 116.536575 101.41737 
L 116.536575 101.684685 
L 116.001945 102.219315 
L 116.001945 102.48663 
L 115.467315 103.02126 
L 115.467315 103.288575 
L 114.932685 103.823204 
L 114.932685 104.090519 
L 114.66537 104.357834 
L 114.66537 104.625149 
L 114.13074 105.159779 
L 114.13074 105.427094 
L 113.863425 105.694409 
L 113.863425 105.961724 
L 113.59611 106.229039 
L 113.59611 106.496354 
L 113.061481 107.030983 
L 113.061481 107.298298 
L 112.794166 107.565613 
L 112.794166 107.832928 
L 112.526851 108.100243 
L 112.526851 108.367558 
L 112.259536 108.634873 
L 112.259536 108.902188 
L 111.992221 109.169503 
L 111.992221 109.436818 
L 111.724906 109.704133 
L 111.724906 109.971448 
L 111.457591 110.238762 
L 111.457591 110.773392 
L 111.190276 111.040707 
L 111.190276 111.308022 
L 110.922961 111.575337 
L 110.922961 112.109967 
L 110.655646 112.377282 
L 110.655646 112.911912 
L 110.121017 113.446541 
L 110.121017 113.713856 
L 109.319072 114.515801 
L 108.517127 114.515801 
L 107.715182 113.713856 
L 107.715182 112.377282 
L 107.447867 112.109967 
L 107.447867 106.496354 
L 107.180552 106.229039 
L 107.180552 99.278851 
L 106.913238 99.011536 
L 106.913238 90.992088 
L 107.180552 90.724773 
L 107.180552 89.922829 
L 107.447867 89.655514 
L 107.447867 88.318939 
L 107.715182 88.051624 
L 107.715182 87.784309 
L 107.982497 87.516994 
L 107.982497 87.24968 
L 108.784442 86.447735 
L 108.784442 86.18042 
L 109.586387 85.378475 
L 110.121017 85.378475 
L 110.388331 85.11116 
L 111.457591 85.11116 
L 111.724906 84.843845 
L 114.932685 84.843845 
L 115.2 84.57653 
L 117.071204 84.57653 
L 117.338519 84.309215 
L 118.140464 84.309215 
L 118.407779 84.041901 
L 118.942409 84.041901 
L 119.209724 83.774586 
L 119.477039 83.774586 
L 119.744354 83.507271 
L 120.011669 83.507271 
L 120.278983 83.239956 
L 120.546298 83.239956 
L 121.615558 82.170696 
L 121.882873 82.170696 
L 122.150188 81.903381 
L 122.150188 81.636066 
L 122.417503 81.368751 
L 122.684818 81.368751 
L 124.556022 79.497547 
L 124.823337 79.497547 
L 126.159912 78.160972 
L 126.427227 78.160972 
L 127.229171 77.359028 
L 127.496486 77.359028 
L 128.031116 76.824398 
L 128.298431 76.824398 
L 129.100376 76.022453 
L 129.367691 76.022453 
L 129.90232 75.487823 
L 130.169635 75.487823 
L 130.43695 75.220508 
L 130.704265 75.220508 
L 131.238895 74.685878 
L 131.50621 74.685878 
L 132.04084 74.151249 
L 132.308155 74.151249 
L 132.57547 73.883934 
L 132.842785 73.883934 
L 133.110099 73.616619 
L 133.377414 73.616619 
L 133.644729 73.349304 
L 133.912044 73.349304 
L 134.446674 72.814674 
L 134.713989 72.814674 
L 134.981304 72.547359 
L 135.248619 72.547359 
L 135.515934 72.280044 
L 135.783249 72.280044 
L 136.050564 72.012729 
L 136.585193 72.012729 
L 136.852508 71.745414 
L 137.119823 71.745414 
L 137.387138 71.478099 
L 137.654453 71.478099 
L 137.921768 71.210785 
L 138.189083 71.210785 
L 138.456398 70.94347 
L 138.991028 70.94347 
L 139.258343 70.676155 
L 139.792972 70.676155 
L 140.060287 70.40884 
L 140.327602 70.40884 
L 140.594917 70.141525 
L 141.129547 70.141525 
L 141.396862 69.87421 
L 141.931492 69.87421 
L 142.198807 69.606895 
L 143.000751 69.606895 
L 143.268066 69.33958 
L 144.070011 69.33958 
L 144.337326 69.072265 
L 145.139271 69.072265 
L 145.406586 68.80495 
L 146.20853 68.80495 
L 146.475845 68.537635 
L 147.545105 68.537635 
L 147.81242 68.27032 
L 148.614365 68.27032 
L 148.88168 68.003006 
L 149.950939 68.003006 
L 150.218254 67.735691 
L 151.020199 67.735691 
L 151.287514 67.468376 
L 152.089459 67.468376 
L 152.356773 67.201061 
L 153.426033 67.201061 
L 153.693348 66.933746 
L 154.495293 66.933746 
L 154.762608 66.666431 
L 155.831867 66.666431 
L 156.099182 66.399116 
L 157.168442 66.399116 
L 157.435757 66.131801 
L 158.505017 66.131801 
L 158.772331 65.864486 
L 159.841591 65.864486 
L 160.108906 65.597171 
L 161.178166 65.597171 
L 161.445481 65.329856 
L 162.51474 65.329856 
L 162.782055 65.062541 
L 164.11863 65.062541 
L 164.385945 64.795227 
L 165.722519 64.795227 
L 165.989834 64.527912 
L 167.593724 64.527912 
L 167.861039 64.260597 
L 170.534188 64.260597 
L 170.801503 63.993282 
L 174.543912 63.993282 
L 174.811227 63.725967 
L 179.088265 63.725967 
L 179.088265 63.725967 
" style="fill:none;stroke:#0000ff;stroke-linecap:square;stroke-width:1.5;"/>
   </g>
   <g id="line2d_14">
    <path clip-path="url(#p98375ba6cb)" d="M 162.907159 60.280392 
L 167.141227 59.618208 
L 168.200214 59.457116 
L 170.338742 59.335333 
L 171.398853 59.177502 
L 173.540045 59.170249 
L 176.737715 58.897176 
L 178.879993 58.83699 
L 181.013557 58.645793 
L 196.021506 58.669739 
L 198.146997 58.924033 
L 199.219066 58.917598 
L 203.462878 59.466126 
L 214.039498 61.175713 
L 218.229508 62.086963 
L 221.331755 62.931955 
L 224.409225 63.864602 
L 227.437017 64.945774 
L 230.414855 66.160439 
L 242.059061 71.622994 
L 246.908218 73.874566 
L 247.701018 74.594513 
L 248.360102 75.43687 
L 248.865578 76.382089 
L 249.235831 77.385644 
L 249.496101 78.425559 
L 249.698608 80.557287 
L 249.928499 83.761615 
L 249.777434 84.814624 
L 250.082882 86.943109 
L 250.072734 88.014488 
L 250.333326 91.209036 
L 250.479996 93.346971 
L 250.852267 96.538568 
L 251.767571 102.900175 
L 252.082043 105.018254 
L 252.562931 108.194729 
L 254.647301 121.965537 
L 255.431547 127.264016 
L 259.868422 155.850962 
L 260.357696 157.935838 
L 260.735532 160.045448 
L 262.431601 166.24089 
L 263.709474 169.191959 
L 265.099884 172.091166 
L 266.460213 176.157765 
L 267.271393 179.270052 
L 268.376698 185.606381 
L 269.497032 191.938575 
L 270.611759 198.272488 
L 272.842624 210.93956 
L 273.40109 213.009692 
L 274.375253 214.917299 
L 276.2432 217.534147 
L 277.676847 219.12803 
L 281.547409 222.835114 
L 283.189556 224.212378 
L 284.959669 225.420451 
L 286.871924 226.389206 
L 287.873467 226.77095 
L 289.971606 227.214376 
L 291.041235 227.284243 
L 292.104993 227.164456 
L 294.179836 226.604881 
L 295.201498 226.282149 
L 297.113353 225.318137 
L 304.227653 220.527423 
L 311.336112 215.728317 
L 313.104077 214.515521 
L 314.029638 213.97554 
L 316.01447 213.166457 
L 318.078441 212.590503 
L 320.205143 212.329248 
L 323.417997 212.406082 
L 324.443357 212.695052 
L 328.005633 215.0764 
L 336.664773 221.396882 
L 341.03046 224.505033 
L 346.22427 228.300015 
L 361.135033 238.77646 
L 363.704166 240.709472 
L 366.141175 242.794916 
L 366.748849 243.67786 
L 368.064586 245.362274 
L 368.752499 247.386725 
L 368.829189 248.45004 
L 368.702357 249.512791 
L 368.284737 250.497389 
L 367.675611 251.37773 
L 366.836357 252.03461 
L 365.868892 252.478096 
L 361.771732 253.689786 
L 359.681146 254.138883 
L 358.634066 254.369375 
L 357.564446 254.430307 
L 356.510509 254.607539 
L 354.384558 254.809691 
L 353.332522 254.988306 
L 351.189927 255.049781 
L 344.832536 255.990615 
L 342.759015 256.527301 
L 340.775924 257.33657 
L 338.965102 258.479208 
L 337.564662 260.109441 
L 337.067262 261.065229 
L 336.795705 262.087921 
L 337.028202 265.450432 
L 337.250879 266.517573 
L 337.646328 267.472692 
L 338.273319 268.265662 
L 339.125891 268.888079 
L 341.137822 269.810728 
L 342.125067 270.20907 
L 345.308391 270.641162 
L 348.5152 270.408147 
L 351.683071 269.869954 
L 353.822652 269.947412 
L 354.830402 270.303193 
L 355.756543 270.838806 
L 356.573885 271.53173 
L 357.276152 272.337168 
L 357.850542 273.240088 
L 358.277579 274.222736 
L 359.198941 278.404844 
L 359.625824 281.5894 
L 360.103118 284.767189 
L 360.199044 285.832647 
L 360.005081 286.885428 
L 359.642395 287.893308 
L 359.055965 288.78782 
L 358.275622 289.520703 
L 357.352401 290.062748 
L 356.352216 290.442033 
L 355.304722 290.656651 
L 353.169066 290.775034 
L 346.785555 290.175427 
L 345.737744 289.952519 
L 343.612118 289.709211 
L 335.18268 288.163279 
L 329.967159 286.925772 
L 326.860655 286.094922 
L 320.687953 284.286198 
L 311.590133 281.076354 
L 304.666923 278.182749 
L 300.817767 276.292911 
L 296.070898 273.807289 
L 293.279635 272.210374 
L 290.662823 270.343875 
L 289.029375 268.956473 
L 286.744678 266.693326 
L 280.215597 259.58949 
L 278.167607 257.110276 
L 276.831143 255.434476 
L 274.123258 252.109229 
L 269.696571 246.049675 
L 267.428831 242.410125 
L 263.695919 235.903565 
L 262.372197 232.974526 
L 261.43871 231.046047 
L 258.963351 225.112267 
L 257.708014 221.012034 
L 256.281012 215.846843 
L 255.435975 211.644119 
L 254.757416 208.501509 
L 254.095873 204.265777 
L 251.486188 187.324762 
L 250.963433 184.153147 
L 250.44536 180.97949 
L 249.774903 176.746555 
L 248.932111 171.455573 
L 248.684424 170.412908 
L 248.254042 169.438966 
L 246.791008 167.87625 
L 244.756289 165.329401 
L 243.917512 164.688303 
L 242.914299 164.327911 
L 240.815256 164.046356 
L 240.08536 163.31277 
L 239.290679 160.203058 
L 238.8272 158.11361 
L 238.580592 157.071873 
L 237.615972 149.647668 
L 238.118669 147.56689 
L 239.446392 144.640398 
L 240.256657 142.657341 
L 240.512526 141.615702 
L 240.628742 139.477313 
L 240.366465 136.287523 
L 239.376082 128.85577 
L 238.922522 125.674138 
L 238.655341 123.550364 
L 238.081977 119.304101 
L 236.883981 110.817839 
L 234.173188 94.967614 
L 233.672777 92.883054 
L 233.315097 91.872993 
L 232.295495 89.990082 
L 230.946988 88.326632 
L 229.303531 86.954549 
L 228.37511 86.41919 
L 226.383672 85.628428 
L 223.284965 84.770829 
L 220.151558 84.049978 
L 215.934712 83.276119 
L 210.633304 82.495089 
L 207.438486 82.194067 
L 205.312855 81.982758 
L 203.176291 81.818768 
L 201.042416 81.634263 
L 197.845488 81.53451 
L 194.677394 82.155786 
L 193.661727 82.531922 
L 191.807047 83.615179 
L 190.02948 84.808426 
L 188.017858 85.544572 
L 180.632003 86.834152 
L 178.512931 87.147155 
L 170.072875 88.589888 
L 169.002402 88.661716 
L 164.768355 89.318645 
L 161.586229 89.526005 
L 160.521904 89.443093 
L 159.476201 89.208408 
L 156.461541 88.092048 
L 150.671324 85.308783 
L 148.567074 84.905628 
L 146.425424 84.829775 
L 144.287686 84.960485 
L 142.181133 85.357294 
L 140.13788 86.002514 
L 138.148555 86.802223 
L 135.38837 88.45015 
L 132.005038 91.079535 
L 128.804277 93.932514 
L 126.572817 96.248478 
L 124.508192 98.712948 
L 122.598535 101.300403 
L 120.887184 104.020061 
L 119.690215 105.798097 
L 116.557339 111.413996 
L 115.312499 114.379488 
L 114.531914 116.37187 
L 113.31604 118.136402 
L 112.565851 118.899291 
L 111.701641 119.53109 
L 110.76505 120.048314 
L 109.756748 120.409928 
L 108.694461 120.537165 
L 107.622875 120.520144 
L 106.567748 120.352787 
L 105.585855 119.92486 
L 104.7477 119.263468 
L 104.08525 118.421534 
L 103.543577 117.501783 
L 103.175905 116.495044 
L 102.967096 115.44778 
L 102.499139 104.747888 
L 102.366691 98.319829 
L 102.2451 96.181169 
L 102.327218 89.752386 
L 102.517843 87.621402 
L 102.42506 86.558912 
L 102.900164 84.480823 
L 103.393389 83.53193 
L 104.000353 82.648692 
L 104.702602 81.841678 
L 105.569575 81.218436 
L 106.563487 80.825906 
L 108.688897 80.63852 
L 109.752892 80.72081 
L 111.888269 80.530885 
L 112.908262 80.22156 
L 113.964919 80.068061 
L 115.978641 79.373863 
L 117.933073 78.488463 
L 118.847676 77.930315 
L 123.03115 74.580109 
L 125.617439 72.669317 
L 129.206727 70.323688 
L 132.019314 68.764466 
L 135.891829 66.924108 
L 138.884593 65.749349 
L 140.920105 65.082618 
L 144.029956 64.263256 
L 152.395424 62.37751 
L 155.538845 61.699258 
L 161.846897 60.438651 
L 161.846897 60.438651 
" style="fill:none;stroke:#000000;stroke-linecap:square;stroke-width:1.5;"/>
   </g>
   <g id="line2d_15">
    <defs>
     <path d="M 0 5 
C 1.326016 5 2.597899 4.473168 3.535534 3.535534 
C 4.473168 2.597899 5 1.326016 5 0 
C 5 -1.326016 4.473168 -2.597899 3.535534 -3.535534 
C 2.597899 -4.473168 1.326016 -5 0 -5 
C -1.326016 -5 -2.597899 -4.473168 -3.535534 -3.535534 
C -4.473168 -2.597899 -5 -1.326016 -5 0 
C -5 1.326016 -4.473168 2.597899 -3.535534 3.535534 
C -2.597899 4.473168 -1.326016 5 0 5 
z
" id="m5dbe862fc6" style="stroke:#ff0000;"/>
    </defs>
    <g clip-path="url(#p98375ba6cb)">
     <use style="fill:#ff0000;stroke:#ff0000;" x="162.907159" xlink:href="#m5dbe862fc6" y="60.280392"/>
    </g>
   </g>
   <g id="line2d_16">
    <defs>
     <path d="M 0 5 
C 1.326016 5 2.597899 4.473168 3.535534 3.535534 
C 4.473168 2.597899 5 1.326016 5 0 
C 5 -1.326016 4.473168 -2.597899 3.535534 -3.535534 
C 2.597899 -4.473168 1.326016 -5 0 -5 
C -1.326016 -5 -2.597899 -4.473168 -3.535534 -3.535534 
C -4.473168 -2.597899 -5 -1.326016 -5 0 
C -5 1.326016 -4.473168 2.597899 -3.535534 3.535534 
C -2.597899 4.473168 -1.326016 5 0 5 
z
" id="ma00c2d2183" style="stroke:#008000;"/>
    </defs>
    <g clip-path="url(#p98375ba6cb)">
     <use style="fill:#008000;stroke:#008000;" x="184.229978" xlink:href="#ma00c2d2183" y="58.636901"/>
    </g>
   </g>
   <g id="patch_3">
    <path d="M 83.402891 307.584 
L 83.402891 41.472 
" style="fill:none;stroke:#000000;stroke-linecap:square;stroke-linejoin:miter;stroke-width:0.8;"/>
   </g>
   <g id="patch_4">
    <path d="M 388.917109 307.584 
L 388.917109 41.472 
" style="fill:none;stroke:#000000;stroke-linecap:square;stroke-linejoin:miter;stroke-width:0.8;"/>
   </g>
   <g id="patch_5">
    <path d="M 83.402891 307.584 
L 388.917109 307.584 
" style="fill:none;stroke:#000000;stroke-linecap:square;stroke-linejoin:miter;stroke-width:0.8;"/>
   </g>
   <g id="patch_6">
    <path d="M 83.402891 41.472 
L 388.917109 41.472 
" style="fill:none;stroke:#000000;stroke-linecap:square;stroke-linejoin:miter;stroke-width:0.8;"/>
   </g>
  </g>
 </g>
 <defs>
  <clipPath id="p98375ba6cb">
   <rect height="266.112" width="305.514219" x="83.402891" y="41.472"/>
  </clipPath>
 </defs>
</svg>
