<?xml version="1.0" encoding="utf-8" standalone="no"?>
<!DOCTYPE svg PUBLIC "-//W3C//DTD SVG 1.1//EN"
  "http://www.w3.org/Graphics/SVG/1.1/DTD/svg11.dtd">
<!-- Created with matplotlib (https://matplotlib.org/) -->
<svg height="345.6pt" version="1.1" viewBox="0 0 460.8 345.6" width="460.8pt" xmlns="http://www.w3.org/2000/svg" xmlns:xlink="http://www.w3.org/1999/xlink">
 <metadata>
  <rdf:RDF xmlns:cc="http://creativecommons.org/ns#" xmlns:dc="http://purl.org/dc/elements/1.1/" xmlns:rdf="http://www.w3.org/1999/02/22-rdf-syntax-ns#">
   <cc:Work>
    <dc:type rdf:resource="http://purl.org/dc/dcmitype/StillImage"/>
    <dc:date>2024-09-02T20:47:19.550671</dc:date>
    <dc:format>image/svg+xml</dc:format>
    <dc:creator>
     <cc:Agent>
      <dc:title>Matplotlib v3.3.1, https://matplotlib.org/</dc:title>
     </cc:Agent>
    </dc:creator>
   </cc:Work>
  </rdf:RDF>
 </metadata>
 <defs>
  <style type="text/css">*{stroke-linecap:butt;stroke-linejoin:round;}</style>
 </defs>
 <g id="figure_1">
  <g id="patch_1">
   <path d="M 0 345.6 
L 460.8 345.6 
L 460.8 0 
L 0 0 
z
" style="fill:#ffffff;"/>
  </g>
  <g id="axes_1">
   <g id="patch_2">
    <path d="M 77.906328 307.584 
L 394.413672 307.584 
L 394.413672 41.472 
L 77.906328 41.472 
z
" style="fill:#ffffff;"/>
   </g>
   <g id="matplotlib.axis_1">
    <g id="xtick_1">
     <g id="line2d_1">
      <defs>
       <path d="M 0 0 
L 0 3.5 
" id="me4e175d040" style="stroke:#000000;stroke-width:0.8;"/>
      </defs>
      <g>
       <use style="stroke:#000000;stroke-width:0.8;" x="126.374134" xlink:href="#me4e175d040" y="307.584"/>
      </g>
     </g>
     <g id="text_1">
      <!-- −5 -->
      <g transform="translate(119.00304 322.182437)scale(0.1 -0.1)">
       <defs>
        <path d="M 10.59375 35.5 
L 73.1875 35.5 
L 73.1875 27.203125 
L 10.59375 27.203125 
z
" id="DejaVuSans-8722"/>
        <path d="M 10.796875 72.90625 
L 49.515625 72.90625 
L 49.515625 64.59375 
L 19.828125 64.59375 
L 19.828125 46.734375 
Q 21.96875 47.46875 24.109375 47.828125 
Q 26.265625 48.1875 28.421875 48.1875 
Q 40.625 48.1875 47.75 41.5 
Q 54.890625 34.8125 54.890625 23.390625 
Q 54.890625 11.625 47.5625 5.09375 
Q 40.234375 -1.421875 26.90625 -1.421875 
Q 22.3125 -1.421875 17.546875 -0.640625 
Q 12.796875 0.140625 7.71875 1.703125 
L 7.71875 11.625 
Q 12.109375 9.234375 16.796875 8.0625 
Q 21.484375 6.890625 26.703125 6.890625 
Q 35.15625 6.890625 40.078125 11.328125 
Q 45.015625 15.765625 45.015625 23.390625 
Q 45.015625 31 40.078125 35.4375 
Q 35.15625 39.890625 26.703125 39.890625 
Q 22.75 39.890625 18.8125 39.015625 
Q 14.890625 38.140625 10.796875 36.28125 
z
" id="DejaVuSans-53"/>
       </defs>
       <use xlink:href="#DejaVuSans-8722"/>
       <use x="83.789062" xlink:href="#DejaVuSans-53"/>
      </g>
     </g>
    </g>
    <g id="xtick_2">
     <g id="line2d_2">
      <g>
       <use style="stroke:#000000;stroke-width:0.8;" x="182.244804" xlink:href="#me4e175d040" y="307.584"/>
      </g>
     </g>
     <g id="text_2">
      <!-- 0 -->
      <g transform="translate(179.063554 322.182437)scale(0.1 -0.1)">
       <defs>
        <path d="M 31.78125 66.40625 
Q 24.171875 66.40625 20.328125 58.90625 
Q 16.5 51.421875 16.5 36.375 
Q 16.5 21.390625 20.328125 13.890625 
Q 24.171875 6.390625 31.78125 6.390625 
Q 39.453125 6.390625 43.28125 13.890625 
Q 47.125 21.390625 47.125 36.375 
Q 47.125 51.421875 43.28125 58.90625 
Q 39.453125 66.40625 31.78125 66.40625 
z
M 31.78125 74.21875 
Q 44.046875 74.21875 50.515625 64.515625 
Q 56.984375 54.828125 56.984375 36.375 
Q 56.984375 17.96875 50.515625 8.265625 
Q 44.046875 -1.421875 31.78125 -1.421875 
Q 19.53125 -1.421875 13.0625 8.265625 
Q 6.59375 17.96875 6.59375 36.375 
Q 6.59375 54.828125 13.0625 64.515625 
Q 19.53125 74.21875 31.78125 74.21875 
z
" id="DejaVuSans-48"/>
       </defs>
       <use xlink:href="#DejaVuSans-48"/>
      </g>
     </g>
    </g>
    <g id="xtick_3">
     <g id="line2d_3">
      <g>
       <use style="stroke:#000000;stroke-width:0.8;" x="238.115473" xlink:href="#me4e175d040" y="307.584"/>
      </g>
     </g>
     <g id="text_3">
      <!-- 5 -->
      <g transform="translate(234.934223 322.182437)scale(0.1 -0.1)">
       <use xlink:href="#DejaVuSans-53"/>
      </g>
     </g>
    </g>
    <g id="xtick_4">
     <g id="line2d_4">
      <g>
       <use style="stroke:#000000;stroke-width:0.8;" x="293.986143" xlink:href="#me4e175d040" y="307.584"/>
      </g>
     </g>
     <g id="text_4">
      <!-- 10 -->
      <g transform="translate(287.623643 322.182437)scale(0.1 -0.1)">
       <defs>
        <path d="M 12.40625 8.296875 
L 28.515625 8.296875 
L 28.515625 63.921875 
L 10.984375 60.40625 
L 10.984375 69.390625 
L 28.421875 72.90625 
L 38.28125 72.90625 
L 38.28125 8.296875 
L 54.390625 8.296875 
L 54.390625 0 
L 12.40625 0 
z
" id="DejaVuSans-49"/>
       </defs>
       <use xlink:href="#DejaVuSans-49"/>
       <use x="63.623047" xlink:href="#DejaVuSans-48"/>
      </g>
     </g>
    </g>
    <g id="xtick_5">
     <g id="line2d_5">
      <g>
       <use style="stroke:#000000;stroke-width:0.8;" x="349.856813" xlink:href="#me4e175d040" y="307.584"/>
      </g>
     </g>
     <g id="text_5">
      <!-- 15 -->
      <g transform="translate(343.494313 322.182437)scale(0.1 -0.1)">
       <use xlink:href="#DejaVuSans-49"/>
       <use x="63.623047" xlink:href="#DejaVuSans-53"/>
      </g>
     </g>
    </g>
   </g>
   <g id="matplotlib.axis_2">
    <g id="ytick_1">
     <g id="line2d_6">
      <defs>
       <path d="M 0 0 
L -3.5 0 
" id="m12271cdc3e" style="stroke:#000000;stroke-width:0.8;"/>
      </defs>
      <g>
       <use style="stroke:#000000;stroke-width:0.8;" x="77.906328" xlink:href="#m12271cdc3e" y="287.1074"/>
      </g>
     </g>
     <g id="text_6">
      <!-- −20 -->
      <g transform="translate(49.80164 290.906618)scale(0.1 -0.1)">
       <defs>
        <path d="M 19.1875 8.296875 
L 53.609375 8.296875 
L 53.609375 0 
L 7.328125 0 
L 7.328125 8.296875 
Q 12.9375 14.109375 22.625 23.890625 
Q 32.328125 33.6875 34.8125 36.53125 
Q 39.546875 41.84375 41.421875 45.53125 
Q 43.3125 49.21875 43.3125 52.78125 
Q 43.3125 58.59375 39.234375 62.25 
Q 35.15625 65.921875 28.609375 65.921875 
Q 23.96875 65.921875 18.8125 64.3125 
Q 13.671875 62.703125 7.8125 59.421875 
L 7.8125 69.390625 
Q 13.765625 71.78125 18.9375 73 
Q 24.125 74.21875 28.421875 74.21875 
Q 39.75 74.21875 46.484375 68.546875 
Q 53.21875 62.890625 53.21875 53.421875 
Q 53.21875 48.921875 51.53125 44.890625 
Q 49.859375 40.875 45.40625 35.40625 
Q 44.1875 33.984375 37.640625 27.21875 
Q 31.109375 20.453125 19.1875 8.296875 
z
" id="DejaVuSans-50"/>
       </defs>
       <use xlink:href="#DejaVuSans-8722"/>
       <use x="83.789062" xlink:href="#DejaVuSans-50"/>
       <use x="147.412109" xlink:href="#DejaVuSans-48"/>
      </g>
     </g>
    </g>
    <g id="ytick_2">
     <g id="line2d_7">
      <g>
       <use style="stroke:#000000;stroke-width:0.8;" x="77.906328" xlink:href="#m12271cdc3e" y="231.23673"/>
      </g>
     </g>
     <g id="text_7">
      <!-- −15 -->
      <g transform="translate(49.80164 235.035949)scale(0.1 -0.1)">
       <use xlink:href="#DejaVuSans-8722"/>
       <use x="83.789062" xlink:href="#DejaVuSans-49"/>
       <use x="147.412109" xlink:href="#DejaVuSans-53"/>
      </g>
     </g>
    </g>
    <g id="ytick_3">
     <g id="line2d_8">
      <g>
       <use style="stroke:#000000;stroke-width:0.8;" x="77.906328" xlink:href="#m12271cdc3e" y="175.36606"/>
      </g>
     </g>
     <g id="text_8">
      <!-- −10 -->
      <g transform="translate(49.80164 179.165279)scale(0.1 -0.1)">
       <use xlink:href="#DejaVuSans-8722"/>
       <use x="83.789062" xlink:href="#DejaVuSans-49"/>
       <use x="147.412109" xlink:href="#DejaVuSans-48"/>
      </g>
     </g>
    </g>
    <g id="ytick_4">
     <g id="line2d_9">
      <g>
       <use style="stroke:#000000;stroke-width:0.8;" x="77.906328" xlink:href="#m12271cdc3e" y="119.49539"/>
      </g>
     </g>
     <g id="text_9">
      <!-- −5 -->
      <g transform="translate(56.16414 123.294609)scale(0.1 -0.1)">
       <use xlink:href="#DejaVuSans-8722"/>
       <use x="83.789062" xlink:href="#DejaVuSans-53"/>
      </g>
     </g>
    </g>
    <g id="ytick_5">
     <g id="line2d_10">
      <g>
       <use style="stroke:#000000;stroke-width:0.8;" x="77.906328" xlink:href="#m12271cdc3e" y="63.624721"/>
      </g>
     </g>
     <g id="text_10">
      <!-- 0 -->
      <g transform="translate(64.543828 67.423939)scale(0.1 -0.1)">
       <use xlink:href="#DejaVuSans-48"/>
      </g>
     </g>
    </g>
   </g>
   <g id="line2d_11">
    <path clip-path="url(#pb078785dcd)" d="M 132.519908 53.568 
L 131.961201 54.126707 
L 129.726374 54.126707 
L 129.167667 54.685413 
L 126.932841 54.685413 
L 126.374134 55.24412 
L 124.139307 55.24412 
L 123.5806 55.802827 
L 121.345774 55.802827 
L 120.787067 56.361533 
L 118.55224 56.361533 
L 117.993533 56.92024 
L 116.317413 56.92024 
L 115.758707 57.478947 
L 113.52388 57.478947 
L 112.965173 58.037654 
L 110.730346 58.037654 
L 110.17164 58.59636 
L 107.936813 58.59636 
L 107.378106 59.155067 
L 105.701986 59.155067 
L 105.143279 59.713774 
L 104.025866 59.713774 
L 103.467159 60.27248 
L 102.908453 60.27248 
L 102.349746 60.831187 
L 101.791039 60.831187 
L 100.673626 61.9486 
L 100.114919 61.9486 
L 98.997506 63.066014 
L 98.438799 63.066014 
L 96.203972 65.300841 
L 96.203972 65.859547 
L 94.527852 67.535667 
L 94.527852 68.094374 
L 93.969145 68.653081 
L 93.969145 69.211788 
L 93.410439 69.770494 
L 93.410439 70.329201 
L 92.851732 70.887908 
L 92.851732 72.564028 
L 92.293025 73.122734 
L 92.293025 112.79091 
L 92.851732 113.349617 
L 92.851732 120.612804 
L 93.410439 121.17151 
L 93.410439 122.84763 
L 93.969145 123.406337 
L 93.969145 123.965044 
L 94.527852 124.523751 
L 94.527852 125.082457 
L 95.086559 125.641164 
L 95.086559 126.199871 
L 95.645266 126.758577 
L 95.645266 127.317284 
L 96.203972 127.875991 
L 96.203972 128.434697 
L 98.438799 130.669524 
L 98.438799 131.228231 
L 99.556212 132.345644 
L 100.114919 132.345644 
L 102.349746 134.580471 
L 102.908453 134.580471 
L 104.025866 135.697885 
L 104.584573 135.697885 
L 105.143279 136.256591 
L 105.701986 136.256591 
L 106.260693 136.815298 
L 106.8194 136.815298 
L 107.378106 137.374005 
L 107.936813 137.374005 
L 108.49552 137.932711 
L 109.612933 137.932711 
L 110.17164 138.491418 
L 111.84776 138.491418 
L 112.406467 139.050125 
L 114.082587 139.050125 
L 114.641293 139.608831 
L 116.317413 139.608831 
L 116.87612 140.167538 
L 118.55224 140.167538 
L 119.110947 140.726245 
L 120.787067 140.726245 
L 121.345774 141.284952 
L 123.021894 141.284952 
L 123.5806 141.843658 
L 125.256721 141.843658 
L 125.815427 142.402365 
L 127.491547 142.402365 
L 128.050254 142.961072 
L 129.726374 142.961072 
L 130.285081 143.519778 
L 131.961201 143.519778 
L 132.519908 144.078485 
L 134.196028 144.078485 
L 134.754734 144.637192 
L 136.430855 144.637192 
L 136.989561 145.195898 
L 138.665681 145.195898 
L 139.224388 145.754605 
L 140.900508 145.754605 
L 141.459215 146.313312 
L 143.135335 146.313312 
L 143.694042 146.872018 
L 145.370162 146.872018 
L 145.928868 147.430725 
L 147.604988 147.430725 
L 148.163695 147.989432 
L 149.839815 147.989432 
L 150.398522 148.548139 
L 152.074642 148.548139 
L 152.633349 149.106845 
L 153.750762 149.106845 
L 154.309469 149.665552 
L 155.985589 149.665552 
L 156.544296 150.224259 
L 158.220416 150.224259 
L 158.779122 150.782965 
L 160.455242 150.782965 
L 161.013949 151.341672 
L 162.690069 151.341672 
L 163.248776 151.900379 
L 164.924896 151.900379 
L 165.483603 152.459085 
L 167.159723 152.459085 
L 167.71843 153.017792 
L 169.39455 153.017792 
L 169.953256 153.576499 
L 171.629376 153.576499 
L 172.188083 154.135206 
L 173.864203 154.135206 
L 174.42291 154.693912 
L 176.09903 154.693912 
L 176.657737 155.252619 
L 178.333857 155.252619 
L 178.892564 155.811326 
L 180.568684 155.811326 
L 181.12739 156.370032 
L 182.80351 156.370032 
L 183.362217 156.928739 
L 185.038337 156.928739 
L 185.597044 157.487446 
L 187.273164 157.487446 
L 187.831871 158.046152 
L 189.507991 158.046152 
L 190.066697 158.604859 
L 191.742818 158.604859 
L 192.301524 159.163566 
L 193.977644 159.163566 
L 194.536351 159.722273 
L 196.212471 159.722273 
L 196.771178 160.280979 
L 198.447298 160.280979 
L 199.006005 160.839686 
L 200.682125 160.839686 
L 201.240831 161.398393 
L 202.916952 161.398393 
L 203.475658 161.957099 
L 205.151778 161.957099 
L 205.710485 162.515806 
L 207.386605 162.515806 
L 207.945312 163.074513 
L 209.621432 163.074513 
L 210.180139 163.633219 
L 211.856259 163.633219 
L 212.414965 164.191926 
L 214.091085 164.191926 
L 214.649792 164.750633 
L 216.325912 164.750633 
L 216.884619 165.309339 
L 218.560739 165.309339 
L 219.119446 165.868046 
L 220.795566 165.868046 
L 221.354273 166.426753 
L 223.589099 166.426753 
L 224.147806 166.98546 
L 238.115473 166.98546 
L 238.67418 166.426753 
L 241.467714 166.426753 
L 242.02642 165.868046 
L 244.261247 165.868046 
L 244.819954 165.309339 
L 245.937367 165.309339 
L 246.496074 164.750633 
L 248.172194 164.750633 
L 248.730901 164.191926 
L 249.289607 164.191926 
L 249.848314 163.633219 
L 250.965727 163.633219 
L 252.083141 162.515806 
L 252.641848 162.515806 
L 253.200554 161.957099 
L 253.759261 161.957099 
L 254.876674 160.839686 
L 255.435381 160.839686 
L 256.552794 159.722273 
L 257.111501 159.722273 
L 258.228915 158.604859 
L 258.787621 158.604859 
L 259.346328 158.046152 
L 259.905035 158.046152 
L 261.022448 156.928739 
L 261.581155 156.928739 
L 262.698568 155.811326 
L 263.257275 155.811326 
L 263.815982 155.252619 
L 264.374688 155.252619 
L 265.492102 154.135206 
L 266.050808 154.135206 
L 267.168222 153.017792 
L 267.726928 153.017792 
L 268.844342 151.900379 
L 269.403048 151.900379 
L 269.961755 151.341672 
L 270.520462 151.341672 
L 271.637875 150.224259 
L 272.196582 150.224259 
L 272.755289 149.665552 
L 273.313995 149.665552 
L 273.872702 149.106845 
L 275.548822 149.106845 
L 276.107529 148.548139 
L 277.783649 148.548139 
L 278.342356 149.106845 
L 279.459769 149.106845 
L 280.018476 149.665552 
L 280.577182 149.665552 
L 281.694596 150.782965 
L 282.253303 150.782965 
L 283.929423 152.459085 
L 283.929423 153.017792 
L 285.046836 154.135206 
L 285.046836 155.811326 
L 285.605543 156.370032 
L 285.605543 158.046152 
L 286.164249 158.604859 
L 286.164249 160.280979 
L 286.722956 160.839686 
L 286.722956 162.515806 
L 287.281663 163.074513 
L 287.281663 164.750633 
L 287.84037 165.309339 
L 287.84037 166.98546 
L 288.399076 167.544166 
L 288.399076 169.220286 
L 288.957783 169.778993 
L 288.957783 171.455113 
L 289.51649 172.01382 
L 289.51649 173.68994 
L 290.075196 174.248647 
L 290.075196 175.36606 
L 290.633903 175.924767 
L 290.633903 177.600887 
L 291.19261 178.159594 
L 291.19261 179.835714 
L 291.751316 180.39442 
L 291.751316 182.07054 
L 292.310023 182.629247 
L 292.310023 184.305367 
L 292.86873 184.864074 
L 292.86873 186.540194 
L 293.427436 187.098901 
L 293.427436 188.775021 
L 293.986143 189.333727 
L 293.986143 191.009848 
L 294.54485 191.568554 
L 294.54485 194.920794 
L 293.986143 195.479501 
L 293.986143 196.596915 
L 293.427436 197.155621 
L 293.427436 197.714328 
L 292.86873 198.273035 
L 292.86873 198.831741 
L 290.075196 201.625275 
L 289.51649 201.625275 
L 288.957783 202.183982 
L 287.84037 202.183982 
L 287.281663 202.742688 
L 283.370716 202.742688 
L 282.812009 202.183982 
L 280.577182 202.183982 
L 280.018476 201.625275 
L 278.901062 201.625275 
L 278.342356 201.066568 
L 276.666236 201.066568 
L 276.107529 200.507861 
L 275.548822 200.507861 
L 274.990115 199.949155 
L 273.872702 199.949155 
L 273.313995 199.390448 
L 272.755289 199.390448 
L 272.196582 198.831741 
L 271.637875 198.831741 
L 271.079169 198.273035 
L 270.520462 198.273035 
L 269.961755 197.714328 
L 269.403048 197.714328 
L 268.844342 197.155621 
L 268.285635 197.155621 
L 267.168222 196.038208 
L 266.609515 196.038208 
L 266.050808 195.479501 
L 265.492102 195.479501 
L 264.933395 194.920794 
L 264.374688 194.920794 
L 263.815982 194.362088 
L 263.257275 194.362088 
L 262.698568 193.803381 
L 262.139861 193.803381 
L 261.581155 193.244674 
L 261.022448 193.244674 
L 260.463741 192.685968 
L 259.905035 192.685968 
L 259.346328 192.127261 
L 258.228915 192.127261 
L 257.670208 191.568554 
L 257.111501 191.568554 
L 256.552794 191.009848 
L 255.994088 191.009848 
L 255.435381 190.451141 
L 254.876674 190.451141 
L 254.317968 189.892434 
L 253.200554 189.892434 
L 252.641848 189.333727 
L 252.083141 189.333727 
L 251.524434 188.775021 
L 250.407021 188.775021 
L 249.848314 188.216314 
L 249.289607 188.216314 
L 248.730901 187.657607 
L 247.613487 187.657607 
L 247.054781 187.098901 
L 246.496074 187.098901 
L 245.937367 186.540194 
L 244.819954 186.540194 
L 244.261247 185.981487 
L 243.143834 185.981487 
L 242.585127 185.422781 
L 241.467714 185.422781 
L 240.909007 184.864074 
L 239.791594 184.864074 
L 239.232887 184.305367 
L 238.115473 184.305367 
L 237.556767 183.746661 
L 235.880647 183.746661 
L 235.32194 183.187954 
L 233.64582 183.187954 
L 233.087113 182.629247 
L 230.852286 182.629247 
L 230.29358 182.07054 
L 225.823926 182.07054 
L 225.265219 181.511834 
L 216.325912 181.511834 
L 215.767206 182.07054 
L 211.856259 182.07054 
L 211.297552 182.629247 
L 209.062725 182.629247 
L 208.504018 183.187954 
L 206.827898 183.187954 
L 206.269192 183.746661 
L 204.593072 183.746661 
L 204.034365 184.305367 
L 202.916952 184.305367 
L 202.358245 184.864074 
L 201.240831 184.864074 
L 200.682125 185.422781 
L 200.123418 185.422781 
L 199.564711 185.981487 
L 198.447298 185.981487 
L 197.888591 186.540194 
L 197.329885 186.540194 
L 196.771178 187.098901 
L 196.212471 187.098901 
L 195.653764 187.657607 
L 195.095058 187.657607 
L 194.536351 188.216314 
L 193.977644 188.216314 
L 193.418938 188.775021 
L 192.860231 188.775021 
L 192.301524 189.333727 
L 191.742818 189.333727 
L 191.184111 189.892434 
L 190.625404 189.892434 
L 189.507991 191.009848 
L 188.949284 191.009848 
L 187.831871 192.127261 
L 187.273164 192.127261 
L 186.155751 193.244674 
L 185.597044 193.244674 
L 184.47963 194.362088 
L 183.920924 194.362088 
L 181.686097 196.596915 
L 181.12739 196.596915 
L 174.981617 202.742688 
L 174.981617 203.301395 
L 173.864203 204.418808 
L 173.864203 204.977515 
L 173.305497 205.536222 
L 173.305497 206.094928 
L 172.74679 206.653635 
L 172.74679 207.212342 
L 172.188083 207.771048 
L 172.188083 208.888462 
L 171.629376 209.447169 
L 171.629376 211.123289 
L 171.07067 211.681995 
L 171.07067 217.269062 
L 171.629376 217.827769 
L 171.629376 219.503889 
L 172.188083 220.062596 
L 172.188083 220.621303 
L 172.74679 221.180009 
L 172.74679 222.297423 
L 173.864203 223.414836 
L 173.864203 223.973543 
L 175.540323 225.649663 
L 175.540323 226.20837 
L 177.216443 227.88449 
L 177.77515 227.88449 
L 179.45127 229.56061 
L 180.009977 229.56061 
L 180.568684 230.119316 
L 181.12739 230.119316 
L 181.686097 230.678023 
L 182.244804 230.678023 
L 182.80351 231.23673 
L 183.920924 231.23673 
L 184.47963 231.795436 
L 185.597044 231.795436 
L 186.155751 232.354143 
L 187.273164 232.354143 
L 187.831871 232.91285 
L 188.949284 232.91285 
L 189.507991 233.471557 
L 190.625404 233.471557 
L 191.184111 234.030263 
L 192.301524 234.030263 
L 192.860231 234.58897 
L 193.977644 234.58897 
L 194.536351 235.147677 
L 195.653764 235.147677 
L 196.212471 235.706383 
L 197.329885 235.706383 
L 197.888591 236.26509 
L 199.006005 236.26509 
L 199.564711 236.823797 
L 200.682125 236.823797 
L 201.240831 237.382503 
L 202.358245 237.382503 
L 202.916952 237.94121 
L 204.034365 237.94121 
L 204.593072 238.499917 
L 205.710485 238.499917 
L 206.269192 239.058624 
L 207.386605 239.058624 
L 207.945312 239.61733 
L 209.062725 239.61733 
L 209.621432 240.176037 
L 210.738845 240.176037 
L 211.297552 240.734744 
L 212.414965 240.734744 
L 212.973672 241.29345 
L 214.091085 241.29345 
L 214.649792 241.852157 
L 215.767206 241.852157 
L 216.325912 242.410864 
L 217.443326 242.410864 
L 218.002032 242.96957 
L 219.119446 242.96957 
L 219.678152 243.528277 
L 220.795566 243.528277 
L 221.354273 244.086984 
L 222.471686 244.086984 
L 223.030393 244.645691 
L 224.147806 244.645691 
L 224.706513 245.204397 
L 225.265219 245.204397 
L 225.823926 245.763104 
L 226.941339 245.763104 
L 227.500046 246.321811 
L 228.61746 246.321811 
L 229.176166 246.880517 
L 230.29358 246.880517 
L 230.852286 247.439224 
L 231.410993 247.439224 
L 231.9697 247.997931 
L 233.087113 247.997931 
L 233.64582 248.556637 
L 234.763233 248.556637 
L 235.32194 249.115344 
L 236.439353 249.115344 
L 236.99806 249.674051 
L 238.115473 249.674051 
L 238.67418 250.232758 
L 239.232887 250.232758 
L 239.791594 250.791464 
L 240.909007 250.791464 
L 241.467714 251.350171 
L 242.585127 251.350171 
L 243.143834 251.908878 
L 244.261247 251.908878 
L 244.819954 252.467584 
L 245.937367 252.467584 
L 246.496074 253.026291 
L 247.054781 253.026291 
L 247.613487 253.584998 
L 248.730901 253.584998 
L 249.289607 254.143704 
L 250.407021 254.143704 
L 250.965727 254.702411 
L 252.083141 254.702411 
L 252.641848 255.261118 
L 253.200554 255.261118 
L 253.759261 255.819824 
L 254.876674 255.819824 
L 255.435381 256.378531 
L 256.552794 256.378531 
L 257.111501 256.937238 
L 257.670208 256.937238 
L 258.228915 257.495945 
L 258.787621 257.495945 
L 259.346328 258.054651 
L 259.905035 258.054651 
L 260.463741 258.613358 
L 261.581155 258.613358 
L 262.139861 259.172065 
L 262.698568 259.172065 
L 263.257275 259.730771 
L 263.815982 259.730771 
L 264.374688 260.289478 
L 264.933395 260.289478 
L 265.492102 260.848185 
L 266.050808 260.848185 
L 266.609515 261.406891 
L 267.726928 261.406891 
L 268.285635 261.965598 
L 268.844342 261.965598 
L 269.403048 262.524305 
L 269.961755 262.524305 
L 270.520462 263.083012 
L 271.079169 263.083012 
L 271.637875 263.641718 
L 272.755289 263.641718 
L 273.313995 264.200425 
L 273.872702 264.200425 
L 274.431409 264.759132 
L 274.990115 264.759132 
L 275.548822 265.317838 
L 276.107529 265.317838 
L 276.666236 265.876545 
L 277.224942 265.876545 
L 277.783649 266.435252 
L 278.901062 266.435252 
L 279.459769 266.993958 
L 280.018476 266.993958 
L 280.577182 267.552665 
L 281.135889 267.552665 
L 281.694596 268.111372 
L 282.253303 268.111372 
L 282.812009 268.670079 
L 283.370716 268.670079 
L 283.929423 269.228785 
L 285.046836 269.228785 
L 285.605543 269.787492 
L 286.164249 269.787492 
L 286.722956 270.346199 
L 287.281663 270.346199 
L 287.84037 270.904905 
L 288.399076 270.904905 
L 288.957783 271.463612 
L 289.51649 271.463612 
L 290.075196 272.022319 
L 291.19261 272.022319 
L 291.751316 272.581025 
L 292.310023 272.581025 
L 292.86873 273.139732 
L 293.427436 273.139732 
L 293.986143 273.698439 
L 294.54485 273.698439 
L 295.103557 274.257145 
L 295.662263 274.257145 
L 296.22097 274.815852 
L 297.338383 274.815852 
L 297.89709 275.374559 
L 298.455797 275.374559 
L 299.014503 275.933266 
L 299.57321 275.933266 
L 300.131917 276.491972 
L 300.690624 276.491972 
L 301.24933 277.050679 
L 301.808037 277.050679 
L 302.366744 277.609386 
L 302.92545 277.609386 
L 303.484157 278.168092 
L 304.60157 278.168092 
L 305.160277 278.726799 
L 305.718984 278.726799 
L 306.277691 279.285506 
L 306.836397 279.285506 
L 307.395104 279.844212 
L 307.953811 279.844212 
L 308.512517 280.402919 
L 309.071224 280.402919 
L 309.629931 280.961626 
L 310.188637 280.961626 
L 310.747344 281.520333 
L 311.864758 281.520333 
L 312.423464 282.079039 
L 312.982171 282.079039 
L 313.540878 282.637746 
L 314.099584 282.637746 
L 314.658291 283.196453 
L 315.216998 283.196453 
L 315.775704 283.755159 
L 316.334411 283.755159 
L 316.893118 284.313866 
L 318.010531 284.313866 
L 318.569238 284.872573 
L 319.127945 284.872573 
L 319.686651 285.431279 
L 320.245358 285.431279 
L 320.804065 285.989986 
L 321.921478 285.989986 
L 322.480185 286.548693 
L 324.156305 286.548693 
L 324.715012 287.1074 
L 326.949838 287.1074 
L 327.508545 287.666106 
L 329.184665 287.666106 
L 329.743372 288.224813 
L 331.978199 288.224813 
L 332.536905 288.78352 
L 334.213025 288.78352 
L 334.771732 289.342226 
L 337.006559 289.342226 
L 337.565266 289.900933 
L 339.241386 289.900933 
L 339.800092 290.45964 
L 342.034919 290.45964 
L 342.593626 291.018346 
L 344.269746 291.018346 
L 344.828453 291.577053 
L 347.063279 291.577053 
L 347.621986 292.13576 
L 349.298106 292.13576 
L 349.856813 292.694467 
L 352.09164 292.694467 
L 352.650346 293.253173 
L 354.326467 293.253173 
L 354.885173 293.81188 
L 357.12 293.81188 
L 357.678707 294.370587 
L 359.354827 294.370587 
L 359.913533 294.929293 
L 362.14836 294.929293 
L 362.707067 295.488 
L 366.059307 295.488 
L 366.618014 294.929293 
L 369.411547 294.929293 
L 369.970254 294.370587 
L 371.087667 294.370587 
L 371.646374 293.81188 
L 372.205081 293.81188 
L 372.763788 293.253173 
L 373.322494 293.253173 
L 373.881201 292.694467 
L 374.439908 292.694467 
L 377.233441 289.900933 
L 377.233441 289.342226 
L 377.792148 288.78352 
L 377.792148 288.224813 
L 378.350855 287.666106 
L 378.350855 287.1074 
L 378.909561 286.548693 
L 378.909561 285.989986 
L 379.468268 285.431279 
L 379.468268 283.755159 
L 380.026975 283.196453 
L 380.026975 279.285506 
L 379.468268 278.726799 
L 379.468268 276.491972 
L 378.909561 275.933266 
L 378.909561 274.815852 
L 378.350855 274.257145 
L 378.350855 273.698439 
L 377.233441 272.581025 
L 377.233441 272.022319 
L 376.674734 271.463612 
L 376.674734 270.904905 
L 376.116028 270.346199 
L 376.116028 269.787492 
L 375.557321 269.228785 
L 375.557321 268.670079 
L 374.998614 268.111372 
L 374.998614 267.552665 
L 374.439908 266.993958 
L 374.439908 266.435252 
L 373.881201 265.876545 
L 373.881201 265.317838 
L 373.322494 264.759132 
L 373.322494 264.200425 
L 372.763788 263.641718 
L 372.763788 263.083012 
L 372.205081 262.524305 
L 372.205081 261.965598 
L 371.087667 260.848185 
L 371.087667 259.730771 
L 369.970254 258.613358 
L 369.970254 258.054651 
L 369.411547 257.495945 
L 369.411547 256.937238 
L 368.852841 256.378531 
L 368.852841 255.819824 
L 368.294134 255.261118 
L 368.294134 254.702411 
L 367.735427 254.143704 
L 367.735427 253.584998 
L 367.176721 253.026291 
L 367.176721 252.467584 
L 366.618014 251.908878 
L 366.618014 251.350171 
L 366.059307 250.791464 
L 366.059307 250.232758 
L 365.5006 249.674051 
L 365.5006 249.115344 
L 364.941894 248.556637 
L 364.941894 247.997931 
L 364.383187 247.439224 
L 364.383187 246.880517 
L 363.82448 246.321811 
L 363.82448 245.763104 
L 363.265774 245.204397 
L 363.265774 244.645691 
L 362.707067 244.086984 
L 362.707067 243.528277 
L 362.14836 242.96957 
L 362.14836 242.410864 
L 361.589654 241.852157 
L 361.589654 241.29345 
L 361.030947 240.734744 
L 361.030947 240.176037 
L 360.47224 239.61733 
L 360.47224 239.058624 
L 359.913533 238.499917 
L 359.913533 237.94121 
L 359.354827 237.382503 
L 359.354827 236.823797 
L 358.79612 236.26509 
L 358.79612 235.706383 
L 357.678707 234.58897 
L 357.678707 234.030263 
L 357.12 233.471557 
L 357.12 232.91285 
L 356.561293 232.354143 
L 356.561293 231.795436 
L 356.002587 231.23673 
L 356.002587 230.678023 
L 355.44388 230.119316 
L 355.44388 229.56061 
L 354.885173 229.001903 
L 354.885173 228.443196 
L 354.326467 227.88449 
L 354.326467 227.325783 
L 353.76776 226.767076 
L 353.76776 226.20837 
L 353.209053 225.649663 
L 353.209053 225.090956 
L 352.650346 224.532249 
L 352.650346 223.973543 
L 352.09164 223.414836 
L 352.09164 222.856129 
L 351.532933 222.297423 
L 351.532933 221.738716 
L 350.974226 221.180009 
L 350.974226 220.621303 
L 350.41552 220.062596 
L 350.41552 219.503889 
L 349.856813 218.945182 
L 349.856813 218.386476 
L 349.298106 217.827769 
L 349.298106 217.269062 
L 348.7394 216.710356 
L 348.7394 216.151649 
L 348.180693 215.592942 
L 348.180693 215.034236 
L 347.621986 214.475529 
L 347.621986 213.916822 
L 347.063279 213.358115 
L 347.063279 212.799409 
L 346.504573 212.240702 
L 346.504573 211.681995 
L 345.945866 211.123289 
L 345.945866 210.005875 
L 345.387159 209.447169 
L 345.387159 207.771048 
L 344.828453 207.212342 
L 344.828453 205.536222 
L 344.269746 204.977515 
L 344.269746 202.742688 
L 343.711039 202.183982 
L 343.711039 200.507861 
L 343.152333 199.949155 
L 343.152333 197.714328 
L 342.593626 197.155621 
L 342.593626 195.479501 
L 342.034919 194.920794 
L 342.034919 192.685968 
L 341.476212 192.127261 
L 341.476212 190.451141 
L 340.917506 189.892434 
L 340.917506 188.216314 
L 340.358799 187.657607 
L 340.358799 185.422781 
L 339.800092 184.864074 
L 339.800092 183.187954 
L 339.241386 182.629247 
L 339.241386 180.39442 
L 338.682679 179.835714 
L 338.682679 178.159594 
L 338.123972 177.600887 
L 338.123972 175.36606 
L 337.565266 174.807353 
L 337.565266 173.131233 
L 337.006559 172.572527 
L 337.006559 170.3377 
L 336.447852 169.778993 
L 336.447852 168.102873 
L 335.889145 167.544166 
L 335.889145 165.309339 
L 335.330439 164.750633 
L 335.330439 163.074513 
L 334.771732 162.515806 
L 334.771732 160.839686 
L 334.213025 160.280979 
L 334.213025 158.046152 
L 333.654319 157.487446 
L 333.654319 155.811326 
L 333.095612 155.252619 
L 333.095612 153.017792 
L 332.536905 152.459085 
L 332.536905 150.782965 
L 331.978199 150.224259 
L 331.978199 147.989432 
L 331.419492 147.430725 
L 331.419492 145.754605 
L 330.860785 145.195898 
L 330.860785 142.961072 
L 330.302079 142.402365 
L 330.302079 140.726245 
L 329.743372 140.167538 
L 329.743372 137.932711 
L 329.184665 137.374005 
L 329.184665 135.697885 
L 328.625958 135.139178 
L 328.625958 132.904351 
L 328.067252 132.345644 
L 328.067252 130.669524 
L 327.508545 130.110818 
L 327.508545 128.434697 
L 326.949838 127.875991 
L 326.949838 125.641164 
L 326.391132 125.082457 
L 326.391132 122.84763 
L 325.832425 122.288924 
L 325.832425 120.612804 
L 325.273718 120.054097 
L 325.273718 118.377977 
L 324.715012 117.81927 
L 324.715012 116.701857 
L 324.156305 116.14315 
L 324.156305 115.025737 
L 323.597598 114.46703 
L 323.597598 113.908323 
L 323.038891 113.349617 
L 323.038891 112.232203 
L 322.480185 111.673497 
L 322.480185 111.11479 
L 321.921478 110.556083 
L 321.921478 109.43867 
L 321.362771 108.879963 
L 321.362771 107.76255 
L 320.804065 107.203843 
L 320.804065 106.645136 
L 320.245358 106.08643 
L 320.245358 104.969016 
L 319.686651 104.410309 
L 319.686651 103.851603 
L 319.127945 103.292896 
L 319.127945 102.175483 
L 318.569238 101.616776 
L 318.569238 101.058069 
L 318.010531 100.499363 
L 318.010531 99.381949 
L 317.451824 98.823242 
L 317.451824 98.264536 
L 316.893118 97.705829 
L 316.893118 96.588416 
L 316.334411 96.029709 
L 316.334411 95.471002 
L 315.775704 94.912296 
L 315.775704 93.794882 
L 315.216998 93.236176 
L 315.216998 92.677469 
L 314.658291 92.118762 
L 314.658291 91.560055 
L 314.099584 91.001349 
L 314.099584 90.442642 
L 313.540878 89.883935 
L 313.540878 88.766522 
L 312.982171 88.207815 
L 312.982171 87.649109 
L 312.423464 87.090402 
L 312.423464 86.531695 
L 311.864758 85.972988 
L 311.864758 84.855575 
L 311.306051 84.296868 
L 311.306051 83.738162 
L 310.747344 83.179455 
L 310.747344 82.062042 
L 310.188637 81.503335 
L 310.188637 80.944628 
L 309.629931 80.385921 
L 309.629931 79.827215 
L 309.071224 79.268508 
L 309.071224 78.151095 
L 308.512517 77.592388 
L 308.512517 76.474975 
L 307.953811 75.916268 
L 307.953811 74.798855 
L 307.395104 74.240148 
L 307.395104 73.681441 
L 306.836397 73.122734 
L 306.836397 72.005321 
L 306.277691 71.446614 
L 306.277691 69.770494 
L 305.718984 69.211788 
L 305.718984 67.535667 
L 305.160277 66.976961 
L 305.160277 65.300841 
L 304.60157 64.742134 
L 304.60157 63.066014 
L 304.042864 62.507307 
L 304.042864 61.389894 
L 303.484157 60.831187 
L 303.484157 59.155067 
L 302.92545 59.155067 
L 300.131917 56.361533 
L 299.57321 56.361533 
L 298.455797 55.24412 
L 297.89709 55.24412 
L 297.338383 54.685413 
L 296.779677 54.685413 
L 296.22097 54.126707 
L 295.103557 54.126707 
L 294.54485 53.568 
L 133.078614 53.568 
L 133.078614 53.568 
" style="fill:none;stroke:#ff0000;stroke-linecap:square;stroke-width:1.5;"/>
   </g>
   <g id="line2d_12">
    <path clip-path="url(#pb078785dcd)" d="M 134.196028 74.240148 
L 134.754734 73.681441 
L 286.164249 73.681441 
L 286.722956 74.240148 
L 286.722956 75.916268 
L 287.281663 76.474975 
L 287.281663 78.151095 
L 287.84037 78.709801 
L 287.84037 79.827215 
L 288.399076 80.385921 
L 288.399076 80.944628 
L 288.957783 81.503335 
L 288.957783 82.620748 
L 289.51649 83.179455 
L 289.51649 84.296868 
L 290.075196 84.855575 
L 290.075196 85.414282 
L 290.633903 85.972988 
L 290.633903 87.090402 
L 291.19261 87.649109 
L 291.19261 88.207815 
L 291.751316 88.766522 
L 291.751316 89.883935 
L 292.310023 90.442642 
L 292.310023 91.001349 
L 292.86873 91.560055 
L 292.86873 92.677469 
L 293.427436 93.236176 
L 293.427436 93.794882 
L 293.986143 94.353589 
L 293.986143 95.471002 
L 294.54485 96.029709 
L 294.54485 96.588416 
L 295.103557 97.147122 
L 295.103557 97.705829 
L 295.662263 98.264536 
L 295.662263 98.823242 
L 296.22097 99.381949 
L 296.22097 100.499363 
L 296.779677 101.058069 
L 296.779677 101.616776 
L 297.338383 102.175483 
L 297.338383 102.734189 
L 297.89709 103.292896 
L 297.89709 104.410309 
L 298.455797 104.969016 
L 298.455797 105.527723 
L 299.014503 106.08643 
L 299.014503 107.203843 
L 299.57321 107.76255 
L 299.57321 108.321256 
L 300.131917 108.879963 
L 300.131917 109.997376 
L 300.690624 110.556083 
L 300.690624 111.11479 
L 301.24933 111.673497 
L 301.24933 112.79091 
L 301.808037 113.349617 
L 301.808037 113.908323 
L 302.366744 114.46703 
L 302.366744 115.584443 
L 302.92545 116.14315 
L 302.92545 117.260564 
L 303.484157 117.81927 
L 303.484157 118.377977 
L 304.042864 118.936684 
L 304.042864 120.054097 
L 304.60157 120.612804 
L 304.60157 121.17151 
L 305.160277 121.730217 
L 305.160277 122.84763 
L 305.718984 123.406337 
L 305.718984 125.082457 
L 306.277691 125.641164 
L 306.277691 127.317284 
L 306.836397 127.875991 
L 306.836397 129.552111 
L 307.395104 130.110818 
L 307.395104 132.345644 
L 307.953811 132.904351 
L 307.953811 134.580471 
L 308.512517 135.139178 
L 308.512517 137.374005 
L 309.071224 137.932711 
L 309.071224 139.608831 
L 309.629931 140.167538 
L 309.629931 142.402365 
L 310.188637 142.961072 
L 310.188637 144.637192 
L 310.747344 145.195898 
L 310.747344 147.430725 
L 311.306051 147.989432 
L 311.306051 149.665552 
L 311.864758 150.224259 
L 311.864758 152.459085 
L 312.423464 153.017792 
L 312.423464 154.693912 
L 312.982171 155.252619 
L 312.982171 156.928739 
L 313.540878 157.487446 
L 313.540878 159.722273 
L 314.099584 160.280979 
L 314.099584 161.957099 
L 314.658291 162.515806 
L 314.658291 164.750633 
L 315.216998 165.309339 
L 315.216998 166.98546 
L 315.775704 167.544166 
L 315.775704 169.778993 
L 316.334411 170.3377 
L 316.334411 172.01382 
L 316.893118 172.572527 
L 316.893118 174.807353 
L 317.451824 175.36606 
L 317.451824 177.04218 
L 318.010531 177.600887 
L 318.010531 179.835714 
L 318.569238 180.39442 
L 318.569238 182.07054 
L 319.127945 182.629247 
L 319.127945 184.864074 
L 319.686651 185.422781 
L 319.686651 187.098901 
L 320.245358 187.657607 
L 320.245358 189.333727 
L 320.804065 189.892434 
L 320.804065 192.127261 
L 321.362771 192.685968 
L 321.362771 194.362088 
L 321.921478 194.920794 
L 321.921478 197.155621 
L 322.480185 197.714328 
L 322.480185 199.390448 
L 323.038891 199.949155 
L 323.038891 202.183982 
L 323.597598 202.742688 
L 323.597598 204.418808 
L 324.156305 204.977515 
L 324.156305 207.212342 
L 324.715012 207.771048 
L 324.715012 209.447169 
L 325.273718 210.005875 
L 325.273718 211.681995 
L 325.832425 212.240702 
L 325.832425 214.475529 
L 326.391132 215.034236 
L 326.391132 216.710356 
L 326.949838 217.269062 
L 326.949838 218.386476 
L 327.508545 218.945182 
L 327.508545 219.503889 
L 328.067252 220.062596 
L 328.067252 220.621303 
L 328.625958 221.180009 
L 328.625958 221.738716 
L 329.184665 222.297423 
L 329.184665 222.856129 
L 329.743372 223.414836 
L 329.743372 223.973543 
L 330.302079 224.532249 
L 330.302079 225.090956 
L 330.860785 225.649663 
L 330.860785 226.20837 
L 331.419492 226.767076 
L 331.419492 227.325783 
L 331.978199 227.88449 
L 331.978199 228.443196 
L 332.536905 229.001903 
L 332.536905 229.56061 
L 333.095612 230.119316 
L 333.095612 230.678023 
L 333.654319 231.23673 
L 333.654319 231.795436 
L 334.213025 232.354143 
L 334.213025 232.91285 
L 334.771732 233.471557 
L 334.771732 234.030263 
L 335.330439 234.58897 
L 335.330439 235.147677 
L 335.889145 235.706383 
L 335.889145 236.26509 
L 337.006559 237.382503 
L 337.006559 237.94121 
L 337.565266 238.499917 
L 337.565266 239.058624 
L 338.123972 239.61733 
L 338.123972 240.176037 
L 338.682679 240.734744 
L 338.682679 241.29345 
L 339.241386 241.852157 
L 339.241386 242.410864 
L 339.800092 242.96957 
L 339.800092 243.528277 
L 340.358799 244.086984 
L 340.358799 244.645691 
L 340.917506 245.204397 
L 340.917506 245.763104 
L 341.476212 246.321811 
L 341.476212 246.880517 
L 342.034919 247.439224 
L 342.034919 247.997931 
L 342.593626 248.556637 
L 342.593626 249.115344 
L 343.152333 249.674051 
L 343.152333 250.232758 
L 343.711039 250.791464 
L 343.711039 251.350171 
L 344.269746 251.908878 
L 344.269746 252.467584 
L 344.828453 253.026291 
L 344.828453 253.584998 
L 345.387159 254.143704 
L 345.387159 254.702411 
L 345.945866 255.261118 
L 345.945866 255.819824 
L 346.504573 256.378531 
L 346.504573 256.937238 
L 347.063279 257.495945 
L 347.063279 258.054651 
L 347.621986 258.613358 
L 347.621986 259.172065 
L 348.180693 259.730771 
L 348.180693 260.289478 
L 348.7394 260.848185 
L 348.7394 261.406891 
L 349.298106 261.965598 
L 349.298106 262.524305 
L 350.41552 263.641718 
L 350.41552 264.200425 
L 350.974226 264.759132 
L 350.974226 265.317838 
L 351.532933 265.876545 
L 351.532933 266.435252 
L 352.09164 266.993958 
L 352.09164 267.552665 
L 352.650346 268.111372 
L 352.650346 268.670079 
L 353.209053 269.228785 
L 353.209053 269.787492 
L 353.76776 270.346199 
L 353.76776 270.904905 
L 354.326467 271.463612 
L 354.326467 272.022319 
L 353.76776 272.581025 
L 352.09164 272.581025 
L 351.532933 272.022319 
L 349.856813 272.022319 
L 349.298106 271.463612 
L 347.063279 271.463612 
L 346.504573 270.904905 
L 344.828453 270.904905 
L 344.269746 270.346199 
L 342.034919 270.346199 
L 341.476212 269.787492 
L 339.800092 269.787492 
L 339.241386 269.228785 
L 337.006559 269.228785 
L 336.447852 268.670079 
L 334.771732 268.670079 
L 334.213025 268.111372 
L 331.978199 268.111372 
L 331.419492 267.552665 
L 329.743372 267.552665 
L 329.184665 266.993958 
L 327.508545 266.993958 
L 326.949838 266.435252 
L 326.391132 266.435252 
L 325.832425 265.876545 
L 325.273718 265.876545 
L 324.715012 265.317838 
L 324.156305 265.317838 
L 323.597598 264.759132 
L 323.038891 264.759132 
L 322.480185 264.200425 
L 321.362771 264.200425 
L 320.804065 263.641718 
L 320.245358 263.641718 
L 319.686651 263.083012 
L 319.127945 263.083012 
L 318.569238 262.524305 
L 318.010531 262.524305 
L 317.451824 261.965598 
L 316.893118 261.965598 
L 316.334411 261.406891 
L 315.775704 261.406891 
L 315.216998 260.848185 
L 314.099584 260.848185 
L 313.540878 260.289478 
L 312.982171 260.289478 
L 312.423464 259.730771 
L 311.864758 259.730771 
L 311.306051 259.172065 
L 310.747344 259.172065 
L 310.188637 258.613358 
L 309.629931 258.613358 
L 309.071224 258.054651 
L 308.512517 258.054651 
L 307.953811 257.495945 
L 306.836397 257.495945 
L 306.277691 256.937238 
L 305.718984 256.937238 
L 305.160277 256.378531 
L 304.60157 256.378531 
L 304.042864 255.819824 
L 303.484157 255.819824 
L 302.92545 255.261118 
L 302.366744 255.261118 
L 301.808037 254.702411 
L 300.690624 254.702411 
L 300.131917 254.143704 
L 299.57321 254.143704 
L 299.014503 253.584998 
L 298.455797 253.584998 
L 297.89709 253.026291 
L 297.338383 253.026291 
L 296.779677 252.467584 
L 296.22097 252.467584 
L 295.662263 251.908878 
L 294.54485 251.908878 
L 293.986143 251.350171 
L 293.427436 251.350171 
L 292.86873 250.791464 
L 292.310023 250.791464 
L 291.751316 250.232758 
L 291.19261 250.232758 
L 290.633903 249.674051 
L 290.075196 249.674051 
L 289.51649 249.115344 
L 288.399076 249.115344 
L 287.84037 248.556637 
L 287.281663 248.556637 
L 286.722956 247.997931 
L 286.164249 247.997931 
L 285.605543 247.439224 
L 285.046836 247.439224 
L 284.488129 246.880517 
L 283.929423 246.880517 
L 283.370716 246.321811 
L 282.253303 246.321811 
L 281.694596 245.763104 
L 281.135889 245.763104 
L 280.577182 245.204397 
L 280.018476 245.204397 
L 279.459769 244.645691 
L 278.901062 244.645691 
L 278.342356 244.086984 
L 277.224942 244.086984 
L 276.666236 243.528277 
L 276.107529 243.528277 
L 275.548822 242.96957 
L 274.990115 242.96957 
L 274.431409 242.410864 
L 273.872702 242.410864 
L 273.313995 241.852157 
L 272.755289 241.852157 
L 272.196582 241.29345 
L 271.079169 241.29345 
L 270.520462 240.734744 
L 269.961755 240.734744 
L 269.403048 240.176037 
L 268.844342 240.176037 
L 268.285635 239.61733 
L 267.726928 239.61733 
L 267.168222 239.058624 
L 266.609515 239.058624 
L 266.050808 238.499917 
L 264.933395 238.499917 
L 264.374688 237.94121 
L 263.815982 237.94121 
L 263.257275 237.382503 
L 262.139861 237.382503 
L 261.581155 236.823797 
L 260.463741 236.823797 
L 259.905035 236.26509 
L 259.346328 236.26509 
L 258.787621 235.706383 
L 257.670208 235.706383 
L 257.111501 235.147677 
L 255.994088 235.147677 
L 255.435381 234.58897 
L 254.317968 234.58897 
L 253.759261 234.030263 
L 253.200554 234.030263 
L 252.641848 233.471557 
L 251.524434 233.471557 
L 250.965727 232.91285 
L 249.848314 232.91285 
L 249.289607 232.354143 
L 248.172194 232.354143 
L 247.613487 231.795436 
L 246.496074 231.795436 
L 245.937367 231.23673 
L 245.378661 231.23673 
L 244.819954 230.678023 
L 243.70254 230.678023 
L 243.143834 230.119316 
L 242.02642 230.119316 
L 241.467714 229.56061 
L 240.3503 229.56061 
L 239.791594 229.001903 
L 238.67418 229.001903 
L 238.115473 228.443196 
L 237.556767 228.443196 
L 236.99806 227.88449 
L 235.880647 227.88449 
L 235.32194 227.325783 
L 234.204527 227.325783 
L 233.64582 226.767076 
L 232.528406 226.767076 
L 231.9697 226.20837 
L 231.410993 226.20837 
L 230.852286 225.649663 
L 229.734873 225.649663 
L 229.176166 225.090956 
L 228.058753 225.090956 
L 227.500046 224.532249 
L 226.382633 224.532249 
L 225.823926 223.973543 
L 224.706513 223.973543 
L 224.147806 223.414836 
L 223.030393 223.414836 
L 222.471686 222.856129 
L 221.354273 222.856129 
L 220.795566 222.297423 
L 219.678152 222.297423 
L 219.119446 221.738716 
L 218.002032 221.738716 
L 217.443326 221.180009 
L 216.325912 221.180009 
L 215.767206 220.621303 
L 214.649792 220.621303 
L 214.091085 220.062596 
L 212.973672 220.062596 
L 212.414965 219.503889 
L 211.297552 219.503889 
L 210.738845 218.945182 
L 209.621432 218.945182 
L 209.062725 218.386476 
L 207.945312 218.386476 
L 207.386605 217.827769 
L 206.269192 217.827769 
L 205.710485 217.269062 
L 204.593072 217.269062 
L 204.034365 216.710356 
L 202.916952 216.710356 
L 202.358245 216.151649 
L 201.240831 216.151649 
L 200.682125 215.592942 
L 199.564711 215.592942 
L 199.006005 215.034236 
L 197.888591 215.034236 
L 197.329885 214.475529 
L 196.212471 214.475529 
L 195.653764 213.916822 
L 194.536351 213.916822 
L 193.418938 212.799409 
L 193.977644 212.240702 
L 194.536351 212.240702 
L 196.771178 210.005875 
L 197.329885 210.005875 
L 199.006005 208.329755 
L 199.564711 208.329755 
L 200.123418 207.771048 
L 200.682125 207.771048 
L 201.799538 206.653635 
L 202.358245 206.653635 
L 202.916952 206.094928 
L 203.475658 206.094928 
L 204.034365 205.536222 
L 204.593072 205.536222 
L 205.151778 204.977515 
L 205.710485 204.977515 
L 206.269192 204.418808 
L 207.386605 204.418808 
L 207.945312 203.860102 
L 209.062725 203.860102 
L 209.621432 203.301395 
L 210.738845 203.301395 
L 211.297552 202.742688 
L 212.973672 202.742688 
L 213.532379 202.183982 
L 216.884619 202.183982 
L 217.443326 201.625275 
L 224.147806 201.625275 
L 224.706513 202.183982 
L 228.61746 202.183982 
L 229.176166 202.742688 
L 230.852286 202.742688 
L 231.410993 203.301395 
L 232.528406 203.301395 
L 233.087113 203.860102 
L 234.204527 203.860102 
L 234.763233 204.418808 
L 235.880647 204.418808 
L 236.439353 204.977515 
L 237.556767 204.977515 
L 238.115473 205.536222 
L 239.232887 205.536222 
L 239.791594 206.094928 
L 240.3503 206.094928 
L 240.909007 206.653635 
L 242.02642 206.653635 
L 242.585127 207.212342 
L 243.143834 207.212342 
L 243.70254 207.771048 
L 244.819954 207.771048 
L 245.378661 208.329755 
L 245.937367 208.329755 
L 246.496074 208.888462 
L 247.054781 208.888462 
L 247.613487 209.447169 
L 248.172194 209.447169 
L 248.730901 210.005875 
L 249.848314 210.005875 
L 250.407021 210.564582 
L 250.965727 210.564582 
L 251.524434 211.123289 
L 252.083141 211.123289 
L 252.641848 211.681995 
L 253.200554 211.681995 
L 253.759261 212.240702 
L 254.876674 212.240702 
L 255.994088 213.358115 
L 256.552794 213.358115 
L 257.111501 213.916822 
L 257.670208 213.916822 
L 258.228915 214.475529 
L 258.787621 214.475529 
L 259.905035 215.592942 
L 260.463741 215.592942 
L 261.022448 216.151649 
L 261.581155 216.151649 
L 262.139861 216.710356 
L 262.698568 216.710356 
L 263.257275 217.269062 
L 264.374688 217.269062 
L 264.933395 217.827769 
L 265.492102 217.827769 
L 266.050808 218.386476 
L 266.609515 218.386476 
L 267.168222 218.945182 
L 267.726928 218.945182 
L 268.285635 219.503889 
L 269.403048 219.503889 
L 269.961755 220.062596 
L 270.520462 220.062596 
L 271.079169 220.621303 
L 272.196582 220.621303 
L 272.755289 221.180009 
L 273.872702 221.180009 
L 274.431409 221.738716 
L 275.548822 221.738716 
L 276.107529 222.297423 
L 278.342356 222.297423 
L 278.901062 222.856129 
L 288.957783 222.856129 
L 289.51649 222.297423 
L 291.19261 222.297423 
L 291.751316 221.738716 
L 292.86873 221.738716 
L 293.427436 221.180009 
L 293.986143 221.180009 
L 294.54485 220.621303 
L 295.662263 220.621303 
L 296.22097 220.062596 
L 296.779677 220.062596 
L 297.338383 219.503889 
L 297.89709 219.503889 
L 298.455797 218.945182 
L 299.014503 218.945182 
L 299.57321 218.386476 
L 300.131917 218.386476 
L 301.24933 217.269062 
L 301.808037 217.269062 
L 303.484157 215.592942 
L 304.042864 215.592942 
L 309.071224 210.564582 
L 309.071224 210.005875 
L 310.188637 208.888462 
L 310.188637 208.329755 
L 311.306051 207.212342 
L 311.306051 206.653635 
L 311.864758 206.094928 
L 311.864758 205.536222 
L 312.423464 204.977515 
L 312.423464 203.860102 
L 312.982171 203.301395 
L 312.982171 202.742688 
L 313.540878 202.183982 
L 313.540878 200.507861 
L 314.099584 199.949155 
L 314.099584 197.714328 
L 314.658291 197.155621 
L 314.658291 190.451141 
L 314.099584 189.892434 
L 314.099584 187.098901 
L 313.540878 186.540194 
L 313.540878 184.305367 
L 312.982171 183.746661 
L 312.982171 182.629247 
L 312.423464 182.07054 
L 312.423464 180.39442 
L 311.864758 179.835714 
L 311.864758 178.159594 
L 311.306051 177.600887 
L 311.306051 175.924767 
L 310.747344 175.36606 
L 310.747344 173.68994 
L 310.188637 173.131233 
L 310.188637 171.455113 
L 309.629931 170.896406 
L 309.629931 169.220286 
L 309.071224 168.66158 
L 309.071224 166.98546 
L 308.512517 166.426753 
L 308.512517 164.750633 
L 307.953811 164.191926 
L 307.953811 162.515806 
L 307.395104 161.957099 
L 307.395104 160.280979 
L 306.836397 159.722273 
L 306.836397 158.046152 
L 306.277691 157.487446 
L 306.277691 156.370032 
L 305.718984 155.811326 
L 305.718984 154.135206 
L 305.160277 153.576499 
L 305.160277 151.900379 
L 304.60157 151.341672 
L 304.60157 149.665552 
L 304.042864 149.106845 
L 304.042864 147.430725 
L 303.484157 146.872018 
L 303.484157 145.754605 
L 302.92545 145.195898 
L 302.92545 144.637192 
L 302.366744 144.078485 
L 302.366744 143.519778 
L 301.24933 142.402365 
L 301.24933 141.843658 
L 299.57321 140.167538 
L 299.57321 139.608831 
L 295.662263 135.697885 
L 295.103557 135.697885 
L 292.86873 133.463058 
L 292.310023 133.463058 
L 291.751316 132.904351 
L 291.19261 132.904351 
L 290.633903 132.345644 
L 290.075196 132.345644 
L 289.51649 131.786938 
L 288.957783 131.786938 
L 288.399076 131.228231 
L 287.84037 131.228231 
L 287.281663 130.669524 
L 286.164249 130.669524 
L 285.605543 130.110818 
L 283.929423 130.110818 
L 283.370716 129.552111 
L 281.135889 129.552111 
L 280.577182 128.993404 
L 271.637875 128.993404 
L 271.079169 129.552111 
L 268.844342 129.552111 
L 268.285635 130.110818 
L 266.609515 130.110818 
L 266.050808 130.669524 
L 264.933395 130.669524 
L 264.374688 131.228231 
L 263.815982 131.228231 
L 262.698568 132.345644 
L 262.139861 132.345644 
L 261.022448 133.463058 
L 260.463741 133.463058 
L 259.905035 134.021764 
L 259.346328 134.021764 
L 258.228915 135.139178 
L 257.670208 135.139178 
L 256.552794 136.256591 
L 255.994088 136.256591 
L 254.876674 137.374005 
L 254.317968 137.374005 
L 253.759261 137.932711 
L 253.200554 137.932711 
L 252.083141 139.050125 
L 251.524434 139.050125 
L 250.407021 140.167538 
L 249.848314 140.167538 
L 249.289607 140.726245 
L 248.730901 140.726245 
L 247.613487 141.843658 
L 247.054781 141.843658 
L 245.937367 142.961072 
L 245.378661 142.961072 
L 244.261247 144.078485 
L 243.70254 144.078485 
L 243.143834 144.637192 
L 242.585127 144.637192 
L 242.02642 145.195898 
L 241.467714 145.195898 
L 240.909007 145.754605 
L 239.791594 145.754605 
L 239.232887 146.313312 
L 236.99806 146.313312 
L 236.439353 146.872018 
L 225.823926 146.872018 
L 225.265219 146.313312 
L 223.589099 146.313312 
L 223.030393 145.754605 
L 221.354273 145.754605 
L 220.795566 145.195898 
L 219.119446 145.195898 
L 218.560739 144.637192 
L 216.884619 144.637192 
L 216.325912 144.078485 
L 214.649792 144.078485 
L 214.091085 143.519778 
L 212.414965 143.519778 
L 211.856259 142.961072 
L 210.180139 142.961072 
L 209.621432 142.402365 
L 207.945312 142.402365 
L 207.386605 141.843658 
L 206.269192 141.843658 
L 205.710485 141.284952 
L 204.034365 141.284952 
L 203.475658 140.726245 
L 201.799538 140.726245 
L 201.240831 140.167538 
L 199.564711 140.167538 
L 199.006005 139.608831 
L 197.329885 139.608831 
L 196.771178 139.050125 
L 195.095058 139.050125 
L 194.536351 138.491418 
L 192.860231 138.491418 
L 192.301524 137.932711 
L 190.625404 137.932711 
L 190.066697 137.374005 
L 188.390577 137.374005 
L 187.831871 136.815298 
L 186.155751 136.815298 
L 185.597044 136.256591 
L 183.920924 136.256591 
L 183.362217 135.697885 
L 181.686097 135.697885 
L 181.12739 135.139178 
L 179.45127 135.139178 
L 178.892564 134.580471 
L 177.216443 134.580471 
L 176.657737 134.021764 
L 174.981617 134.021764 
L 174.42291 133.463058 
L 172.74679 133.463058 
L 172.188083 132.904351 
L 170.511963 132.904351 
L 169.953256 132.345644 
L 168.277136 132.345644 
L 167.71843 131.786938 
L 166.042309 131.786938 
L 165.483603 131.228231 
L 163.807483 131.228231 
L 163.248776 130.669524 
L 161.572656 130.669524 
L 161.013949 130.110818 
L 159.337829 130.110818 
L 158.779122 129.552111 
L 157.103002 129.552111 
L 156.544296 128.993404 
L 154.868176 128.993404 
L 154.309469 128.434697 
L 152.633349 128.434697 
L 152.074642 127.875991 
L 150.398522 127.875991 
L 149.839815 127.317284 
L 148.163695 127.317284 
L 147.604988 126.758577 
L 145.928868 126.758577 
L 145.370162 126.199871 
L 143.694042 126.199871 
L 143.135335 125.641164 
L 141.459215 125.641164 
L 140.900508 125.082457 
L 139.224388 125.082457 
L 138.665681 124.523751 
L 136.989561 124.523751 
L 136.430855 123.965044 
L 134.754734 123.965044 
L 134.196028 123.406337 
L 132.519908 123.406337 
L 131.961201 122.84763 
L 130.285081 122.84763 
L 129.726374 122.288924 
L 128.050254 122.288924 
L 127.491547 121.730217 
L 125.815427 121.730217 
L 125.256721 121.17151 
L 123.5806 121.17151 
L 123.021894 120.612804 
L 121.345774 120.612804 
L 120.787067 120.054097 
L 119.110947 120.054097 
L 118.55224 119.49539 
L 116.87612 119.49539 
L 116.317413 118.936684 
L 114.641293 118.936684 
L 112.965173 117.260564 
L 112.965173 112.79091 
L 112.406467 112.232203 
L 112.406467 78.709801 
L 112.965173 78.151095 
L 114.641293 78.151095 
L 115.2 77.592388 
L 117.434827 77.592388 
L 117.993533 77.033681 
L 120.22836 77.033681 
L 120.787067 76.474975 
L 123.021894 76.474975 
L 123.5806 75.916268 
L 125.815427 75.916268 
L 126.374134 75.357561 
L 128.608961 75.357561 
L 129.167667 74.798855 
L 131.402494 74.798855 
L 131.961201 74.240148 
L 133.637321 74.240148 
L 133.637321 74.240148 
" style="fill:none;stroke:#0000ff;stroke-linecap:square;stroke-width:1.5;"/>
   </g>
   <g id="line2d_13">
    <path clip-path="url(#pb078785dcd)" d="M 182.857386 63.615471 
L 286.009583 63.650207 
L 288.243319 63.819845 
L 290.441919 64.224655 
L 292.535921 65.002502 
L 294.211725 66.470838 
L 295.276764 68.437193 
L 296.613822 72.713383 
L 298.529995 79.161534 
L 300.092503 83.36518 
L 302.67178 89.578265 
L 309.743761 106.064695 
L 312.149567 112.346913 
L 314.306778 118.71865 
L 316.21534 125.169299 
L 317.894027 131.683674 
L 319.874174 140.432092 
L 325.066564 164.546081 
L 330.603227 188.583452 
L 334.354803 206.125281 
L 335.54795 210.44823 
L 336.975975 214.699071 
L 338.655532 218.857111 
L 340.533437 222.929671 
L 343.595238 228.919598 
L 350.941042 242.791663 
L 360.036665 260.804441 
L 364.155201 268.766147 
L 365.990006 272.849742 
L 366.516557 275.02279 
L 366.725828 277.248721 
L 366.18935 279.412372 
L 364.955989 281.274898 
L 363.233637 282.701854 
L 361.163513 283.524761 
L 358.933758 283.71268 
L 356.702524 283.50436 
L 350.114857 282.173877 
L 343.55877 280.667857 
L 332.565784 278.462859 
L 328.226585 277.331235 
L 323.970606 275.919143 
L 319.803478 274.26202 
L 313.655196 271.531746 
L 270.833593 251.9362 
L 262.608401 248.358069 
L 256.370848 245.838318 
L 247.966754 242.703414 
L 228.93653 235.981877 
L 209.862222 229.387084 
L 199.186435 225.960532 
L 192.804616 223.835964 
L 190.706514 223.051356 
L 188.659844 222.141722 
L 186.755635 220.964545 
L 185.11758 219.445559 
L 183.793739 217.643552 
L 183.03906 215.540482 
L 182.8492 213.309271 
L 183.167586 211.094262 
L 183.952846 208.997996 
L 185.093073 207.069366 
L 186.566573 205.381874 
L 188.209368 203.859876 
L 189.97559 202.480186 
L 193.739479 200.0439 
L 197.622106 197.799344 
L 201.627491 195.783825 
L 205.79053 194.119547 
L 210.091153 192.853104 
L 212.283036 192.38042 
L 214.495837 192.017997 
L 218.961754 191.62492 
L 221.203812 191.59512 
L 223.444473 191.679902 
L 227.900133 192.177424 
L 232.298095 193.050991 
L 236.626754 194.222311 
L 240.889385 195.615738 
L 245.090079 197.186358 
L 251.289259 199.798229 
L 257.376135 202.662489 
L 273.481976 210.553657 
L 275.588001 211.323146 
L 277.7405 211.950614 
L 279.933665 212.416068 
L 282.157395 212.701145 
L 284.39763 212.78709 
L 286.635079 212.648881 
L 288.842717 212.258378 
L 290.995713 211.633981 
L 293.071962 210.788055 
L 295.04714 209.727893 
L 296.893691 208.457242 
L 298.582476 206.983509 
L 300.10158 205.334586 
L 301.433737 203.53125 
L 302.585667 201.607991 
L 303.476044 199.548313 
L 304.042237 197.376849 
L 304.314183 195.151322 
L 304.397143 192.911035 
L 304.279179 190.67225 
L 303.995445 188.448342 
L 303.037952 184.06857 
L 298.306361 166.766133 
L 295.798984 155.838448 
L 294.457666 151.560827 
L 293.581649 149.497138 
L 292.489826 147.539022 
L 291.168313 145.728148 
L 289.64291 144.085509 
L 287.936672 142.632 
L 286.062257 141.40277 
L 284.04709 140.421075 
L 281.924517 139.700427 
L 279.730115 139.241986 
L 277.498178 139.033646 
L 275.256745 139.064874 
L 273.030528 139.328281 
L 270.841694 139.812825 
L 268.709426 140.505634 
L 266.646717 141.384067 
L 264.666297 142.434986 
L 260.940031 144.927732 
L 255.501714 148.887654 
L 251.755319 151.352017 
L 249.814425 152.474977 
L 247.817646 153.495188 
L 245.763388 154.393967 
L 243.65634 155.160617 
L 241.505836 155.795149 
L 239.321601 156.301688 
L 237.111737 156.681086 
L 234.883949 156.934489 
L 232.645588 157.065506 
L 230.403302 157.064178 
L 228.164785 156.933691 
L 223.720003 156.344893 
L 219.326796 155.445248 
L 212.806138 153.791178 
L 197.606613 149.869409 
L 119.299048 130.244001 
L 114.925872 129.252555 
L 112.777585 128.611466 
L 110.698692 127.774941 
L 108.757225 126.65843 
L 107.017722 125.248888 
L 105.5485 123.560467 
L 104.42978 121.620841 
L 103.636557 119.524949 
L 103.089178 117.351432 
L 102.707248 115.142176 
L 102.330172 110.674496 
L 102.259826 106.190484 
L 102.393702 90.495466 
L 102.156889 81.5299 
L 102.242797 79.289962 
L 102.464291 77.060128 
L 103.066752 74.903737 
L 104.147363 72.943441 
L 105.63684 71.273142 
L 107.45036 69.96289 
L 109.47661 69.011879 
L 111.597366 68.290119 
L 115.977268 67.332152 
L 122.590725 66.099954 
L 129.1616 64.663932 
L 133.522567 63.629007 
L 180.614894 63.616981 
L 180.614894 63.616981 
" style="fill:none;stroke:#000000;stroke-linecap:square;stroke-width:1.5;"/>
   </g>
   <g id="line2d_14">
    <defs>
     <path d="M 0 5 
C 1.326016 5 2.597899 4.473168 3.535534 3.535534 
C 4.473168 2.597899 5 1.326016 5 0 
C 5 -1.326016 4.473168 -2.597899 3.535534 -3.535534 
C 2.597899 -4.473168 1.326016 -5 0 -5 
C -1.326016 -5 -2.597899 -4.473168 -3.535534 -3.535534 
C -4.473168 -2.597899 -5 -1.326016 -5 0 
C -5 1.326016 -4.473168 2.597899 -3.535534 3.535534 
C -2.597899 4.473168 -1.326016 5 0 5 
z
" id="m615b383b07" style="stroke:#ff0000;"/>
    </defs>
    <g clip-path="url(#pb078785dcd)">
     <use style="fill:#ff0000;stroke:#ff0000;" x="182.857386" xlink:href="#m615b383b07" y="63.615471"/>
    </g>
   </g>
   <g id="line2d_15">
    <defs>
     <path d="M 0 5 
C 1.326016 5 2.597899 4.473168 3.535534 3.535534 
C 4.473168 2.597899 5 1.326016 5 0 
C 5 -1.326016 4.473168 -2.597899 3.535534 -3.535534 
C 2.597899 -4.473168 1.326016 -5 0 -5 
C -1.326016 -5 -2.597899 -4.473168 -3.535534 -3.535534 
C -4.473168 -2.597899 -5 -1.326016 -5 0 
C -5 1.326016 -4.473168 2.597899 -3.535534 3.535534 
C -2.597899 4.473168 -1.326016 5 0 5 
z
" id="ma3155656e2" style="stroke:#008000;"/>
    </defs>
    <g clip-path="url(#pb078785dcd)">
     <use style="fill:#008000;stroke:#008000;" x="227.707221" xlink:href="#ma3155656e2" y="63.637112"/>
    </g>
   </g>
   <g id="patch_3">
    <path d="M 77.906328 307.584 
L 77.906328 41.472 
" style="fill:none;stroke:#000000;stroke-linecap:square;stroke-linejoin:miter;stroke-width:0.8;"/>
   </g>
   <g id="patch_4">
    <path d="M 394.413672 307.584 
L 394.413672 41.472 
" style="fill:none;stroke:#000000;stroke-linecap:square;stroke-linejoin:miter;stroke-width:0.8;"/>
   </g>
   <g id="patch_5">
    <path d="M 77.906328 307.584 
L 394.413672 307.584 
" style="fill:none;stroke:#000000;stroke-linecap:square;stroke-linejoin:miter;stroke-width:0.8;"/>
   </g>
   <g id="patch_6">
    <path d="M 77.906328 41.472 
L 394.413672 41.472 
" style="fill:none;stroke:#000000;stroke-linecap:square;stroke-linejoin:miter;stroke-width:0.8;"/>
   </g>
  </g>
 </g>
 <defs>
  <clipPath id="pb078785dcd">
   <rect height="266.112" width="316.507344" x="77.906328" y="41.472"/>
  </clipPath>
 </defs>
</svg>
