<?xml version="1.0" encoding="utf-8" standalone="no"?>
<!DOCTYPE svg PUBLIC "-//W3C//DTD SVG 1.1//EN"
  "http://www.w3.org/Graphics/SVG/1.1/DTD/svg11.dtd">
<!-- Created with matplotlib (https://matplotlib.org/) -->
<svg height="345.6pt" version="1.1" viewBox="0 0 460.8 345.6" width="460.8pt" xmlns="http://www.w3.org/2000/svg" xmlns:xlink="http://www.w3.org/1999/xlink">
 <metadata>
  <rdf:RDF xmlns:cc="http://creativecommons.org/ns#" xmlns:dc="http://purl.org/dc/elements/1.1/" xmlns:rdf="http://www.w3.org/1999/02/22-rdf-syntax-ns#">
   <cc:Work>
    <dc:type rdf:resource="http://purl.org/dc/dcmitype/StillImage"/>
    <dc:date>2024-10-15T01:22:48.212125</dc:date>
    <dc:format>image/svg+xml</dc:format>
    <dc:creator>
     <cc:Agent>
      <dc:title>Matplotlib v3.3.1, https://matplotlib.org/</dc:title>
     </cc:Agent>
    </dc:creator>
   </cc:Work>
  </rdf:RDF>
 </metadata>
 <defs>
  <style type="text/css">*{stroke-linecap:butt;stroke-linejoin:round;}</style>
 </defs>
 <g id="figure_1">
  <g id="patch_1">
   <path d="M 0 345.6 
L 460.8 345.6 
L 460.8 0 
L 0 0 
z
" style="fill:#ffffff;"/>
  </g>
  <g id="axes_1">
   <g id="patch_2">
    <path d="M 57.6 307.584 
L 414.72 307.584 
L 414.72 41.472 
L 57.6 41.472 
z
" style="fill:#ffffff;"/>
   </g>
   <g id="matplotlib.axis_1">
    <g id="xtick_1">
     <g id="line2d_1">
      <defs>
       <path d="M 0 0 
L 0 3.5 
" id="mcb55df4b39" style="stroke:#000000;stroke-width:0.8;"/>
      </defs>
      <g>
       <use style="stroke:#000000;stroke-width:0.8;" x="73.832727" xlink:href="#mcb55df4b39" y="307.584"/>
      </g>
     </g>
     <g id="text_1">
      <!-- 0.0 -->
      <g transform="translate(65.881165 322.182437)scale(0.1 -0.1)">
       <defs>
        <path d="M 31.78125 66.40625 
Q 24.171875 66.40625 20.328125 58.90625 
Q 16.5 51.421875 16.5 36.375 
Q 16.5 21.390625 20.328125 13.890625 
Q 24.171875 6.390625 31.78125 6.390625 
Q 39.453125 6.390625 43.28125 13.890625 
Q 47.125 21.390625 47.125 36.375 
Q 47.125 51.421875 43.28125 58.90625 
Q 39.453125 66.40625 31.78125 66.40625 
z
M 31.78125 74.21875 
Q 44.046875 74.21875 50.515625 64.515625 
Q 56.984375 54.828125 56.984375 36.375 
Q 56.984375 17.96875 50.515625 8.265625 
Q 44.046875 -1.421875 31.78125 -1.421875 
Q 19.53125 -1.421875 13.0625 8.265625 
Q 6.59375 17.96875 6.59375 36.375 
Q 6.59375 54.828125 13.0625 64.515625 
Q 19.53125 74.21875 31.78125 74.21875 
z
" id="DejaVuSans-48"/>
        <path d="M 10.6875 12.40625 
L 21 12.40625 
L 21 0 
L 10.6875 0 
z
" id="DejaVuSans-46"/>
       </defs>
       <use xlink:href="#DejaVuSans-48"/>
       <use x="63.623047" xlink:href="#DejaVuSans-46"/>
       <use x="95.410156" xlink:href="#DejaVuSans-48"/>
      </g>
     </g>
    </g>
    <g id="xtick_2">
     <g id="line2d_2">
      <g>
       <use style="stroke:#000000;stroke-width:0.8;" x="138.763636" xlink:href="#mcb55df4b39" y="307.584"/>
      </g>
     </g>
     <g id="text_2">
      <!-- 0.2 -->
      <g transform="translate(130.812074 322.182437)scale(0.1 -0.1)">
       <defs>
        <path d="M 19.1875 8.296875 
L 53.609375 8.296875 
L 53.609375 0 
L 7.328125 0 
L 7.328125 8.296875 
Q 12.9375 14.109375 22.625 23.890625 
Q 32.328125 33.6875 34.8125 36.53125 
Q 39.546875 41.84375 41.421875 45.53125 
Q 43.3125 49.21875 43.3125 52.78125 
Q 43.3125 58.59375 39.234375 62.25 
Q 35.15625 65.921875 28.609375 65.921875 
Q 23.96875 65.921875 18.8125 64.3125 
Q 13.671875 62.703125 7.8125 59.421875 
L 7.8125 69.390625 
Q 13.765625 71.78125 18.9375 73 
Q 24.125 74.21875 28.421875 74.21875 
Q 39.75 74.21875 46.484375 68.546875 
Q 53.21875 62.890625 53.21875 53.421875 
Q 53.21875 48.921875 51.53125 44.890625 
Q 49.859375 40.875 45.40625 35.40625 
Q 44.1875 33.984375 37.640625 27.21875 
Q 31.109375 20.453125 19.1875 8.296875 
z
" id="DejaVuSans-50"/>
       </defs>
       <use xlink:href="#DejaVuSans-48"/>
       <use x="63.623047" xlink:href="#DejaVuSans-46"/>
       <use x="95.410156" xlink:href="#DejaVuSans-50"/>
      </g>
     </g>
    </g>
    <g id="xtick_3">
     <g id="line2d_3">
      <g>
       <use style="stroke:#000000;stroke-width:0.8;" x="203.694545" xlink:href="#mcb55df4b39" y="307.584"/>
      </g>
     </g>
     <g id="text_3">
      <!-- 0.4 -->
      <g transform="translate(195.742983 322.182437)scale(0.1 -0.1)">
       <defs>
        <path d="M 37.796875 64.3125 
L 12.890625 25.390625 
L 37.796875 25.390625 
z
M 35.203125 72.90625 
L 47.609375 72.90625 
L 47.609375 25.390625 
L 58.015625 25.390625 
L 58.015625 17.1875 
L 47.609375 17.1875 
L 47.609375 0 
L 37.796875 0 
L 37.796875 17.1875 
L 4.890625 17.1875 
L 4.890625 26.703125 
z
" id="DejaVuSans-52"/>
       </defs>
       <use xlink:href="#DejaVuSans-48"/>
       <use x="63.623047" xlink:href="#DejaVuSans-46"/>
       <use x="95.410156" xlink:href="#DejaVuSans-52"/>
      </g>
     </g>
    </g>
    <g id="xtick_4">
     <g id="line2d_4">
      <g>
       <use style="stroke:#000000;stroke-width:0.8;" x="268.625455" xlink:href="#mcb55df4b39" y="307.584"/>
      </g>
     </g>
     <g id="text_4">
      <!-- 0.6 -->
      <g transform="translate(260.673892 322.182437)scale(0.1 -0.1)">
       <defs>
        <path d="M 33.015625 40.375 
Q 26.375 40.375 22.484375 35.828125 
Q 18.609375 31.296875 18.609375 23.390625 
Q 18.609375 15.53125 22.484375 10.953125 
Q 26.375 6.390625 33.015625 6.390625 
Q 39.65625 6.390625 43.53125 10.953125 
Q 47.40625 15.53125 47.40625 23.390625 
Q 47.40625 31.296875 43.53125 35.828125 
Q 39.65625 40.375 33.015625 40.375 
z
M 52.59375 71.296875 
L 52.59375 62.3125 
Q 48.875 64.0625 45.09375 64.984375 
Q 41.3125 65.921875 37.59375 65.921875 
Q 27.828125 65.921875 22.671875 59.328125 
Q 17.53125 52.734375 16.796875 39.40625 
Q 19.671875 43.65625 24.015625 45.921875 
Q 28.375 48.1875 33.59375 48.1875 
Q 44.578125 48.1875 50.953125 41.515625 
Q 57.328125 34.859375 57.328125 23.390625 
Q 57.328125 12.15625 50.6875 5.359375 
Q 44.046875 -1.421875 33.015625 -1.421875 
Q 20.359375 -1.421875 13.671875 8.265625 
Q 6.984375 17.96875 6.984375 36.375 
Q 6.984375 53.65625 15.1875 63.9375 
Q 23.390625 74.21875 37.203125 74.21875 
Q 40.921875 74.21875 44.703125 73.484375 
Q 48.484375 72.75 52.59375 71.296875 
z
" id="DejaVuSans-54"/>
       </defs>
       <use xlink:href="#DejaVuSans-48"/>
       <use x="63.623047" xlink:href="#DejaVuSans-46"/>
       <use x="95.410156" xlink:href="#DejaVuSans-54"/>
      </g>
     </g>
    </g>
    <g id="xtick_5">
     <g id="line2d_5">
      <g>
       <use style="stroke:#000000;stroke-width:0.8;" x="333.556364" xlink:href="#mcb55df4b39" y="307.584"/>
      </g>
     </g>
     <g id="text_5">
      <!-- 0.8 -->
      <g transform="translate(325.604801 322.182437)scale(0.1 -0.1)">
       <defs>
        <path d="M 31.78125 34.625 
Q 24.75 34.625 20.71875 30.859375 
Q 16.703125 27.09375 16.703125 20.515625 
Q 16.703125 13.921875 20.71875 10.15625 
Q 24.75 6.390625 31.78125 6.390625 
Q 38.8125 6.390625 42.859375 10.171875 
Q 46.921875 13.96875 46.921875 20.515625 
Q 46.921875 27.09375 42.890625 30.859375 
Q 38.875 34.625 31.78125 34.625 
z
M 21.921875 38.8125 
Q 15.578125 40.375 12.03125 44.71875 
Q 8.5 49.078125 8.5 55.328125 
Q 8.5 64.0625 14.71875 69.140625 
Q 20.953125 74.21875 31.78125 74.21875 
Q 42.671875 74.21875 48.875 69.140625 
Q 55.078125 64.0625 55.078125 55.328125 
Q 55.078125 49.078125 51.53125 44.71875 
Q 48 40.375 41.703125 38.8125 
Q 48.828125 37.15625 52.796875 32.3125 
Q 56.78125 27.484375 56.78125 20.515625 
Q 56.78125 9.90625 50.3125 4.234375 
Q 43.84375 -1.421875 31.78125 -1.421875 
Q 19.734375 -1.421875 13.25 4.234375 
Q 6.78125 9.90625 6.78125 20.515625 
Q 6.78125 27.484375 10.78125 32.3125 
Q 14.796875 37.15625 21.921875 38.8125 
z
M 18.3125 54.390625 
Q 18.3125 48.734375 21.84375 45.5625 
Q 25.390625 42.390625 31.78125 42.390625 
Q 38.140625 42.390625 41.71875 45.5625 
Q 45.3125 48.734375 45.3125 54.390625 
Q 45.3125 60.0625 41.71875 63.234375 
Q 38.140625 66.40625 31.78125 66.40625 
Q 25.390625 66.40625 21.84375 63.234375 
Q 18.3125 60.0625 18.3125 54.390625 
z
" id="DejaVuSans-56"/>
       </defs>
       <use xlink:href="#DejaVuSans-48"/>
       <use x="63.623047" xlink:href="#DejaVuSans-46"/>
       <use x="95.410156" xlink:href="#DejaVuSans-56"/>
      </g>
     </g>
    </g>
    <g id="xtick_6">
     <g id="line2d_6">
      <g>
       <use style="stroke:#000000;stroke-width:0.8;" x="398.487273" xlink:href="#mcb55df4b39" y="307.584"/>
      </g>
     </g>
     <g id="text_6">
      <!-- 1.0 -->
      <g transform="translate(390.53571 322.182437)scale(0.1 -0.1)">
       <defs>
        <path d="M 12.40625 8.296875 
L 28.515625 8.296875 
L 28.515625 63.921875 
L 10.984375 60.40625 
L 10.984375 69.390625 
L 28.421875 72.90625 
L 38.28125 72.90625 
L 38.28125 8.296875 
L 54.390625 8.296875 
L 54.390625 0 
L 12.40625 0 
z
" id="DejaVuSans-49"/>
       </defs>
       <use xlink:href="#DejaVuSans-49"/>
       <use x="63.623047" xlink:href="#DejaVuSans-46"/>
       <use x="95.410156" xlink:href="#DejaVuSans-48"/>
      </g>
     </g>
    </g>
   </g>
   <g id="matplotlib.axis_2">
    <g id="ytick_1">
     <g id="line2d_7">
      <defs>
       <path d="M 0 0 
L -3.5 0 
" id="m4a219f4c96" style="stroke:#000000;stroke-width:0.8;"/>
      </defs>
      <g>
       <use style="stroke:#000000;stroke-width:0.8;" x="57.6" xlink:href="#m4a219f4c96" y="290.162569"/>
      </g>
     </g>
     <g id="text_7">
      <!-- −3 -->
      <g transform="translate(35.857813 293.961788)scale(0.1 -0.1)">
       <defs>
        <path d="M 10.59375 35.5 
L 73.1875 35.5 
L 73.1875 27.203125 
L 10.59375 27.203125 
z
" id="DejaVuSans-8722"/>
        <path d="M 40.578125 39.3125 
Q 47.65625 37.796875 51.625 33 
Q 55.609375 28.21875 55.609375 21.1875 
Q 55.609375 10.40625 48.1875 4.484375 
Q 40.765625 -1.421875 27.09375 -1.421875 
Q 22.515625 -1.421875 17.65625 -0.515625 
Q 12.796875 0.390625 7.625 2.203125 
L 7.625 11.71875 
Q 11.71875 9.328125 16.59375 8.109375 
Q 21.484375 6.890625 26.8125 6.890625 
Q 36.078125 6.890625 40.9375 10.546875 
Q 45.796875 14.203125 45.796875 21.1875 
Q 45.796875 27.640625 41.28125 31.265625 
Q 36.765625 34.90625 28.71875 34.90625 
L 20.21875 34.90625 
L 20.21875 43.015625 
L 29.109375 43.015625 
Q 36.375 43.015625 40.234375 45.921875 
Q 44.09375 48.828125 44.09375 54.296875 
Q 44.09375 59.90625 40.109375 62.90625 
Q 36.140625 65.921875 28.71875 65.921875 
Q 24.65625 65.921875 20.015625 65.03125 
Q 15.375 64.15625 9.8125 62.3125 
L 9.8125 71.09375 
Q 15.4375 72.65625 20.34375 73.4375 
Q 25.25 74.21875 29.59375 74.21875 
Q 40.828125 74.21875 47.359375 69.109375 
Q 53.90625 64.015625 53.90625 55.328125 
Q 53.90625 49.265625 50.4375 45.09375 
Q 46.96875 40.921875 40.578125 39.3125 
z
" id="DejaVuSans-51"/>
       </defs>
       <use xlink:href="#DejaVuSans-8722"/>
       <use x="83.789062" xlink:href="#DejaVuSans-51"/>
      </g>
     </g>
    </g>
    <g id="ytick_2">
     <g id="line2d_8">
      <g>
       <use style="stroke:#000000;stroke-width:0.8;" x="57.6" xlink:href="#m4a219f4c96" y="251.633423"/>
      </g>
     </g>
     <g id="text_8">
      <!-- −2 -->
      <g transform="translate(35.857813 255.432642)scale(0.1 -0.1)">
       <use xlink:href="#DejaVuSans-8722"/>
       <use x="83.789062" xlink:href="#DejaVuSans-50"/>
      </g>
     </g>
    </g>
    <g id="ytick_3">
     <g id="line2d_9">
      <g>
       <use style="stroke:#000000;stroke-width:0.8;" x="57.6" xlink:href="#m4a219f4c96" y="213.104277"/>
      </g>
     </g>
     <g id="text_9">
      <!-- −1 -->
      <g transform="translate(35.857813 216.903496)scale(0.1 -0.1)">
       <use xlink:href="#DejaVuSans-8722"/>
       <use x="83.789062" xlink:href="#DejaVuSans-49"/>
      </g>
     </g>
    </g>
    <g id="ytick_4">
     <g id="line2d_10">
      <g>
       <use style="stroke:#000000;stroke-width:0.8;" x="57.6" xlink:href="#m4a219f4c96" y="174.575131"/>
      </g>
     </g>
     <g id="text_10">
      <!-- 0 -->
      <g transform="translate(44.2375 178.37435)scale(0.1 -0.1)">
       <use xlink:href="#DejaVuSans-48"/>
      </g>
     </g>
    </g>
    <g id="ytick_5">
     <g id="line2d_11">
      <g>
       <use style="stroke:#000000;stroke-width:0.8;" x="57.6" xlink:href="#m4a219f4c96" y="136.045985"/>
      </g>
     </g>
     <g id="text_11">
      <!-- 1 -->
      <g transform="translate(44.2375 139.845204)scale(0.1 -0.1)">
       <use xlink:href="#DejaVuSans-49"/>
      </g>
     </g>
    </g>
    <g id="ytick_6">
     <g id="line2d_12">
      <g>
       <use style="stroke:#000000;stroke-width:0.8;" x="57.6" xlink:href="#m4a219f4c96" y="97.516839"/>
      </g>
     </g>
     <g id="text_12">
      <!-- 2 -->
      <g transform="translate(44.2375 101.316058)scale(0.1 -0.1)">
       <use xlink:href="#DejaVuSans-50"/>
      </g>
     </g>
    </g>
    <g id="ytick_7">
     <g id="line2d_13">
      <g>
       <use style="stroke:#000000;stroke-width:0.8;" x="57.6" xlink:href="#m4a219f4c96" y="58.987693"/>
      </g>
     </g>
     <g id="text_13">
      <!-- 3 -->
      <g transform="translate(44.2375 62.786912)scale(0.1 -0.1)">
       <use xlink:href="#DejaVuSans-51"/>
      </g>
     </g>
    </g>
   </g>
   <g id="line2d_14">
    <path clip-path="url(#p203decf9ae)" d="M 73.832727 174.590087 
L 92.55608 174.688562 
L 94.322434 175.30404 
L 95.735517 175.988031 
L 96.795329 176.72648 
L 98.208412 178.073442 
L 99.974765 180.238588 
L 101.387846 182.32933 
L 102.800927 184.754144 
L 104.214007 187.526505 
L 105.627087 190.675224 
L 108.099971 196.918277 
L 111.985936 206.955453 
L 113.399015 209.987908 
L 114.812095 212.644426 
L 116.225175 214.944207 
L 117.638257 216.870338 
L 118.698068 218.045593 
L 121.170962 220.27541 
L 123.643857 222.220786 
L 126.116751 223.861144 
L 128.589646 225.238256 
L 131.062542 226.335751 
L 133.182166 227.058021 
L 135.301791 227.576126 
L 137.421416 227.890685 
L 139.54104 228.001986 
L 141.660665 227.91012 
L 143.78029 227.615283 
L 145.899915 227.116965 
L 148.019539 226.41546 
L 150.139164 225.510192 
L 152.258788 224.400612 
L 154.378411 223.085629 
L 156.851305 221.307985 
L 159.324199 219.593971 
L 161.443823 218.348078 
L 163.563447 217.313815 
L 165.683071 216.488557 
L 166.742883 216.18799 
L 167.449425 216.206048 
L 168.155966 216.495154 
L 168.862507 217.068144 
L 169.922318 218.497545 
L 170.628856 219.796324 
L 171.335392 221.391421 
L 172.395188 224.266791 
L 173.808243 229.037358 
L 175.221285 234.90934 
L 176.634301 242.523966 
L 178.047302 251.346553 
L 181.5798 277.356052 
L 182.992848 285.418499 
L 184.405909 292.013454 
L 185.112443 294.84038 
L 185.465714 54.022205 
L 186.525516 57.53104 
L 187.938593 61.116347 
L 189.351673 63.722056 
L 190.764754 65.904282 
L 192.177836 67.674823 
L 193.590918 69.029004 
L 195.004001 69.954435 
L 196.417084 70.449364 
L 197.830167 70.56517 
L 201.362875 70.448469 
L 204.895583 70.094758 
L 208.428291 69.504002 
L 211.960999 68.675995 
L 218.319873 67.034592 
L 221.49931 66.541423 
L 224.325477 66.304628 
L 227.151643 66.259073 
L 228.917997 66.395257 
L 229.624539 66.7273 
L 230.331079 67.399356 
L 231.390889 69.156339 
L 232.097427 70.732055 
L 233.157224 73.605874 
L 234.570281 78.493827 
L 235.983322 84.896018 
L 237.396336 93.316741 
L 238.809329 103.73434 
L 242.695159 136.091744 
L 243.754962 142.795331 
L 245.521314 152.172209 
L 246.934396 158.619097 
L 248.347477 164.364598 
L 249.760558 169.461646 
L 251.17364 173.951559 
L 252.586721 177.8662 
L 253.999804 181.221033 
L 255.059616 183.386841 
L 256.472699 185.740024 
L 257.885781 187.548793 
L 259.298865 188.770898 
L 260.358677 189.288256 
L 261.418489 189.570295 
L 262.478302 189.593238 
L 263.184843 189.439319 
L 263.891385 189.124526 
L 264.597927 188.645349 
L 265.304468 188.000209 
L 266.364281 186.751436 
L 267.777364 184.533501 
L 269.190446 181.694395 
L 270.603529 178.225167 
L 272.016611 174.090344 
L 273.782963 167.899804 
L 275.196045 162.082268 
L 276.255857 157.091013 
L 281.201617 132.286494 
L 283.321229 124.056241 
L 285.440843 116.851947 
L 287.560459 110.498844 
L 290.033346 103.97385 
L 292.152963 98.268085 
L 294.272578 91.991405 
L 296.392191 84.97434 
L 298.158534 78.450472 
L 299.924864 70.914625 
L 303.457518 54.613126 
L 303.810789 295.318003 
L 305.223859 290.596907 
L 306.636934 286.937077 
L 307.696742 284.896234 
L 308.403283 283.830473 
L 309.109824 283.015295 
L 309.816365 282.449402 
L 310.522907 282.132309 
L 310.876178 282.036558 
L 311.582719 282.092116 
L 312.289261 282.394754 
L 313.349072 283.344541 
L 314.055613 284.264635 
L 315.468693 286.501069 
L 317.941586 290.308972 
L 320.061208 293.169639 
L 321.82756 295.324438 
L 322.180831 53.647344 
L 324.653725 56.251828 
L 326.420078 57.858033 
L 328.539702 59.503889 
L 330.659327 60.844374 
L 332.778951 61.88015 
L 334.898576 62.587575 
L 337.018201 62.993057 
L 341.610721 63.333959 
L 344.436888 63.593109 
L 345.4967 63.871765 
L 346.556512 64.443886 
L 347.616325 65.275477 
L 349.029408 66.804999 
L 350.442491 68.771692 
L 351.855574 71.174502 
L 353.268657 74.025409 
L 355.035011 78.273062 
L 356.801365 83.221499 
L 362.453696 101.060499 
L 369.165834 122.419791 
L 371.638725 130.866702 
L 377.997579 153.482223 
L 380.117198 159.312923 
L 381.883549 163.382417 
L 383.296631 166.13945 
L 384.709713 168.497434 
L 386.122795 170.455017 
L 387.182607 171.692346 
L 388.59569 172.984052 
L 390.008773 173.882768 
L 391.421857 174.394628 
L 392.83494 174.589009 
L 397.780731 174.594087 
L 398.487273 174.592172 
L 398.487273 174.592172 
" style="fill:none;stroke:#1f77b4;stroke-linecap:square;stroke-width:1.5;"/>
   </g>
   <g id="line2d_15">
    <path clip-path="url(#p203decf9ae)" d="M 73.832727 175.044634 
L 77.087968 173.976304 
L 77.910722 174.006304 
L 77.910722 174.006304 
L 79.28767 174.384436 
L 80.670389 174.780507 
L 81.77987 174.709319 
L 83.448415 174.239404 
L 83.448415 174.239404 
L 84.841979 173.783166 
L 85.679195 173.766416 
L 85.679195 173.766416 
L 86.796518 173.994626 
L 86.796518 173.994626 
L 88.754106 174.709953 
L 89.873747 175.100819 
L 90.713863 175.132695 
L 91.834287 174.913265 
L 93.495053 174.462999 
L 93.495053 174.462999 
L 94.303664 174.537859 
L 94.832707 174.828797 
L 95.612544 175.589632 
L 95.612544 175.589632 
L 96.374209 176.651262 
L 99.495699 181.710081 
L 99.495699 181.710081 
L 102.181563 185.493102 
L 102.181563 185.493102 
L 103.045373 187.201468 
L 103.045373 187.201468 
L 104.530253 190.928413 
L 107.023304 197.180339 
L 108.668741 201.199629 
L 112.780204 212.466415 
L 113.816013 214.516207 
L 113.816013 214.516207 
L 114.650248 215.654302 
L 114.650248 215.654302 
L 117.197123 218.489598 
L 117.197123 218.489598 
L 118.947857 220.929476 
L 118.947857 220.929476 
L 119.844389 221.753194 
L 119.844389 221.753194 
L 120.527433 222.124637 
L 121.45339 222.290107 
L 122.1596 222.376785 
L 122.876349 222.651489 
L 124.095693 223.385612 
L 127.411471 225.760593 
L 130.341983 227.874062 
L 131.425561 228.251055 
L 133.612377 228.748978 
L 136.926302 229.439887 
L 138.036996 229.235127 
L 139.706969 228.612573 
L 139.706969 228.612573 
L 140.543388 228.320044 
L 141.38059 228.268752 
L 143.616196 228.431317 
L 144.735311 228.147205 
L 145.575095 227.599251 
L 146.695307 226.548026 
L 147.815996 225.571625 
L 148.937078 224.881223 
L 150.338879 224.246022 
L 153.70466 222.961128 
L 154.826912 222.056402 
L 155.668678 221.087363 
L 159.584073 216.124668 
L 161.20836 213.978954 
L 162.254786 212.960376 
L 162.765606 212.696577 
L 163.267831 212.712228 
L 163.761508 212.963075 
L 165.183529 214.237021 
L 165.860171 214.795445 
L 165.860171 214.795445 
L 166.297454 214.979556 
L 166.723741 214.975758 
L 166.723741 214.975758 
L 167.139614 214.708709 
L 168.325335 213.503397 
L 168.325335 213.503397 
L 168.7006 213.467088 
L 169.066625 213.735849 
L 169.066625 213.735849 
L 169.424269 214.502352 
L 169.946462 216.469582 
L 172.045344 227.246729 
L 172.349276 227.942524 
L 172.349276 227.942524 
L 172.796097 228.337328 
L 173.232971 228.554086 
L 173.518504 228.95849 
L 173.518504 228.95849 
L 173.939288 229.976235 
L 174.351067 231.748547 
L 175.020727 235.834711 
L 176.183252 242.631855 
L 176.183252 242.631855 
L 177.544018 249.401243 
L 178.995978 259.258762 
L 179.599721 263.748785 
L 179.599721 263.748785 
L 181.422148 278.470722 
L 182.038725 281.143044 
L 182.038725 281.143044 
L 182.916256 284.680328 
L 184.20816 291.665632 
L 184.875334 295.207834 
L 185.010709 53.777928 
L 185.697905 56.440603 
L 185.697905 56.440603 
L 186.403824 58.119468 
L 188.033796 61.632621 
L 188.033796 61.632621 
L 188.815178 63.387953 
L 190.124 65.682928 
L 191.511932 67.762455 
L 192.608817 68.789358 
L 195.790909 71.207404 
L 196.434318 71.536605 
L 197.543953 71.754561 
L 198.233129 71.761887 
L 199.180654 71.507177 
L 202.187809 70.525601 
L 202.968094 70.564294 
L 204.021364 70.696643 
L 205.355026 70.525983 
L 206.433016 70.22999 
L 207.246809 69.744476 
L 209.434404 68.219871 
L 210.259974 67.8854 
L 210.259974 67.8854 
L 211.087804 67.850379 
L 213.026542 68.048626 
L 213.859907 67.921719 
L 214.69447 67.488169 
L 214.69447 67.488169 
L 215.808808 66.551123 
L 215.808808 66.551123 
L 216.924663 65.65418 
L 216.924663 65.65418 
L 217.762387 65.226864 
L 218.600718 65.143266 
L 219.719294 65.375627 
L 221.942165 66.134207 
L 222.749924 66.075753 
L 223.535395 65.853905 
L 223.535395 65.853905 
L 224.544091 65.344516 
L 224.544091 65.344516 
L 225.506102 64.815005 
L 225.506102 64.815005 
L 226.196281 64.670603 
L 226.641122 64.803861 
L 227.284801 65.315875 
L 227.284801 65.315875 
L 227.899787 66.105776 
L 229.051295 67.765578 
L 229.59119 68.157239 
L 229.59119 68.157239 
L 230.939902 68.826094 
L 230.939902 68.826094 
L 231.260456 69.267999 
L 231.729674 70.470908 
L 232.334193 72.812719 
L 234.156551 81.526681 
L 235.311299 84.834765 
L 235.802257 87.160284 
L 236.635651 92.405341 
L 238.341235 104.206978 
L 241.009494 126.950614 
L 242.028815 133.594709 
L 243.671576 145.335555 
L 243.671576 145.335555 
L 244.527063 149.602471 
L 248.099518 165.922189 
L 249.24935 170.064563 
L 251.060466 176.080839 
L 253.821206 183.448081 
L 254.681666 185.131893 
L 254.681666 185.131893 
L 255.928643 187.098768 
L 256.852122 188.041298 
L 256.852122 188.041298 
L 259.195423 189.868187 
L 259.195423 189.868187 
L 261.089808 191.128571 
L 261.958491 191.390581 
L 262.61252 191.331127 
L 262.61252 191.331127 
L 263.046657 191.140381 
L 263.689348 190.575162 
L 264.319497 189.75362 
L 264.319497 189.75362 
L 264.935112 188.500568 
L 265.734283 186.359253 
L 267.443967 181.427099 
L 267.443967 181.427099 
L 268.167608 179.997311 
L 268.167608 179.997311 
L 269.38721 177.816297 
L 270.226882 175.505853 
L 270.226882 175.505853 
L 271.205249 171.894585 
L 273.074637 164.874106 
L 274.857413 159.142388 
L 275.584686 155.484792 
L 278.763264 138.83736 
L 280.073313 133.118403 
L 282.002381 124.993428 
L 284.785429 115.796562 
L 286.402751 110.248117 
L 287.233048 107.749233 
L 287.233048 107.749233 
L 288.249413 105.672561 
L 288.939378 104.300822 
L 289.636815 102.347025 
L 290.690232 98.597922 
L 290.690232 98.597922 
L 292.265368 92.950743 
L 292.954835 91.113196 
L 294.307191 88.063321 
L 295.131561 85.25325 
L 295.940443 81.535124 
L 296.735802 78.073571 
L 296.735802 78.073571 
L 297.673217 75.13395 
L 298.595328 72.326199 
L 298.595328 72.326199 
L 299.356191 69.362263 
L 302.537993 53.795974 
L 302.690477 295.14266 
L 303.610828 291.335319 
L 304.075412 290.046513 
L 304.075412 290.046513 
L 306.80089 284.363174 
L 307.644262 282.568203 
L 308.337447 281.585173 
L 308.869686 281.120822 
L 309.413678 280.911608 
L 309.413678 280.911608 
L 310.929673 280.735425 
L 310.929673 280.735425 
L 311.525357 280.78136 
L 312.343287 281.088932 
L 312.973752 281.614504 
L 313.617503 282.491553 
L 314.27335 283.768983 
L 314.27335 283.768983 
L 315.390335 286.619976 
L 317.465376 291.653615 
L 319.370302 295.488 
L 319.612144 53.818869 
L 320.833673 55.598328 
L 320.833673 55.598328 
L 323.084317 58.29218 
L 324.106652 59.156128 
L 326.724708 61.01547 
L 329.415145 63.850214 
L 330.232018 64.282332 
L 330.232018 64.282332 
L 331.326452 64.606114 
L 331.326452 64.606114 
L 332.150639 64.633455 
L 333.806021 64.713243 
L 334.636595 64.773129 
L 334.636595 64.773129 
L 335.468749 64.637473 
L 338.251447 63.932602 
L 339.367425 64.10625 
L 340.205226 64.277243 
L 340.205226 64.277243 
L 341.043429 64.253642 
L 342.149469 63.995207 
L 343.487975 63.392871 
L 343.487975 63.392871 
L 344.764907 62.700808 
L 345.258736 62.67121 
L 345.743879 62.857841 
L 346.220733 63.224119 
L 346.689421 63.872765 
L 347.377792 65.261402 
L 347.377792 65.261402 
L 348.271503 67.62332 
L 348.271503 67.62332 
L 349.354907 70.541069 
L 350.197639 72.207734 
L 351.225089 73.491777 
L 352.426189 74.94711 
L 352.426189 74.94711 
L 353.015696 76.222046 
L 353.598704 78.017671 
L 354.749848 82.632572 
L 354.749848 82.632572 
L 355.698101 85.980334 
L 356.451879 87.92064 
L 358.140568 91.359613 
L 358.702604 93.116484 
L 359.637905 97.064711 
L 361.31566 104.026482 
L 362.058527 105.984562 
L 364.088209 110.102032 
L 364.637427 112.030485 
L 366.994 121.392745 
L 368.245971 124.663912 
L 370.013516 129.068904 
L 371.239156 133.399348 
L 374.02192 144.068675 
L 375.933763 150.568342 
L 377.681798 157.164371 
L 378.387002 159.109524 
L 379.454528 161.312078 
L 381.268528 164.88136 
L 382.383431 167.281849 
L 383.522347 169.21465 
L 384.297015 170.087045 
L 385.485022 171.328867 
L 385.485022 171.328867 
L 387.970178 174.414641 
L 389.276925 175.3601 
L 390.175476 175.63997 
L 391.807496 175.734998 
L 394.537977 175.789694 
L 395.832524 175.429433 
L 398.487273 174.519424 
L 398.487273 174.519424 
" style="fill:none;stroke:#ff7f0e;stroke-linecap:square;stroke-width:1.5;"/>
   </g>
   <g id="line2d_16">
    <path clip-path="url(#p203decf9ae)" d="M 73.832727 175.822311 
L 75.163994 176.088895 
L 75.96994 176.002745 
L 77.322881 175.592772 
L 79.233024 174.990071 
L 80.331001 175.08364 
L 83.090631 175.639983 
L 84.198872 175.427188 
L 87.255157 174.572869 
L 88.090327 174.673693 
L 89.762179 175.194676 
L 93.940444 176.974698 
L 95.027046 177.654925 
L 96.082616 178.540803 
L 98.342371 180.614651 
L 99.301423 181.016832 
L 100.924551 181.44916 
L 101.60122 181.90985 
L 102.26775 182.694194 
L 102.26775 182.694194 
L 102.924946 183.839148 
L 103.789101 185.880789 
L 104.851819 189.297876 
L 104.851819 189.297876 
L 108.990335 203.541572 
L 108.990335 203.541572 
L 110.422486 207.707444 
L 111.649769 210.439759 
L 112.673698 212.711838 
L 113.906382 215.402265 
L 113.906382 215.402265 
L 114.732442 216.831964 
L 114.732442 216.831964 
L 115.772041 218.044806 
L 117.245762 219.369832 
L 117.245762 219.369832 
L 119.18344 220.837466 
L 120.06486 221.093754 
L 121.873431 221.449937 
L 122.803445 222.012064 
L 126.462557 224.577631 
L 126.462557 224.577631 
L 127.486095 224.800583 
L 127.486095 224.800583 
L 131.991542 225.604073 
L 134.713842 226.385604 
L 139.401592 227.901412 
L 139.401592 227.901412 
L 144.684266 229.617994 
L 145.520522 229.588701 
L 146.636113 229.299204 
L 148.868865 228.377603 
L 152.500109 226.822957 
L 154.456377 226.001253 
L 155.294919 225.375181 
L 156.692639 223.995855 
L 159.208066 221.138681 
L 160.316912 219.612377 
L 161.405662 217.632953 
L 162.728545 214.509234 
L 162.728545 214.509234 
L 165.688316 207.433393 
L 165.688316 207.433393 
L 166.374023 206.239731 
L 167.035954 205.451642 
L 167.464237 205.215891 
L 167.464237 205.215891 
L 167.881278 205.230209 
L 168.287535 205.473683 
L 168.287535 205.473683 
L 168.683442 205.94899 
L 169.068823 206.766531 
L 169.068823 206.766531 
L 169.629346 208.559139 
L 170.347694 212.099665 
L 171.371206 218.823554 
L 173.703239 235.227409 
L 173.703239 235.227409 
L 174.565496 239.306497 
L 177.460354 251.161708 
L 177.460354 251.161708 
L 178.442601 256.973669 
L 178.442601 256.973669 
L 181.09336 274.971503 
L 182.42684 283.747641 
L 183.41293 289.053094 
L 184.550075 294.248925 
L 184.807941 295.27679 
L 184.807941 295.27679 
L 184.937642 53.70456 
L 185.72788 56.352261 
L 186.956905 59.759601 
L 186.956905 59.759601 
L 188.395907 62.639006 
L 190.088151 65.595499 
L 191.067517 66.671385 
L 194.086029 69.411398 
L 194.086029 69.411398 
L 194.853555 69.783018 
L 194.853555 69.783018 
L 196.255629 70.073653 
L 202.233824 71.053227 
L 203.255053 70.853197 
L 206.410639 69.787484 
L 210.474944 68.474999 
L 210.474944 68.474999 
L 213.501009 67.657014 
L 216.2704 67.746227 
L 217.937421 67.303911 
L 220.72167 66.416616 
L 221.557722 66.45168 
L 222.936281 66.805109 
L 224.265206 67.361715 
L 225.528533 68.175488 
L 226.485396 69.064236 
L 227.392263 70.222068 
L 228.039633 71.576175 
L 228.659723 73.318582 
L 230.184883 78.169189 
L 230.540313 78.410672 
L 230.71474 78.350479 
L 230.71474 78.350479 
L 231.05744 77.776372 
L 231.557111 76.207902 
L 233.407765 68.725885 
L 233.696957 68.582199 
L 233.980512 69.026245 
L 234.258997 70.087062 
L 234.801304 73.675389 
L 235.45425 79.787584 
L 235.45425 79.787584 
L 238.204898 107.33326 
L 241.311291 131.635177 
L 242.76832 140.863919 
L 242.76832 140.863919 
L 244.15746 148.728381 
L 244.15746 148.728381 
L 246.623205 160.539651 
L 246.623205 160.539651 
L 248.626199 168.220517 
L 249.898302 172.588055 
L 249.898302 172.588055 
L 251.682411 177.598493 
L 251.682411 177.598493 
L 254.066131 183.783161 
L 255.072884 185.707436 
L 256.289471 187.701099 
L 256.289471 187.701099 
L 257.188829 188.682677 
L 258.30468 189.591191 
L 259.073413 189.861931 
L 260.064889 189.974959 
L 260.064889 189.974959 
L 260.884628 189.748803 
L 260.884628 189.748803 
L 262.589831 189.043333 
L 262.589831 189.043333 
L 263.458772 188.359329 
L 263.458772 188.359329 
L 267.168508 185.29547 
L 267.924955 184.174492 
L 268.477494 182.994796 
L 269.37328 180.469521 
L 270.240291 177.223505 
L 271.896663 169.972046 
L 281.189324 127.362927 
L 281.189324 127.362927 
L 282.070995 124.338617 
L 284.950247 115.084805 
L 286.372185 110.390226 
L 288.504927 104.574126 
L 291.611553 96.131045 
L 293.010595 91.726723 
L 294.71931 85.516509 
L 299.353474 67.73921 
L 299.353474 67.73921 
L 302.678183 53.568 
L 302.829154 295.040373 
L 303.737758 291.707429 
L 305.270681 287.134201 
L 306.209739 285.092098 
L 307.494818 282.791782 
L 308.323024 281.859363 
L 309.003076 281.49487 
L 309.700132 281.372343 
L 310.416414 281.576904 
L 311.343823 282.033351 
L 313.322192 283.379457 
L 315.019985 284.029677 
L 315.678933 284.568026 
L 315.678933 284.568026 
L 316.573557 285.701682 
L 316.573557 285.701682 
L 317.484795 287.191893 
L 317.484795 287.191893 
L 319.115084 290.604656 
L 321.271655 295.191538 
L 321.271655 295.191538 
L 321.515331 53.605752 
L 322.746079 55.899751 
L 325.526619 59.981745 
L 327.087836 61.791752 
L 328.145372 62.66238 
L 330.832515 64.413421 
L 331.920309 64.805764 
L 333.83654 65.198013 
L 333.83654 65.198013 
L 336.317397 65.717265 
L 340.200359 66.848721 
L 342.977202 67.851005 
L 344.057735 68.549099 
L 345.102135 69.524328 
L 347.075619 71.711526 
L 347.547077 71.9827 
L 348.010811 72.047692 
L 348.467156 71.952191 
L 349.138873 71.571038 
L 350.012214 70.713774 
L 351.072894 69.543047 
L 351.694029 69.09277 
L 352.102553 69.117028 
L 352.102553 69.117028 
L 352.507154 69.421731 
L 352.907815 69.999894 
L 352.907815 69.999894 
L 353.502166 71.41226 
L 354.089063 73.296494 
L 355.053729 77.370479 
L 356.383622 84.346205 
L 358.259424 94.121794 
L 358.259424 94.121794 
L 359.193329 97.981537 
L 360.685196 102.794366 
L 362.171702 107.021806 
L 364.753642 113.834888 
L 367.8377 122.916748 
L 367.8377 122.916748 
L 368.732357 125.313668 
L 370.32691 130.442603 
L 371.379338 134.43688 
L 371.379338 134.43688 
L 372.773071 139.747059 
L 372.773071 139.747059 
L 378.66929 159.535146 
L 379.899994 162.782249 
L 381.146575 165.277015 
L 381.146575 165.277015 
L 382.414968 167.441602 
L 383.524614 168.670851 
L 387.419311 172.234151 
L 389.513079 173.928456 
L 390.384717 174.237373 
L 391.734212 174.422503 
L 395.366098 174.902541 
L 395.366098 174.902541 
L 397.694788 175.4478 
L 398.487273 175.663692 
L 398.487273 175.663692 
" style="fill:none;stroke:#2ca02c;stroke-linecap:square;stroke-width:1.5;"/>
   </g>
   <g id="patch_3">
    <path d="M 57.6 307.584 
L 57.6 41.472 
" style="fill:none;stroke:#000000;stroke-linecap:square;stroke-linejoin:miter;stroke-width:0.8;"/>
   </g>
   <g id="patch_4">
    <path d="M 414.72 307.584 
L 414.72 41.472 
" style="fill:none;stroke:#000000;stroke-linecap:square;stroke-linejoin:miter;stroke-width:0.8;"/>
   </g>
   <g id="patch_5">
    <path d="M 57.6 307.584 
L 414.72 307.584 
" style="fill:none;stroke:#000000;stroke-linecap:square;stroke-linejoin:miter;stroke-width:0.8;"/>
   </g>
   <g id="patch_6">
    <path d="M 57.6 41.472 
L 414.72 41.472 
" style="fill:none;stroke:#000000;stroke-linecap:square;stroke-linejoin:miter;stroke-width:0.8;"/>
   </g>
   <g id="text_14">
    <!-- aut heading -->
    <g transform="translate(200.162813 35.472)scale(0.12 -0.12)">
     <defs>
      <path d="M 34.28125 27.484375 
Q 23.390625 27.484375 19.1875 25 
Q 14.984375 22.515625 14.984375 16.5 
Q 14.984375 11.71875 18.140625 8.90625 
Q 21.296875 6.109375 26.703125 6.109375 
Q 34.1875 6.109375 38.703125 11.40625 
Q 43.21875 16.703125 43.21875 25.484375 
L 43.21875 27.484375 
z
M 52.203125 31.203125 
L 52.203125 0 
L 43.21875 0 
L 43.21875 8.296875 
Q 40.140625 3.328125 35.546875 0.953125 
Q 30.953125 -1.421875 24.3125 -1.421875 
Q 15.921875 -1.421875 10.953125 3.296875 
Q 6 8.015625 6 15.921875 
Q 6 25.140625 12.171875 29.828125 
Q 18.359375 34.515625 30.609375 34.515625 
L 43.21875 34.515625 
L 43.21875 35.40625 
Q 43.21875 41.609375 39.140625 45 
Q 35.0625 48.390625 27.6875 48.390625 
Q 23 48.390625 18.546875 47.265625 
Q 14.109375 46.140625 10.015625 43.890625 
L 10.015625 52.203125 
Q 14.9375 54.109375 19.578125 55.046875 
Q 24.21875 56 28.609375 56 
Q 40.484375 56 46.34375 49.84375 
Q 52.203125 43.703125 52.203125 31.203125 
z
" id="DejaVuSans-97"/>
      <path d="M 8.5 21.578125 
L 8.5 54.6875 
L 17.484375 54.6875 
L 17.484375 21.921875 
Q 17.484375 14.15625 20.5 10.265625 
Q 23.53125 6.390625 29.59375 6.390625 
Q 36.859375 6.390625 41.078125 11.03125 
Q 45.3125 15.671875 45.3125 23.6875 
L 45.3125 54.6875 
L 54.296875 54.6875 
L 54.296875 0 
L 45.3125 0 
L 45.3125 8.40625 
Q 42.046875 3.421875 37.71875 1 
Q 33.40625 -1.421875 27.6875 -1.421875 
Q 18.265625 -1.421875 13.375 4.4375 
Q 8.5 10.296875 8.5 21.578125 
z
M 31.109375 56 
z
" id="DejaVuSans-117"/>
      <path d="M 18.3125 70.21875 
L 18.3125 54.6875 
L 36.8125 54.6875 
L 36.8125 47.703125 
L 18.3125 47.703125 
L 18.3125 18.015625 
Q 18.3125 11.328125 20.140625 9.421875 
Q 21.96875 7.515625 27.59375 7.515625 
L 36.8125 7.515625 
L 36.8125 0 
L 27.59375 0 
Q 17.1875 0 13.234375 3.875 
Q 9.28125 7.765625 9.28125 18.015625 
L 9.28125 47.703125 
L 2.6875 47.703125 
L 2.6875 54.6875 
L 9.28125 54.6875 
L 9.28125 70.21875 
z
" id="DejaVuSans-116"/>
      <path id="DejaVuSans-32"/>
      <path d="M 54.890625 33.015625 
L 54.890625 0 
L 45.90625 0 
L 45.90625 32.71875 
Q 45.90625 40.484375 42.875 44.328125 
Q 39.84375 48.1875 33.796875 48.1875 
Q 26.515625 48.1875 22.3125 43.546875 
Q 18.109375 38.921875 18.109375 30.90625 
L 18.109375 0 
L 9.078125 0 
L 9.078125 75.984375 
L 18.109375 75.984375 
L 18.109375 46.1875 
Q 21.34375 51.125 25.703125 53.5625 
Q 30.078125 56 35.796875 56 
Q 45.21875 56 50.046875 50.171875 
Q 54.890625 44.34375 54.890625 33.015625 
z
" id="DejaVuSans-104"/>
      <path d="M 56.203125 29.59375 
L 56.203125 25.203125 
L 14.890625 25.203125 
Q 15.484375 15.921875 20.484375 11.0625 
Q 25.484375 6.203125 34.421875 6.203125 
Q 39.59375 6.203125 44.453125 7.46875 
Q 49.3125 8.734375 54.109375 11.28125 
L 54.109375 2.78125 
Q 49.265625 0.734375 44.1875 -0.34375 
Q 39.109375 -1.421875 33.890625 -1.421875 
Q 20.796875 -1.421875 13.15625 6.1875 
Q 5.515625 13.8125 5.515625 26.8125 
Q 5.515625 40.234375 12.765625 48.109375 
Q 20.015625 56 32.328125 56 
Q 43.359375 56 49.78125 48.890625 
Q 56.203125 41.796875 56.203125 29.59375 
z
M 47.21875 32.234375 
Q 47.125 39.59375 43.09375 43.984375 
Q 39.0625 48.390625 32.421875 48.390625 
Q 24.90625 48.390625 20.390625 44.140625 
Q 15.875 39.890625 15.1875 32.171875 
z
" id="DejaVuSans-101"/>
      <path d="M 45.40625 46.390625 
L 45.40625 75.984375 
L 54.390625 75.984375 
L 54.390625 0 
L 45.40625 0 
L 45.40625 8.203125 
Q 42.578125 3.328125 38.25 0.953125 
Q 33.9375 -1.421875 27.875 -1.421875 
Q 17.96875 -1.421875 11.734375 6.484375 
Q 5.515625 14.40625 5.515625 27.296875 
Q 5.515625 40.1875 11.734375 48.09375 
Q 17.96875 56 27.875 56 
Q 33.9375 56 38.25 53.625 
Q 42.578125 51.265625 45.40625 46.390625 
z
M 14.796875 27.296875 
Q 14.796875 17.390625 18.875 11.75 
Q 22.953125 6.109375 30.078125 6.109375 
Q 37.203125 6.109375 41.296875 11.75 
Q 45.40625 17.390625 45.40625 27.296875 
Q 45.40625 37.203125 41.296875 42.84375 
Q 37.203125 48.484375 30.078125 48.484375 
Q 22.953125 48.484375 18.875 42.84375 
Q 14.796875 37.203125 14.796875 27.296875 
z
" id="DejaVuSans-100"/>
      <path d="M 9.421875 54.6875 
L 18.40625 54.6875 
L 18.40625 0 
L 9.421875 0 
z
M 9.421875 75.984375 
L 18.40625 75.984375 
L 18.40625 64.59375 
L 9.421875 64.59375 
z
" id="DejaVuSans-105"/>
      <path d="M 54.890625 33.015625 
L 54.890625 0 
L 45.90625 0 
L 45.90625 32.71875 
Q 45.90625 40.484375 42.875 44.328125 
Q 39.84375 48.1875 33.796875 48.1875 
Q 26.515625 48.1875 22.3125 43.546875 
Q 18.109375 38.921875 18.109375 30.90625 
L 18.109375 0 
L 9.078125 0 
L 9.078125 54.6875 
L 18.109375 54.6875 
L 18.109375 46.1875 
Q 21.34375 51.125 25.703125 53.5625 
Q 30.078125 56 35.796875 56 
Q 45.21875 56 50.046875 50.171875 
Q 54.890625 44.34375 54.890625 33.015625 
z
" id="DejaVuSans-110"/>
      <path d="M 45.40625 27.984375 
Q 45.40625 37.75 41.375 43.109375 
Q 37.359375 48.484375 30.078125 48.484375 
Q 22.859375 48.484375 18.828125 43.109375 
Q 14.796875 37.75 14.796875 27.984375 
Q 14.796875 18.265625 18.828125 12.890625 
Q 22.859375 7.515625 30.078125 7.515625 
Q 37.359375 7.515625 41.375 12.890625 
Q 45.40625 18.265625 45.40625 27.984375 
z
M 54.390625 6.78125 
Q 54.390625 -7.171875 48.1875 -13.984375 
Q 42 -20.796875 29.203125 -20.796875 
Q 24.46875 -20.796875 20.265625 -20.09375 
Q 16.0625 -19.390625 12.109375 -17.921875 
L 12.109375 -9.1875 
Q 16.0625 -11.328125 19.921875 -12.34375 
Q 23.78125 -13.375 27.78125 -13.375 
Q 36.625 -13.375 41.015625 -8.765625 
Q 45.40625 -4.15625 45.40625 5.171875 
L 45.40625 9.625 
Q 42.625 4.78125 38.28125 2.390625 
Q 33.9375 0 27.875 0 
Q 17.828125 0 11.671875 7.65625 
Q 5.515625 15.328125 5.515625 27.984375 
Q 5.515625 40.671875 11.671875 48.328125 
Q 17.828125 56 27.875 56 
Q 33.9375 56 38.28125 53.609375 
Q 42.625 51.21875 45.40625 46.390625 
L 45.40625 54.6875 
L 54.390625 54.6875 
z
" id="DejaVuSans-103"/>
     </defs>
     <use xlink:href="#DejaVuSans-97"/>
     <use x="61.279297" xlink:href="#DejaVuSans-117"/>
     <use x="124.658203" xlink:href="#DejaVuSans-116"/>
     <use x="163.867188" xlink:href="#DejaVuSans-32"/>
     <use x="195.654297" xlink:href="#DejaVuSans-104"/>
     <use x="259.033203" xlink:href="#DejaVuSans-101"/>
     <use x="320.556641" xlink:href="#DejaVuSans-97"/>
     <use x="381.835938" xlink:href="#DejaVuSans-100"/>
     <use x="445.3125" xlink:href="#DejaVuSans-105"/>
     <use x="473.095703" xlink:href="#DejaVuSans-110"/>
     <use x="536.474609" xlink:href="#DejaVuSans-103"/>
    </g>
   </g>
   <g id="legend_1">
    <g id="patch_7">
     <path d="M 64.6 93.506375 
L 156.557813 93.506375 
Q 158.557813 93.506375 158.557813 91.506375 
L 158.557813 48.472 
Q 158.557813 46.472 156.557813 46.472 
L 64.6 46.472 
Q 62.6 46.472 62.6 48.472 
L 62.6 91.506375 
Q 62.6 93.506375 64.6 93.506375 
z
" style="fill:#ffffff;opacity:0.8;stroke:#cccccc;stroke-linejoin:miter;"/>
    </g>
    <g id="line2d_17">
     <path d="M 66.6 54.570438 
L 86.6 54.570438 
" style="fill:none;stroke:#1f77b4;stroke-linecap:square;stroke-width:1.5;"/>
    </g>
    <g id="line2d_18"/>
    <g id="text_15">
     <!-- Waypoints -->
     <g transform="translate(94.6 58.070438)scale(0.1 -0.1)">
      <defs>
       <path d="M 3.328125 72.90625 
L 13.28125 72.90625 
L 28.609375 11.28125 
L 43.890625 72.90625 
L 54.984375 72.90625 
L 70.3125 11.28125 
L 85.59375 72.90625 
L 95.609375 72.90625 
L 77.296875 0 
L 64.890625 0 
L 49.515625 63.28125 
L 33.984375 0 
L 21.578125 0 
z
" id="DejaVuSans-87"/>
       <path d="M 32.171875 -5.078125 
Q 28.375 -14.84375 24.75 -17.8125 
Q 21.140625 -20.796875 15.09375 -20.796875 
L 7.90625 -20.796875 
L 7.90625 -13.28125 
L 13.1875 -13.28125 
Q 16.890625 -13.28125 18.9375 -11.515625 
Q 21 -9.765625 23.484375 -3.21875 
L 25.09375 0.875 
L 2.984375 54.6875 
L 12.5 54.6875 
L 29.59375 11.921875 
L 46.6875 54.6875 
L 56.203125 54.6875 
z
" id="DejaVuSans-121"/>
       <path d="M 18.109375 8.203125 
L 18.109375 -20.796875 
L 9.078125 -20.796875 
L 9.078125 54.6875 
L 18.109375 54.6875 
L 18.109375 46.390625 
Q 20.953125 51.265625 25.265625 53.625 
Q 29.59375 56 35.59375 56 
Q 45.5625 56 51.78125 48.09375 
Q 58.015625 40.1875 58.015625 27.296875 
Q 58.015625 14.40625 51.78125 6.484375 
Q 45.5625 -1.421875 35.59375 -1.421875 
Q 29.59375 -1.421875 25.265625 0.953125 
Q 20.953125 3.328125 18.109375 8.203125 
z
M 48.6875 27.296875 
Q 48.6875 37.203125 44.609375 42.84375 
Q 40.53125 48.484375 33.40625 48.484375 
Q 26.265625 48.484375 22.1875 42.84375 
Q 18.109375 37.203125 18.109375 27.296875 
Q 18.109375 17.390625 22.1875 11.75 
Q 26.265625 6.109375 33.40625 6.109375 
Q 40.53125 6.109375 44.609375 11.75 
Q 48.6875 17.390625 48.6875 27.296875 
z
" id="DejaVuSans-112"/>
       <path d="M 30.609375 48.390625 
Q 23.390625 48.390625 19.1875 42.75 
Q 14.984375 37.109375 14.984375 27.296875 
Q 14.984375 17.484375 19.15625 11.84375 
Q 23.34375 6.203125 30.609375 6.203125 
Q 37.796875 6.203125 41.984375 11.859375 
Q 46.1875 17.53125 46.1875 27.296875 
Q 46.1875 37.015625 41.984375 42.703125 
Q 37.796875 48.390625 30.609375 48.390625 
z
M 30.609375 56 
Q 42.328125 56 49.015625 48.375 
Q 55.71875 40.765625 55.71875 27.296875 
Q 55.71875 13.875 49.015625 6.21875 
Q 42.328125 -1.421875 30.609375 -1.421875 
Q 18.84375 -1.421875 12.171875 6.21875 
Q 5.515625 13.875 5.515625 27.296875 
Q 5.515625 40.765625 12.171875 48.375 
Q 18.84375 56 30.609375 56 
z
" id="DejaVuSans-111"/>
       <path d="M 44.28125 53.078125 
L 44.28125 44.578125 
Q 40.484375 46.53125 36.375 47.5 
Q 32.28125 48.484375 27.875 48.484375 
Q 21.1875 48.484375 17.84375 46.4375 
Q 14.5 44.390625 14.5 40.28125 
Q 14.5 37.15625 16.890625 35.375 
Q 19.28125 33.59375 26.515625 31.984375 
L 29.59375 31.296875 
Q 39.15625 29.25 43.1875 25.515625 
Q 47.21875 21.78125 47.21875 15.09375 
Q 47.21875 7.46875 41.1875 3.015625 
Q 35.15625 -1.421875 24.609375 -1.421875 
Q 20.21875 -1.421875 15.453125 -0.5625 
Q 10.6875 0.296875 5.421875 2 
L 5.421875 11.28125 
Q 10.40625 8.6875 15.234375 7.390625 
Q 20.0625 6.109375 24.8125 6.109375 
Q 31.15625 6.109375 34.5625 8.28125 
Q 37.984375 10.453125 37.984375 14.40625 
Q 37.984375 18.0625 35.515625 20.015625 
Q 33.0625 21.96875 24.703125 23.78125 
L 21.578125 24.515625 
Q 13.234375 26.265625 9.515625 29.90625 
Q 5.8125 33.546875 5.8125 39.890625 
Q 5.8125 47.609375 11.28125 51.796875 
Q 16.75 56 26.8125 56 
Q 31.78125 56 36.171875 55.265625 
Q 40.578125 54.546875 44.28125 53.078125 
z
" id="DejaVuSans-115"/>
      </defs>
      <use xlink:href="#DejaVuSans-87"/>
      <use x="92.501953" xlink:href="#DejaVuSans-97"/>
      <use x="153.78125" xlink:href="#DejaVuSans-121"/>
      <use x="212.960938" xlink:href="#DejaVuSans-112"/>
      <use x="276.4375" xlink:href="#DejaVuSans-111"/>
      <use x="337.619141" xlink:href="#DejaVuSans-105"/>
      <use x="365.402344" xlink:href="#DejaVuSans-110"/>
      <use x="428.78125" xlink:href="#DejaVuSans-116"/>
      <use x="467.990234" xlink:href="#DejaVuSans-115"/>
     </g>
    </g>
    <g id="line2d_19">
     <path d="M 66.6 69.248563 
L 86.6 69.248563 
" style="fill:none;stroke:#ff7f0e;stroke-linecap:square;stroke-width:1.5;"/>
    </g>
    <g id="line2d_20"/>
    <g id="text_16">
     <!-- Stanley -->
     <g transform="translate(94.6 72.748563)scale(0.1 -0.1)">
      <defs>
       <path d="M 53.515625 70.515625 
L 53.515625 60.890625 
Q 47.90625 63.578125 42.921875 64.890625 
Q 37.9375 66.21875 33.296875 66.21875 
Q 25.25 66.21875 20.875 63.09375 
Q 16.5 59.96875 16.5 54.203125 
Q 16.5 49.359375 19.40625 46.890625 
Q 22.3125 44.4375 30.421875 42.921875 
L 36.375 41.703125 
Q 47.40625 39.59375 52.65625 34.296875 
Q 57.90625 29 57.90625 20.125 
Q 57.90625 9.515625 50.796875 4.046875 
Q 43.703125 -1.421875 29.984375 -1.421875 
Q 24.8125 -1.421875 18.96875 -0.25 
Q 13.140625 0.921875 6.890625 3.21875 
L 6.890625 13.375 
Q 12.890625 10.015625 18.65625 8.296875 
Q 24.421875 6.59375 29.984375 6.59375 
Q 38.421875 6.59375 43.015625 9.90625 
Q 47.609375 13.234375 47.609375 19.390625 
Q 47.609375 24.75 44.3125 27.78125 
Q 41.015625 30.8125 33.5 32.328125 
L 27.484375 33.5 
Q 16.453125 35.6875 11.515625 40.375 
Q 6.59375 45.0625 6.59375 53.421875 
Q 6.59375 63.09375 13.40625 68.65625 
Q 20.21875 74.21875 32.171875 74.21875 
Q 37.3125 74.21875 42.625 73.28125 
Q 47.953125 72.359375 53.515625 70.515625 
z
" id="DejaVuSans-83"/>
       <path d="M 9.421875 75.984375 
L 18.40625 75.984375 
L 18.40625 0 
L 9.421875 0 
z
" id="DejaVuSans-108"/>
      </defs>
      <use xlink:href="#DejaVuSans-83"/>
      <use x="63.476562" xlink:href="#DejaVuSans-116"/>
      <use x="102.685547" xlink:href="#DejaVuSans-97"/>
      <use x="163.964844" xlink:href="#DejaVuSans-110"/>
      <use x="227.34375" xlink:href="#DejaVuSans-108"/>
      <use x="255.126953" xlink:href="#DejaVuSans-101"/>
      <use x="316.650391" xlink:href="#DejaVuSans-121"/>
     </g>
    </g>
    <g id="line2d_21">
     <path d="M 66.6 83.926688 
L 86.6 83.926688 
" style="fill:none;stroke:#2ca02c;stroke-linecap:square;stroke-width:1.5;"/>
    </g>
    <g id="line2d_22"/>
    <g id="text_17">
     <!-- Pure Pursuit -->
     <g transform="translate(94.6 87.426688)scale(0.1 -0.1)">
      <defs>
       <path d="M 19.671875 64.796875 
L 19.671875 37.40625 
L 32.078125 37.40625 
Q 38.96875 37.40625 42.71875 40.96875 
Q 46.484375 44.53125 46.484375 51.125 
Q 46.484375 57.671875 42.71875 61.234375 
Q 38.96875 64.796875 32.078125 64.796875 
z
M 9.8125 72.90625 
L 32.078125 72.90625 
Q 44.34375 72.90625 50.609375 67.359375 
Q 56.890625 61.8125 56.890625 51.125 
Q 56.890625 40.328125 50.609375 34.8125 
Q 44.34375 29.296875 32.078125 29.296875 
L 19.671875 29.296875 
L 19.671875 0 
L 9.8125 0 
z
" id="DejaVuSans-80"/>
       <path d="M 41.109375 46.296875 
Q 39.59375 47.171875 37.8125 47.578125 
Q 36.03125 48 33.890625 48 
Q 26.265625 48 22.1875 43.046875 
Q 18.109375 38.09375 18.109375 28.8125 
L 18.109375 0 
L 9.078125 0 
L 9.078125 54.6875 
L 18.109375 54.6875 
L 18.109375 46.1875 
Q 20.953125 51.171875 25.484375 53.578125 
Q 30.03125 56 36.53125 56 
Q 37.453125 56 38.578125 55.875 
Q 39.703125 55.765625 41.0625 55.515625 
z
" id="DejaVuSans-114"/>
      </defs>
      <use xlink:href="#DejaVuSans-80"/>
      <use x="58.552734" xlink:href="#DejaVuSans-117"/>
      <use x="121.931641" xlink:href="#DejaVuSans-114"/>
      <use x="160.794922" xlink:href="#DejaVuSans-101"/>
      <use x="222.318359" xlink:href="#DejaVuSans-32"/>
      <use x="254.105469" xlink:href="#DejaVuSans-80"/>
      <use x="312.658203" xlink:href="#DejaVuSans-117"/>
      <use x="376.037109" xlink:href="#DejaVuSans-114"/>
      <use x="417.150391" xlink:href="#DejaVuSans-115"/>
      <use x="469.25" xlink:href="#DejaVuSans-117"/>
      <use x="532.628906" xlink:href="#DejaVuSans-105"/>
      <use x="560.412109" xlink:href="#DejaVuSans-116"/>
     </g>
    </g>
   </g>
  </g>
 </g>
 <defs>
  <clipPath id="p203decf9ae">
   <rect height="266.112" width="357.12" x="57.6" y="41.472"/>
  </clipPath>
 </defs>
</svg>
