<?xml version="1.0" encoding="utf-8" standalone="no"?>
<!DOCTYPE svg PUBLIC "-//W3C//DTD SVG 1.1//EN"
  "http://www.w3.org/Graphics/SVG/1.1/DTD/svg11.dtd">
<!-- Created with matplotlib (https://matplotlib.org/) -->
<svg height="345.6pt" version="1.1" viewBox="0 0 460.8 345.6" width="460.8pt" xmlns="http://www.w3.org/2000/svg" xmlns:xlink="http://www.w3.org/1999/xlink">
 <metadata>
  <rdf:RDF xmlns:cc="http://creativecommons.org/ns#" xmlns:dc="http://purl.org/dc/elements/1.1/" xmlns:rdf="http://www.w3.org/1999/02/22-rdf-syntax-ns#">
   <cc:Work>
    <dc:type rdf:resource="http://purl.org/dc/dcmitype/StillImage"/>
    <dc:date>2024-10-15T01:23:57.547427</dc:date>
    <dc:format>image/svg+xml</dc:format>
    <dc:creator>
     <cc:Agent>
      <dc:title>Matplotlib v3.3.1, https://matplotlib.org/</dc:title>
     </cc:Agent>
    </dc:creator>
   </cc:Work>
  </rdf:RDF>
 </metadata>
 <defs>
  <style type="text/css">*{stroke-linecap:butt;stroke-linejoin:round;}</style>
 </defs>
 <g id="figure_1">
  <g id="patch_1">
   <path d="M 0 345.6 
L 460.8 345.6 
L 460.8 0 
L 0 0 
z
" style="fill:#ffffff;"/>
  </g>
  <g id="axes_1">
   <g id="patch_2">
    <path d="M 57.6 307.584 
L 414.72 307.584 
L 414.72 41.472 
L 57.6 41.472 
z
" style="fill:#ffffff;"/>
   </g>
   <g id="matplotlib.axis_1">
    <g id="xtick_1">
     <g id="line2d_1">
      <defs>
       <path d="M 0 0 
L 0 3.5 
" id="md1b68dae0c" style="stroke:#000000;stroke-width:0.8;"/>
      </defs>
      <g>
       <use style="stroke:#000000;stroke-width:0.8;" x="73.832727" xlink:href="#md1b68dae0c" y="307.584"/>
      </g>
     </g>
     <g id="text_1">
      <!-- 0.0 -->
      <g transform="translate(65.881165 322.182437)scale(0.1 -0.1)">
       <defs>
        <path d="M 31.78125 66.40625 
Q 24.171875 66.40625 20.328125 58.90625 
Q 16.5 51.421875 16.5 36.375 
Q 16.5 21.390625 20.328125 13.890625 
Q 24.171875 6.390625 31.78125 6.390625 
Q 39.453125 6.390625 43.28125 13.890625 
Q 47.125 21.390625 47.125 36.375 
Q 47.125 51.421875 43.28125 58.90625 
Q 39.453125 66.40625 31.78125 66.40625 
z
M 31.78125 74.21875 
Q 44.046875 74.21875 50.515625 64.515625 
Q 56.984375 54.828125 56.984375 36.375 
Q 56.984375 17.96875 50.515625 8.265625 
Q 44.046875 -1.421875 31.78125 -1.421875 
Q 19.53125 -1.421875 13.0625 8.265625 
Q 6.59375 17.96875 6.59375 36.375 
Q 6.59375 54.828125 13.0625 64.515625 
Q 19.53125 74.21875 31.78125 74.21875 
z
" id="DejaVuSans-48"/>
        <path d="M 10.6875 12.40625 
L 21 12.40625 
L 21 0 
L 10.6875 0 
z
" id="DejaVuSans-46"/>
       </defs>
       <use xlink:href="#DejaVuSans-48"/>
       <use x="63.623047" xlink:href="#DejaVuSans-46"/>
       <use x="95.410156" xlink:href="#DejaVuSans-48"/>
      </g>
     </g>
    </g>
    <g id="xtick_2">
     <g id="line2d_2">
      <g>
       <use style="stroke:#000000;stroke-width:0.8;" x="138.763636" xlink:href="#md1b68dae0c" y="307.584"/>
      </g>
     </g>
     <g id="text_2">
      <!-- 0.2 -->
      <g transform="translate(130.812074 322.182437)scale(0.1 -0.1)">
       <defs>
        <path d="M 19.1875 8.296875 
L 53.609375 8.296875 
L 53.609375 0 
L 7.328125 0 
L 7.328125 8.296875 
Q 12.9375 14.109375 22.625 23.890625 
Q 32.328125 33.6875 34.8125 36.53125 
Q 39.546875 41.84375 41.421875 45.53125 
Q 43.3125 49.21875 43.3125 52.78125 
Q 43.3125 58.59375 39.234375 62.25 
Q 35.15625 65.921875 28.609375 65.921875 
Q 23.96875 65.921875 18.8125 64.3125 
Q 13.671875 62.703125 7.8125 59.421875 
L 7.8125 69.390625 
Q 13.765625 71.78125 18.9375 73 
Q 24.125 74.21875 28.421875 74.21875 
Q 39.75 74.21875 46.484375 68.546875 
Q 53.21875 62.890625 53.21875 53.421875 
Q 53.21875 48.921875 51.53125 44.890625 
Q 49.859375 40.875 45.40625 35.40625 
Q 44.1875 33.984375 37.640625 27.21875 
Q 31.109375 20.453125 19.1875 8.296875 
z
" id="DejaVuSans-50"/>
       </defs>
       <use xlink:href="#DejaVuSans-48"/>
       <use x="63.623047" xlink:href="#DejaVuSans-46"/>
       <use x="95.410156" xlink:href="#DejaVuSans-50"/>
      </g>
     </g>
    </g>
    <g id="xtick_3">
     <g id="line2d_3">
      <g>
       <use style="stroke:#000000;stroke-width:0.8;" x="203.694545" xlink:href="#md1b68dae0c" y="307.584"/>
      </g>
     </g>
     <g id="text_3">
      <!-- 0.4 -->
      <g transform="translate(195.742983 322.182437)scale(0.1 -0.1)">
       <defs>
        <path d="M 37.796875 64.3125 
L 12.890625 25.390625 
L 37.796875 25.390625 
z
M 35.203125 72.90625 
L 47.609375 72.90625 
L 47.609375 25.390625 
L 58.015625 25.390625 
L 58.015625 17.1875 
L 47.609375 17.1875 
L 47.609375 0 
L 37.796875 0 
L 37.796875 17.1875 
L 4.890625 17.1875 
L 4.890625 26.703125 
z
" id="DejaVuSans-52"/>
       </defs>
       <use xlink:href="#DejaVuSans-48"/>
       <use x="63.623047" xlink:href="#DejaVuSans-46"/>
       <use x="95.410156" xlink:href="#DejaVuSans-52"/>
      </g>
     </g>
    </g>
    <g id="xtick_4">
     <g id="line2d_4">
      <g>
       <use style="stroke:#000000;stroke-width:0.8;" x="268.625455" xlink:href="#md1b68dae0c" y="307.584"/>
      </g>
     </g>
     <g id="text_4">
      <!-- 0.6 -->
      <g transform="translate(260.673892 322.182437)scale(0.1 -0.1)">
       <defs>
        <path d="M 33.015625 40.375 
Q 26.375 40.375 22.484375 35.828125 
Q 18.609375 31.296875 18.609375 23.390625 
Q 18.609375 15.53125 22.484375 10.953125 
Q 26.375 6.390625 33.015625 6.390625 
Q 39.65625 6.390625 43.53125 10.953125 
Q 47.40625 15.53125 47.40625 23.390625 
Q 47.40625 31.296875 43.53125 35.828125 
Q 39.65625 40.375 33.015625 40.375 
z
M 52.59375 71.296875 
L 52.59375 62.3125 
Q 48.875 64.0625 45.09375 64.984375 
Q 41.3125 65.921875 37.59375 65.921875 
Q 27.828125 65.921875 22.671875 59.328125 
Q 17.53125 52.734375 16.796875 39.40625 
Q 19.671875 43.65625 24.015625 45.921875 
Q 28.375 48.1875 33.59375 48.1875 
Q 44.578125 48.1875 50.953125 41.515625 
Q 57.328125 34.859375 57.328125 23.390625 
Q 57.328125 12.15625 50.6875 5.359375 
Q 44.046875 -1.421875 33.015625 -1.421875 
Q 20.359375 -1.421875 13.671875 8.265625 
Q 6.984375 17.96875 6.984375 36.375 
Q 6.984375 53.65625 15.1875 63.9375 
Q 23.390625 74.21875 37.203125 74.21875 
Q 40.921875 74.21875 44.703125 73.484375 
Q 48.484375 72.75 52.59375 71.296875 
z
" id="DejaVuSans-54"/>
       </defs>
       <use xlink:href="#DejaVuSans-48"/>
       <use x="63.623047" xlink:href="#DejaVuSans-46"/>
       <use x="95.410156" xlink:href="#DejaVuSans-54"/>
      </g>
     </g>
    </g>
    <g id="xtick_5">
     <g id="line2d_5">
      <g>
       <use style="stroke:#000000;stroke-width:0.8;" x="333.556364" xlink:href="#md1b68dae0c" y="307.584"/>
      </g>
     </g>
     <g id="text_5">
      <!-- 0.8 -->
      <g transform="translate(325.604801 322.182437)scale(0.1 -0.1)">
       <defs>
        <path d="M 31.78125 34.625 
Q 24.75 34.625 20.71875 30.859375 
Q 16.703125 27.09375 16.703125 20.515625 
Q 16.703125 13.921875 20.71875 10.15625 
Q 24.75 6.390625 31.78125 6.390625 
Q 38.8125 6.390625 42.859375 10.171875 
Q 46.921875 13.96875 46.921875 20.515625 
Q 46.921875 27.09375 42.890625 30.859375 
Q 38.875 34.625 31.78125 34.625 
z
M 21.921875 38.8125 
Q 15.578125 40.375 12.03125 44.71875 
Q 8.5 49.078125 8.5 55.328125 
Q 8.5 64.0625 14.71875 69.140625 
Q 20.953125 74.21875 31.78125 74.21875 
Q 42.671875 74.21875 48.875 69.140625 
Q 55.078125 64.0625 55.078125 55.328125 
Q 55.078125 49.078125 51.53125 44.71875 
Q 48 40.375 41.703125 38.8125 
Q 48.828125 37.15625 52.796875 32.3125 
Q 56.78125 27.484375 56.78125 20.515625 
Q 56.78125 9.90625 50.3125 4.234375 
Q 43.84375 -1.421875 31.78125 -1.421875 
Q 19.734375 -1.421875 13.25 4.234375 
Q 6.78125 9.90625 6.78125 20.515625 
Q 6.78125 27.484375 10.78125 32.3125 
Q 14.796875 37.15625 21.921875 38.8125 
z
M 18.3125 54.390625 
Q 18.3125 48.734375 21.84375 45.5625 
Q 25.390625 42.390625 31.78125 42.390625 
Q 38.140625 42.390625 41.71875 45.5625 
Q 45.3125 48.734375 45.3125 54.390625 
Q 45.3125 60.0625 41.71875 63.234375 
Q 38.140625 66.40625 31.78125 66.40625 
Q 25.390625 66.40625 21.84375 63.234375 
Q 18.3125 60.0625 18.3125 54.390625 
z
" id="DejaVuSans-56"/>
       </defs>
       <use xlink:href="#DejaVuSans-48"/>
       <use x="63.623047" xlink:href="#DejaVuSans-46"/>
       <use x="95.410156" xlink:href="#DejaVuSans-56"/>
      </g>
     </g>
    </g>
    <g id="xtick_6">
     <g id="line2d_6">
      <g>
       <use style="stroke:#000000;stroke-width:0.8;" x="398.487273" xlink:href="#md1b68dae0c" y="307.584"/>
      </g>
     </g>
     <g id="text_6">
      <!-- 1.0 -->
      <g transform="translate(390.53571 322.182437)scale(0.1 -0.1)">
       <defs>
        <path d="M 12.40625 8.296875 
L 28.515625 8.296875 
L 28.515625 63.921875 
L 10.984375 60.40625 
L 10.984375 69.390625 
L 28.421875 72.90625 
L 38.28125 72.90625 
L 38.28125 8.296875 
L 54.390625 8.296875 
L 54.390625 0 
L 12.40625 0 
z
" id="DejaVuSans-49"/>
       </defs>
       <use xlink:href="#DejaVuSans-49"/>
       <use x="63.623047" xlink:href="#DejaVuSans-46"/>
       <use x="95.410156" xlink:href="#DejaVuSans-48"/>
      </g>
     </g>
    </g>
   </g>
   <g id="matplotlib.axis_2">
    <g id="ytick_1">
     <g id="line2d_7">
      <defs>
       <path d="M 0 0 
L -3.5 0 
" id="m4216eb2f64" style="stroke:#000000;stroke-width:0.8;"/>
      </defs>
      <g>
       <use style="stroke:#000000;stroke-width:0.8;" x="57.6" xlink:href="#m4216eb2f64" y="303.191815"/>
      </g>
     </g>
     <g id="text_7">
      <!-- 3 -->
      <g transform="translate(44.2375 306.991034)scale(0.1 -0.1)">
       <defs>
        <path d="M 40.578125 39.3125 
Q 47.65625 37.796875 51.625 33 
Q 55.609375 28.21875 55.609375 21.1875 
Q 55.609375 10.40625 48.1875 4.484375 
Q 40.765625 -1.421875 27.09375 -1.421875 
Q 22.515625 -1.421875 17.65625 -0.515625 
Q 12.796875 0.390625 7.625 2.203125 
L 7.625 11.71875 
Q 11.71875 9.328125 16.59375 8.109375 
Q 21.484375 6.890625 26.8125 6.890625 
Q 36.078125 6.890625 40.9375 10.546875 
Q 45.796875 14.203125 45.796875 21.1875 
Q 45.796875 27.640625 41.28125 31.265625 
Q 36.765625 34.90625 28.71875 34.90625 
L 20.21875 34.90625 
L 20.21875 43.015625 
L 29.109375 43.015625 
Q 36.375 43.015625 40.234375 45.921875 
Q 44.09375 48.828125 44.09375 54.296875 
Q 44.09375 59.90625 40.109375 62.90625 
Q 36.140625 65.921875 28.71875 65.921875 
Q 24.65625 65.921875 20.015625 65.03125 
Q 15.375 64.15625 9.8125 62.3125 
L 9.8125 71.09375 
Q 15.4375 72.65625 20.34375 73.4375 
Q 25.25 74.21875 29.59375 74.21875 
Q 40.828125 74.21875 47.359375 69.109375 
Q 53.90625 64.015625 53.90625 55.328125 
Q 53.90625 49.265625 50.4375 45.09375 
Q 46.96875 40.921875 40.578125 39.3125 
z
" id="DejaVuSans-51"/>
       </defs>
       <use xlink:href="#DejaVuSans-51"/>
      </g>
     </g>
    </g>
    <g id="ytick_2">
     <g id="line2d_8">
      <g>
       <use style="stroke:#000000;stroke-width:0.8;" x="57.6" xlink:href="#m4216eb2f64" y="253.267052"/>
      </g>
     </g>
     <g id="text_8">
      <!-- 4 -->
      <g transform="translate(44.2375 257.066271)scale(0.1 -0.1)">
       <use xlink:href="#DejaVuSans-52"/>
      </g>
     </g>
    </g>
    <g id="ytick_3">
     <g id="line2d_9">
      <g>
       <use style="stroke:#000000;stroke-width:0.8;" x="57.6" xlink:href="#m4216eb2f64" y="203.342289"/>
      </g>
     </g>
     <g id="text_9">
      <!-- 5 -->
      <g transform="translate(44.2375 207.141508)scale(0.1 -0.1)">
       <defs>
        <path d="M 10.796875 72.90625 
L 49.515625 72.90625 
L 49.515625 64.59375 
L 19.828125 64.59375 
L 19.828125 46.734375 
Q 21.96875 47.46875 24.109375 47.828125 
Q 26.265625 48.1875 28.421875 48.1875 
Q 40.625 48.1875 47.75 41.5 
Q 54.890625 34.8125 54.890625 23.390625 
Q 54.890625 11.625 47.5625 5.09375 
Q 40.234375 -1.421875 26.90625 -1.421875 
Q 22.3125 -1.421875 17.546875 -0.640625 
Q 12.796875 0.140625 7.71875 1.703125 
L 7.71875 11.625 
Q 12.109375 9.234375 16.796875 8.0625 
Q 21.484375 6.890625 26.703125 6.890625 
Q 35.15625 6.890625 40.078125 11.328125 
Q 45.015625 15.765625 45.015625 23.390625 
Q 45.015625 31 40.078125 35.4375 
Q 35.15625 39.890625 26.703125 39.890625 
Q 22.75 39.890625 18.8125 39.015625 
Q 14.890625 38.140625 10.796875 36.28125 
z
" id="DejaVuSans-53"/>
       </defs>
       <use xlink:href="#DejaVuSans-53"/>
      </g>
     </g>
    </g>
    <g id="ytick_4">
     <g id="line2d_10">
      <g>
       <use style="stroke:#000000;stroke-width:0.8;" x="57.6" xlink:href="#m4216eb2f64" y="153.417526"/>
      </g>
     </g>
     <g id="text_10">
      <!-- 6 -->
      <g transform="translate(44.2375 157.216745)scale(0.1 -0.1)">
       <use xlink:href="#DejaVuSans-54"/>
      </g>
     </g>
    </g>
    <g id="ytick_5">
     <g id="line2d_11">
      <g>
       <use style="stroke:#000000;stroke-width:0.8;" x="57.6" xlink:href="#m4216eb2f64" y="103.492763"/>
      </g>
     </g>
     <g id="text_11">
      <!-- 7 -->
      <g transform="translate(44.2375 107.291982)scale(0.1 -0.1)">
       <defs>
        <path d="M 8.203125 72.90625 
L 55.078125 72.90625 
L 55.078125 68.703125 
L 28.609375 0 
L 18.3125 0 
L 43.21875 64.59375 
L 8.203125 64.59375 
z
" id="DejaVuSans-55"/>
       </defs>
       <use xlink:href="#DejaVuSans-55"/>
      </g>
     </g>
    </g>
    <g id="ytick_6">
     <g id="line2d_12">
      <g>
       <use style="stroke:#000000;stroke-width:0.8;" x="57.6" xlink:href="#m4216eb2f64" y="53.568"/>
      </g>
     </g>
     <g id="text_12">
      <!-- 8 -->
      <g transform="translate(44.2375 57.367219)scale(0.1 -0.1)">
       <use xlink:href="#DejaVuSans-56"/>
      </g>
     </g>
    </g>
   </g>
   <g id="line2d_13">
    <path clip-path="url(#p2e4f5f3868)" d="M 73.832727 53.568 
L 92.202809 53.568 
L 92.55608 56.567329 
L 95.735517 94.064704 
L 97.1486 108.170585 
L 98.561682 120.332243 
L 100.328035 133.462792 
L 101.741116 142.378659 
L 103.154197 149.787183 
L 104.214007 154.180724 
L 105.273816 157.5261 
L 106.333626 159.217275 
L 107.393433 160.594463 
L 108.453242 161.027858 
L 109.159781 161.091733 
L 109.866319 161.033317 
L 110.219587 160.918518 
L 110.926126 160.277204 
L 111.632665 159.196568 
L 112.339204 157.401591 
L 113.045744 154.94339 
L 114.105555 150.31462 
L 115.165364 144.675673 
L 116.578445 135.763541 
L 117.991527 125.044185 
L 119.75788 108.992422 
L 122.584045 83.588759 
L 126.116751 53.568 
L 158.264387 53.568 
L 158.617658 53.84558 
L 160.03074 66.008321 
L 161.443823 80.124725 
L 162.856905 96.383775 
L 164.269988 114.982086 
L 165.683071 136.17424 
L 166.742883 154.212863 
L 168.509237 186.375293 
L 169.922318 207.442831 
L 171.335392 224.962487 
L 173.101717 243.903494 
L 175.221285 264.036601 
L 176.281067 271.261484 
L 177.694075 279.440989 
L 178.047302 280.641381 
L 178.400573 281.143226 
L 178.753791 281.406724 
L 179.813551 281.301801 
L 180.166778 281.101282 
L 180.520049 280.444858 
L 181.226557 278.153817 
L 181.933071 275.01464 
L 182.639592 270.634899 
L 184.052648 259.608617 
L 185.818979 243.295768 
L 187.232054 228.240242 
L 188.645133 210.670219 
L 191.824566 170.599292 
L 194.29746 138.804223 
L 196.063813 113.747095 
L 198.536709 74.719324 
L 199.949792 53.568 
L 221.49931 53.652482 
L 223.265664 79.210355 
L 225.032018 107.657586 
L 226.798372 139.501909 
L 230.331079 206.459891 
L 231.744156 226.554623 
L 233.863754 252.464664 
L 235.630074 271.676461 
L 236.689832 281.13183 
L 237.749607 288.655097 
L 238.456106 292.465515 
L 239.162599 294.922098 
L 239.515822 295.488 
L 240.222322 295.488 
L 240.575592 295.311709 
L 240.928834 294.98537 
L 241.282105 294.100457 
L 241.988628 290.975871 
L 243.048424 284.03974 
L 244.814773 270.407772 
L 249.054017 237.412664 
L 252.233451 212.628624 
L 254.353075 194.440128 
L 256.119428 177.359675 
L 257.885781 157.920301 
L 259.298865 140.093063 
L 260.711948 119.739069 
L 261.418489 108.791914 
L 261.77176 107.836956 
L 263.891385 141.534255 
L 265.304468 160.30575 
L 267.070822 180.545285 
L 268.837176 198.140968 
L 270.603529 213.581934 
L 272.369881 226.984766 
L 273.782963 236.192014 
L 274.842775 241.944127 
L 275.549316 244.790131 
L 276.255857 246.649993 
L 276.609126 247.273378 
L 276.962397 247.655068 
L 277.668935 247.828774 
L 278.375471 247.828774 
L 278.728737 247.604349 
L 279.082008 247.176929 
L 279.435273 246.479795 
L 280.14181 244.378797 
L 281.201617 239.897095 
L 282.614692 232.578898 
L 285.794111 214.591428 
L 290.033346 189.741911 
L 294.625849 213.968432 
L 297.451998 228.438879 
L 298.511798 233.216076 
L 299.218332 235.67805 
L 299.924864 237.239226 
L 300.278135 237.689824 
L 300.984665 238.034691 
L 301.691194 238.034691 
L 302.044454 237.70916 
L 302.397725 237.086331 
L 303.104256 234.837733 
L 303.810789 231.560365 
L 304.517323 227.301922 
L 305.577125 219.322572 
L 306.636934 209.434781 
L 307.696742 197.746136 
L 309.109824 179.174026 
L 310.522907 156.677248 
L 312.289261 125.955473 
L 312.995802 117.325007 
L 313.702343 111.281436 
L 314.408883 107.643597 
L 315.115424 105.491764 
L 316.528505 101.533427 
L 318.648126 94.88704 
L 319.707937 90.511067 
L 322.180831 79.135976 
L 324.300454 68.034321 
L 326.066807 57.688389 
L 326.773349 53.568 
L 341.963992 53.568 
L 342.670534 62.948408 
L 345.849971 108.3268 
L 347.263054 124.898295 
L 348.676137 139.17477 
L 350.08922 151.624073 
L 351.502303 162.385642 
L 352.915387 171.448291 
L 353.975199 176.962114 
L 354.68174 179.988785 
L 355.741553 183.284428 
L 356.448094 184.898786 
L 356.801365 185.451295 
L 357.861178 186.387118 
L 358.214448 186.531512 
L 359.627531 186.533505 
L 362.453696 188.776817 
L 363.160237 189.591592 
L 364.573319 191.774049 
L 367.046212 196.135894 
L 368.812564 199.666277 
L 370.225645 202.520061 
L 370.932185 203.688722 
L 371.638725 204.542928 
L 373.051805 205.746141 
L 373.758344 205.994927 
L 374.818151 205.94785 
L 375.171422 205.856426 
L 375.877961 205.323822 
L 376.5845 204.166718 
L 377.291039 202.46759 
L 377.997579 200.245083 
L 379.057387 195.696974 
L 380.117198 190.243233 
L 381.530279 181.697301 
L 382.94336 171.822817 
L 384.709713 157.781608 
L 386.829337 138.488084 
L 388.59569 120.154115 
L 390.362044 99.153831 
L 392.128398 75.168723 
L 393.541481 54.421637 
L 393.894752 53.568 
L 398.487273 53.568 
L 398.487273 53.568 
" style="fill:none;stroke:#1f77b4;stroke-linecap:square;stroke-width:1.5;"/>
   </g>
   <g id="line2d_14">
    <path clip-path="url(#p2e4f5f3868)" d="M 73.832727 71.33392 
L 74.910245 68.188305 
L 75.995799 65.59965 
L 77.087968 63.469339 
L 78.460716 61.328771 
L 79.840142 59.650972 
L 81.224802 58.335895 
L 81.224802 58.335895 
L 82.613565 57.305125 
L 84.284261 56.357914 
L 85.958422 55.650782 
L 87.91483 55.048946 
L 87.91483 55.048946 
L 90.433791 54.523254 
L 91.55426 54.354118 
L 91.834287 54.775073 
L 92.670355 58.432931 
L 93.221923 62.973317 
L 98.797309 119.233375 
L 101.744551 140.765916 
L 102.615135 145.829643 
L 103.897666 151.668722 
L 103.897666 151.668722 
L 104.740008 154.920425 
L 104.740008 154.920425 
L 105.574693 157.122523 
L 105.574693 157.122523 
L 106.197076 158.438195 
L 107.023304 159.662392 
L 107.84682 160.398016 
L 108.463357 160.72334 
L 109.284674 160.913204 
L 110.311107 160.845011 
L 111.33824 160.498022 
L 111.33824 160.498022 
L 112.161379 159.842655 
L 112.161379 159.842655 
L 112.986868 158.76949 
L 112.986868 158.76949 
L 113.60832 157.691464 
L 114.441138 155.721045 
L 115.280015 153.378296 
L 116.766933 147.881607 
L 118.065953 141.751461 
L 118.065953 141.751461 
L 120.071024 129.764603 
L 121.68764 118.889675 
L 121.68764 118.889675 
L 126.888867 82.567462 
L 127.937682 77.432848 
L 128.999615 73.207364 
L 130.072345 69.73004 
L 131.15396 66.868406 
L 132.242886 64.513451 
L 133.33783 62.575461 
L 134.713366 60.62814 
L 136.094978 59.10181 
L 137.481351 57.905457 
L 137.481351 57.905457 
L 138.871457 56.967743 
L 140.543388 56.106045 
L 142.497897 55.372656 
L 144.735311 54.790171 
L 147.535784 54.318851 
L 147.535784 54.318851 
L 150.899715 53.986466 
L 150.899715 53.986466 
L 155.668678 53.7508 
L 157.913632 53.726052 
L 158.194048 54.294271 
L 158.752898 56.742539 
L 158.752898 56.742539 
L 159.308134 59.436749 
L 160.403458 67.391261 
L 161.472869 77.832437 
L 162.511194 89.496079 
L 163.761508 105.178286 
L 166.723741 153.328807 
L 166.723741 153.328807 
L 168.88471 192.753799 
L 170.945285 222.856237 
L 172.796097 243.466261 
L 173.939288 255.490699 
L 174.486567 260.871183 
L 175.672322 269.834957 
L 175.672322 269.834957 
L 176.183252 273.016447 
L 176.183252 273.016447 
L 176.932034 277.589843 
L 177.422206 279.501839 
L 177.908264 280.560928 
L 178.392207 281.042995 
L 178.875258 281.214187 
L 179.599721 281.096312 
L 179.599721 281.096312 
L 180.325655 280.496027 
L 181.177307 279.080787 
L 181.667903 277.781411 
L 182.789721 273.263288 
L 184.076563 266.118184 
L 184.076563 266.118184 
L 184.875334 260.86425 
L 186.837243 245.57761 
L 186.837243 245.57761 
L 187.88076 235.946752 
L 189.460199 220.300899 
L 195.370793 156.63399 
L 195.370793 156.63399 
L 199.911774 102.473465 
L 200.909729 93.814317 
L 201.929808 86.688347 
L 202.968094 80.824095 
L 204.021364 75.99816 
L 205.086964 72.0267 
L 206.162712 68.758423 
L 207.246809 66.068823 
L 208.337779 63.855441 
L 209.709322 61.631401 
L 211.087804 59.888177 
L 212.471724 58.521819 
L 212.471724 58.521819 
L 213.859907 57.450854 
L 215.53007 56.466706 
L 217.203832 55.732 
L 219.1599 55.106695 
L 219.1599 55.106695 
L 220.278877 54.838273 
L 220.278877 54.838273 
L 220.837601 56.116404 
L 221.11604 57.530961 
L 221.668741 62.354935 
L 223.276049 82.126143 
L 224.296169 98.170363 
L 225.969314 127.680727 
L 229.766541 204.913442 
L 230.447384 216.193771 
L 231.260456 227.033515 
L 232.185122 240.096038 
L 232.185122 240.096038 
L 232.628484 245.378146 
L 233.479801 256.367812 
L 235.680595 279.459935 
L 237.669206 292.404213 
L 238.229802 294.310628 
L 238.229802 294.310628 
L 238.674783 294.981678 
L 238.674783 294.981678 
L 239.00764 295.185589 
L 239.562037 295.195876 
L 239.562037 295.195876 
L 240.11701 294.833508 
L 240.562243 294.299739 
L 240.897435 293.649042 
L 240.897435 293.649042 
L 241.346923 292.481766 
L 241.346923 292.481766 
L 242.374097 288.472031 
L 244.035141 279.506897 
L 244.902003 273.890675 
L 249.692102 241.450382 
L 255.567078 197.27908 
L 257.229683 182.695166 
L 259.195423 163.343558 
L 259.195423 163.343558 
L 260.445757 149.850329 
L 261.089808 145.496299 
L 261.523263 143.902328 
L 261.958491 142.962068 
L 262.176495 142.649231 
L 262.394629 142.596213 
L 262.829939 143.938116 
L 263.262181 147.337834 
L 263.900896 152.866333 
L 265.930063 175.45805 
L 265.930063 175.45805 
L 266.886626 185.848926 
L 267.443967 191.814926 
L 267.443967 191.814926 
L 269.725767 213.538195 
L 270.39216 218.517759 
L 271.205249 224.669418 
L 271.840081 229.502021 
L 272.616882 234.39187 
L 273.226033 238.02992 
L 274.564598 244.191263 
L 274.564598 244.191263 
L 275.294431 246.221644 
L 275.874326 247.092372 
L 276.452464 247.512086 
L 277.029814 247.657919 
L 277.89579 247.535515 
L 278.329178 247.304419 
L 279.053186 246.545971 
L 279.926959 244.902746 
L 280.808932 242.709642 
L 282.304533 237.478505 
L 282.913569 235.108525 
L 285.911563 221.267939 
L 285.911563 221.267939 
L 289.287374 204.835389 
L 289.287374 204.835389 
L 289.987327 203.309011 
L 289.987327 203.309011 
L 290.514366 202.803408 
L 290.866131 202.706823 
L 291.042031 202.705464 
L 291.568591 203.949894 
L 291.917869 205.185886 
L 293.125985 209.742325 
L 293.972937 214.215711 
L 295.131561 220.703533 
L 297.673217 232.705529 
L 298.442457 235.284208 
L 299.20439 236.893637 
L 299.20439 236.893637 
L 299.81088 237.532171 
L 299.81088 237.532171 
L 300.416109 237.818591 
L 301.021059 237.741392 
L 301.021059 237.741392 
L 301.778154 237.271864 
L 302.537993 236.177712 
L 303.149335 234.795722 
L 304.231088 231.185322 
L 305.335032 225.825143 
L 305.335032 225.825143 
L 306.634934 217.424623 
L 306.634934 217.424623 
L 307.473656 210.995903 
L 308.869686 197.89503 
L 310.73456 176.577314 
L 312.762059 152.859055 
L 313.834834 142.831374 
L 314.940181 134.29413 
L 316.303074 125.521831 
L 317.93651 116.59446 
L 317.93651 116.59446 
L 319.612144 108.288036 
L 325.143205 81.690566 
L 326.19426 76.711215 
L 327.258036 72.613502 
L 328.332282 69.241326 
L 329.415145 66.466224 
L 330.505098 64.182479 
L 331.600887 62.303091 
L 332.977273 60.414653 
L 334.35955 58.934477 
L 335.746446 57.7743 
L 335.746446 57.7743 
L 337.415426 56.708171 
L 339.088306 55.912264 
L 339.088306 55.912264 
L 340.764096 55.318087 
L 341.043429 55.786205 
L 341.322119 57.148457 
L 341.322119 57.148457 
L 342.149469 64.109568 
L 342.692072 70.077805 
L 346.689421 122.625577 
L 348.925877 145.681212 
L 349.567419 151.588209 
L 352.228175 170.643824 
L 353.210693 176.004101 
L 353.210693 176.004101 
L 353.79181 178.65634 
L 354.940178 182.46269 
L 355.886863 184.585676 
L 356.639871 185.611598 
L 357.203122 186.04299 
L 357.203122 186.04299 
L 357.953149 186.294889 
L 358.702604 186.523996 
L 360.384563 187.657314 
L 362.243906 189.3127 
L 362.243906 189.3127 
L 364.088209 192.017652 
L 366.092312 195.533317 
L 369.309221 201.859592 
L 369.837719 202.717363 
L 370.889749 204.216674 
L 370.889749 204.216674 
L 372.110506 205.38791 
L 372.979806 205.776612 
L 372.979806 205.776612 
L 373.848253 205.883485 
L 374.716673 205.810458 
L 375.585747 205.508066 
L 376.10791 205.133904 
L 376.980537 204.106147 
L 377.506154 203.250212 
L 378.564042 200.868691 
L 378.564042 200.868691 
L 379.633801 197.622344 
L 381.084811 192.00253 
L 382.760243 183.921064 
L 383.714774 178.598981 
L 383.714774 178.598981 
L 385.085388 170.044379 
L 386.707947 158.562464 
L 389.276925 137.413186 
L 391.332903 117.845506 
L 391.332903 117.845506 
L 393.273519 98.180965 
L 393.273519 98.180965 
L 394.282442 90.281842 
L 394.282442 90.281842 
L 395.311546 83.781329 
L 395.311546 83.781329 
L 396.35726 78.43179 
L 396.35726 78.43179 
L 397.416642 74.029434 
L 397.416642 74.029434 
L 398.487273 70.406555 
L 398.487273 70.406555 
" style="fill:none;stroke:#ff7f0e;stroke-linecap:square;stroke-width:1.5;"/>
   </g>
   <g id="line2d_15">
    <path clip-path="url(#p2e4f5f3868)" d="M 73.832727 75.173447 
L 74.896465 71.34801 
L 75.96994 68.199901 
L 77.051429 65.609192 
L 78.139513 63.477192 
L 79.507133 61.334926 
L 80.881411 59.655796 
L 82.260908 58.339677 
L 82.260908 58.339677 
L 83.644496 57.308089 
L 85.30897 56.360126 
L 86.976898 55.652434 
L 88.926025 55.05012 
L 88.926025 55.05012 
L 91.435615 54.524012 
L 92.831062 54.317332 
L 93.664736 58.189849 
L 94.757955 67.301392 
L 96.082616 81.859695 
L 97.605493 98.417126 
L 97.605493 98.417126 
L 99.77195 119.162645 
L 102.706838 140.808797 
L 103.358586 144.542739 
L 104.003183 147.83814 
L 104.003183 147.83814 
L 104.640691 151.049781 
L 105.899055 155.609736 
L 106.728993 157.648101 
L 107.759671 159.415919 
L 108.580612 160.272882 
L 109.399735 160.733143 
L 110.217977 160.91742 
L 111.240583 160.8474 
L 112.263891 160.499894 
L 112.263891 160.499894 
L 113.083965 159.844195 
L 113.083965 159.844195 
L 113.906382 158.770758 
L 113.906382 158.770758 
L 114.525522 157.692559 
L 115.563367 155.273942 
L 115.563367 155.273942 
L 116.611133 152.024205 
L 118.099993 146.180055 
L 118.099993 146.180055 
L 119.402471 139.583051 
L 121.643733 125.729203 
L 121.643733 125.729203 
L 123.99218 109.174791 
L 126.972009 87.493501 
L 128.004385 81.486689 
L 129.052052 76.543436 
L 130.112302 72.47543 
L 131.182908 69.127701 
L 132.262035 66.372717 
L 133.348175 64.105528 
L 134.440086 62.239765 
L 135.811552 60.365018 
L 137.188844 58.895572 
L 137.188844 58.895572 
L 138.570704 57.743806 
L 140.23359 56.685406 
L 141.900332 55.895269 
L 143.84845 55.222786 
L 143.84845 55.222786 
L 146.078241 54.688674 
L 146.078241 54.688674 
L 148.868865 54.256496 
L 152.500109 53.933468 
L 157.810925 53.712828 
L 158.64968 53.727188 
L 159.208066 54.755159 
L 159.486589 55.694766 
L 159.486589 55.694766 
L 160.316912 60.269485 
L 160.86436 64.052037 
L 162.205039 76.310246 
L 164.250227 100.298066 
L 167.464237 150.96156 
L 167.464237 150.96156 
L 168.287535 166.39413 
L 168.287535 166.39413 
L 169.811894 193.87515 
L 169.811894 193.87515 
L 172.338313 228.860007 
L 172.956835 235.683227 
L 175.79282 263.814737 
L 176.958074 272.138554 
L 176.958074 272.138554 
L 178.442601 279.586936 
L 178.442601 279.586936 
L 178.805848 280.44033 
L 179.288221 280.991133 
L 179.769575 281.191884 
L 180.250679 281.197627 
L 181.09336 280.837006 
L 181.697286 280.066703 
L 182.549137 278.132862 
L 183.28859 275.646768 
L 183.28859 275.646768 
L 184.040251 272.268915 
L 184.807941 268.098242 
L 184.807941 268.098242 
L 185.462068 264.023387 
L 186.403652 257.496308 
L 186.403652 257.496308 
L 187.955325 245.147363 
L 188.996751 235.640828 
L 190.248517 223.193728 
L 195.049095 172.641582 
L 199.782669 115.91746 
L 200.742692 104.877932 
L 201.730815 95.793051 
L 202.742065 88.316729 
L 203.772346 82.164157 
L 204.818289 77.100952 
L 205.87712 72.934233 
L 206.946557 69.505269 
L 208.024723 66.683434 
L 209.110072 64.361229 
L 210.201333 62.450192 
L 211.572144 60.529953 
L 211.572144 60.529953 
L 212.948924 59.02485 
L 214.330383 57.845135 
L 215.992899 56.761052 
L 215.992899 56.761052 
L 217.659367 55.951742 
L 219.60725 55.262941 
L 221.279174 54.837358 
L 221.835822 56.115805 
L 221.835822 56.115805 
L 222.113226 57.530475 
L 222.663872 62.354616 
L 222.663872 62.354616 
L 224.265206 82.126053 
L 225.281533 98.170324 
L 226.485396 120.198332 
L 230.887092 208.422574 
L 233.407765 244.914776 
L 233.696957 248.293043 
L 234.258997 255.965708 
L 236.328946 278.525253 
L 237.518075 287.443742 
L 238.766257 293.724851 
L 238.766257 293.724851 
L 239.210697 294.72977 
L 239.210697 294.72977 
L 239.65323 295.161927 
L 239.65323 295.161927 
L 239.984604 295.254157 
L 240.536829 295.215575 
L 240.536829 295.215575 
L 241.08968 294.848949 
L 241.311291 294.56964 
L 241.75602 293.734596 
L 242.203619 292.552172 
L 242.654844 291.146829 
L 243.804841 286.025015 
L 245.118372 278.616739 
L 245.118372 278.616739 
L 249.468218 249.67356 
L 253.251389 223.301455 
L 256.825893 195.391633 
L 259.073413 174.714029 
L 260.471757 160.399928 
L 261.728618 147.944369 
L 261.728618 147.944369 
L 262.373426 144.381042 
L 262.806758 142.89061 
L 263.024001 142.58117 
L 263.458772 142.483975 
L 263.458772 142.483975 
L 263.892593 143.864513 
L 264.323312 147.289566 
L 264.323312 147.289566 
L 264.748947 151.087366 
L 266.387574 169.95427 
L 267.549725 182.884614 
L 267.549725 182.884614 
L 268.477494 192.836078 
L 272.216734 225.421429 
L 273.466528 234.159585 
L 274.224996 238.534189 
L 274.224996 238.534189 
L 274.821063 241.6069 
L 274.821063 241.6069 
L 275.701756 244.848061 
L 276.137656 245.985417 
L 276.571566 246.790201 
L 276.571566 246.790201 
L 277.14817 247.368796 
L 277.14817 247.368796 
L 277.723635 247.630959 
L 277.723635 247.630959 
L 278.154933 247.662619 
L 278.730079 247.561035 
L 279.30576 247.282048 
L 280.027147 246.528436 
L 280.027147 246.528436 
L 280.897558 244.956568 
L 281.628828 243.150122 
L 282.516091 240.361479 
L 284.639803 232.024777 
L 288.170291 214.924361 
L 289.695178 207.082333 
L 290.387751 204.505697 
L 291.085942 203.037695 
L 291.611553 202.568984 
L 291.962314 202.521733 
L 292.137679 202.551501 
L 292.137679 202.551501 
L 292.662522 203.868133 
L 293.010595 205.132269 
L 293.52901 207.302807 
L 293.52901 207.302807 
L 294.551001 212.273378 
L 295.054238 214.597017 
L 296.369878 221.57832 
L 296.853714 223.761791 
L 296.853714 223.761791 
L 298.119349 230.209977 
L 298.119349 230.209977 
L 299.81037 236.055348 
L 300.416343 237.093767 
L 300.869333 237.53502 
L 301.472309 237.819816 
L 302.225729 237.711205 
L 302.829154 237.310453 
L 303.585912 236.283574 
L 303.585912 236.283574 
L 304.653695 233.823477 
L 305.737917 229.55487 
L 307.169488 221.804376 
L 308.491489 211.704059 
L 310.598791 191.498503 
L 313.737723 154.029196 
L 314.802828 143.790572 
L 314.802828 143.790572 
L 315.900933 135.130614 
L 317.027207 127.626663 
L 318.411131 119.705548 
L 318.411131 119.705548 
L 320.305027 110.187969 
L 320.305027 110.187969 
L 327.615115 75.377126 
L 328.678331 71.515626 
L 329.751378 68.337839 
L 330.832515 65.722707 
L 331.920309 63.570608 
L 333.287637 61.408146 
L 334.661687 59.713187 
L 336.041006 58.38466 
L 336.041006 58.38466 
L 337.424454 57.343348 
L 339.088798 56.386448 
L 340.75663 55.672085 
L 341.870009 55.299538 
L 342.148315 55.771184 
L 342.425978 57.136293 
L 343.250271 64.103108 
L 343.790864 70.073569 
L 343.790864 70.073569 
L 347.547077 119.341376 
L 350.652532 151.118014 
L 352.907815 168.185092 
L 352.907815 168.185092 
L 353.894204 174.143964 
L 354.476719 177.117847 
L 354.476719 177.117847 
L 355.626251 181.395002 
L 356.194832 183.143198 
L 356.948318 184.679064 
L 357.698338 185.651759 
L 358.259424 186.064318 
L 358.259424 186.064318 
L 359.006613 186.30406 
L 359.006613 186.30406 
L 359.75326 186.52794 
L 359.75326 186.52794 
L 361.800689 187.893787 
L 363.46663 189.538927 
L 363.46663 189.538927 
L 364.20316 190.540191 
L 364.20316 190.540191 
L 364.936749 191.63884 
L 364.936749 191.63884 
L 365.849218 193.088186 
L 371.554059 203.570803 
L 373.466941 205.500383 
L 373.466941 205.500383 
L 374.159653 205.782247 
L 375.024859 205.885793 
L 376.0631 205.773658 
L 376.755843 205.478754 
L 377.276124 205.108578 
L 378.145587 204.086296 
L 378.66929 203.23306 
L 379.723308 200.855887 
L 379.723308 200.855887 
L 380.432009 198.960694 
L 380.432009 198.960694 
L 381.326261 196.065129 
L 382.232152 192.323305 
L 383.899721 184.127974 
L 385.042327 177.756661 
L 387.419311 161.825815 
L 388.661745 152.462945 
L 390.828674 133.981878 
L 392.429989 118.232615 
L 392.429989 118.232615 
L 394.361594 98.443128 
L 394.361594 98.443128 
L 395.366098 90.497586 
L 395.366098 90.497586 
L 396.390827 83.958874 
L 396.390827 83.958874 
L 397.432201 78.577899 
L 397.432201 78.577899 
L 398.487273 74.149673 
L 398.487273 74.149673 
" style="fill:none;stroke:#2ca02c;stroke-linecap:square;stroke-width:1.5;"/>
   </g>
   <g id="patch_3">
    <path d="M 57.6 307.584 
L 57.6 41.472 
" style="fill:none;stroke:#000000;stroke-linecap:square;stroke-linejoin:miter;stroke-width:0.8;"/>
   </g>
   <g id="patch_4">
    <path d="M 414.72 307.584 
L 414.72 41.472 
" style="fill:none;stroke:#000000;stroke-linecap:square;stroke-linejoin:miter;stroke-width:0.8;"/>
   </g>
   <g id="patch_5">
    <path d="M 57.6 307.584 
L 414.72 307.584 
" style="fill:none;stroke:#000000;stroke-linecap:square;stroke-linejoin:miter;stroke-width:0.8;"/>
   </g>
   <g id="patch_6">
    <path d="M 57.6 41.472 
L 414.72 41.472 
" style="fill:none;stroke:#000000;stroke-linecap:square;stroke-linejoin:miter;stroke-width:0.8;"/>
   </g>
   <g id="text_13">
    <!-- aut speed -->
    <g transform="translate(206.294062 35.472)scale(0.12 -0.12)">
     <defs>
      <path d="M 34.28125 27.484375 
Q 23.390625 27.484375 19.1875 25 
Q 14.984375 22.515625 14.984375 16.5 
Q 14.984375 11.71875 18.140625 8.90625 
Q 21.296875 6.109375 26.703125 6.109375 
Q 34.1875 6.109375 38.703125 11.40625 
Q 43.21875 16.703125 43.21875 25.484375 
L 43.21875 27.484375 
z
M 52.203125 31.203125 
L 52.203125 0 
L 43.21875 0 
L 43.21875 8.296875 
Q 40.140625 3.328125 35.546875 0.953125 
Q 30.953125 -1.421875 24.3125 -1.421875 
Q 15.921875 -1.421875 10.953125 3.296875 
Q 6 8.015625 6 15.921875 
Q 6 25.140625 12.171875 29.828125 
Q 18.359375 34.515625 30.609375 34.515625 
L 43.21875 34.515625 
L 43.21875 35.40625 
Q 43.21875 41.609375 39.140625 45 
Q 35.0625 48.390625 27.6875 48.390625 
Q 23 48.390625 18.546875 47.265625 
Q 14.109375 46.140625 10.015625 43.890625 
L 10.015625 52.203125 
Q 14.9375 54.109375 19.578125 55.046875 
Q 24.21875 56 28.609375 56 
Q 40.484375 56 46.34375 49.84375 
Q 52.203125 43.703125 52.203125 31.203125 
z
" id="DejaVuSans-97"/>
      <path d="M 8.5 21.578125 
L 8.5 54.6875 
L 17.484375 54.6875 
L 17.484375 21.921875 
Q 17.484375 14.15625 20.5 10.265625 
Q 23.53125 6.390625 29.59375 6.390625 
Q 36.859375 6.390625 41.078125 11.03125 
Q 45.3125 15.671875 45.3125 23.6875 
L 45.3125 54.6875 
L 54.296875 54.6875 
L 54.296875 0 
L 45.3125 0 
L 45.3125 8.40625 
Q 42.046875 3.421875 37.71875 1 
Q 33.40625 -1.421875 27.6875 -1.421875 
Q 18.265625 -1.421875 13.375 4.4375 
Q 8.5 10.296875 8.5 21.578125 
z
M 31.109375 56 
z
" id="DejaVuSans-117"/>
      <path d="M 18.3125 70.21875 
L 18.3125 54.6875 
L 36.8125 54.6875 
L 36.8125 47.703125 
L 18.3125 47.703125 
L 18.3125 18.015625 
Q 18.3125 11.328125 20.140625 9.421875 
Q 21.96875 7.515625 27.59375 7.515625 
L 36.8125 7.515625 
L 36.8125 0 
L 27.59375 0 
Q 17.1875 0 13.234375 3.875 
Q 9.28125 7.765625 9.28125 18.015625 
L 9.28125 47.703125 
L 2.6875 47.703125 
L 2.6875 54.6875 
L 9.28125 54.6875 
L 9.28125 70.21875 
z
" id="DejaVuSans-116"/>
      <path id="DejaVuSans-32"/>
      <path d="M 44.28125 53.078125 
L 44.28125 44.578125 
Q 40.484375 46.53125 36.375 47.5 
Q 32.28125 48.484375 27.875 48.484375 
Q 21.1875 48.484375 17.84375 46.4375 
Q 14.5 44.390625 14.5 40.28125 
Q 14.5 37.15625 16.890625 35.375 
Q 19.28125 33.59375 26.515625 31.984375 
L 29.59375 31.296875 
Q 39.15625 29.25 43.1875 25.515625 
Q 47.21875 21.78125 47.21875 15.09375 
Q 47.21875 7.46875 41.1875 3.015625 
Q 35.15625 -1.421875 24.609375 -1.421875 
Q 20.21875 -1.421875 15.453125 -0.5625 
Q 10.6875 0.296875 5.421875 2 
L 5.421875 11.28125 
Q 10.40625 8.6875 15.234375 7.390625 
Q 20.0625 6.109375 24.8125 6.109375 
Q 31.15625 6.109375 34.5625 8.28125 
Q 37.984375 10.453125 37.984375 14.40625 
Q 37.984375 18.0625 35.515625 20.015625 
Q 33.0625 21.96875 24.703125 23.78125 
L 21.578125 24.515625 
Q 13.234375 26.265625 9.515625 29.90625 
Q 5.8125 33.546875 5.8125 39.890625 
Q 5.8125 47.609375 11.28125 51.796875 
Q 16.75 56 26.8125 56 
Q 31.78125 56 36.171875 55.265625 
Q 40.578125 54.546875 44.28125 53.078125 
z
" id="DejaVuSans-115"/>
      <path d="M 18.109375 8.203125 
L 18.109375 -20.796875 
L 9.078125 -20.796875 
L 9.078125 54.6875 
L 18.109375 54.6875 
L 18.109375 46.390625 
Q 20.953125 51.265625 25.265625 53.625 
Q 29.59375 56 35.59375 56 
Q 45.5625 56 51.78125 48.09375 
Q 58.015625 40.1875 58.015625 27.296875 
Q 58.015625 14.40625 51.78125 6.484375 
Q 45.5625 -1.421875 35.59375 -1.421875 
Q 29.59375 -1.421875 25.265625 0.953125 
Q 20.953125 3.328125 18.109375 8.203125 
z
M 48.6875 27.296875 
Q 48.6875 37.203125 44.609375 42.84375 
Q 40.53125 48.484375 33.40625 48.484375 
Q 26.265625 48.484375 22.1875 42.84375 
Q 18.109375 37.203125 18.109375 27.296875 
Q 18.109375 17.390625 22.1875 11.75 
Q 26.265625 6.109375 33.40625 6.109375 
Q 40.53125 6.109375 44.609375 11.75 
Q 48.6875 17.390625 48.6875 27.296875 
z
" id="DejaVuSans-112"/>
      <path d="M 56.203125 29.59375 
L 56.203125 25.203125 
L 14.890625 25.203125 
Q 15.484375 15.921875 20.484375 11.0625 
Q 25.484375 6.203125 34.421875 6.203125 
Q 39.59375 6.203125 44.453125 7.46875 
Q 49.3125 8.734375 54.109375 11.28125 
L 54.109375 2.78125 
Q 49.265625 0.734375 44.1875 -0.34375 
Q 39.109375 -1.421875 33.890625 -1.421875 
Q 20.796875 -1.421875 13.15625 6.1875 
Q 5.515625 13.8125 5.515625 26.8125 
Q 5.515625 40.234375 12.765625 48.109375 
Q 20.015625 56 32.328125 56 
Q 43.359375 56 49.78125 48.890625 
Q 56.203125 41.796875 56.203125 29.59375 
z
M 47.21875 32.234375 
Q 47.125 39.59375 43.09375 43.984375 
Q 39.0625 48.390625 32.421875 48.390625 
Q 24.90625 48.390625 20.390625 44.140625 
Q 15.875 39.890625 15.1875 32.171875 
z
" id="DejaVuSans-101"/>
      <path d="M 45.40625 46.390625 
L 45.40625 75.984375 
L 54.390625 75.984375 
L 54.390625 0 
L 45.40625 0 
L 45.40625 8.203125 
Q 42.578125 3.328125 38.25 0.953125 
Q 33.9375 -1.421875 27.875 -1.421875 
Q 17.96875 -1.421875 11.734375 6.484375 
Q 5.515625 14.40625 5.515625 27.296875 
Q 5.515625 40.1875 11.734375 48.09375 
Q 17.96875 56 27.875 56 
Q 33.9375 56 38.25 53.625 
Q 42.578125 51.265625 45.40625 46.390625 
z
M 14.796875 27.296875 
Q 14.796875 17.390625 18.875 11.75 
Q 22.953125 6.109375 30.078125 6.109375 
Q 37.203125 6.109375 41.296875 11.75 
Q 45.40625 17.390625 45.40625 27.296875 
Q 45.40625 37.203125 41.296875 42.84375 
Q 37.203125 48.484375 30.078125 48.484375 
Q 22.953125 48.484375 18.875 42.84375 
Q 14.796875 37.203125 14.796875 27.296875 
z
" id="DejaVuSans-100"/>
     </defs>
     <use xlink:href="#DejaVuSans-97"/>
     <use x="61.279297" xlink:href="#DejaVuSans-117"/>
     <use x="124.658203" xlink:href="#DejaVuSans-116"/>
     <use x="163.867188" xlink:href="#DejaVuSans-32"/>
     <use x="195.654297" xlink:href="#DejaVuSans-115"/>
     <use x="247.753906" xlink:href="#DejaVuSans-112"/>
     <use x="311.230469" xlink:href="#DejaVuSans-101"/>
     <use x="372.753906" xlink:href="#DejaVuSans-101"/>
     <use x="434.277344" xlink:href="#DejaVuSans-100"/>
    </g>
   </g>
   <g id="legend_1">
    <g id="patch_7">
     <path d="M 64.6 302.584 
L 156.557813 302.584 
Q 158.557813 302.584 158.557813 300.584 
L 158.557813 257.549625 
Q 158.557813 255.549625 156.557813 255.549625 
L 64.6 255.549625 
Q 62.6 255.549625 62.6 257.549625 
L 62.6 300.584 
Q 62.6 302.584 64.6 302.584 
z
" style="fill:#ffffff;opacity:0.8;stroke:#cccccc;stroke-linejoin:miter;"/>
    </g>
    <g id="line2d_16">
     <path d="M 66.6 263.648062 
L 86.6 263.648062 
" style="fill:none;stroke:#1f77b4;stroke-linecap:square;stroke-width:1.5;"/>
    </g>
    <g id="line2d_17"/>
    <g id="text_14">
     <!-- Waypoints -->
     <g transform="translate(94.6 267.148062)scale(0.1 -0.1)">
      <defs>
       <path d="M 3.328125 72.90625 
L 13.28125 72.90625 
L 28.609375 11.28125 
L 43.890625 72.90625 
L 54.984375 72.90625 
L 70.3125 11.28125 
L 85.59375 72.90625 
L 95.609375 72.90625 
L 77.296875 0 
L 64.890625 0 
L 49.515625 63.28125 
L 33.984375 0 
L 21.578125 0 
z
" id="DejaVuSans-87"/>
       <path d="M 32.171875 -5.078125 
Q 28.375 -14.84375 24.75 -17.8125 
Q 21.140625 -20.796875 15.09375 -20.796875 
L 7.90625 -20.796875 
L 7.90625 -13.28125 
L 13.1875 -13.28125 
Q 16.890625 -13.28125 18.9375 -11.515625 
Q 21 -9.765625 23.484375 -3.21875 
L 25.09375 0.875 
L 2.984375 54.6875 
L 12.5 54.6875 
L 29.59375 11.921875 
L 46.6875 54.6875 
L 56.203125 54.6875 
z
" id="DejaVuSans-121"/>
       <path d="M 30.609375 48.390625 
Q 23.390625 48.390625 19.1875 42.75 
Q 14.984375 37.109375 14.984375 27.296875 
Q 14.984375 17.484375 19.15625 11.84375 
Q 23.34375 6.203125 30.609375 6.203125 
Q 37.796875 6.203125 41.984375 11.859375 
Q 46.1875 17.53125 46.1875 27.296875 
Q 46.1875 37.015625 41.984375 42.703125 
Q 37.796875 48.390625 30.609375 48.390625 
z
M 30.609375 56 
Q 42.328125 56 49.015625 48.375 
Q 55.71875 40.765625 55.71875 27.296875 
Q 55.71875 13.875 49.015625 6.21875 
Q 42.328125 -1.421875 30.609375 -1.421875 
Q 18.84375 -1.421875 12.171875 6.21875 
Q 5.515625 13.875 5.515625 27.296875 
Q 5.515625 40.765625 12.171875 48.375 
Q 18.84375 56 30.609375 56 
z
" id="DejaVuSans-111"/>
       <path d="M 9.421875 54.6875 
L 18.40625 54.6875 
L 18.40625 0 
L 9.421875 0 
z
M 9.421875 75.984375 
L 18.40625 75.984375 
L 18.40625 64.59375 
L 9.421875 64.59375 
z
" id="DejaVuSans-105"/>
       <path d="M 54.890625 33.015625 
L 54.890625 0 
L 45.90625 0 
L 45.90625 32.71875 
Q 45.90625 40.484375 42.875 44.328125 
Q 39.84375 48.1875 33.796875 48.1875 
Q 26.515625 48.1875 22.3125 43.546875 
Q 18.109375 38.921875 18.109375 30.90625 
L 18.109375 0 
L 9.078125 0 
L 9.078125 54.6875 
L 18.109375 54.6875 
L 18.109375 46.1875 
Q 21.34375 51.125 25.703125 53.5625 
Q 30.078125 56 35.796875 56 
Q 45.21875 56 50.046875 50.171875 
Q 54.890625 44.34375 54.890625 33.015625 
z
" id="DejaVuSans-110"/>
      </defs>
      <use xlink:href="#DejaVuSans-87"/>
      <use x="92.501953" xlink:href="#DejaVuSans-97"/>
      <use x="153.78125" xlink:href="#DejaVuSans-121"/>
      <use x="212.960938" xlink:href="#DejaVuSans-112"/>
      <use x="276.4375" xlink:href="#DejaVuSans-111"/>
      <use x="337.619141" xlink:href="#DejaVuSans-105"/>
      <use x="365.402344" xlink:href="#DejaVuSans-110"/>
      <use x="428.78125" xlink:href="#DejaVuSans-116"/>
      <use x="467.990234" xlink:href="#DejaVuSans-115"/>
     </g>
    </g>
    <g id="line2d_18">
     <path d="M 66.6 278.326188 
L 86.6 278.326188 
" style="fill:none;stroke:#ff7f0e;stroke-linecap:square;stroke-width:1.5;"/>
    </g>
    <g id="line2d_19"/>
    <g id="text_15">
     <!-- Stanley -->
     <g transform="translate(94.6 281.826188)scale(0.1 -0.1)">
      <defs>
       <path d="M 53.515625 70.515625 
L 53.515625 60.890625 
Q 47.90625 63.578125 42.921875 64.890625 
Q 37.9375 66.21875 33.296875 66.21875 
Q 25.25 66.21875 20.875 63.09375 
Q 16.5 59.96875 16.5 54.203125 
Q 16.5 49.359375 19.40625 46.890625 
Q 22.3125 44.4375 30.421875 42.921875 
L 36.375 41.703125 
Q 47.40625 39.59375 52.65625 34.296875 
Q 57.90625 29 57.90625 20.125 
Q 57.90625 9.515625 50.796875 4.046875 
Q 43.703125 -1.421875 29.984375 -1.421875 
Q 24.8125 -1.421875 18.96875 -0.25 
Q 13.140625 0.921875 6.890625 3.21875 
L 6.890625 13.375 
Q 12.890625 10.015625 18.65625 8.296875 
Q 24.421875 6.59375 29.984375 6.59375 
Q 38.421875 6.59375 43.015625 9.90625 
Q 47.609375 13.234375 47.609375 19.390625 
Q 47.609375 24.75 44.3125 27.78125 
Q 41.015625 30.8125 33.5 32.328125 
L 27.484375 33.5 
Q 16.453125 35.6875 11.515625 40.375 
Q 6.59375 45.0625 6.59375 53.421875 
Q 6.59375 63.09375 13.40625 68.65625 
Q 20.21875 74.21875 32.171875 74.21875 
Q 37.3125 74.21875 42.625 73.28125 
Q 47.953125 72.359375 53.515625 70.515625 
z
" id="DejaVuSans-83"/>
       <path d="M 9.421875 75.984375 
L 18.40625 75.984375 
L 18.40625 0 
L 9.421875 0 
z
" id="DejaVuSans-108"/>
      </defs>
      <use xlink:href="#DejaVuSans-83"/>
      <use x="63.476562" xlink:href="#DejaVuSans-116"/>
      <use x="102.685547" xlink:href="#DejaVuSans-97"/>
      <use x="163.964844" xlink:href="#DejaVuSans-110"/>
      <use x="227.34375" xlink:href="#DejaVuSans-108"/>
      <use x="255.126953" xlink:href="#DejaVuSans-101"/>
      <use x="316.650391" xlink:href="#DejaVuSans-121"/>
     </g>
    </g>
    <g id="line2d_20">
     <path d="M 66.6 293.004312 
L 86.6 293.004312 
" style="fill:none;stroke:#2ca02c;stroke-linecap:square;stroke-width:1.5;"/>
    </g>
    <g id="line2d_21"/>
    <g id="text_16">
     <!-- Pure Pursuit -->
     <g transform="translate(94.6 296.504312)scale(0.1 -0.1)">
      <defs>
       <path d="M 19.671875 64.796875 
L 19.671875 37.40625 
L 32.078125 37.40625 
Q 38.96875 37.40625 42.71875 40.96875 
Q 46.484375 44.53125 46.484375 51.125 
Q 46.484375 57.671875 42.71875 61.234375 
Q 38.96875 64.796875 32.078125 64.796875 
z
M 9.8125 72.90625 
L 32.078125 72.90625 
Q 44.34375 72.90625 50.609375 67.359375 
Q 56.890625 61.8125 56.890625 51.125 
Q 56.890625 40.328125 50.609375 34.8125 
Q 44.34375 29.296875 32.078125 29.296875 
L 19.671875 29.296875 
L 19.671875 0 
L 9.8125 0 
z
" id="DejaVuSans-80"/>
       <path d="M 41.109375 46.296875 
Q 39.59375 47.171875 37.8125 47.578125 
Q 36.03125 48 33.890625 48 
Q 26.265625 48 22.1875 43.046875 
Q 18.109375 38.09375 18.109375 28.8125 
L 18.109375 0 
L 9.078125 0 
L 9.078125 54.6875 
L 18.109375 54.6875 
L 18.109375 46.1875 
Q 20.953125 51.171875 25.484375 53.578125 
Q 30.03125 56 36.53125 56 
Q 37.453125 56 38.578125 55.875 
Q 39.703125 55.765625 41.0625 55.515625 
z
" id="DejaVuSans-114"/>
      </defs>
      <use xlink:href="#DejaVuSans-80"/>
      <use x="58.552734" xlink:href="#DejaVuSans-117"/>
      <use x="121.931641" xlink:href="#DejaVuSans-114"/>
      <use x="160.794922" xlink:href="#DejaVuSans-101"/>
      <use x="222.318359" xlink:href="#DejaVuSans-32"/>
      <use x="254.105469" xlink:href="#DejaVuSans-80"/>
      <use x="312.658203" xlink:href="#DejaVuSans-117"/>
      <use x="376.037109" xlink:href="#DejaVuSans-114"/>
      <use x="417.150391" xlink:href="#DejaVuSans-115"/>
      <use x="469.25" xlink:href="#DejaVuSans-117"/>
      <use x="532.628906" xlink:href="#DejaVuSans-105"/>
      <use x="560.412109" xlink:href="#DejaVuSans-116"/>
     </g>
    </g>
   </g>
  </g>
 </g>
 <defs>
  <clipPath id="p2e4f5f3868">
   <rect height="266.112" width="357.12" x="57.6" y="41.472"/>
  </clipPath>
 </defs>
</svg>
