<?xml version="1.0" encoding="utf-8" standalone="no"?>
<!DOCTYPE svg PUBLIC "-//W3C//DTD SVG 1.1//EN"
  "http://www.w3.org/Graphics/SVG/1.1/DTD/svg11.dtd">
<!-- Created with matplotlib (https://matplotlib.org/) -->
<svg height="345.6pt" version="1.1" viewBox="0 0 460.8 345.6" width="460.8pt" xmlns="http://www.w3.org/2000/svg" xmlns:xlink="http://www.w3.org/1999/xlink">
 <metadata>
  <rdf:RDF xmlns:cc="http://creativecommons.org/ns#" xmlns:dc="http://purl.org/dc/elements/1.1/" xmlns:rdf="http://www.w3.org/1999/02/22-rdf-syntax-ns#">
   <cc:Work>
    <dc:type rdf:resource="http://purl.org/dc/dcmitype/StillImage"/>
    <dc:date>2024-10-03T15:12:56.211422</dc:date>
    <dc:format>image/svg+xml</dc:format>
    <dc:creator>
     <cc:Agent>
      <dc:title>Matplotlib v3.3.1, https://matplotlib.org/</dc:title>
     </cc:Agent>
    </dc:creator>
   </cc:Work>
  </rdf:RDF>
 </metadata>
 <defs>
  <style type="text/css">*{stroke-linecap:butt;stroke-linejoin:round;}</style>
 </defs>
 <g id="figure_1">
  <g id="patch_1">
   <path d="M 0 345.6 
L 460.8 345.6 
L 460.8 0 
L 0 0 
z
" style="fill:#ffffff;"/>
  </g>
  <g id="axes_1">
   <g id="patch_2">
    <path d="M 57.6 307.584 
L 414.72 307.584 
L 414.72 41.472 
L 57.6 41.472 
z
" style="fill:#ffffff;"/>
   </g>
   <g id="matplotlib.axis_1">
    <g id="xtick_1">
     <g id="line2d_1">
      <defs>
       <path d="M 0 0 
L 0 3.5 
" id="m72346f8df6" style="stroke:#000000;stroke-width:0.8;"/>
      </defs>
      <g>
       <use style="stroke:#000000;stroke-width:0.8;" x="73.832727" xlink:href="#m72346f8df6" y="307.584"/>
      </g>
     </g>
     <g id="text_1">
      <!-- 0.0 -->
      <g transform="translate(65.881165 322.182437)scale(0.1 -0.1)">
       <defs>
        <path d="M 31.78125 66.40625 
Q 24.171875 66.40625 20.328125 58.90625 
Q 16.5 51.421875 16.5 36.375 
Q 16.5 21.390625 20.328125 13.890625 
Q 24.171875 6.390625 31.78125 6.390625 
Q 39.453125 6.390625 43.28125 13.890625 
Q 47.125 21.390625 47.125 36.375 
Q 47.125 51.421875 43.28125 58.90625 
Q 39.453125 66.40625 31.78125 66.40625 
z
M 31.78125 74.21875 
Q 44.046875 74.21875 50.515625 64.515625 
Q 56.984375 54.828125 56.984375 36.375 
Q 56.984375 17.96875 50.515625 8.265625 
Q 44.046875 -1.421875 31.78125 -1.421875 
Q 19.53125 -1.421875 13.0625 8.265625 
Q 6.59375 17.96875 6.59375 36.375 
Q 6.59375 54.828125 13.0625 64.515625 
Q 19.53125 74.21875 31.78125 74.21875 
z
" id="DejaVuSans-48"/>
        <path d="M 10.6875 12.40625 
L 21 12.40625 
L 21 0 
L 10.6875 0 
z
" id="DejaVuSans-46"/>
       </defs>
       <use xlink:href="#DejaVuSans-48"/>
       <use x="63.623047" xlink:href="#DejaVuSans-46"/>
       <use x="95.410156" xlink:href="#DejaVuSans-48"/>
      </g>
     </g>
    </g>
    <g id="xtick_2">
     <g id="line2d_2">
      <g>
       <use style="stroke:#000000;stroke-width:0.8;" x="138.763636" xlink:href="#m72346f8df6" y="307.584"/>
      </g>
     </g>
     <g id="text_2">
      <!-- 0.2 -->
      <g transform="translate(130.812074 322.182437)scale(0.1 -0.1)">
       <defs>
        <path d="M 19.1875 8.296875 
L 53.609375 8.296875 
L 53.609375 0 
L 7.328125 0 
L 7.328125 8.296875 
Q 12.9375 14.109375 22.625 23.890625 
Q 32.328125 33.6875 34.8125 36.53125 
Q 39.546875 41.84375 41.421875 45.53125 
Q 43.3125 49.21875 43.3125 52.78125 
Q 43.3125 58.59375 39.234375 62.25 
Q 35.15625 65.921875 28.609375 65.921875 
Q 23.96875 65.921875 18.8125 64.3125 
Q 13.671875 62.703125 7.8125 59.421875 
L 7.8125 69.390625 
Q 13.765625 71.78125 18.9375 73 
Q 24.125 74.21875 28.421875 74.21875 
Q 39.75 74.21875 46.484375 68.546875 
Q 53.21875 62.890625 53.21875 53.421875 
Q 53.21875 48.921875 51.53125 44.890625 
Q 49.859375 40.875 45.40625 35.40625 
Q 44.1875 33.984375 37.640625 27.21875 
Q 31.109375 20.453125 19.1875 8.296875 
z
" id="DejaVuSans-50"/>
       </defs>
       <use xlink:href="#DejaVuSans-48"/>
       <use x="63.623047" xlink:href="#DejaVuSans-46"/>
       <use x="95.410156" xlink:href="#DejaVuSans-50"/>
      </g>
     </g>
    </g>
    <g id="xtick_3">
     <g id="line2d_3">
      <g>
       <use style="stroke:#000000;stroke-width:0.8;" x="203.694545" xlink:href="#m72346f8df6" y="307.584"/>
      </g>
     </g>
     <g id="text_3">
      <!-- 0.4 -->
      <g transform="translate(195.742983 322.182437)scale(0.1 -0.1)">
       <defs>
        <path d="M 37.796875 64.3125 
L 12.890625 25.390625 
L 37.796875 25.390625 
z
M 35.203125 72.90625 
L 47.609375 72.90625 
L 47.609375 25.390625 
L 58.015625 25.390625 
L 58.015625 17.1875 
L 47.609375 17.1875 
L 47.609375 0 
L 37.796875 0 
L 37.796875 17.1875 
L 4.890625 17.1875 
L 4.890625 26.703125 
z
" id="DejaVuSans-52"/>
       </defs>
       <use xlink:href="#DejaVuSans-48"/>
       <use x="63.623047" xlink:href="#DejaVuSans-46"/>
       <use x="95.410156" xlink:href="#DejaVuSans-52"/>
      </g>
     </g>
    </g>
    <g id="xtick_4">
     <g id="line2d_4">
      <g>
       <use style="stroke:#000000;stroke-width:0.8;" x="268.625455" xlink:href="#m72346f8df6" y="307.584"/>
      </g>
     </g>
     <g id="text_4">
      <!-- 0.6 -->
      <g transform="translate(260.673892 322.182437)scale(0.1 -0.1)">
       <defs>
        <path d="M 33.015625 40.375 
Q 26.375 40.375 22.484375 35.828125 
Q 18.609375 31.296875 18.609375 23.390625 
Q 18.609375 15.53125 22.484375 10.953125 
Q 26.375 6.390625 33.015625 6.390625 
Q 39.65625 6.390625 43.53125 10.953125 
Q 47.40625 15.53125 47.40625 23.390625 
Q 47.40625 31.296875 43.53125 35.828125 
Q 39.65625 40.375 33.015625 40.375 
z
M 52.59375 71.296875 
L 52.59375 62.3125 
Q 48.875 64.0625 45.09375 64.984375 
Q 41.3125 65.921875 37.59375 65.921875 
Q 27.828125 65.921875 22.671875 59.328125 
Q 17.53125 52.734375 16.796875 39.40625 
Q 19.671875 43.65625 24.015625 45.921875 
Q 28.375 48.1875 33.59375 48.1875 
Q 44.578125 48.1875 50.953125 41.515625 
Q 57.328125 34.859375 57.328125 23.390625 
Q 57.328125 12.15625 50.6875 5.359375 
Q 44.046875 -1.421875 33.015625 -1.421875 
Q 20.359375 -1.421875 13.671875 8.265625 
Q 6.984375 17.96875 6.984375 36.375 
Q 6.984375 53.65625 15.1875 63.9375 
Q 23.390625 74.21875 37.203125 74.21875 
Q 40.921875 74.21875 44.703125 73.484375 
Q 48.484375 72.75 52.59375 71.296875 
z
" id="DejaVuSans-54"/>
       </defs>
       <use xlink:href="#DejaVuSans-48"/>
       <use x="63.623047" xlink:href="#DejaVuSans-46"/>
       <use x="95.410156" xlink:href="#DejaVuSans-54"/>
      </g>
     </g>
    </g>
    <g id="xtick_5">
     <g id="line2d_5">
      <g>
       <use style="stroke:#000000;stroke-width:0.8;" x="333.556364" xlink:href="#m72346f8df6" y="307.584"/>
      </g>
     </g>
     <g id="text_5">
      <!-- 0.8 -->
      <g transform="translate(325.604801 322.182437)scale(0.1 -0.1)">
       <defs>
        <path d="M 31.78125 34.625 
Q 24.75 34.625 20.71875 30.859375 
Q 16.703125 27.09375 16.703125 20.515625 
Q 16.703125 13.921875 20.71875 10.15625 
Q 24.75 6.390625 31.78125 6.390625 
Q 38.8125 6.390625 42.859375 10.171875 
Q 46.921875 13.96875 46.921875 20.515625 
Q 46.921875 27.09375 42.890625 30.859375 
Q 38.875 34.625 31.78125 34.625 
z
M 21.921875 38.8125 
Q 15.578125 40.375 12.03125 44.71875 
Q 8.5 49.078125 8.5 55.328125 
Q 8.5 64.0625 14.71875 69.140625 
Q 20.953125 74.21875 31.78125 74.21875 
Q 42.671875 74.21875 48.875 69.140625 
Q 55.078125 64.0625 55.078125 55.328125 
Q 55.078125 49.078125 51.53125 44.71875 
Q 48 40.375 41.703125 38.8125 
Q 48.828125 37.15625 52.796875 32.3125 
Q 56.78125 27.484375 56.78125 20.515625 
Q 56.78125 9.90625 50.3125 4.234375 
Q 43.84375 -1.421875 31.78125 -1.421875 
Q 19.734375 -1.421875 13.25 4.234375 
Q 6.78125 9.90625 6.78125 20.515625 
Q 6.78125 27.484375 10.78125 32.3125 
Q 14.796875 37.15625 21.921875 38.8125 
z
M 18.3125 54.390625 
Q 18.3125 48.734375 21.84375 45.5625 
Q 25.390625 42.390625 31.78125 42.390625 
Q 38.140625 42.390625 41.71875 45.5625 
Q 45.3125 48.734375 45.3125 54.390625 
Q 45.3125 60.0625 41.71875 63.234375 
Q 38.140625 66.40625 31.78125 66.40625 
Q 25.390625 66.40625 21.84375 63.234375 
Q 18.3125 60.0625 18.3125 54.390625 
z
" id="DejaVuSans-56"/>
       </defs>
       <use xlink:href="#DejaVuSans-48"/>
       <use x="63.623047" xlink:href="#DejaVuSans-46"/>
       <use x="95.410156" xlink:href="#DejaVuSans-56"/>
      </g>
     </g>
    </g>
    <g id="xtick_6">
     <g id="line2d_6">
      <g>
       <use style="stroke:#000000;stroke-width:0.8;" x="398.487273" xlink:href="#m72346f8df6" y="307.584"/>
      </g>
     </g>
     <g id="text_6">
      <!-- 1.0 -->
      <g transform="translate(390.53571 322.182437)scale(0.1 -0.1)">
       <defs>
        <path d="M 12.40625 8.296875 
L 28.515625 8.296875 
L 28.515625 63.921875 
L 10.984375 60.40625 
L 10.984375 69.390625 
L 28.421875 72.90625 
L 38.28125 72.90625 
L 38.28125 8.296875 
L 54.390625 8.296875 
L 54.390625 0 
L 12.40625 0 
z
" id="DejaVuSans-49"/>
       </defs>
       <use xlink:href="#DejaVuSans-49"/>
       <use x="63.623047" xlink:href="#DejaVuSans-46"/>
       <use x="95.410156" xlink:href="#DejaVuSans-48"/>
      </g>
     </g>
    </g>
   </g>
   <g id="matplotlib.axis_2">
    <g id="ytick_1">
     <g id="line2d_7">
      <defs>
       <path d="M 0 0 
L -3.5 0 
" id="m05a0978881" style="stroke:#000000;stroke-width:0.8;"/>
      </defs>
      <g>
       <use style="stroke:#000000;stroke-width:0.8;" x="57.6" xlink:href="#m05a0978881" y="290.109829"/>
      </g>
     </g>
     <g id="text_7">
      <!-- −3 -->
      <g transform="translate(35.857813 293.909048)scale(0.1 -0.1)">
       <defs>
        <path d="M 10.59375 35.5 
L 73.1875 35.5 
L 73.1875 27.203125 
L 10.59375 27.203125 
z
" id="DejaVuSans-8722"/>
        <path d="M 40.578125 39.3125 
Q 47.65625 37.796875 51.625 33 
Q 55.609375 28.21875 55.609375 21.1875 
Q 55.609375 10.40625 48.1875 4.484375 
Q 40.765625 -1.421875 27.09375 -1.421875 
Q 22.515625 -1.421875 17.65625 -0.515625 
Q 12.796875 0.390625 7.625 2.203125 
L 7.625 11.71875 
Q 11.71875 9.328125 16.59375 8.109375 
Q 21.484375 6.890625 26.8125 6.890625 
Q 36.078125 6.890625 40.9375 10.546875 
Q 45.796875 14.203125 45.796875 21.1875 
Q 45.796875 27.640625 41.28125 31.265625 
Q 36.765625 34.90625 28.71875 34.90625 
L 20.21875 34.90625 
L 20.21875 43.015625 
L 29.109375 43.015625 
Q 36.375 43.015625 40.234375 45.921875 
Q 44.09375 48.828125 44.09375 54.296875 
Q 44.09375 59.90625 40.109375 62.90625 
Q 36.140625 65.921875 28.71875 65.921875 
Q 24.65625 65.921875 20.015625 65.03125 
Q 15.375 64.15625 9.8125 62.3125 
L 9.8125 71.09375 
Q 15.4375 72.65625 20.34375 73.4375 
Q 25.25 74.21875 29.59375 74.21875 
Q 40.828125 74.21875 47.359375 69.109375 
Q 53.90625 64.015625 53.90625 55.328125 
Q 53.90625 49.265625 50.4375 45.09375 
Q 46.96875 40.921875 40.578125 39.3125 
z
" id="DejaVuSans-51"/>
       </defs>
       <use xlink:href="#DejaVuSans-8722"/>
       <use x="83.789062" xlink:href="#DejaVuSans-51"/>
      </g>
     </g>
    </g>
    <g id="ytick_2">
     <g id="line2d_8">
      <g>
       <use style="stroke:#000000;stroke-width:0.8;" x="57.6" xlink:href="#m05a0978881" y="251.590131"/>
      </g>
     </g>
     <g id="text_8">
      <!-- −2 -->
      <g transform="translate(35.857813 255.38935)scale(0.1 -0.1)">
       <use xlink:href="#DejaVuSans-8722"/>
       <use x="83.789062" xlink:href="#DejaVuSans-50"/>
      </g>
     </g>
    </g>
    <g id="ytick_3">
     <g id="line2d_9">
      <g>
       <use style="stroke:#000000;stroke-width:0.8;" x="57.6" xlink:href="#m05a0978881" y="213.070434"/>
      </g>
     </g>
     <g id="text_9">
      <!-- −1 -->
      <g transform="translate(35.857813 216.869653)scale(0.1 -0.1)">
       <use xlink:href="#DejaVuSans-8722"/>
       <use x="83.789062" xlink:href="#DejaVuSans-49"/>
      </g>
     </g>
    </g>
    <g id="ytick_4">
     <g id="line2d_10">
      <g>
       <use style="stroke:#000000;stroke-width:0.8;" x="57.6" xlink:href="#m05a0978881" y="174.550736"/>
      </g>
     </g>
     <g id="text_10">
      <!-- 0 -->
      <g transform="translate(44.2375 178.349955)scale(0.1 -0.1)">
       <use xlink:href="#DejaVuSans-48"/>
      </g>
     </g>
    </g>
    <g id="ytick_5">
     <g id="line2d_11">
      <g>
       <use style="stroke:#000000;stroke-width:0.8;" x="57.6" xlink:href="#m05a0978881" y="136.031039"/>
      </g>
     </g>
     <g id="text_11">
      <!-- 1 -->
      <g transform="translate(44.2375 139.830257)scale(0.1 -0.1)">
       <use xlink:href="#DejaVuSans-49"/>
      </g>
     </g>
    </g>
    <g id="ytick_6">
     <g id="line2d_12">
      <g>
       <use style="stroke:#000000;stroke-width:0.8;" x="57.6" xlink:href="#m05a0978881" y="97.511341"/>
      </g>
     </g>
     <g id="text_12">
      <!-- 2 -->
      <g transform="translate(44.2375 101.31056)scale(0.1 -0.1)">
       <use xlink:href="#DejaVuSans-50"/>
      </g>
     </g>
    </g>
    <g id="ytick_7">
     <g id="line2d_13">
      <g>
       <use style="stroke:#000000;stroke-width:0.8;" x="57.6" xlink:href="#m05a0978881" y="58.991643"/>
      </g>
     </g>
     <g id="text_13">
      <!-- 3 -->
      <g transform="translate(44.2375 62.790862)scale(0.1 -0.1)">
       <use xlink:href="#DejaVuSans-51"/>
      </g>
     </g>
    </g>
   </g>
   <g id="line2d_14">
    <path clip-path="url(#p448d4103b3)" d="M 73.832727 174.561917 
L 93.24359 174.618608 
L 94.655289 174.940973 
L 95.714061 175.53021 
L 96.772833 176.346202 
L 98.184525 177.724767 
L 99.94913 179.896342 
L 101.360809 181.99767 
L 102.77248 184.448383 
L 104.18414 187.269424 
L 105.595786 190.485512 
L 107.007409 194.193385 
L 110.183557 203.293703 
L 112.301014 208.175567 
L 114.065571 211.611707 
L 115.477238 213.979835 
L 116.888911 216.033782 
L 118.300592 217.781276 
L 119.712279 219.174965 
L 121.829814 220.947666 
L 124.300276 222.749681 
L 127.123662 224.485662 
L 129.594128 225.70842 
L 131.711673 226.545559 
L 133.82922 227.181897 
L 135.946768 227.62626 
L 138.064316 227.871071 
L 140.181865 227.918328 
L 142.299413 227.767444 
L 144.416961 227.417802 
L 146.534507 226.868754 
L 148.652052 226.120171 
L 150.769594 225.171164 
L 153.240058 223.812209 
L 155.710513 222.174917 
L 162.416034 217.423005 
L 165.592338 215.544564 
L 166.65111 215.125403 
L 167.35696 215.113396 
L 168.062808 215.373983 
L 168.768652 215.917886 
L 169.474487 216.751794 
L 170.180307 217.921679 
L 171.238948 220.387709 
L 172.297621 223.422538 
L 173.709035 228.355146 
L 175.120291 234.479506 
L 176.5313 242.081255 
L 177.58888 249.29284 
L 180.057328 267.287228 
L 183.584367 287.754071 
L 184.995516 294.110695 
L 185.348243 295.476181 
L 185.701168 54.758945 
L 186.759683 58.092145 
L 187.81838 60.71534 
L 189.229969 63.526163 
L 190.641597 65.778584 
L 192.053252 67.542446 
L 193.464926 68.847036 
L 194.523689 69.518002 
L 195.582462 69.948341 
L 196.994159 70.244748 
L 199.111708 70.407848 
L 201.935106 70.412101 
L 205.111429 70.181705 
L 208.28775 69.7119 
L 211.46407 68.998042 
L 219.934253 66.8413 
L 223.463499 66.283044 
L 227.345671 65.902771 
L 228.404445 65.872141 
L 229.110292 66.106975 
L 229.816128 66.686143 
L 230.521949 67.58145 
L 231.58068 69.39708 
L 232.6393 71.805674 
L 233.697948 74.905245 
L 234.756326 78.772064 
L 235.814801 83.523233 
L 236.87275 89.110833 
L 237.93091 95.941656 
L 239.340834 107.116723 
L 242.159721 131.472837 
L 243.570078 140.780067 
L 244.980811 148.71218 
L 246.744397 157.24588 
L 248.508514 164.56462 
L 250.272573 170.870045 
L 252.036925 176.240249 
L 253.448421 179.871542 
L 254.859977 182.919735 
L 256.27158 185.398479 
L 257.330297 186.875419 
L 258.389054 188.015476 
L 259.44781 188.843983 
L 260.506581 189.356165 
L 261.565354 189.556093 
L 262.271203 189.4946 
L 263.329976 189.109351 
L 264.388738 188.421503 
L 265.800411 187.121491 
L 267.212064 185.381513 
L 268.270804 183.728009 
L 269.329479 181.745441 
L 270.741024 178.519526 
L 272.152493 174.562781 
L 273.56386 169.801082 
L 274.975101 164.167882 
L 276.386188 157.632453 
L 277.79709 150.15408 
L 279.913487 138.87804 
L 281.67755 130.888131 
L 283.441517 123.814744 
L 285.205807 117.606647 
L 286.970039 112.098591 
L 288.734462 107.2467 
L 293.674784 94.226188 
L 295.791993 87.839835 
L 297.203414 83.047444 
L 298.967488 76.268182 
L 300.731654 68.620239 
L 303.906666 53.842705 
L 304.259591 294.563311 
L 305.31809 290.997378 
L 306.729615 287.103225 
L 307.788333 284.833511 
L 308.847041 283.092939 
L 309.905801 281.964157 
L 310.611644 281.543768 
L 311.317492 281.407709 
L 312.023342 281.5563 
L 312.729189 281.989322 
L 313.43503 282.712993 
L 314.140861 283.728374 
L 317.669957 289.524659 
L 320.140345 292.989618 
L 321.904936 295.184199 
L 322.257846 53.568 
L 324.728285 56.176645 
L 326.845808 58.088734 
L 328.963338 59.696065 
L 330.72795 60.804515 
L 332.845492 61.854831 
L 334.963037 62.610604 
L 336.72766 62.967092 
L 339.903983 63.333388 
L 343.080306 63.447116 
L 344.492005 63.550338 
L 345.197854 63.76992 
L 346.256624 64.340698 
L 347.668313 65.475674 
L 349.079993 67.007296 
L 350.491663 68.948131 
L 351.903321 71.29906 
L 353.667889 74.817249 
L 355.079517 78.09316 
L 356.491125 81.841042 
L 357.549782 85.010915 
L 362.490252 101.359494 
L 370.254049 125.300289 
L 372.724347 134.321014 
L 374.488761 141.653716 
L 375.900346 147.129215 
L 378.017787 153.887272 
L 379.782362 158.633619 
L 381.194027 161.924665 
L 382.605701 164.797317 
L 384.370301 167.902172 
L 386.134916 170.415768 
L 387.193684 171.662876 
L 388.605381 172.962565 
L 390.017078 173.865858 
L 391.428777 174.375504 
L 392.840476 174.550545 
L 398.487273 174.562506 
L 398.487273 174.562506 
" style="fill:none;stroke:#1f77b4;stroke-linecap:square;stroke-width:1.5;"/>
   </g>
   <g id="line2d_15">
    <path clip-path="url(#p448d4103b3)" d="M 73.832727 174.575049 
L 74.909829 174.282314 
L 75.722996 174.313011 
L 77.086655 174.683218 
L 77.909055 174.84596 
L 79.009623 174.764272 
L 80.667492 174.304858 
L 80.667492 174.304858 
L 82.609775 173.654991 
L 83.444236 173.647487 
L 84.558373 173.889174 
L 86.790759 174.734085 
L 87.629011 175.016779 
L 88.467741 175.050895 
L 88.467741 175.050895 
L 89.586682 174.833413 
L 89.586682 174.833413 
L 92.104394 174.147267 
L 92.931116 174.226461 
L 92.931116 174.226461 
L 94.270069 174.640108 
L 95.554983 175.301367 
L 96.054497 175.714018 
L 96.054497 175.714018 
L 96.789063 176.641959 
L 97.743264 178.274393 
L 99.126507 180.758177 
L 100.676816 182.964533 
L 100.676816 182.964533 
L 101.958903 184.780244 
L 102.585595 185.974723 
L 103.612037 188.539587 
L 105.999738 194.869235 
L 107.942328 198.888288 
L 107.942328 198.888288 
L 108.90906 202.093001 
L 110.652165 208.163974 
L 111.236023 209.542258 
L 112.018272 210.729913 
L 113.003821 212.09774 
L 117.929589 219.540337 
L 119.231814 220.586982 
L 119.231814 220.586982 
L 124.355923 224.034309 
L 128.465209 226.597785 
L 129.798383 226.963992 
L 131.146642 227.294134 
L 131.146642 227.294134 
L 131.96145 227.75556 
L 134.150874 229.29191 
L 134.701283 229.473145 
L 135.528743 229.478356 
L 135.528743 229.478356 
L 136.635003 229.175832 
L 136.635003 229.175832 
L 138.855572 228.333779 
L 138.855572 228.333779 
L 139.968961 228.356753 
L 139.968961 228.356753 
L 141.362897 228.70243 
L 142.200224 228.842078 
L 142.200224 228.842078 
L 143.317586 228.725843 
L 143.317586 228.725843 
L 143.876609 228.514659 
L 144.715514 227.930095 
L 147.234363 225.777094 
L 148.634775 225.039458 
L 150.876528 224.1864 
L 152.83886 223.476528 
L 153.680029 222.889593 
L 155.082153 221.559846 
L 157.045066 219.398053 
L 158.158585 217.912401 
L 159.795407 215.169626 
L 160.593514 213.990353 
L 161.633606 212.870623 
L 162.394806 212.495728 
L 163.138596 212.42529 
L 163.138596 212.42529 
L 163.863953 212.752679 
L 165.481312 213.669986 
L 165.922307 213.651126 
L 165.922307 213.651126 
L 166.563976 213.357041 
L 167.381167 212.676838 
L 167.773321 212.365154 
L 168.15539 212.315373 
L 168.528151 212.54537 
L 168.892248 213.059742 
L 169.42339 214.422017 
L 170.106336 216.879416 
L 172.457335 225.968749 
L 173.180311 227.948688 
L 173.740356 229.917706 
L 174.552708 233.82036 
L 174.552708 233.82036 
L 176.22009 242.469249 
L 177.208002 247.305722 
L 178.067508 253.515782 
L 178.067508 253.515782 
L 180.78581 273.440258 
L 181.92179 279.074936 
L 182.821166 283.486567 
L 184.813068 295.196058 
L 184.949804 53.697597 
L 185.502597 55.283048 
L 186.640451 57.637531 
L 189.243567 64.475812 
L 190.066806 66.070965 
L 190.066806 66.070965 
L 190.746966 66.909408 
L 190.746966 66.909408 
L 193.102621 69.277095 
L 193.87546 70.16278 
L 194.672743 70.842872 
L 195.287943 71.110157 
L 195.287943 71.110157 
L 196.347658 71.279674 
L 197.909992 71.290582 
L 197.909992 71.290582 
L 200.309665 70.779453 
L 202.865282 70.948293 
L 202.865282 70.948293 
L 204.182034 70.62025 
L 216.809918 66.472742 
L 218.205686 66.071237 
L 218.205686 66.071237 
L 219.043916 66.101955 
L 220.999944 66.442541 
L 221.826507 66.310426 
L 222.901115 65.884598 
L 223.936879 65.2183 
L 226.101764 63.524836 
L 226.550113 63.457086 
L 226.550113 63.457086 
L 227.199476 63.655354 
L 227.617631 64.097576 
L 228.61175 65.78332 
L 229.542123 67.395247 
L 230.917194 69.280155 
L 231.717801 70.471581 
L 231.717801 70.471581 
L 232.180377 71.720933 
L 233.068218 75.117041 
L 233.910569 78.769986 
L 234.97275 83.284126 
L 235.729199 86.360609 
L 236.810911 92.046447 
L 238.299488 101.115781 
L 239.083167 107.909112 
L 241.205979 127.959126 
L 241.998376 132.192091 
L 241.998376 132.192091 
L 242.68875 136.170522 
L 245.101461 151.325597 
L 246.520074 158.431275 
L 249.585553 170.444391 
L 252.027665 178.36316 
L 253.82435 182.698234 
L 255.023635 185.417208 
L 255.909748 186.881776 
L 256.637863 187.665359 
L 260.376372 190.97581 
L 261.230801 191.230695 
L 261.881995 191.159617 
L 261.881995 191.159617 
L 262.756627 190.847369 
L 262.756627 190.847369 
L 263.412756 190.320857 
L 264.275635 189.265479 
L 264.907826 188.187101 
L 265.525718 186.696948 
L 267.291394 181.988561 
L 268.218601 180.248033 
L 269.287419 178.708227 
L 269.97562 177.609543 
L 270.645737 175.894131 
L 271.298867 173.401067 
L 272.715052 167.320651 
L 273.47583 165.421926 
L 274.515787 162.641503 
L 275.099315 160.290669 
L 275.820683 156.238773 
L 276.964991 149.725201 
L 278.820594 140.179891 
L 278.820594 140.179891 
L 279.825058 134.892716 
L 280.693152 131.348438 
L 281.718154 127.522701 
L 281.718154 127.522701 
L 284.904774 115.579979 
L 289.175239 103.867549 
L 290.571775 100.040394 
L 293.901274 89.35548 
L 295.739467 83.720337 
L 296.870001 80.04629 
L 296.870001 80.04629 
L 297.818031 77.026537 
L 299.210272 71.596697 
L 302.997288 54.147869 
L 302.997288 54.147869 
L 303.149148 295.46102 
L 304.218952 291.048619 
L 304.218952 291.048619 
L 304.993433 288.686238 
L 305.939162 286.714338 
L 308.415447 282.359966 
L 309.647316 280.447084 
L 310.194787 279.922432 
L 310.194787 279.922432 
L 310.755645 279.685305 
L 311.330783 279.705195 
L 311.920722 279.937976 
L 312.730337 280.59796 
L 313.353705 281.334419 
L 313.353705 281.334419 
L 313.989638 282.384299 
L 314.854893 284.219704 
L 318.243651 292.366251 
L 319.417343 294.505454 
L 319.892575 295.261375 
L 320.131419 53.583536 
L 321.581624 55.496576 
L 321.581624 55.496576 
L 325.340596 60.04309 
L 326.639291 61.431037 
L 326.639291 61.431037 
L 328.226676 62.564431 
L 329.568399 63.324714 
L 330.92336 63.665328 
L 330.92336 63.665328 
L 335.872389 64.662021 
L 337.815606 65.166709 
L 338.650379 65.119697 
L 338.650379 65.119697 
L 340.043718 64.717423 
L 341.990699 63.884015 
L 341.990699 63.884015 
L 343.340892 63.06521 
L 344.122383 62.624407 
L 344.122383 62.624407 
L 344.631093 62.541613 
L 345.130631 62.673571 
L 345.130631 62.673571 
L 345.863003 63.168248 
L 346.34056 63.749526 
L 347.042032 65.045371 
L 347.042032 65.045371 
L 350.114924 71.013 
L 352.543427 74.695518 
L 353.127391 76.30639 
L 355.755348 84.606872 
L 356.846299 86.773689 
L 357.747695 88.76714 
L 358.287207 90.594441 
L 359.366089 95.347082 
L 360.266346 99.25269 
L 360.266346 99.25269 
L 361.168727 102.13802 
L 361.892724 103.672718 
L 362.619024 105.203024 
L 363.711867 108.104194 
L 364.440647 110.501618 
L 366.954148 119.426594 
L 367.656311 121.154055 
L 368.86704 123.796266 
L 368.86704 123.796266 
L 369.718441 126.511651 
L 370.560012 130.118682 
L 371.723247 135.029605 
L 372.709085 137.86 
L 373.853445 141.368082 
L 374.506916 144.014615 
L 376.146187 151.670006 
L 376.146187 151.670006 
L 376.97319 154.240497 
L 377.807872 156.108759 
L 379.509618 159.601197 
L 379.509618 159.601197 
L 382.168878 166.213851 
L 383.090804 167.431757 
L 383.090804 167.431757 
L 384.417166 169.347409 
L 387.003512 173.218902 
L 387.003512 173.218902 
L 387.836071 174.035092 
L 387.836071 174.035092 
L 389.121537 174.970372 
L 389.782241 175.341487 
L 390.683847 175.544498 
L 392.80825 175.660432 
L 395.583121 175.748171 
L 397.420247 175.176547 
L 397.420247 175.176547 
L 398.487273 174.797194 
L 398.487273 174.797194 
" style="fill:none;stroke:#ff7f0e;stroke-linecap:square;stroke-width:1.5;"/>
   </g>
   <g id="line2d_16">
    <path clip-path="url(#p448d4103b3)" d="M 73.832727 175.808127 
L 74.624892 175.886571 
L 75.690378 175.6969 
L 78.661616 174.85139 
L 79.753062 175.01626 
L 81.948005 175.517508 
L 83.050125 175.357629 
L 84.431069 174.932045 
L 85.814932 174.469746 
L 86.646382 174.45161 
L 87.756069 174.679234 
L 89.70041 175.394729 
L 93.865225 177.173265 
L 93.865225 177.173265 
L 94.9438 177.904757 
L 94.9438 177.904757 
L 95.987592 178.877399 
L 95.987592 178.877399 
L 96.997067 179.853328 
L 96.997067 179.853328 
L 97.975229 180.442496 
L 97.975229 180.442496 
L 99.157744 180.827096 
L 100.074545 180.923011 
L 101.840207 180.970156 
L 102.481949 181.495369 
L 102.481949 181.495369 
L 103.11393 182.364594 
L 103.736714 183.64527 
L 104.351164 185.325397 
L 105.158316 188.158827 
L 106.347339 193.450659 
L 107.709411 199.336913 
L 108.866185 203.564658 
L 108.866185 203.564658 
L 110.596 208.894953 
L 111.558984 211.158474 
L 112.332388 212.549972 
L 113.30512 213.706093 
L 117.930991 218.284304 
L 121.385299 221.181537 
L 125.123515 223.889781 
L 126.862289 224.937217 
L 127.884041 225.196732 
L 133.190395 226.208483 
L 138.389943 227.830372 
L 138.389943 227.830372 
L 144.204848 229.639627 
L 145.316254 229.474758 
L 146.9847 228.871593 
L 153.110792 226.296769 
L 155.061591 225.424775 
L 155.061591 225.424775 
L 156.176527 224.476197 
L 156.176527 224.476197 
L 157.848779 222.690592 
L 158.95632 221.244024 
L 160.047749 219.457809 
L 161.117673 217.293261 
L 162.41919 214.00675 
L 164.163923 208.672886 
L 165.34967 205.32241 
L 166.259391 203.391412 
L 166.916922 202.466422 
L 167.342192 202.177852 
L 167.342192 202.177852 
L 167.757185 202.144329 
L 168.161064 202.394267 
L 168.161064 202.394267 
L 168.554311 202.979733 
L 168.937724 203.878372 
L 168.937724 203.878372 
L 169.495791 205.988614 
L 170.034674 209.040967 
L 170.893965 215.498055 
L 173.10298 234.0988 
L 173.833985 237.95154 
L 174.400138 240.019717 
L 175.087492 241.789572 
L 175.884389 243.774549 
L 176.400439 245.479049 
L 177.15483 248.915478 
L 178.382805 255.95237 
L 180.459214 269.743215 
L 181.815424 278.733312 
L 183.196111 286.649592 
L 183.196111 286.649592 
L 184.743443 294.038173 
L 184.743443 294.038173 
L 185.006633 295.109058 
L 185.138918 53.607202 
L 185.942639 56.446641 
L 187.470575 60.780244 
L 187.470575 60.780244 
L 188.637608 63.13911 
L 188.637608 63.13911 
L 190.020717 65.54616 
L 190.990168 66.6213 
L 193.601256 69.042496 
L 194.347589 69.417519 
L 195.710538 69.720998 
L 203.046333 71.033668 
L 204.078439 70.836147 
L 206.717754 69.924501 
L 210.504388 68.642936 
L 212.696616 68.005626 
L 213.52219 67.959499 
L 213.52219 67.959499 
L 214.625265 67.918836 
L 214.625265 67.918836 
L 216.007169 67.638816 
L 218.778526 66.737818 
L 220.166933 66.305967 
L 220.166933 66.305967 
L 221.000623 66.319014 
L 222.383886 66.672274 
L 222.383886 66.672274 
L 223.728812 67.222803 
L 225.013807 68.005142 
L 225.991843 68.847137 
L 226.923951 69.911232 
L 227.808769 71.244045 
L 228.440043 72.745838 
L 229.241671 75.269944 
L 230.000468 77.556319 
L 230.365522 77.957127 
L 230.544805 77.908692 
L 230.544805 77.908692 
L 230.89722 77.446257 
L 231.24179 76.589837 
L 231.24179 76.589837 
L 231.908692 73.911365 
L 231.908692 73.911365 
L 233.160302 68.518769 
L 233.160302 68.518769 
L 233.457262 67.847667 
L 233.748468 67.685794 
L 233.748468 67.685794 
L 234.034681 68.114665 
L 234.315752 69.169791 
L 234.315752 69.169791 
L 234.727924 71.721479 
L 235.393795 77.556836 
L 235.393795 77.556836 
L 238.293464 106.047633 
L 238.293464 106.047633 
L 241.858023 133.667833 
L 241.858023 133.667833 
L 243.903508 146.106227 
L 245.091987 152.241186 
L 245.091987 152.241186 
L 247.229501 162.370956 
L 248.839615 168.458971 
L 249.964103 172.001394 
L 250.983543 175.218708 
L 250.983543 175.218708 
L 252.345249 179.108435 
L 254.257498 183.930697 
L 255.600424 186.357093 
L 256.647607 187.974585 
L 257.73278 189.060324 
L 258.290742 189.415662 
L 258.290742 189.415662 
L 259.245212 189.675492 
L 260.233759 189.768609 
L 261.051129 189.55258 
L 263.840362 188.446291 
L 265.344247 187.695001 
L 266.174334 187.13362 
L 266.780075 186.398723 
L 267.564758 185.078848 
L 268.136815 183.863875 
L 268.136815 183.863875 
L 269.059518 181.178665 
L 270.466667 176.314653 
L 271.799125 170.570887 
L 274.287036 159.878107 
L 277.188328 147.919267 
L 279.316398 137.023219 
L 279.316398 137.023219 
L 281.316335 127.305924 
L 282.477942 122.888315 
L 285.483419 113.557352 
L 288.855798 103.976917 
L 292.305188 94.642951 
L 293.357887 91.223613 
L 294.566744 86.0319 
L 294.566744 86.0319 
L 295.744259 81.394245 
L 297.052133 77.392247 
L 298.322696 73.370627 
L 299.71633 68.109975 
L 299.71633 68.109975 
L 303.034362 53.74826 
L 303.184633 295.157282 
L 304.542474 289.952552 
L 304.542474 289.952552 
L 305.766718 286.184233 
L 305.766718 286.184233 
L 306.545617 284.198228 
L 307.338937 282.672199 
L 308.149464 281.65808 
L 308.980914 280.954856 
L 308.980914 280.954856 
L 309.837552 280.687088 
L 310.544072 280.826655 
L 311.272235 281.188593 
L 312.216782 282.026999 
L 313.403501 283.036639 
L 313.403501 283.036639 
L 315.285062 284.042382 
L 315.934774 284.626926 
L 315.934774 284.626926 
L 316.815845 285.789516 
L 316.815845 285.789516 
L 317.71232 287.463622 
L 317.71232 287.463622 
L 321.436394 295.488 
L 321.436394 295.488 
L 321.676041 53.956331 
L 322.886401 56.233844 
L 324.117429 57.954369 
L 326.132431 60.282608 
L 327.161996 61.285609 
L 328.73333 62.300069 
L 330.598741 63.495575 
L 330.598741 63.495575 
L 331.676474 64.164844 
L 331.676474 64.164844 
L 333.032915 64.615232 
L 341.293752 66.800858 
L 342.950887 67.44078 
L 344.026266 68.145429 
L 345.064898 69.131636 
L 347.03001 71.286399 
L 348.191349 72.023168 
L 348.643261 72.201735 
L 348.643261 72.201735 
L 349.088382 72.186385 
L 351.222099 71.532098 
L 351.222099 71.532098 
L 351.83635 71.618695 
L 352.239889 71.839966 
L 352.836937 72.449458 
L 352.836937 72.449458 
L 353.424337 73.428645 
L 354.003007 74.895769 
L 354.950665 78.106921 
L 356.062436 83.034205 
L 358.76597 95.448884 
L 358.76597 95.448884 
L 359.659283 98.725443 
L 361.448564 104.159962 
L 363.971111 111.204449 
L 365.238848 114.369886 
L 365.238848 114.369886 
L 366.497762 118.361318 
L 368.95348 126.368156 
L 370.652599 131.383072 
L 372.641143 138.448636 
L 375.894194 151.356377 
L 378.024979 157.707994 
L 378.024979 157.707994 
L 378.857798 159.830569 
L 380.041429 162.206057 
L 380.041429 162.206057 
L 383.398535 168.213645 
L 384.891721 170.60233 
L 385.853076 171.601562 
L 385.853076 171.601562 
L 387.849686 173.269678 
L 389.313161 174.37258 
L 390.177036 174.668331 
L 391.515514 174.848751 
L 395.119069 175.34116 
L 397.434362 175.878221 
L 398.22292 176.026338 
L 398.487273 176.027565 
L 398.487273 176.027565 
" style="fill:none;stroke:#2ca02c;stroke-linecap:square;stroke-width:1.5;"/>
   </g>
   <g id="patch_3">
    <path d="M 57.6 307.584 
L 57.6 41.472 
" style="fill:none;stroke:#000000;stroke-linecap:square;stroke-linejoin:miter;stroke-width:0.8;"/>
   </g>
   <g id="patch_4">
    <path d="M 414.72 307.584 
L 414.72 41.472 
" style="fill:none;stroke:#000000;stroke-linecap:square;stroke-linejoin:miter;stroke-width:0.8;"/>
   </g>
   <g id="patch_5">
    <path d="M 57.6 307.584 
L 414.72 307.584 
" style="fill:none;stroke:#000000;stroke-linecap:square;stroke-linejoin:miter;stroke-width:0.8;"/>
   </g>
   <g id="patch_6">
    <path d="M 57.6 41.472 
L 414.72 41.472 
" style="fill:none;stroke:#000000;stroke-linecap:square;stroke-linejoin:miter;stroke-width:0.8;"/>
   </g>
   <g id="text_14">
    <!-- aut heading -->
    <g transform="translate(200.162813 35.472)scale(0.12 -0.12)">
     <defs>
      <path d="M 34.28125 27.484375 
Q 23.390625 27.484375 19.1875 25 
Q 14.984375 22.515625 14.984375 16.5 
Q 14.984375 11.71875 18.140625 8.90625 
Q 21.296875 6.109375 26.703125 6.109375 
Q 34.1875 6.109375 38.703125 11.40625 
Q 43.21875 16.703125 43.21875 25.484375 
L 43.21875 27.484375 
z
M 52.203125 31.203125 
L 52.203125 0 
L 43.21875 0 
L 43.21875 8.296875 
Q 40.140625 3.328125 35.546875 0.953125 
Q 30.953125 -1.421875 24.3125 -1.421875 
Q 15.921875 -1.421875 10.953125 3.296875 
Q 6 8.015625 6 15.921875 
Q 6 25.140625 12.171875 29.828125 
Q 18.359375 34.515625 30.609375 34.515625 
L 43.21875 34.515625 
L 43.21875 35.40625 
Q 43.21875 41.609375 39.140625 45 
Q 35.0625 48.390625 27.6875 48.390625 
Q 23 48.390625 18.546875 47.265625 
Q 14.109375 46.140625 10.015625 43.890625 
L 10.015625 52.203125 
Q 14.9375 54.109375 19.578125 55.046875 
Q 24.21875 56 28.609375 56 
Q 40.484375 56 46.34375 49.84375 
Q 52.203125 43.703125 52.203125 31.203125 
z
" id="DejaVuSans-97"/>
      <path d="M 8.5 21.578125 
L 8.5 54.6875 
L 17.484375 54.6875 
L 17.484375 21.921875 
Q 17.484375 14.15625 20.5 10.265625 
Q 23.53125 6.390625 29.59375 6.390625 
Q 36.859375 6.390625 41.078125 11.03125 
Q 45.3125 15.671875 45.3125 23.6875 
L 45.3125 54.6875 
L 54.296875 54.6875 
L 54.296875 0 
L 45.3125 0 
L 45.3125 8.40625 
Q 42.046875 3.421875 37.71875 1 
Q 33.40625 -1.421875 27.6875 -1.421875 
Q 18.265625 -1.421875 13.375 4.4375 
Q 8.5 10.296875 8.5 21.578125 
z
M 31.109375 56 
z
" id="DejaVuSans-117"/>
      <path d="M 18.3125 70.21875 
L 18.3125 54.6875 
L 36.8125 54.6875 
L 36.8125 47.703125 
L 18.3125 47.703125 
L 18.3125 18.015625 
Q 18.3125 11.328125 20.140625 9.421875 
Q 21.96875 7.515625 27.59375 7.515625 
L 36.8125 7.515625 
L 36.8125 0 
L 27.59375 0 
Q 17.1875 0 13.234375 3.875 
Q 9.28125 7.765625 9.28125 18.015625 
L 9.28125 47.703125 
L 2.6875 47.703125 
L 2.6875 54.6875 
L 9.28125 54.6875 
L 9.28125 70.21875 
z
" id="DejaVuSans-116"/>
      <path id="DejaVuSans-32"/>
      <path d="M 54.890625 33.015625 
L 54.890625 0 
L 45.90625 0 
L 45.90625 32.71875 
Q 45.90625 40.484375 42.875 44.328125 
Q 39.84375 48.1875 33.796875 48.1875 
Q 26.515625 48.1875 22.3125 43.546875 
Q 18.109375 38.921875 18.109375 30.90625 
L 18.109375 0 
L 9.078125 0 
L 9.078125 75.984375 
L 18.109375 75.984375 
L 18.109375 46.1875 
Q 21.34375 51.125 25.703125 53.5625 
Q 30.078125 56 35.796875 56 
Q 45.21875 56 50.046875 50.171875 
Q 54.890625 44.34375 54.890625 33.015625 
z
" id="DejaVuSans-104"/>
      <path d="M 56.203125 29.59375 
L 56.203125 25.203125 
L 14.890625 25.203125 
Q 15.484375 15.921875 20.484375 11.0625 
Q 25.484375 6.203125 34.421875 6.203125 
Q 39.59375 6.203125 44.453125 7.46875 
Q 49.3125 8.734375 54.109375 11.28125 
L 54.109375 2.78125 
Q 49.265625 0.734375 44.1875 -0.34375 
Q 39.109375 -1.421875 33.890625 -1.421875 
Q 20.796875 -1.421875 13.15625 6.1875 
Q 5.515625 13.8125 5.515625 26.8125 
Q 5.515625 40.234375 12.765625 48.109375 
Q 20.015625 56 32.328125 56 
Q 43.359375 56 49.78125 48.890625 
Q 56.203125 41.796875 56.203125 29.59375 
z
M 47.21875 32.234375 
Q 47.125 39.59375 43.09375 43.984375 
Q 39.0625 48.390625 32.421875 48.390625 
Q 24.90625 48.390625 20.390625 44.140625 
Q 15.875 39.890625 15.1875 32.171875 
z
" id="DejaVuSans-101"/>
      <path d="M 45.40625 46.390625 
L 45.40625 75.984375 
L 54.390625 75.984375 
L 54.390625 0 
L 45.40625 0 
L 45.40625 8.203125 
Q 42.578125 3.328125 38.25 0.953125 
Q 33.9375 -1.421875 27.875 -1.421875 
Q 17.96875 -1.421875 11.734375 6.484375 
Q 5.515625 14.40625 5.515625 27.296875 
Q 5.515625 40.1875 11.734375 48.09375 
Q 17.96875 56 27.875 56 
Q 33.9375 56 38.25 53.625 
Q 42.578125 51.265625 45.40625 46.390625 
z
M 14.796875 27.296875 
Q 14.796875 17.390625 18.875 11.75 
Q 22.953125 6.109375 30.078125 6.109375 
Q 37.203125 6.109375 41.296875 11.75 
Q 45.40625 17.390625 45.40625 27.296875 
Q 45.40625 37.203125 41.296875 42.84375 
Q 37.203125 48.484375 30.078125 48.484375 
Q 22.953125 48.484375 18.875 42.84375 
Q 14.796875 37.203125 14.796875 27.296875 
z
" id="DejaVuSans-100"/>
      <path d="M 9.421875 54.6875 
L 18.40625 54.6875 
L 18.40625 0 
L 9.421875 0 
z
M 9.421875 75.984375 
L 18.40625 75.984375 
L 18.40625 64.59375 
L 9.421875 64.59375 
z
" id="DejaVuSans-105"/>
      <path d="M 54.890625 33.015625 
L 54.890625 0 
L 45.90625 0 
L 45.90625 32.71875 
Q 45.90625 40.484375 42.875 44.328125 
Q 39.84375 48.1875 33.796875 48.1875 
Q 26.515625 48.1875 22.3125 43.546875 
Q 18.109375 38.921875 18.109375 30.90625 
L 18.109375 0 
L 9.078125 0 
L 9.078125 54.6875 
L 18.109375 54.6875 
L 18.109375 46.1875 
Q 21.34375 51.125 25.703125 53.5625 
Q 30.078125 56 35.796875 56 
Q 45.21875 56 50.046875 50.171875 
Q 54.890625 44.34375 54.890625 33.015625 
z
" id="DejaVuSans-110"/>
      <path d="M 45.40625 27.984375 
Q 45.40625 37.75 41.375 43.109375 
Q 37.359375 48.484375 30.078125 48.484375 
Q 22.859375 48.484375 18.828125 43.109375 
Q 14.796875 37.75 14.796875 27.984375 
Q 14.796875 18.265625 18.828125 12.890625 
Q 22.859375 7.515625 30.078125 7.515625 
Q 37.359375 7.515625 41.375 12.890625 
Q 45.40625 18.265625 45.40625 27.984375 
z
M 54.390625 6.78125 
Q 54.390625 -7.171875 48.1875 -13.984375 
Q 42 -20.796875 29.203125 -20.796875 
Q 24.46875 -20.796875 20.265625 -20.09375 
Q 16.0625 -19.390625 12.109375 -17.921875 
L 12.109375 -9.1875 
Q 16.0625 -11.328125 19.921875 -12.34375 
Q 23.78125 -13.375 27.78125 -13.375 
Q 36.625 -13.375 41.015625 -8.765625 
Q 45.40625 -4.15625 45.40625 5.171875 
L 45.40625 9.625 
Q 42.625 4.78125 38.28125 2.390625 
Q 33.9375 0 27.875 0 
Q 17.828125 0 11.671875 7.65625 
Q 5.515625 15.328125 5.515625 27.984375 
Q 5.515625 40.671875 11.671875 48.328125 
Q 17.828125 56 27.875 56 
Q 33.9375 56 38.28125 53.609375 
Q 42.625 51.21875 45.40625 46.390625 
L 45.40625 54.6875 
L 54.390625 54.6875 
z
" id="DejaVuSans-103"/>
     </defs>
     <use xlink:href="#DejaVuSans-97"/>
     <use x="61.279297" xlink:href="#DejaVuSans-117"/>
     <use x="124.658203" xlink:href="#DejaVuSans-116"/>
     <use x="163.867188" xlink:href="#DejaVuSans-32"/>
     <use x="195.654297" xlink:href="#DejaVuSans-104"/>
     <use x="259.033203" xlink:href="#DejaVuSans-101"/>
     <use x="320.556641" xlink:href="#DejaVuSans-97"/>
     <use x="381.835938" xlink:href="#DejaVuSans-100"/>
     <use x="445.3125" xlink:href="#DejaVuSans-105"/>
     <use x="473.095703" xlink:href="#DejaVuSans-110"/>
     <use x="536.474609" xlink:href="#DejaVuSans-103"/>
    </g>
   </g>
   <g id="legend_1">
    <g id="patch_7">
     <path d="M 64.6 93.506375 
L 156.557813 93.506375 
Q 158.557813 93.506375 158.557813 91.506375 
L 158.557813 48.472 
Q 158.557813 46.472 156.557813 46.472 
L 64.6 46.472 
Q 62.6 46.472 62.6 48.472 
L 62.6 91.506375 
Q 62.6 93.506375 64.6 93.506375 
z
" style="fill:#ffffff;opacity:0.8;stroke:#cccccc;stroke-linejoin:miter;"/>
    </g>
    <g id="line2d_17">
     <path d="M 66.6 54.570438 
L 86.6 54.570438 
" style="fill:none;stroke:#1f77b4;stroke-linecap:square;stroke-width:1.5;"/>
    </g>
    <g id="line2d_18"/>
    <g id="text_15">
     <!-- Waypoints -->
     <g transform="translate(94.6 58.070438)scale(0.1 -0.1)">
      <defs>
       <path d="M 3.328125 72.90625 
L 13.28125 72.90625 
L 28.609375 11.28125 
L 43.890625 72.90625 
L 54.984375 72.90625 
L 70.3125 11.28125 
L 85.59375 72.90625 
L 95.609375 72.90625 
L 77.296875 0 
L 64.890625 0 
L 49.515625 63.28125 
L 33.984375 0 
L 21.578125 0 
z
" id="DejaVuSans-87"/>
       <path d="M 32.171875 -5.078125 
Q 28.375 -14.84375 24.75 -17.8125 
Q 21.140625 -20.796875 15.09375 -20.796875 
L 7.90625 -20.796875 
L 7.90625 -13.28125 
L 13.1875 -13.28125 
Q 16.890625 -13.28125 18.9375 -11.515625 
Q 21 -9.765625 23.484375 -3.21875 
L 25.09375 0.875 
L 2.984375 54.6875 
L 12.5 54.6875 
L 29.59375 11.921875 
L 46.6875 54.6875 
L 56.203125 54.6875 
z
" id="DejaVuSans-121"/>
       <path d="M 18.109375 8.203125 
L 18.109375 -20.796875 
L 9.078125 -20.796875 
L 9.078125 54.6875 
L 18.109375 54.6875 
L 18.109375 46.390625 
Q 20.953125 51.265625 25.265625 53.625 
Q 29.59375 56 35.59375 56 
Q 45.5625 56 51.78125 48.09375 
Q 58.015625 40.1875 58.015625 27.296875 
Q 58.015625 14.40625 51.78125 6.484375 
Q 45.5625 -1.421875 35.59375 -1.421875 
Q 29.59375 -1.421875 25.265625 0.953125 
Q 20.953125 3.328125 18.109375 8.203125 
z
M 48.6875 27.296875 
Q 48.6875 37.203125 44.609375 42.84375 
Q 40.53125 48.484375 33.40625 48.484375 
Q 26.265625 48.484375 22.1875 42.84375 
Q 18.109375 37.203125 18.109375 27.296875 
Q 18.109375 17.390625 22.1875 11.75 
Q 26.265625 6.109375 33.40625 6.109375 
Q 40.53125 6.109375 44.609375 11.75 
Q 48.6875 17.390625 48.6875 27.296875 
z
" id="DejaVuSans-112"/>
       <path d="M 30.609375 48.390625 
Q 23.390625 48.390625 19.1875 42.75 
Q 14.984375 37.109375 14.984375 27.296875 
Q 14.984375 17.484375 19.15625 11.84375 
Q 23.34375 6.203125 30.609375 6.203125 
Q 37.796875 6.203125 41.984375 11.859375 
Q 46.1875 17.53125 46.1875 27.296875 
Q 46.1875 37.015625 41.984375 42.703125 
Q 37.796875 48.390625 30.609375 48.390625 
z
M 30.609375 56 
Q 42.328125 56 49.015625 48.375 
Q 55.71875 40.765625 55.71875 27.296875 
Q 55.71875 13.875 49.015625 6.21875 
Q 42.328125 -1.421875 30.609375 -1.421875 
Q 18.84375 -1.421875 12.171875 6.21875 
Q 5.515625 13.875 5.515625 27.296875 
Q 5.515625 40.765625 12.171875 48.375 
Q 18.84375 56 30.609375 56 
z
" id="DejaVuSans-111"/>
       <path d="M 44.28125 53.078125 
L 44.28125 44.578125 
Q 40.484375 46.53125 36.375 47.5 
Q 32.28125 48.484375 27.875 48.484375 
Q 21.1875 48.484375 17.84375 46.4375 
Q 14.5 44.390625 14.5 40.28125 
Q 14.5 37.15625 16.890625 35.375 
Q 19.28125 33.59375 26.515625 31.984375 
L 29.59375 31.296875 
Q 39.15625 29.25 43.1875 25.515625 
Q 47.21875 21.78125 47.21875 15.09375 
Q 47.21875 7.46875 41.1875 3.015625 
Q 35.15625 -1.421875 24.609375 -1.421875 
Q 20.21875 -1.421875 15.453125 -0.5625 
Q 10.6875 0.296875 5.421875 2 
L 5.421875 11.28125 
Q 10.40625 8.6875 15.234375 7.390625 
Q 20.0625 6.109375 24.8125 6.109375 
Q 31.15625 6.109375 34.5625 8.28125 
Q 37.984375 10.453125 37.984375 14.40625 
Q 37.984375 18.0625 35.515625 20.015625 
Q 33.0625 21.96875 24.703125 23.78125 
L 21.578125 24.515625 
Q 13.234375 26.265625 9.515625 29.90625 
Q 5.8125 33.546875 5.8125 39.890625 
Q 5.8125 47.609375 11.28125 51.796875 
Q 16.75 56 26.8125 56 
Q 31.78125 56 36.171875 55.265625 
Q 40.578125 54.546875 44.28125 53.078125 
z
" id="DejaVuSans-115"/>
      </defs>
      <use xlink:href="#DejaVuSans-87"/>
      <use x="92.501953" xlink:href="#DejaVuSans-97"/>
      <use x="153.78125" xlink:href="#DejaVuSans-121"/>
      <use x="212.960938" xlink:href="#DejaVuSans-112"/>
      <use x="276.4375" xlink:href="#DejaVuSans-111"/>
      <use x="337.619141" xlink:href="#DejaVuSans-105"/>
      <use x="365.402344" xlink:href="#DejaVuSans-110"/>
      <use x="428.78125" xlink:href="#DejaVuSans-116"/>
      <use x="467.990234" xlink:href="#DejaVuSans-115"/>
     </g>
    </g>
    <g id="line2d_19">
     <path d="M 66.6 69.248563 
L 86.6 69.248563 
" style="fill:none;stroke:#ff7f0e;stroke-linecap:square;stroke-width:1.5;"/>
    </g>
    <g id="line2d_20"/>
    <g id="text_16">
     <!-- Stanley -->
     <g transform="translate(94.6 72.748563)scale(0.1 -0.1)">
      <defs>
       <path d="M 53.515625 70.515625 
L 53.515625 60.890625 
Q 47.90625 63.578125 42.921875 64.890625 
Q 37.9375 66.21875 33.296875 66.21875 
Q 25.25 66.21875 20.875 63.09375 
Q 16.5 59.96875 16.5 54.203125 
Q 16.5 49.359375 19.40625 46.890625 
Q 22.3125 44.4375 30.421875 42.921875 
L 36.375 41.703125 
Q 47.40625 39.59375 52.65625 34.296875 
Q 57.90625 29 57.90625 20.125 
Q 57.90625 9.515625 50.796875 4.046875 
Q 43.703125 -1.421875 29.984375 -1.421875 
Q 24.8125 -1.421875 18.96875 -0.25 
Q 13.140625 0.921875 6.890625 3.21875 
L 6.890625 13.375 
Q 12.890625 10.015625 18.65625 8.296875 
Q 24.421875 6.59375 29.984375 6.59375 
Q 38.421875 6.59375 43.015625 9.90625 
Q 47.609375 13.234375 47.609375 19.390625 
Q 47.609375 24.75 44.3125 27.78125 
Q 41.015625 30.8125 33.5 32.328125 
L 27.484375 33.5 
Q 16.453125 35.6875 11.515625 40.375 
Q 6.59375 45.0625 6.59375 53.421875 
Q 6.59375 63.09375 13.40625 68.65625 
Q 20.21875 74.21875 32.171875 74.21875 
Q 37.3125 74.21875 42.625 73.28125 
Q 47.953125 72.359375 53.515625 70.515625 
z
" id="DejaVuSans-83"/>
       <path d="M 9.421875 75.984375 
L 18.40625 75.984375 
L 18.40625 0 
L 9.421875 0 
z
" id="DejaVuSans-108"/>
      </defs>
      <use xlink:href="#DejaVuSans-83"/>
      <use x="63.476562" xlink:href="#DejaVuSans-116"/>
      <use x="102.685547" xlink:href="#DejaVuSans-97"/>
      <use x="163.964844" xlink:href="#DejaVuSans-110"/>
      <use x="227.34375" xlink:href="#DejaVuSans-108"/>
      <use x="255.126953" xlink:href="#DejaVuSans-101"/>
      <use x="316.650391" xlink:href="#DejaVuSans-121"/>
     </g>
    </g>
    <g id="line2d_21">
     <path d="M 66.6 83.926688 
L 86.6 83.926688 
" style="fill:none;stroke:#2ca02c;stroke-linecap:square;stroke-width:1.5;"/>
    </g>
    <g id="line2d_22"/>
    <g id="text_17">
     <!-- Pure Pursuit -->
     <g transform="translate(94.6 87.426688)scale(0.1 -0.1)">
      <defs>
       <path d="M 19.671875 64.796875 
L 19.671875 37.40625 
L 32.078125 37.40625 
Q 38.96875 37.40625 42.71875 40.96875 
Q 46.484375 44.53125 46.484375 51.125 
Q 46.484375 57.671875 42.71875 61.234375 
Q 38.96875 64.796875 32.078125 64.796875 
z
M 9.8125 72.90625 
L 32.078125 72.90625 
Q 44.34375 72.90625 50.609375 67.359375 
Q 56.890625 61.8125 56.890625 51.125 
Q 56.890625 40.328125 50.609375 34.8125 
Q 44.34375 29.296875 32.078125 29.296875 
L 19.671875 29.296875 
L 19.671875 0 
L 9.8125 0 
z
" id="DejaVuSans-80"/>
       <path d="M 41.109375 46.296875 
Q 39.59375 47.171875 37.8125 47.578125 
Q 36.03125 48 33.890625 48 
Q 26.265625 48 22.1875 43.046875 
Q 18.109375 38.09375 18.109375 28.8125 
L 18.109375 0 
L 9.078125 0 
L 9.078125 54.6875 
L 18.109375 54.6875 
L 18.109375 46.1875 
Q 20.953125 51.171875 25.484375 53.578125 
Q 30.03125 56 36.53125 56 
Q 37.453125 56 38.578125 55.875 
Q 39.703125 55.765625 41.0625 55.515625 
z
" id="DejaVuSans-114"/>
      </defs>
      <use xlink:href="#DejaVuSans-80"/>
      <use x="58.552734" xlink:href="#DejaVuSans-117"/>
      <use x="121.931641" xlink:href="#DejaVuSans-114"/>
      <use x="160.794922" xlink:href="#DejaVuSans-101"/>
      <use x="222.318359" xlink:href="#DejaVuSans-32"/>
      <use x="254.105469" xlink:href="#DejaVuSans-80"/>
      <use x="312.658203" xlink:href="#DejaVuSans-117"/>
      <use x="376.037109" xlink:href="#DejaVuSans-114"/>
      <use x="417.150391" xlink:href="#DejaVuSans-115"/>
      <use x="469.25" xlink:href="#DejaVuSans-117"/>
      <use x="532.628906" xlink:href="#DejaVuSans-105"/>
      <use x="560.412109" xlink:href="#DejaVuSans-116"/>
     </g>
    </g>
   </g>
  </g>
 </g>
 <defs>
  <clipPath id="p448d4103b3">
   <rect height="266.112" width="357.12" x="57.6" y="41.472"/>
  </clipPath>
 </defs>
</svg>
