<?xml version="1.0" encoding="utf-8" standalone="no"?>
<!DOCTYPE svg PUBLIC "-//W3C//DTD SVG 1.1//EN"
  "http://www.w3.org/Graphics/SVG/1.1/DTD/svg11.dtd">
<!-- Created with matplotlib (https://matplotlib.org/) -->
<svg height="345.6pt" version="1.1" viewBox="0 0 460.8 345.6" width="460.8pt" xmlns="http://www.w3.org/2000/svg" xmlns:xlink="http://www.w3.org/1999/xlink">
 <metadata>
  <rdf:RDF xmlns:cc="http://creativecommons.org/ns#" xmlns:dc="http://purl.org/dc/elements/1.1/" xmlns:rdf="http://www.w3.org/1999/02/22-rdf-syntax-ns#">
   <cc:Work>
    <dc:type rdf:resource="http://purl.org/dc/dcmitype/StillImage"/>
    <dc:date>2024-10-03T15:12:56.765357</dc:date>
    <dc:format>image/svg+xml</dc:format>
    <dc:creator>
     <cc:Agent>
      <dc:title>Matplotlib v3.3.1, https://matplotlib.org/</dc:title>
     </cc:Agent>
    </dc:creator>
   </cc:Work>
  </rdf:RDF>
 </metadata>
 <defs>
  <style type="text/css">*{stroke-linecap:butt;stroke-linejoin:round;}</style>
 </defs>
 <g id="figure_1">
  <g id="patch_1">
   <path d="M 0 345.6 
L 460.8 345.6 
L 460.8 0 
L 0 0 
z
" style="fill:#ffffff;"/>
  </g>
  <g id="axes_1">
   <g id="patch_2">
    <path d="M 57.6 307.584 
L 414.72 307.584 
L 414.72 41.472 
L 57.6 41.472 
z
" style="fill:#ffffff;"/>
   </g>
   <g id="matplotlib.axis_1">
    <g id="xtick_1">
     <g id="line2d_1">
      <defs>
       <path d="M 0 0 
L 0 3.5 
" id="m48242c8780" style="stroke:#000000;stroke-width:0.8;"/>
      </defs>
      <g>
       <use style="stroke:#000000;stroke-width:0.8;" x="73.832727" xlink:href="#m48242c8780" y="307.584"/>
      </g>
     </g>
     <g id="text_1">
      <!-- 0.0 -->
      <g transform="translate(65.881165 322.182437)scale(0.1 -0.1)">
       <defs>
        <path d="M 31.78125 66.40625 
Q 24.171875 66.40625 20.328125 58.90625 
Q 16.5 51.421875 16.5 36.375 
Q 16.5 21.390625 20.328125 13.890625 
Q 24.171875 6.390625 31.78125 6.390625 
Q 39.453125 6.390625 43.28125 13.890625 
Q 47.125 21.390625 47.125 36.375 
Q 47.125 51.421875 43.28125 58.90625 
Q 39.453125 66.40625 31.78125 66.40625 
z
M 31.78125 74.21875 
Q 44.046875 74.21875 50.515625 64.515625 
Q 56.984375 54.828125 56.984375 36.375 
Q 56.984375 17.96875 50.515625 8.265625 
Q 44.046875 -1.421875 31.78125 -1.421875 
Q 19.53125 -1.421875 13.0625 8.265625 
Q 6.59375 17.96875 6.59375 36.375 
Q 6.59375 54.828125 13.0625 64.515625 
Q 19.53125 74.21875 31.78125 74.21875 
z
" id="DejaVuSans-48"/>
        <path d="M 10.6875 12.40625 
L 21 12.40625 
L 21 0 
L 10.6875 0 
z
" id="DejaVuSans-46"/>
       </defs>
       <use xlink:href="#DejaVuSans-48"/>
       <use x="63.623047" xlink:href="#DejaVuSans-46"/>
       <use x="95.410156" xlink:href="#DejaVuSans-48"/>
      </g>
     </g>
    </g>
    <g id="xtick_2">
     <g id="line2d_2">
      <g>
       <use style="stroke:#000000;stroke-width:0.8;" x="138.763636" xlink:href="#m48242c8780" y="307.584"/>
      </g>
     </g>
     <g id="text_2">
      <!-- 0.2 -->
      <g transform="translate(130.812074 322.182437)scale(0.1 -0.1)">
       <defs>
        <path d="M 19.1875 8.296875 
L 53.609375 8.296875 
L 53.609375 0 
L 7.328125 0 
L 7.328125 8.296875 
Q 12.9375 14.109375 22.625 23.890625 
Q 32.328125 33.6875 34.8125 36.53125 
Q 39.546875 41.84375 41.421875 45.53125 
Q 43.3125 49.21875 43.3125 52.78125 
Q 43.3125 58.59375 39.234375 62.25 
Q 35.15625 65.921875 28.609375 65.921875 
Q 23.96875 65.921875 18.8125 64.3125 
Q 13.671875 62.703125 7.8125 59.421875 
L 7.8125 69.390625 
Q 13.765625 71.78125 18.9375 73 
Q 24.125 74.21875 28.421875 74.21875 
Q 39.75 74.21875 46.484375 68.546875 
Q 53.21875 62.890625 53.21875 53.421875 
Q 53.21875 48.921875 51.53125 44.890625 
Q 49.859375 40.875 45.40625 35.40625 
Q 44.1875 33.984375 37.640625 27.21875 
Q 31.109375 20.453125 19.1875 8.296875 
z
" id="DejaVuSans-50"/>
       </defs>
       <use xlink:href="#DejaVuSans-48"/>
       <use x="63.623047" xlink:href="#DejaVuSans-46"/>
       <use x="95.410156" xlink:href="#DejaVuSans-50"/>
      </g>
     </g>
    </g>
    <g id="xtick_3">
     <g id="line2d_3">
      <g>
       <use style="stroke:#000000;stroke-width:0.8;" x="203.694545" xlink:href="#m48242c8780" y="307.584"/>
      </g>
     </g>
     <g id="text_3">
      <!-- 0.4 -->
      <g transform="translate(195.742983 322.182437)scale(0.1 -0.1)">
       <defs>
        <path d="M 37.796875 64.3125 
L 12.890625 25.390625 
L 37.796875 25.390625 
z
M 35.203125 72.90625 
L 47.609375 72.90625 
L 47.609375 25.390625 
L 58.015625 25.390625 
L 58.015625 17.1875 
L 47.609375 17.1875 
L 47.609375 0 
L 37.796875 0 
L 37.796875 17.1875 
L 4.890625 17.1875 
L 4.890625 26.703125 
z
" id="DejaVuSans-52"/>
       </defs>
       <use xlink:href="#DejaVuSans-48"/>
       <use x="63.623047" xlink:href="#DejaVuSans-46"/>
       <use x="95.410156" xlink:href="#DejaVuSans-52"/>
      </g>
     </g>
    </g>
    <g id="xtick_4">
     <g id="line2d_4">
      <g>
       <use style="stroke:#000000;stroke-width:0.8;" x="268.625455" xlink:href="#m48242c8780" y="307.584"/>
      </g>
     </g>
     <g id="text_4">
      <!-- 0.6 -->
      <g transform="translate(260.673892 322.182437)scale(0.1 -0.1)">
       <defs>
        <path d="M 33.015625 40.375 
Q 26.375 40.375 22.484375 35.828125 
Q 18.609375 31.296875 18.609375 23.390625 
Q 18.609375 15.53125 22.484375 10.953125 
Q 26.375 6.390625 33.015625 6.390625 
Q 39.65625 6.390625 43.53125 10.953125 
Q 47.40625 15.53125 47.40625 23.390625 
Q 47.40625 31.296875 43.53125 35.828125 
Q 39.65625 40.375 33.015625 40.375 
z
M 52.59375 71.296875 
L 52.59375 62.3125 
Q 48.875 64.0625 45.09375 64.984375 
Q 41.3125 65.921875 37.59375 65.921875 
Q 27.828125 65.921875 22.671875 59.328125 
Q 17.53125 52.734375 16.796875 39.40625 
Q 19.671875 43.65625 24.015625 45.921875 
Q 28.375 48.1875 33.59375 48.1875 
Q 44.578125 48.1875 50.953125 41.515625 
Q 57.328125 34.859375 57.328125 23.390625 
Q 57.328125 12.15625 50.6875 5.359375 
Q 44.046875 -1.421875 33.015625 -1.421875 
Q 20.359375 -1.421875 13.671875 8.265625 
Q 6.984375 17.96875 6.984375 36.375 
Q 6.984375 53.65625 15.1875 63.9375 
Q 23.390625 74.21875 37.203125 74.21875 
Q 40.921875 74.21875 44.703125 73.484375 
Q 48.484375 72.75 52.59375 71.296875 
z
" id="DejaVuSans-54"/>
       </defs>
       <use xlink:href="#DejaVuSans-48"/>
       <use x="63.623047" xlink:href="#DejaVuSans-46"/>
       <use x="95.410156" xlink:href="#DejaVuSans-54"/>
      </g>
     </g>
    </g>
    <g id="xtick_5">
     <g id="line2d_5">
      <g>
       <use style="stroke:#000000;stroke-width:0.8;" x="333.556364" xlink:href="#m48242c8780" y="307.584"/>
      </g>
     </g>
     <g id="text_5">
      <!-- 0.8 -->
      <g transform="translate(325.604801 322.182437)scale(0.1 -0.1)">
       <defs>
        <path d="M 31.78125 34.625 
Q 24.75 34.625 20.71875 30.859375 
Q 16.703125 27.09375 16.703125 20.515625 
Q 16.703125 13.921875 20.71875 10.15625 
Q 24.75 6.390625 31.78125 6.390625 
Q 38.8125 6.390625 42.859375 10.171875 
Q 46.921875 13.96875 46.921875 20.515625 
Q 46.921875 27.09375 42.890625 30.859375 
Q 38.875 34.625 31.78125 34.625 
z
M 21.921875 38.8125 
Q 15.578125 40.375 12.03125 44.71875 
Q 8.5 49.078125 8.5 55.328125 
Q 8.5 64.0625 14.71875 69.140625 
Q 20.953125 74.21875 31.78125 74.21875 
Q 42.671875 74.21875 48.875 69.140625 
Q 55.078125 64.0625 55.078125 55.328125 
Q 55.078125 49.078125 51.53125 44.71875 
Q 48 40.375 41.703125 38.8125 
Q 48.828125 37.15625 52.796875 32.3125 
Q 56.78125 27.484375 56.78125 20.515625 
Q 56.78125 9.90625 50.3125 4.234375 
Q 43.84375 -1.421875 31.78125 -1.421875 
Q 19.734375 -1.421875 13.25 4.234375 
Q 6.78125 9.90625 6.78125 20.515625 
Q 6.78125 27.484375 10.78125 32.3125 
Q 14.796875 37.15625 21.921875 38.8125 
z
M 18.3125 54.390625 
Q 18.3125 48.734375 21.84375 45.5625 
Q 25.390625 42.390625 31.78125 42.390625 
Q 38.140625 42.390625 41.71875 45.5625 
Q 45.3125 48.734375 45.3125 54.390625 
Q 45.3125 60.0625 41.71875 63.234375 
Q 38.140625 66.40625 31.78125 66.40625 
Q 25.390625 66.40625 21.84375 63.234375 
Q 18.3125 60.0625 18.3125 54.390625 
z
" id="DejaVuSans-56"/>
       </defs>
       <use xlink:href="#DejaVuSans-48"/>
       <use x="63.623047" xlink:href="#DejaVuSans-46"/>
       <use x="95.410156" xlink:href="#DejaVuSans-56"/>
      </g>
     </g>
    </g>
    <g id="xtick_6">
     <g id="line2d_6">
      <g>
       <use style="stroke:#000000;stroke-width:0.8;" x="398.487273" xlink:href="#m48242c8780" y="307.584"/>
      </g>
     </g>
     <g id="text_6">
      <!-- 1.0 -->
      <g transform="translate(390.53571 322.182437)scale(0.1 -0.1)">
       <defs>
        <path d="M 12.40625 8.296875 
L 28.515625 8.296875 
L 28.515625 63.921875 
L 10.984375 60.40625 
L 10.984375 69.390625 
L 28.421875 72.90625 
L 38.28125 72.90625 
L 38.28125 8.296875 
L 54.390625 8.296875 
L 54.390625 0 
L 12.40625 0 
z
" id="DejaVuSans-49"/>
       </defs>
       <use xlink:href="#DejaVuSans-49"/>
       <use x="63.623047" xlink:href="#DejaVuSans-46"/>
       <use x="95.410156" xlink:href="#DejaVuSans-48"/>
      </g>
     </g>
    </g>
   </g>
   <g id="matplotlib.axis_2">
    <g id="ytick_1">
     <g id="line2d_7">
      <defs>
       <path d="M 0 0 
L -3.5 0 
" id="mc2fdc14a5b" style="stroke:#000000;stroke-width:0.8;"/>
      </defs>
      <g>
       <use style="stroke:#000000;stroke-width:0.8;" x="57.6" xlink:href="#mc2fdc14a5b" y="304.33005"/>
      </g>
     </g>
     <g id="text_7">
      <!-- 3 -->
      <g transform="translate(44.2375 308.129269)scale(0.1 -0.1)">
       <defs>
        <path d="M 40.578125 39.3125 
Q 47.65625 37.796875 51.625 33 
Q 55.609375 28.21875 55.609375 21.1875 
Q 55.609375 10.40625 48.1875 4.484375 
Q 40.765625 -1.421875 27.09375 -1.421875 
Q 22.515625 -1.421875 17.65625 -0.515625 
Q 12.796875 0.390625 7.625 2.203125 
L 7.625 11.71875 
Q 11.71875 9.328125 16.59375 8.109375 
Q 21.484375 6.890625 26.8125 6.890625 
Q 36.078125 6.890625 40.9375 10.546875 
Q 45.796875 14.203125 45.796875 21.1875 
Q 45.796875 27.640625 41.28125 31.265625 
Q 36.765625 34.90625 28.71875 34.90625 
L 20.21875 34.90625 
L 20.21875 43.015625 
L 29.109375 43.015625 
Q 36.375 43.015625 40.234375 45.921875 
Q 44.09375 48.828125 44.09375 54.296875 
Q 44.09375 59.90625 40.109375 62.90625 
Q 36.140625 65.921875 28.71875 65.921875 
Q 24.65625 65.921875 20.015625 65.03125 
Q 15.375 64.15625 9.8125 62.3125 
L 9.8125 71.09375 
Q 15.4375 72.65625 20.34375 73.4375 
Q 25.25 74.21875 29.59375 74.21875 
Q 40.828125 74.21875 47.359375 69.109375 
Q 53.90625 64.015625 53.90625 55.328125 
Q 53.90625 49.265625 50.4375 45.09375 
Q 46.96875 40.921875 40.578125 39.3125 
z
" id="DejaVuSans-51"/>
       </defs>
       <use xlink:href="#DejaVuSans-51"/>
      </g>
     </g>
    </g>
    <g id="ytick_2">
     <g id="line2d_8">
      <g>
       <use style="stroke:#000000;stroke-width:0.8;" x="57.6" xlink:href="#mc2fdc14a5b" y="254.17764"/>
      </g>
     </g>
     <g id="text_8">
      <!-- 4 -->
      <g transform="translate(44.2375 257.976859)scale(0.1 -0.1)">
       <use xlink:href="#DejaVuSans-52"/>
      </g>
     </g>
    </g>
    <g id="ytick_3">
     <g id="line2d_9">
      <g>
       <use style="stroke:#000000;stroke-width:0.8;" x="57.6" xlink:href="#mc2fdc14a5b" y="204.02523"/>
      </g>
     </g>
     <g id="text_9">
      <!-- 5 -->
      <g transform="translate(44.2375 207.824449)scale(0.1 -0.1)">
       <defs>
        <path d="M 10.796875 72.90625 
L 49.515625 72.90625 
L 49.515625 64.59375 
L 19.828125 64.59375 
L 19.828125 46.734375 
Q 21.96875 47.46875 24.109375 47.828125 
Q 26.265625 48.1875 28.421875 48.1875 
Q 40.625 48.1875 47.75 41.5 
Q 54.890625 34.8125 54.890625 23.390625 
Q 54.890625 11.625 47.5625 5.09375 
Q 40.234375 -1.421875 26.90625 -1.421875 
Q 22.3125 -1.421875 17.546875 -0.640625 
Q 12.796875 0.140625 7.71875 1.703125 
L 7.71875 11.625 
Q 12.109375 9.234375 16.796875 8.0625 
Q 21.484375 6.890625 26.703125 6.890625 
Q 35.15625 6.890625 40.078125 11.328125 
Q 45.015625 15.765625 45.015625 23.390625 
Q 45.015625 31 40.078125 35.4375 
Q 35.15625 39.890625 26.703125 39.890625 
Q 22.75 39.890625 18.8125 39.015625 
Q 14.890625 38.140625 10.796875 36.28125 
z
" id="DejaVuSans-53"/>
       </defs>
       <use xlink:href="#DejaVuSans-53"/>
      </g>
     </g>
    </g>
    <g id="ytick_4">
     <g id="line2d_10">
      <g>
       <use style="stroke:#000000;stroke-width:0.8;" x="57.6" xlink:href="#mc2fdc14a5b" y="153.87282"/>
      </g>
     </g>
     <g id="text_10">
      <!-- 6 -->
      <g transform="translate(44.2375 157.672039)scale(0.1 -0.1)">
       <use xlink:href="#DejaVuSans-54"/>
      </g>
     </g>
    </g>
    <g id="ytick_5">
     <g id="line2d_11">
      <g>
       <use style="stroke:#000000;stroke-width:0.8;" x="57.6" xlink:href="#mc2fdc14a5b" y="103.72041"/>
      </g>
     </g>
     <g id="text_11">
      <!-- 7 -->
      <g transform="translate(44.2375 107.519629)scale(0.1 -0.1)">
       <defs>
        <path d="M 8.203125 72.90625 
L 55.078125 72.90625 
L 55.078125 68.703125 
L 28.609375 0 
L 18.3125 0 
L 43.21875 64.59375 
L 8.203125 64.59375 
z
" id="DejaVuSans-55"/>
       </defs>
       <use xlink:href="#DejaVuSans-55"/>
      </g>
     </g>
    </g>
    <g id="ytick_6">
     <g id="line2d_12">
      <g>
       <use style="stroke:#000000;stroke-width:0.8;" x="57.6" xlink:href="#mc2fdc14a5b" y="53.568"/>
      </g>
     </g>
     <g id="text_12">
      <!-- 8 -->
      <g transform="translate(44.2375 57.367219)scale(0.1 -0.1)">
       <use xlink:href="#DejaVuSans-56"/>
      </g>
     </g>
    </g>
   </g>
   <g id="line2d_13">
    <path clip-path="url(#p0c87b9c667)" d="M 73.832727 53.568 
L 91.831891 53.568 
L 92.184816 54.756309 
L 94.655289 89.250965 
L 96.066986 105.05007 
L 97.8316 122.156907 
L 99.596213 137.423409 
L 101.360809 150.875785 
L 102.77248 160.241299 
L 104.18414 168.20614 
L 105.24289 173.109563 
L 106.301604 177.04877 
L 106.654529 177.716228 
L 107.360333 178.035808 
L 108.066142 178.685515 
L 109.124818 178.596456 
L 109.477743 178.374331 
L 109.830632 177.607894 
L 110.889374 173.537067 
L 112.301014 167.117198 
L 113.712666 159.179146 
L 115.124328 149.9513 
L 116.888911 136.928701 
L 118.653517 122.260647 
L 126.064891 53.892354 
L 126.417815 53.568 
L 157.1222 53.568 
L 157.475125 54.402135 
L 159.239731 68.182652 
L 161.004345 84.244452 
L 162.768955 102.928411 
L 164.53357 124.643891 
L 165.945262 144.701167 
L 167.004035 163.244926 
L 168.415727 189.382482 
L 169.827382 211.201371 
L 170.886102 224.313262 
L 173.003343 246.919013 
L 174.767366 263.703669 
L 176.178375 274.74266 
L 176.883746 278.755801 
L 177.236671 279.523194 
L 178.29401 279.516971 
L 178.646935 279.3862 
L 180.057328 277.19631 
L 181.115074 272.471025 
L 181.467999 271.731693 
L 183.231442 262.892149 
L 184.289917 256.233329 
L 185.348243 248.054685 
L 186.406867 238.004777 
L 187.81838 221.621613 
L 193.112001 154.60138 
L 195.229537 124.654045 
L 199.817557 54.336383 
L 200.170482 53.568 
L 220.993027 53.568 
L 221.345951 54.282803 
L 223.463499 84.339881 
L 225.228123 112.40751 
L 226.992746 143.772369 
L 230.169053 202.098083 
L 231.933542 227.322994 
L 233.697948 249.568896 
L 235.109251 265.13785 
L 236.87275 282.28835 
L 237.577985 287.734844 
L 238.283029 291.626655 
L 238.98791 294.21881 
L 239.340834 294.999044 
L 239.692629 295.423107 
L 240.397215 295.488 
L 240.75014 295.488 
L 241.101888 295.249892 
L 241.454812 294.581778 
L 241.806796 293.330907 
L 242.511911 289.407375 
L 243.922483 278.952854 
L 253.801268 201.528348 
L 255.565773 184.952882 
L 257.330297 166.13584 
L 259.094892 144.282448 
L 260.506581 124.307407 
L 261.565354 107.530899 
L 261.918279 107.54906 
L 263.329976 128.638714 
L 265.447501 156.155961 
L 267.564989 181.288338 
L 269.329479 200.098068 
L 271.093949 216.71718 
L 272.505417 228.312327 
L 273.916785 237.981059 
L 274.975101 243.830402 
L 276.033587 248.174136 
L 276.739113 250.185572 
L 277.091671 250.777248 
L 277.444596 250.979059 
L 278.502505 251.011287 
L 278.85543 250.832543 
L 279.20797 250.371071 
L 279.560895 249.627604 
L 280.266412 247.399312 
L 281.324625 243.006191 
L 282.735866 236.149697 
L 284.500115 226.460583 
L 287.675783 206.891267 
L 290.498829 189.254719 
L 290.851753 189.899403 
L 292.616108 199.49717 
L 297.55617 227.314104 
L 298.967488 233.294093 
L 300.026044 236.827967 
L 300.731654 238.481704 
L 301.084314 238.925936 
L 301.789856 238.999847 
L 302.495406 238.949112 
L 302.84833 238.563866 
L 303.201009 237.758519 
L 303.553934 236.531303 
L 304.259591 232.950057 
L 305.31809 225.62303 
L 306.376766 216.702239 
L 307.435408 206.237172 
L 308.847041 189.590893 
L 309.905801 174.66526 
L 310.964568 157.050801 
L 312.376264 131.849749 
L 313.082105 123.030526 
L 313.787936 117.145223 
L 314.140861 115.269082 
L 314.846679 113.16085 
L 315.905387 110.774949 
L 316.964133 107.548257 
L 318.375783 102.175733 
L 320.846177 91.606719 
L 322.610771 82.635078 
L 324.728285 70.546662 
L 326.845808 57.257817 
L 327.198726 54.910376 
L 327.55165 53.568 
L 341.668607 53.568 
L 342.021531 53.983472 
L 345.550777 105.73805 
L 347.315394 126.077773 
L 349.079993 143.834944 
L 350.844588 159.232767 
L 352.609144 172.576549 
L 354.373705 184.034386 
L 355.785323 191.556251 
L 356.843995 195.890006 
L 357.549782 197.619792 
L 357.902707 197.976008 
L 358.255556 198.146393 
L 359.31425 198.038661 
L 359.6671 197.79085 
L 360.372884 196.798342 
L 362.490252 192.866915 
L 363.548972 190.503275 
L 363.901846 190.910018 
L 364.960571 193.69273 
L 366.01925 197.216445 
L 367.783782 204.264461 
L 369.548254 210.928816 
L 371.312766 216.775519 
L 372.371422 219.811189 
L 373.077207 221.043349 
L 373.430131 221.342841 
L 373.782985 221.494672 
L 374.488761 221.494672 
L 374.841686 221.309854 
L 375.194546 220.928112 
L 375.54747 220.108269 
L 376.25327 217.365347 
L 378.017787 208.275719 
L 379.782362 197.169235 
L 381.546938 184.54484 
L 383.664459 167.757227 
L 385.781991 149.565083 
L 387.546609 132.533957 
L 389.311229 113.056903 
L 391.075853 90.684096 
L 393.193401 60.031553 
L 393.546326 54.719591 
L 393.899251 53.568 
L 398.487273 53.568 
L 398.487273 53.568 
" style="fill:none;stroke:#1f77b4;stroke-linecap:square;stroke-width:1.5;"/>
   </g>
   <g id="line2d_14">
    <path clip-path="url(#p0c87b9c667)" d="M 73.832727 71.372309 
L 74.909829 68.219898 
L 75.994944 65.625649 
L 77.086655 63.490734 
L 78.458808 61.345541 
L 78.458808 61.345541 
L 79.837621 59.664116 
L 81.221653 58.346198 
L 82.609775 57.313201 
L 84.279691 56.363942 
L 85.953061 55.655283 
L 87.908538 55.052146 
L 90.426291 54.525318 
L 91.266195 54.395147 
L 91.546183 54.463841 
L 91.825786 55.498452 
L 91.825786 55.498452 
L 92.38152 59.737461 
L 92.931116 64.257275 
L 92.931116 64.257275 
L 95.047353 88.727699 
L 95.047353 88.727699 
L 96.789063 108.639126 
L 98.441698 125.145125 
L 99.351866 133.646048 
L 102.168809 155.452131 
L 104.016755 166.580367 
L 104.016755 166.580367 
L 105.804026 174.642399 
L 106.390082 176.141059 
L 106.390082 176.141059 
L 107.167628 177.449783 
L 107.167628 177.449783 
L 107.748824 178.029281 
L 108.32912 178.320083 
L 108.90906 178.373229 
L 109.489174 178.153549 
L 109.489174 178.153549 
L 110.263917 177.459509 
L 110.263917 177.459509 
L 111.236023 176.004041 
L 112.41136 173.244272 
L 113.400978 170.169795 
L 113.400978 170.169795 
L 114.80715 164.749862 
L 116.659979 155.755063 
L 116.659979 155.755063 
L 118.359789 145.895355 
L 118.359789 145.895355 
L 120.798418 129.095712 
L 126.374318 86.762931 
L 127.412293 80.885473 
L 128.465209 76.048671 
L 129.530422 72.068268 
L 130.605754 68.79263 
L 131.689413 66.096974 
L 132.779925 63.878607 
L 134.150874 61.649559 
L 135.528743 59.902409 
L 135.528743 59.902409 
L 136.912035 58.532975 
L 138.299578 57.459598 
L 139.968961 56.473234 
L 139.968961 56.473234 
L 141.641933 55.736873 
L 143.597071 55.11016 
L 146.114528 54.562739 
L 149.195101 54.150067 
L 153.11924 53.862282 
L 156.484457 53.73201 
L 156.764888 53.859468 
L 156.764888 53.859468 
L 157.045066 54.455628 
L 157.603503 56.771057 
L 158.158585 59.252839 
L 159.255163 66.354396 
L 160.329044 75.448064 
L 161.37621 85.450102 
L 162.644843 98.725406 
L 165.70306 139.683939 
L 166.139081 146.756755 
L 167.381167 170.76318 
L 169.42339 205.564974 
L 170.272944 217.78171 
L 173.321791 253.330591 
L 174.817025 266.961464 
L 176.095399 276.169506 
L 176.095399 276.169506 
L 176.468338 277.742227 
L 176.838822 278.577416 
L 177.330889 279.114326 
L 177.699266 279.258132 
L 178.067508 279.245567 
L 178.067508 279.245567 
L 178.558741 279.092492 
L 178.558741 279.092492 
L 179.173676 278.731795 
L 179.914478 277.645305 
L 181.036487 275.217744 
L 181.036487 275.217744 
L 182.177174 271.77103 
L 182.951003 268.873945 
L 183.605881 265.999032 
L 183.605881 265.999032 
L 184.406149 262.021642 
L 186.065714 251.494449 
L 186.932549 244.779003 
L 186.932549 244.779003 
L 189.405916 221.868169 
L 189.405916 221.868169 
L 193.102621 182.698381 
L 194.876142 162.726593 
L 196.565094 142.478102 
L 200.061476 101.028118 
L 201.063186 92.624881 
L 202.08626 85.709512 
L 203.126913 80.018571 
L 204.182034 75.335261 
L 205.249061 71.481174 
L 206.325885 68.309486 
L 207.410773 65.699375 
L 208.502296 63.551407 
L 209.874261 61.393096 
L 211.252926 59.701391 
L 212.636842 58.375414 
L 212.636842 58.375414 
L 214.024874 57.336101 
L 215.694706 56.381038 
L 217.368013 55.668046 
L 219.323437 55.061221 
L 219.323437 55.061221 
L 220.441957 54.863195 
L 220.441957 54.863195 
L 220.721364 55.658597 
L 220.999944 57.226446 
L 221.826507 64.420606 
L 222.368446 70.465975 
L 224.438712 100.178475 
L 230.917194 219.999071 
L 233.068218 248.796452 
L 235.480639 275.922902 
L 236.456359 284.389721 
L 237.044468 288.564164 
L 237.044468 288.564164 
L 238.074154 293.364527 
L 238.636035 294.683867 
L 239.083167 295.142188 
L 239.529426 295.339285 
L 240.198606 295.225782 
L 240.198606 295.225782 
L 240.86929 294.583115 
L 241.093596 294.201079 
L 241.093596 294.201079 
L 241.657355 292.831202 
L 242.68875 288.772469 
L 244.356691 279.67052 
L 244.356691 279.67052 
L 252.027665 227.796438 
L 253.323959 218.13767 
L 255.730444 199.184726 
L 257.957191 178.838972 
L 259.341892 164.591773 
L 259.341892 164.591773 
L 261.01542 147.501505 
L 261.01542 147.501505 
L 261.664258 143.803147 
L 262.318843 141.970709 
L 262.756627 141.617054 
L 262.756627 141.617054 
L 263.194367 142.009595 
L 263.412756 143.012147 
L 264.275635 150.335593 
L 265.115544 158.952124 
L 266.128622 170.910908 
L 266.128622 170.910908 
L 266.717371 177.861376 
L 269.63385 208.87059 
L 272.715052 234.926169 
L 273.924706 242.106554 
L 275.67698 249.147677 
L 276.250645 250.177231 
L 276.822257 250.652606 
L 277.39298 250.823042 
L 277.963598 250.763147 
L 278.677596 250.379986 
L 279.393712 249.548623 
L 279.393712 249.548623 
L 280.258102 247.931429 
L 280.838694 246.461404 
L 281.865854 243.362154 
L 283.36332 237.714682 
L 284.74836 231.501942 
L 284.74836 231.501942 
L 286.824503 221.089274 
L 289.869886 204.974412 
L 290.395805 203.349352 
L 290.924431 202.381626 
L 291.277753 202.023686 
L 291.631421 201.885081 
L 291.808292 201.86749 
L 292.337876 203.054276 
L 292.68918 204.333482 
L 293.212304 206.623743 
L 296.388876 224.218149 
L 297.346162 228.951654 
L 298.130342 232.111947 
L 298.130342 232.111947 
L 298.749684 234.559746 
L 298.749684 234.559746 
L 299.971903 237.804028 
L 299.971903 237.804028 
L 300.426492 238.364813 
L 301.031327 238.726758 
L 301.635575 238.781067 
L 302.088843 238.676766 
L 302.694032 238.145676 
L 302.997288 237.751744 
L 302.997288 237.751744 
L 303.453477 236.891464 
L 304.37301 234.211961 
L 304.993433 231.640297 
L 305.939162 226.944508 
L 307.402216 217.366303 
L 307.402216 217.366303 
L 308.761443 205.839962 
L 308.761443 205.839962 
L 310.194787 190.79298 
L 310.194787 190.79298 
L 312.936643 158.704106 
L 313.989638 148.895666 
L 315.074024 140.678049 
L 315.074024 140.678049 
L 316.410246 132.191975 
L 318.476727 120.894433 
L 327.69448 75.312558 
L 327.69448 75.312558 
L 328.761563 71.46249 
L 328.761563 71.46249 
L 329.838434 68.294111 
L 329.838434 68.294111 
L 330.92336 65.686722 
L 330.92336 65.686722 
L 332.014915 63.540994 
L 332.014915 63.540994 
L 333.386912 61.384935 
L 334.765602 59.694994 
L 336.149538 58.3704 
L 337.537585 57.332171 
L 337.537585 57.332171 
L 339.207432 56.378104 
L 340.880744 55.685611 
L 340.880744 55.685611 
L 341.159615 56.366505 
L 341.990699 61.293637 
L 341.990699 61.293637 
L 343.075186 73.084217 
L 343.075186 73.084217 
L 347.042032 124.662185 
L 347.042032 124.662185 
L 350.114924 155.207892 
L 351.951155 170.428022 
L 354.646079 187.674931 
L 355.387981 191.304214 
L 356.120647 194.27077 
L 356.665392 195.909054 
L 356.665392 195.909054 
L 357.20737 196.937007 
L 357.747695 197.504151 
L 358.287207 197.707677 
L 358.826558 197.691188 
L 358.826558 197.691188 
L 359.725994 197.382308 
L 360.446625 196.934722 
L 361.349532 196.168313 
L 363.165125 194.291908 
L 363.165125 194.291908 
L 363.894168 194.10114 
L 363.894168 194.10114 
L 364.258611 194.336274 
L 364.985406 195.693616 
L 366.422527 200.34712 
L 368.004547 206.518201 
L 369.549016 212.192748 
L 369.549016 212.192748 
L 370.22444 214.380649 
L 370.22444 214.380649 
L 371.06064 216.92327 
L 371.723247 218.815941 
L 372.217101 219.91745 
L 372.217101 219.91745 
L 372.709085 220.614771 
L 373.19991 221.027405 
L 373.690103 221.211382 
L 374.180136 221.202077 
L 374.180136 221.202077 
L 374.997419 220.850065 
L 375.652824 220.072841 
L 376.641607 218.110251 
L 377.306003 216.351762 
L 377.975945 214.148599 
L 378.822979 210.855143 
L 378.822979 210.855143 
L 380.909794 201.00139 
L 380.909794 201.00139 
L 382.168878 194.023409 
L 383.843464 183.26898 
L 383.843464 183.26898 
L 386.594118 163.727846 
L 389.560608 138.905817 
L 389.560608 138.905817 
L 391.37671 121.094579 
L 391.37671 121.094579 
L 394.048808 94.575253 
L 395.066923 87.314554 
L 396.103496 81.339425 
L 397.155259 76.422247 
L 398.219522 72.375699 
L 398.487273 71.481393 
L 398.487273 71.481393 
" style="fill:none;stroke:#ff7f0e;stroke-linecap:square;stroke-width:1.5;"/>
   </g>
   <g id="line2d_15">
    <path clip-path="url(#p0c87b9c667)" d="M 73.832727 76.502382 
L 74.890334 72.441645 
L 75.958202 69.099898 
L 77.034513 66.349837 
L 78.117773 64.086699 
L 79.206752 62.224269 
L 80.574492 60.352872 
L 80.574492 60.352872 
L 81.948005 58.886052 
L 83.326044 57.736344 
L 84.984302 56.679836 
L 84.984302 56.679836 
L 86.646382 55.89111 
L 88.589027 55.219829 
L 90.812533 54.686672 
L 92.481822 54.403133 
L 92.760107 54.470308 
L 92.760107 54.470308 
L 93.03801 55.503689 
L 93.865225 60.92653 
L 93.865225 60.92653 
L 94.408875 66.74366 
L 95.987592 85.618575 
L 95.987592 85.618575 
L 98.453448 113.545185 
L 101.623994 142.985798 
L 101.623994 142.985798 
L 105.158316 166.739991 
L 106.933569 174.740991 
L 107.515902 176.222604 
L 108.288573 177.484851 
L 108.866185 178.047904 
L 108.866185 178.047904 
L 109.44293 178.329972 
L 109.827206 178.380357 
L 110.596 178.127971 
L 111.36611 177.43846 
L 112.332388 175.987543 
L 113.500658 173.231956 
L 113.500658 173.231956 
L 114.682241 169.520287 
L 115.680223 165.679456 
L 116.897474 160.033671 
L 117.930991 154.631544 
L 118.984519 148.514867 
L 120.060586 141.647468 
L 120.060586 141.647468 
L 121.161785 134.072403 
L 127.884041 84.119003 
L 128.922402 78.709676 
L 129.974431 74.258118 
L 131.037709 70.594748 
L 132.110243 67.58001 
L 133.190395 65.099059 
L 134.276815 63.057382 
L 135.641985 61.005875 
L 137.013483 59.397883 
L 138.389943 58.137522 
L 138.389943 58.137522 
L 139.770291 57.149638 
L 141.430671 56.241836 
L 143.371869 55.46921 
L 145.594226 54.85556 
L 148.097707 54.398515 
L 151.439131 54.030864 
L 155.897782 53.780289 
L 157.291572 53.734395 
L 157.291572 53.734395 
L 157.570301 53.8614 
L 157.848779 54.457192 
L 158.680627 57.421292 
L 159.77669 63.834332 
L 161.117673 74.285374 
L 163.428053 97.793092 
L 164.405162 109.023999 
L 165.808972 127.384332 
L 166.700332 141.085018 
L 168.747205 179.170807 
L 171.390204 219.976129 
L 172.343313 232.148429 
L 172.343313 232.148429 
L 172.802636 236.927532 
L 173.689873 246.778196 
L 176.272515 270.330487 
L 176.272515 270.330487 
L 177.402289 277.328953 
L 177.771168 278.357948 
L 177.771168 278.357948 
L 178.260664 279.020905 
L 178.260664 279.020905 
L 178.748949 279.258626 
L 178.748949 279.258626 
L 179.114959 279.24593 
L 179.603215 279.092791 
L 180.336755 278.684223 
L 180.950157 277.814512 
L 182.314025 274.791522 
L 183.069297 272.532906 
L 183.70637 270.329582 
L 183.70637 270.329582 
L 184.481935 267.224908 
L 185.138918 264.146738 
L 185.942639 259.88572 
L 187.613573 248.50258 
L 188.488711 241.255503 
L 190.825773 219.05736 
L 192.347444 203.697862 
L 196.114193 162.065346 
L 200.795704 104.76978 
L 200.795704 104.76978 
L 201.781885 95.704048 
L 201.781885 95.704048 
L 202.790973 88.243485 
L 202.790973 88.243485 
L 203.818913 82.103881 
L 203.818913 82.103881 
L 204.862366 77.051349 
L 204.862366 77.051349 
L 205.918586 72.893413 
L 205.918586 72.893413 
L 206.985312 69.471676 
L 206.985312 69.471676 
L 208.060684 66.655788 
L 208.060684 66.655788 
L 209.143171 64.338479 
L 209.143171 64.338479 
L 210.231513 62.43147 
L 210.231513 62.43147 
L 211.598614 60.515278 
L 212.971626 59.013348 
L 214.349272 57.836119 
L 216.007169 56.754322 
L 217.668979 55.946717 
L 219.611395 55.259368 
L 221.278601 54.864663 
L 221.278601 54.864663 
L 221.556312 55.659786 
L 222.383886 60.46721 
L 222.383886 60.46721 
L 222.928346 66.076746 
L 224.762053 90.52437 
L 226.923951 127.767839 
L 228.644514 162.497663 
L 230.000468 188.840744 
L 230.89722 204.293625 
L 232.703198 232.037407 
L 233.603474 245.409903 
L 234.175864 252.705202 
L 236.034894 273.686837 
L 236.654113 279.581274 
L 237.835708 289.028891 
L 237.835708 289.028891 
L 239.081717 294.053464 
L 239.52737 294.85644 
L 239.971467 295.216402 
L 240.525697 295.365432 
L 240.525697 295.365432 
L 241.079901 295.249608 
L 241.635231 294.672412 
L 242.081336 293.923314 
L 242.417597 293.08154 
L 242.869131 291.643473 
L 244.020333 286.394566 
L 245.335441 278.968791 
L 250.251912 246.790142 
L 255.945476 205.197337 
L 258.668737 181.086671 
L 259.83405 169.387602 
L 259.83405 169.387602 
L 261.893547 147.860306 
L 262.537753 144.11316 
L 263.187767 142.238568 
L 263.187767 142.238568 
L 263.405166 141.821434 
L 263.622771 141.647398 
L 264.057821 142.029493 
L 264.057821 142.029493 
L 264.274873 143.02826 
L 265.344247 151.605769 
L 268.694741 190.488332 
L 272.281464 225.538501 
L 272.281464 225.538501 
L 273.068279 231.275177 
L 273.683195 235.817466 
L 274.436392 240.327287 
L 275.028001 243.514602 
L 276.18898 248.199103 
L 276.90377 249.900484 
L 277.47245 250.530337 
L 278.03993 250.804457 
L 278.748862 250.776172 
L 278.748862 250.776172 
L 279.458411 250.433868 
L 280.16991 249.65017 
L 281.172321 247.753035 
L 281.749843 246.314596 
L 282.771381 243.257767 
L 282.771381 243.257767 
L 284.109917 238.236403 
L 286.263825 228.384168 
L 289.023022 213.752875 
L 289.023022 213.752875 
L 290.384012 206.458148 
L 290.384012 206.458148 
L 290.904132 204.377104 
L 291.602975 202.65148 
L 292.129466 202.04656 
L 292.48096 201.905832 
L 292.48096 201.905832 
L 292.656744 201.887254 
L 293.183085 203.064772 
L 293.183085 203.064772 
L 293.532246 204.340365 
L 294.052185 206.627398 
L 296.728938 221.463979 
L 298.635329 230.578623 
L 299.409525 233.49009 
L 300.021598 235.706657 
L 300.930416 237.872395 
L 300.930416 237.872395 
L 301.382143 238.401119 
L 301.983243 238.742371 
L 302.583796 238.790355 
L 303.334972 238.453349 
L 303.334972 238.453349 
L 304.088351 237.504428 
L 304.846521 235.703444 
L 305.612336 233.000674 
L 306.545617 228.80234 
L 307.985817 219.975299 
L 309.320298 209.182489 
L 310.723977 195.022735 
L 314.435259 152.808322 
L 315.50052 143.993095 
L 316.815845 135.062194 
L 316.815845 135.062194 
L 318.623232 124.641905 
L 318.623232 124.641905 
L 320.959478 112.893189 
L 328.997933 73.618875 
L 330.062825 70.068689 
L 331.136687 67.147095 
L 332.217932 64.742795 
L 333.305252 62.764198 
L 334.671325 60.776074 
L 336.043533 59.217762 
L 336.043533 59.217762 
L 337.420548 57.996342 
L 338.801332 57.038979 
L 340.462112 56.159225 
L 340.462112 56.159225 
L 341.848557 55.618784 
L 342.125779 56.312388 
L 342.40221 57.897696 
L 343.493013 67.822977 
L 347.266042 116.759035 
L 351.222099 157.621657 
L 351.222099 157.621657 
L 352.439954 167.812692 
L 355.509757 188.338346 
L 356.791032 194.184436 
L 357.332602 195.863207 
L 357.332602 195.863207 
L 357.871359 196.91266 
L 358.408439 197.491222 
L 358.94465 197.761381 
L 359.837975 197.690231 
L 360.55313 197.416459 
L 361.269306 196.962826 
L 362.16665 196.190341 
L 363.971111 194.305441 
L 364.6957 194.112277 
L 365.05792 194.343578 
L 365.780295 195.696757 
L 367.208694 200.347701 
L 368.781116 206.518288 
L 368.781116 206.518288 
L 370.316218 212.192762 
L 370.987548 214.380654 
L 371.81868 216.923272 
L 372.477267 218.815942 
L 372.968145 219.860485 
L 373.457233 220.584519 
L 373.457233 220.584519 
L 373.945126 221.01134 
L 374.43237 221.202851 
L 375.081767 221.210762 
L 375.731561 220.900014 
L 376.546064 219.901186 
L 377.365035 218.277424 
L 377.365035 218.277424 
L 378.024979 216.489335 
L 378.024979 216.489335 
L 379.025528 213.198583 
L 380.384095 207.530107 
L 382.133293 198.448979 
L 382.133293 198.448979 
L 384.702151 182.704306 
L 387.038541 166.210378 
L 389.95905 142.188407 
L 389.95905 142.188407 
L 391.973895 122.753297 
L 394.368724 98.053733 
L 395.371876 90.177138 
L 396.39493 83.695163 
L 397.434362 78.36088 
L 398.487273 73.97108 
L 398.487273 73.97108 
" style="fill:none;stroke:#2ca02c;stroke-linecap:square;stroke-width:1.5;"/>
   </g>
   <g id="patch_3">
    <path d="M 57.6 307.584 
L 57.6 41.472 
" style="fill:none;stroke:#000000;stroke-linecap:square;stroke-linejoin:miter;stroke-width:0.8;"/>
   </g>
   <g id="patch_4">
    <path d="M 414.72 307.584 
L 414.72 41.472 
" style="fill:none;stroke:#000000;stroke-linecap:square;stroke-linejoin:miter;stroke-width:0.8;"/>
   </g>
   <g id="patch_5">
    <path d="M 57.6 307.584 
L 414.72 307.584 
" style="fill:none;stroke:#000000;stroke-linecap:square;stroke-linejoin:miter;stroke-width:0.8;"/>
   </g>
   <g id="patch_6">
    <path d="M 57.6 41.472 
L 414.72 41.472 
" style="fill:none;stroke:#000000;stroke-linecap:square;stroke-linejoin:miter;stroke-width:0.8;"/>
   </g>
   <g id="text_13">
    <!-- aut speed -->
    <g transform="translate(206.294062 35.472)scale(0.12 -0.12)">
     <defs>
      <path d="M 34.28125 27.484375 
Q 23.390625 27.484375 19.1875 25 
Q 14.984375 22.515625 14.984375 16.5 
Q 14.984375 11.71875 18.140625 8.90625 
Q 21.296875 6.109375 26.703125 6.109375 
Q 34.1875 6.109375 38.703125 11.40625 
Q 43.21875 16.703125 43.21875 25.484375 
L 43.21875 27.484375 
z
M 52.203125 31.203125 
L 52.203125 0 
L 43.21875 0 
L 43.21875 8.296875 
Q 40.140625 3.328125 35.546875 0.953125 
Q 30.953125 -1.421875 24.3125 -1.421875 
Q 15.921875 -1.421875 10.953125 3.296875 
Q 6 8.015625 6 15.921875 
Q 6 25.140625 12.171875 29.828125 
Q 18.359375 34.515625 30.609375 34.515625 
L 43.21875 34.515625 
L 43.21875 35.40625 
Q 43.21875 41.609375 39.140625 45 
Q 35.0625 48.390625 27.6875 48.390625 
Q 23 48.390625 18.546875 47.265625 
Q 14.109375 46.140625 10.015625 43.890625 
L 10.015625 52.203125 
Q 14.9375 54.109375 19.578125 55.046875 
Q 24.21875 56 28.609375 56 
Q 40.484375 56 46.34375 49.84375 
Q 52.203125 43.703125 52.203125 31.203125 
z
" id="DejaVuSans-97"/>
      <path d="M 8.5 21.578125 
L 8.5 54.6875 
L 17.484375 54.6875 
L 17.484375 21.921875 
Q 17.484375 14.15625 20.5 10.265625 
Q 23.53125 6.390625 29.59375 6.390625 
Q 36.859375 6.390625 41.078125 11.03125 
Q 45.3125 15.671875 45.3125 23.6875 
L 45.3125 54.6875 
L 54.296875 54.6875 
L 54.296875 0 
L 45.3125 0 
L 45.3125 8.40625 
Q 42.046875 3.421875 37.71875 1 
Q 33.40625 -1.421875 27.6875 -1.421875 
Q 18.265625 -1.421875 13.375 4.4375 
Q 8.5 10.296875 8.5 21.578125 
z
M 31.109375 56 
z
" id="DejaVuSans-117"/>
      <path d="M 18.3125 70.21875 
L 18.3125 54.6875 
L 36.8125 54.6875 
L 36.8125 47.703125 
L 18.3125 47.703125 
L 18.3125 18.015625 
Q 18.3125 11.328125 20.140625 9.421875 
Q 21.96875 7.515625 27.59375 7.515625 
L 36.8125 7.515625 
L 36.8125 0 
L 27.59375 0 
Q 17.1875 0 13.234375 3.875 
Q 9.28125 7.765625 9.28125 18.015625 
L 9.28125 47.703125 
L 2.6875 47.703125 
L 2.6875 54.6875 
L 9.28125 54.6875 
L 9.28125 70.21875 
z
" id="DejaVuSans-116"/>
      <path id="DejaVuSans-32"/>
      <path d="M 44.28125 53.078125 
L 44.28125 44.578125 
Q 40.484375 46.53125 36.375 47.5 
Q 32.28125 48.484375 27.875 48.484375 
Q 21.1875 48.484375 17.84375 46.4375 
Q 14.5 44.390625 14.5 40.28125 
Q 14.5 37.15625 16.890625 35.375 
Q 19.28125 33.59375 26.515625 31.984375 
L 29.59375 31.296875 
Q 39.15625 29.25 43.1875 25.515625 
Q 47.21875 21.78125 47.21875 15.09375 
Q 47.21875 7.46875 41.1875 3.015625 
Q 35.15625 -1.421875 24.609375 -1.421875 
Q 20.21875 -1.421875 15.453125 -0.5625 
Q 10.6875 0.296875 5.421875 2 
L 5.421875 11.28125 
Q 10.40625 8.6875 15.234375 7.390625 
Q 20.0625 6.109375 24.8125 6.109375 
Q 31.15625 6.109375 34.5625 8.28125 
Q 37.984375 10.453125 37.984375 14.40625 
Q 37.984375 18.0625 35.515625 20.015625 
Q 33.0625 21.96875 24.703125 23.78125 
L 21.578125 24.515625 
Q 13.234375 26.265625 9.515625 29.90625 
Q 5.8125 33.546875 5.8125 39.890625 
Q 5.8125 47.609375 11.28125 51.796875 
Q 16.75 56 26.8125 56 
Q 31.78125 56 36.171875 55.265625 
Q 40.578125 54.546875 44.28125 53.078125 
z
" id="DejaVuSans-115"/>
      <path d="M 18.109375 8.203125 
L 18.109375 -20.796875 
L 9.078125 -20.796875 
L 9.078125 54.6875 
L 18.109375 54.6875 
L 18.109375 46.390625 
Q 20.953125 51.265625 25.265625 53.625 
Q 29.59375 56 35.59375 56 
Q 45.5625 56 51.78125 48.09375 
Q 58.015625 40.1875 58.015625 27.296875 
Q 58.015625 14.40625 51.78125 6.484375 
Q 45.5625 -1.421875 35.59375 -1.421875 
Q 29.59375 -1.421875 25.265625 0.953125 
Q 20.953125 3.328125 18.109375 8.203125 
z
M 48.6875 27.296875 
Q 48.6875 37.203125 44.609375 42.84375 
Q 40.53125 48.484375 33.40625 48.484375 
Q 26.265625 48.484375 22.1875 42.84375 
Q 18.109375 37.203125 18.109375 27.296875 
Q 18.109375 17.390625 22.1875 11.75 
Q 26.265625 6.109375 33.40625 6.109375 
Q 40.53125 6.109375 44.609375 11.75 
Q 48.6875 17.390625 48.6875 27.296875 
z
" id="DejaVuSans-112"/>
      <path d="M 56.203125 29.59375 
L 56.203125 25.203125 
L 14.890625 25.203125 
Q 15.484375 15.921875 20.484375 11.0625 
Q 25.484375 6.203125 34.421875 6.203125 
Q 39.59375 6.203125 44.453125 7.46875 
Q 49.3125 8.734375 54.109375 11.28125 
L 54.109375 2.78125 
Q 49.265625 0.734375 44.1875 -0.34375 
Q 39.109375 -1.421875 33.890625 -1.421875 
Q 20.796875 -1.421875 13.15625 6.1875 
Q 5.515625 13.8125 5.515625 26.8125 
Q 5.515625 40.234375 12.765625 48.109375 
Q 20.015625 56 32.328125 56 
Q 43.359375 56 49.78125 48.890625 
Q 56.203125 41.796875 56.203125 29.59375 
z
M 47.21875 32.234375 
Q 47.125 39.59375 43.09375 43.984375 
Q 39.0625 48.390625 32.421875 48.390625 
Q 24.90625 48.390625 20.390625 44.140625 
Q 15.875 39.890625 15.1875 32.171875 
z
" id="DejaVuSans-101"/>
      <path d="M 45.40625 46.390625 
L 45.40625 75.984375 
L 54.390625 75.984375 
L 54.390625 0 
L 45.40625 0 
L 45.40625 8.203125 
Q 42.578125 3.328125 38.25 0.953125 
Q 33.9375 -1.421875 27.875 -1.421875 
Q 17.96875 -1.421875 11.734375 6.484375 
Q 5.515625 14.40625 5.515625 27.296875 
Q 5.515625 40.1875 11.734375 48.09375 
Q 17.96875 56 27.875 56 
Q 33.9375 56 38.25 53.625 
Q 42.578125 51.265625 45.40625 46.390625 
z
M 14.796875 27.296875 
Q 14.796875 17.390625 18.875 11.75 
Q 22.953125 6.109375 30.078125 6.109375 
Q 37.203125 6.109375 41.296875 11.75 
Q 45.40625 17.390625 45.40625 27.296875 
Q 45.40625 37.203125 41.296875 42.84375 
Q 37.203125 48.484375 30.078125 48.484375 
Q 22.953125 48.484375 18.875 42.84375 
Q 14.796875 37.203125 14.796875 27.296875 
z
" id="DejaVuSans-100"/>
     </defs>
     <use xlink:href="#DejaVuSans-97"/>
     <use x="61.279297" xlink:href="#DejaVuSans-117"/>
     <use x="124.658203" xlink:href="#DejaVuSans-116"/>
     <use x="163.867188" xlink:href="#DejaVuSans-32"/>
     <use x="195.654297" xlink:href="#DejaVuSans-115"/>
     <use x="247.753906" xlink:href="#DejaVuSans-112"/>
     <use x="311.230469" xlink:href="#DejaVuSans-101"/>
     <use x="372.753906" xlink:href="#DejaVuSans-101"/>
     <use x="434.277344" xlink:href="#DejaVuSans-100"/>
    </g>
   </g>
   <g id="legend_1">
    <g id="patch_7">
     <path d="M 64.6 302.584 
L 156.557813 302.584 
Q 158.557813 302.584 158.557813 300.584 
L 158.557813 257.549625 
Q 158.557813 255.549625 156.557813 255.549625 
L 64.6 255.549625 
Q 62.6 255.549625 62.6 257.549625 
L 62.6 300.584 
Q 62.6 302.584 64.6 302.584 
z
" style="fill:#ffffff;opacity:0.8;stroke:#cccccc;stroke-linejoin:miter;"/>
    </g>
    <g id="line2d_16">
     <path d="M 66.6 263.648062 
L 86.6 263.648062 
" style="fill:none;stroke:#1f77b4;stroke-linecap:square;stroke-width:1.5;"/>
    </g>
    <g id="line2d_17"/>
    <g id="text_14">
     <!-- Waypoints -->
     <g transform="translate(94.6 267.148062)scale(0.1 -0.1)">
      <defs>
       <path d="M 3.328125 72.90625 
L 13.28125 72.90625 
L 28.609375 11.28125 
L 43.890625 72.90625 
L 54.984375 72.90625 
L 70.3125 11.28125 
L 85.59375 72.90625 
L 95.609375 72.90625 
L 77.296875 0 
L 64.890625 0 
L 49.515625 63.28125 
L 33.984375 0 
L 21.578125 0 
z
" id="DejaVuSans-87"/>
       <path d="M 32.171875 -5.078125 
Q 28.375 -14.84375 24.75 -17.8125 
Q 21.140625 -20.796875 15.09375 -20.796875 
L 7.90625 -20.796875 
L 7.90625 -13.28125 
L 13.1875 -13.28125 
Q 16.890625 -13.28125 18.9375 -11.515625 
Q 21 -9.765625 23.484375 -3.21875 
L 25.09375 0.875 
L 2.984375 54.6875 
L 12.5 54.6875 
L 29.59375 11.921875 
L 46.6875 54.6875 
L 56.203125 54.6875 
z
" id="DejaVuSans-121"/>
       <path d="M 30.609375 48.390625 
Q 23.390625 48.390625 19.1875 42.75 
Q 14.984375 37.109375 14.984375 27.296875 
Q 14.984375 17.484375 19.15625 11.84375 
Q 23.34375 6.203125 30.609375 6.203125 
Q 37.796875 6.203125 41.984375 11.859375 
Q 46.1875 17.53125 46.1875 27.296875 
Q 46.1875 37.015625 41.984375 42.703125 
Q 37.796875 48.390625 30.609375 48.390625 
z
M 30.609375 56 
Q 42.328125 56 49.015625 48.375 
Q 55.71875 40.765625 55.71875 27.296875 
Q 55.71875 13.875 49.015625 6.21875 
Q 42.328125 -1.421875 30.609375 -1.421875 
Q 18.84375 -1.421875 12.171875 6.21875 
Q 5.515625 13.875 5.515625 27.296875 
Q 5.515625 40.765625 12.171875 48.375 
Q 18.84375 56 30.609375 56 
z
" id="DejaVuSans-111"/>
       <path d="M 9.421875 54.6875 
L 18.40625 54.6875 
L 18.40625 0 
L 9.421875 0 
z
M 9.421875 75.984375 
L 18.40625 75.984375 
L 18.40625 64.59375 
L 9.421875 64.59375 
z
" id="DejaVuSans-105"/>
       <path d="M 54.890625 33.015625 
L 54.890625 0 
L 45.90625 0 
L 45.90625 32.71875 
Q 45.90625 40.484375 42.875 44.328125 
Q 39.84375 48.1875 33.796875 48.1875 
Q 26.515625 48.1875 22.3125 43.546875 
Q 18.109375 38.921875 18.109375 30.90625 
L 18.109375 0 
L 9.078125 0 
L 9.078125 54.6875 
L 18.109375 54.6875 
L 18.109375 46.1875 
Q 21.34375 51.125 25.703125 53.5625 
Q 30.078125 56 35.796875 56 
Q 45.21875 56 50.046875 50.171875 
Q 54.890625 44.34375 54.890625 33.015625 
z
" id="DejaVuSans-110"/>
      </defs>
      <use xlink:href="#DejaVuSans-87"/>
      <use x="92.501953" xlink:href="#DejaVuSans-97"/>
      <use x="153.78125" xlink:href="#DejaVuSans-121"/>
      <use x="212.960938" xlink:href="#DejaVuSans-112"/>
      <use x="276.4375" xlink:href="#DejaVuSans-111"/>
      <use x="337.619141" xlink:href="#DejaVuSans-105"/>
      <use x="365.402344" xlink:href="#DejaVuSans-110"/>
      <use x="428.78125" xlink:href="#DejaVuSans-116"/>
      <use x="467.990234" xlink:href="#DejaVuSans-115"/>
     </g>
    </g>
    <g id="line2d_18">
     <path d="M 66.6 278.326188 
L 86.6 278.326188 
" style="fill:none;stroke:#ff7f0e;stroke-linecap:square;stroke-width:1.5;"/>
    </g>
    <g id="line2d_19"/>
    <g id="text_15">
     <!-- Stanley -->
     <g transform="translate(94.6 281.826188)scale(0.1 -0.1)">
      <defs>
       <path d="M 53.515625 70.515625 
L 53.515625 60.890625 
Q 47.90625 63.578125 42.921875 64.890625 
Q 37.9375 66.21875 33.296875 66.21875 
Q 25.25 66.21875 20.875 63.09375 
Q 16.5 59.96875 16.5 54.203125 
Q 16.5 49.359375 19.40625 46.890625 
Q 22.3125 44.4375 30.421875 42.921875 
L 36.375 41.703125 
Q 47.40625 39.59375 52.65625 34.296875 
Q 57.90625 29 57.90625 20.125 
Q 57.90625 9.515625 50.796875 4.046875 
Q 43.703125 -1.421875 29.984375 -1.421875 
Q 24.8125 -1.421875 18.96875 -0.25 
Q 13.140625 0.921875 6.890625 3.21875 
L 6.890625 13.375 
Q 12.890625 10.015625 18.65625 8.296875 
Q 24.421875 6.59375 29.984375 6.59375 
Q 38.421875 6.59375 43.015625 9.90625 
Q 47.609375 13.234375 47.609375 19.390625 
Q 47.609375 24.75 44.3125 27.78125 
Q 41.015625 30.8125 33.5 32.328125 
L 27.484375 33.5 
Q 16.453125 35.6875 11.515625 40.375 
Q 6.59375 45.0625 6.59375 53.421875 
Q 6.59375 63.09375 13.40625 68.65625 
Q 20.21875 74.21875 32.171875 74.21875 
Q 37.3125 74.21875 42.625 73.28125 
Q 47.953125 72.359375 53.515625 70.515625 
z
" id="DejaVuSans-83"/>
       <path d="M 9.421875 75.984375 
L 18.40625 75.984375 
L 18.40625 0 
L 9.421875 0 
z
" id="DejaVuSans-108"/>
      </defs>
      <use xlink:href="#DejaVuSans-83"/>
      <use x="63.476562" xlink:href="#DejaVuSans-116"/>
      <use x="102.685547" xlink:href="#DejaVuSans-97"/>
      <use x="163.964844" xlink:href="#DejaVuSans-110"/>
      <use x="227.34375" xlink:href="#DejaVuSans-108"/>
      <use x="255.126953" xlink:href="#DejaVuSans-101"/>
      <use x="316.650391" xlink:href="#DejaVuSans-121"/>
     </g>
    </g>
    <g id="line2d_20">
     <path d="M 66.6 293.004312 
L 86.6 293.004312 
" style="fill:none;stroke:#2ca02c;stroke-linecap:square;stroke-width:1.5;"/>
    </g>
    <g id="line2d_21"/>
    <g id="text_16">
     <!-- Pure Pursuit -->
     <g transform="translate(94.6 296.504312)scale(0.1 -0.1)">
      <defs>
       <path d="M 19.671875 64.796875 
L 19.671875 37.40625 
L 32.078125 37.40625 
Q 38.96875 37.40625 42.71875 40.96875 
Q 46.484375 44.53125 46.484375 51.125 
Q 46.484375 57.671875 42.71875 61.234375 
Q 38.96875 64.796875 32.078125 64.796875 
z
M 9.8125 72.90625 
L 32.078125 72.90625 
Q 44.34375 72.90625 50.609375 67.359375 
Q 56.890625 61.8125 56.890625 51.125 
Q 56.890625 40.328125 50.609375 34.8125 
Q 44.34375 29.296875 32.078125 29.296875 
L 19.671875 29.296875 
L 19.671875 0 
L 9.8125 0 
z
" id="DejaVuSans-80"/>
       <path d="M 41.109375 46.296875 
Q 39.59375 47.171875 37.8125 47.578125 
Q 36.03125 48 33.890625 48 
Q 26.265625 48 22.1875 43.046875 
Q 18.109375 38.09375 18.109375 28.8125 
L 18.109375 0 
L 9.078125 0 
L 9.078125 54.6875 
L 18.109375 54.6875 
L 18.109375 46.1875 
Q 20.953125 51.171875 25.484375 53.578125 
Q 30.03125 56 36.53125 56 
Q 37.453125 56 38.578125 55.875 
Q 39.703125 55.765625 41.0625 55.515625 
z
" id="DejaVuSans-114"/>
      </defs>
      <use xlink:href="#DejaVuSans-80"/>
      <use x="58.552734" xlink:href="#DejaVuSans-117"/>
      <use x="121.931641" xlink:href="#DejaVuSans-114"/>
      <use x="160.794922" xlink:href="#DejaVuSans-101"/>
      <use x="222.318359" xlink:href="#DejaVuSans-32"/>
      <use x="254.105469" xlink:href="#DejaVuSans-80"/>
      <use x="312.658203" xlink:href="#DejaVuSans-117"/>
      <use x="376.037109" xlink:href="#DejaVuSans-114"/>
      <use x="417.150391" xlink:href="#DejaVuSans-115"/>
      <use x="469.25" xlink:href="#DejaVuSans-117"/>
      <use x="532.628906" xlink:href="#DejaVuSans-105"/>
      <use x="560.412109" xlink:href="#DejaVuSans-116"/>
     </g>
    </g>
   </g>
  </g>
 </g>
 <defs>
  <clipPath id="p0c87b9c667">
   <rect height="266.112" width="357.12" x="57.6" y="41.472"/>
  </clipPath>
 </defs>
</svg>
