<?xml version="1.0" encoding="utf-8" standalone="no"?>
<!DOCTYPE svg PUBLIC "-//W3C//DTD SVG 1.1//EN"
  "http://www.w3.org/Graphics/SVG/1.1/DTD/svg11.dtd">
<!-- Created with matplotlib (https://matplotlib.org/) -->
<svg height="345.6pt" version="1.1" viewBox="0 0 460.8 345.6" width="460.8pt" xmlns="http://www.w3.org/2000/svg" xmlns:xlink="http://www.w3.org/1999/xlink">
 <metadata>
  <rdf:RDF xmlns:cc="http://creativecommons.org/ns#" xmlns:dc="http://purl.org/dc/elements/1.1/" xmlns:rdf="http://www.w3.org/1999/02/22-rdf-syntax-ns#">
   <cc:Work>
    <dc:type rdf:resource="http://purl.org/dc/dcmitype/StillImage"/>
    <dc:date>2024-10-03T15:12:52.267400</dc:date>
    <dc:format>image/svg+xml</dc:format>
    <dc:creator>
     <cc:Agent>
      <dc:title>Matplotlib v3.3.1, https://matplotlib.org/</dc:title>
     </cc:Agent>
    </dc:creator>
   </cc:Work>
  </rdf:RDF>
 </metadata>
 <defs>
  <style type="text/css">*{stroke-linecap:butt;stroke-linejoin:round;}</style>
 </defs>
 <g id="figure_1">
  <g id="patch_1">
   <path d="M 0 345.6 
L 460.8 345.6 
L 460.8 0 
L 0 0 
z
" style="fill:#ffffff;"/>
  </g>
  <g id="axes_1">
   <g id="patch_2">
    <path d="M 57.6 307.584 
L 414.72 307.584 
L 414.72 41.472 
L 57.6 41.472 
z
" style="fill:#ffffff;"/>
   </g>
   <g id="matplotlib.axis_1">
    <g id="xtick_1">
     <g id="line2d_1">
      <defs>
       <path d="M 0 0 
L 0 3.5 
" id="m5e8ca3291a" style="stroke:#000000;stroke-width:0.8;"/>
      </defs>
      <g>
       <use style="stroke:#000000;stroke-width:0.8;" x="73.832727" xlink:href="#m5e8ca3291a" y="307.584"/>
      </g>
     </g>
     <g id="text_1">
      <!-- 0.0 -->
      <g transform="translate(65.881165 322.182437)scale(0.1 -0.1)">
       <defs>
        <path d="M 31.78125 66.40625 
Q 24.171875 66.40625 20.328125 58.90625 
Q 16.5 51.421875 16.5 36.375 
Q 16.5 21.390625 20.328125 13.890625 
Q 24.171875 6.390625 31.78125 6.390625 
Q 39.453125 6.390625 43.28125 13.890625 
Q 47.125 21.390625 47.125 36.375 
Q 47.125 51.421875 43.28125 58.90625 
Q 39.453125 66.40625 31.78125 66.40625 
z
M 31.78125 74.21875 
Q 44.046875 74.21875 50.515625 64.515625 
Q 56.984375 54.828125 56.984375 36.375 
Q 56.984375 17.96875 50.515625 8.265625 
Q 44.046875 -1.421875 31.78125 -1.421875 
Q 19.53125 -1.421875 13.0625 8.265625 
Q 6.59375 17.96875 6.59375 36.375 
Q 6.59375 54.828125 13.0625 64.515625 
Q 19.53125 74.21875 31.78125 74.21875 
z
" id="DejaVuSans-48"/>
        <path d="M 10.6875 12.40625 
L 21 12.40625 
L 21 0 
L 10.6875 0 
z
" id="DejaVuSans-46"/>
       </defs>
       <use xlink:href="#DejaVuSans-48"/>
       <use x="63.623047" xlink:href="#DejaVuSans-46"/>
       <use x="95.410156" xlink:href="#DejaVuSans-48"/>
      </g>
     </g>
    </g>
    <g id="xtick_2">
     <g id="line2d_2">
      <g>
       <use style="stroke:#000000;stroke-width:0.8;" x="138.763636" xlink:href="#m5e8ca3291a" y="307.584"/>
      </g>
     </g>
     <g id="text_2">
      <!-- 0.2 -->
      <g transform="translate(130.812074 322.182437)scale(0.1 -0.1)">
       <defs>
        <path d="M 19.1875 8.296875 
L 53.609375 8.296875 
L 53.609375 0 
L 7.328125 0 
L 7.328125 8.296875 
Q 12.9375 14.109375 22.625 23.890625 
Q 32.328125 33.6875 34.8125 36.53125 
Q 39.546875 41.84375 41.421875 45.53125 
Q 43.3125 49.21875 43.3125 52.78125 
Q 43.3125 58.59375 39.234375 62.25 
Q 35.15625 65.921875 28.609375 65.921875 
Q 23.96875 65.921875 18.8125 64.3125 
Q 13.671875 62.703125 7.8125 59.421875 
L 7.8125 69.390625 
Q 13.765625 71.78125 18.9375 73 
Q 24.125 74.21875 28.421875 74.21875 
Q 39.75 74.21875 46.484375 68.546875 
Q 53.21875 62.890625 53.21875 53.421875 
Q 53.21875 48.921875 51.53125 44.890625 
Q 49.859375 40.875 45.40625 35.40625 
Q 44.1875 33.984375 37.640625 27.21875 
Q 31.109375 20.453125 19.1875 8.296875 
z
" id="DejaVuSans-50"/>
       </defs>
       <use xlink:href="#DejaVuSans-48"/>
       <use x="63.623047" xlink:href="#DejaVuSans-46"/>
       <use x="95.410156" xlink:href="#DejaVuSans-50"/>
      </g>
     </g>
    </g>
    <g id="xtick_3">
     <g id="line2d_3">
      <g>
       <use style="stroke:#000000;stroke-width:0.8;" x="203.694545" xlink:href="#m5e8ca3291a" y="307.584"/>
      </g>
     </g>
     <g id="text_3">
      <!-- 0.4 -->
      <g transform="translate(195.742983 322.182437)scale(0.1 -0.1)">
       <defs>
        <path d="M 37.796875 64.3125 
L 12.890625 25.390625 
L 37.796875 25.390625 
z
M 35.203125 72.90625 
L 47.609375 72.90625 
L 47.609375 25.390625 
L 58.015625 25.390625 
L 58.015625 17.1875 
L 47.609375 17.1875 
L 47.609375 0 
L 37.796875 0 
L 37.796875 17.1875 
L 4.890625 17.1875 
L 4.890625 26.703125 
z
" id="DejaVuSans-52"/>
       </defs>
       <use xlink:href="#DejaVuSans-48"/>
       <use x="63.623047" xlink:href="#DejaVuSans-46"/>
       <use x="95.410156" xlink:href="#DejaVuSans-52"/>
      </g>
     </g>
    </g>
    <g id="xtick_4">
     <g id="line2d_4">
      <g>
       <use style="stroke:#000000;stroke-width:0.8;" x="268.625455" xlink:href="#m5e8ca3291a" y="307.584"/>
      </g>
     </g>
     <g id="text_4">
      <!-- 0.6 -->
      <g transform="translate(260.673892 322.182437)scale(0.1 -0.1)">
       <defs>
        <path d="M 33.015625 40.375 
Q 26.375 40.375 22.484375 35.828125 
Q 18.609375 31.296875 18.609375 23.390625 
Q 18.609375 15.53125 22.484375 10.953125 
Q 26.375 6.390625 33.015625 6.390625 
Q 39.65625 6.390625 43.53125 10.953125 
Q 47.40625 15.53125 47.40625 23.390625 
Q 47.40625 31.296875 43.53125 35.828125 
Q 39.65625 40.375 33.015625 40.375 
z
M 52.59375 71.296875 
L 52.59375 62.3125 
Q 48.875 64.0625 45.09375 64.984375 
Q 41.3125 65.921875 37.59375 65.921875 
Q 27.828125 65.921875 22.671875 59.328125 
Q 17.53125 52.734375 16.796875 39.40625 
Q 19.671875 43.65625 24.015625 45.921875 
Q 28.375 48.1875 33.59375 48.1875 
Q 44.578125 48.1875 50.953125 41.515625 
Q 57.328125 34.859375 57.328125 23.390625 
Q 57.328125 12.15625 50.6875 5.359375 
Q 44.046875 -1.421875 33.015625 -1.421875 
Q 20.359375 -1.421875 13.671875 8.265625 
Q 6.984375 17.96875 6.984375 36.375 
Q 6.984375 53.65625 15.1875 63.9375 
Q 23.390625 74.21875 37.203125 74.21875 
Q 40.921875 74.21875 44.703125 73.484375 
Q 48.484375 72.75 52.59375 71.296875 
z
" id="DejaVuSans-54"/>
       </defs>
       <use xlink:href="#DejaVuSans-48"/>
       <use x="63.623047" xlink:href="#DejaVuSans-46"/>
       <use x="95.410156" xlink:href="#DejaVuSans-54"/>
      </g>
     </g>
    </g>
    <g id="xtick_5">
     <g id="line2d_5">
      <g>
       <use style="stroke:#000000;stroke-width:0.8;" x="333.556364" xlink:href="#m5e8ca3291a" y="307.584"/>
      </g>
     </g>
     <g id="text_5">
      <!-- 0.8 -->
      <g transform="translate(325.604801 322.182437)scale(0.1 -0.1)">
       <defs>
        <path d="M 31.78125 34.625 
Q 24.75 34.625 20.71875 30.859375 
Q 16.703125 27.09375 16.703125 20.515625 
Q 16.703125 13.921875 20.71875 10.15625 
Q 24.75 6.390625 31.78125 6.390625 
Q 38.8125 6.390625 42.859375 10.171875 
Q 46.921875 13.96875 46.921875 20.515625 
Q 46.921875 27.09375 42.890625 30.859375 
Q 38.875 34.625 31.78125 34.625 
z
M 21.921875 38.8125 
Q 15.578125 40.375 12.03125 44.71875 
Q 8.5 49.078125 8.5 55.328125 
Q 8.5 64.0625 14.71875 69.140625 
Q 20.953125 74.21875 31.78125 74.21875 
Q 42.671875 74.21875 48.875 69.140625 
Q 55.078125 64.0625 55.078125 55.328125 
Q 55.078125 49.078125 51.53125 44.71875 
Q 48 40.375 41.703125 38.8125 
Q 48.828125 37.15625 52.796875 32.3125 
Q 56.78125 27.484375 56.78125 20.515625 
Q 56.78125 9.90625 50.3125 4.234375 
Q 43.84375 -1.421875 31.78125 -1.421875 
Q 19.734375 -1.421875 13.25 4.234375 
Q 6.78125 9.90625 6.78125 20.515625 
Q 6.78125 27.484375 10.78125 32.3125 
Q 14.796875 37.15625 21.921875 38.8125 
z
M 18.3125 54.390625 
Q 18.3125 48.734375 21.84375 45.5625 
Q 25.390625 42.390625 31.78125 42.390625 
Q 38.140625 42.390625 41.71875 45.5625 
Q 45.3125 48.734375 45.3125 54.390625 
Q 45.3125 60.0625 41.71875 63.234375 
Q 38.140625 66.40625 31.78125 66.40625 
Q 25.390625 66.40625 21.84375 63.234375 
Q 18.3125 60.0625 18.3125 54.390625 
z
" id="DejaVuSans-56"/>
       </defs>
       <use xlink:href="#DejaVuSans-48"/>
       <use x="63.623047" xlink:href="#DejaVuSans-46"/>
       <use x="95.410156" xlink:href="#DejaVuSans-56"/>
      </g>
     </g>
    </g>
    <g id="xtick_6">
     <g id="line2d_6">
      <g>
       <use style="stroke:#000000;stroke-width:0.8;" x="398.487273" xlink:href="#m5e8ca3291a" y="307.584"/>
      </g>
     </g>
     <g id="text_6">
      <!-- 1.0 -->
      <g transform="translate(390.53571 322.182437)scale(0.1 -0.1)">
       <defs>
        <path d="M 12.40625 8.296875 
L 28.515625 8.296875 
L 28.515625 63.921875 
L 10.984375 60.40625 
L 10.984375 69.390625 
L 28.421875 72.90625 
L 38.28125 72.90625 
L 38.28125 8.296875 
L 54.390625 8.296875 
L 54.390625 0 
L 12.40625 0 
z
" id="DejaVuSans-49"/>
       </defs>
       <use xlink:href="#DejaVuSans-49"/>
       <use x="63.623047" xlink:href="#DejaVuSans-46"/>
       <use x="95.410156" xlink:href="#DejaVuSans-48"/>
      </g>
     </g>
    </g>
   </g>
   <g id="matplotlib.axis_2">
    <g id="ytick_1">
     <g id="line2d_7">
      <defs>
       <path d="M 0 0 
L -3.5 0 
" id="mfa98ec1254" style="stroke:#000000;stroke-width:0.8;"/>
      </defs>
      <g>
       <use style="stroke:#000000;stroke-width:0.8;" x="57.6" xlink:href="#mfa98ec1254" y="290.046707"/>
      </g>
     </g>
     <g id="text_7">
      <!-- −3 -->
      <g transform="translate(35.857813 293.845926)scale(0.1 -0.1)">
       <defs>
        <path d="M 10.59375 35.5 
L 73.1875 35.5 
L 73.1875 27.203125 
L 10.59375 27.203125 
z
" id="DejaVuSans-8722"/>
        <path d="M 40.578125 39.3125 
Q 47.65625 37.796875 51.625 33 
Q 55.609375 28.21875 55.609375 21.1875 
Q 55.609375 10.40625 48.1875 4.484375 
Q 40.765625 -1.421875 27.09375 -1.421875 
Q 22.515625 -1.421875 17.65625 -0.515625 
Q 12.796875 0.390625 7.625 2.203125 
L 7.625 11.71875 
Q 11.71875 9.328125 16.59375 8.109375 
Q 21.484375 6.890625 26.8125 6.890625 
Q 36.078125 6.890625 40.9375 10.546875 
Q 45.796875 14.203125 45.796875 21.1875 
Q 45.796875 27.640625 41.28125 31.265625 
Q 36.765625 34.90625 28.71875 34.90625 
L 20.21875 34.90625 
L 20.21875 43.015625 
L 29.109375 43.015625 
Q 36.375 43.015625 40.234375 45.921875 
Q 44.09375 48.828125 44.09375 54.296875 
Q 44.09375 59.90625 40.109375 62.90625 
Q 36.140625 65.921875 28.71875 65.921875 
Q 24.65625 65.921875 20.015625 65.03125 
Q 15.375 64.15625 9.8125 62.3125 
L 9.8125 71.09375 
Q 15.4375 72.65625 20.34375 73.4375 
Q 25.25 74.21875 29.59375 74.21875 
Q 40.828125 74.21875 47.359375 69.109375 
Q 53.90625 64.015625 53.90625 55.328125 
Q 53.90625 49.265625 50.4375 45.09375 
Q 46.96875 40.921875 40.578125 39.3125 
z
" id="DejaVuSans-51"/>
       </defs>
       <use xlink:href="#DejaVuSans-8722"/>
       <use x="83.789062" xlink:href="#DejaVuSans-51"/>
      </g>
     </g>
    </g>
    <g id="ytick_2">
     <g id="line2d_8">
      <g>
       <use style="stroke:#000000;stroke-width:0.8;" x="57.6" xlink:href="#mfa98ec1254" y="251.541658"/>
      </g>
     </g>
     <g id="text_8">
      <!-- −2 -->
      <g transform="translate(35.857813 255.340877)scale(0.1 -0.1)">
       <use xlink:href="#DejaVuSans-8722"/>
       <use x="83.789062" xlink:href="#DejaVuSans-50"/>
      </g>
     </g>
    </g>
    <g id="ytick_3">
     <g id="line2d_9">
      <g>
       <use style="stroke:#000000;stroke-width:0.8;" x="57.6" xlink:href="#mfa98ec1254" y="213.036609"/>
      </g>
     </g>
     <g id="text_9">
      <!-- −1 -->
      <g transform="translate(35.857813 216.835828)scale(0.1 -0.1)">
       <use xlink:href="#DejaVuSans-8722"/>
       <use x="83.789062" xlink:href="#DejaVuSans-49"/>
      </g>
     </g>
    </g>
    <g id="ytick_4">
     <g id="line2d_10">
      <g>
       <use style="stroke:#000000;stroke-width:0.8;" x="57.6" xlink:href="#mfa98ec1254" y="174.53156"/>
      </g>
     </g>
     <g id="text_10">
      <!-- 0 -->
      <g transform="translate(44.2375 178.330779)scale(0.1 -0.1)">
       <use xlink:href="#DejaVuSans-48"/>
      </g>
     </g>
    </g>
    <g id="ytick_5">
     <g id="line2d_11">
      <g>
       <use style="stroke:#000000;stroke-width:0.8;" x="57.6" xlink:href="#mfa98ec1254" y="136.026511"/>
      </g>
     </g>
     <g id="text_11">
      <!-- 1 -->
      <g transform="translate(44.2375 139.82573)scale(0.1 -0.1)">
       <use xlink:href="#DejaVuSans-49"/>
      </g>
     </g>
    </g>
    <g id="ytick_6">
     <g id="line2d_12">
      <g>
       <use style="stroke:#000000;stroke-width:0.8;" x="57.6" xlink:href="#mfa98ec1254" y="97.521462"/>
      </g>
     </g>
     <g id="text_12">
      <!-- 2 -->
      <g transform="translate(44.2375 101.320681)scale(0.1 -0.1)">
       <use xlink:href="#DejaVuSans-50"/>
      </g>
     </g>
    </g>
    <g id="ytick_7">
     <g id="line2d_13">
      <g>
       <use style="stroke:#000000;stroke-width:0.8;" x="57.6" xlink:href="#mfa98ec1254" y="59.016413"/>
      </g>
     </g>
     <g id="text_13">
      <!-- 3 -->
      <g transform="translate(44.2375 62.815632)scale(0.1 -0.1)">
       <use xlink:href="#DejaVuSans-51"/>
      </g>
     </g>
    </g>
   </g>
   <g id="line2d_14">
    <path clip-path="url(#pecd494aa6c)" d="M 73.832727 174.475363 
L 81.765339 174.364782 
L 91.114488 174.318453 
L 98.338831 174.528526 
L 98.905446 174.679906 
L 99.613715 175.122939 
L 100.321983 175.848975 
L 101.171904 177.10445 
L 102.163476 179.092765 
L 103.155047 181.63827 
L 104.288265 185.274552 
L 105.563125 190.271083 
L 106.837979 196.366032 
L 108.254462 204.57013 
L 110.520802 219.259678 
L 111.087409 221.029654 
L 111.512369 221.649604 
L 111.795677 221.75617 
L 112.078984 221.612253 
L 112.36229 221.200005 
L 112.787249 220.127536 
L 113.353851 217.804731 
L 114.062081 213.828735 
L 115.620202 204.555591 
L 116.611745 200.028122 
L 117.461652 196.990081 
L 118.311566 194.716435 
L 119.019833 193.398826 
L 119.7281 192.635158 
L 120.153061 192.422944 
L 120.719676 192.451457 
L 121.286291 192.824131 
L 121.852905 193.543669 
L 122.561168 194.934525 
L 123.26943 196.853978 
L 124.119335 199.849502 
L 125.11087 204.35629 
L 131.343355 235.521575 
L 134.601264 250.531917 
L 136.301047 257.722801 
L 138.14249 264.595984 
L 139.70065 269.666675 
L 142.108722 276.358051 
L 143.808547 280.396298 
L 145.508376 283.9111 
L 146.783252 286.205229 
L 150.324581 291.045381 
L 151.599462 292.303142 
L 152.874344 293.27665 
L 154.007574 293.899683 
L 155.565765 294.476142 
L 158.823801 295.474391 
L 158.965455 53.579271 
L 160.098685 54.013618 
L 161.231914 54.705168 
L 162.365142 55.688081 
L 162.931754 56.52635 
L 163.640011 58.102575 
L 164.348266 60.272166 
L 165.198153 63.659135 
L 166.189652 68.661974 
L 167.039483 73.924373 
L 168.03093 81.332462 
L 169.022252 90.301917 
L 171.429828 112.658241 
L 173.27094 128.049368 
L 174.545665 137.045826 
L 176.103683 146.369319 
L 177.520114 153.639583 
L 179.078223 160.642331 
L 180.4947 166.007739 
L 181.769544 169.993801 
L 182.902754 172.822832 
L 183.894321 174.752104 
L 184.88589 176.179372 
L 185.73581 177.001951 
L 186.444079 177.405616 
L 187.152348 177.548825 
L 187.860616 177.436779 
L 188.568885 177.062854 
L 189.277152 176.433528 
L 190.12707 175.335309 
L 190.835331 174.063544 
L 191.401933 172.599744 
L 192.110178 170.037922 
L 192.96004 165.887181 
L 193.80986 160.522992 
L 194.801205 152.56133 
L 195.792504 142.493089 
L 196.641984 131.4073 
L 198.340684 106.965483 
L 199.33187 96.677569 
L 200.323266 88.604988 
L 201.173078 83.303555 
L 202.022937 79.31778 
L 202.731178 77.048646 
L 203.297787 75.915384 
L 203.8644 75.256466 
L 204.997628 74.452284 
L 207.122431 72.792258 
L 209.247231 70.857826 
L 211.513683 68.464864 
L 213.921787 65.570439 
L 216.188234 62.536631 
L 217.888066 59.942741 
L 220.012851 56.320244 
L 221.42937 53.568 
L 221.571024 295.154761 
L 222.279268 293.069626 
L 223.129147 289.836508 
L 223.979002 285.778527 
L 224.970478 279.897552 
L 226.245101 270.490515 
L 227.661375 259.903357 
L 228.65286 254.28041 
L 229.502728 250.680225 
L 230.21097 248.503724 
L 230.777577 247.300659 
L 231.344189 246.574773 
L 231.76915 246.347757 
L 232.194112 246.401829 
L 233.044033 246.838832 
L 234.460569 247.814427 
L 236.302064 249.40083 
L 237.718596 250.957074 
L 239.276778 252.973537 
L 240.97661 255.53614 
L 242.818092 258.757817 
L 244.092956 261.367618 
L 245.509465 264.782885 
L 247.067618 269.194586 
L 248.625748 274.315847 
L 250.608801 281.901659 
L 253.724994 295.223065 
L 253.866647 53.824077 
L 255.283128 58.695114 
L 256.699624 62.848319 
L 258.257781 66.722478 
L 259.532649 69.356093 
L 260.807519 71.481126 
L 261.940743 72.948964 
L 262.932317 73.905959 
L 263.923892 74.569494 
L 265.198775 75.150188 
L 267.606889 75.882684 
L 270.29831 76.477289 
L 272.989732 76.836108 
L 275.681154 76.959628 
L 278.230922 76.859642 
L 280.78069 76.548319 
L 283.330457 76.025523 
L 286.021878 75.249905 
L 287.721723 74.600892 
L 288.429991 74.008031 
L 288.854949 73.418079 
L 289.279905 72.345593 
L 289.704841 70.727981 
L 290.271401 67.638879 
L 290.979573 62.299696 
L 291.687588 55.27167 
L 291.829242 53.614635 
L 291.970769 293.834521 
L 292.82015 281.709582 
L 293.810776 262.848634 
L 294.660012 249.285628 
L 295.509535 238.886051 
L 296.359226 230.928118 
L 297.067367 225.905708 
L 297.775592 222.273852 
L 300.608526 210.467312 
L 302.874885 201.567986 
L 303.441487 200.068076 
L 303.866444 199.401858 
L 304.291405 199.146531 
L 304.574713 199.190966 
L 304.85802 199.41734 
L 305.282978 200.080077 
L 305.849581 201.591056 
L 306.41617 203.828001 
L 307.266022 208.443682 
L 308.115812 214.773152 
L 309.107179 224.278209 
L 310.523261 239.935774 
L 312.222583 258.18137 
L 313.638798 271.320682 
L 315.055113 282.293999 
L 316.046575 288.529235 
L 317.179729 294.442225 
L 317.321383 295.100407 
L 317.463022 53.814129 
L 318.596206 58.437424 
L 319.587761 61.62488 
L 320.43767 63.743019 
L 321.287585 65.299407 
L 321.995851 66.170773 
L 322.84577 67.329699 
L 323.554034 68.717955 
L 324.262288 70.645347 
L 325.112185 73.697185 
L 326.10372 78.286326 
L 327.095212 84.031357 
L 328.0867 90.849419 
L 329.078102 99.173066 
L 330.069561 106.923798 
L 330.777764 111.08586 
L 331.486011 114.046286 
L 332.052615 115.582494 
L 332.477573 116.257353 
L 332.902534 116.476631 
L 333.185842 116.397771 
L 333.469149 116.132667 
L 333.894107 115.399087 
L 334.460712 113.751042 
L 335.168959 110.63304 
L 335.877167 106.372694 
L 336.726981 99.632271 
L 337.43517 93.964459 
L 338.00175 91.07652 
L 338.426702 89.89061 
L 338.710009 89.629348 
L 338.993316 89.776891 
L 339.276622 90.309635 
L 339.701576 91.934307 
L 340.268159 95.170687 
L 342.392812 107.96004 
L 344.51752 119.144122 
L 347.067186 131.341615 
L 350.891704 148.739651 
L 352.449863 154.800994 
L 353.724722 159.068484 
L 355.141244 163.044686 
L 356.699423 166.817427 
L 357.9743 169.340676 
L 359.24918 171.356848 
L 360.240754 172.585659 
L 361.373983 173.620226 
L 362.365559 174.19802 
L 363.215481 174.452168 
L 364.065404 174.537517 
L 383.188664 174.587029 
L 398.487273 174.478673 
L 398.487273 174.478673 
" style="fill:none;stroke:#1f77b4;stroke-linecap:square;stroke-width:1.5;"/>
   </g>
   <g id="line2d_15">
    <path clip-path="url(#pecd494aa6c)" d="M 73.832727 174.714742 
L 74.282661 175.026494 
L 74.282661 175.026494 
L 74.732595 174.944772 
L 74.732595 174.944772 
L 75.407497 174.439622 
L 76.082398 173.911222 
L 76.082398 173.911222 
L 76.532332 173.992999 
L 76.532332 173.992999 
L 77.207233 174.49814 
L 77.882134 175.026494 
L 77.882134 175.026494 
L 78.332068 174.944687 
L 78.332068 174.944687 
L 79.006969 174.439512 
L 79.68187 173.911136 
L 79.68187 173.911136 
L 80.131804 173.992935 
L 80.131804 173.992935 
L 80.806705 174.498102 
L 81.256639 174.79378 
L 81.706574 174.710919 
L 82.381475 174.215076 
L 82.381475 174.215076 
L 83.056376 173.697972 
L 83.50631 173.785921 
L 84.181211 174.297592 
L 84.181211 174.297592 
L 84.856112 174.829715 
L 85.306046 174.749338 
L 85.980947 174.245293 
L 85.980947 174.245293 
L 86.655848 173.717354 
L 87.105782 173.799249 
L 87.780684 174.304432 
L 87.780684 174.304432 
L 88.455585 174.832765 
L 88.905519 174.750936 
L 89.58042 174.24573 
L 89.58042 174.24573 
L 90.255321 173.717333 
L 90.705255 173.799122 
L 91.380156 174.304281 
L 91.380156 174.304281 
L 92.280024 175.067112 
L 92.280024 175.067112 
L 92.729958 174.982292 
L 92.729958 174.982292 
L 93.404859 174.466223 
L 94.079761 173.927216 
L 94.079761 173.927216 
L 94.529695 174.003599 
L 94.529695 174.003599 
L 95.204596 174.503274 
L 95.879497 175.028611 
L 95.879497 175.028611 
L 96.329431 174.945703 
L 96.329431 174.945703 
L 97.004332 174.439697 
L 97.679233 173.91103 
L 97.679233 173.91103 
L 98.129167 173.992777 
L 98.129167 173.992777 
L 98.804068 174.497956 
L 100.601147 176.384702 
L 100.931954 177.024849 
L 101.365077 178.423383 
L 102.099851 181.768926 
L 102.099851 181.768926 
L 102.707325 184.158782 
L 103.198981 185.185663 
L 103.867297 186.224047 
L 104.147095 187.198659 
L 104.604966 189.790686 
L 105.404372 194.565805 
L 106.006359 196.65483 
L 106.5931 198.492771 
L 107.085824 201.188047 
L 108.441571 209.914056 
L 108.441571 209.914056 
L 108.989897 212.502504 
L 109.459314 216.147836 
L 110.324283 222.969478 
L 110.324283 222.969478 
L 110.642955 223.833335 
L 110.642955 223.833335 
L 110.884574 224.016178 
L 111.293796 223.984417 
L 111.293796 223.984417 
L 112.314235 223.646649 
L 112.314235 223.646649 
L 112.659295 222.870988 
L 112.659295 222.870988 
L 113.002223 221.36264 
L 113.002223 221.36264 
L 113.425996 218.303823 
L 115.18147 203.445323 
L 115.938146 199.184465 
L 117.051819 194.698555 
L 117.051819 194.698555 
L 117.578943 193.116122 
L 118.299869 191.807036 
L 118.669584 191.440897 
L 119.141951 191.32492 
L 120.22898 191.195956 
L 121.162684 190.980018 
L 121.477419 191.221855 
L 121.791319 191.805148 
L 122.204845 193.071427 
L 122.710627 195.748048 
L 123.877185 202.740664 
L 124.25458 203.886363 
L 124.90674 205.515766 
L 125.276763 207.193645 
L 125.738337 210.463144 
L 126.84567 218.804651 
L 127.399995 220.985303 
L 127.399995 220.985303 
L 128.048053 223.20925 
L 128.605058 226.196322 
L 129.630576 231.99575 
L 129.630576 231.99575 
L 130.192609 233.95438 
L 130.756723 235.767776 
L 130.756723 235.767776 
L 131.228371 238.060858 
L 132.556805 245.238917 
L 133.801686 249.735995 
L 133.801686 249.735995 
L 135.543149 258.7373 
L 136.816486 262.462952 
L 139.532995 272.342523 
L 140.996015 275.581467 
L 140.996015 275.581467 
L 142.943443 281.474881 
L 145.270255 286.254316 
L 146.499344 287.705463 
L 147.283374 289.508793 
L 147.844007 290.714013 
L 148.405026 291.418154 
L 149.415577 292.200332 
L 149.415577 292.200332 
L 152.78757 294.457603 
L 153.574735 294.271271 
L 154.137036 294.542548 
L 154.924299 295.175259 
L 155.261708 295.488 
L 155.261708 295.488 
L 155.374179 53.642751 
L 155.711596 53.71264 
L 155.711596 53.71264 
L 156.049018 53.59094 
L 156.161492 295.450254 
L 156.161492 295.450254 
L 157.061304 294.869687 
L 157.061304 294.869687 
L 157.511217 295.001805 
L 157.511217 295.001805 
L 158.073613 295.410038 
L 158.186093 53.579241 
L 159.535863 54.645621 
L 159.873308 54.537708 
L 160.660676 54.136531 
L 160.660676 54.136531 
L 160.996986 54.227545 
L 161.219088 54.418644 
L 161.546952 55.079778 
L 161.546952 55.079778 
L 162.179828 57.12764 
L 162.682952 58.576926 
L 162.974619 59.060439 
L 163.165146 59.122228 
L 163.165146 59.122228 
L 163.445383 58.939803 
L 163.809314 58.794713 
L 163.987366 59.051973 
L 164.162925 59.604061 
L 164.506941 61.813537 
L 165.411712 68.605882 
L 165.727676 69.791202 
L 166.340775 71.336399 
L 166.639187 73.128398 
L 167.222042 78.347493 
L 167.858814 83.830434 
L 169.032101 91.398981 
L 169.032101 91.398981 
L 170.542784 106.979889 
L 170.956274 110.006773 
L 170.956274 110.006773 
L 173.902712 135.200027 
L 174.555251 139.08448 
L 175.294936 143.048429 
L 176.439236 149.627045 
L 176.439236 149.627045 
L 177.389305 154.376076 
L 177.389305 154.376076 
L 178.207044 158.527106 
L 180.907578 169.427241 
L 181.650135 171.315422 
L 182.125046 172.505368 
L 183.202334 175.479971 
L 183.913805 176.620153 
L 183.913805 176.620153 
L 184.965144 178.247944 
L 185.394347 178.812012 
L 186.044826 179.260473 
L 186.044826 179.260473 
L 186.591692 179.476624 
L 186.921477 179.353666 
L 186.921477 179.353666 
L 187.584031 178.748101 
L 188.683037 177.392431 
L 188.683037 177.392431 
L 189.312793 176.206888 
L 190.007087 174.304544 
L 190.476066 173.13114 
L 191.516655 171.090369 
L 191.919437 169.491652 
L 192.828019 164.514558 
L 193.998821 157.225224 
L 193.998821 157.225224 
L 195.059203 148.323645 
L 195.468636 145.325008 
L 195.468636 145.325008 
L 195.974899 139.327913 
L 197.583435 117.024026 
L 198.173777 108.377922 
L 199.057808 100.282598 
L 199.930636 91.318408 
L 200.606694 87.056888 
L 200.606694 87.056888 
L 201.589162 79.989418 
L 202.005046 78.8119 
L 202.509528 77.457408 
L 202.509528 77.457408 
L 203.509896 74.227687 
L 203.836975 73.894707 
L 204.43451 73.768281 
L 204.43451 73.768281 
L 205.444829 73.494435 
L 206.541605 72.953168 
L 208.342186 71.7439 
L 208.776787 71.078873 
L 209.763843 69.275093 
L 209.763843 69.275093 
L 210.427093 68.628523 
L 211.761703 67.399412 
L 212.319986 66.198182 
L 213.215015 64.215326 
L 213.663151 63.724369 
L 213.999466 63.720593 
L 214.560323 63.889716 
L 214.784764 63.84855 
L 215.121517 63.482303 
L 215.121517 63.482303 
L 215.570665 62.598224 
L 215.570665 62.598224 
L 217.368424 58.274059 
L 217.368424 58.274059 
L 218.0429 57.585156 
L 218.714981 56.964824 
L 218.714981 56.964824 
L 219.046376 56.243261 
L 219.480632 54.733273 
L 219.694063 53.78765 
L 219.799747 295.221753 
L 219.90477 294.744644 
L 220.419653 292.759679 
L 220.419653 292.759679 
L 220.720149 292.223206 
L 220.916876 292.240598 
L 221.206452 292.734046 
L 221.206452 292.734046 
L 221.675375 293.696008 
L 221.858423 293.714329 
L 222.039073 293.447238 
L 222.305751 292.294125 
L 222.305751 292.294125 
L 222.739906 288.955603 
L 223.409946 283.719718 
L 223.735353 282.716701 
L 224.447975 281.880399 
L 224.757516 280.136726 
L 225.215942 276.020427 
L 225.215942 276.020427 
L 226.118691 267.905551 
L 226.118691 267.905551 
L 227.390899 259.163991 
L 228.070225 253.773805 
L 228.451909 252.14755 
L 229.709563 248.206743 
L 230.452266 245.616243 
L 230.452266 245.616243 
L 230.793265 245.016069 
L 230.793265 245.016069 
L 231.1422 244.844347 
L 231.1422 244.844347 
L 232.246725 244.827035 
L 232.246725 244.827035 
L 232.736403 245.143496 
L 233.241788 245.672916 
L 233.759502 246.645685 
L 234.714323 248.56688 
L 234.714323 248.56688 
L 235.254139 249.090632 
L 236.127559 249.7643 
L 236.67798 250.785546 
L 237.78604 253.00226 
L 237.78604 253.00226 
L 238.454168 253.653433 
L 240.019073 255.0186 
L 240.019073 255.0186 
L 240.57931 256.230045 
L 242.037885 259.646669 
L 242.599395 260.269466 
L 243.048746 260.778227 
L 243.610578 261.899783 
L 243.610578 261.899783 
L 244.060136 263.152607 
L 244.060136 263.152607 
L 245.850775 269.188043 
L 245.850775 269.188043 
L 246.83218 271.740089 
L 247.789838 275.467407 
L 249.137659 280.59417 
L 250.151676 283.25718 
L 250.753278 285.948026 
L 252.647614 295.264372 
L 252.747387 53.731467 
L 252.847193 54.108024 
L 253.547033 56.157818 
L 254.048826 57.694068 
L 254.048826 57.694068 
L 256.190574 65.010754 
L 257.1342 66.656148 
L 257.774683 67.832078 
L 257.774683 67.832078 
L 258.532676 70.134595 
L 259.409199 72.371596 
L 259.85046 73.017536 
L 260.515145 73.500909 
L 261.071057 73.843596 
L 261.516815 74.531197 
L 262.410417 76.07832 
L 262.74608 76.372257 
L 263.081987 76.358884 
L 263.081987 76.358884 
L 263.530183 76.041301 
L 263.530183 76.041301 
L 264.203037 75.439831 
L 264.651904 75.444357 
L 265.213249 75.761108 
L 266.111862 76.557496 
L 266.67371 76.951558 
L 266.67371 76.951558 
L 267.123279 76.836083 
L 267.123279 76.836083 
L 267.797749 76.283365 
L 268.472329 75.721557 
L 268.472329 75.721557 
L 268.922096 75.7887 
L 268.922096 75.7887 
L 269.596799 76.280315 
L 270.72141 77.267341 
L 270.72141 77.267341 
L 271.171281 77.175582 
L 271.171281 77.175582 
L 272.296003 76.575296 
L 272.745905 76.773665 
L 274.095641 77.609821 
L 274.545561 77.383989 
L 275.557888 76.693681 
L 275.895333 76.778078 
L 276.570224 77.270407 
L 276.570224 77.270407 
L 277.020153 77.557299 
L 277.020153 77.557299 
L 277.470083 77.46709 
L 277.470083 77.46709 
L 278.144979 76.96346 
L 279.269809 75.978093 
L 279.269809 75.978093 
L 279.719741 76.072155 
L 279.719741 76.072155 
L 280.394641 76.603501 
L 280.844574 76.914994 
L 281.294507 76.844743 
L 281.969407 76.361745 
L 281.969407 76.361745 
L 283.319208 75.164273 
L 283.319208 75.164273 
L 283.769142 75.266784 
L 283.769142 75.266784 
L 284.893977 75.889773 
L 285.343843 75.696777 
L 285.789517 75.286403 
L 286.330001 74.495646 
L 287.043901 72.920832 
L 287.33306 72.48514 
L 287.520265 72.447757 
L 287.792704 72.659653 
L 288.629744 73.828797 
L 288.629744 73.828797 
L 288.861273 73.412986 
L 289.085244 72.597991 
L 289.512726 69.825301 
L 289.512726 69.825301 
L 290.045797 66.35287 
L 290.045797 66.35287 
L 290.482891 64.137753 
L 290.954697 59.709936 
L 291.455366 53.956236 
L 291.455366 53.956236 
L 291.50926 295.329879 
L 291.616001 294.315898 
L 292.231991 287.207879 
L 293.245693 271.548118 
L 293.245693 271.548118 
L 294.352753 251.502958 
L 296.080007 231.390751 
L 296.080007 231.390751 
L 297.024084 224.930474 
L 297.024084 224.930474 
L 297.596779 221.37585 
L 298.702087 216.872075 
L 300.323601 210.140429 
L 301.242993 205.896071 
L 301.938214 202.876878 
L 302.65403 199.827795 
L 303.578962 196.764318 
L 304.417582 194.838396 
L 304.417582 194.838396 
L 304.686453 194.52432 
L 304.861497 194.789826 
L 305.117724 195.98451 
L 305.117724 195.98451 
L 305.448414 198.914118 
L 305.448414 198.914118 
L 306.226822 206.431762 
L 306.595082 207.661436 
L 307.020894 208.61536 
L 307.296604 210.33856 
L 307.701062 214.921263 
L 308.355976 222.395927 
L 309.564233 232.483247 
L 309.564233 232.483247 
L 310.693189 246.052116 
L 311.258878 251.286491 
L 312.786569 267.248863 
L 313.568969 274.38009 
L 315.056282 284.853604 
L 315.690543 289.217842 
L 316.9428 295.240257 
L 317.018953 53.754537 
L 317.095409 54.20233 
L 317.957027 58.688077 
L 317.957027 58.688077 
L 320.530618 66.020091 
L 321.478353 67.408516 
L 321.478353 67.408516 
L 322.067394 67.806574 
L 322.462533 68.14372 
L 322.757107 68.745335 
L 323.238393 70.384872 
L 323.976715 73.043091 
L 324.331927 73.765978 
L 324.763986 74.415691 
L 325.183897 75.823281 
L 325.183897 75.823281 
L 325.592826 78.183343 
L 326.689715 85.718831 
L 327.216425 87.794076 
L 327.658381 90.903736 
L 327.658381 90.903736 
L 330.549158 113.702099 
L 330.549158 113.702099 
L 331.069746 115.122387 
L 331.450025 116.216372 
L 331.450025 116.216372 
L 331.997711 117.835451 
L 332.320625 118.285327 
L 332.65189 118.423185 
L 332.989735 118.225227 
L 333.585652 117.542752 
L 333.921158 116.710863 
L 334.24847 115.225802 
L 334.645232 112.320269 
L 335.477305 105.516626 
L 336.344943 101.310865 
L 336.701388 97.748367 
L 337.487012 88.797139 
L 337.775964 87.465549 
L 337.994954 87.24262 
L 338.216601 87.447258 
L 338.216601 87.447258 
L 338.671411 87.800455 
L 338.984367 87.962813 
L 339.303153 88.345562 
L 339.544955 88.957005 
L 339.951879 91.085796 
L 340.362688 94.476938 
L 341.863488 109.296835 
L 342.624834 113.051713 
L 343.394181 117.487982 
L 344.259519 122.294974 
L 344.872451 124.47686 
L 344.872451 124.47686 
L 345.848412 128.387966 
L 346.749697 133.265201 
L 347.664507 137.499785 
L 349.531694 145.678311 
L 350.864379 152.745651 
L 351.441994 154.420779 
L 352.121771 156.222528 
L 352.611746 158.277649 
L 353.504728 162.109055 
L 353.504728 162.109055 
L 354.007966 163.419478 
L 354.929193 165.009843 
L 355.450479 165.976603 
L 356.192678 168.17211 
L 357.056495 170.717902 
L 357.493037 171.55686 
L 358.041997 172.036933 
L 358.593866 172.437731 
L 358.593866 172.437731 
L 359.148016 173.375646 
L 360.261292 175.49838 
L 360.596238 175.782003 
L 360.931525 175.751182 
L 361.379025 175.40881 
L 361.826956 175.052716 
L 362.275242 175.045252 
L 362.836003 175.333831 
L 363.958522 176.035226 
L 363.958522 176.035226 
L 364.407803 175.84258 
L 364.407803 175.84258 
L 364.744841 175.505036 
L 365.756261 174.141688 
L 365.756261 174.141688 
L 366.093482 173.906042 
L 366.430733 173.933508 
L 366.880444 174.207083 
L 367.779976 174.839636 
L 368.117331 174.768213 
L 368.792078 174.297234 
L 369.466864 173.795648 
L 369.916738 173.889809 
L 370.591568 174.40657 
L 371.491369 175.176214 
L 371.941278 175.092753 
L 372.61615 174.577537 
L 373.291029 174.038736 
L 373.740952 174.115099 
L 374.41584 174.614656 
L 375.090731 175.139852 
L 375.540659 175.05687 
L 376.215554 174.550797 
L 376.890451 174.022105 
L 377.340383 174.103846 
L 378.015281 174.60902 
L 378.69018 175.175496 
L 379.027629 175.177019 
L 379.590046 174.848529 
L 380.714879 174.009942 
L 381.05233 174.097208 
L 381.05233 174.097208 
L 381.72723 174.603612 
L 382.402131 175.133895 
L 382.402131 175.133895 
L 382.852065 175.053202 
L 382.852065 175.053202 
L 383.526966 174.549243 
L 384.201866 174.02159 
L 384.201866 174.02159 
L 384.6518 174.103669 
L 384.6518 174.103669 
L 385.326701 174.609063 
L 386.001602 175.137528 
L 386.001602 175.137528 
L 386.451537 175.055751 
L 386.451537 175.055751 
L 387.126438 174.55059 
L 387.801339 174.022212 
L 387.801339 174.022212 
L 388.251273 174.104006 
L 388.251273 174.104006 
L 388.926174 174.609167 
L 389.601075 175.137535 
L 389.601075 175.137535 
L 390.051009 175.055734 
L 390.051009 175.055734 
L 390.72591 174.550564 
L 391.400811 174.022191 
L 391.400811 174.022191 
L 391.850745 174.10399 
L 391.850745 174.10399 
L 392.525646 174.609158 
L 393.200547 175.13753 
L 393.200547 175.13753 
L 393.650481 175.055731 
L 393.650481 175.055731 
L 394.325383 174.550563 
L 395.225251 173.787727 
L 395.675185 173.872546 
L 396.350086 174.388615 
L 396.350086 174.388615 
L 397.249954 175.16498 
L 397.249954 175.16498 
L 397.699888 175.084843 
L 397.699888 175.084843 
L 398.374789 174.573346 
L 398.487273 174.461985 
L 398.487273 174.461985 
" style="fill:none;stroke:#ff7f0e;stroke-linecap:square;stroke-width:1.5;"/>
   </g>
   <g id="line2d_16">
    <path clip-path="url(#pecd494aa6c)" d="M 73.832727 174.20266 
L 74.842266 174.874757 
L 75.178779 174.787275 
L 75.851805 174.291431 
L 76.300489 173.965381 
L 76.637002 173.970786 
L 77.197857 174.300124 
L 78.095225 174.895466 
L 78.431737 174.805971 
L 79.104763 174.304272 
L 79.104763 174.304272 
L 79.777789 173.781879 
L 80.226473 173.867213 
L 80.899499 174.376285 
L 80.899499 174.376285 
L 81.572525 174.907003 
L 82.021209 174.826122 
L 82.694235 174.321706 
L 82.694235 174.321706 
L 83.367261 173.793643 
L 83.815944 173.875521 
L 84.48897 174.380715 
L 84.48897 174.380715 
L 85.161996 174.909072 
L 85.61068 174.827256 
L 86.283706 174.322067 
L 86.283706 174.322067 
L 86.956732 173.79368 
L 87.405416 173.875473 
L 88.078442 174.380635 
L 88.078442 174.380635 
L 88.527126 174.714377 
L 88.527126 174.714377 
L 88.863639 174.714216 
L 89.424493 174.391879 
L 89.424493 174.391879 
L 90.321861 173.803268 
L 90.321861 173.803268 
L 90.658374 173.894185 
L 91.3314 174.397564 
L 92.004426 174.920675 
L 92.45311 174.835533 
L 93.126136 174.326543 
L 93.799162 173.795804 
L 94.247846 173.876654 
L 94.920871 174.381027 
L 95.818239 175.143468 
L 96.266923 175.05859 
L 97.388633 174.477292 
L 97.949488 174.762598 
L 97.949488 174.762598 
L 98.734685 175.460989 
L 101.414253 178.356125 
L 102.264529 180.003048 
L 102.777024 181.38212 
L 102.777024 181.38212 
L 103.373638 183.977475 
L 104.697751 191.278577 
L 104.697751 191.278577 
L 106.027144 198.45451 
L 107.607309 204.725646 
L 108.797735 212.263764 
L 110.203415 221.801667 
L 110.675086 223.803716 
L 110.992659 224.34713 
L 111.233286 224.475466 
L 111.233286 224.475466 
L 111.47672 224.304076 
L 111.723508 223.808363 
L 112.657729 221.004348 
L 113.513965 218.070789 
L 114.018579 215.394043 
L 114.518807 211.396525 
L 116.188095 196.64831 
L 116.780705 193.960396 
L 117.295617 192.729416 
L 117.295617 192.729416 
L 118.08469 191.44911 
L 118.443529 191.22954 
L 119.273871 191.074385 
L 119.751334 191.072908 
L 120.342833 191.539797 
L 122.412449 193.567406 
L 122.819748 194.684199 
L 123.415753 197.059709 
L 123.899865 199.631734 
L 123.899865 199.631734 
L 125.582687 210.932993 
L 127.055205 220.472702 
L 128.531004 227.31183 
L 130.671065 236.324108 
L 131.893384 241.632585 
L 137.183367 265.254868 
L 137.974341 268.07904 
L 138.673785 269.766859 
L 138.673785 269.766859 
L 139.994607 272.585867 
L 140.824261 275.444887 
L 141.350219 277.008263 
L 142.09691 278.50678 
L 143.620169 281.424779 
L 144.391438 283.459398 
L 147.171576 290.258122 
L 147.730239 290.949406 
L 147.730239 290.949406 
L 148.513139 291.518412 
L 150.192773 292.602423 
L 152.883 294.796636 
L 153.667953 295.475953 
L 153.780095 53.635159 
L 155.238049 54.826369 
L 155.574521 54.8001 
L 156.135319 54.408116 
L 156.696129 53.979809 
L 156.696129 53.979809 
L 157.144785 54.027882 
L 157.144785 54.027882 
L 157.817777 54.477795 
L 158.939448 55.411589 
L 158.939448 55.411589 
L 159.388122 55.307445 
L 159.388122 55.307445 
L 159.836797 55.126375 
L 159.836797 55.126375 
L 160.285473 55.239627 
L 160.285473 55.239627 
L 160.95849 55.711751 
L 161.73721 56.55116 
L 162.274113 57.47755 
L 162.888797 59.032986 
L 162.888797 59.032986 
L 163.660882 61.135761 
L 163.660882 61.135761 
L 164.208183 61.876563 
L 164.818358 62.388966 
L 165.071574 62.883059 
L 165.071574 62.883059 
L 165.483632 64.338407 
L 165.884217 66.547793 
L 166.350985 70.434343 
L 166.350985 70.434343 
L 167.962068 84.830888 
L 170.027759 102.298872 
L 170.027759 102.298872 
L 171.951394 119.9775 
L 171.951394 119.9775 
L 173.62748 133.091095 
L 173.62748 133.091095 
L 174.339137 138.737361 
L 174.917117 142.088247 
L 180.077652 166.318273 
L 181.417838 171.031189 
L 182.066533 172.359649 
L 184.94703 177.203045 
L 185.583723 177.605503 
L 185.583723 177.605503 
L 186.991738 178.28915 
L 187.650366 178.587049 
L 188.091541 178.387467 
L 188.862442 177.645428 
L 189.501406 176.726569 
L 189.501406 176.726569 
L 190.108971 175.456207 
L 190.684326 173.831983 
L 190.684326 173.831983 
L 191.658193 171.048879 
L 192.697109 169.318318 
L 192.697109 169.318318 
L 192.996518 167.792829 
L 192.996518 167.792829 
L 193.501764 163.887096 
L 194.252223 155.676396 
L 195.260434 144.223312 
L 197.215568 122.533178 
L 199.202779 97.419533 
L 200.595009 86.502172 
L 201.28171 82.447946 
L 202.562361 76.968316 
L 202.562361 76.968316 
L 203.219241 75.38359 
L 203.60146 75.00174 
L 204.325338 74.713456 
L 205.465555 74.191929 
L 205.465555 74.191929 
L 208.189536 72.643257 
L 209.485947 71.693536 
L 209.923565 71.004952 
L 210.6939 69.191742 
L 211.579464 67.187128 
L 212.134964 66.437253 
L 213.137611 65.17865 
L 213.137611 65.17865 
L 213.919189 63.367913 
L 214.478119 62.278951 
L 214.478119 62.278951 
L 215.149375 61.530301 
L 215.82108 60.864753 
L 215.82108 60.864753 
L 216.381094 59.746286 
L 217.165409 58.126324 
L 217.165409 58.126324 
L 218.5105 56.112763 
L 218.5105 56.112763 
L 219.511799 53.684139 
L 219.621026 295.34644 
L 219.729651 295.072938 
L 220.576719 292.584577 
L 221.47712 289.102181 
L 221.47712 289.102181 
L 222.412115 285.539251 
L 222.856634 284.678662 
L 223.288123 284.2917 
L 223.288123 284.2917 
L 224.117525 283.866684 
L 224.43837 283.040847 
L 224.753892 281.641184 
L 225.14216 279.07963 
L 225.902946 272.183871 
L 226.950083 262.212241 
L 228.070393 254.300817 
L 228.979239 250.053136 
L 229.520554 248.518612 
L 230.560962 246.385423 
L 230.97721 246.090766 
L 231.844476 245.789376 
L 232.207037 245.932501 
L 234.916049 247.910132 
L 234.916049 247.910132 
L 236.646755 249.151777 
L 236.646755 249.151777 
L 238.745253 250.823355 
L 239.078843 251.248639 
L 239.635682 252.429888 
L 240.751776 255.436772 
L 244.334178 265.011286 
L 245.901524 269.25272 
L 246.454244 271.77404 
L 246.454244 271.77404 
L 247.85717 278.744934 
L 248.488543 280.852373 
L 249.111102 282.264893 
L 249.9297 283.574766 
L 250.434876 284.416677 
L 251.036226 286.106544 
L 251.036226 286.106544 
L 251.634251 288.736922 
L 252.926117 295.13532 
L 253.025551 53.679039 
L 253.125009 54.13497 
L 254.221685 58.217666 
L 254.221685 58.217666 
L 255.024663 60.129991 
L 255.024663 60.129991 
L 255.835551 62.110846 
L 255.835551 62.110846 
L 256.657002 64.936309 
L 256.657002 64.936309 
L 257.17704 66.485942 
L 257.915186 67.951409 
L 257.915186 67.951409 
L 259.64531 71.100202 
L 259.64531 71.100202 
L 261.521385 74.936386 
L 262.188349 75.487929 
L 265.875715 77.881595 
L 265.875715 77.881595 
L 266.323765 77.644426 
L 266.323765 77.644426 
L 267.556425 76.76329 
L 268.004804 76.945382 
L 269.350228 77.786704 
L 269.798772 77.566416 
L 271.144536 76.598725 
L 271.593156 76.780939 
L 272.266107 77.353289 
L 272.602589 77.543302 
L 272.602589 77.543302 
L 273.051239 77.46267 
L 273.051239 77.46267 
L 273.724225 76.966511 
L 274.397221 76.447771 
L 274.397221 76.447771 
L 274.845889 76.534626 
L 274.845889 76.534626 
L 275.518897 77.044991 
L 275.967571 77.342803 
L 276.416247 77.261311 
L 277.089263 76.766573 
L 277.089263 76.766573 
L 277.762282 76.249926 
L 278.210963 76.337989 
L 279.332666 76.910264 
L 279.332666 76.910264 
L 279.893519 76.619614 
L 280.678713 75.915916 
L 280.678713 75.915916 
L 281.127396 75.61172 
L 281.127396 75.61172 
L 281.576079 75.708253 
L 281.576079 75.708253 
L 282.697787 76.306554 
L 283.146471 76.106054 
L 284.043838 75.329096 
L 284.829034 74.60841 
L 285.165547 74.590263 
L 285.165547 74.590263 
L 286.061742 74.831415 
L 286.061742 74.831415 
L 286.500574 74.532853 
L 286.500574 74.532853 
L 287.02955 73.810524 
L 287.531544 72.7134 
L 288.097737 70.913642 
L 288.097737 70.913642 
L 288.708155 68.149608 
L 289.343175 65.313353 
L 289.492735 65.170719 
L 289.638744 65.303296 
L 289.851798 65.883945 
L 290.454298 67.867705 
L 290.581553 67.795903 
L 290.768575 67.351949 
L 290.768575 67.351949 
L 291.011404 65.859763 
L 291.011404 65.859763 
L 291.361886 61.752228 
L 291.807162 53.776731 
L 291.861247 294.605488 
L 291.968392 292.364314 
L 292.881703 275.178146 
L 294.314383 252.214876 
L 295.397563 238.502774 
L 296.132605 231.403914 
L 297.154256 224.290284 
L 298.025198 220.227639 
L 300.252445 211.166493 
L 300.252445 211.166493 
L 300.89353 208.266136 
L 300.89353 208.266136 
L 301.559074 205.328454 
L 301.559074 205.328454 
L 303.685418 197.384061 
L 303.685418 197.384061 
L 303.964632 197.012519 
L 304.245585 197.024775 
L 304.526379 197.303866 
L 304.894245 198.14147 
L 307.067898 204.856182 
L 307.067898 204.856182 
L 307.422924 207.502749 
L 307.970132 213.917262 
L 309.524897 233.584678 
L 312.032518 259.923174 
L 315.02023 284.2164 
L 315.918164 289.709536 
L 315.918164 289.709536 
L 317.07502 295.284014 
L 317.07502 295.284014 
L 317.149527 53.709745 
L 317.22431 54.066221 
L 318.541054 59.56922 
L 319.612732 63.437954 
L 319.612732 63.437954 
L 320.304509 64.83968 
L 320.304509 64.83968 
L 321.583726 66.937051 
L 322.06434 67.184446 
L 322.5542 67.479639 
L 322.5542 67.479639 
L 322.948396 68.194367 
L 322.948396 68.194367 
L 323.436852 69.632071 
L 324.005958 72.114525 
L 324.553336 75.53579 
L 325.837181 84.049342 
L 325.837181 84.049342 
L 326.402178 86.240887 
L 327.706533 90.449723 
L 327.706533 90.449723 
L 328.294258 94.250715 
L 328.294258 94.250715 
L 331.104206 115.630785 
L 331.548408 117.011814 
L 332.002296 117.862912 
L 332.468995 118.103898 
L 332.708037 118.04344 
L 332.708037 118.04344 
L 333.033876 117.669661 
L 333.033876 117.669661 
L 333.452053 116.705751 
L 334.71073 113.566089 
L 334.71073 113.566089 
L 335.030421 112.575375 
L 335.030421 112.575375 
L 335.494984 110.400173 
L 336.017514 106.428886 
L 336.668727 99.394046 
L 337.664691 89.239321 
L 337.664691 89.239321 
L 338.093506 86.70041 
L 338.382425 86.046082 
L 338.528264 86.045139 
L 338.528264 86.045139 
L 338.749254 86.306341 
L 339.049161 87.175889 
L 340.722893 94.271373 
L 340.722893 94.271373 
L 341.299632 98.982058 
L 343.56724 120.56292 
L 344.166664 123.655337 
L 344.59814 125.102461 
L 346.176715 129.327327 
L 346.176715 129.327327 
L 348.163851 137.987791 
L 349.46117 144.094722 
L 349.46117 144.094722 
L 351.256376 153.775351 
L 352.119991 156.947323 
L 352.119991 156.947323 
L 354.080539 162.777319 
L 354.080539 162.777319 
L 355.19219 164.9178 
L 358.165435 170.57678 
L 359.927844 174.325464 
L 360.593928 174.924237 
L 363.943352 177.008665 
L 364.391196 176.766497 
L 365.063233 176.114931 
L 365.847589 175.396569 
L 365.847589 175.396569 
L 366.295906 175.46134 
L 366.295906 175.46134 
L 367.416958 176.021063 
L 367.977587 175.733 
L 368.762547 175.034418 
L 369.547575 174.314397 
L 369.884031 174.296763 
L 369.884031 174.296763 
L 370.332652 174.537342 
L 370.332652 174.537342 
L 371.342086 175.266806 
L 371.678573 175.192543 
L 371.678573 175.192543 
L 372.351557 174.714755 
L 373.248885 173.978144 
L 373.697555 174.07101 
L 374.370563 174.594365 
L 374.370563 174.594365 
L 375.043576 175.136859 
L 375.492253 175.061574 
L 376.165271 174.562578 
L 376.165271 174.562578 
L 376.838291 174.037373 
L 377.286972 174.120246 
L 377.959994 174.626145 
L 377.959994 174.626145 
L 378.408676 174.921985 
L 378.408676 174.921985 
L 378.857359 174.839161 
L 378.857359 174.839161 
L 379.530383 174.343273 
L 379.979066 174.055242 
L 380.427749 174.144886 
L 381.100774 174.648253 
L 381.100774 174.648253 
L 381.549457 174.97761 
L 381.549457 174.97761 
L 381.88597 174.973957 
L 382.446824 174.646499 
L 382.446824 174.646499 
L 383.344191 174.052468 
L 383.344191 174.052468 
L 383.680704 174.142153 
L 384.35373 174.644 
L 385.026756 175.166393 
L 385.475439 175.081031 
L 386.148465 174.571915 
L 386.821491 174.041162 
L 387.270175 174.122026 
L 387.943201 174.626427 
L 388.616227 175.154482 
L 389.064911 175.072602 
L 389.737936 174.567406 
L 390.410962 174.039049 
L 390.859646 174.120864 
L 391.532672 174.626053 
L 391.981356 174.921742 
L 392.43004 174.838889 
L 393.103066 174.343053 
L 393.55175 174.055072 
L 394.000434 174.144763 
L 394.673459 174.648185 
L 395.122143 174.939502 
L 395.570827 174.852051 
L 396.243853 174.350535 
L 396.692537 174.021792 
L 397.02905 174.025705 
L 397.589905 174.353367 
L 398.487273 174.947439 
L 398.487273 174.947439 
" style="fill:none;stroke:#2ca02c;stroke-linecap:square;stroke-width:1.5;"/>
   </g>
   <g id="patch_3">
    <path d="M 57.6 307.584 
L 57.6 41.472 
" style="fill:none;stroke:#000000;stroke-linecap:square;stroke-linejoin:miter;stroke-width:0.8;"/>
   </g>
   <g id="patch_4">
    <path d="M 414.72 307.584 
L 414.72 41.472 
" style="fill:none;stroke:#000000;stroke-linecap:square;stroke-linejoin:miter;stroke-width:0.8;"/>
   </g>
   <g id="patch_5">
    <path d="M 57.6 307.584 
L 414.72 307.584 
" style="fill:none;stroke:#000000;stroke-linecap:square;stroke-linejoin:miter;stroke-width:0.8;"/>
   </g>
   <g id="patch_6">
    <path d="M 57.6 41.472 
L 414.72 41.472 
" style="fill:none;stroke:#000000;stroke-linecap:square;stroke-linejoin:miter;stroke-width:0.8;"/>
   </g>
   <g id="text_14">
    <!-- esp heading -->
    <g transform="translate(199.367813 35.472)scale(0.12 -0.12)">
     <defs>
      <path d="M 56.203125 29.59375 
L 56.203125 25.203125 
L 14.890625 25.203125 
Q 15.484375 15.921875 20.484375 11.0625 
Q 25.484375 6.203125 34.421875 6.203125 
Q 39.59375 6.203125 44.453125 7.46875 
Q 49.3125 8.734375 54.109375 11.28125 
L 54.109375 2.78125 
Q 49.265625 0.734375 44.1875 -0.34375 
Q 39.109375 -1.421875 33.890625 -1.421875 
Q 20.796875 -1.421875 13.15625 6.1875 
Q 5.515625 13.8125 5.515625 26.8125 
Q 5.515625 40.234375 12.765625 48.109375 
Q 20.015625 56 32.328125 56 
Q 43.359375 56 49.78125 48.890625 
Q 56.203125 41.796875 56.203125 29.59375 
z
M 47.21875 32.234375 
Q 47.125 39.59375 43.09375 43.984375 
Q 39.0625 48.390625 32.421875 48.390625 
Q 24.90625 48.390625 20.390625 44.140625 
Q 15.875 39.890625 15.1875 32.171875 
z
" id="DejaVuSans-101"/>
      <path d="M 44.28125 53.078125 
L 44.28125 44.578125 
Q 40.484375 46.53125 36.375 47.5 
Q 32.28125 48.484375 27.875 48.484375 
Q 21.1875 48.484375 17.84375 46.4375 
Q 14.5 44.390625 14.5 40.28125 
Q 14.5 37.15625 16.890625 35.375 
Q 19.28125 33.59375 26.515625 31.984375 
L 29.59375 31.296875 
Q 39.15625 29.25 43.1875 25.515625 
Q 47.21875 21.78125 47.21875 15.09375 
Q 47.21875 7.46875 41.1875 3.015625 
Q 35.15625 -1.421875 24.609375 -1.421875 
Q 20.21875 -1.421875 15.453125 -0.5625 
Q 10.6875 0.296875 5.421875 2 
L 5.421875 11.28125 
Q 10.40625 8.6875 15.234375 7.390625 
Q 20.0625 6.109375 24.8125 6.109375 
Q 31.15625 6.109375 34.5625 8.28125 
Q 37.984375 10.453125 37.984375 14.40625 
Q 37.984375 18.0625 35.515625 20.015625 
Q 33.0625 21.96875 24.703125 23.78125 
L 21.578125 24.515625 
Q 13.234375 26.265625 9.515625 29.90625 
Q 5.8125 33.546875 5.8125 39.890625 
Q 5.8125 47.609375 11.28125 51.796875 
Q 16.75 56 26.8125 56 
Q 31.78125 56 36.171875 55.265625 
Q 40.578125 54.546875 44.28125 53.078125 
z
" id="DejaVuSans-115"/>
      <path d="M 18.109375 8.203125 
L 18.109375 -20.796875 
L 9.078125 -20.796875 
L 9.078125 54.6875 
L 18.109375 54.6875 
L 18.109375 46.390625 
Q 20.953125 51.265625 25.265625 53.625 
Q 29.59375 56 35.59375 56 
Q 45.5625 56 51.78125 48.09375 
Q 58.015625 40.1875 58.015625 27.296875 
Q 58.015625 14.40625 51.78125 6.484375 
Q 45.5625 -1.421875 35.59375 -1.421875 
Q 29.59375 -1.421875 25.265625 0.953125 
Q 20.953125 3.328125 18.109375 8.203125 
z
M 48.6875 27.296875 
Q 48.6875 37.203125 44.609375 42.84375 
Q 40.53125 48.484375 33.40625 48.484375 
Q 26.265625 48.484375 22.1875 42.84375 
Q 18.109375 37.203125 18.109375 27.296875 
Q 18.109375 17.390625 22.1875 11.75 
Q 26.265625 6.109375 33.40625 6.109375 
Q 40.53125 6.109375 44.609375 11.75 
Q 48.6875 17.390625 48.6875 27.296875 
z
" id="DejaVuSans-112"/>
      <path id="DejaVuSans-32"/>
      <path d="M 54.890625 33.015625 
L 54.890625 0 
L 45.90625 0 
L 45.90625 32.71875 
Q 45.90625 40.484375 42.875 44.328125 
Q 39.84375 48.1875 33.796875 48.1875 
Q 26.515625 48.1875 22.3125 43.546875 
Q 18.109375 38.921875 18.109375 30.90625 
L 18.109375 0 
L 9.078125 0 
L 9.078125 75.984375 
L 18.109375 75.984375 
L 18.109375 46.1875 
Q 21.34375 51.125 25.703125 53.5625 
Q 30.078125 56 35.796875 56 
Q 45.21875 56 50.046875 50.171875 
Q 54.890625 44.34375 54.890625 33.015625 
z
" id="DejaVuSans-104"/>
      <path d="M 34.28125 27.484375 
Q 23.390625 27.484375 19.1875 25 
Q 14.984375 22.515625 14.984375 16.5 
Q 14.984375 11.71875 18.140625 8.90625 
Q 21.296875 6.109375 26.703125 6.109375 
Q 34.1875 6.109375 38.703125 11.40625 
Q 43.21875 16.703125 43.21875 25.484375 
L 43.21875 27.484375 
z
M 52.203125 31.203125 
L 52.203125 0 
L 43.21875 0 
L 43.21875 8.296875 
Q 40.140625 3.328125 35.546875 0.953125 
Q 30.953125 -1.421875 24.3125 -1.421875 
Q 15.921875 -1.421875 10.953125 3.296875 
Q 6 8.015625 6 15.921875 
Q 6 25.140625 12.171875 29.828125 
Q 18.359375 34.515625 30.609375 34.515625 
L 43.21875 34.515625 
L 43.21875 35.40625 
Q 43.21875 41.609375 39.140625 45 
Q 35.0625 48.390625 27.6875 48.390625 
Q 23 48.390625 18.546875 47.265625 
Q 14.109375 46.140625 10.015625 43.890625 
L 10.015625 52.203125 
Q 14.9375 54.109375 19.578125 55.046875 
Q 24.21875 56 28.609375 56 
Q 40.484375 56 46.34375 49.84375 
Q 52.203125 43.703125 52.203125 31.203125 
z
" id="DejaVuSans-97"/>
      <path d="M 45.40625 46.390625 
L 45.40625 75.984375 
L 54.390625 75.984375 
L 54.390625 0 
L 45.40625 0 
L 45.40625 8.203125 
Q 42.578125 3.328125 38.25 0.953125 
Q 33.9375 -1.421875 27.875 -1.421875 
Q 17.96875 -1.421875 11.734375 6.484375 
Q 5.515625 14.40625 5.515625 27.296875 
Q 5.515625 40.1875 11.734375 48.09375 
Q 17.96875 56 27.875 56 
Q 33.9375 56 38.25 53.625 
Q 42.578125 51.265625 45.40625 46.390625 
z
M 14.796875 27.296875 
Q 14.796875 17.390625 18.875 11.75 
Q 22.953125 6.109375 30.078125 6.109375 
Q 37.203125 6.109375 41.296875 11.75 
Q 45.40625 17.390625 45.40625 27.296875 
Q 45.40625 37.203125 41.296875 42.84375 
Q 37.203125 48.484375 30.078125 48.484375 
Q 22.953125 48.484375 18.875 42.84375 
Q 14.796875 37.203125 14.796875 27.296875 
z
" id="DejaVuSans-100"/>
      <path d="M 9.421875 54.6875 
L 18.40625 54.6875 
L 18.40625 0 
L 9.421875 0 
z
M 9.421875 75.984375 
L 18.40625 75.984375 
L 18.40625 64.59375 
L 9.421875 64.59375 
z
" id="DejaVuSans-105"/>
      <path d="M 54.890625 33.015625 
L 54.890625 0 
L 45.90625 0 
L 45.90625 32.71875 
Q 45.90625 40.484375 42.875 44.328125 
Q 39.84375 48.1875 33.796875 48.1875 
Q 26.515625 48.1875 22.3125 43.546875 
Q 18.109375 38.921875 18.109375 30.90625 
L 18.109375 0 
L 9.078125 0 
L 9.078125 54.6875 
L 18.109375 54.6875 
L 18.109375 46.1875 
Q 21.34375 51.125 25.703125 53.5625 
Q 30.078125 56 35.796875 56 
Q 45.21875 56 50.046875 50.171875 
Q 54.890625 44.34375 54.890625 33.015625 
z
" id="DejaVuSans-110"/>
      <path d="M 45.40625 27.984375 
Q 45.40625 37.75 41.375 43.109375 
Q 37.359375 48.484375 30.078125 48.484375 
Q 22.859375 48.484375 18.828125 43.109375 
Q 14.796875 37.75 14.796875 27.984375 
Q 14.796875 18.265625 18.828125 12.890625 
Q 22.859375 7.515625 30.078125 7.515625 
Q 37.359375 7.515625 41.375 12.890625 
Q 45.40625 18.265625 45.40625 27.984375 
z
M 54.390625 6.78125 
Q 54.390625 -7.171875 48.1875 -13.984375 
Q 42 -20.796875 29.203125 -20.796875 
Q 24.46875 -20.796875 20.265625 -20.09375 
Q 16.0625 -19.390625 12.109375 -17.921875 
L 12.109375 -9.1875 
Q 16.0625 -11.328125 19.921875 -12.34375 
Q 23.78125 -13.375 27.78125 -13.375 
Q 36.625 -13.375 41.015625 -8.765625 
Q 45.40625 -4.15625 45.40625 5.171875 
L 45.40625 9.625 
Q 42.625 4.78125 38.28125 2.390625 
Q 33.9375 0 27.875 0 
Q 17.828125 0 11.671875 7.65625 
Q 5.515625 15.328125 5.515625 27.984375 
Q 5.515625 40.671875 11.671875 48.328125 
Q 17.828125 56 27.875 56 
Q 33.9375 56 38.28125 53.609375 
Q 42.625 51.21875 45.40625 46.390625 
L 45.40625 54.6875 
L 54.390625 54.6875 
z
" id="DejaVuSans-103"/>
     </defs>
     <use xlink:href="#DejaVuSans-101"/>
     <use x="61.523438" xlink:href="#DejaVuSans-115"/>
     <use x="113.623047" xlink:href="#DejaVuSans-112"/>
     <use x="177.099609" xlink:href="#DejaVuSans-32"/>
     <use x="208.886719" xlink:href="#DejaVuSans-104"/>
     <use x="272.265625" xlink:href="#DejaVuSans-101"/>
     <use x="333.789062" xlink:href="#DejaVuSans-97"/>
     <use x="395.068359" xlink:href="#DejaVuSans-100"/>
     <use x="458.544922" xlink:href="#DejaVuSans-105"/>
     <use x="486.328125" xlink:href="#DejaVuSans-110"/>
     <use x="549.707031" xlink:href="#DejaVuSans-103"/>
    </g>
   </g>
   <g id="legend_1">
    <g id="patch_7">
     <path d="M 64.6 93.506375 
L 156.557813 93.506375 
Q 158.557813 93.506375 158.557813 91.506375 
L 158.557813 48.472 
Q 158.557813 46.472 156.557813 46.472 
L 64.6 46.472 
Q 62.6 46.472 62.6 48.472 
L 62.6 91.506375 
Q 62.6 93.506375 64.6 93.506375 
z
" style="fill:#ffffff;opacity:0.8;stroke:#cccccc;stroke-linejoin:miter;"/>
    </g>
    <g id="line2d_17">
     <path d="M 66.6 54.570438 
L 86.6 54.570438 
" style="fill:none;stroke:#1f77b4;stroke-linecap:square;stroke-width:1.5;"/>
    </g>
    <g id="line2d_18"/>
    <g id="text_15">
     <!-- Waypoints -->
     <g transform="translate(94.6 58.070438)scale(0.1 -0.1)">
      <defs>
       <path d="M 3.328125 72.90625 
L 13.28125 72.90625 
L 28.609375 11.28125 
L 43.890625 72.90625 
L 54.984375 72.90625 
L 70.3125 11.28125 
L 85.59375 72.90625 
L 95.609375 72.90625 
L 77.296875 0 
L 64.890625 0 
L 49.515625 63.28125 
L 33.984375 0 
L 21.578125 0 
z
" id="DejaVuSans-87"/>
       <path d="M 32.171875 -5.078125 
Q 28.375 -14.84375 24.75 -17.8125 
Q 21.140625 -20.796875 15.09375 -20.796875 
L 7.90625 -20.796875 
L 7.90625 -13.28125 
L 13.1875 -13.28125 
Q 16.890625 -13.28125 18.9375 -11.515625 
Q 21 -9.765625 23.484375 -3.21875 
L 25.09375 0.875 
L 2.984375 54.6875 
L 12.5 54.6875 
L 29.59375 11.921875 
L 46.6875 54.6875 
L 56.203125 54.6875 
z
" id="DejaVuSans-121"/>
       <path d="M 30.609375 48.390625 
Q 23.390625 48.390625 19.1875 42.75 
Q 14.984375 37.109375 14.984375 27.296875 
Q 14.984375 17.484375 19.15625 11.84375 
Q 23.34375 6.203125 30.609375 6.203125 
Q 37.796875 6.203125 41.984375 11.859375 
Q 46.1875 17.53125 46.1875 27.296875 
Q 46.1875 37.015625 41.984375 42.703125 
Q 37.796875 48.390625 30.609375 48.390625 
z
M 30.609375 56 
Q 42.328125 56 49.015625 48.375 
Q 55.71875 40.765625 55.71875 27.296875 
Q 55.71875 13.875 49.015625 6.21875 
Q 42.328125 -1.421875 30.609375 -1.421875 
Q 18.84375 -1.421875 12.171875 6.21875 
Q 5.515625 13.875 5.515625 27.296875 
Q 5.515625 40.765625 12.171875 48.375 
Q 18.84375 56 30.609375 56 
z
" id="DejaVuSans-111"/>
       <path d="M 18.3125 70.21875 
L 18.3125 54.6875 
L 36.8125 54.6875 
L 36.8125 47.703125 
L 18.3125 47.703125 
L 18.3125 18.015625 
Q 18.3125 11.328125 20.140625 9.421875 
Q 21.96875 7.515625 27.59375 7.515625 
L 36.8125 7.515625 
L 36.8125 0 
L 27.59375 0 
Q 17.1875 0 13.234375 3.875 
Q 9.28125 7.765625 9.28125 18.015625 
L 9.28125 47.703125 
L 2.6875 47.703125 
L 2.6875 54.6875 
L 9.28125 54.6875 
L 9.28125 70.21875 
z
" id="DejaVuSans-116"/>
      </defs>
      <use xlink:href="#DejaVuSans-87"/>
      <use x="92.501953" xlink:href="#DejaVuSans-97"/>
      <use x="153.78125" xlink:href="#DejaVuSans-121"/>
      <use x="212.960938" xlink:href="#DejaVuSans-112"/>
      <use x="276.4375" xlink:href="#DejaVuSans-111"/>
      <use x="337.619141" xlink:href="#DejaVuSans-105"/>
      <use x="365.402344" xlink:href="#DejaVuSans-110"/>
      <use x="428.78125" xlink:href="#DejaVuSans-116"/>
      <use x="467.990234" xlink:href="#DejaVuSans-115"/>
     </g>
    </g>
    <g id="line2d_19">
     <path d="M 66.6 69.248563 
L 86.6 69.248563 
" style="fill:none;stroke:#ff7f0e;stroke-linecap:square;stroke-width:1.5;"/>
    </g>
    <g id="line2d_20"/>
    <g id="text_16">
     <!-- Stanley -->
     <g transform="translate(94.6 72.748563)scale(0.1 -0.1)">
      <defs>
       <path d="M 53.515625 70.515625 
L 53.515625 60.890625 
Q 47.90625 63.578125 42.921875 64.890625 
Q 37.9375 66.21875 33.296875 66.21875 
Q 25.25 66.21875 20.875 63.09375 
Q 16.5 59.96875 16.5 54.203125 
Q 16.5 49.359375 19.40625 46.890625 
Q 22.3125 44.4375 30.421875 42.921875 
L 36.375 41.703125 
Q 47.40625 39.59375 52.65625 34.296875 
Q 57.90625 29 57.90625 20.125 
Q 57.90625 9.515625 50.796875 4.046875 
Q 43.703125 -1.421875 29.984375 -1.421875 
Q 24.8125 -1.421875 18.96875 -0.25 
Q 13.140625 0.921875 6.890625 3.21875 
L 6.890625 13.375 
Q 12.890625 10.015625 18.65625 8.296875 
Q 24.421875 6.59375 29.984375 6.59375 
Q 38.421875 6.59375 43.015625 9.90625 
Q 47.609375 13.234375 47.609375 19.390625 
Q 47.609375 24.75 44.3125 27.78125 
Q 41.015625 30.8125 33.5 32.328125 
L 27.484375 33.5 
Q 16.453125 35.6875 11.515625 40.375 
Q 6.59375 45.0625 6.59375 53.421875 
Q 6.59375 63.09375 13.40625 68.65625 
Q 20.21875 74.21875 32.171875 74.21875 
Q 37.3125 74.21875 42.625 73.28125 
Q 47.953125 72.359375 53.515625 70.515625 
z
" id="DejaVuSans-83"/>
       <path d="M 9.421875 75.984375 
L 18.40625 75.984375 
L 18.40625 0 
L 9.421875 0 
z
" id="DejaVuSans-108"/>
      </defs>
      <use xlink:href="#DejaVuSans-83"/>
      <use x="63.476562" xlink:href="#DejaVuSans-116"/>
      <use x="102.685547" xlink:href="#DejaVuSans-97"/>
      <use x="163.964844" xlink:href="#DejaVuSans-110"/>
      <use x="227.34375" xlink:href="#DejaVuSans-108"/>
      <use x="255.126953" xlink:href="#DejaVuSans-101"/>
      <use x="316.650391" xlink:href="#DejaVuSans-121"/>
     </g>
    </g>
    <g id="line2d_21">
     <path d="M 66.6 83.926688 
L 86.6 83.926688 
" style="fill:none;stroke:#2ca02c;stroke-linecap:square;stroke-width:1.5;"/>
    </g>
    <g id="line2d_22"/>
    <g id="text_17">
     <!-- Pure Pursuit -->
     <g transform="translate(94.6 87.426688)scale(0.1 -0.1)">
      <defs>
       <path d="M 19.671875 64.796875 
L 19.671875 37.40625 
L 32.078125 37.40625 
Q 38.96875 37.40625 42.71875 40.96875 
Q 46.484375 44.53125 46.484375 51.125 
Q 46.484375 57.671875 42.71875 61.234375 
Q 38.96875 64.796875 32.078125 64.796875 
z
M 9.8125 72.90625 
L 32.078125 72.90625 
Q 44.34375 72.90625 50.609375 67.359375 
Q 56.890625 61.8125 56.890625 51.125 
Q 56.890625 40.328125 50.609375 34.8125 
Q 44.34375 29.296875 32.078125 29.296875 
L 19.671875 29.296875 
L 19.671875 0 
L 9.8125 0 
z
" id="DejaVuSans-80"/>
       <path d="M 8.5 21.578125 
L 8.5 54.6875 
L 17.484375 54.6875 
L 17.484375 21.921875 
Q 17.484375 14.15625 20.5 10.265625 
Q 23.53125 6.390625 29.59375 6.390625 
Q 36.859375 6.390625 41.078125 11.03125 
Q 45.3125 15.671875 45.3125 23.6875 
L 45.3125 54.6875 
L 54.296875 54.6875 
L 54.296875 0 
L 45.3125 0 
L 45.3125 8.40625 
Q 42.046875 3.421875 37.71875 1 
Q 33.40625 -1.421875 27.6875 -1.421875 
Q 18.265625 -1.421875 13.375 4.4375 
Q 8.5 10.296875 8.5 21.578125 
z
M 31.109375 56 
z
" id="DejaVuSans-117"/>
       <path d="M 41.109375 46.296875 
Q 39.59375 47.171875 37.8125 47.578125 
Q 36.03125 48 33.890625 48 
Q 26.265625 48 22.1875 43.046875 
Q 18.109375 38.09375 18.109375 28.8125 
L 18.109375 0 
L 9.078125 0 
L 9.078125 54.6875 
L 18.109375 54.6875 
L 18.109375 46.1875 
Q 20.953125 51.171875 25.484375 53.578125 
Q 30.03125 56 36.53125 56 
Q 37.453125 56 38.578125 55.875 
Q 39.703125 55.765625 41.0625 55.515625 
z
" id="DejaVuSans-114"/>
      </defs>
      <use xlink:href="#DejaVuSans-80"/>
      <use x="58.552734" xlink:href="#DejaVuSans-117"/>
      <use x="121.931641" xlink:href="#DejaVuSans-114"/>
      <use x="160.794922" xlink:href="#DejaVuSans-101"/>
      <use x="222.318359" xlink:href="#DejaVuSans-32"/>
      <use x="254.105469" xlink:href="#DejaVuSans-80"/>
      <use x="312.658203" xlink:href="#DejaVuSans-117"/>
      <use x="376.037109" xlink:href="#DejaVuSans-114"/>
      <use x="417.150391" xlink:href="#DejaVuSans-115"/>
      <use x="469.25" xlink:href="#DejaVuSans-117"/>
      <use x="532.628906" xlink:href="#DejaVuSans-105"/>
      <use x="560.412109" xlink:href="#DejaVuSans-116"/>
     </g>
    </g>
   </g>
  </g>
 </g>
 <defs>
  <clipPath id="pecd494aa6c">
   <rect height="266.112" width="357.12" x="57.6" y="41.472"/>
  </clipPath>
 </defs>
</svg>
