<?xml version="1.0" encoding="utf-8" standalone="no"?>
<!DOCTYPE svg PUBLIC "-//W3C//DTD SVG 1.1//EN"
  "http://www.w3.org/Graphics/SVG/1.1/DTD/svg11.dtd">
<!-- Created with matplotlib (https://matplotlib.org/) -->
<svg height="345.6pt" version="1.1" viewBox="0 0 460.8 345.6" width="460.8pt" xmlns="http://www.w3.org/2000/svg" xmlns:xlink="http://www.w3.org/1999/xlink">
 <metadata>
  <rdf:RDF xmlns:cc="http://creativecommons.org/ns#" xmlns:dc="http://purl.org/dc/elements/1.1/" xmlns:rdf="http://www.w3.org/1999/02/22-rdf-syntax-ns#">
   <cc:Work>
    <dc:type rdf:resource="http://purl.org/dc/dcmitype/StillImage"/>
    <dc:date>2024-10-15T01:06:39.271582</dc:date>
    <dc:format>image/svg+xml</dc:format>
    <dc:creator>
     <cc:Agent>
      <dc:title>Matplotlib v3.3.1, https://matplotlib.org/</dc:title>
     </cc:Agent>
    </dc:creator>
   </cc:Work>
  </rdf:RDF>
 </metadata>
 <defs>
  <style type="text/css">*{stroke-linecap:butt;stroke-linejoin:round;}</style>
 </defs>
 <g id="figure_1">
  <g id="patch_1">
   <path d="M 0 345.6 
L 460.8 345.6 
L 460.8 0 
L 0 0 
z
" style="fill:#ffffff;"/>
  </g>
  <g id="axes_1">
   <g id="patch_2">
    <path d="M 57.6 307.584 
L 414.72 307.584 
L 414.72 41.472 
L 57.6 41.472 
z
" style="fill:#ffffff;"/>
   </g>
   <g id="matplotlib.axis_1">
    <g id="xtick_1">
     <g id="line2d_1">
      <defs>
       <path d="M 0 0 
L 0 3.5 
" id="md6ef990426" style="stroke:#000000;stroke-width:0.8;"/>
      </defs>
      <g>
       <use style="stroke:#000000;stroke-width:0.8;" x="73.832727" xlink:href="#md6ef990426" y="307.584"/>
      </g>
     </g>
     <g id="text_1">
      <!-- 0.0 -->
      <g transform="translate(65.881165 322.182437)scale(0.1 -0.1)">
       <defs>
        <path d="M 31.78125 66.40625 
Q 24.171875 66.40625 20.328125 58.90625 
Q 16.5 51.421875 16.5 36.375 
Q 16.5 21.390625 20.328125 13.890625 
Q 24.171875 6.390625 31.78125 6.390625 
Q 39.453125 6.390625 43.28125 13.890625 
Q 47.125 21.390625 47.125 36.375 
Q 47.125 51.421875 43.28125 58.90625 
Q 39.453125 66.40625 31.78125 66.40625 
z
M 31.78125 74.21875 
Q 44.046875 74.21875 50.515625 64.515625 
Q 56.984375 54.828125 56.984375 36.375 
Q 56.984375 17.96875 50.515625 8.265625 
Q 44.046875 -1.421875 31.78125 -1.421875 
Q 19.53125 -1.421875 13.0625 8.265625 
Q 6.59375 17.96875 6.59375 36.375 
Q 6.59375 54.828125 13.0625 64.515625 
Q 19.53125 74.21875 31.78125 74.21875 
z
" id="DejaVuSans-48"/>
        <path d="M 10.6875 12.40625 
L 21 12.40625 
L 21 0 
L 10.6875 0 
z
" id="DejaVuSans-46"/>
       </defs>
       <use xlink:href="#DejaVuSans-48"/>
       <use x="63.623047" xlink:href="#DejaVuSans-46"/>
       <use x="95.410156" xlink:href="#DejaVuSans-48"/>
      </g>
     </g>
    </g>
    <g id="xtick_2">
     <g id="line2d_2">
      <g>
       <use style="stroke:#000000;stroke-width:0.8;" x="138.763636" xlink:href="#md6ef990426" y="307.584"/>
      </g>
     </g>
     <g id="text_2">
      <!-- 0.2 -->
      <g transform="translate(130.812074 322.182437)scale(0.1 -0.1)">
       <defs>
        <path d="M 19.1875 8.296875 
L 53.609375 8.296875 
L 53.609375 0 
L 7.328125 0 
L 7.328125 8.296875 
Q 12.9375 14.109375 22.625 23.890625 
Q 32.328125 33.6875 34.8125 36.53125 
Q 39.546875 41.84375 41.421875 45.53125 
Q 43.3125 49.21875 43.3125 52.78125 
Q 43.3125 58.59375 39.234375 62.25 
Q 35.15625 65.921875 28.609375 65.921875 
Q 23.96875 65.921875 18.8125 64.3125 
Q 13.671875 62.703125 7.8125 59.421875 
L 7.8125 69.390625 
Q 13.765625 71.78125 18.9375 73 
Q 24.125 74.21875 28.421875 74.21875 
Q 39.75 74.21875 46.484375 68.546875 
Q 53.21875 62.890625 53.21875 53.421875 
Q 53.21875 48.921875 51.53125 44.890625 
Q 49.859375 40.875 45.40625 35.40625 
Q 44.1875 33.984375 37.640625 27.21875 
Q 31.109375 20.453125 19.1875 8.296875 
z
" id="DejaVuSans-50"/>
       </defs>
       <use xlink:href="#DejaVuSans-48"/>
       <use x="63.623047" xlink:href="#DejaVuSans-46"/>
       <use x="95.410156" xlink:href="#DejaVuSans-50"/>
      </g>
     </g>
    </g>
    <g id="xtick_3">
     <g id="line2d_3">
      <g>
       <use style="stroke:#000000;stroke-width:0.8;" x="203.694545" xlink:href="#md6ef990426" y="307.584"/>
      </g>
     </g>
     <g id="text_3">
      <!-- 0.4 -->
      <g transform="translate(195.742983 322.182437)scale(0.1 -0.1)">
       <defs>
        <path d="M 37.796875 64.3125 
L 12.890625 25.390625 
L 37.796875 25.390625 
z
M 35.203125 72.90625 
L 47.609375 72.90625 
L 47.609375 25.390625 
L 58.015625 25.390625 
L 58.015625 17.1875 
L 47.609375 17.1875 
L 47.609375 0 
L 37.796875 0 
L 37.796875 17.1875 
L 4.890625 17.1875 
L 4.890625 26.703125 
z
" id="DejaVuSans-52"/>
       </defs>
       <use xlink:href="#DejaVuSans-48"/>
       <use x="63.623047" xlink:href="#DejaVuSans-46"/>
       <use x="95.410156" xlink:href="#DejaVuSans-52"/>
      </g>
     </g>
    </g>
    <g id="xtick_4">
     <g id="line2d_4">
      <g>
       <use style="stroke:#000000;stroke-width:0.8;" x="268.625455" xlink:href="#md6ef990426" y="307.584"/>
      </g>
     </g>
     <g id="text_4">
      <!-- 0.6 -->
      <g transform="translate(260.673892 322.182437)scale(0.1 -0.1)">
       <defs>
        <path d="M 33.015625 40.375 
Q 26.375 40.375 22.484375 35.828125 
Q 18.609375 31.296875 18.609375 23.390625 
Q 18.609375 15.53125 22.484375 10.953125 
Q 26.375 6.390625 33.015625 6.390625 
Q 39.65625 6.390625 43.53125 10.953125 
Q 47.40625 15.53125 47.40625 23.390625 
Q 47.40625 31.296875 43.53125 35.828125 
Q 39.65625 40.375 33.015625 40.375 
z
M 52.59375 71.296875 
L 52.59375 62.3125 
Q 48.875 64.0625 45.09375 64.984375 
Q 41.3125 65.921875 37.59375 65.921875 
Q 27.828125 65.921875 22.671875 59.328125 
Q 17.53125 52.734375 16.796875 39.40625 
Q 19.671875 43.65625 24.015625 45.921875 
Q 28.375 48.1875 33.59375 48.1875 
Q 44.578125 48.1875 50.953125 41.515625 
Q 57.328125 34.859375 57.328125 23.390625 
Q 57.328125 12.15625 50.6875 5.359375 
Q 44.046875 -1.421875 33.015625 -1.421875 
Q 20.359375 -1.421875 13.671875 8.265625 
Q 6.984375 17.96875 6.984375 36.375 
Q 6.984375 53.65625 15.1875 63.9375 
Q 23.390625 74.21875 37.203125 74.21875 
Q 40.921875 74.21875 44.703125 73.484375 
Q 48.484375 72.75 52.59375 71.296875 
z
" id="DejaVuSans-54"/>
       </defs>
       <use xlink:href="#DejaVuSans-48"/>
       <use x="63.623047" xlink:href="#DejaVuSans-46"/>
       <use x="95.410156" xlink:href="#DejaVuSans-54"/>
      </g>
     </g>
    </g>
    <g id="xtick_5">
     <g id="line2d_5">
      <g>
       <use style="stroke:#000000;stroke-width:0.8;" x="333.556364" xlink:href="#md6ef990426" y="307.584"/>
      </g>
     </g>
     <g id="text_5">
      <!-- 0.8 -->
      <g transform="translate(325.604801 322.182437)scale(0.1 -0.1)">
       <defs>
        <path d="M 31.78125 34.625 
Q 24.75 34.625 20.71875 30.859375 
Q 16.703125 27.09375 16.703125 20.515625 
Q 16.703125 13.921875 20.71875 10.15625 
Q 24.75 6.390625 31.78125 6.390625 
Q 38.8125 6.390625 42.859375 10.171875 
Q 46.921875 13.96875 46.921875 20.515625 
Q 46.921875 27.09375 42.890625 30.859375 
Q 38.875 34.625 31.78125 34.625 
z
M 21.921875 38.8125 
Q 15.578125 40.375 12.03125 44.71875 
Q 8.5 49.078125 8.5 55.328125 
Q 8.5 64.0625 14.71875 69.140625 
Q 20.953125 74.21875 31.78125 74.21875 
Q 42.671875 74.21875 48.875 69.140625 
Q 55.078125 64.0625 55.078125 55.328125 
Q 55.078125 49.078125 51.53125 44.71875 
Q 48 40.375 41.703125 38.8125 
Q 48.828125 37.15625 52.796875 32.3125 
Q 56.78125 27.484375 56.78125 20.515625 
Q 56.78125 9.90625 50.3125 4.234375 
Q 43.84375 -1.421875 31.78125 -1.421875 
Q 19.734375 -1.421875 13.25 4.234375 
Q 6.78125 9.90625 6.78125 20.515625 
Q 6.78125 27.484375 10.78125 32.3125 
Q 14.796875 37.15625 21.921875 38.8125 
z
M 18.3125 54.390625 
Q 18.3125 48.734375 21.84375 45.5625 
Q 25.390625 42.390625 31.78125 42.390625 
Q 38.140625 42.390625 41.71875 45.5625 
Q 45.3125 48.734375 45.3125 54.390625 
Q 45.3125 60.0625 41.71875 63.234375 
Q 38.140625 66.40625 31.78125 66.40625 
Q 25.390625 66.40625 21.84375 63.234375 
Q 18.3125 60.0625 18.3125 54.390625 
z
" id="DejaVuSans-56"/>
       </defs>
       <use xlink:href="#DejaVuSans-48"/>
       <use x="63.623047" xlink:href="#DejaVuSans-46"/>
       <use x="95.410156" xlink:href="#DejaVuSans-56"/>
      </g>
     </g>
    </g>
    <g id="xtick_6">
     <g id="line2d_6">
      <g>
       <use style="stroke:#000000;stroke-width:0.8;" x="398.487273" xlink:href="#md6ef990426" y="307.584"/>
      </g>
     </g>
     <g id="text_6">
      <!-- 1.0 -->
      <g transform="translate(390.53571 322.182437)scale(0.1 -0.1)">
       <defs>
        <path d="M 12.40625 8.296875 
L 28.515625 8.296875 
L 28.515625 63.921875 
L 10.984375 60.40625 
L 10.984375 69.390625 
L 28.421875 72.90625 
L 38.28125 72.90625 
L 38.28125 8.296875 
L 54.390625 8.296875 
L 54.390625 0 
L 12.40625 0 
z
" id="DejaVuSans-49"/>
       </defs>
       <use xlink:href="#DejaVuSans-49"/>
       <use x="63.623047" xlink:href="#DejaVuSans-46"/>
       <use x="95.410156" xlink:href="#DejaVuSans-48"/>
      </g>
     </g>
    </g>
   </g>
   <g id="matplotlib.axis_2">
    <g id="ytick_1">
     <g id="line2d_7">
      <defs>
       <path d="M 0 0 
L -3.5 0 
" id="m40544457ca" style="stroke:#000000;stroke-width:0.8;"/>
      </defs>
      <g>
       <use style="stroke:#000000;stroke-width:0.8;" x="57.6" xlink:href="#m40544457ca" y="265.30069"/>
      </g>
     </g>
     <g id="text_7">
      <!-- 4 -->
      <g transform="translate(44.2375 269.099908)scale(0.1 -0.1)">
       <use xlink:href="#DejaVuSans-52"/>
      </g>
     </g>
    </g>
    <g id="ytick_2">
     <g id="line2d_8">
      <g>
       <use style="stroke:#000000;stroke-width:0.8;" x="57.6" xlink:href="#m40544457ca" y="212.367517"/>
      </g>
     </g>
     <g id="text_8">
      <!-- 5 -->
      <g transform="translate(44.2375 216.166736)scale(0.1 -0.1)">
       <defs>
        <path d="M 10.796875 72.90625 
L 49.515625 72.90625 
L 49.515625 64.59375 
L 19.828125 64.59375 
L 19.828125 46.734375 
Q 21.96875 47.46875 24.109375 47.828125 
Q 26.265625 48.1875 28.421875 48.1875 
Q 40.625 48.1875 47.75 41.5 
Q 54.890625 34.8125 54.890625 23.390625 
Q 54.890625 11.625 47.5625 5.09375 
Q 40.234375 -1.421875 26.90625 -1.421875 
Q 22.3125 -1.421875 17.546875 -0.640625 
Q 12.796875 0.140625 7.71875 1.703125 
L 7.71875 11.625 
Q 12.109375 9.234375 16.796875 8.0625 
Q 21.484375 6.890625 26.703125 6.890625 
Q 35.15625 6.890625 40.078125 11.328125 
Q 45.015625 15.765625 45.015625 23.390625 
Q 45.015625 31 40.078125 35.4375 
Q 35.15625 39.890625 26.703125 39.890625 
Q 22.75 39.890625 18.8125 39.015625 
Q 14.890625 38.140625 10.796875 36.28125 
z
" id="DejaVuSans-53"/>
       </defs>
       <use xlink:href="#DejaVuSans-53"/>
      </g>
     </g>
    </g>
    <g id="ytick_3">
     <g id="line2d_9">
      <g>
       <use style="stroke:#000000;stroke-width:0.8;" x="57.6" xlink:href="#m40544457ca" y="159.434345"/>
      </g>
     </g>
     <g id="text_9">
      <!-- 6 -->
      <g transform="translate(44.2375 163.233564)scale(0.1 -0.1)">
       <use xlink:href="#DejaVuSans-54"/>
      </g>
     </g>
    </g>
    <g id="ytick_4">
     <g id="line2d_10">
      <g>
       <use style="stroke:#000000;stroke-width:0.8;" x="57.6" xlink:href="#m40544457ca" y="106.501172"/>
      </g>
     </g>
     <g id="text_10">
      <!-- 7 -->
      <g transform="translate(44.2375 110.300391)scale(0.1 -0.1)">
       <defs>
        <path d="M 8.203125 72.90625 
L 55.078125 72.90625 
L 55.078125 68.703125 
L 28.609375 0 
L 18.3125 0 
L 43.21875 64.59375 
L 8.203125 64.59375 
z
" id="DejaVuSans-55"/>
       </defs>
       <use xlink:href="#DejaVuSans-55"/>
      </g>
     </g>
    </g>
    <g id="ytick_5">
     <g id="line2d_11">
      <g>
       <use style="stroke:#000000;stroke-width:0.8;" x="57.6" xlink:href="#m40544457ca" y="53.568"/>
      </g>
     </g>
     <g id="text_11">
      <!-- 8 -->
      <g transform="translate(44.2375 57.367219)scale(0.1 -0.1)">
       <use xlink:href="#DejaVuSans-56"/>
      </g>
     </g>
    </g>
   </g>
   <g id="line2d_12">
    <path clip-path="url(#pef731489fa)" d="M 73.832727 53.568 
L 100.203324 53.568 
L 100.345101 54.504542 
L 101.621095 86.890177 
L 102.897085 113.84542 
L 104.314843 138.833875 
L 105.590811 157.549781 
L 106.299682 166.246448 
L 107.008537 172.720894 
L 107.717398 177.26076 
L 108.142699 178.703787 
L 108.426236 178.867391 
L 108.85155 178.779212 
L 109.135089 177.64834 
L 109.418632 175.327632 
L 109.843945 169.760824 
L 110.411045 158.124146 
L 110.978151 141.859418 
L 111.687038 114.76367 
L 111.828815 108.374442 
L 111.970593 110.433285 
L 112.679476 133.393458 
L 113.246577 145.769937 
L 113.671902 151.64222 
L 113.955447 153.759337 
L 114.238988 154.489852 
L 114.806067 154.430515 
L 115.089608 153.771933 
L 115.514917 151.446694 
L 116.082007 146.478161 
L 116.649103 139.183711 
L 117.499753 124.923264 
L 118.350409 106.676608 
L 119.342847 80.011573 
L 120.193511 53.568 
L 120.902398 53.568 
L 121.469507 69.873042 
L 122.461944 94.753038 
L 123.312599 110.671763 
L 124.021468 120.157889 
L 124.58856 125.247387 
L 125.013882 127.395323 
L 125.297424 127.919122 
L 125.722729 128.021777 
L 126.148048 127.972082 
L 126.573353 127.603973 
L 127.140437 126.709902 
L 127.707521 125.355402 
L 133.520157 110.047597 
L 134.51255 108.697377 
L 134.937871 108.090422 
L 135.363181 106.972872 
L 135.788503 105.175133 
L 136.355594 101.959798 
L 138.340421 87.580315 
L 139.474615 77.355015 
L 141.601236 55.205229 
L 141.743014 53.706551 
L 142.026564 53.568 
L 160.882886 53.568 
L 161.16644 61.182067 
L 163.293092 128.78369 
L 164.569054 159.836157 
L 165.844989 185.285504 
L 166.979107 204.135959 
L 167.829655 214.991327 
L 168.396663 220.078587 
L 168.821867 222.140961 
L 169.105347 222.58157 
L 169.530601 222.615748 
L 169.814081 222.26915 
L 170.097566 221.417674 
L 170.664547 218.689862 
L 171.940246 212.047942 
L 173.216018 206.364017 
L 173.924773 200.362813 
L 175.058854 188.073309 
L 177.327096 160.506654 
L 180.162492 123.872477 
L 181.722 99.980729 
L 183.139748 74.481099 
L 184.273955 53.568 
L 187.96016 53.568 
L 188.101937 55.343421 
L 191.504568 171.782459 
L 192.638722 202.247574 
L 194.056308 234.145296 
L 195.473693 261.188612 
L 196.182325 271.214823 
L 196.607305 274.281005 
L 196.749082 274.530254 
L 197.173971 274.461097 
L 197.315748 274.236484 
L 197.599107 272.903416 
L 198.024122 268.7812 
L 198.449333 262.700348 
L 199.441424 244.634962 
L 200.717217 218.201611 
L 201.993089 187.415028 
L 203.127269 155.23871 
L 204.119704 120.846844 
L 205.821031 56.894562 
L 205.962808 53.568 
L 218.439154 53.568 
L 218.864483 61.285255 
L 220.424012 94.19341 
L 222.83417 147.881946 
L 223.968321 167.014127 
L 224.818907 178.098129 
L 225.669464 186.274458 
L 226.094708 188.926303 
L 226.37821 189.812288 
L 226.661707 190.108018 
L 227.08698 190.071184 
L 227.228702 189.859566 
L 227.51221 188.74249 
L 227.9375 185.603978 
L 228.50454 179.258194 
L 229.213357 167.940421 
L 230.063982 149.907215 
L 230.914629 126.941717 
L 231.76529 98.357685 
L 233.041286 53.568 
L 245.234048 53.568 
L 245.375819 54.370099 
L 247.077103 72.392254 
L 248.353061 83.859655 
L 249.912537 94.557528 
L 250.337855 96.52912 
L 250.904931 98.059819 
L 251.330227 98.576813 
L 251.897298 98.570787 
L 252.180834 98.385504 
L 252.464372 97.942122 
L 252.889687 96.677462 
L 253.456765 94.547783 
L 254.023847 91.388985 
L 254.590932 87.167978 
L 256.150426 72.300053 
L 257.284618 58.913983 
L 257.709945 53.568 
L 285.781811 53.568 
L 286.632475 84.724502 
L 287.908471 138.227521 
L 289.468011 205.919362 
L 290.460363 237.84361 
L 291.594323 267.068884 
L 292.72798 289.886526 
L 293.153092 294.676992 
L 293.436366 295.473228 
L 293.86105 295.488 
L 294.002827 295.142798 
L 294.286107 293.087213 
L 294.71103 287.200864 
L 295.5613 270.773484 
L 296.695242 243.77479 
L 297.829348 211.004241 
L 298.821741 183.509373 
L 299.814126 161.607892 
L 300.948293 141.351441 
L 302.082466 124.729305 
L 303.216651 107.309894 
L 303.641978 98.07244 
L 303.783754 98.315073 
L 304.350862 118.489929 
L 305.343302 159.315841 
L 306.335715 190.398728 
L 307.328095 214.097909 
L 308.036869 226.922411 
L 308.603861 233.736713 
L 309.454293 239.862737 
L 310.163008 244.04 
L 310.446468 244.967747 
L 310.588145 245.175442 
L 311.155039 245.09625 
L 311.296817 244.790935 
L 311.580278 243.481298 
L 312.005446 240.442889 
L 312.997684 231.026842 
L 314.556922 214.7472 
L 315.549257 201.420628 
L 317.108674 175.864207 
L 318.951706 141.646784 
L 320.227673 113.788967 
L 321.50366 80.900404 
L 321.787214 74.699035 
L 324.055636 140.039757 
L 325.189824 164.58299 
L 326.182208 182.263095 
L 327.174583 195.597299 
L 327.883378 202.582416 
L 328.308672 204.805184 
L 328.592185 205.17473 
L 329.017421 205.162326 
L 329.159199 204.918214 
L 329.442712 203.560052 
L 329.867982 199.277239 
L 330.435048 190.806938 
L 331.143908 175.807026 
L 331.852775 156.130937 
L 332.703435 125.735362 
L 332.98699 113.649918 
L 333.128768 115.666316 
L 333.97943 146.993271 
L 334.688303 166.357763 
L 335.397167 179.897507 
L 335.822462 185.013207 
L 336.24777 187.712084 
L 336.531295 188.227586 
L 336.95656 188.273359 
L 337.098337 188.015274 
L 337.240086 187.44824 
L 337.52362 184.904533 
L 337.807161 180.190512 
L 338.232486 168.899956 
L 338.799592 146.130662 
L 339.083147 132.855147 
L 339.508474 144.336612 
L 339.933797 149.828466 
L 340.217338 151.078494 
L 340.500875 151.47382 
L 340.926168 151.527917 
L 341.209704 151.341006 
L 341.635018 150.582131 
L 342.060316 149.289221 
L 342.769172 146.28131 
L 343.903336 139.956219 
L 347.731175 117.497942 
L 348.723588 113.469063 
L 349.574224 110.753048 
L 350.850173 108.234561 
L 351.275497 106.500264 
L 351.984362 102.263061 
L 352.835009 95.528573 
L 353.827437 85.476919 
L 354.67809 75.364604 
L 356.237624 55.111852 
L 356.379402 53.568 
L 398.487273 53.568 
L 398.487273 53.568 
" style="fill:none;stroke:#1f77b4;stroke-linecap:square;stroke-width:1.5;"/>
   </g>
   <g id="line2d_13">
    <path clip-path="url(#pef731489fa)" d="M 73.832727 53.568 
L 99.861657 53.568 
L 99.861657 53.568 
L 99.974312 53.746132 
L 100.310883 57.254752 
L 100.310883 57.254752 
L 100.643746 63.298379 
L 102.816495 111.620828 
L 102.816495 111.620828 
L 104.130903 135.975867 
L 105.874619 161.517983 
L 107.10788 173.568513 
L 107.669734 176.897619 
L 107.669734 176.897619 
L 108.068075 178.168037 
L 108.385933 178.560103 
L 108.624171 178.580571 
L 108.624171 178.580571 
L 108.941944 178.320892 
L 108.941944 178.320892 
L 109.260208 177.644951 
L 109.260208 177.644951 
L 109.579553 176.220475 
L 109.579553 176.220475 
L 109.900762 174.119488 
L 109.900762 174.119488 
L 110.470303 167.97874 
L 111.224896 154.94824 
L 111.224896 154.94824 
L 111.836825 143.043763 
L 112.194203 139.90208 
L 112.463661 139.187868 
L 112.643353 139.553009 
L 112.643353 139.553009 
L 112.91176 142.145028 
L 113.702868 150.848843 
L 113.702868 150.848843 
L 114.048827 152.900217 
L 114.048827 152.900217 
L 114.393274 153.792983 
L 114.393274 153.792983 
L 114.651196 154.01038 
L 114.90908 153.920925 
L 115.253163 153.510674 
L 115.597878 152.739931 
L 116.117157 150.614297 
L 116.117157 150.614297 
L 116.553106 147.919026 
L 117.081962 143.438707 
L 117.800431 135.230693 
L 118.539169 124.228945 
L 119.304547 110.181485 
L 120.61998 84.67566 
L 120.61998 84.67566 
L 121.03992 80.779996 
L 121.03992 80.779996 
L 121.251045 79.956862 
L 121.462416 79.746966 
L 121.462416 79.746966 
L 121.568088 80.059644 
L 121.883651 83.523615 
L 121.883651 83.523615 
L 122.503448 94.069082 
L 123.97967 118.047105 
L 124.453868 122.856401 
L 124.922834 125.92184 
L 125.295836 127.104376 
L 125.667967 127.624416 
L 126.03975 127.771017 
L 126.597394 127.690014 
L 127.155344 127.381051 
L 127.807208 126.688217 
L 128.460637 125.70509 
L 129.679767 123.399977 
L 130.81288 120.869895 
L 132.336905 117.188085 
L 134.264433 112.661076 
L 135.724448 109.648952 
L 136.509064 107.094535 
L 137.399414 103.223616 
L 138.30022 98.378885 
L 139.624734 89.541758 
L 139.624734 89.541758 
L 141.089991 77.551558 
L 142.382958 67.262646 
L 143.150094 63.305469 
L 143.923477 60.49175 
L 143.923477 60.49175 
L 144.701302 58.491078 
L 145.482284 57.068516 
L 146.265513 56.057014 
L 147.162558 55.25364 
L 148.173402 54.655288 
L 149.41041 54.204222 
L 150.986202 53.889662 
L 153.238694 53.689407 
L 157.294602 53.589017 
L 160.674894 53.572873 
L 160.787499 54.12708 
L 161.234628 60.672948 
L 161.990695 82.142911 
L 164.191294 147.413921 
L 164.191294 147.413921 
L 164.958227 165.158234 
L 166.22922 190.270848 
L 167.191986 206.042951 
L 167.830813 214.161448 
L 168.521575 220.099609 
L 168.930198 221.814121 
L 169.269344 222.336579 
L 169.269344 222.336579 
L 169.540359 222.420417 
L 169.540359 222.420417 
L 169.879173 222.277845 
L 170.15044 222.014765 
L 170.490089 221.41833 
L 171.035781 219.848581 
L 173.04836 212.30017 
L 173.828964 208.128978 
L 174.478161 203.595224 
L 175.738836 192.639201 
L 175.738836 192.639201 
L 176.818147 181.721476 
L 179.454622 152.379397 
L 180.691543 137.23629 
L 180.691543 137.23629 
L 182.179155 117.385189 
L 182.179155 117.385189 
L 185.229187 73.804804 
L 185.985997 67.957219 
L 186.752038 63.79934 
L 186.752038 63.79934 
L 187.524642 60.842913 
L 187.968312 59.639246 
L 188.19037 59.886562 
L 188.411715 62.706721 
L 188.954344 76.28522 
L 188.954344 76.28522 
L 193.045648 208.418903 
L 193.737443 224.734042 
L 194.326624 237.336471 
L 194.88679 248.734862 
L 195.47952 259.58852 
L 195.934276 266.763381 
L 196.375817 271.988335 
L 196.701512 273.77651 
L 196.971551 274.254613 
L 196.971551 274.254613 
L 197.187321 274.317409 
L 197.187321 274.317409 
L 197.457127 274.112525 
L 197.835902 273.105095 
L 197.835902 273.105095 
L 198.162705 271.438299 
L 198.771607 266.179405 
L 199.634275 255.05277 
L 199.634275 255.05277 
L 200.802954 235.801322 
L 201.942346 213.674675 
L 201.942346 213.674675 
L 203.116984 187.646831 
L 203.116984 187.646831 
L 203.995221 165.299438 
L 206.690589 91.320181 
L 206.690589 91.320181 
L 207.419751 80.411389 
L 208.166132 72.654779 
L 208.924758 67.139503 
L 209.69209 63.21791 
L 209.69209 63.21791 
L 210.465612 60.429492 
L 211.243536 58.446809 
L 212.02459 57.037039 
L 212.807868 56.034633 
L 212.807868 56.034633 
L 213.704953 55.238483 
L 213.704953 55.238483 
L 214.715828 54.645511 
L 215.952857 54.198501 
L 215.952857 54.198501 
L 217.528664 53.886769 
L 218.316916 53.794658 
L 218.429486 54.16254 
L 218.654039 56.185372 
L 218.654039 56.185372 
L 219.3186 66.352734 
L 219.858385 76.549487 
L 220.792712 97.473132 
L 220.792712 97.473132 
L 222.144673 129.955972 
L 223.980831 164.576442 
L 224.956405 177.446392 
L 225.664292 184.778219 
L 225.664292 184.778219 
L 226.128164 187.965102 
L 226.511736 189.317781 
L 226.894124 189.825815 
L 226.894124 189.825815 
L 227.123362 189.850939 
L 227.352649 189.729945 
L 227.735233 189.123846 
L 228.042095 188.244048 
L 228.350139 186.874042 
L 228.972034 182.61587 
L 229.525502 176.927347 
L 230.255569 166.935712 
L 231.100047 151.723535 
L 231.991994 130.907414 
L 233.758226 88.284569 
L 234.492179 78.252941 
L 234.492179 78.252941 
L 235.241968 71.120032 
L 236.003016 66.048233 
L 236.77207 62.441971 
L 237.546817 59.877767 
L 237.546817 59.877767 
L 238.325611 58.05451 
L 239.107284 56.758097 
L 240.003093 55.728436 
L 240.900718 55.031116 
L 241.911994 54.511753 
L 243.149327 54.120233 
L 244.837951 53.833923 
L 245.063174 53.809235 
L 245.175775 53.91591 
L 245.175775 53.91591 
L 245.513074 55.18082 
L 245.960244 58.713401 
L 246.950699 68.284245 
L 246.950699 68.284245 
L 248.76067 84.601477 
L 249.692232 91.302299 
L 250.508313 95.692086 
L 251.014488 97.326456 
L 251.418199 98.046711 
L 251.821387 98.351757 
L 252.224413 98.364851 
L 252.627511 98.22198 
L 253.232687 97.64722 
L 253.737991 96.743217 
L 254.448116 94.659757 
L 254.958186 92.524098 
L 255.781296 87.98994 
L 256.826103 80.468211 
L 256.826103 80.468211 
L 258.763981 65.485147 
L 259.533923 62.041593 
L 260.309302 59.593081 
L 260.309302 59.593081 
L 261.088545 57.852086 
L 261.870537 56.614166 
L 262.766601 55.630961 
L 263.664398 54.965103 
L 264.788248 54.426322 
L 264.788248 54.426322 
L 266.138324 54.046362 
L 266.138324 54.046362 
L 267.939779 53.787397 
L 267.939779 53.787397 
L 270.755919 53.632906 
L 276.952952 53.572453 
L 276.952952 53.572453 
L 285.516559 53.56811 
L 285.516559 53.56811 
L 285.853507 56.745934 
L 286.295173 67.839727 
L 286.931424 89.86277 
L 290.343305 234.59576 
L 291.140017 257.63625 
L 291.140017 257.63625 
L 291.86886 274.58595 
L 292.341147 284.692789 
L 292.841684 292.386557 
L 292.841684 292.386557 
L 293.18309 294.702187 
L 293.473641 295.266394 
L 293.667044 295.324121 
L 293.860505 295.181946 
L 294.151366 294.427169 
L 294.542362 292.004815 
L 295.244443 284.41019 
L 296.314839 266.221693 
L 297.191842 247.555632 
L 297.191842 247.555632 
L 298.219674 222.970032 
L 298.219674 222.970032 
L 299.508597 193.113125 
L 300.688563 170.032359 
L 302.044387 147.533639 
L 303.681142 123.349171 
L 303.964231 121.665008 
L 304.05881 121.514033 
L 304.247685 122.670176 
L 304.528228 128.769099 
L 304.528228 128.769099 
L 305.157295 150.331035 
L 305.826523 174.219313 
L 307.180493 210.906149 
L 307.598694 219.349236 
L 308.136743 228.562402 
L 308.529448 233.136506 
L 309.675691 241.771532 
L 310.359495 244.617524 
L 310.668425 244.980948 
L 310.915361 245.032692 
L 311.224093 244.867837 
L 311.224093 244.867837 
L 311.471379 244.503704 
L 311.471379 244.503704 
L 311.843374 243.449158 
L 312.531443 240.179641 
L 313.167251 235.86045 
L 314.344789 226.047611 
L 315.366569 215.574998 
L 315.366569 215.574998 
L 316.290179 204.128033 
L 318.113208 177.820265 
L 320.397396 138.259499 
L 320.397396 138.259499 
L 321.903651 109.352064 
L 321.903651 109.352064 
L 322.198199 107.089352 
L 322.395297 106.371332 
L 322.592568 106.320836 
L 322.789391 108.3776 
L 323.557776 124.550884 
L 325.319453 165.054774 
L 326.979677 192.333631 
L 327.79893 201.133294 
L 328.164311 203.422937 
L 328.527454 204.560788 
L 328.81725 204.906444 
L 329.106896 204.863183 
L 329.396734 204.524553 
L 329.759925 203.43713 
L 329.759925 203.43713 
L 330.124991 201.660249 
L 330.567497 197.816617 
L 331.093051 191.616349 
L 331.789363 180.19976 
L 332.685753 160.21692 
L 333.113839 151.318933 
L 333.462533 148.007987 
L 333.725464 147.464754 
L 333.813162 147.442335 
L 333.988083 149.562575 
L 334.161691 152.32133 
L 335.244021 175.218363 
L 335.244021 175.218363 
L 335.876635 183.747466 
L 335.876635 183.747466 
L 336.264747 186.537286 
L 336.573346 187.522151 
L 336.881253 187.861471 
L 337.189096 187.692463 
L 337.497377 187.006221 
L 337.729352 185.781632 
L 337.729352 185.781632 
L 338.197545 181.381662 
L 338.675168 173.615983 
L 338.675168 173.615983 
L 339.250789 163.517802 
L 339.67042 160.114387 
L 339.67042 160.114387 
L 340.1784 157.785191 
L 340.860275 155.758529 
L 342.841052 150.64981 
L 343.538469 148.051594 
L 344.418887 144.138455 
L 345.490279 138.743897 
L 349.004757 120.51465 
L 350.150534 116.081123 
L 351.892761 110.185371 
L 352.874874 105.447443 
L 353.570861 101.096346 
L 353.570861 101.096346 
L 354.377323 95.040049 
L 354.377323 95.040049 
L 355.405861 85.601988 
L 357.325394 67.985057 
L 357.325394 67.985057 
L 358.09139 63.819134 
L 358.863963 60.856988 
L 359.641212 58.750777 
L 360.421785 57.253173 
L 360.421785 57.253173 
L 361.204723 56.188313 
L 362.101537 55.34256 
L 363.11221 54.712644 
L 363.11221 54.712644 
L 364.236592 54.271222 
L 365.699621 53.941285 
L 367.839298 53.715925 
L 371.444399 53.599117 
L 382.148769 53.568304 
L 398.487273 53.568 
L 398.487273 53.568 
" style="fill:none;stroke:#ff7f0e;stroke-linecap:square;stroke-width:1.5;"/>
   </g>
   <g id="line2d_14">
    <path clip-path="url(#pef731489fa)" d="M 73.832727 53.568 
L 100.228712 53.568 
L 100.341012 53.746132 
L 100.676791 56.665009 
L 101.227526 67.188221 
L 103.752314 122.390079 
L 103.752314 122.390079 
L 104.938327 142.967099 
L 106.726884 166.968235 
L 107.297621 172.091577 
L 107.860028 175.962622 
L 107.860028 175.962622 
L 108.258034 177.718425 
L 108.57521 178.373285 
L 108.891928 178.620269 
L 109.287769 178.468304 
L 109.684302 177.488034 
L 110.00279 176.091341 
L 110.565495 171.461923 
L 111.222967 162.409056 
L 111.731394 152.179004 
L 111.731394 152.179004 
L 112.168508 143.478451 
L 112.524338 140.259802 
L 112.792799 139.327909 
L 112.792799 139.327909 
L 112.972009 139.110427 
L 113.417378 143.764112 
L 114.029011 150.860773 
L 114.373869 152.905348 
L 114.717223 153.804037 
L 114.974324 154.016251 
L 115.317083 153.878242 
L 115.574335 153.587197 
L 115.574335 153.587197 
L 115.917886 152.802904 
L 115.917886 152.802904 
L 116.262479 151.593754 
L 116.262479 151.593754 
L 116.782509 148.730185 
L 117.220012 145.38342 
L 117.751775 140.101725 
L 118.384386 132.191238 
L 118.384386 132.191238 
L 119.318484 116.716642 
L 120.099348 100.794839 
L 120.811296 87.14827 
L 121.227993 81.882917 
L 121.54322 80.071635 
L 121.54322 80.071635 
L 121.753938 79.677237 
L 121.859348 79.58303 
L 121.964725 79.926889 
L 121.964725 79.926889 
L 122.174821 82.302225 
L 124.460099 119.61884 
L 125.211468 125.63711 
L 125.583497 126.977024 
L 125.954543 127.569649 
L 126.325182 127.773745 
L 126.695726 127.767521 
L 127.159018 127.610563 
L 127.808198 127.123828 
L 128.458621 126.284719 
L 128.458621 126.284719 
L 129.765269 123.944632 
L 131.838924 119.29107 
L 131.838924 119.29107 
L 134.907116 112.091128 
L 134.907116 112.091128 
L 135.974946 109.904961 
L 136.756324 107.561538 
L 137.543732 104.240969 
L 138.739965 97.895053 
L 139.856561 90.534728 
L 141.207464 79.663091 
L 142.924302 66.196234 
L 143.690692 62.547206 
L 144.462825 59.952593 
L 145.23904 58.107714 
L 145.23904 58.107714 
L 146.018159 56.795928 
L 146.91107 55.754056 
L 147.805813 55.048467 
L 148.813861 54.522945 
L 148.813861 54.522945 
L 150.047259 54.126782 
L 151.730531 53.837076 
L 154.200681 53.66013 
L 154.200681 53.66013 
L 159.030144 53.57934 
L 161.051928 53.572718 
L 161.276293 54.575776 
L 161.499651 57.746736 
L 162.047018 71.438297 
L 164.206352 138.630889 
L 164.206352 138.630889 
L 165.892314 177.461856 
L 165.892314 177.461856 
L 167.407056 204.006709 
L 167.407056 204.006709 
L 168.048209 212.558383 
L 168.876599 220.186936 
L 169.283903 221.812902 
L 169.621979 222.336155 
L 169.621979 222.336155 
L 169.892139 222.420203 
L 169.892139 222.420203 
L 170.229875 222.299665 
L 170.500264 222.032722 
L 170.838818 221.432405 
L 171.519222 219.475437 
L 171.519222 219.475437 
L 172.482194 215.892312 
L 173.740299 210.862662 
L 173.740299 210.862662 
L 174.523358 206.174472 
L 175.248912 200.607292 
L 176.216463 191.968852 
L 177.930845 174.021619 
L 177.930845 174.021619 
L 180.808257 140.835081 
L 182.463638 119.117499 
L 182.463638 119.117499 
L 184.234437 92.039055 
L 185.170612 78.517381 
L 185.917616 71.30806 
L 186.675964 66.181929 
L 187.442378 62.537034 
L 187.442378 62.537034 
L 188.214528 59.945361 
L 188.435939 59.437714 
L 188.546683 59.612699 
L 188.767447 62.527128 
L 188.767447 62.527128 
L 188.98647 66.139984 
L 189.521565 81.279223 
L 191.34991 146.159515 
L 192.425708 181.961572 
L 193.034096 198.235107 
L 194.086419 225.184306 
L 194.545426 234.59681 
L 195.170934 247.078016 
L 196.051712 263.055264 
L 196.717105 271.830741 
L 197.149824 273.978232 
L 197.418856 274.305584 
L 197.741538 274.179071 
L 198.010821 273.746062 
L 198.389508 272.261361 
L 198.662117 270.554438 
L 199.048359 267.237388 
L 199.670619 259.854037 
L 199.670619 259.854037 
L 200.37761 249.615928 
L 200.37761 249.615928 
L 201.248543 234.815108 
L 202.110992 218.412311 
L 204.034205 174.959618 
L 205.126002 144.3921 
L 206.732417 98.300327 
L 207.448291 85.374567 
L 208.184505 76.183807 
L 208.93518 69.648791 
L 209.696139 65.002119 
L 210.46441 61.69814 
L 211.23788 59.348871 
L 212.015047 57.678443 
L 212.015047 57.678443 
L 212.794841 56.490698 
L 213.68829 55.547345 
L 214.695373 54.844736 
L 214.695373 54.844736 
L 215.815923 54.352374 
L 217.274121 53.984362 
L 218.733259 53.789014 
L 218.733259 53.789014 
L 218.845475 54.157969 
L 219.180822 57.152943 
L 219.180822 57.152943 
L 219.513181 61.917502 
L 220.795874 87.166758 
L 222.555719 128.759702 
L 222.921269 136.509675 
L 223.541395 149.073555 
L 223.541395 149.073555 
L 224.555608 166.840398 
L 224.555608 166.840398 
L 225.600828 180.151512 
L 226.532313 187.722117 
L 226.914901 189.212145 
L 227.219968 189.722755 
L 227.5247 189.848506 
L 227.829455 189.710716 
L 228.210853 189.108774 
L 228.670294 187.454203 
L 229.210709 184.263383 
L 229.210709 184.263383 
L 229.917168 177.537248 
L 230.398468 171.429348 
L 231.22617 157.759002 
L 232.18646 136.985196 
L 232.18646 136.985196 
L 234.018428 91.26128 
L 234.745379 80.369508 
L 235.489468 72.625 
L 236.245744 67.118329 
L 236.245744 67.118329 
L 237.010685 63.202854 
L 237.781787 60.418787 
L 238.55727 58.439198 
L 239.335867 57.031626 
L 239.335867 57.031626 
L 240.116679 56.030784 
L 241.010936 55.235876 
L 242.01862 54.64383 
L 242.01862 54.64383 
L 243.251743 54.197517 
L 244.822572 53.886272 
L 245.496071 53.805603 
L 245.720537 53.999914 
L 245.944724 54.979705 
L 246.501646 59.420615 
L 246.501646 59.420615 
L 248.343787 77.203769 
L 250.420582 93.03232 
L 251.130235 96.320556 
L 251.130235 96.320556 
L 251.634153 97.692088 
L 252.036319 98.208933 
L 252.438128 98.372289 
L 252.94035 98.292409 
L 253.442859 97.913567 
L 253.84536 97.391245 
L 254.349482 96.371968 
L 254.349482 96.371968 
L 255.058233 94.08243 
L 255.874865 90.06701 
L 256.701237 84.881737 
L 257.646063 77.377729 
L 257.646063 77.377729 
L 258.718487 68.476362 
L 259.48129 64.168473 
L 260.250871 61.105382 
L 260.250871 61.105382 
L 261.025273 58.927396 
L 261.803102 57.378756 
L 262.583368 56.277608 
L 263.477192 55.403033 
L 264.484554 54.751651 
L 265.605302 54.295186 
L 265.605302 54.295186 
L 267.063647 53.954006 
L 269.08424 53.728603 
L 272.453268 53.605241 
L 281.775906 53.568653 
L 281.775906 53.568653 
L 285.931867 53.568108 
L 286.267751 56.745933 
L 286.267751 56.745933 
L 286.708591 67.180038 
L 286.708591 67.180038 
L 287.34343 89.67673 
L 290.806581 237.752327 
L 291.417067 255.692765 
L 292.362424 277.79934 
L 292.362424 277.79934 
L 292.775844 286.117946 
L 292.775844 286.117946 
L 293.466172 294.451156 
L 293.756036 295.194622 
L 293.756036 295.194622 
L 293.997051 295.351422 
L 294.238076 295.196249 
L 294.528 294.437847 
L 294.528 294.437847 
L 294.966763 291.767536 
L 295.565937 285.218112 
L 296.351592 273.192439 
L 296.351592 273.192439 
L 297.019694 260.563409 
L 297.019694 260.563409 
L 297.919201 240.532439 
L 299.474148 203.613257 
L 301.172665 169.023381 
L 301.172665 169.023381 
L 302.792322 142.642134 
L 304.163098 122.953332 
L 304.445549 121.600797 
L 304.539846 121.452875 
L 304.634077 122.103331 
L 305.006811 130.498948 
L 305.368501 142.187672 
L 306.838018 192.409441 
L 307.425007 207.564271 
L 307.846744 216.583414 
L 308.38814 226.576794 
L 308.782266 231.734275 
L 309.678549 239.065613 
L 310.179964 242.298608 
L 310.675732 244.362187 
L 310.983897 244.892234 
L 310.983897 244.892234 
L 311.291634 245.049224 
L 311.599367 244.916009 
L 311.907476 244.438975 
L 312.278386 243.400835 
L 312.90175 240.429084 
L 313.726872 234.823937 
L 313.726872 234.823937 
L 315.040134 223.576062 
L 315.040134 223.576062 
L 316.140248 211.48058 
L 316.140248 211.48058 
L 317.827474 188.530842 
L 319.010232 170.427036 
L 320.982067 135.576161 
L 322.298856 109.890951 
L 322.690228 106.853394 
L 322.985091 106.127136 
L 323.279338 108.737705 
L 323.856589 120.737525 
L 325.464125 158.373777 
L 326.762283 182.628669 
L 327.975878 198.481645 
L 328.416045 202.088109 
L 328.779285 203.978862 
L 328.779285 203.978862 
L 329.140815 204.758272 
L 329.429578 204.904538 
L 329.718372 204.737299 
L 330.007535 204.189861 
L 330.443026 202.430478 
L 330.956018 198.757027 
L 331.629397 190.625987 
L 332.168811 181.890328 
L 332.890572 166.680935 
L 333.652848 150.175716 
L 333.652848 150.175716 
L 334.001226 147.51699 
L 334.001226 147.51699 
L 334.176131 147.260805 
L 334.263604 147.248084 
L 334.438058 149.43519 
L 334.782704 155.364357 
L 335.610957 173.236713 
L 336.087804 180.902939 
L 336.786492 186.800284 
L 337.093919 187.639876 
L 337.324094 187.848112 
L 337.630978 187.681469 
L 337.938295 186.997174 
L 338.246781 185.314958 
L 338.557731 182.354916 
L 338.951944 176.885503 
L 339.851916 162.112831 
L 340.271608 159.328143 
L 340.863788 157.024977 
L 341.630244 155.018285 
L 342.917564 151.788138 
L 343.783951 148.868656 
L 344.92369 143.950634 
L 344.92369 143.950634 
L 347.079031 132.682478 
L 347.079031 132.682478 
L 348.83819 123.441117 
L 350.06708 118.022677 
L 350.06708 118.022677 
L 350.927789 115.062267 
L 352.3772 110.148569 
L 352.3772 110.148569 
L 353.356288 105.424833 
L 354.050111 101.08027 
L 354.854055 95.029162 
L 355.983295 84.676198 
L 355.983295 84.676198 
L 357.68419 68.737822 
L 357.68419 68.737822 
L 358.446582 64.354382 
L 359.215871 61.237571 
L 359.990065 59.021388 
L 360.767747 57.445588 
L 360.767747 57.445588 
L 361.547908 56.325128 
L 362.441648 55.435216 
L 363.448949 54.772409 
L 363.448949 54.772409 
L 364.569653 54.307939 
L 366.027966 53.960776 
L 368.048537 53.731419 
L 371.417553 53.605894 
L 380.627865 53.568698 
L 398.487273 53.568 
L 398.487273 53.568 
" style="fill:none;stroke:#2ca02c;stroke-linecap:square;stroke-width:1.5;"/>
   </g>
   <g id="patch_3">
    <path d="M 57.6 307.584 
L 57.6 41.472 
" style="fill:none;stroke:#000000;stroke-linecap:square;stroke-linejoin:miter;stroke-width:0.8;"/>
   </g>
   <g id="patch_4">
    <path d="M 414.72 307.584 
L 414.72 41.472 
" style="fill:none;stroke:#000000;stroke-linecap:square;stroke-linejoin:miter;stroke-width:0.8;"/>
   </g>
   <g id="patch_5">
    <path d="M 57.6 307.584 
L 414.72 307.584 
" style="fill:none;stroke:#000000;stroke-linecap:square;stroke-linejoin:miter;stroke-width:0.8;"/>
   </g>
   <g id="patch_6">
    <path d="M 57.6 41.472 
L 414.72 41.472 
" style="fill:none;stroke:#000000;stroke-linecap:square;stroke-linejoin:miter;stroke-width:0.8;"/>
   </g>
   <g id="text_12">
    <!-- esp speed -->
    <g transform="translate(205.499063 35.472)scale(0.12 -0.12)">
     <defs>
      <path d="M 56.203125 29.59375 
L 56.203125 25.203125 
L 14.890625 25.203125 
Q 15.484375 15.921875 20.484375 11.0625 
Q 25.484375 6.203125 34.421875 6.203125 
Q 39.59375 6.203125 44.453125 7.46875 
Q 49.3125 8.734375 54.109375 11.28125 
L 54.109375 2.78125 
Q 49.265625 0.734375 44.1875 -0.34375 
Q 39.109375 -1.421875 33.890625 -1.421875 
Q 20.796875 -1.421875 13.15625 6.1875 
Q 5.515625 13.8125 5.515625 26.8125 
Q 5.515625 40.234375 12.765625 48.109375 
Q 20.015625 56 32.328125 56 
Q 43.359375 56 49.78125 48.890625 
Q 56.203125 41.796875 56.203125 29.59375 
z
M 47.21875 32.234375 
Q 47.125 39.59375 43.09375 43.984375 
Q 39.0625 48.390625 32.421875 48.390625 
Q 24.90625 48.390625 20.390625 44.140625 
Q 15.875 39.890625 15.1875 32.171875 
z
" id="DejaVuSans-101"/>
      <path d="M 44.28125 53.078125 
L 44.28125 44.578125 
Q 40.484375 46.53125 36.375 47.5 
Q 32.28125 48.484375 27.875 48.484375 
Q 21.1875 48.484375 17.84375 46.4375 
Q 14.5 44.390625 14.5 40.28125 
Q 14.5 37.15625 16.890625 35.375 
Q 19.28125 33.59375 26.515625 31.984375 
L 29.59375 31.296875 
Q 39.15625 29.25 43.1875 25.515625 
Q 47.21875 21.78125 47.21875 15.09375 
Q 47.21875 7.46875 41.1875 3.015625 
Q 35.15625 -1.421875 24.609375 -1.421875 
Q 20.21875 -1.421875 15.453125 -0.5625 
Q 10.6875 0.296875 5.421875 2 
L 5.421875 11.28125 
Q 10.40625 8.6875 15.234375 7.390625 
Q 20.0625 6.109375 24.8125 6.109375 
Q 31.15625 6.109375 34.5625 8.28125 
Q 37.984375 10.453125 37.984375 14.40625 
Q 37.984375 18.0625 35.515625 20.015625 
Q 33.0625 21.96875 24.703125 23.78125 
L 21.578125 24.515625 
Q 13.234375 26.265625 9.515625 29.90625 
Q 5.8125 33.546875 5.8125 39.890625 
Q 5.8125 47.609375 11.28125 51.796875 
Q 16.75 56 26.8125 56 
Q 31.78125 56 36.171875 55.265625 
Q 40.578125 54.546875 44.28125 53.078125 
z
" id="DejaVuSans-115"/>
      <path d="M 18.109375 8.203125 
L 18.109375 -20.796875 
L 9.078125 -20.796875 
L 9.078125 54.6875 
L 18.109375 54.6875 
L 18.109375 46.390625 
Q 20.953125 51.265625 25.265625 53.625 
Q 29.59375 56 35.59375 56 
Q 45.5625 56 51.78125 48.09375 
Q 58.015625 40.1875 58.015625 27.296875 
Q 58.015625 14.40625 51.78125 6.484375 
Q 45.5625 -1.421875 35.59375 -1.421875 
Q 29.59375 -1.421875 25.265625 0.953125 
Q 20.953125 3.328125 18.109375 8.203125 
z
M 48.6875 27.296875 
Q 48.6875 37.203125 44.609375 42.84375 
Q 40.53125 48.484375 33.40625 48.484375 
Q 26.265625 48.484375 22.1875 42.84375 
Q 18.109375 37.203125 18.109375 27.296875 
Q 18.109375 17.390625 22.1875 11.75 
Q 26.265625 6.109375 33.40625 6.109375 
Q 40.53125 6.109375 44.609375 11.75 
Q 48.6875 17.390625 48.6875 27.296875 
z
" id="DejaVuSans-112"/>
      <path id="DejaVuSans-32"/>
      <path d="M 45.40625 46.390625 
L 45.40625 75.984375 
L 54.390625 75.984375 
L 54.390625 0 
L 45.40625 0 
L 45.40625 8.203125 
Q 42.578125 3.328125 38.25 0.953125 
Q 33.9375 -1.421875 27.875 -1.421875 
Q 17.96875 -1.421875 11.734375 6.484375 
Q 5.515625 14.40625 5.515625 27.296875 
Q 5.515625 40.1875 11.734375 48.09375 
Q 17.96875 56 27.875 56 
Q 33.9375 56 38.25 53.625 
Q 42.578125 51.265625 45.40625 46.390625 
z
M 14.796875 27.296875 
Q 14.796875 17.390625 18.875 11.75 
Q 22.953125 6.109375 30.078125 6.109375 
Q 37.203125 6.109375 41.296875 11.75 
Q 45.40625 17.390625 45.40625 27.296875 
Q 45.40625 37.203125 41.296875 42.84375 
Q 37.203125 48.484375 30.078125 48.484375 
Q 22.953125 48.484375 18.875 42.84375 
Q 14.796875 37.203125 14.796875 27.296875 
z
" id="DejaVuSans-100"/>
     </defs>
     <use xlink:href="#DejaVuSans-101"/>
     <use x="61.523438" xlink:href="#DejaVuSans-115"/>
     <use x="113.623047" xlink:href="#DejaVuSans-112"/>
     <use x="177.099609" xlink:href="#DejaVuSans-32"/>
     <use x="208.886719" xlink:href="#DejaVuSans-115"/>
     <use x="260.986328" xlink:href="#DejaVuSans-112"/>
     <use x="324.462891" xlink:href="#DejaVuSans-101"/>
     <use x="385.986328" xlink:href="#DejaVuSans-101"/>
     <use x="447.509766" xlink:href="#DejaVuSans-100"/>
    </g>
   </g>
   <g id="legend_1">
    <g id="patch_7">
     <path d="M 64.6 302.584 
L 156.557813 302.584 
Q 158.557813 302.584 158.557813 300.584 
L 158.557813 257.549625 
Q 158.557813 255.549625 156.557813 255.549625 
L 64.6 255.549625 
Q 62.6 255.549625 62.6 257.549625 
L 62.6 300.584 
Q 62.6 302.584 64.6 302.584 
z
" style="fill:#ffffff;opacity:0.8;stroke:#cccccc;stroke-linejoin:miter;"/>
    </g>
    <g id="line2d_15">
     <path d="M 66.6 263.648062 
L 86.6 263.648062 
" style="fill:none;stroke:#1f77b4;stroke-linecap:square;stroke-width:1.5;"/>
    </g>
    <g id="line2d_16"/>
    <g id="text_13">
     <!-- Waypoints -->
     <g transform="translate(94.6 267.148062)scale(0.1 -0.1)">
      <defs>
       <path d="M 3.328125 72.90625 
L 13.28125 72.90625 
L 28.609375 11.28125 
L 43.890625 72.90625 
L 54.984375 72.90625 
L 70.3125 11.28125 
L 85.59375 72.90625 
L 95.609375 72.90625 
L 77.296875 0 
L 64.890625 0 
L 49.515625 63.28125 
L 33.984375 0 
L 21.578125 0 
z
" id="DejaVuSans-87"/>
       <path d="M 34.28125 27.484375 
Q 23.390625 27.484375 19.1875 25 
Q 14.984375 22.515625 14.984375 16.5 
Q 14.984375 11.71875 18.140625 8.90625 
Q 21.296875 6.109375 26.703125 6.109375 
Q 34.1875 6.109375 38.703125 11.40625 
Q 43.21875 16.703125 43.21875 25.484375 
L 43.21875 27.484375 
z
M 52.203125 31.203125 
L 52.203125 0 
L 43.21875 0 
L 43.21875 8.296875 
Q 40.140625 3.328125 35.546875 0.953125 
Q 30.953125 -1.421875 24.3125 -1.421875 
Q 15.921875 -1.421875 10.953125 3.296875 
Q 6 8.015625 6 15.921875 
Q 6 25.140625 12.171875 29.828125 
Q 18.359375 34.515625 30.609375 34.515625 
L 43.21875 34.515625 
L 43.21875 35.40625 
Q 43.21875 41.609375 39.140625 45 
Q 35.0625 48.390625 27.6875 48.390625 
Q 23 48.390625 18.546875 47.265625 
Q 14.109375 46.140625 10.015625 43.890625 
L 10.015625 52.203125 
Q 14.9375 54.109375 19.578125 55.046875 
Q 24.21875 56 28.609375 56 
Q 40.484375 56 46.34375 49.84375 
Q 52.203125 43.703125 52.203125 31.203125 
z
" id="DejaVuSans-97"/>
       <path d="M 32.171875 -5.078125 
Q 28.375 -14.84375 24.75 -17.8125 
Q 21.140625 -20.796875 15.09375 -20.796875 
L 7.90625 -20.796875 
L 7.90625 -13.28125 
L 13.1875 -13.28125 
Q 16.890625 -13.28125 18.9375 -11.515625 
Q 21 -9.765625 23.484375 -3.21875 
L 25.09375 0.875 
L 2.984375 54.6875 
L 12.5 54.6875 
L 29.59375 11.921875 
L 46.6875 54.6875 
L 56.203125 54.6875 
z
" id="DejaVuSans-121"/>
       <path d="M 30.609375 48.390625 
Q 23.390625 48.390625 19.1875 42.75 
Q 14.984375 37.109375 14.984375 27.296875 
Q 14.984375 17.484375 19.15625 11.84375 
Q 23.34375 6.203125 30.609375 6.203125 
Q 37.796875 6.203125 41.984375 11.859375 
Q 46.1875 17.53125 46.1875 27.296875 
Q 46.1875 37.015625 41.984375 42.703125 
Q 37.796875 48.390625 30.609375 48.390625 
z
M 30.609375 56 
Q 42.328125 56 49.015625 48.375 
Q 55.71875 40.765625 55.71875 27.296875 
Q 55.71875 13.875 49.015625 6.21875 
Q 42.328125 -1.421875 30.609375 -1.421875 
Q 18.84375 -1.421875 12.171875 6.21875 
Q 5.515625 13.875 5.515625 27.296875 
Q 5.515625 40.765625 12.171875 48.375 
Q 18.84375 56 30.609375 56 
z
" id="DejaVuSans-111"/>
       <path d="M 9.421875 54.6875 
L 18.40625 54.6875 
L 18.40625 0 
L 9.421875 0 
z
M 9.421875 75.984375 
L 18.40625 75.984375 
L 18.40625 64.59375 
L 9.421875 64.59375 
z
" id="DejaVuSans-105"/>
       <path d="M 54.890625 33.015625 
L 54.890625 0 
L 45.90625 0 
L 45.90625 32.71875 
Q 45.90625 40.484375 42.875 44.328125 
Q 39.84375 48.1875 33.796875 48.1875 
Q 26.515625 48.1875 22.3125 43.546875 
Q 18.109375 38.921875 18.109375 30.90625 
L 18.109375 0 
L 9.078125 0 
L 9.078125 54.6875 
L 18.109375 54.6875 
L 18.109375 46.1875 
Q 21.34375 51.125 25.703125 53.5625 
Q 30.078125 56 35.796875 56 
Q 45.21875 56 50.046875 50.171875 
Q 54.890625 44.34375 54.890625 33.015625 
z
" id="DejaVuSans-110"/>
       <path d="M 18.3125 70.21875 
L 18.3125 54.6875 
L 36.8125 54.6875 
L 36.8125 47.703125 
L 18.3125 47.703125 
L 18.3125 18.015625 
Q 18.3125 11.328125 20.140625 9.421875 
Q 21.96875 7.515625 27.59375 7.515625 
L 36.8125 7.515625 
L 36.8125 0 
L 27.59375 0 
Q 17.1875 0 13.234375 3.875 
Q 9.28125 7.765625 9.28125 18.015625 
L 9.28125 47.703125 
L 2.6875 47.703125 
L 2.6875 54.6875 
L 9.28125 54.6875 
L 9.28125 70.21875 
z
" id="DejaVuSans-116"/>
      </defs>
      <use xlink:href="#DejaVuSans-87"/>
      <use x="92.501953" xlink:href="#DejaVuSans-97"/>
      <use x="153.78125" xlink:href="#DejaVuSans-121"/>
      <use x="212.960938" xlink:href="#DejaVuSans-112"/>
      <use x="276.4375" xlink:href="#DejaVuSans-111"/>
      <use x="337.619141" xlink:href="#DejaVuSans-105"/>
      <use x="365.402344" xlink:href="#DejaVuSans-110"/>
      <use x="428.78125" xlink:href="#DejaVuSans-116"/>
      <use x="467.990234" xlink:href="#DejaVuSans-115"/>
     </g>
    </g>
    <g id="line2d_17">
     <path d="M 66.6 278.326188 
L 86.6 278.326188 
" style="fill:none;stroke:#ff7f0e;stroke-linecap:square;stroke-width:1.5;"/>
    </g>
    <g id="line2d_18"/>
    <g id="text_14">
     <!-- Stanley -->
     <g transform="translate(94.6 281.826188)scale(0.1 -0.1)">
      <defs>
       <path d="M 53.515625 70.515625 
L 53.515625 60.890625 
Q 47.90625 63.578125 42.921875 64.890625 
Q 37.9375 66.21875 33.296875 66.21875 
Q 25.25 66.21875 20.875 63.09375 
Q 16.5 59.96875 16.5 54.203125 
Q 16.5 49.359375 19.40625 46.890625 
Q 22.3125 44.4375 30.421875 42.921875 
L 36.375 41.703125 
Q 47.40625 39.59375 52.65625 34.296875 
Q 57.90625 29 57.90625 20.125 
Q 57.90625 9.515625 50.796875 4.046875 
Q 43.703125 -1.421875 29.984375 -1.421875 
Q 24.8125 -1.421875 18.96875 -0.25 
Q 13.140625 0.921875 6.890625 3.21875 
L 6.890625 13.375 
Q 12.890625 10.015625 18.65625 8.296875 
Q 24.421875 6.59375 29.984375 6.59375 
Q 38.421875 6.59375 43.015625 9.90625 
Q 47.609375 13.234375 47.609375 19.390625 
Q 47.609375 24.75 44.3125 27.78125 
Q 41.015625 30.8125 33.5 32.328125 
L 27.484375 33.5 
Q 16.453125 35.6875 11.515625 40.375 
Q 6.59375 45.0625 6.59375 53.421875 
Q 6.59375 63.09375 13.40625 68.65625 
Q 20.21875 74.21875 32.171875 74.21875 
Q 37.3125 74.21875 42.625 73.28125 
Q 47.953125 72.359375 53.515625 70.515625 
z
" id="DejaVuSans-83"/>
       <path d="M 9.421875 75.984375 
L 18.40625 75.984375 
L 18.40625 0 
L 9.421875 0 
z
" id="DejaVuSans-108"/>
      </defs>
      <use xlink:href="#DejaVuSans-83"/>
      <use x="63.476562" xlink:href="#DejaVuSans-116"/>
      <use x="102.685547" xlink:href="#DejaVuSans-97"/>
      <use x="163.964844" xlink:href="#DejaVuSans-110"/>
      <use x="227.34375" xlink:href="#DejaVuSans-108"/>
      <use x="255.126953" xlink:href="#DejaVuSans-101"/>
      <use x="316.650391" xlink:href="#DejaVuSans-121"/>
     </g>
    </g>
    <g id="line2d_19">
     <path d="M 66.6 293.004312 
L 86.6 293.004312 
" style="fill:none;stroke:#2ca02c;stroke-linecap:square;stroke-width:1.5;"/>
    </g>
    <g id="line2d_20"/>
    <g id="text_15">
     <!-- Pure Pursuit -->
     <g transform="translate(94.6 296.504312)scale(0.1 -0.1)">
      <defs>
       <path d="M 19.671875 64.796875 
L 19.671875 37.40625 
L 32.078125 37.40625 
Q 38.96875 37.40625 42.71875 40.96875 
Q 46.484375 44.53125 46.484375 51.125 
Q 46.484375 57.671875 42.71875 61.234375 
Q 38.96875 64.796875 32.078125 64.796875 
z
M 9.8125 72.90625 
L 32.078125 72.90625 
Q 44.34375 72.90625 50.609375 67.359375 
Q 56.890625 61.8125 56.890625 51.125 
Q 56.890625 40.328125 50.609375 34.8125 
Q 44.34375 29.296875 32.078125 29.296875 
L 19.671875 29.296875 
L 19.671875 0 
L 9.8125 0 
z
" id="DejaVuSans-80"/>
       <path d="M 8.5 21.578125 
L 8.5 54.6875 
L 17.484375 54.6875 
L 17.484375 21.921875 
Q 17.484375 14.15625 20.5 10.265625 
Q 23.53125 6.390625 29.59375 6.390625 
Q 36.859375 6.390625 41.078125 11.03125 
Q 45.3125 15.671875 45.3125 23.6875 
L 45.3125 54.6875 
L 54.296875 54.6875 
L 54.296875 0 
L 45.3125 0 
L 45.3125 8.40625 
Q 42.046875 3.421875 37.71875 1 
Q 33.40625 -1.421875 27.6875 -1.421875 
Q 18.265625 -1.421875 13.375 4.4375 
Q 8.5 10.296875 8.5 21.578125 
z
M 31.109375 56 
z
" id="DejaVuSans-117"/>
       <path d="M 41.109375 46.296875 
Q 39.59375 47.171875 37.8125 47.578125 
Q 36.03125 48 33.890625 48 
Q 26.265625 48 22.1875 43.046875 
Q 18.109375 38.09375 18.109375 28.8125 
L 18.109375 0 
L 9.078125 0 
L 9.078125 54.6875 
L 18.109375 54.6875 
L 18.109375 46.1875 
Q 20.953125 51.171875 25.484375 53.578125 
Q 30.03125 56 36.53125 56 
Q 37.453125 56 38.578125 55.875 
Q 39.703125 55.765625 41.0625 55.515625 
z
" id="DejaVuSans-114"/>
      </defs>
      <use xlink:href="#DejaVuSans-80"/>
      <use x="58.552734" xlink:href="#DejaVuSans-117"/>
      <use x="121.931641" xlink:href="#DejaVuSans-114"/>
      <use x="160.794922" xlink:href="#DejaVuSans-101"/>
      <use x="222.318359" xlink:href="#DejaVuSans-32"/>
      <use x="254.105469" xlink:href="#DejaVuSans-80"/>
      <use x="312.658203" xlink:href="#DejaVuSans-117"/>
      <use x="376.037109" xlink:href="#DejaVuSans-114"/>
      <use x="417.150391" xlink:href="#DejaVuSans-115"/>
      <use x="469.25" xlink:href="#DejaVuSans-117"/>
      <use x="532.628906" xlink:href="#DejaVuSans-105"/>
      <use x="560.412109" xlink:href="#DejaVuSans-116"/>
     </g>
    </g>
   </g>
  </g>
 </g>
 <defs>
  <clipPath id="pef731489fa">
   <rect height="266.112" width="357.12" x="57.6" y="41.472"/>
  </clipPath>
 </defs>
</svg>
