<?xml version="1.0" encoding="utf-8" standalone="no"?>
<!DOCTYPE svg PUBLIC "-//W3C//DTD SVG 1.1//EN"
  "http://www.w3.org/Graphics/SVG/1.1/DTD/svg11.dtd">
<!-- Created with matplotlib (https://matplotlib.org/) -->
<svg height="345.6pt" version="1.1" viewBox="0 0 460.8 345.6" width="460.8pt" xmlns="http://www.w3.org/2000/svg" xmlns:xlink="http://www.w3.org/1999/xlink">
 <metadata>
  <rdf:RDF xmlns:cc="http://creativecommons.org/ns#" xmlns:dc="http://purl.org/dc/elements/1.1/" xmlns:rdf="http://www.w3.org/1999/02/22-rdf-syntax-ns#">
   <cc:Work>
    <dc:type rdf:resource="http://purl.org/dc/dcmitype/StillImage"/>
    <dc:date>2024-10-15T01:06:39.209333</dc:date>
    <dc:format>image/svg+xml</dc:format>
    <dc:creator>
     <cc:Agent>
      <dc:title>Matplotlib v3.3.1, https://matplotlib.org/</dc:title>
     </cc:Agent>
    </dc:creator>
   </cc:Work>
  </rdf:RDF>
 </metadata>
 <defs>
  <style type="text/css">*{stroke-linecap:butt;stroke-linejoin:round;}</style>
 </defs>
 <g id="figure_1">
  <g id="patch_1">
   <path d="M 0 345.6 
L 460.8 345.6 
L 460.8 0 
L 0 0 
z
" style="fill:#ffffff;"/>
  </g>
  <g id="axes_1">
   <g id="patch_2">
    <path d="M 57.6 307.584 
L 414.72 307.584 
L 414.72 41.472 
L 57.6 41.472 
z
" style="fill:#ffffff;"/>
   </g>
   <g id="matplotlib.axis_1">
    <g id="xtick_1">
     <g id="line2d_1">
      <defs>
       <path d="M 0 0 
L 0 3.5 
" id="m36f3e029fc" style="stroke:#000000;stroke-width:0.8;"/>
      </defs>
      <g>
       <use style="stroke:#000000;stroke-width:0.8;" x="73.832727" xlink:href="#m36f3e029fc" y="307.584"/>
      </g>
     </g>
     <g id="text_1">
      <!-- 0.0 -->
      <g transform="translate(65.881165 322.182437)scale(0.1 -0.1)">
       <defs>
        <path d="M 31.78125 66.40625 
Q 24.171875 66.40625 20.328125 58.90625 
Q 16.5 51.421875 16.5 36.375 
Q 16.5 21.390625 20.328125 13.890625 
Q 24.171875 6.390625 31.78125 6.390625 
Q 39.453125 6.390625 43.28125 13.890625 
Q 47.125 21.390625 47.125 36.375 
Q 47.125 51.421875 43.28125 58.90625 
Q 39.453125 66.40625 31.78125 66.40625 
z
M 31.78125 74.21875 
Q 44.046875 74.21875 50.515625 64.515625 
Q 56.984375 54.828125 56.984375 36.375 
Q 56.984375 17.96875 50.515625 8.265625 
Q 44.046875 -1.421875 31.78125 -1.421875 
Q 19.53125 -1.421875 13.0625 8.265625 
Q 6.59375 17.96875 6.59375 36.375 
Q 6.59375 54.828125 13.0625 64.515625 
Q 19.53125 74.21875 31.78125 74.21875 
z
" id="DejaVuSans-48"/>
        <path d="M 10.6875 12.40625 
L 21 12.40625 
L 21 0 
L 10.6875 0 
z
" id="DejaVuSans-46"/>
       </defs>
       <use xlink:href="#DejaVuSans-48"/>
       <use x="63.623047" xlink:href="#DejaVuSans-46"/>
       <use x="95.410156" xlink:href="#DejaVuSans-48"/>
      </g>
     </g>
    </g>
    <g id="xtick_2">
     <g id="line2d_2">
      <g>
       <use style="stroke:#000000;stroke-width:0.8;" x="138.763636" xlink:href="#m36f3e029fc" y="307.584"/>
      </g>
     </g>
     <g id="text_2">
      <!-- 0.2 -->
      <g transform="translate(130.812074 322.182437)scale(0.1 -0.1)">
       <defs>
        <path d="M 19.1875 8.296875 
L 53.609375 8.296875 
L 53.609375 0 
L 7.328125 0 
L 7.328125 8.296875 
Q 12.9375 14.109375 22.625 23.890625 
Q 32.328125 33.6875 34.8125 36.53125 
Q 39.546875 41.84375 41.421875 45.53125 
Q 43.3125 49.21875 43.3125 52.78125 
Q 43.3125 58.59375 39.234375 62.25 
Q 35.15625 65.921875 28.609375 65.921875 
Q 23.96875 65.921875 18.8125 64.3125 
Q 13.671875 62.703125 7.8125 59.421875 
L 7.8125 69.390625 
Q 13.765625 71.78125 18.9375 73 
Q 24.125 74.21875 28.421875 74.21875 
Q 39.75 74.21875 46.484375 68.546875 
Q 53.21875 62.890625 53.21875 53.421875 
Q 53.21875 48.921875 51.53125 44.890625 
Q 49.859375 40.875 45.40625 35.40625 
Q 44.1875 33.984375 37.640625 27.21875 
Q 31.109375 20.453125 19.1875 8.296875 
z
" id="DejaVuSans-50"/>
       </defs>
       <use xlink:href="#DejaVuSans-48"/>
       <use x="63.623047" xlink:href="#DejaVuSans-46"/>
       <use x="95.410156" xlink:href="#DejaVuSans-50"/>
      </g>
     </g>
    </g>
    <g id="xtick_3">
     <g id="line2d_3">
      <g>
       <use style="stroke:#000000;stroke-width:0.8;" x="203.694545" xlink:href="#m36f3e029fc" y="307.584"/>
      </g>
     </g>
     <g id="text_3">
      <!-- 0.4 -->
      <g transform="translate(195.742983 322.182437)scale(0.1 -0.1)">
       <defs>
        <path d="M 37.796875 64.3125 
L 12.890625 25.390625 
L 37.796875 25.390625 
z
M 35.203125 72.90625 
L 47.609375 72.90625 
L 47.609375 25.390625 
L 58.015625 25.390625 
L 58.015625 17.1875 
L 47.609375 17.1875 
L 47.609375 0 
L 37.796875 0 
L 37.796875 17.1875 
L 4.890625 17.1875 
L 4.890625 26.703125 
z
" id="DejaVuSans-52"/>
       </defs>
       <use xlink:href="#DejaVuSans-48"/>
       <use x="63.623047" xlink:href="#DejaVuSans-46"/>
       <use x="95.410156" xlink:href="#DejaVuSans-52"/>
      </g>
     </g>
    </g>
    <g id="xtick_4">
     <g id="line2d_4">
      <g>
       <use style="stroke:#000000;stroke-width:0.8;" x="268.625455" xlink:href="#m36f3e029fc" y="307.584"/>
      </g>
     </g>
     <g id="text_4">
      <!-- 0.6 -->
      <g transform="translate(260.673892 322.182437)scale(0.1 -0.1)">
       <defs>
        <path d="M 33.015625 40.375 
Q 26.375 40.375 22.484375 35.828125 
Q 18.609375 31.296875 18.609375 23.390625 
Q 18.609375 15.53125 22.484375 10.953125 
Q 26.375 6.390625 33.015625 6.390625 
Q 39.65625 6.390625 43.53125 10.953125 
Q 47.40625 15.53125 47.40625 23.390625 
Q 47.40625 31.296875 43.53125 35.828125 
Q 39.65625 40.375 33.015625 40.375 
z
M 52.59375 71.296875 
L 52.59375 62.3125 
Q 48.875 64.0625 45.09375 64.984375 
Q 41.3125 65.921875 37.59375 65.921875 
Q 27.828125 65.921875 22.671875 59.328125 
Q 17.53125 52.734375 16.796875 39.40625 
Q 19.671875 43.65625 24.015625 45.921875 
Q 28.375 48.1875 33.59375 48.1875 
Q 44.578125 48.1875 50.953125 41.515625 
Q 57.328125 34.859375 57.328125 23.390625 
Q 57.328125 12.15625 50.6875 5.359375 
Q 44.046875 -1.421875 33.015625 -1.421875 
Q 20.359375 -1.421875 13.671875 8.265625 
Q 6.984375 17.96875 6.984375 36.375 
Q 6.984375 53.65625 15.1875 63.9375 
Q 23.390625 74.21875 37.203125 74.21875 
Q 40.921875 74.21875 44.703125 73.484375 
Q 48.484375 72.75 52.59375 71.296875 
z
" id="DejaVuSans-54"/>
       </defs>
       <use xlink:href="#DejaVuSans-48"/>
       <use x="63.623047" xlink:href="#DejaVuSans-46"/>
       <use x="95.410156" xlink:href="#DejaVuSans-54"/>
      </g>
     </g>
    </g>
    <g id="xtick_5">
     <g id="line2d_5">
      <g>
       <use style="stroke:#000000;stroke-width:0.8;" x="333.556364" xlink:href="#m36f3e029fc" y="307.584"/>
      </g>
     </g>
     <g id="text_5">
      <!-- 0.8 -->
      <g transform="translate(325.604801 322.182437)scale(0.1 -0.1)">
       <defs>
        <path d="M 31.78125 34.625 
Q 24.75 34.625 20.71875 30.859375 
Q 16.703125 27.09375 16.703125 20.515625 
Q 16.703125 13.921875 20.71875 10.15625 
Q 24.75 6.390625 31.78125 6.390625 
Q 38.8125 6.390625 42.859375 10.171875 
Q 46.921875 13.96875 46.921875 20.515625 
Q 46.921875 27.09375 42.890625 30.859375 
Q 38.875 34.625 31.78125 34.625 
z
M 21.921875 38.8125 
Q 15.578125 40.375 12.03125 44.71875 
Q 8.5 49.078125 8.5 55.328125 
Q 8.5 64.0625 14.71875 69.140625 
Q 20.953125 74.21875 31.78125 74.21875 
Q 42.671875 74.21875 48.875 69.140625 
Q 55.078125 64.0625 55.078125 55.328125 
Q 55.078125 49.078125 51.53125 44.71875 
Q 48 40.375 41.703125 38.8125 
Q 48.828125 37.15625 52.796875 32.3125 
Q 56.78125 27.484375 56.78125 20.515625 
Q 56.78125 9.90625 50.3125 4.234375 
Q 43.84375 -1.421875 31.78125 -1.421875 
Q 19.734375 -1.421875 13.25 4.234375 
Q 6.78125 9.90625 6.78125 20.515625 
Q 6.78125 27.484375 10.78125 32.3125 
Q 14.796875 37.15625 21.921875 38.8125 
z
M 18.3125 54.390625 
Q 18.3125 48.734375 21.84375 45.5625 
Q 25.390625 42.390625 31.78125 42.390625 
Q 38.140625 42.390625 41.71875 45.5625 
Q 45.3125 48.734375 45.3125 54.390625 
Q 45.3125 60.0625 41.71875 63.234375 
Q 38.140625 66.40625 31.78125 66.40625 
Q 25.390625 66.40625 21.84375 63.234375 
Q 18.3125 60.0625 18.3125 54.390625 
z
" id="DejaVuSans-56"/>
       </defs>
       <use xlink:href="#DejaVuSans-48"/>
       <use x="63.623047" xlink:href="#DejaVuSans-46"/>
       <use x="95.410156" xlink:href="#DejaVuSans-56"/>
      </g>
     </g>
    </g>
    <g id="xtick_6">
     <g id="line2d_6">
      <g>
       <use style="stroke:#000000;stroke-width:0.8;" x="398.487273" xlink:href="#m36f3e029fc" y="307.584"/>
      </g>
     </g>
     <g id="text_6">
      <!-- 1.0 -->
      <g transform="translate(390.53571 322.182437)scale(0.1 -0.1)">
       <defs>
        <path d="M 12.40625 8.296875 
L 28.515625 8.296875 
L 28.515625 63.921875 
L 10.984375 60.40625 
L 10.984375 69.390625 
L 28.421875 72.90625 
L 38.28125 72.90625 
L 38.28125 8.296875 
L 54.390625 8.296875 
L 54.390625 0 
L 12.40625 0 
z
" id="DejaVuSans-49"/>
       </defs>
       <use xlink:href="#DejaVuSans-49"/>
       <use x="63.623047" xlink:href="#DejaVuSans-46"/>
       <use x="95.410156" xlink:href="#DejaVuSans-48"/>
      </g>
     </g>
    </g>
   </g>
   <g id="matplotlib.axis_2">
    <g id="ytick_1">
     <g id="line2d_7">
      <defs>
       <path d="M 0 0 
L -3.5 0 
" id="m7bdb38e833" style="stroke:#000000;stroke-width:0.8;"/>
      </defs>
      <g>
       <use style="stroke:#000000;stroke-width:0.8;" x="57.6" xlink:href="#m7bdb38e833" y="290.036434"/>
      </g>
     </g>
     <g id="text_7">
      <!-- −3 -->
      <g transform="translate(35.857813 293.835653)scale(0.1 -0.1)">
       <defs>
        <path d="M 10.59375 35.5 
L 73.1875 35.5 
L 73.1875 27.203125 
L 10.59375 27.203125 
z
" id="DejaVuSans-8722"/>
        <path d="M 40.578125 39.3125 
Q 47.65625 37.796875 51.625 33 
Q 55.609375 28.21875 55.609375 21.1875 
Q 55.609375 10.40625 48.1875 4.484375 
Q 40.765625 -1.421875 27.09375 -1.421875 
Q 22.515625 -1.421875 17.65625 -0.515625 
Q 12.796875 0.390625 7.625 2.203125 
L 7.625 11.71875 
Q 11.71875 9.328125 16.59375 8.109375 
Q 21.484375 6.890625 26.8125 6.890625 
Q 36.078125 6.890625 40.9375 10.546875 
Q 45.796875 14.203125 45.796875 21.1875 
Q 45.796875 27.640625 41.28125 31.265625 
Q 36.765625 34.90625 28.71875 34.90625 
L 20.21875 34.90625 
L 20.21875 43.015625 
L 29.109375 43.015625 
Q 36.375 43.015625 40.234375 45.921875 
Q 44.09375 48.828125 44.09375 54.296875 
Q 44.09375 59.90625 40.109375 62.90625 
Q 36.140625 65.921875 28.71875 65.921875 
Q 24.65625 65.921875 20.015625 65.03125 
Q 15.375 64.15625 9.8125 62.3125 
L 9.8125 71.09375 
Q 15.4375 72.65625 20.34375 73.4375 
Q 25.25 74.21875 29.59375 74.21875 
Q 40.828125 74.21875 47.359375 69.109375 
Q 53.90625 64.015625 53.90625 55.328125 
Q 53.90625 49.265625 50.4375 45.09375 
Q 46.96875 40.921875 40.578125 39.3125 
z
" id="DejaVuSans-51"/>
       </defs>
       <use xlink:href="#DejaVuSans-8722"/>
       <use x="83.789062" xlink:href="#DejaVuSans-51"/>
      </g>
     </g>
    </g>
    <g id="ytick_2">
     <g id="line2d_8">
      <g>
       <use style="stroke:#000000;stroke-width:0.8;" x="57.6" xlink:href="#m7bdb38e833" y="251.529932"/>
      </g>
     </g>
     <g id="text_8">
      <!-- −2 -->
      <g transform="translate(35.857813 255.329151)scale(0.1 -0.1)">
       <use xlink:href="#DejaVuSans-8722"/>
       <use x="83.789062" xlink:href="#DejaVuSans-50"/>
      </g>
     </g>
    </g>
    <g id="ytick_3">
     <g id="line2d_9">
      <g>
       <use style="stroke:#000000;stroke-width:0.8;" x="57.6" xlink:href="#m7bdb38e833" y="213.02343"/>
      </g>
     </g>
     <g id="text_9">
      <!-- −1 -->
      <g transform="translate(35.857813 216.822649)scale(0.1 -0.1)">
       <use xlink:href="#DejaVuSans-8722"/>
       <use x="83.789062" xlink:href="#DejaVuSans-49"/>
      </g>
     </g>
    </g>
    <g id="ytick_4">
     <g id="line2d_10">
      <g>
       <use style="stroke:#000000;stroke-width:0.8;" x="57.6" xlink:href="#m7bdb38e833" y="174.516929"/>
      </g>
     </g>
     <g id="text_10">
      <!-- 0 -->
      <g transform="translate(44.2375 178.316147)scale(0.1 -0.1)">
       <use xlink:href="#DejaVuSans-48"/>
      </g>
     </g>
    </g>
    <g id="ytick_5">
     <g id="line2d_11">
      <g>
       <use style="stroke:#000000;stroke-width:0.8;" x="57.6" xlink:href="#m7bdb38e833" y="136.010427"/>
      </g>
     </g>
     <g id="text_11">
      <!-- 1 -->
      <g transform="translate(44.2375 139.809646)scale(0.1 -0.1)">
       <use xlink:href="#DejaVuSans-49"/>
      </g>
     </g>
    </g>
    <g id="ytick_6">
     <g id="line2d_12">
      <g>
       <use style="stroke:#000000;stroke-width:0.8;" x="57.6" xlink:href="#m7bdb38e833" y="97.503925"/>
      </g>
     </g>
     <g id="text_12">
      <!-- 2 -->
      <g transform="translate(44.2375 101.303144)scale(0.1 -0.1)">
       <use xlink:href="#DejaVuSans-50"/>
      </g>
     </g>
    </g>
    <g id="ytick_7">
     <g id="line2d_13">
      <g>
       <use style="stroke:#000000;stroke-width:0.8;" x="57.6" xlink:href="#m7bdb38e833" y="58.997424"/>
      </g>
     </g>
     <g id="text_13">
      <!-- 3 -->
      <g transform="translate(44.2375 62.796642)scale(0.1 -0.1)">
       <use xlink:href="#DejaVuSans-51"/>
      </g>
     </g>
    </g>
   </g>
   <g id="line2d_14">
    <path clip-path="url(#pfcd25aad42)" d="M 73.832727 174.457119 
L 82.055817 174.347943 
L 91.129571 174.314118 
L 98.78555 174.514698 
L 99.35266 174.658445 
L 99.919769 174.968683 
L 100.486879 175.499995 
L 101.195764 176.479576 
L 102.046426 178.127806 
L 103.03886 180.695277 
L 104.031292 183.945359 
L 105.165492 188.487451 
L 106.44145 194.701666 
L 107.575621 201.460751 
L 108.709773 209.316932 
L 109.560399 214.668509 
L 110.269272 217.868094 
L 110.836375 219.509893 
L 111.403483 220.353014 
L 111.828815 220.448472 
L 112.11237 220.276166 
L 112.395923 219.904759 
L 112.821254 218.994191 
L 113.388354 217.061566 
L 114.097211 213.547086 
L 116.223785 201.803897 
L 117.216202 197.955221 
L 118.066856 195.462243 
L 118.775739 193.963796 
L 119.484624 193.011824 
L 119.909956 192.683833 
L 120.477066 192.55639 
L 121.044175 192.770311 
L 121.611284 193.325865 
L 122.320167 194.509901 
L 123.029048 196.216812 
L 123.879698 198.986093 
L 124.872105 203.15364 
L 126.00627 208.999213 
L 128.416384 221.147477 
L 132.385984 239.959644 
L 136.213816 257.136644 
L 138.198644 264.539224 
L 139.758164 269.594158 
L 142.310115 276.650056 
L 144.153198 280.93801 
L 145.996289 284.650102 
L 147.414054 287.011089 
L 149.115374 289.510283 
L 150.391366 291.042982 
L 151.809136 292.466107 
L 153.085131 293.459884 
L 154.361127 294.181159 
L 155.637123 294.650994 
L 157.905561 295.264387 
L 159.03978 295.488 
L 159.181558 53.569876 
L 160.173999 53.843622 
L 161.16644 54.367966 
L 162.158881 55.153842 
L 162.725988 55.886412 
L 163.434865 57.348744 
L 164.14374 59.366142 
L 164.994374 62.531503 
L 165.986746 67.257644 
L 166.979107 73.129078 
L 168.113161 81.492582 
L 169.247124 91.879632 
L 170.806263 106.510968 
L 173.499525 129.184431 
L 174.917108 138.878692 
L 176.476496 147.920239 
L 178.035946 155.679121 
L 179.595406 162.374051 
L 181.013128 167.395913 
L 182.14732 170.692073 
L 183.281522 173.331063 
L 184.273955 175.11442 
L 185.266391 176.408446 
L 186.117054 177.124782 
L 186.825941 177.449416 
L 187.534828 177.517704 
L 188.243715 177.336394 
L 188.952601 176.898835 
L 189.661486 176.211449 
L 190.512146 175.046542 
L 191.079249 173.946761 
L 191.646345 172.335208 
L 192.355189 169.507638 
L 193.064028 165.836557 
L 193.914581 160.247138 
L 194.906772 151.953204 
L 195.75713 143.070374 
L 196.607305 131.887298 
L 198.307555 107.746485 
L 199.299719 97.673055 
L 200.291925 89.706348 
L 201.142486 84.362892 
L 201.993089 80.225675 
L 202.701951 77.634852 
L 203.41082 75.833594 
L 203.977926 74.976178 
L 204.545035 74.568136 
L 206.529917 73.447661 
L 208.231243 72.198386 
L 209.932567 70.662269 
L 211.633889 68.858791 
L 213.476987 66.604193 
L 215.461858 63.855916 
L 217.304948 60.924534 
L 219.148035 57.535418 
L 220.991113 53.742433 
L 221.13289 295.372479 
L 221.983536 293.185171 
L 222.83417 290.33265 
L 223.826543 286.155437 
L 224.818907 280.970147 
L 225.952977 273.822287 
L 228.788067 254.475197 
L 229.638673 250.72627 
L 230.347529 248.423872 
L 231.056407 246.864485 
L 231.623513 246.155102 
L 232.048845 245.941229 
L 232.474177 246.001773 
L 233.32484 246.583322 
L 234.884387 247.857367 
L 236.869264 249.828582 
L 238.570584 251.906061 
L 240.413679 254.531532 
L 242.256767 257.555902 
L 243.53275 260.013434 
L 244.950499 263.228215 
L 246.51001 267.369108 
L 248.069517 272.154113 
L 249.770773 278.221293 
L 250.904931 282.80194 
L 253.88207 295.385754 
L 254.023847 53.970116 
L 255.441566 58.762844 
L 256.859299 62.883852 
L 258.418816 66.701521 
L 259.694797 69.329445 
L 260.97078 71.476342 
L 262.104993 72.982226 
L 263.239208 74.112158 
L 264.231649 74.789562 
L 265.365867 75.296148 
L 267.91786 76.056477 
L 270.469852 76.592555 
L 273.021846 76.901321 
L 275.573839 76.9847 
L 278.125832 76.841729 
L 280.677825 76.472702 
L 283.229818 75.877512 
L 285.923588 75.005155 
L 288.192025 74.066872 
L 288.617357 73.728219 
L 289.042685 73.051919 
L 289.468011 71.880102 
L 289.893314 70.125311 
L 290.602141 65.927434 
L 291.310857 60.171434 
L 291.87777 54.248544 
L 292.019548 294.533511 
L 292.72798 285.098677 
L 293.436366 272.856575 
L 294.569436 252.438043 
L 295.41963 241.144753 
L 296.270021 232.519951 
L 297.120535 226.157358 
L 297.829348 222.356029 
L 299.530584 214.925029 
L 301.940699 205.401614 
L 303.07488 201.536877 
L 303.641978 200.178353 
L 304.067307 199.607085 
L 304.49264 199.448941 
L 304.776194 199.558112 
L 305.059749 199.843721 
L 305.485076 200.594135 
L 306.052172 202.224049 
L 306.761031 205.265434 
L 307.469842 209.341771 
L 308.32037 215.777169 
L 309.454293 226.860958 
L 310.87159 242.72377 
L 312.147223 256.74135 
L 313.564676 269.895461 
L 314.840438 280.110745 
L 315.974536 287.556613 
L 317.108674 293.671649 
L 317.392213 295.016223 
L 317.53399 53.725228 
L 318.526383 57.857333 
L 319.518801 61.166649 
L 320.369451 63.372336 
L 321.220107 64.996761 
L 321.92899 65.905918 
L 322.779652 66.903013 
L 323.488534 68.260262 
L 324.197407 70.156227 
L 325.048046 73.172312 
L 326.040449 77.706799 
L 327.032805 83.45143 
L 328.166895 91.499612 
L 330.151513 106.937106 
L 331.00213 111.273078 
L 331.711002 113.711053 
L 332.278105 114.921084 
L 332.703435 115.398045 
L 333.128768 115.459601 
L 333.412322 115.292466 
L 333.695877 114.951058 
L 334.121204 114.121822 
L 334.688303 112.376997 
L 335.397167 109.179586 
L 336.105992 104.883836 
L 337.807161 93.262855 
L 338.37426 91.491216 
L 338.657814 91.138976 
L 338.941369 91.143252 
L 339.224923 91.510011 
L 339.650251 92.775225 
L 340.07556 94.774869 
L 344.328643 118.233353 
L 347.022317 130.844379 
L 352.267911 153.968527 
L 353.685659 158.874523 
L 354.961642 162.580654 
L 356.521177 166.532472 
L 357.797167 169.160034 
L 358.931382 171.052846 
L 359.923821 172.372296 
L 361.058039 173.49061 
L 362.05048 174.125326 
L 362.901144 174.411046 
L 363.893586 174.525789 
L 377.362439 174.577175 
L 397.636608 174.469641 
L 398.487273 174.460316 
L 398.487273 174.460316 
" style="fill:none;stroke:#1f77b4;stroke-linecap:square;stroke-width:1.5;"/>
   </g>
   <g id="line2d_15">
    <path clip-path="url(#pfcd25aad42)" d="M 73.832727 174.395292 
L 74.621483 173.742396 
L 74.621483 173.742396 
L 75.0722 173.827218 
L 75.0722 173.827218 
L 75.748276 174.343306 
L 76.424352 174.882333 
L 76.424352 174.882333 
L 76.87507 174.805948 
L 76.87507 174.805948 
L 77.551146 174.306254 
L 78.227222 173.780898 
L 78.227222 173.780898 
L 78.677939 173.863808 
L 78.677939 173.863808 
L 79.354015 174.369833 
L 80.25545 175.133028 
L 80.706168 175.048226 
L 81.382244 174.532109 
L 81.382244 174.532109 
L 82.283678 173.755655 
L 82.283678 173.755655 
L 82.734396 173.835772 
L 82.734396 173.835772 
L 83.410472 174.347264 
L 84.086548 174.883855 
L 84.086548 174.883855 
L 84.537265 174.806614 
L 84.537265 174.806614 
L 85.213341 174.306305 
L 86.114776 173.546892 
L 86.565494 173.632566 
L 87.24157 174.149305 
L 87.24157 174.149305 
L 88.143005 174.925963 
L 88.143005 174.925963 
L 88.593722 174.845843 
L 88.593722 174.845843 
L 89.269798 174.334307 
L 89.945874 173.79767 
L 89.945874 173.79767 
L 90.396592 173.874886 
L 90.396592 173.874886 
L 91.072668 174.375169 
L 91.748744 174.900703 
L 91.748744 174.900703 
L 92.199461 174.817808 
L 92.199461 174.817808 
L 92.875537 174.31175 
L 93.551613 173.783015 
L 93.551613 173.783015 
L 94.002331 173.864739 
L 94.002331 173.864739 
L 94.678407 174.369908 
L 95.354483 174.898328 
L 95.354483 174.898328 
L 95.8052 174.816547 
L 95.8052 174.816547 
L 96.481276 174.311388 
L 97.157352 173.783015 
L 97.157352 173.783015 
L 97.60807 173.864825 
L 97.60807 173.864825 
L 98.284146 174.370019 
L 99.410939 175.366652 
L 99.410939 175.366652 
L 99.861657 175.276252 
L 99.861657 175.276252 
L 100.310883 175.120237 
L 100.310883 175.120237 
L 100.643746 175.253253 
L 100.971173 175.809701 
L 101.398791 177.102129 
L 102.122423 180.704541 
L 102.816495 183.68413 
L 102.816495 183.68413 
L 103.296318 184.702161 
L 103.948494 185.690984 
L 103.948494 185.690984 
L 104.221467 186.637806 
L 104.668605 189.118789 
L 104.668605 189.118789 
L 106.042035 197.72517 
L 106.042035 197.72517 
L 106.783483 199.321812 
L 107.10788 200.968494 
L 107.509816 204.259942 
L 108.306505 211.062043 
L 108.306505 211.062043 
L 108.862472 213.99913 
L 110.143476 220.604674 
L 110.635428 222.899695 
L 110.885683 223.417536 
L 110.885683 223.417536 
L 111.054408 223.491978 
L 111.310853 223.270975 
L 112.643353 221.099596 
L 112.643353 221.099596 
L 113.000721 220.030123 
L 113.000721 220.030123 
L 113.353878 218.172954 
L 113.353878 218.172954 
L 114.048827 212.707388 
L 114.048827 212.707388 
L 115.253163 203.396171 
L 116.117157 198.565954 
L 116.117157 198.565954 
L 117.170844 194.343621 
L 117.170844 194.343621 
L 117.619123 193.075875 
L 118.352251 191.771312 
L 118.727749 191.371162 
L 119.20719 191.257819 
L 120.515785 191.09042 
L 121.356716 190.879536 
L 121.673595 191.291728 
L 121.988154 192.091048 
L 122.401342 193.958847 
L 123.883993 202.488463 
L 123.883993 202.488463 
L 124.264949 203.142249 
L 124.264949 203.142249 
L 124.641952 203.725422 
L 124.641952 203.725422 
L 124.922834 204.653297 
L 125.295836 206.926017 
L 125.946817 212.672923 
L 126.597394 218.100123 
L 126.969303 219.733155 
L 127.341464 220.432989 
L 127.714002 220.925841 
L 127.993717 221.760756 
L 127.993717 221.760756 
L 128.367174 223.724644 
L 128.367174 223.724644 
L 129.679767 232.19306 
L 130.245306 233.993509 
L 130.245306 233.993509 
L 131.002535 236.183815 
L 131.002535 236.183815 
L 131.572923 238.75471 
L 133.297614 247.956905 
L 133.297614 247.956905 
L 134.361413 251.801799 
L 136.116078 260.441004 
L 137.300015 263.892328 
L 139.624734 272.180223 
L 139.624734 272.180223 
L 140.772188 274.747468 
L 142.601371 280.040165 
L 142.601371 280.040165 
L 144.701302 284.508785 
L 146.713822 289.053159 
L 147.387061 289.694266 
L 148.960441 290.840316 
L 149.522924 291.960821 
L 150.085605 293.004109 
L 150.535863 293.490668 
L 150.87361 293.505798 
L 151.887069 293.143909 
L 152.224945 293.334532 
L 152.562844 293.852221 
L 153.238694 295.314724 
L 153.351342 53.568 
L 153.351342 53.568 
L 153.689294 54.011587 
L 154.027258 54.109366 
L 154.477892 53.890409 
L 154.815877 53.578389 
L 154.92854 295.406741 
L 155.604535 294.777675 
L 155.604535 294.777675 
L 156.055211 294.801759 
L 156.055211 294.801759 
L 156.618565 295.153584 
L 156.956582 295.446109 
L 156.956582 295.446109 
L 157.069255 53.612127 
L 157.857974 54.24562 
L 157.857974 54.24562 
L 158.308675 54.146397 
L 158.308675 54.146397 
L 158.984733 53.612345 
L 159.097409 295.44154 
L 159.43544 295.244195 
L 159.88615 295.31484 
L 160.111505 295.441132 
L 160.111505 295.441132 
L 160.224183 53.579476 
L 161.01188 54.299516 
L 161.01188 54.299516 
L 161.671627 55.205865 
L 162.301853 56.523683 
L 162.301853 56.523683 
L 162.802888 57.59561 
L 163.283461 58.15343 
L 163.654477 58.533543 
L 163.925634 59.196984 
L 164.278688 60.867487 
L 165.447669 67.487702 
L 166.606043 72.000671 
L 167.191986 77.062191 
L 167.900666 82.856672 
L 167.900666 82.856672 
L 168.794276 88.486345 
L 170.286204 103.650326 
L 174.260534 135.545378 
L 174.260534 135.545378 
L 176.119617 147.52514 
L 177.054908 151.636338 
L 177.615414 154.554517 
L 177.615414 154.554517 
L 178.603592 159.845054 
L 178.603592 159.845054 
L 180.154511 165.856639 
L 181.799205 171.547717 
L 181.799205 171.547717 
L 182.46791 172.825639 
L 182.858188 173.582003 
L 184.485359 177.503091 
L 184.908547 177.777854 
L 185.66033 178.113776 
L 186.094938 178.759825 
L 186.752038 179.786757 
L 186.752038 179.786757 
L 187.082476 179.972046 
L 187.413947 179.870439 
L 187.968312 179.387125 
L 188.30123 178.859581 
L 188.739422 177.683243 
L 189.779006 174.323136 
L 189.779006 174.323136 
L 190.073368 173.986077 
L 190.359189 173.990814 
L 190.817106 174.231999 
L 191.081577 174.01047 
L 191.338863 173.289842 
L 191.671672 171.454896 
L 192.607527 165.643164 
L 193.045648 164.518489 
L 193.327648 163.535848 
L 193.670108 161.324599 
L 193.670108 161.324599 
L 195.878238 141.831671 
L 195.878238 141.831671 
L 197.835902 114.625403 
L 197.835902 114.625403 
L 198.327307 107.902935 
L 199.575315 95.809239 
L 200.175775 90.891176 
L 202.36997 78.165011 
L 203.040227 75.815428 
L 203.668182 74.532064 
L 204.332009 73.491317 
L 204.767689 73.28107 
L 204.767689 73.28107 
L 206.084534 73.034271 
L 206.896801 73.272619 
L 207.525457 72.942725 
L 207.525457 72.942725 
L 208.381811 72.206688 
L 208.381811 72.206688 
L 208.924758 71.203143 
L 209.582042 70.253419 
L 210.465612 69.481183 
L 211.243536 68.848906 
L 211.689534 68.063435 
L 212.919907 65.631385 
L 213.704953 64.874 
L 213.704953 64.874 
L 214.715828 63.973323 
L 215.277951 62.83162 
L 216.402965 60.387368 
L 216.402965 60.387368 
L 217.078322 59.649095 
L 217.866465 58.885609 
L 218.429486 57.749721 
L 218.988299 56.0972 
L 219.53619 53.829041 
L 219.53619 53.829041 
L 219.644181 295.271713 
L 219.751567 294.79361 
L 220.486924 291.993271 
L 220.792712 291.486634 
L 220.792712 291.486634 
L 221.092821 291.373374 
L 221.387106 291.550503 
L 221.770627 291.809316 
L 222.052017 291.660556 
L 222.328375 291.029485 
L 222.328375 291.029485 
L 222.689514 289.245852 
L 222.689514 289.245852 
L 223.813754 282.265005 
L 224.14644 281.684893 
L 224.473848 281.276249 
L 224.796529 280.353763 
L 225.115309 278.650861 
L 225.586448 274.427998 
L 226.358517 267.575151 
L 226.817694 265.172807 
L 227.505591 261.418053 
L 227.505591 261.418053 
L 228.042095 256.355277 
L 228.582306 252.172656 
L 228.972034 250.795494 
L 229.685723 249.529712 
L 229.685723 249.529712 
L 230.338259 247.222493 
L 230.338259 247.222493 
L 231.100047 244.607708 
L 231.450311 244.019662 
L 231.809083 243.869676 
L 232.084406 243.99096 
L 232.084406 243.99096 
L 232.848482 244.901536 
L 232.848482 244.901536 
L 233.552277 245.586119 
L 234.175363 246.163916 
L 234.811881 247.357544 
L 236.331783 250.529407 
L 236.992928 251.103519 
L 237.546817 251.508317 
L 237.546817 251.508317 
L 237.991431 252.227249 
L 237.991431 252.227249 
L 239.666913 255.354481 
L 240.676177 256.150321 
L 240.676177 256.150321 
L 241.237669 256.69258 
L 241.799572 257.823555 
L 242.811764 260.481374 
L 243.599509 262.403559 
L 245.063174 264.978722 
L 245.513074 266.61365 
L 246.292943 270.495533 
L 246.841807 272.764062 
L 247.275699 273.803387 
L 248.235844 275.214651 
L 248.235844 275.214651 
L 248.656143 276.592203 
L 248.656143 276.592203 
L 249.280123 279.713203 
L 250.305145 284.984069 
L 250.305145 284.984069 
L 250.812271 286.320404 
L 251.418199 287.57666 
L 251.922145 289.474621 
L 251.922145 289.474621 
L 252.526722 292.928553 
L 252.929987 295.475444 
L 253.030855 54.121731 
L 253.131754 54.681739 
L 253.636831 56.981123 
L 254.041866 58.073479 
L 254.958186 59.608668 
L 255.471481 61.169518 
L 257.25008 67.153936 
L 257.25008 67.153936 
L 257.893575 68.275546 
L 258.873564 69.908013 
L 260.087312 72.484819 
L 260.754191 73.802898 
L 260.754191 73.802898 
L 261.311731 74.383276 
L 262.654484 75.243157 
L 264.001398 76.18811 
L 265.238135 77.035122 
L 265.238135 77.035122 
L 265.688169 76.865484 
L 265.688169 76.865484 
L 266.36344 76.256197 
L 266.813738 75.875186 
L 267.15151 75.849748 
L 267.601929 76.060038 
L 268.953468 76.928428 
L 269.404048 76.708934 
L 270.417936 76.026799 
L 270.755919 76.112568 
L 271.431905 76.606352 
L 272.78394 77.812868 
L 273.234631 77.711304 
L 273.910676 77.168712 
L 274.586729 76.609487 
L 275.037435 76.676645 
L 275.713497 77.167658 
L 276.389562 77.688596 
L 276.840274 77.604201 
L 277.516344 77.097181 
L 278.64313 76.099983 
L 279.093845 76.190453 
L 279.769919 76.718135 
L 280.220635 77.028124 
L 280.671352 76.956901 
L 281.347426 76.473111 
L 282.924935 75.049827 
L 283.375652 75.159025 
L 283.375652 75.159025 
L 284.502445 75.796784 
L 284.953163 75.607792 
L 285.2912 75.207389 
L 286.617687 72.977053 
L 286.931424 72.781547 
L 287.135201 72.880903 
L 287.432665 73.29498 
L 287.99616 74.303357 
L 287.99616 74.303357 
L 288.26241 74.396587 
L 288.434574 74.250847 
L 288.684619 73.668275 
L 288.684619 73.668275 
L 289.157304 71.704705 
L 289.878912 68.609722 
L 289.878912 68.609722 
L 290.534451 66.193901 
L 290.903144 62.93856 
L 290.903144 62.93856 
L 291.76049 53.733121 
L 291.814842 295.278381 
L 291.922536 294.477983 
L 292.341147 290.05404 
L 293.328475 274.858998 
L 295.503297 240.427061 
L 296.773337 227.855558 
L 297.314688 224.750541 
L 299.358349 215.009639 
L 299.358349 215.009639 
L 300.285014 210.514604 
L 300.285014 210.514604 
L 303.775355 197.431637 
L 303.775355 197.431637 
L 304.620533 195.813496 
L 304.892695 195.579527 
L 304.892695 195.579527 
L 305.069927 195.665007 
L 305.329351 196.332392 
L 305.66388 198.322282 
L 306.220998 203.57369 
L 306.220998 203.57369 
L 306.747894 207.787163 
L 307.10949 209.038637 
L 307.10949 209.038637 
L 307.52996 210.283238 
L 307.802792 212.195973 
L 308.202727 217.166914 
L 308.202727 217.166914 
L 308.787856 224.309236 
L 309.29807 227.619796 
L 309.675691 230.601077 
L 310.297635 238.500309 
L 310.297635 238.500309 
L 311.038831 246.241036 
L 311.967817 256.878221 
L 311.967817 256.878221 
L 312.594516 263.325888 
L 315.646575 286.892321 
L 315.646575 286.892321 
L 317.029604 295.342169 
L 317.105037 53.755193 
L 317.180757 54.082281 
L 317.719173 55.682778 
L 317.719173 55.682778 
L 318.353615 57.93834 
L 318.353615 57.93834 
L 319.777309 63.819388 
L 320.487782 65.076994 
L 322.099828 67.718775 
L 322.691117 68.757131 
L 322.691117 68.757131 
L 323.369062 69.874491 
L 324.288648 71.95092 
L 324.640258 73.117239 
L 325.319453 76.275209 
L 326.674401 83.644919 
L 328.889659 99.040888 
L 328.889659 99.040888 
L 329.469267 104.355624 
L 329.469267 104.355624 
L 330.124991 109.916594 
L 330.493303 111.686738 
L 332.189567 116.803332 
L 332.189567 116.803332 
L 332.518237 117.123263 
L 332.518237 117.123263 
L 333.113839 117.255615 
L 333.462533 117.072793 
L 333.813162 116.664448 
L 334.161691 115.785692 
L 334.587553 113.68066 
L 334.587553 113.68066 
L 335.324161 108.44317 
L 335.954574 104.418399 
L 336.650362 100.015739 
L 337.189096 94.771348 
L 337.729352 90.128678 
L 337.729352 90.128678 
L 338.118991 88.501772 
L 338.355452 88.195458 
L 338.355452 88.195458 
L 338.675168 88.162104 
L 338.675168 88.162104 
L 339.001784 88.337185 
L 339.001784 88.337185 
L 339.502048 89.00106 
L 339.839329 89.868759 
L 340.1784 91.684407 
L 340.604078 95.332384 
L 342.321288 111.882124 
L 342.841052 113.539206 
L 343.363583 115.397675 
L 343.80151 117.978724 
L 343.80151 117.978724 
L 344.863199 124.989719 
L 344.863199 124.989719 
L 345.310498 126.480671 
L 346.305622 129.199832 
L 346.305622 129.199832 
L 346.763169 131.245669 
L 348.626207 140.692618 
L 351.018192 151.156656 
L 352.088211 156.795263 
L 352.677418 158.609364 
L 353.570861 160.908469 
L 353.570861 160.908469 
L 355.198103 165.941174 
L 355.198103 165.941174 
L 356.248041 167.705829 
L 356.891623 168.901516 
L 356.891623 168.901516 
L 357.652723 171.290512 
L 358.31155 172.941964 
L 358.753272 173.468438 
L 359.529946 173.926035 
L 359.529946 173.926035 
L 360.421785 174.437079 
L 360.421785 174.437079 
L 360.868938 175.163516 
L 360.868938 175.163516 
L 361.428753 176.068107 
L 361.765025 176.347362 
L 361.765025 176.347362 
L 362.101537 176.328832 
L 362.550538 176.0176 
L 363.786702 174.884492 
L 364.124105 174.935068 
L 365.249343 175.429945 
L 365.812204 175.124376 
L 365.812204 175.124376 
L 366.600398 174.41347 
L 367.388754 173.689501 
L 367.726659 173.671371 
L 368.177226 173.911723 
L 369.191092 174.641126 
L 369.529069 174.566881 
L 370.655713 174.046279 
L 371.219058 174.352628 
L 371.219058 174.352628 
L 372.345779 175.150634 
L 372.683801 175.055273 
L 373.359852 174.53797 
L 374.035909 174.001993 
L 374.486617 174.080724 
L 375.162682 174.583298 
L 376.064105 175.344796 
L 376.514819 175.25975 
L 377.19089 174.74358 
L 378.09232 173.967261 
L 378.543036 174.04745 
L 379.21911 174.559024 
L 379.895185 175.095661 
L 380.345901 175.018439 
L 381.021976 174.518145 
L 381.698052 173.992605 
L 382.148769 174.075498 
L 382.824844 174.581553 
L 383.50092 175.110285 
L 383.951637 175.02856 
L 384.627713 174.52339 
L 385.303789 173.994971 
L 385.754507 174.076751 
L 386.430583 174.58191 
L 387.106659 175.110284 
L 387.557376 175.028474 
L 388.233452 174.52328 
L 388.909528 173.994885 
L 389.360246 174.076686 
L 390.036322 174.581872 
L 390.712398 175.110265 
L 391.163115 175.028462 
L 391.839191 174.523276 
L 392.515267 173.994883 
L 392.965985 174.076686 
L 393.642061 174.581873 
L 394.092778 174.877562 
L 394.543496 174.794698 
L 395.219572 174.298836 
L 395.670289 174.010842 
L 396.121006 174.100534 
L 396.797082 174.603974 
L 397.2478 174.895301 
L 397.698517 174.807847 
L 398.374593 174.306313 
L 398.487273 174.197533 
L 398.487273 174.197533 
" style="fill:none;stroke:#ff7f0e;stroke-linecap:square;stroke-width:1.5;"/>
   </g>
   <g id="line2d_16">
    <path clip-path="url(#pfcd25aad42)" d="M 73.832727 174.888397 
L 74.169697 174.888236 
L 74.731314 174.565888 
L 75.629901 173.977255 
L 75.966871 174.068175 
L 76.640811 174.571573 
L 76.640811 174.571573 
L 77.090104 174.863812 
L 77.090104 174.863812 
L 77.539398 174.777401 
L 77.539398 174.777401 
L 78.213338 174.27721 
L 78.662631 173.949111 
L 78.999601 173.953392 
L 79.561218 174.281486 
L 80.459805 174.875906 
L 80.796775 174.786254 
L 81.470715 174.284395 
L 82.144655 173.761955 
L 82.593948 173.8473 
L 83.267888 174.356412 
L 83.941828 174.887169 
L 84.391122 174.806295 
L 85.065062 174.30187 
L 85.739002 173.773792 
L 86.188295 173.855674 
L 86.862235 174.360889 
L 87.536175 174.889266 
L 87.985469 174.807448 
L 88.659409 174.30224 
L 89.333349 173.773833 
L 89.782642 173.855628 
L 90.456582 174.360809 
L 91.130522 174.889199 
L 91.579815 174.807396 
L 92.253756 174.302208 
L 92.927696 173.773816 
L 93.376989 173.855618 
L 94.050929 174.360805 
L 94.724869 174.889198 
L 95.174162 174.807395 
L 95.848103 174.302209 
L 96.297396 174.006519 
L 96.746689 174.089383 
L 97.420629 174.585246 
L 100.898806 178.064281 
L 100.898806 178.064281 
L 101.443611 178.934478 
L 102.179758 180.220257 
L 102.179758 180.220257 
L 102.88529 181.027257 
L 103.563264 182.373167 
L 104.032391 183.981371 
L 104.580732 186.546696 
L 105.289917 191.333821 
L 107.619862 207.857821 
L 108.891928 214.474384 
L 109.843361 220.102736 
L 110.323281 221.658767 
L 110.646678 222.107119 
L 111.05674 222.262314 
L 111.05674 222.262314 
L 111.390667 222.007372 
L 111.390667 222.007372 
L 111.817838 221.325751 
L 112.613734 219.229718 
L 113.06154 218.252227 
L 113.593533 217.233692 
L 114.029011 215.674325 
L 114.459803 213.04171 
L 115.060005 207.901807 
L 116.348854 196.602374 
L 116.869664 193.943384 
L 117.308077 192.777453 
L 117.308077 192.777453 
L 117.931053 191.746017 
L 118.293086 191.50909 
L 119.033873 191.457958 
L 119.999841 191.476571 
L 120.605364 191.97879 
L 122.486946 193.801216 
L 122.997285 194.649094 
L 123.49532 196.2323 
L 123.982288 198.427658 
L 123.982288 198.427658 
L 124.649237 202.773478 
L 126.973675 220.451425 
L 126.973675 220.451425 
L 127.529867 222.895116 
L 128.644771 227.483211 
L 130.2342 234.117482 
L 130.987301 236.630406 
L 132.218978 242.055876 
L 132.218978 242.055876 
L 134.037997 250.893388 
L 135.683079 259.053818 
L 135.683079 259.053818 
L 137.050778 264.778624 
L 137.741748 266.553591 
L 138.639475 268.762823 
L 139.346336 270.843249 
L 142.489806 278.753837 
L 143.25192 281.051124 
L 144.573495 284.056167 
L 146.91107 289.637121 
L 147.358255 290.501434 
L 147.917753 291.126114 
L 147.917753 291.126114 
L 149.038024 291.870425 
L 150.383816 292.773273 
L 151.955042 294.027948 
L 151.955042 294.027948 
L 153.639203 295.462252 
L 153.751496 53.61881 
L 153.751496 53.61881 
L 155.211413 54.727244 
L 155.660649 54.565226 
L 156.783779 53.851016 
L 157.233044 54.025742 
L 158.019268 54.670616 
L 158.580864 55.070491 
L 159.030144 54.969054 
L 159.81639 54.587252 
L 160.265676 54.74087 
L 160.939606 55.257766 
L 160.939606 55.257766 
L 161.720721 56.097398 
L 162.365553 57.233502 
L 162.978273 58.833114 
L 163.748881 60.945835 
L 164.295821 61.67414 
L 164.647829 62.030017 
L 165.158947 63.069119 
L 165.570872 64.618286 
L 165.570872 64.618286 
L 165.971577 66.866238 
L 166.59201 71.62275 
L 168.603087 89.518646 
L 170.63559 106.928041 
L 171.382713 113.270022 
L 173.81095 132.971739 
L 175.617517 145.019366 
L 178.581556 159.167699 
L 178.581556 159.167699 
L 181.715013 171.349927 
L 181.715013 171.349927 
L 182.368877 172.657944 
L 185.065072 177.095087 
L 185.702856 177.500922 
L 185.702856 177.500922 
L 187.113095 178.190458 
L 187.993436 178.650057 
L 188.435939 178.45842 
L 189.095105 177.851208 
L 189.729618 176.965623 
L 190.428688 175.489192 
L 190.428688 175.489192 
L 191.08283 173.564645 
L 192.026227 170.626045 
L 192.425708 169.69638 
L 192.88521 168.168215 
L 193.325427 165.855323 
L 193.815933 161.760557 
L 194.86228 150.029021 
L 197.311291 121.813763 
L 199.215976 98.11777 
L 199.215976 98.11777 
L 200.020028 92.038374 
L 201.377634 83.153055 
L 201.377634 83.153055 
L 202.529361 78.085348 
L 203.183663 75.72176 
L 203.718053 74.681709 
L 204.19554 74.399402 
L 205.668553 73.833832 
L 205.668553 73.833832 
L 208.07833 72.509019 
L 208.07833 72.509019 
L 210.905865 70.414915 
L 211.23788 70.001598 
L 211.792691 68.844154 
L 213.68829 64.502441 
L 214.583396 63.286318 
L 216.26446 59.976569 
L 217.274121 58.754386 
L 218.059729 56.923664 
L 219.292019 53.665974 
L 219.402829 295.313706 
L 219.513181 295.013198 
L 220.692142 291.562727 
L 221.798465 287.479013 
L 222.46309 285.196841 
L 222.46309 285.196841 
L 222.921269 284.415915 
L 223.366553 284.054431 
L 223.714455 283.84925 
L 224.139746 283.238777 
L 224.555608 282.005557 
L 224.555608 282.005557 
L 224.963133 280.149505 
L 225.600828 276.006541 
L 226.685589 266.526325 
L 227.753251 257.939309 
L 228.516845 253.050671 
L 229.366365 249.209482 
L 229.996722 247.551419 
L 231.057623 245.41521 
L 231.482203 245.125502 
L 231.482203 245.125502 
L 232.096555 244.986792 
L 232.459831 245.226942 
L 234.120991 246.57015 
L 234.120991 246.57015 
L 237.34052 248.808521 
L 238.113684 249.567999 
L 238.668332 250.724066 
L 239.893406 253.975381 
L 242.691073 261.400523 
L 246.279571 270.855161 
L 248.131127 276.651921 
L 249.184751 278.990728 
L 250.216503 282.543038 
L 251.130235 286.229675 
L 251.130235 286.229675 
L 252.94035 295.239117 
L 253.040817 53.77116 
L 253.141298 54.236946 
L 254.04685 58.06783 
L 254.753962 59.959084 
L 254.753962 59.959084 
L 256.286678 63.100041 
L 257.22392 65.233492 
L 257.22392 65.233492 
L 261.24721 74.083109 
L 261.803102 75.185217 
L 262.360232 75.783 
L 263.58904 76.575383 
L 265.941733 78.041367 
L 266.390421 77.798135 
L 267.624809 76.909962 
L 268.073811 77.091352 
L 269.196522 77.765578 
L 269.196522 77.765578 
L 269.645667 77.575498 
L 269.645667 77.575498 
L 270.319434 77.005272 
L 270.656334 76.780652 
L 270.993244 76.782605 
L 271.554778 77.110205 
L 272.228642 77.533478 
L 272.677896 77.412946 
L 273.35179 76.896374 
L 273.801059 76.606511 
L 274.250332 76.698275 
L 274.924248 77.206989 
L 275.37353 77.501641 
L 275.822813 77.416892 
L 276.496741 76.918175 
L 277.395316 76.167203 
L 277.844605 76.256652 
L 278.518541 76.777515 
L 278.967831 77.082557 
L 279.417123 77.007113 
L 280.09106 76.518776 
L 281.326614 75.484769 
L 281.326614 75.484769 
L 281.775906 75.618106 
L 281.775906 75.618106 
L 282.562169 76.029494 
L 283.011462 75.883489 
L 283.685401 75.371425 
L 285.033281 74.321041 
L 285.37025 74.432201 
L 285.37025 74.432201 
L 285.819544 74.622078 
L 285.819544 74.622078 
L 286.267751 74.506021 
L 286.267751 74.506021 
L 286.708591 74.141388 
L 286.708591 74.141388 
L 287.240131 73.355648 
L 287.745579 72.209215 
L 288.314298 70.268594 
L 288.314298 70.268594 
L 288.842056 67.515909 
L 289.40902 64.623254 
L 289.6378 64.172945 
L 289.6378 64.172945 
L 289.786164 64.303293 
L 290.073027 65.316727 
L 290.742863 68.523698 
L 290.742863 68.523698 
L 290.869751 68.564683 
L 291.056317 68.000642 
L 291.298678 66.247449 
L 291.648811 61.388896 
L 292.040017 53.633011 
L 292.094526 294.429342 
L 292.202568 292.132872 
L 293.124978 274.739826 
L 295.565937 238.784162 
L 296.351592 231.064611 
L 296.351592 231.064611 
L 297.310827 224.320045 
L 298.173425 220.261066 
L 300.375636 211.191182 
L 303.789557 198.092591 
L 304.163098 197.518408 
L 304.445549 197.375474 
L 304.634077 197.446178 
L 304.9145 197.880398 
L 305.368501 199.130621 
L 307.208592 204.628696 
L 307.637754 207.800175 
L 307.637754 207.800175 
L 308.120088 213.236597 
L 309.615375 232.823703 
L 311.107019 248.366923 
L 314.37605 278.115432 
L 316.069922 289.592922 
L 316.929734 293.575225 
L 317.298907 295.318968 
L 317.298907 295.318968 
L 317.373564 53.731206 
L 317.4485 54.074298 
L 318.767822 59.600863 
L 319.926923 63.7748 
L 320.534903 65.014838 
L 320.534903 65.014838 
L 321.534276 66.602877 
L 322.008445 66.832865 
L 322.008445 66.832865 
L 322.592103 67.077714 
L 322.88674 67.526775 
L 323.376791 68.764288 
L 323.856589 70.580792 
L 324.321366 73.061675 
L 324.321366 73.061675 
L 325.963153 83.631607 
L 326.605395 85.945492 
L 327.377597 88.395097 
L 327.901899 90.904418 
L 327.901899 90.904418 
L 328.561641 95.535185 
L 329.429578 103.429768 
L 330.152398 109.518801 
L 330.808734 113.020439 
L 330.808734 113.020439 
L 331.327717 114.985602 
L 331.705505 115.772716 
L 331.705505 115.772716 
L 332.090725 116.036369 
L 332.808522 116.213004 
L 333.139943 115.992979 
L 333.480106 115.540145 
L 334.001226 114.284816 
L 334.001226 114.284816 
L 334.611173 112.87557 
L 335.367385 111.218814 
L 335.367385 111.218814 
L 335.771289 109.519412 
L 336.244452 106.324762 
L 336.940316 99.132009 
L 336.940316 99.132009 
L 337.784545 90.371256 
L 338.246781 87.924312 
L 338.557731 87.288016 
L 338.714547 87.30803 
L 338.951944 87.618077 
L 339.273767 88.582063 
L 341.118736 96.445773 
L 341.118736 96.445773 
L 341.715683 101.630533 
L 343.69695 121.195112 
L 344.220317 124.100417 
L 344.220317 124.100417 
L 344.659132 125.425081 
L 346.172201 129.15859 
L 347.261975 133.810185 
L 350.640114 148.977506 
L 352.3772 157.669304 
L 352.3772 157.669304 
L 353.061226 160.071005 
L 354.350099 163.043376 
L 354.350099 163.043376 
L 355.775678 165.777227 
L 356.612803 167.570347 
L 360.100976 174.715066 
L 360.767747 175.306547 
L 360.767747 175.306547 
L 363.672986 177.024182 
L 364.121226 176.774322 
L 364.793925 176.117137 
L 364.793925 176.117137 
L 365.579132 175.39747 
L 365.915749 175.421253 
L 366.364645 175.676925 
L 366.813611 175.905535 
L 367.150374 175.867211 
L 367.711707 175.529007 
L 369.283724 174.431232 
L 369.283724 174.431232 
L 369.732925 174.66381 
L 369.732925 174.66381 
L 370.631374 175.256596 
L 370.631374 175.256596 
L 371.080616 175.119177 
L 371.080616 175.119177 
L 371.642181 174.702455 
L 372.540707 173.972313 
L 372.989978 174.068068 
L 372.989978 174.068068 
L 373.663892 174.594577 
L 374.337812 175.138931 
L 374.787095 175.064352 
L 375.461023 174.565915 
L 376.134954 174.04093 
L 376.584243 174.123866 
L 377.258177 174.629803 
L 377.707468 174.925644 
L 378.156759 174.842803 
L 378.830696 174.346877 
L 379.279988 174.058826 
L 379.72928 174.148467 
L 380.403219 174.651846 
L 380.852511 174.981212 
L 381.189481 174.977558 
L 381.751097 174.650085 
L 382.649683 174.056032 
L 382.986653 174.145721 
L 383.660592 174.647586 
L 383.660592 174.647586 
L 384.109886 174.977351 
L 384.109886 174.977351 
L 384.446856 174.974253 
L 385.008472 174.647784 
L 385.008472 174.647784 
L 385.907059 174.054975 
L 385.907059 174.054975 
L 386.244029 174.144976 
L 386.917969 174.647255 
L 387.591909 175.16988 
L 388.041202 175.084587 
L 388.715142 174.575501 
L 389.389082 174.044742 
L 389.838375 174.12561 
L 390.512315 174.630025 
L 390.961609 174.925466 
L 391.410902 174.842478 
L 392.084842 174.346554 
L 392.534136 174.05856 
L 392.983429 174.148264 
L 393.657369 174.651727 
L 394.106662 174.943068 
L 394.555956 174.855624 
L 395.229896 174.3541 
L 395.679189 174.025349 
L 396.016159 174.029265 
L 396.577776 174.356942 
L 397.476363 174.951037 
L 397.813333 174.86133 
L 398.487273 174.359418 
L 398.487273 174.359418 
" style="fill:none;stroke:#2ca02c;stroke-linecap:square;stroke-width:1.5;"/>
   </g>
   <g id="patch_3">
    <path d="M 57.6 307.584 
L 57.6 41.472 
" style="fill:none;stroke:#000000;stroke-linecap:square;stroke-linejoin:miter;stroke-width:0.8;"/>
   </g>
   <g id="patch_4">
    <path d="M 414.72 307.584 
L 414.72 41.472 
" style="fill:none;stroke:#000000;stroke-linecap:square;stroke-linejoin:miter;stroke-width:0.8;"/>
   </g>
   <g id="patch_5">
    <path d="M 57.6 307.584 
L 414.72 307.584 
" style="fill:none;stroke:#000000;stroke-linecap:square;stroke-linejoin:miter;stroke-width:0.8;"/>
   </g>
   <g id="patch_6">
    <path d="M 57.6 41.472 
L 414.72 41.472 
" style="fill:none;stroke:#000000;stroke-linecap:square;stroke-linejoin:miter;stroke-width:0.8;"/>
   </g>
   <g id="text_14">
    <!-- esp heading -->
    <g transform="translate(199.367813 35.472)scale(0.12 -0.12)">
     <defs>
      <path d="M 56.203125 29.59375 
L 56.203125 25.203125 
L 14.890625 25.203125 
Q 15.484375 15.921875 20.484375 11.0625 
Q 25.484375 6.203125 34.421875 6.203125 
Q 39.59375 6.203125 44.453125 7.46875 
Q 49.3125 8.734375 54.109375 11.28125 
L 54.109375 2.78125 
Q 49.265625 0.734375 44.1875 -0.34375 
Q 39.109375 -1.421875 33.890625 -1.421875 
Q 20.796875 -1.421875 13.15625 6.1875 
Q 5.515625 13.8125 5.515625 26.8125 
Q 5.515625 40.234375 12.765625 48.109375 
Q 20.015625 56 32.328125 56 
Q 43.359375 56 49.78125 48.890625 
Q 56.203125 41.796875 56.203125 29.59375 
z
M 47.21875 32.234375 
Q 47.125 39.59375 43.09375 43.984375 
Q 39.0625 48.390625 32.421875 48.390625 
Q 24.90625 48.390625 20.390625 44.140625 
Q 15.875 39.890625 15.1875 32.171875 
z
" id="DejaVuSans-101"/>
      <path d="M 44.28125 53.078125 
L 44.28125 44.578125 
Q 40.484375 46.53125 36.375 47.5 
Q 32.28125 48.484375 27.875 48.484375 
Q 21.1875 48.484375 17.84375 46.4375 
Q 14.5 44.390625 14.5 40.28125 
Q 14.5 37.15625 16.890625 35.375 
Q 19.28125 33.59375 26.515625 31.984375 
L 29.59375 31.296875 
Q 39.15625 29.25 43.1875 25.515625 
Q 47.21875 21.78125 47.21875 15.09375 
Q 47.21875 7.46875 41.1875 3.015625 
Q 35.15625 -1.421875 24.609375 -1.421875 
Q 20.21875 -1.421875 15.453125 -0.5625 
Q 10.6875 0.296875 5.421875 2 
L 5.421875 11.28125 
Q 10.40625 8.6875 15.234375 7.390625 
Q 20.0625 6.109375 24.8125 6.109375 
Q 31.15625 6.109375 34.5625 8.28125 
Q 37.984375 10.453125 37.984375 14.40625 
Q 37.984375 18.0625 35.515625 20.015625 
Q 33.0625 21.96875 24.703125 23.78125 
L 21.578125 24.515625 
Q 13.234375 26.265625 9.515625 29.90625 
Q 5.8125 33.546875 5.8125 39.890625 
Q 5.8125 47.609375 11.28125 51.796875 
Q 16.75 56 26.8125 56 
Q 31.78125 56 36.171875 55.265625 
Q 40.578125 54.546875 44.28125 53.078125 
z
" id="DejaVuSans-115"/>
      <path d="M 18.109375 8.203125 
L 18.109375 -20.796875 
L 9.078125 -20.796875 
L 9.078125 54.6875 
L 18.109375 54.6875 
L 18.109375 46.390625 
Q 20.953125 51.265625 25.265625 53.625 
Q 29.59375 56 35.59375 56 
Q 45.5625 56 51.78125 48.09375 
Q 58.015625 40.1875 58.015625 27.296875 
Q 58.015625 14.40625 51.78125 6.484375 
Q 45.5625 -1.421875 35.59375 -1.421875 
Q 29.59375 -1.421875 25.265625 0.953125 
Q 20.953125 3.328125 18.109375 8.203125 
z
M 48.6875 27.296875 
Q 48.6875 37.203125 44.609375 42.84375 
Q 40.53125 48.484375 33.40625 48.484375 
Q 26.265625 48.484375 22.1875 42.84375 
Q 18.109375 37.203125 18.109375 27.296875 
Q 18.109375 17.390625 22.1875 11.75 
Q 26.265625 6.109375 33.40625 6.109375 
Q 40.53125 6.109375 44.609375 11.75 
Q 48.6875 17.390625 48.6875 27.296875 
z
" id="DejaVuSans-112"/>
      <path id="DejaVuSans-32"/>
      <path d="M 54.890625 33.015625 
L 54.890625 0 
L 45.90625 0 
L 45.90625 32.71875 
Q 45.90625 40.484375 42.875 44.328125 
Q 39.84375 48.1875 33.796875 48.1875 
Q 26.515625 48.1875 22.3125 43.546875 
Q 18.109375 38.921875 18.109375 30.90625 
L 18.109375 0 
L 9.078125 0 
L 9.078125 75.984375 
L 18.109375 75.984375 
L 18.109375 46.1875 
Q 21.34375 51.125 25.703125 53.5625 
Q 30.078125 56 35.796875 56 
Q 45.21875 56 50.046875 50.171875 
Q 54.890625 44.34375 54.890625 33.015625 
z
" id="DejaVuSans-104"/>
      <path d="M 34.28125 27.484375 
Q 23.390625 27.484375 19.1875 25 
Q 14.984375 22.515625 14.984375 16.5 
Q 14.984375 11.71875 18.140625 8.90625 
Q 21.296875 6.109375 26.703125 6.109375 
Q 34.1875 6.109375 38.703125 11.40625 
Q 43.21875 16.703125 43.21875 25.484375 
L 43.21875 27.484375 
z
M 52.203125 31.203125 
L 52.203125 0 
L 43.21875 0 
L 43.21875 8.296875 
Q 40.140625 3.328125 35.546875 0.953125 
Q 30.953125 -1.421875 24.3125 -1.421875 
Q 15.921875 -1.421875 10.953125 3.296875 
Q 6 8.015625 6 15.921875 
Q 6 25.140625 12.171875 29.828125 
Q 18.359375 34.515625 30.609375 34.515625 
L 43.21875 34.515625 
L 43.21875 35.40625 
Q 43.21875 41.609375 39.140625 45 
Q 35.0625 48.390625 27.6875 48.390625 
Q 23 48.390625 18.546875 47.265625 
Q 14.109375 46.140625 10.015625 43.890625 
L 10.015625 52.203125 
Q 14.9375 54.109375 19.578125 55.046875 
Q 24.21875 56 28.609375 56 
Q 40.484375 56 46.34375 49.84375 
Q 52.203125 43.703125 52.203125 31.203125 
z
" id="DejaVuSans-97"/>
      <path d="M 45.40625 46.390625 
L 45.40625 75.984375 
L 54.390625 75.984375 
L 54.390625 0 
L 45.40625 0 
L 45.40625 8.203125 
Q 42.578125 3.328125 38.25 0.953125 
Q 33.9375 -1.421875 27.875 -1.421875 
Q 17.96875 -1.421875 11.734375 6.484375 
Q 5.515625 14.40625 5.515625 27.296875 
Q 5.515625 40.1875 11.734375 48.09375 
Q 17.96875 56 27.875 56 
Q 33.9375 56 38.25 53.625 
Q 42.578125 51.265625 45.40625 46.390625 
z
M 14.796875 27.296875 
Q 14.796875 17.390625 18.875 11.75 
Q 22.953125 6.109375 30.078125 6.109375 
Q 37.203125 6.109375 41.296875 11.75 
Q 45.40625 17.390625 45.40625 27.296875 
Q 45.40625 37.203125 41.296875 42.84375 
Q 37.203125 48.484375 30.078125 48.484375 
Q 22.953125 48.484375 18.875 42.84375 
Q 14.796875 37.203125 14.796875 27.296875 
z
" id="DejaVuSans-100"/>
      <path d="M 9.421875 54.6875 
L 18.40625 54.6875 
L 18.40625 0 
L 9.421875 0 
z
M 9.421875 75.984375 
L 18.40625 75.984375 
L 18.40625 64.59375 
L 9.421875 64.59375 
z
" id="DejaVuSans-105"/>
      <path d="M 54.890625 33.015625 
L 54.890625 0 
L 45.90625 0 
L 45.90625 32.71875 
Q 45.90625 40.484375 42.875 44.328125 
Q 39.84375 48.1875 33.796875 48.1875 
Q 26.515625 48.1875 22.3125 43.546875 
Q 18.109375 38.921875 18.109375 30.90625 
L 18.109375 0 
L 9.078125 0 
L 9.078125 54.6875 
L 18.109375 54.6875 
L 18.109375 46.1875 
Q 21.34375 51.125 25.703125 53.5625 
Q 30.078125 56 35.796875 56 
Q 45.21875 56 50.046875 50.171875 
Q 54.890625 44.34375 54.890625 33.015625 
z
" id="DejaVuSans-110"/>
      <path d="M 45.40625 27.984375 
Q 45.40625 37.75 41.375 43.109375 
Q 37.359375 48.484375 30.078125 48.484375 
Q 22.859375 48.484375 18.828125 43.109375 
Q 14.796875 37.75 14.796875 27.984375 
Q 14.796875 18.265625 18.828125 12.890625 
Q 22.859375 7.515625 30.078125 7.515625 
Q 37.359375 7.515625 41.375 12.890625 
Q 45.40625 18.265625 45.40625 27.984375 
z
M 54.390625 6.78125 
Q 54.390625 -7.171875 48.1875 -13.984375 
Q 42 -20.796875 29.203125 -20.796875 
Q 24.46875 -20.796875 20.265625 -20.09375 
Q 16.0625 -19.390625 12.109375 -17.921875 
L 12.109375 -9.1875 
Q 16.0625 -11.328125 19.921875 -12.34375 
Q 23.78125 -13.375 27.78125 -13.375 
Q 36.625 -13.375 41.015625 -8.765625 
Q 45.40625 -4.15625 45.40625 5.171875 
L 45.40625 9.625 
Q 42.625 4.78125 38.28125 2.390625 
Q 33.9375 0 27.875 0 
Q 17.828125 0 11.671875 7.65625 
Q 5.515625 15.328125 5.515625 27.984375 
Q 5.515625 40.671875 11.671875 48.328125 
Q 17.828125 56 27.875 56 
Q 33.9375 56 38.28125 53.609375 
Q 42.625 51.21875 45.40625 46.390625 
L 45.40625 54.6875 
L 54.390625 54.6875 
z
" id="DejaVuSans-103"/>
     </defs>
     <use xlink:href="#DejaVuSans-101"/>
     <use x="61.523438" xlink:href="#DejaVuSans-115"/>
     <use x="113.623047" xlink:href="#DejaVuSans-112"/>
     <use x="177.099609" xlink:href="#DejaVuSans-32"/>
     <use x="208.886719" xlink:href="#DejaVuSans-104"/>
     <use x="272.265625" xlink:href="#DejaVuSans-101"/>
     <use x="333.789062" xlink:href="#DejaVuSans-97"/>
     <use x="395.068359" xlink:href="#DejaVuSans-100"/>
     <use x="458.544922" xlink:href="#DejaVuSans-105"/>
     <use x="486.328125" xlink:href="#DejaVuSans-110"/>
     <use x="549.707031" xlink:href="#DejaVuSans-103"/>
    </g>
   </g>
   <g id="legend_1">
    <g id="patch_7">
     <path d="M 64.6 93.506375 
L 156.557813 93.506375 
Q 158.557813 93.506375 158.557813 91.506375 
L 158.557813 48.472 
Q 158.557813 46.472 156.557813 46.472 
L 64.6 46.472 
Q 62.6 46.472 62.6 48.472 
L 62.6 91.506375 
Q 62.6 93.506375 64.6 93.506375 
z
" style="fill:#ffffff;opacity:0.8;stroke:#cccccc;stroke-linejoin:miter;"/>
    </g>
    <g id="line2d_17">
     <path d="M 66.6 54.570438 
L 86.6 54.570438 
" style="fill:none;stroke:#1f77b4;stroke-linecap:square;stroke-width:1.5;"/>
    </g>
    <g id="line2d_18"/>
    <g id="text_15">
     <!-- Waypoints -->
     <g transform="translate(94.6 58.070438)scale(0.1 -0.1)">
      <defs>
       <path d="M 3.328125 72.90625 
L 13.28125 72.90625 
L 28.609375 11.28125 
L 43.890625 72.90625 
L 54.984375 72.90625 
L 70.3125 11.28125 
L 85.59375 72.90625 
L 95.609375 72.90625 
L 77.296875 0 
L 64.890625 0 
L 49.515625 63.28125 
L 33.984375 0 
L 21.578125 0 
z
" id="DejaVuSans-87"/>
       <path d="M 32.171875 -5.078125 
Q 28.375 -14.84375 24.75 -17.8125 
Q 21.140625 -20.796875 15.09375 -20.796875 
L 7.90625 -20.796875 
L 7.90625 -13.28125 
L 13.1875 -13.28125 
Q 16.890625 -13.28125 18.9375 -11.515625 
Q 21 -9.765625 23.484375 -3.21875 
L 25.09375 0.875 
L 2.984375 54.6875 
L 12.5 54.6875 
L 29.59375 11.921875 
L 46.6875 54.6875 
L 56.203125 54.6875 
z
" id="DejaVuSans-121"/>
       <path d="M 30.609375 48.390625 
Q 23.390625 48.390625 19.1875 42.75 
Q 14.984375 37.109375 14.984375 27.296875 
Q 14.984375 17.484375 19.15625 11.84375 
Q 23.34375 6.203125 30.609375 6.203125 
Q 37.796875 6.203125 41.984375 11.859375 
Q 46.1875 17.53125 46.1875 27.296875 
Q 46.1875 37.015625 41.984375 42.703125 
Q 37.796875 48.390625 30.609375 48.390625 
z
M 30.609375 56 
Q 42.328125 56 49.015625 48.375 
Q 55.71875 40.765625 55.71875 27.296875 
Q 55.71875 13.875 49.015625 6.21875 
Q 42.328125 -1.421875 30.609375 -1.421875 
Q 18.84375 -1.421875 12.171875 6.21875 
Q 5.515625 13.875 5.515625 27.296875 
Q 5.515625 40.765625 12.171875 48.375 
Q 18.84375 56 30.609375 56 
z
" id="DejaVuSans-111"/>
       <path d="M 18.3125 70.21875 
L 18.3125 54.6875 
L 36.8125 54.6875 
L 36.8125 47.703125 
L 18.3125 47.703125 
L 18.3125 18.015625 
Q 18.3125 11.328125 20.140625 9.421875 
Q 21.96875 7.515625 27.59375 7.515625 
L 36.8125 7.515625 
L 36.8125 0 
L 27.59375 0 
Q 17.1875 0 13.234375 3.875 
Q 9.28125 7.765625 9.28125 18.015625 
L 9.28125 47.703125 
L 2.6875 47.703125 
L 2.6875 54.6875 
L 9.28125 54.6875 
L 9.28125 70.21875 
z
" id="DejaVuSans-116"/>
      </defs>
      <use xlink:href="#DejaVuSans-87"/>
      <use x="92.501953" xlink:href="#DejaVuSans-97"/>
      <use x="153.78125" xlink:href="#DejaVuSans-121"/>
      <use x="212.960938" xlink:href="#DejaVuSans-112"/>
      <use x="276.4375" xlink:href="#DejaVuSans-111"/>
      <use x="337.619141" xlink:href="#DejaVuSans-105"/>
      <use x="365.402344" xlink:href="#DejaVuSans-110"/>
      <use x="428.78125" xlink:href="#DejaVuSans-116"/>
      <use x="467.990234" xlink:href="#DejaVuSans-115"/>
     </g>
    </g>
    <g id="line2d_19">
     <path d="M 66.6 69.248563 
L 86.6 69.248563 
" style="fill:none;stroke:#ff7f0e;stroke-linecap:square;stroke-width:1.5;"/>
    </g>
    <g id="line2d_20"/>
    <g id="text_16">
     <!-- Stanley -->
     <g transform="translate(94.6 72.748563)scale(0.1 -0.1)">
      <defs>
       <path d="M 53.515625 70.515625 
L 53.515625 60.890625 
Q 47.90625 63.578125 42.921875 64.890625 
Q 37.9375 66.21875 33.296875 66.21875 
Q 25.25 66.21875 20.875 63.09375 
Q 16.5 59.96875 16.5 54.203125 
Q 16.5 49.359375 19.40625 46.890625 
Q 22.3125 44.4375 30.421875 42.921875 
L 36.375 41.703125 
Q 47.40625 39.59375 52.65625 34.296875 
Q 57.90625 29 57.90625 20.125 
Q 57.90625 9.515625 50.796875 4.046875 
Q 43.703125 -1.421875 29.984375 -1.421875 
Q 24.8125 -1.421875 18.96875 -0.25 
Q 13.140625 0.921875 6.890625 3.21875 
L 6.890625 13.375 
Q 12.890625 10.015625 18.65625 8.296875 
Q 24.421875 6.59375 29.984375 6.59375 
Q 38.421875 6.59375 43.015625 9.90625 
Q 47.609375 13.234375 47.609375 19.390625 
Q 47.609375 24.75 44.3125 27.78125 
Q 41.015625 30.8125 33.5 32.328125 
L 27.484375 33.5 
Q 16.453125 35.6875 11.515625 40.375 
Q 6.59375 45.0625 6.59375 53.421875 
Q 6.59375 63.09375 13.40625 68.65625 
Q 20.21875 74.21875 32.171875 74.21875 
Q 37.3125 74.21875 42.625 73.28125 
Q 47.953125 72.359375 53.515625 70.515625 
z
" id="DejaVuSans-83"/>
       <path d="M 9.421875 75.984375 
L 18.40625 75.984375 
L 18.40625 0 
L 9.421875 0 
z
" id="DejaVuSans-108"/>
      </defs>
      <use xlink:href="#DejaVuSans-83"/>
      <use x="63.476562" xlink:href="#DejaVuSans-116"/>
      <use x="102.685547" xlink:href="#DejaVuSans-97"/>
      <use x="163.964844" xlink:href="#DejaVuSans-110"/>
      <use x="227.34375" xlink:href="#DejaVuSans-108"/>
      <use x="255.126953" xlink:href="#DejaVuSans-101"/>
      <use x="316.650391" xlink:href="#DejaVuSans-121"/>
     </g>
    </g>
    <g id="line2d_21">
     <path d="M 66.6 83.926688 
L 86.6 83.926688 
" style="fill:none;stroke:#2ca02c;stroke-linecap:square;stroke-width:1.5;"/>
    </g>
    <g id="line2d_22"/>
    <g id="text_17">
     <!-- Pure Pursuit -->
     <g transform="translate(94.6 87.426688)scale(0.1 -0.1)">
      <defs>
       <path d="M 19.671875 64.796875 
L 19.671875 37.40625 
L 32.078125 37.40625 
Q 38.96875 37.40625 42.71875 40.96875 
Q 46.484375 44.53125 46.484375 51.125 
Q 46.484375 57.671875 42.71875 61.234375 
Q 38.96875 64.796875 32.078125 64.796875 
z
M 9.8125 72.90625 
L 32.078125 72.90625 
Q 44.34375 72.90625 50.609375 67.359375 
Q 56.890625 61.8125 56.890625 51.125 
Q 56.890625 40.328125 50.609375 34.8125 
Q 44.34375 29.296875 32.078125 29.296875 
L 19.671875 29.296875 
L 19.671875 0 
L 9.8125 0 
z
" id="DejaVuSans-80"/>
       <path d="M 8.5 21.578125 
L 8.5 54.6875 
L 17.484375 54.6875 
L 17.484375 21.921875 
Q 17.484375 14.15625 20.5 10.265625 
Q 23.53125 6.390625 29.59375 6.390625 
Q 36.859375 6.390625 41.078125 11.03125 
Q 45.3125 15.671875 45.3125 23.6875 
L 45.3125 54.6875 
L 54.296875 54.6875 
L 54.296875 0 
L 45.3125 0 
L 45.3125 8.40625 
Q 42.046875 3.421875 37.71875 1 
Q 33.40625 -1.421875 27.6875 -1.421875 
Q 18.265625 -1.421875 13.375 4.4375 
Q 8.5 10.296875 8.5 21.578125 
z
M 31.109375 56 
z
" id="DejaVuSans-117"/>
       <path d="M 41.109375 46.296875 
Q 39.59375 47.171875 37.8125 47.578125 
Q 36.03125 48 33.890625 48 
Q 26.265625 48 22.1875 43.046875 
Q 18.109375 38.09375 18.109375 28.8125 
L 18.109375 0 
L 9.078125 0 
L 9.078125 54.6875 
L 18.109375 54.6875 
L 18.109375 46.1875 
Q 20.953125 51.171875 25.484375 53.578125 
Q 30.03125 56 36.53125 56 
Q 37.453125 56 38.578125 55.875 
Q 39.703125 55.765625 41.0625 55.515625 
z
" id="DejaVuSans-114"/>
      </defs>
      <use xlink:href="#DejaVuSans-80"/>
      <use x="58.552734" xlink:href="#DejaVuSans-117"/>
      <use x="121.931641" xlink:href="#DejaVuSans-114"/>
      <use x="160.794922" xlink:href="#DejaVuSans-101"/>
      <use x="222.318359" xlink:href="#DejaVuSans-32"/>
      <use x="254.105469" xlink:href="#DejaVuSans-80"/>
      <use x="312.658203" xlink:href="#DejaVuSans-117"/>
      <use x="376.037109" xlink:href="#DejaVuSans-114"/>
      <use x="417.150391" xlink:href="#DejaVuSans-115"/>
      <use x="469.25" xlink:href="#DejaVuSans-117"/>
      <use x="532.628906" xlink:href="#DejaVuSans-105"/>
      <use x="560.412109" xlink:href="#DejaVuSans-116"/>
     </g>
    </g>
   </g>
  </g>
 </g>
 <defs>
  <clipPath id="pfcd25aad42">
   <rect height="266.112" width="357.12" x="57.6" y="41.472"/>
  </clipPath>
 </defs>
</svg>
