<?xml version="1.0" encoding="utf-8" standalone="no"?>
<!DOCTYPE svg PUBLIC "-//W3C//DTD SVG 1.1//EN"
  "http://www.w3.org/Graphics/SVG/1.1/DTD/svg11.dtd">
<!-- Created with matplotlib (https://matplotlib.org/) -->
<svg height="345.6pt" version="1.1" viewBox="0 0 460.8 345.6" width="460.8pt" xmlns="http://www.w3.org/2000/svg" xmlns:xlink="http://www.w3.org/1999/xlink">
 <metadata>
  <rdf:RDF xmlns:cc="http://creativecommons.org/ns#" xmlns:dc="http://purl.org/dc/elements/1.1/" xmlns:rdf="http://www.w3.org/1999/02/22-rdf-syntax-ns#">
   <cc:Work>
    <dc:type rdf:resource="http://purl.org/dc/dcmitype/StillImage"/>
    <dc:date>2024-10-03T15:12:52.852468</dc:date>
    <dc:format>image/svg+xml</dc:format>
    <dc:creator>
     <cc:Agent>
      <dc:title>Matplotlib v3.3.1, https://matplotlib.org/</dc:title>
     </cc:Agent>
    </dc:creator>
   </cc:Work>
  </rdf:RDF>
 </metadata>
 <defs>
  <style type="text/css">*{stroke-linecap:butt;stroke-linejoin:round;}</style>
 </defs>
 <g id="figure_1">
  <g id="patch_1">
   <path d="M 0 345.6 
L 460.8 345.6 
L 460.8 0 
L 0 0 
z
" style="fill:#ffffff;"/>
  </g>
  <g id="axes_1">
   <g id="patch_2">
    <path d="M 57.6 307.584 
L 414.72 307.584 
L 414.72 41.472 
L 57.6 41.472 
z
" style="fill:#ffffff;"/>
   </g>
   <g id="matplotlib.axis_1">
    <g id="xtick_1">
     <g id="line2d_1">
      <defs>
       <path d="M 0 0 
L 0 3.5 
" id="md41c841909" style="stroke:#000000;stroke-width:0.8;"/>
      </defs>
      <g>
       <use style="stroke:#000000;stroke-width:0.8;" x="73.832727" xlink:href="#md41c841909" y="307.584"/>
      </g>
     </g>
     <g id="text_1">
      <!-- 0.0 -->
      <g transform="translate(65.881165 322.182437)scale(0.1 -0.1)">
       <defs>
        <path d="M 31.78125 66.40625 
Q 24.171875 66.40625 20.328125 58.90625 
Q 16.5 51.421875 16.5 36.375 
Q 16.5 21.390625 20.328125 13.890625 
Q 24.171875 6.390625 31.78125 6.390625 
Q 39.453125 6.390625 43.28125 13.890625 
Q 47.125 21.390625 47.125 36.375 
Q 47.125 51.421875 43.28125 58.90625 
Q 39.453125 66.40625 31.78125 66.40625 
z
M 31.78125 74.21875 
Q 44.046875 74.21875 50.515625 64.515625 
Q 56.984375 54.828125 56.984375 36.375 
Q 56.984375 17.96875 50.515625 8.265625 
Q 44.046875 -1.421875 31.78125 -1.421875 
Q 19.53125 -1.421875 13.0625 8.265625 
Q 6.59375 17.96875 6.59375 36.375 
Q 6.59375 54.828125 13.0625 64.515625 
Q 19.53125 74.21875 31.78125 74.21875 
z
" id="DejaVuSans-48"/>
        <path d="M 10.6875 12.40625 
L 21 12.40625 
L 21 0 
L 10.6875 0 
z
" id="DejaVuSans-46"/>
       </defs>
       <use xlink:href="#DejaVuSans-48"/>
       <use x="63.623047" xlink:href="#DejaVuSans-46"/>
       <use x="95.410156" xlink:href="#DejaVuSans-48"/>
      </g>
     </g>
    </g>
    <g id="xtick_2">
     <g id="line2d_2">
      <g>
       <use style="stroke:#000000;stroke-width:0.8;" x="138.763636" xlink:href="#md41c841909" y="307.584"/>
      </g>
     </g>
     <g id="text_2">
      <!-- 0.2 -->
      <g transform="translate(130.812074 322.182437)scale(0.1 -0.1)">
       <defs>
        <path d="M 19.1875 8.296875 
L 53.609375 8.296875 
L 53.609375 0 
L 7.328125 0 
L 7.328125 8.296875 
Q 12.9375 14.109375 22.625 23.890625 
Q 32.328125 33.6875 34.8125 36.53125 
Q 39.546875 41.84375 41.421875 45.53125 
Q 43.3125 49.21875 43.3125 52.78125 
Q 43.3125 58.59375 39.234375 62.25 
Q 35.15625 65.921875 28.609375 65.921875 
Q 23.96875 65.921875 18.8125 64.3125 
Q 13.671875 62.703125 7.8125 59.421875 
L 7.8125 69.390625 
Q 13.765625 71.78125 18.9375 73 
Q 24.125 74.21875 28.421875 74.21875 
Q 39.75 74.21875 46.484375 68.546875 
Q 53.21875 62.890625 53.21875 53.421875 
Q 53.21875 48.921875 51.53125 44.890625 
Q 49.859375 40.875 45.40625 35.40625 
Q 44.1875 33.984375 37.640625 27.21875 
Q 31.109375 20.453125 19.1875 8.296875 
z
" id="DejaVuSans-50"/>
       </defs>
       <use xlink:href="#DejaVuSans-48"/>
       <use x="63.623047" xlink:href="#DejaVuSans-46"/>
       <use x="95.410156" xlink:href="#DejaVuSans-50"/>
      </g>
     </g>
    </g>
    <g id="xtick_3">
     <g id="line2d_3">
      <g>
       <use style="stroke:#000000;stroke-width:0.8;" x="203.694545" xlink:href="#md41c841909" y="307.584"/>
      </g>
     </g>
     <g id="text_3">
      <!-- 0.4 -->
      <g transform="translate(195.742983 322.182437)scale(0.1 -0.1)">
       <defs>
        <path d="M 37.796875 64.3125 
L 12.890625 25.390625 
L 37.796875 25.390625 
z
M 35.203125 72.90625 
L 47.609375 72.90625 
L 47.609375 25.390625 
L 58.015625 25.390625 
L 58.015625 17.1875 
L 47.609375 17.1875 
L 47.609375 0 
L 37.796875 0 
L 37.796875 17.1875 
L 4.890625 17.1875 
L 4.890625 26.703125 
z
" id="DejaVuSans-52"/>
       </defs>
       <use xlink:href="#DejaVuSans-48"/>
       <use x="63.623047" xlink:href="#DejaVuSans-46"/>
       <use x="95.410156" xlink:href="#DejaVuSans-52"/>
      </g>
     </g>
    </g>
    <g id="xtick_4">
     <g id="line2d_4">
      <g>
       <use style="stroke:#000000;stroke-width:0.8;" x="268.625455" xlink:href="#md41c841909" y="307.584"/>
      </g>
     </g>
     <g id="text_4">
      <!-- 0.6 -->
      <g transform="translate(260.673892 322.182437)scale(0.1 -0.1)">
       <defs>
        <path d="M 33.015625 40.375 
Q 26.375 40.375 22.484375 35.828125 
Q 18.609375 31.296875 18.609375 23.390625 
Q 18.609375 15.53125 22.484375 10.953125 
Q 26.375 6.390625 33.015625 6.390625 
Q 39.65625 6.390625 43.53125 10.953125 
Q 47.40625 15.53125 47.40625 23.390625 
Q 47.40625 31.296875 43.53125 35.828125 
Q 39.65625 40.375 33.015625 40.375 
z
M 52.59375 71.296875 
L 52.59375 62.3125 
Q 48.875 64.0625 45.09375 64.984375 
Q 41.3125 65.921875 37.59375 65.921875 
Q 27.828125 65.921875 22.671875 59.328125 
Q 17.53125 52.734375 16.796875 39.40625 
Q 19.671875 43.65625 24.015625 45.921875 
Q 28.375 48.1875 33.59375 48.1875 
Q 44.578125 48.1875 50.953125 41.515625 
Q 57.328125 34.859375 57.328125 23.390625 
Q 57.328125 12.15625 50.6875 5.359375 
Q 44.046875 -1.421875 33.015625 -1.421875 
Q 20.359375 -1.421875 13.671875 8.265625 
Q 6.984375 17.96875 6.984375 36.375 
Q 6.984375 53.65625 15.1875 63.9375 
Q 23.390625 74.21875 37.203125 74.21875 
Q 40.921875 74.21875 44.703125 73.484375 
Q 48.484375 72.75 52.59375 71.296875 
z
" id="DejaVuSans-54"/>
       </defs>
       <use xlink:href="#DejaVuSans-48"/>
       <use x="63.623047" xlink:href="#DejaVuSans-46"/>
       <use x="95.410156" xlink:href="#DejaVuSans-54"/>
      </g>
     </g>
    </g>
    <g id="xtick_5">
     <g id="line2d_5">
      <g>
       <use style="stroke:#000000;stroke-width:0.8;" x="333.556364" xlink:href="#md41c841909" y="307.584"/>
      </g>
     </g>
     <g id="text_5">
      <!-- 0.8 -->
      <g transform="translate(325.604801 322.182437)scale(0.1 -0.1)">
       <defs>
        <path d="M 31.78125 34.625 
Q 24.75 34.625 20.71875 30.859375 
Q 16.703125 27.09375 16.703125 20.515625 
Q 16.703125 13.921875 20.71875 10.15625 
Q 24.75 6.390625 31.78125 6.390625 
Q 38.8125 6.390625 42.859375 10.171875 
Q 46.921875 13.96875 46.921875 20.515625 
Q 46.921875 27.09375 42.890625 30.859375 
Q 38.875 34.625 31.78125 34.625 
z
M 21.921875 38.8125 
Q 15.578125 40.375 12.03125 44.71875 
Q 8.5 49.078125 8.5 55.328125 
Q 8.5 64.0625 14.71875 69.140625 
Q 20.953125 74.21875 31.78125 74.21875 
Q 42.671875 74.21875 48.875 69.140625 
Q 55.078125 64.0625 55.078125 55.328125 
Q 55.078125 49.078125 51.53125 44.71875 
Q 48 40.375 41.703125 38.8125 
Q 48.828125 37.15625 52.796875 32.3125 
Q 56.78125 27.484375 56.78125 20.515625 
Q 56.78125 9.90625 50.3125 4.234375 
Q 43.84375 -1.421875 31.78125 -1.421875 
Q 19.734375 -1.421875 13.25 4.234375 
Q 6.78125 9.90625 6.78125 20.515625 
Q 6.78125 27.484375 10.78125 32.3125 
Q 14.796875 37.15625 21.921875 38.8125 
z
M 18.3125 54.390625 
Q 18.3125 48.734375 21.84375 45.5625 
Q 25.390625 42.390625 31.78125 42.390625 
Q 38.140625 42.390625 41.71875 45.5625 
Q 45.3125 48.734375 45.3125 54.390625 
Q 45.3125 60.0625 41.71875 63.234375 
Q 38.140625 66.40625 31.78125 66.40625 
Q 25.390625 66.40625 21.84375 63.234375 
Q 18.3125 60.0625 18.3125 54.390625 
z
" id="DejaVuSans-56"/>
       </defs>
       <use xlink:href="#DejaVuSans-48"/>
       <use x="63.623047" xlink:href="#DejaVuSans-46"/>
       <use x="95.410156" xlink:href="#DejaVuSans-56"/>
      </g>
     </g>
    </g>
    <g id="xtick_6">
     <g id="line2d_6">
      <g>
       <use style="stroke:#000000;stroke-width:0.8;" x="398.487273" xlink:href="#md41c841909" y="307.584"/>
      </g>
     </g>
     <g id="text_6">
      <!-- 1.0 -->
      <g transform="translate(390.53571 322.182437)scale(0.1 -0.1)">
       <defs>
        <path d="M 12.40625 8.296875 
L 28.515625 8.296875 
L 28.515625 63.921875 
L 10.984375 60.40625 
L 10.984375 69.390625 
L 28.421875 72.90625 
L 38.28125 72.90625 
L 38.28125 8.296875 
L 54.390625 8.296875 
L 54.390625 0 
L 12.40625 0 
z
" id="DejaVuSans-49"/>
       </defs>
       <use xlink:href="#DejaVuSans-49"/>
       <use x="63.623047" xlink:href="#DejaVuSans-46"/>
       <use x="95.410156" xlink:href="#DejaVuSans-48"/>
      </g>
     </g>
    </g>
   </g>
   <g id="matplotlib.axis_2">
    <g id="ytick_1">
     <g id="line2d_7">
      <defs>
       <path d="M 0 0 
L -3.5 0 
" id="mca7124ed12" style="stroke:#000000;stroke-width:0.8;"/>
      </defs>
      <g>
       <use style="stroke:#000000;stroke-width:0.8;" x="57.6" xlink:href="#mca7124ed12" y="263.284349"/>
      </g>
     </g>
     <g id="text_7">
      <!-- 4 -->
      <g transform="translate(44.2375 267.083567)scale(0.1 -0.1)">
       <use xlink:href="#DejaVuSans-52"/>
      </g>
     </g>
    </g>
    <g id="ytick_2">
     <g id="line2d_8">
      <g>
       <use style="stroke:#000000;stroke-width:0.8;" x="57.6" xlink:href="#mca7124ed12" y="210.855261"/>
      </g>
     </g>
     <g id="text_8">
      <!-- 5 -->
      <g transform="translate(44.2375 214.65448)scale(0.1 -0.1)">
       <defs>
        <path d="M 10.796875 72.90625 
L 49.515625 72.90625 
L 49.515625 64.59375 
L 19.828125 64.59375 
L 19.828125 46.734375 
Q 21.96875 47.46875 24.109375 47.828125 
Q 26.265625 48.1875 28.421875 48.1875 
Q 40.625 48.1875 47.75 41.5 
Q 54.890625 34.8125 54.890625 23.390625 
Q 54.890625 11.625 47.5625 5.09375 
Q 40.234375 -1.421875 26.90625 -1.421875 
Q 22.3125 -1.421875 17.546875 -0.640625 
Q 12.796875 0.140625 7.71875 1.703125 
L 7.71875 11.625 
Q 12.109375 9.234375 16.796875 8.0625 
Q 21.484375 6.890625 26.703125 6.890625 
Q 35.15625 6.890625 40.078125 11.328125 
Q 45.015625 15.765625 45.015625 23.390625 
Q 45.015625 31 40.078125 35.4375 
Q 35.15625 39.890625 26.703125 39.890625 
Q 22.75 39.890625 18.8125 39.015625 
Q 14.890625 38.140625 10.796875 36.28125 
z
" id="DejaVuSans-53"/>
       </defs>
       <use xlink:href="#DejaVuSans-53"/>
      </g>
     </g>
    </g>
    <g id="ytick_3">
     <g id="line2d_9">
      <g>
       <use style="stroke:#000000;stroke-width:0.8;" x="57.6" xlink:href="#mca7124ed12" y="158.426174"/>
      </g>
     </g>
     <g id="text_9">
      <!-- 6 -->
      <g transform="translate(44.2375 162.225393)scale(0.1 -0.1)">
       <use xlink:href="#DejaVuSans-54"/>
      </g>
     </g>
    </g>
    <g id="ytick_4">
     <g id="line2d_10">
      <g>
       <use style="stroke:#000000;stroke-width:0.8;" x="57.6" xlink:href="#mca7124ed12" y="105.997087"/>
      </g>
     </g>
     <g id="text_10">
      <!-- 7 -->
      <g transform="translate(44.2375 109.796306)scale(0.1 -0.1)">
       <defs>
        <path d="M 8.203125 72.90625 
L 55.078125 72.90625 
L 55.078125 68.703125 
L 28.609375 0 
L 18.3125 0 
L 43.21875 64.59375 
L 8.203125 64.59375 
z
" id="DejaVuSans-55"/>
       </defs>
       <use xlink:href="#DejaVuSans-55"/>
      </g>
     </g>
    </g>
    <g id="ytick_5">
     <g id="line2d_11">
      <g>
       <use style="stroke:#000000;stroke-width:0.8;" x="57.6" xlink:href="#mca7124ed12" y="53.568"/>
      </g>
     </g>
     <g id="text_11">
      <!-- 8 -->
      <g transform="translate(44.2375 57.367219)scale(0.1 -0.1)">
       <use xlink:href="#DejaVuSans-56"/>
      </g>
     </g>
    </g>
   </g>
   <g id="line2d_12">
    <path clip-path="url(#pb33e6a9569)" d="M 73.832727 53.568 
L 100.463637 53.568 
L 103.438352 115.35575 
L 105.138175 143.384107 
L 106.55468 162.962188 
L 107.404574 172.025068 
L 108.3961 180.411039 
L 108.67939 181.318926 
L 108.962679 181.59242 
L 109.387621 181.60772 
L 109.529257 181.336782 
L 109.812551 179.917598 
L 110.095848 177.067815 
L 110.520802 169.787887 
L 111.087409 154.741241 
L 111.654023 133.451449 
L 111.93733 122.289648 
L 112.503944 141.472615 
L 113.070551 153.924748 
L 113.637149 160.66348 
L 113.920443 162.118411 
L 114.203735 162.496574 
L 114.487025 162.496574 
L 114.628663 162.306646 
L 114.911958 161.27665 
L 115.620202 156.196488 
L 116.186798 149.95355 
L 117.0367 137.043698 
L 117.88661 120.228635 
L 118.878179 96.005726 
L 119.869754 65.780596 
L 120.294715 53.568 
L 120.86133 53.568 
L 122.277863 92.345671 
L 123.127776 109.15262 
L 123.836034 119.561915 
L 124.402634 125.30038 
L 124.827575 128.036726 
L 125.11087 128.995487 
L 125.394164 129.225637 
L 125.960751 129.219536 
L 126.244045 129.061044 
L 126.952287 128.094873 
L 127.377222 127.277848 
L 129.360287 122.008442 
L 129.643583 121.273343 
L 130.493469 118.657715 
L 131.909946 115.568843 
L 133.043131 112.138514 
L 133.751376 110.296181 
L 134.317968 109.125142 
L 135.167856 106.842347 
L 135.876095 103.89727 
L 137.29259 94.590059 
L 138.425791 86.029075 
L 139.558996 75.897041 
L 141.683769 53.694909 
L 141.967073 53.568 
L 160.806953 53.568 
L 160.948607 53.829102 
L 163.640011 137.465921 
L 164.773206 163.708559 
L 166.048021 187.884183 
L 166.897864 201.256432 
L 167.747671 211.332125 
L 168.314185 215.99035 
L 168.597433 217.033318 
L 168.88067 217.260969 
L 169.44714 217.286354 
L 169.730376 217.091522 
L 170.155202 216.209032 
L 170.863339 214.377277 
L 171.854669 211.013244 
L 172.562825 207.664863 
L 173.27094 203.658813 
L 173.979124 197.56323 
L 175.25384 183.568432 
L 179.078223 136.694543 
L 180.636344 115.443143 
L 181.911197 95.499503 
L 183.186057 72.333205 
L 184.177626 53.568 
L 187.860616 53.568 
L 188.00227 54.674153 
L 191.118633 158.596886 
L 192.251815 190.148385 
L 193.668206 223.171569 
L 195.226086 254.393249 
L 196.075688 268.623866 
L 196.50033 273.318987 
L 196.783431 274.801919 
L 197.066501 274.97313 
L 197.208154 274.97313 
L 197.349587 274.76036 
L 197.632705 273.3956 
L 197.915857 270.556284 
L 198.623873 259.980311 
L 199.473524 244.494189 
L 200.748148 217.817023 
L 202.022937 185.861588 
L 203.014481 155.101056 
L 204.431014 101.484701 
L 205.705896 57.314806 
L 205.847549 53.568 
L 218.454676 53.568 
L 218.879632 61.937448 
L 220.296155 95.48562 
L 222.562563 151.722816 
L 223.69572 172.498285 
L 224.545554 184.242373 
L 225.112088 189.607748 
L 225.678606 193.36228 
L 225.961854 194.035454 
L 226.245101 194.378175 
L 226.669998 194.405339 
L 226.81159 194.338242 
L 226.953243 194.082471 
L 227.236498 192.606786 
L 227.944647 185.600773 
L 228.511206 177.630234 
L 229.219435 164.525154 
L 230.069323 144.692993 
L 230.919231 119.943451 
L 231.910804 83.648488 
L 232.619073 56.991076 
L 232.760726 53.568 
L 245.084516 53.568 
L 246.784319 72.397626 
L 248.20081 85.780014 
L 249.192337 92.61893 
L 250.325511 99.652376 
L 251.175381 101.777881 
L 251.458668 101.872768 
L 251.741956 101.840218 
L 252.025245 101.500342 
L 252.591825 99.982297 
L 253.01677 98.649991 
L 253.583354 96.028274 
L 254.149942 92.380351 
L 254.716534 87.411629 
L 255.99137 75.21139 
L 256.841271 65.048792 
L 257.83283 53.568 
L 285.596917 53.568 
L 285.738571 56.205237 
L 287.155108 111.198238 
L 289.846495 222.075473 
L 290.837919 250.781931 
L 291.970769 277.413836 
L 292.82015 292.52839 
L 293.103187 295.042884 
L 293.386158 295.488 
L 293.669122 295.488 
L 293.810776 295.062725 
L 294.093807 292.5146 
L 294.660012 283.626216 
L 295.651098 263.2119 
L 296.925746 231.846587 
L 299.61699 160.276722 
L 300.608526 143.124267 
L 301.600049 129.703865 
L 303.158185 109.53516 
L 303.724792 99.4655 
L 304.291405 120.086128 
L 305.141326 155.196446 
L 306.132877 186.822123 
L 307.124397 210.939609 
L 307.832557 223.808014 
L 308.399058 230.708352 
L 308.965525 234.8925 
L 309.531972 237.778549 
L 309.956844 239.224666 
L 310.098402 239.415144 
L 310.523261 239.395237 
L 310.80647 239.046823 
L 311.23125 237.748588 
L 311.939353 234.51707 
L 312.647402 230.144376 
L 313.497144 223.067018 
L 314.771843 209.003558 
L 315.621663 197.465358 
L 317.463022 166.46783 
L 319.162806 134.293915 
L 320.43767 105.944457 
L 321.712544 72.523236 
L 324.403942 146.246305 
L 325.537134 169.069356 
L 326.528644 185.217027 
L 327.661772 199.52693 
L 328.228317 203.948865 
L 328.653235 205.425683 
L 328.794844 205.630088 
L 329.078102 205.630088 
L 329.219756 205.481785 
L 329.503019 204.528007 
L 329.786287 202.763476 
L 330.211188 198.192731 
L 330.777764 188.567733 
L 331.486011 171.778405 
L 332.194267 149.587391 
L 332.902534 121.256923 
L 333.469149 143.144495 
L 334.319064 171.173823 
L 335.168959 191.622505 
L 335.735538 201.085932 
L 336.160444 205.693906 
L 336.443715 207.364717 
L 336.726981 208.008588 
L 337.010242 208.008588 
L 337.151896 207.468313 
L 337.43517 204.39096 
L 337.860097 195.675434 
L 338.285051 182.606939 
L 338.851663 157.169033 
L 339.13497 144.686353 
L 339.843217 155.211612 
L 340.126506 156.054162 
L 340.551446 156.14331 
L 341.118018 156.075804 
L 341.401306 155.667226 
L 341.82623 154.447072 
L 342.392812 151.870351 
L 343.667637 144.952787 
L 346.642235 126.849972 
L 347.633781 121.357786 
L 348.34202 118.236723 
L 349.758509 113.244141 
L 350.325106 111.405412 
L 350.891704 108.748244 
L 351.458305 105.227219 
L 352.591511 96.389448 
L 353.441419 88.079845 
L 354.432984 76.173583 
L 356.132812 54.21129 
L 356.274464 53.568 
L 398.487273 53.568 
L 398.487273 53.568 
" style="fill:none;stroke:#1f77b4;stroke-linecap:square;stroke-width:1.5;"/>
   </g>
   <g id="line2d_13">
    <path clip-path="url(#pb33e6a9569)" d="M 73.832727 53.568 
L 100.041387 53.568 
L 100.378124 55.639345 
L 100.378124 55.639345 
L 100.822181 62.688086 
L 100.822181 62.688086 
L 101.471861 75.920303 
L 103.003844 107.263367 
L 103.867297 122.782635 
L 104.963912 141.297472 
L 106.006359 156.590436 
L 106.758308 165.834836 
L 107.810007 176.464523 
L 107.810007 176.464523 
L 108.363031 179.992041 
L 108.755118 181.035262 
L 108.755118 181.035262 
L 109.068122 181.310007 
L 109.068122 181.310007 
L 109.302807 181.267147 
L 109.615915 180.915041 
L 109.851174 180.203431 
L 110.245105 178.025838 
L 110.562947 175.148561 
L 111.128965 167.275257 
L 111.884279 153.834419 
L 112.228015 151.653732 
L 112.400514 151.213994 
L 112.573086 151.28948 
L 112.831168 153.247009 
L 113.594174 160.017202 
L 113.929074 161.418783 
L 114.262958 161.9677 
L 114.596632 161.858085 
L 114.847061 161.572989 
L 115.265207 160.64502 
L 115.685036 159.04297 
L 115.685036 159.04297 
L 116.277558 155.443117 
L 116.964918 149.445152 
L 117.846617 138.432615 
L 118.763108 123.383898 
L 119.529052 108.0352 
L 120.537109 87.408109 
L 120.953293 83.150994 
L 121.267545 81.810242 
L 121.267545 81.810242 
L 121.372476 81.647335 
L 121.477419 81.729344 
L 121.791319 84.213127 
L 122.408706 95.012344 
L 123.971944 120.249735 
L 124.628235 126.055934 
L 124.999351 127.829822 
L 125.369134 128.633458 
L 125.738337 128.960632 
L 126.199629 128.96439 
L 126.84567 128.710687 
L 127.307549 128.338197 
L 128.140781 127.150543 
L 128.140781 127.150543 
L 129.070473 125.468749 
L 130.098794 123.286702 
L 134.476471 112.739638 
L 135.738011 109.384507 
L 135.738011 109.384507 
L 136.324719 107.271833 
L 137.014022 104.234379 
L 137.909449 99.64194 
L 139.327489 90.613904 
L 139.327489 90.613904 
L 140.889987 78.11433 
L 142.069872 68.36446 
L 142.833714 64.088906 
L 143.604359 61.048807 
L 143.604359 61.048807 
L 144.379841 58.887168 
L 145.158761 57.350153 
L 145.940128 56.25727 
L 146.835216 55.38926 
L 147.844007 54.742766 
L 148.966347 54.289728 
L 148.966347 54.289728 
L 150.426767 53.951109 
L 152.450238 53.727397 
L 155.936543 53.603204 
L 160.660676 53.62153 
L 160.660676 53.62153 
L 160.996986 56.723118 
L 161.438372 66.701749 
L 161.972478 83.022645 
L 161.972478 83.022645 
L 163.809314 138.592128 
L 164.842482 164.039588 
L 166.786621 199.118564 
L 166.786621 199.118564 
L 167.648406 210.443315 
L 167.648406 210.443315 
L 168.275442 215.380285 
L 168.619983 216.56907 
L 168.963464 217.036479 
L 169.306561 217.178384 
L 169.306561 217.178384 
L 169.786878 217.057393 
L 170.336406 216.610391 
L 170.956274 215.668124 
L 170.956274 215.668124 
L 171.648277 214.200002 
L 172.414875 211.926639 
L 173.118526 209.1705 
L 173.687558 206.220207 
L 174.336469 201.900669 
L 174.336469 201.900669 
L 175.520237 191.941981 
L 175.520237 191.941981 
L 176.989429 176.924335 
L 178.879177 155.927444 
L 181.556177 123.247857 
L 181.556177 123.247857 
L 182.706801 107.224498 
L 182.706801 107.224498 
L 184.752159 77.009599 
L 184.752159 77.009599 
L 185.502249 70.235963 
L 186.263115 65.419623 
L 187.031644 61.995003 
L 187.694785 59.859095 
L 187.916477 59.609686 
L 188.247957 62.769965 
L 188.247957 62.769965 
L 188.790089 75.336126 
L 190.657567 137.600915 
L 190.657567 137.600915 
L 191.919437 178.162027 
L 192.972312 205.785484 
L 195.919612 266.463071 
L 195.919612 266.463071 
L 196.46443 272.721167 
L 196.785191 274.312704 
L 196.785191 274.312704 
L 197.051276 274.702667 
L 197.263985 274.680695 
L 197.583435 274.186119 
L 197.904309 272.836298 
L 198.282294 270.271357 
L 198.282294 270.271357 
L 198.945037 263.414676 
L 198.945037 263.414676 
L 199.516998 255.722656 
L 200.172567 245.450282 
L 201.253143 225.787448 
L 202.583423 196.542279 
L 203.590741 170.374094 
L 204.882524 131.993999 
L 205.934007 101.795921 
L 205.934007 101.795921 
L 206.644662 87.860081 
L 207.377489 77.951113 
L 208.126081 70.905419 
L 208.885882 65.895635 
L 208.885882 65.895635 
L 209.653654 62.333467 
L 210.427093 59.800616 
L 211.204561 57.999652 
L 211.984895 56.719091 
L 211.984895 56.719091 
L 212.879162 55.70202 
L 212.879162 55.70202 
L 213.775237 55.013227 
L 213.775237 55.013227 
L 214.897004 54.455887 
L 216.244641 54.062839 
L 218.0429 53.794955 
L 218.155324 53.784163 
L 218.267697 54.175181 
L 218.267697 54.175181 
L 218.714981 58.499206 
L 218.714981 58.499206 
L 219.480632 72.705383 
L 220.31807 92.900097 
L 222.910059 157.546681 
L 224.447975 182.712114 
L 225.139959 189.359102 
L 225.593621 192.432578 
L 225.96893 193.641934 
L 226.34313 194.139489 
L 226.642194 194.233525 
L 226.8665 194.116776 
L 227.090987 193.79673 
L 227.541227 192.457548 
L 228.070225 189.734503 
L 228.451909 186.762895 
L 228.994167 181.294756 
L 229.709563 171.533896 
L 230.53683 156.867444 
L 231.500092 134.977628 
L 231.500092 134.977628 
L 233.241788 91.123397 
L 233.969423 80.271467 
L 234.714323 72.555289 
L 234.714323 72.555289 
L 235.471499 67.068761 
L 236.237404 63.167609 
L 237.009516 60.393726 
L 237.78604 58.421379 
L 237.78604 58.421379 
L 238.565703 57.018956 
L 239.347597 56.021775 
L 240.243104 55.229775 
L 241.252207 54.639894 
L 242.487076 54.195214 
L 244.060136 53.885108 
L 244.060136 53.885108 
L 244.734593 53.804733 
L 245.071514 54.793234 
L 245.518341 58.254948 
L 246.290008 65.815483 
L 246.290008 65.815483 
L 247.260635 75.816479 
L 249.035204 90.57578 
L 250.05103 97.46007 
L 250.05103 97.46007 
L 250.553118 99.518456 
L 251.252405 101.246014 
L 251.252405 101.246014 
L 251.650992 101.549538 
L 251.650992 101.549538 
L 252.049479 101.477834 
L 252.049479 101.477834 
L 252.547869 101.112031 
L 253.046912 100.493122 
L 253.647239 99.226821 
L 253.647239 99.226821 
L 254.250156 97.27623 
L 254.856907 94.429804 
L 254.856907 94.429804 
L 255.468771 90.920104 
L 256.502993 83.418274 
L 256.502993 83.418274 
L 258.750928 65.483904 
L 259.519353 62.040709 
L 259.519353 62.040709 
L 260.293257 59.592453 
L 261.071057 57.851639 
L 261.851626 56.613848 
L 262.74608 55.630746 
L 263.642283 54.964957 
L 264.764152 54.426233 
L 266.111862 54.046312 
L 267.910173 53.787375 
L 270.72141 53.632899 
L 270.72141 53.632899 
L 276.907671 53.572452 
L 285.231427 53.568121 
L 285.343843 54.069701 
L 285.678884 59.274853 
L 286.008493 68.047587 
L 286.008493 68.047587 
L 287.141448 111.380658 
L 289.085244 199.151666 
L 290.780951 254.941235 
L 290.780951 254.941235 
L 292.671832 293.325943 
L 292.671832 293.325943 
L 292.959482 294.856843 
L 293.198028 295.268201 
L 293.4364 295.127277 
L 293.4364 295.127277 
L 293.579602 294.837097 
L 293.77105 294.16927 
L 294.205928 291.213904 
L 294.205928 291.213904 
L 294.801089 284.345395 
L 294.801089 284.345395 
L 295.529852 272.838797 
L 296.423962 255.709313 
L 300.487427 166.110832 
L 300.487427 166.110832 
L 301.762436 146.462861 
L 303.578962 122.794832 
L 303.766978 122.274423 
L 303.86105 122.17037 
L 303.955024 123.00397 
L 304.417582 134.122136 
L 304.417582 134.122136 
L 306.595082 202.890702 
L 307.15941 216.112655 
L 308.2913 231.604594 
L 308.2913 231.604594 
L 309.186086 237.186136 
L 309.564233 238.632941 
L 309.564233 238.632941 
L 309.878093 239.142742 
L 310.19155 239.267603 
L 310.63045 239.087118 
L 311.070064 238.495727 
L 311.070064 238.495727 
L 311.637567 237.157667 
L 312.272979 234.830709 
L 312.851164 231.947238 
L 312.851164 231.947238 
L 313.437387 228.137545 
L 314.100803 222.87413 
L 315.056282 213.792969 
L 316.196956 199.951687 
L 317.957027 174.230675 
L 317.957027 174.230675 
L 319.284401 152.353057 
L 319.284401 152.353057 
L 321.870153 105.780702 
L 321.870153 105.780702 
L 322.166169 104.518306 
L 322.265005 104.400141 
L 322.265005 104.400141 
L 322.462533 105.018031 
L 322.757107 108.885302 
L 323.238393 119.610751 
L 324.243936 143.799603 
L 325.017337 160.853623 
L 326.459881 185.814679 
L 326.459881 185.814679 
L 327.876906 202.22039 
L 328.382649 204.661504 
L 328.670165 205.213553 
L 328.957352 205.287149 
L 329.244625 205.082404 
L 329.604302 204.336911 
L 329.89304 203.224771 
L 330.256136 201.049149 
L 330.256136 201.049149 
L 330.845207 195.406616 
L 330.845207 195.406616 
L 331.373309 187.615027 
L 332.158159 171.978976 
L 332.904871 156.88312 
L 333.245189 154.937909 
L 333.330497 154.86484 
L 333.585652 157.281089 
L 333.754352 159.976677 
L 333.754352 159.976677 
L 335.180256 193.470692 
L 335.696934 201.487744 
L 336.201921 205.976991 
L 336.201921 205.976991 
L 336.558935 207.301093 
L 336.701388 207.441872 
L 336.843827 207.390432 
L 336.986328 207.196579 
L 337.200395 206.582917 
L 337.558986 204.307864 
L 337.848708 201.280357 
L 338.14236 196.940485 
L 339.383528 172.855543 
L 339.951879 167.957762 
L 340.610677 164.145819 
L 341.527477 160.408066 
L 342.624834 155.975473 
L 343.911978 149.920483 
L 345.848412 139.448234 
L 348.034128 127.488123 
L 349.342932 121.458568 
L 351.732497 111.175387 
L 352.907721 104.125324 
L 353.906865 96.44788 
L 353.906865 96.44788 
L 355.03288 85.854698 
L 356.730949 69.467453 
L 357.493037 64.87318 
L 358.262434 61.606459 
L 359.037029 59.283682 
L 359.037029 59.283682 
L 359.81532 57.632091 
L 360.596238 56.45774 
L 361.490971 55.525024 
L 362.499497 54.830339 
L 363.621652 54.343528 
L 365.081934 53.979667 
L 367.105314 53.73928 
L 367.105314 53.73928 
L 370.366623 53.609699 
L 378.915146 53.569028 
L 398.487273 53.568 
L 398.487273 53.568 
" style="fill:none;stroke:#ff7f0e;stroke-linecap:square;stroke-width:1.5;"/>
   </g>
   <g id="line2d_14">
    <path clip-path="url(#pb33e6a9569)" d="M 73.832727 53.568 
L 100.417249 53.568 
L 100.753051 55.639345 
L 101.195873 62.688086 
L 102.160278 82.04548 
L 103.761028 114.546384 
L 106.704568 160.749697 
L 107.607309 170.981817 
L 108.797735 180.261589 
L 109.110427 181.025377 
L 109.422568 181.305756 
L 109.656603 181.264024 
L 109.656603 181.264024 
L 109.968846 180.912471 
L 109.968846 180.912471 
L 110.281744 179.927721 
L 110.281744 179.927721 
L 110.596146 178.096168 
L 110.596146 178.096168 
L 110.992659 174.609389 
L 111.47672 167.597162 
L 111.890297 159.355433 
L 111.890297 159.355433 
L 112.229 154.007057 
L 112.229 154.007057 
L 112.571739 151.617384 
L 112.571739 151.617384 
L 112.743777 151.181021 
L 112.915884 151.267857 
L 112.915884 151.267857 
L 113.258889 153.854056 
L 113.258889 153.854056 
L 114.102145 160.733826 
L 114.43558 161.738517 
L 114.685198 161.933618 
L 114.934783 161.872226 
L 114.934783 161.872226 
L 115.184505 161.585208 
L 115.601451 160.70858 
L 115.601451 160.70858 
L 116.103993 158.728945 
L 116.525796 156.201106 
L 117.123134 151.345292 
L 117.731109 144.784457 
L 118.71658 130.433887 
L 118.71658 130.433887 
L 119.463321 116.963903 
L 119.463321 116.963903 
L 121.058027 85.278599 
L 121.058027 85.278599 
L 121.370254 82.728115 
L 121.579279 81.788895 
L 121.683924 81.627003 
L 121.893214 81.782421 
L 121.893214 81.782421 
L 122.102005 83.76045 
L 123.119955 101.482329 
L 123.119955 101.482329 
L 123.899865 114.76763 
L 123.899865 114.76763 
L 124.749539 124.389033 
L 125.213555 127.312093 
L 125.582687 128.407613 
L 125.951022 128.878076 
L 126.319051 128.990183 
L 126.871121 128.872111 
L 126.871121 128.872111 
L 127.423532 128.559791 
L 127.976676 127.95015 
L 127.976676 127.95015 
L 128.994066 126.292148 
L 130.390343 123.438838 
L 131.893384 120.072931 
L 133.12562 117.003668 
L 134.94619 112.487706 
L 135.913562 109.98151 
L 135.913562 109.98151 
L 136.59522 107.660702 
L 137.577807 103.323868 
L 138.875037 96.121284 
L 140.200713 86.873966 
L 141.775399 73.656147 
L 142.528714 67.856022 
L 143.291242 63.727385 
L 143.291242 63.727385 
L 144.060319 60.79175 
L 144.834054 58.70439 
L 145.6111 57.22019 
L 146.390501 56.164861 
L 146.390501 56.164861 
L 147.283265 55.326677 
L 147.283265 55.326677 
L 148.289375 54.702399 
L 149.520671 54.231789 
L 149.520671 54.231789 
L 151.089263 53.903599 
L 153.331535 53.694667 
L 157.256949 53.591022 
L 161.070654 53.621397 
L 161.406029 56.723047 
L 161.846189 66.701718 
L 162.378811 83.022634 
L 164.385488 143.936831 
L 164.385488 143.936831 
L 166.350985 186.434568 
L 166.350985 186.434568 
L 167.891562 209.01422 
L 168.657508 215.456503 
L 168.657508 215.456503 
L 169.001027 216.595613 
L 169.343531 217.045722 
L 169.685668 217.181603 
L 170.233071 217.041385 
L 170.644028 216.698721 
L 171.124395 216.049444 
L 171.124395 216.049444 
L 171.675134 215.05065 
L 171.675134 215.05065 
L 172.297734 213.527042 
L 173.2049 210.499412 
L 173.910906 207.342923 
L 173.910906 207.342923 
L 174.699342 202.356726 
L 175.504646 195.933084 
L 176.869367 182.707632 
L 176.869367 182.707632 
L 180.694987 139.526443 
L 182.066533 122.208845 
L 183.613725 99.95206 
L 185.158064 77.251623 
L 185.158064 77.251623 
L 185.905685 70.408053 
L 186.664164 65.541986 
L 187.430364 62.082008 
L 188.091541 59.924048 
L 188.312616 59.436653 
L 188.423214 59.458646 
L 188.643804 62.073888 
L 188.643804 62.073888 
L 189.18567 74.612487 
L 193.070107 198.82956 
L 196.019181 261.666007 
L 196.735024 271.705749 
L 196.735024 271.705749 
L 197.109272 274.10884 
L 197.374782 274.672139 
L 197.374782 274.672139 
L 197.639949 274.672517 
L 197.852193 274.482432 
L 198.118081 273.761783 
L 198.546638 271.382413 
L 199.202779 265.199525 
L 199.767614 258.090935 
L 199.767614 258.090935 
L 200.534279 246.443918 
L 202.006976 219.060986 
L 202.006976 219.060986 
L 203.219241 192.115202 
L 204.836761 146.605368 
L 206.527161 98.098485 
L 207.241708 85.231049 
L 207.97667 76.08176 
L 208.726148 69.576231 
L 208.726148 69.576231 
L 209.485947 64.950526 
L 210.253085 61.661455 
L 211.02544 59.322787 
L 211.801506 57.659896 
L 211.801506 57.659896 
L 212.580211 56.47751 
L 213.472421 55.538413 
L 214.478119 54.838975 
L 214.478119 54.838975 
L 215.597137 54.348834 
L 217.053346 53.982484 
L 218.622613 53.777555 
L 218.958457 55.320467 
L 218.958457 55.320467 
L 219.29182 60.099373 
L 219.621026 65.643797 
L 220.88337 94.778445 
L 221.952703 123.459447 
L 223.117016 151.391027 
L 224.59673 178.045325 
L 224.59673 178.045325 
L 225.219073 185.843734 
L 225.219073 185.843734 
L 225.978185 191.886731 
L 226.427733 193.577865 
L 226.427733 193.577865 
L 226.800945 194.117177 
L 227.099192 194.22224 
L 227.322878 194.149854 
L 227.322878 194.149854 
L 227.621354 193.761914 
L 227.621354 193.761914 
L 228.070393 192.431556 
L 228.446807 190.463405 
L 229.055954 185.822031 
L 229.677334 178.88631 
L 230.315965 169.661273 
L 231.232142 152.575074 
L 232.024499 134.168005 
L 233.766024 90.382332 
L 234.492813 79.744539 
L 234.492813 79.744539 
L 235.236479 72.180621 
L 235.992147 66.802356 
L 236.756346 62.978184 
L 237.526613 60.259037 
L 237.526613 60.259037 
L 238.301195 58.325609 
L 239.078843 56.95086 
L 239.858672 55.973356 
L 240.751776 55.196984 
L 241.758139 54.618743 
L 242.989623 54.182838 
L 244.558345 53.87885 
L 245.230936 53.800062 
L 245.566925 54.790753 
L 245.566925 54.790753 
L 246.123473 59.027084 
L 248.8008 85.11436 
L 250.836214 98.686555 
L 251.435205 100.636413 
L 251.435205 100.636413 
L 251.83311 101.341081 
L 251.83311 101.341081 
L 252.131193 101.553915 
L 252.528569 101.481436 
L 253.125009 101.056241 
L 253.622774 100.368931 
L 254.121709 99.307784 
L 254.722786 97.376133 
L 255.32766 94.556433 
L 256.039826 90.461059 
L 256.864348 84.542579 
L 258.021688 74.273076 
L 258.774034 68.29018 
L 258.774034 68.29018 
L 259.535872 64.036089 
L 260.30446 61.011252 
L 261.077847 58.860465 
L 261.854646 57.331166 
L 261.854646 57.331166 
L 262.633872 56.243769 
L 263.526498 55.380117 
L 264.532504 54.736869 
L 264.532504 54.736869 
L 265.651739 54.286105 
L 267.108112 53.949185 
L 269.125967 53.726597 
L 272.602589 53.603027 
L 272.602589 53.603027 
L 282.361275 53.568505 
L 285.726402 53.568117 
L 285.838506 54.069698 
L 286.061742 57.564961 
L 286.061742 57.564961 
L 286.820871 78.835132 
L 287.819573 119.984177 
L 290.581553 237.279004 
L 291.752752 269.02528 
L 293.170884 294.024069 
L 293.45707 295.069454 
L 293.694784 295.296344 
L 293.694784 295.296344 
L 293.884927 295.158479 
L 293.884927 295.158479 
L 294.02771 294.864056 
L 294.218601 294.191456 
L 294.65223 291.228214 
L 294.65223 291.228214 
L 295.346702 283.215187 
L 296.518462 263.258833 
L 296.518462 263.258833 
L 297.831983 234.552326 
L 300.174123 180.92689 
L 301.223376 161.906069 
L 301.223376 161.906069 
L 302.42242 144.042077 
L 304.151836 122.510905 
L 304.339364 122.285792 
L 304.433049 123.097439 
L 304.894245 134.154686 
L 307.067898 202.824106 
L 307.067898 202.824106 
L 307.630726 216.100339 
L 307.630726 216.100339 
L 308.037158 222.92556 
L 308.8234 232.070652 
L 309.334835 235.637771 
L 310.153621 238.878584 
L 310.466406 239.224502 
L 310.466406 239.224502 
L 310.716448 239.267723 
L 310.716448 239.267723 
L 311.091585 239.108805 
L 311.404528 238.782351 
L 311.969545 237.623363 
L 311.969545 237.623363 
L 312.665142 235.277689 
L 313.176156 232.87899 
L 313.82324 228.964717 
L 315.02023 219.201089 
L 316.059374 208.134206 
L 317.07502 194.901942 
L 317.07502 194.901942 
L 318.302117 177.010607 
L 318.302117 177.010607 
L 319.955323 149.745406 
L 319.955323 149.745406 
L 322.357601 106.019124 
L 322.652696 104.533764 
L 322.849841 104.301618 
L 322.948396 104.66177 
L 322.948396 104.66177 
L 323.339986 110.013234 
L 323.339986 110.013234 
L 323.629052 115.905029 
L 324.553336 138.160017 
L 325.754865 164.528007 
L 327.780749 195.914353 
L 328.294258 201.138385 
L 328.294258 201.138385 
L 328.800063 204.153866 
L 329.158805 205.115993 
L 329.158805 205.115993 
L 329.373637 205.306028 
L 329.731656 205.148015 
L 329.731656 205.148015 
L 329.946655 204.867214 
L 330.305795 203.847304 
L 330.305795 203.847304 
L 330.594398 202.457307 
L 330.594398 202.457307 
L 330.95777 199.890436 
L 331.548408 193.56391 
L 332.156307 183.643595 
L 332.788703 170.448724 
L 333.367697 158.05963 
L 333.367697 158.05963 
L 333.706254 155.442371 
L 333.706254 155.442371 
L 333.876252 155.02609 
L 334.130602 157.36672 
L 334.298796 160.032832 
L 335.64618 191.948021 
L 335.64618 191.948021 
L 336.309092 202.25502 
L 336.740198 205.967759 
L 337.096225 207.297878 
L 337.096225 207.297878 
L 337.238285 207.439763 
L 337.380328 207.388806 
L 337.380328 207.388806 
L 337.522435 207.195104 
L 337.735908 206.581642 
L 338.093506 204.306865 
L 338.382425 201.279535 
L 338.749254 195.709587 
L 340.07209 171.461407 
L 340.07209 171.461407 
L 340.640993 167.014865 
L 341.299632 163.501036 
L 342.551244 158.529649 
L 344.166664 151.385191 
L 345.999271 141.749469 
L 348.532064 127.836229 
L 350.024102 120.986686 
L 352.313267 111.150138 
L 353.485261 104.176157 
L 354.481489 96.558193 
L 354.481489 96.558193 
L 355.707657 84.917051 
L 355.707657 84.917051 
L 357.512683 68.135556 
L 358.274767 63.926145 
L 358.274767 63.926145 
L 359.043529 60.933077 
L 359.81704 58.80488 
L 360.593928 57.291642 
L 361.373216 56.215666 
L 361.373216 56.215666 
L 362.265892 55.361084 
L 362.265892 55.361084 
L 363.271936 54.724593 
L 364.391196 54.278562 
L 365.847589 53.945182 
L 365.847589 53.945182 
L 367.865457 53.724931 
L 371.342086 53.602659 
L 381.212944 53.568476 
L 398.487273 53.568 
L 398.487273 53.568 
" style="fill:none;stroke:#2ca02c;stroke-linecap:square;stroke-width:1.5;"/>
   </g>
   <g id="patch_3">
    <path d="M 57.6 307.584 
L 57.6 41.472 
" style="fill:none;stroke:#000000;stroke-linecap:square;stroke-linejoin:miter;stroke-width:0.8;"/>
   </g>
   <g id="patch_4">
    <path d="M 414.72 307.584 
L 414.72 41.472 
" style="fill:none;stroke:#000000;stroke-linecap:square;stroke-linejoin:miter;stroke-width:0.8;"/>
   </g>
   <g id="patch_5">
    <path d="M 57.6 307.584 
L 414.72 307.584 
" style="fill:none;stroke:#000000;stroke-linecap:square;stroke-linejoin:miter;stroke-width:0.8;"/>
   </g>
   <g id="patch_6">
    <path d="M 57.6 41.472 
L 414.72 41.472 
" style="fill:none;stroke:#000000;stroke-linecap:square;stroke-linejoin:miter;stroke-width:0.8;"/>
   </g>
   <g id="text_12">
    <!-- esp speed -->
    <g transform="translate(205.499063 35.472)scale(0.12 -0.12)">
     <defs>
      <path d="M 56.203125 29.59375 
L 56.203125 25.203125 
L 14.890625 25.203125 
Q 15.484375 15.921875 20.484375 11.0625 
Q 25.484375 6.203125 34.421875 6.203125 
Q 39.59375 6.203125 44.453125 7.46875 
Q 49.3125 8.734375 54.109375 11.28125 
L 54.109375 2.78125 
Q 49.265625 0.734375 44.1875 -0.34375 
Q 39.109375 -1.421875 33.890625 -1.421875 
Q 20.796875 -1.421875 13.15625 6.1875 
Q 5.515625 13.8125 5.515625 26.8125 
Q 5.515625 40.234375 12.765625 48.109375 
Q 20.015625 56 32.328125 56 
Q 43.359375 56 49.78125 48.890625 
Q 56.203125 41.796875 56.203125 29.59375 
z
M 47.21875 32.234375 
Q 47.125 39.59375 43.09375 43.984375 
Q 39.0625 48.390625 32.421875 48.390625 
Q 24.90625 48.390625 20.390625 44.140625 
Q 15.875 39.890625 15.1875 32.171875 
z
" id="DejaVuSans-101"/>
      <path d="M 44.28125 53.078125 
L 44.28125 44.578125 
Q 40.484375 46.53125 36.375 47.5 
Q 32.28125 48.484375 27.875 48.484375 
Q 21.1875 48.484375 17.84375 46.4375 
Q 14.5 44.390625 14.5 40.28125 
Q 14.5 37.15625 16.890625 35.375 
Q 19.28125 33.59375 26.515625 31.984375 
L 29.59375 31.296875 
Q 39.15625 29.25 43.1875 25.515625 
Q 47.21875 21.78125 47.21875 15.09375 
Q 47.21875 7.46875 41.1875 3.015625 
Q 35.15625 -1.421875 24.609375 -1.421875 
Q 20.21875 -1.421875 15.453125 -0.5625 
Q 10.6875 0.296875 5.421875 2 
L 5.421875 11.28125 
Q 10.40625 8.6875 15.234375 7.390625 
Q 20.0625 6.109375 24.8125 6.109375 
Q 31.15625 6.109375 34.5625 8.28125 
Q 37.984375 10.453125 37.984375 14.40625 
Q 37.984375 18.0625 35.515625 20.015625 
Q 33.0625 21.96875 24.703125 23.78125 
L 21.578125 24.515625 
Q 13.234375 26.265625 9.515625 29.90625 
Q 5.8125 33.546875 5.8125 39.890625 
Q 5.8125 47.609375 11.28125 51.796875 
Q 16.75 56 26.8125 56 
Q 31.78125 56 36.171875 55.265625 
Q 40.578125 54.546875 44.28125 53.078125 
z
" id="DejaVuSans-115"/>
      <path d="M 18.109375 8.203125 
L 18.109375 -20.796875 
L 9.078125 -20.796875 
L 9.078125 54.6875 
L 18.109375 54.6875 
L 18.109375 46.390625 
Q 20.953125 51.265625 25.265625 53.625 
Q 29.59375 56 35.59375 56 
Q 45.5625 56 51.78125 48.09375 
Q 58.015625 40.1875 58.015625 27.296875 
Q 58.015625 14.40625 51.78125 6.484375 
Q 45.5625 -1.421875 35.59375 -1.421875 
Q 29.59375 -1.421875 25.265625 0.953125 
Q 20.953125 3.328125 18.109375 8.203125 
z
M 48.6875 27.296875 
Q 48.6875 37.203125 44.609375 42.84375 
Q 40.53125 48.484375 33.40625 48.484375 
Q 26.265625 48.484375 22.1875 42.84375 
Q 18.109375 37.203125 18.109375 27.296875 
Q 18.109375 17.390625 22.1875 11.75 
Q 26.265625 6.109375 33.40625 6.109375 
Q 40.53125 6.109375 44.609375 11.75 
Q 48.6875 17.390625 48.6875 27.296875 
z
" id="DejaVuSans-112"/>
      <path id="DejaVuSans-32"/>
      <path d="M 45.40625 46.390625 
L 45.40625 75.984375 
L 54.390625 75.984375 
L 54.390625 0 
L 45.40625 0 
L 45.40625 8.203125 
Q 42.578125 3.328125 38.25 0.953125 
Q 33.9375 -1.421875 27.875 -1.421875 
Q 17.96875 -1.421875 11.734375 6.484375 
Q 5.515625 14.40625 5.515625 27.296875 
Q 5.515625 40.1875 11.734375 48.09375 
Q 17.96875 56 27.875 56 
Q 33.9375 56 38.25 53.625 
Q 42.578125 51.265625 45.40625 46.390625 
z
M 14.796875 27.296875 
Q 14.796875 17.390625 18.875 11.75 
Q 22.953125 6.109375 30.078125 6.109375 
Q 37.203125 6.109375 41.296875 11.75 
Q 45.40625 17.390625 45.40625 27.296875 
Q 45.40625 37.203125 41.296875 42.84375 
Q 37.203125 48.484375 30.078125 48.484375 
Q 22.953125 48.484375 18.875 42.84375 
Q 14.796875 37.203125 14.796875 27.296875 
z
" id="DejaVuSans-100"/>
     </defs>
     <use xlink:href="#DejaVuSans-101"/>
     <use x="61.523438" xlink:href="#DejaVuSans-115"/>
     <use x="113.623047" xlink:href="#DejaVuSans-112"/>
     <use x="177.099609" xlink:href="#DejaVuSans-32"/>
     <use x="208.886719" xlink:href="#DejaVuSans-115"/>
     <use x="260.986328" xlink:href="#DejaVuSans-112"/>
     <use x="324.462891" xlink:href="#DejaVuSans-101"/>
     <use x="385.986328" xlink:href="#DejaVuSans-101"/>
     <use x="447.509766" xlink:href="#DejaVuSans-100"/>
    </g>
   </g>
   <g id="legend_1">
    <g id="patch_7">
     <path d="M 64.6 302.584 
L 156.557813 302.584 
Q 158.557813 302.584 158.557813 300.584 
L 158.557813 257.549625 
Q 158.557813 255.549625 156.557813 255.549625 
L 64.6 255.549625 
Q 62.6 255.549625 62.6 257.549625 
L 62.6 300.584 
Q 62.6 302.584 64.6 302.584 
z
" style="fill:#ffffff;opacity:0.8;stroke:#cccccc;stroke-linejoin:miter;"/>
    </g>
    <g id="line2d_15">
     <path d="M 66.6 263.648062 
L 86.6 263.648062 
" style="fill:none;stroke:#1f77b4;stroke-linecap:square;stroke-width:1.5;"/>
    </g>
    <g id="line2d_16"/>
    <g id="text_13">
     <!-- Waypoints -->
     <g transform="translate(94.6 267.148062)scale(0.1 -0.1)">
      <defs>
       <path d="M 3.328125 72.90625 
L 13.28125 72.90625 
L 28.609375 11.28125 
L 43.890625 72.90625 
L 54.984375 72.90625 
L 70.3125 11.28125 
L 85.59375 72.90625 
L 95.609375 72.90625 
L 77.296875 0 
L 64.890625 0 
L 49.515625 63.28125 
L 33.984375 0 
L 21.578125 0 
z
" id="DejaVuSans-87"/>
       <path d="M 34.28125 27.484375 
Q 23.390625 27.484375 19.1875 25 
Q 14.984375 22.515625 14.984375 16.5 
Q 14.984375 11.71875 18.140625 8.90625 
Q 21.296875 6.109375 26.703125 6.109375 
Q 34.1875 6.109375 38.703125 11.40625 
Q 43.21875 16.703125 43.21875 25.484375 
L 43.21875 27.484375 
z
M 52.203125 31.203125 
L 52.203125 0 
L 43.21875 0 
L 43.21875 8.296875 
Q 40.140625 3.328125 35.546875 0.953125 
Q 30.953125 -1.421875 24.3125 -1.421875 
Q 15.921875 -1.421875 10.953125 3.296875 
Q 6 8.015625 6 15.921875 
Q 6 25.140625 12.171875 29.828125 
Q 18.359375 34.515625 30.609375 34.515625 
L 43.21875 34.515625 
L 43.21875 35.40625 
Q 43.21875 41.609375 39.140625 45 
Q 35.0625 48.390625 27.6875 48.390625 
Q 23 48.390625 18.546875 47.265625 
Q 14.109375 46.140625 10.015625 43.890625 
L 10.015625 52.203125 
Q 14.9375 54.109375 19.578125 55.046875 
Q 24.21875 56 28.609375 56 
Q 40.484375 56 46.34375 49.84375 
Q 52.203125 43.703125 52.203125 31.203125 
z
" id="DejaVuSans-97"/>
       <path d="M 32.171875 -5.078125 
Q 28.375 -14.84375 24.75 -17.8125 
Q 21.140625 -20.796875 15.09375 -20.796875 
L 7.90625 -20.796875 
L 7.90625 -13.28125 
L 13.1875 -13.28125 
Q 16.890625 -13.28125 18.9375 -11.515625 
Q 21 -9.765625 23.484375 -3.21875 
L 25.09375 0.875 
L 2.984375 54.6875 
L 12.5 54.6875 
L 29.59375 11.921875 
L 46.6875 54.6875 
L 56.203125 54.6875 
z
" id="DejaVuSans-121"/>
       <path d="M 30.609375 48.390625 
Q 23.390625 48.390625 19.1875 42.75 
Q 14.984375 37.109375 14.984375 27.296875 
Q 14.984375 17.484375 19.15625 11.84375 
Q 23.34375 6.203125 30.609375 6.203125 
Q 37.796875 6.203125 41.984375 11.859375 
Q 46.1875 17.53125 46.1875 27.296875 
Q 46.1875 37.015625 41.984375 42.703125 
Q 37.796875 48.390625 30.609375 48.390625 
z
M 30.609375 56 
Q 42.328125 56 49.015625 48.375 
Q 55.71875 40.765625 55.71875 27.296875 
Q 55.71875 13.875 49.015625 6.21875 
Q 42.328125 -1.421875 30.609375 -1.421875 
Q 18.84375 -1.421875 12.171875 6.21875 
Q 5.515625 13.875 5.515625 27.296875 
Q 5.515625 40.765625 12.171875 48.375 
Q 18.84375 56 30.609375 56 
z
" id="DejaVuSans-111"/>
       <path d="M 9.421875 54.6875 
L 18.40625 54.6875 
L 18.40625 0 
L 9.421875 0 
z
M 9.421875 75.984375 
L 18.40625 75.984375 
L 18.40625 64.59375 
L 9.421875 64.59375 
z
" id="DejaVuSans-105"/>
       <path d="M 54.890625 33.015625 
L 54.890625 0 
L 45.90625 0 
L 45.90625 32.71875 
Q 45.90625 40.484375 42.875 44.328125 
Q 39.84375 48.1875 33.796875 48.1875 
Q 26.515625 48.1875 22.3125 43.546875 
Q 18.109375 38.921875 18.109375 30.90625 
L 18.109375 0 
L 9.078125 0 
L 9.078125 54.6875 
L 18.109375 54.6875 
L 18.109375 46.1875 
Q 21.34375 51.125 25.703125 53.5625 
Q 30.078125 56 35.796875 56 
Q 45.21875 56 50.046875 50.171875 
Q 54.890625 44.34375 54.890625 33.015625 
z
" id="DejaVuSans-110"/>
       <path d="M 18.3125 70.21875 
L 18.3125 54.6875 
L 36.8125 54.6875 
L 36.8125 47.703125 
L 18.3125 47.703125 
L 18.3125 18.015625 
Q 18.3125 11.328125 20.140625 9.421875 
Q 21.96875 7.515625 27.59375 7.515625 
L 36.8125 7.515625 
L 36.8125 0 
L 27.59375 0 
Q 17.1875 0 13.234375 3.875 
Q 9.28125 7.765625 9.28125 18.015625 
L 9.28125 47.703125 
L 2.6875 47.703125 
L 2.6875 54.6875 
L 9.28125 54.6875 
L 9.28125 70.21875 
z
" id="DejaVuSans-116"/>
      </defs>
      <use xlink:href="#DejaVuSans-87"/>
      <use x="92.501953" xlink:href="#DejaVuSans-97"/>
      <use x="153.78125" xlink:href="#DejaVuSans-121"/>
      <use x="212.960938" xlink:href="#DejaVuSans-112"/>
      <use x="276.4375" xlink:href="#DejaVuSans-111"/>
      <use x="337.619141" xlink:href="#DejaVuSans-105"/>
      <use x="365.402344" xlink:href="#DejaVuSans-110"/>
      <use x="428.78125" xlink:href="#DejaVuSans-116"/>
      <use x="467.990234" xlink:href="#DejaVuSans-115"/>
     </g>
    </g>
    <g id="line2d_17">
     <path d="M 66.6 278.326188 
L 86.6 278.326188 
" style="fill:none;stroke:#ff7f0e;stroke-linecap:square;stroke-width:1.5;"/>
    </g>
    <g id="line2d_18"/>
    <g id="text_14">
     <!-- Stanley -->
     <g transform="translate(94.6 281.826188)scale(0.1 -0.1)">
      <defs>
       <path d="M 53.515625 70.515625 
L 53.515625 60.890625 
Q 47.90625 63.578125 42.921875 64.890625 
Q 37.9375 66.21875 33.296875 66.21875 
Q 25.25 66.21875 20.875 63.09375 
Q 16.5 59.96875 16.5 54.203125 
Q 16.5 49.359375 19.40625 46.890625 
Q 22.3125 44.4375 30.421875 42.921875 
L 36.375 41.703125 
Q 47.40625 39.59375 52.65625 34.296875 
Q 57.90625 29 57.90625 20.125 
Q 57.90625 9.515625 50.796875 4.046875 
Q 43.703125 -1.421875 29.984375 -1.421875 
Q 24.8125 -1.421875 18.96875 -0.25 
Q 13.140625 0.921875 6.890625 3.21875 
L 6.890625 13.375 
Q 12.890625 10.015625 18.65625 8.296875 
Q 24.421875 6.59375 29.984375 6.59375 
Q 38.421875 6.59375 43.015625 9.90625 
Q 47.609375 13.234375 47.609375 19.390625 
Q 47.609375 24.75 44.3125 27.78125 
Q 41.015625 30.8125 33.5 32.328125 
L 27.484375 33.5 
Q 16.453125 35.6875 11.515625 40.375 
Q 6.59375 45.0625 6.59375 53.421875 
Q 6.59375 63.09375 13.40625 68.65625 
Q 20.21875 74.21875 32.171875 74.21875 
Q 37.3125 74.21875 42.625 73.28125 
Q 47.953125 72.359375 53.515625 70.515625 
z
" id="DejaVuSans-83"/>
       <path d="M 9.421875 75.984375 
L 18.40625 75.984375 
L 18.40625 0 
L 9.421875 0 
z
" id="DejaVuSans-108"/>
      </defs>
      <use xlink:href="#DejaVuSans-83"/>
      <use x="63.476562" xlink:href="#DejaVuSans-116"/>
      <use x="102.685547" xlink:href="#DejaVuSans-97"/>
      <use x="163.964844" xlink:href="#DejaVuSans-110"/>
      <use x="227.34375" xlink:href="#DejaVuSans-108"/>
      <use x="255.126953" xlink:href="#DejaVuSans-101"/>
      <use x="316.650391" xlink:href="#DejaVuSans-121"/>
     </g>
    </g>
    <g id="line2d_19">
     <path d="M 66.6 293.004312 
L 86.6 293.004312 
" style="fill:none;stroke:#2ca02c;stroke-linecap:square;stroke-width:1.5;"/>
    </g>
    <g id="line2d_20"/>
    <g id="text_15">
     <!-- Pure Pursuit -->
     <g transform="translate(94.6 296.504312)scale(0.1 -0.1)">
      <defs>
       <path d="M 19.671875 64.796875 
L 19.671875 37.40625 
L 32.078125 37.40625 
Q 38.96875 37.40625 42.71875 40.96875 
Q 46.484375 44.53125 46.484375 51.125 
Q 46.484375 57.671875 42.71875 61.234375 
Q 38.96875 64.796875 32.078125 64.796875 
z
M 9.8125 72.90625 
L 32.078125 72.90625 
Q 44.34375 72.90625 50.609375 67.359375 
Q 56.890625 61.8125 56.890625 51.125 
Q 56.890625 40.328125 50.609375 34.8125 
Q 44.34375 29.296875 32.078125 29.296875 
L 19.671875 29.296875 
L 19.671875 0 
L 9.8125 0 
z
" id="DejaVuSans-80"/>
       <path d="M 8.5 21.578125 
L 8.5 54.6875 
L 17.484375 54.6875 
L 17.484375 21.921875 
Q 17.484375 14.15625 20.5 10.265625 
Q 23.53125 6.390625 29.59375 6.390625 
Q 36.859375 6.390625 41.078125 11.03125 
Q 45.3125 15.671875 45.3125 23.6875 
L 45.3125 54.6875 
L 54.296875 54.6875 
L 54.296875 0 
L 45.3125 0 
L 45.3125 8.40625 
Q 42.046875 3.421875 37.71875 1 
Q 33.40625 -1.421875 27.6875 -1.421875 
Q 18.265625 -1.421875 13.375 4.4375 
Q 8.5 10.296875 8.5 21.578125 
z
M 31.109375 56 
z
" id="DejaVuSans-117"/>
       <path d="M 41.109375 46.296875 
Q 39.59375 47.171875 37.8125 47.578125 
Q 36.03125 48 33.890625 48 
Q 26.265625 48 22.1875 43.046875 
Q 18.109375 38.09375 18.109375 28.8125 
L 18.109375 0 
L 9.078125 0 
L 9.078125 54.6875 
L 18.109375 54.6875 
L 18.109375 46.1875 
Q 20.953125 51.171875 25.484375 53.578125 
Q 30.03125 56 36.53125 56 
Q 37.453125 56 38.578125 55.875 
Q 39.703125 55.765625 41.0625 55.515625 
z
" id="DejaVuSans-114"/>
      </defs>
      <use xlink:href="#DejaVuSans-80"/>
      <use x="58.552734" xlink:href="#DejaVuSans-117"/>
      <use x="121.931641" xlink:href="#DejaVuSans-114"/>
      <use x="160.794922" xlink:href="#DejaVuSans-101"/>
      <use x="222.318359" xlink:href="#DejaVuSans-32"/>
      <use x="254.105469" xlink:href="#DejaVuSans-80"/>
      <use x="312.658203" xlink:href="#DejaVuSans-117"/>
      <use x="376.037109" xlink:href="#DejaVuSans-114"/>
      <use x="417.150391" xlink:href="#DejaVuSans-115"/>
      <use x="469.25" xlink:href="#DejaVuSans-117"/>
      <use x="532.628906" xlink:href="#DejaVuSans-105"/>
      <use x="560.412109" xlink:href="#DejaVuSans-116"/>
     </g>
    </g>
   </g>
  </g>
 </g>
 <defs>
  <clipPath id="pb33e6a9569">
   <rect height="266.112" width="357.12" x="57.6" y="41.472"/>
  </clipPath>
 </defs>
</svg>
