<?xml version="1.0" encoding="utf-8" standalone="no"?>
<!DOCTYPE svg PUBLIC "-//W3C//DTD SVG 1.1//EN"
  "http://www.w3.org/Graphics/SVG/1.1/DTD/svg11.dtd">
<!-- Created with matplotlib (https://matplotlib.org/) -->
<svg height="345.6pt" version="1.1" viewBox="0 0 460.8 345.6" width="460.8pt" xmlns="http://www.w3.org/2000/svg" xmlns:xlink="http://www.w3.org/1999/xlink">
 <metadata>
  <rdf:RDF xmlns:cc="http://creativecommons.org/ns#" xmlns:dc="http://purl.org/dc/elements/1.1/" xmlns:rdf="http://www.w3.org/1999/02/22-rdf-syntax-ns#">
   <cc:Work>
    <dc:type rdf:resource="http://purl.org/dc/dcmitype/StillImage"/>
    <dc:date>2024-10-03T15:12:54.755819</dc:date>
    <dc:format>image/svg+xml</dc:format>
    <dc:creator>
     <cc:Agent>
      <dc:title>Matplotlib v3.3.1, https://matplotlib.org/</dc:title>
     </cc:Agent>
    </dc:creator>
   </cc:Work>
  </rdf:RDF>
 </metadata>
 <defs>
  <style type="text/css">*{stroke-linecap:butt;stroke-linejoin:round;}</style>
 </defs>
 <g id="figure_1">
  <g id="patch_1">
   <path d="M 0 345.6 
L 460.8 345.6 
L 460.8 0 
L 0 0 
z
" style="fill:#ffffff;"/>
  </g>
  <g id="axes_1">
   <g id="patch_2">
    <path d="M 57.6 307.584 
L 414.72 307.584 
L 414.72 41.472 
L 57.6 41.472 
z
" style="fill:#ffffff;"/>
   </g>
   <g id="matplotlib.axis_1">
    <g id="xtick_1">
     <g id="line2d_1">
      <defs>
       <path d="M 0 0 
L 0 3.5 
" id="m4f90572a8a" style="stroke:#000000;stroke-width:0.8;"/>
      </defs>
      <g>
       <use style="stroke:#000000;stroke-width:0.8;" x="73.832727" xlink:href="#m4f90572a8a" y="307.584"/>
      </g>
     </g>
     <g id="text_1">
      <!-- 0.0 -->
      <g transform="translate(65.881165 322.182437)scale(0.1 -0.1)">
       <defs>
        <path d="M 31.78125 66.40625 
Q 24.171875 66.40625 20.328125 58.90625 
Q 16.5 51.421875 16.5 36.375 
Q 16.5 21.390625 20.328125 13.890625 
Q 24.171875 6.390625 31.78125 6.390625 
Q 39.453125 6.390625 43.28125 13.890625 
Q 47.125 21.390625 47.125 36.375 
Q 47.125 51.421875 43.28125 58.90625 
Q 39.453125 66.40625 31.78125 66.40625 
z
M 31.78125 74.21875 
Q 44.046875 74.21875 50.515625 64.515625 
Q 56.984375 54.828125 56.984375 36.375 
Q 56.984375 17.96875 50.515625 8.265625 
Q 44.046875 -1.421875 31.78125 -1.421875 
Q 19.53125 -1.421875 13.0625 8.265625 
Q 6.59375 17.96875 6.59375 36.375 
Q 6.59375 54.828125 13.0625 64.515625 
Q 19.53125 74.21875 31.78125 74.21875 
z
" id="DejaVuSans-48"/>
        <path d="M 10.6875 12.40625 
L 21 12.40625 
L 21 0 
L 10.6875 0 
z
" id="DejaVuSans-46"/>
       </defs>
       <use xlink:href="#DejaVuSans-48"/>
       <use x="63.623047" xlink:href="#DejaVuSans-46"/>
       <use x="95.410156" xlink:href="#DejaVuSans-48"/>
      </g>
     </g>
    </g>
    <g id="xtick_2">
     <g id="line2d_2">
      <g>
       <use style="stroke:#000000;stroke-width:0.8;" x="138.763636" xlink:href="#m4f90572a8a" y="307.584"/>
      </g>
     </g>
     <g id="text_2">
      <!-- 0.2 -->
      <g transform="translate(130.812074 322.182437)scale(0.1 -0.1)">
       <defs>
        <path d="M 19.1875 8.296875 
L 53.609375 8.296875 
L 53.609375 0 
L 7.328125 0 
L 7.328125 8.296875 
Q 12.9375 14.109375 22.625 23.890625 
Q 32.328125 33.6875 34.8125 36.53125 
Q 39.546875 41.84375 41.421875 45.53125 
Q 43.3125 49.21875 43.3125 52.78125 
Q 43.3125 58.59375 39.234375 62.25 
Q 35.15625 65.921875 28.609375 65.921875 
Q 23.96875 65.921875 18.8125 64.3125 
Q 13.671875 62.703125 7.8125 59.421875 
L 7.8125 69.390625 
Q 13.765625 71.78125 18.9375 73 
Q 24.125 74.21875 28.421875 74.21875 
Q 39.75 74.21875 46.484375 68.546875 
Q 53.21875 62.890625 53.21875 53.421875 
Q 53.21875 48.921875 51.53125 44.890625 
Q 49.859375 40.875 45.40625 35.40625 
Q 44.1875 33.984375 37.640625 27.21875 
Q 31.109375 20.453125 19.1875 8.296875 
z
" id="DejaVuSans-50"/>
       </defs>
       <use xlink:href="#DejaVuSans-48"/>
       <use x="63.623047" xlink:href="#DejaVuSans-46"/>
       <use x="95.410156" xlink:href="#DejaVuSans-50"/>
      </g>
     </g>
    </g>
    <g id="xtick_3">
     <g id="line2d_3">
      <g>
       <use style="stroke:#000000;stroke-width:0.8;" x="203.694545" xlink:href="#m4f90572a8a" y="307.584"/>
      </g>
     </g>
     <g id="text_3">
      <!-- 0.4 -->
      <g transform="translate(195.742983 322.182437)scale(0.1 -0.1)">
       <defs>
        <path d="M 37.796875 64.3125 
L 12.890625 25.390625 
L 37.796875 25.390625 
z
M 35.203125 72.90625 
L 47.609375 72.90625 
L 47.609375 25.390625 
L 58.015625 25.390625 
L 58.015625 17.1875 
L 47.609375 17.1875 
L 47.609375 0 
L 37.796875 0 
L 37.796875 17.1875 
L 4.890625 17.1875 
L 4.890625 26.703125 
z
" id="DejaVuSans-52"/>
       </defs>
       <use xlink:href="#DejaVuSans-48"/>
       <use x="63.623047" xlink:href="#DejaVuSans-46"/>
       <use x="95.410156" xlink:href="#DejaVuSans-52"/>
      </g>
     </g>
    </g>
    <g id="xtick_4">
     <g id="line2d_4">
      <g>
       <use style="stroke:#000000;stroke-width:0.8;" x="268.625455" xlink:href="#m4f90572a8a" y="307.584"/>
      </g>
     </g>
     <g id="text_4">
      <!-- 0.6 -->
      <g transform="translate(260.673892 322.182437)scale(0.1 -0.1)">
       <defs>
        <path d="M 33.015625 40.375 
Q 26.375 40.375 22.484375 35.828125 
Q 18.609375 31.296875 18.609375 23.390625 
Q 18.609375 15.53125 22.484375 10.953125 
Q 26.375 6.390625 33.015625 6.390625 
Q 39.65625 6.390625 43.53125 10.953125 
Q 47.40625 15.53125 47.40625 23.390625 
Q 47.40625 31.296875 43.53125 35.828125 
Q 39.65625 40.375 33.015625 40.375 
z
M 52.59375 71.296875 
L 52.59375 62.3125 
Q 48.875 64.0625 45.09375 64.984375 
Q 41.3125 65.921875 37.59375 65.921875 
Q 27.828125 65.921875 22.671875 59.328125 
Q 17.53125 52.734375 16.796875 39.40625 
Q 19.671875 43.65625 24.015625 45.921875 
Q 28.375 48.1875 33.59375 48.1875 
Q 44.578125 48.1875 50.953125 41.515625 
Q 57.328125 34.859375 57.328125 23.390625 
Q 57.328125 12.15625 50.6875 5.359375 
Q 44.046875 -1.421875 33.015625 -1.421875 
Q 20.359375 -1.421875 13.671875 8.265625 
Q 6.984375 17.96875 6.984375 36.375 
Q 6.984375 53.65625 15.1875 63.9375 
Q 23.390625 74.21875 37.203125 74.21875 
Q 40.921875 74.21875 44.703125 73.484375 
Q 48.484375 72.75 52.59375 71.296875 
z
" id="DejaVuSans-54"/>
       </defs>
       <use xlink:href="#DejaVuSans-48"/>
       <use x="63.623047" xlink:href="#DejaVuSans-46"/>
       <use x="95.410156" xlink:href="#DejaVuSans-54"/>
      </g>
     </g>
    </g>
    <g id="xtick_5">
     <g id="line2d_5">
      <g>
       <use style="stroke:#000000;stroke-width:0.8;" x="333.556364" xlink:href="#m4f90572a8a" y="307.584"/>
      </g>
     </g>
     <g id="text_5">
      <!-- 0.8 -->
      <g transform="translate(325.604801 322.182437)scale(0.1 -0.1)">
       <defs>
        <path d="M 31.78125 34.625 
Q 24.75 34.625 20.71875 30.859375 
Q 16.703125 27.09375 16.703125 20.515625 
Q 16.703125 13.921875 20.71875 10.15625 
Q 24.75 6.390625 31.78125 6.390625 
Q 38.8125 6.390625 42.859375 10.171875 
Q 46.921875 13.96875 46.921875 20.515625 
Q 46.921875 27.09375 42.890625 30.859375 
Q 38.875 34.625 31.78125 34.625 
z
M 21.921875 38.8125 
Q 15.578125 40.375 12.03125 44.71875 
Q 8.5 49.078125 8.5 55.328125 
Q 8.5 64.0625 14.71875 69.140625 
Q 20.953125 74.21875 31.78125 74.21875 
Q 42.671875 74.21875 48.875 69.140625 
Q 55.078125 64.0625 55.078125 55.328125 
Q 55.078125 49.078125 51.53125 44.71875 
Q 48 40.375 41.703125 38.8125 
Q 48.828125 37.15625 52.796875 32.3125 
Q 56.78125 27.484375 56.78125 20.515625 
Q 56.78125 9.90625 50.3125 4.234375 
Q 43.84375 -1.421875 31.78125 -1.421875 
Q 19.734375 -1.421875 13.25 4.234375 
Q 6.78125 9.90625 6.78125 20.515625 
Q 6.78125 27.484375 10.78125 32.3125 
Q 14.796875 37.15625 21.921875 38.8125 
z
M 18.3125 54.390625 
Q 18.3125 48.734375 21.84375 45.5625 
Q 25.390625 42.390625 31.78125 42.390625 
Q 38.140625 42.390625 41.71875 45.5625 
Q 45.3125 48.734375 45.3125 54.390625 
Q 45.3125 60.0625 41.71875 63.234375 
Q 38.140625 66.40625 31.78125 66.40625 
Q 25.390625 66.40625 21.84375 63.234375 
Q 18.3125 60.0625 18.3125 54.390625 
z
" id="DejaVuSans-56"/>
       </defs>
       <use xlink:href="#DejaVuSans-48"/>
       <use x="63.623047" xlink:href="#DejaVuSans-46"/>
       <use x="95.410156" xlink:href="#DejaVuSans-56"/>
      </g>
     </g>
    </g>
    <g id="xtick_6">
     <g id="line2d_6">
      <g>
       <use style="stroke:#000000;stroke-width:0.8;" x="398.487273" xlink:href="#m4f90572a8a" y="307.584"/>
      </g>
     </g>
     <g id="text_6">
      <!-- 1.0 -->
      <g transform="translate(390.53571 322.182437)scale(0.1 -0.1)">
       <defs>
        <path d="M 12.40625 8.296875 
L 28.515625 8.296875 
L 28.515625 63.921875 
L 10.984375 60.40625 
L 10.984375 69.390625 
L 28.421875 72.90625 
L 38.28125 72.90625 
L 38.28125 8.296875 
L 54.390625 8.296875 
L 54.390625 0 
L 12.40625 0 
z
" id="DejaVuSans-49"/>
       </defs>
       <use xlink:href="#DejaVuSans-49"/>
       <use x="63.623047" xlink:href="#DejaVuSans-46"/>
       <use x="95.410156" xlink:href="#DejaVuSans-48"/>
      </g>
     </g>
    </g>
   </g>
   <g id="matplotlib.axis_2">
    <g id="ytick_1">
     <g id="line2d_7">
      <defs>
       <path d="M 0 0 
L -3.5 0 
" id="m84b2f35f84" style="stroke:#000000;stroke-width:0.8;"/>
      </defs>
      <g>
       <use style="stroke:#000000;stroke-width:0.8;" x="57.6" xlink:href="#m84b2f35f84" y="297.901342"/>
      </g>
     </g>
     <g id="text_7">
      <!-- 3 -->
      <g transform="translate(44.2375 301.700561)scale(0.1 -0.1)">
       <defs>
        <path d="M 40.578125 39.3125 
Q 47.65625 37.796875 51.625 33 
Q 55.609375 28.21875 55.609375 21.1875 
Q 55.609375 10.40625 48.1875 4.484375 
Q 40.765625 -1.421875 27.09375 -1.421875 
Q 22.515625 -1.421875 17.65625 -0.515625 
Q 12.796875 0.390625 7.625 2.203125 
L 7.625 11.71875 
Q 11.71875 9.328125 16.59375 8.109375 
Q 21.484375 6.890625 26.8125 6.890625 
Q 36.078125 6.890625 40.9375 10.546875 
Q 45.796875 14.203125 45.796875 21.1875 
Q 45.796875 27.640625 41.28125 31.265625 
Q 36.765625 34.90625 28.71875 34.90625 
L 20.21875 34.90625 
L 20.21875 43.015625 
L 29.109375 43.015625 
Q 36.375 43.015625 40.234375 45.921875 
Q 44.09375 48.828125 44.09375 54.296875 
Q 44.09375 59.90625 40.109375 62.90625 
Q 36.140625 65.921875 28.71875 65.921875 
Q 24.65625 65.921875 20.015625 65.03125 
Q 15.375 64.15625 9.8125 62.3125 
L 9.8125 71.09375 
Q 15.4375 72.65625 20.34375 73.4375 
Q 25.25 74.21875 29.59375 74.21875 
Q 40.828125 74.21875 47.359375 69.109375 
Q 53.90625 64.015625 53.90625 55.328125 
Q 53.90625 49.265625 50.4375 45.09375 
Q 46.96875 40.921875 40.578125 39.3125 
z
" id="DejaVuSans-51"/>
       </defs>
       <use xlink:href="#DejaVuSans-51"/>
      </g>
     </g>
    </g>
    <g id="ytick_2">
     <g id="line2d_8">
      <g>
       <use style="stroke:#000000;stroke-width:0.8;" x="57.6" xlink:href="#m84b2f35f84" y="249.034673"/>
      </g>
     </g>
     <g id="text_8">
      <!-- 4 -->
      <g transform="translate(44.2375 252.833892)scale(0.1 -0.1)">
       <use xlink:href="#DejaVuSans-52"/>
      </g>
     </g>
    </g>
    <g id="ytick_3">
     <g id="line2d_9">
      <g>
       <use style="stroke:#000000;stroke-width:0.8;" x="57.6" xlink:href="#m84b2f35f84" y="200.168005"/>
      </g>
     </g>
     <g id="text_9">
      <!-- 5 -->
      <g transform="translate(44.2375 203.967224)scale(0.1 -0.1)">
       <defs>
        <path d="M 10.796875 72.90625 
L 49.515625 72.90625 
L 49.515625 64.59375 
L 19.828125 64.59375 
L 19.828125 46.734375 
Q 21.96875 47.46875 24.109375 47.828125 
Q 26.265625 48.1875 28.421875 48.1875 
Q 40.625 48.1875 47.75 41.5 
Q 54.890625 34.8125 54.890625 23.390625 
Q 54.890625 11.625 47.5625 5.09375 
Q 40.234375 -1.421875 26.90625 -1.421875 
Q 22.3125 -1.421875 17.546875 -0.640625 
Q 12.796875 0.140625 7.71875 1.703125 
L 7.71875 11.625 
Q 12.109375 9.234375 16.796875 8.0625 
Q 21.484375 6.890625 26.703125 6.890625 
Q 35.15625 6.890625 40.078125 11.328125 
Q 45.015625 15.765625 45.015625 23.390625 
Q 45.015625 31 40.078125 35.4375 
Q 35.15625 39.890625 26.703125 39.890625 
Q 22.75 39.890625 18.8125 39.015625 
Q 14.890625 38.140625 10.796875 36.28125 
z
" id="DejaVuSans-53"/>
       </defs>
       <use xlink:href="#DejaVuSans-53"/>
      </g>
     </g>
    </g>
    <g id="ytick_4">
     <g id="line2d_10">
      <g>
       <use style="stroke:#000000;stroke-width:0.8;" x="57.6" xlink:href="#m84b2f35f84" y="151.301337"/>
      </g>
     </g>
     <g id="text_10">
      <!-- 6 -->
      <g transform="translate(44.2375 155.100555)scale(0.1 -0.1)">
       <use xlink:href="#DejaVuSans-54"/>
      </g>
     </g>
    </g>
    <g id="ytick_5">
     <g id="line2d_11">
      <g>
       <use style="stroke:#000000;stroke-width:0.8;" x="57.6" xlink:href="#m84b2f35f84" y="102.434668"/>
      </g>
     </g>
     <g id="text_11">
      <!-- 7 -->
      <g transform="translate(44.2375 106.233887)scale(0.1 -0.1)">
       <defs>
        <path d="M 8.203125 72.90625 
L 55.078125 72.90625 
L 55.078125 68.703125 
L 28.609375 0 
L 18.3125 0 
L 43.21875 64.59375 
L 8.203125 64.59375 
z
" id="DejaVuSans-55"/>
       </defs>
       <use xlink:href="#DejaVuSans-55"/>
      </g>
     </g>
    </g>
    <g id="ytick_6">
     <g id="line2d_12">
      <g>
       <use style="stroke:#000000;stroke-width:0.8;" x="57.6" xlink:href="#m84b2f35f84" y="53.568"/>
      </g>
     </g>
     <g id="text_12">
      <!-- 8 -->
      <g transform="translate(44.2375 57.367219)scale(0.1 -0.1)">
       <use xlink:href="#DejaVuSans-56"/>
      </g>
     </g>
    </g>
   </g>
   <g id="line2d_13">
    <path clip-path="url(#pc1b3617036)" d="M 73.832727 53.568 
L 96.075501 53.568 
L 96.739464 70.567477 
L 98.233382 113.84834 
L 99.395312 140.055881 
L 100.557237 161.402539 
L 101.719143 178.108046 
L 102.549073 187.56918 
L 103.378975 193.624909 
L 103.876927 196.454757 
L 104.208883 197.100394 
L 104.540838 197.343201 
L 105.204743 197.251842 
L 105.370709 196.868054 
L 105.702669 195.323632 
L 106.034633 192.82763 
L 106.532593 186.593341 
L 107.19654 174.147783 
L 107.860497 157.067296 
L 108.690451 128.697354 
L 109.354413 108.443585 
L 109.686392 103.155034 
L 110.350345 110.566217 
L 110.848311 113.842508 
L 111.180284 114.921531 
L 111.512256 115.207255 
L 111.844226 115.207255 
L 112.010207 115.019615 
L 112.34218 114.120135 
L 112.840145 111.61777 
L 113.338106 107.472468 
L 114.002062 99.439966 
L 114.666022 88.438826 
L 115.495975 71.123003 
L 116.325929 53.568 
L 118.151827 53.568 
L 119.313749 63.316328 
L 119.645725 64.196887 
L 119.977699 64.340647 
L 120.309674 64.240364 
L 120.641649 63.744027 
L 120.973625 62.818583 
L 121.305602 61.296341 
L 121.803571 57.515056 
L 122.301539 53.568 
L 146.702166 53.568 
L 146.868154 54.60403 
L 148.528044 77.043266 
L 150.187922 96.229591 
L 151.515814 109.658025 
L 152.677715 119.412989 
L 153.83959 127.138997 
L 154.669509 131.374698 
L 155.167439 132.892828 
L 155.665388 133.738143 
L 155.997346 134.060811 
L 156.495266 134.035533 
L 156.661257 133.941626 
L 156.993217 133.146114 
L 157.49115 130.922953 
L 158.15508 126.702875 
L 158.819016 121.338387 
L 159.980919 109.931912 
L 161.142824 95.67015 
L 162.304746 78.531595 
L 163.466672 58.370646 
L 163.798652 53.568 
L 192.016944 53.568 
L 192.182935 53.940398 
L 193.510841 69.937513 
L 195.502697 98.829374 
L 196.664609 119.319635 
L 197.826525 143.823959 
L 200.150301 196.328846 
L 201.643995 223.623729 
L 203.303425 250.464354 
L 204.464854 265.957661 
L 206.454986 287.61864 
L 206.786497 288.567205 
L 207.283388 288.456651 
L 207.449379 288.037192 
L 207.78093 285.561047 
L 208.278261 279.377838 
L 208.941827 267.709678 
L 210.103435 242.062436 
L 210.933261 219.598806 
L 211.763194 191.495401 
L 212.261166 173.057452 
L 213.091111 202.80538 
L 213.92098 225.119607 
L 214.584798 238.506966 
L 215.248515 248.01976 
L 215.580322 250.920295 
L 215.912079 251.890387 
L 216.409802 251.900648 
L 216.575573 251.580947 
L 216.907366 250.002984 
L 217.405177 245.755281 
L 218.234754 236.087493 
L 219.396437 219.433893 
L 221.056099 192.006341 
L 222.5499 163.879476 
L 223.711808 137.991493 
L 224.873733 106.986638 
L 226.699633 53.568 
L 252.262232 53.568 
L 252.42822 55.238198 
L 254.088106 81.463049 
L 255.747975 104.381826 
L 261.39134 177.908876 
L 262.719127 198.730374 
L 265.706305 252.556719 
L 267.531199 283.412651 
L 268.194481 292.747817 
L 268.52598 295.037717 
L 268.691377 295.488 
L 269.022681 295.488 
L 269.188672 295.284029 
L 269.354106 294.474796 
L 269.685686 290.809398 
L 270.183356 281.947159 
L 270.846942 266.321782 
L 271.510735 246.500295 
L 272.174655 220.564736 
L 272.340645 212.764276 
L 272.672624 225.330556 
L 273.336531 249.380837 
L 274.000289 266.490551 
L 274.498076 274.8439 
L 274.829786 277.497316 
L 274.995418 277.999772 
L 275.492966 277.942703 
L 275.658585 277.509076 
L 275.990269 275.233107 
L 276.487998 269.31381 
L 277.317438 256.351252 
L 278.313109 236.92407 
L 279.308925 213.745479 
L 280.304828 185.249866 
L 282.79468 102.682258 
L 283.956616 66.165959 
L 284.288597 57.980079 
L 284.454588 59.871464 
L 285.450527 78.753994 
L 286.446456 93.512522 
L 287.276383 102.699975 
L 287.940319 107.872495 
L 288.438275 110.430859 
L 288.770238 111.360923 
L 289.268166 112.038898 
L 289.600124 112.200153 
L 290.26404 112.180609 
L 290.430031 112.009929 
L 290.761992 111.153892 
L 291.259927 109.271544 
L 291.757885 106.161123 
L 292.421824 99.80548 
L 293.251758 88.512896 
L 294.081705 73.953107 
L 295.077646 53.568 
L 296.239583 53.6123 
L 297.235526 77.796199 
L 298.231462 97.199999 
L 299.227385 112.129071 
L 300.057317 121.170064 
L 300.721249 126.2384 
L 301.219181 128.525216 
L 301.551137 129.0905 
L 302.049082 129.131804 
L 302.215045 129.126 
L 302.381036 129.002372 
L 302.712993 128.345462 
L 303.044951 127.31879 
L 303.542884 124.781277 
L 304.372803 119.457894 
L 305.202717 112.213623 
L 306.198634 101.173558 
L 307.194559 87.915268 
L 308.356484 69.584114 
L 309.352423 53.568 
L 324.789577 53.568 
L 324.955568 54.161244 
L 326.117501 80.234206 
L 327.445415 104.811814 
L 328.773316 125.083789 
L 329.935221 139.514701 
L 330.931121 149.209383 
L 332.092977 158.102739 
L 333.918751 169.306336 
L 335.080576 177.373483 
L 336.408384 188.452362 
L 339.063923 210.410048 
L 339.727776 213.752749 
L 340.225688 215.091481 
L 340.391614 215.26283 
L 340.723526 215.26283 
L 340.889517 215.089642 
L 341.055445 214.685974 
L 341.387385 212.007633 
L 341.885329 204.047869 
L 342.383275 191.774075 
L 343.047236 168.420111 
L 343.213227 161.279502 
L 343.379218 161.520604 
L 343.877187 174.716508 
L 344.375134 182.912079 
L 344.707096 186.700852 
L 345.039039 187.130444 
L 345.37098 187.130444 
L 345.536971 186.880388 
L 345.868918 185.54996 
L 346.69879 179.986757 
L 347.362712 173.755531 
L 348.192635 163.854548 
L 349.188548 149.240486 
L 350.184474 131.584447 
L 354.168231 53.568 
L 360.143901 53.568 
L 360.309892 54.563097 
L 362.135791 100.061388 
L 363.463711 127.034698 
L 364.791621 149.768579 
L 366.119519 168.908518 
L 367.4474 185.319729 
L 368.277306 193.23161 
L 369.107219 198.42247 
L 369.439177 199.47635 
L 369.771133 199.824248 
L 370.269049 199.85995 
L 370.43504 199.640526 
L 370.766997 198.602824 
L 371.264927 196.084377 
L 371.928856 191.317588 
L 372.592792 185.137925 
L 374.418644 164.603047 
L 376.742479 134.607679 
L 378.236385 112.149692 
L 379.730298 86.080909 
L 381.390205 53.568 
L 398.487273 53.568 
L 398.487273 53.568 
" style="fill:none;stroke:#1f77b4;stroke-linecap:square;stroke-width:1.5;"/>
   </g>
   <g id="line2d_14">
    <path clip-path="url(#pc1b3617036)" d="M 73.832727 53.625147 
L 81.754507 53.571073 
L 81.754507 53.571073 
L 95.750283 53.568018 
L 96.145313 56.053099 
L 96.406364 60.307341 
L 97.412091 85.456543 
L 98.345752 111.926757 
L 100.230623 153.927747 
L 100.997672 166.964714 
L 102.442744 185.62534 
L 103.134018 191.569982 
L 103.811314 195.620494 
L 104.23057 196.705461 
L 104.648615 197.116925 
L 104.982757 197.173598 
L 105.233399 197.069672 
L 105.567921 196.66046 
L 105.98732 195.49537 
L 106.324712 193.890355 
L 106.750284 190.905864 
L 106.750284 190.905864 
L 107.356932 184.462779 
L 107.891282 176.759829 
L 108.350291 168.1458 
L 110.141697 134.288788 
L 110.141697 134.288788 
L 110.669643 129.749088 
L 111.311472 126.018484 
L 112.177112 122.341132 
L 113.052522 118.502879 
L 113.605501 115.447127 
L 113.605501 115.447127 
L 114.390137 109.407981 
L 114.960724 103.54732 
L 114.960724 103.54732 
L 115.778976 92.829282 
L 116.502154 82.894763 
L 117.242827 75.461603 
L 117.996553 69.979885 
L 118.37701 68.205105 
L 118.37701 68.205105 
L 118.88632 66.952467 
L 118.88632 66.952467 
L 119.396807 66.375889 
L 119.396807 66.375889 
L 120.931587 65.14713 
L 120.931587 65.14713 
L 121.444643 64.261546 
L 121.444643 64.261546 
L 121.959303 62.746456 
L 121.959303 62.746456 
L 122.735383 60.420085 
L 123.515553 58.683356 
L 123.515553 58.683356 
L 124.429554 57.205233 
L 125.346517 56.154226 
L 126.397016 55.319475 
L 127.581026 54.697753 
L 128.898362 54.262074 
L 130.612568 53.936429 
L 133.119706 53.714001 
L 137.344056 53.598712 
L 146.454325 53.569065 
L 146.586327 53.765915 
L 146.849795 55.32387 
L 147.759606 64.50147 
L 147.759606 64.50147 
L 150.692882 99.492382 
L 150.692882 99.492382 
L 151.498739 107.63476 
L 153.603157 124.418961 
L 154.567201 129.879419 
L 155.096696 131.880214 
L 155.096696 131.880214 
L 155.623457 133.147928 
L 156.04369 133.668231 
L 156.463468 133.84525 
L 156.883221 133.711979 
L 157.408491 133.132233 
L 157.935213 131.971662 
L 158.570555 129.839269 
L 159.426116 125.656552 
L 160.404903 119.014792 
L 161.633633 108.030753 
L 162.790856 95.299358 
L 164.366712 76.714518 
L 164.366712 76.714518 
L 165.118247 70.847803 
L 165.880093 66.468065 
L 165.880093 66.468065 
L 166.649636 63.198415 
L 167.424926 60.757491 
L 167.424926 60.757491 
L 168.204506 58.935243 
L 169.118003 57.384336 
L 170.034608 56.281575 
L 170.034608 56.281575 
L 170.953422 55.497466 
L 172.005391 54.874696 
L 173.322256 54.37078 
L 174.904222 54.015407 
L 177.147085 53.763443 
L 180.711061 53.620452 
L 189.160999 53.570321 
L 191.933726 53.639541 
L 192.197422 54.74926 
L 192.197422 54.74926 
L 192.981359 61.00038 
L 193.495606 67.096711 
L 194.250844 76.688245 
L 194.250844 76.688245 
L 195.814397 100.735922 
L 196.61079 114.705441 
L 196.61079 114.705441 
L 197.687328 137.281089 
L 198.966495 168.749935 
L 201.477648 220.180846 
L 202.702856 241.181961 
L 203.306208 250.578161 
L 205.593006 280.198834 
L 206.298625 286.830507 
L 206.616675 288.060687 
L 206.616675 288.060687 
L 206.880532 288.369782 
L 207.144173 288.350394 
L 207.513918 287.768675 
L 207.886174 286.138183 
L 207.886174 286.138183 
L 208.318086 282.919195 
L 208.318086 282.919195 
L 209.045113 274.282482 
L 209.818913 261.83986 
L 210.859462 240.861624 
L 211.650361 221.301547 
L 212.194062 208.933152 
L 212.194062 208.933152 
L 212.514676 205.942019 
L 212.514676 205.942019 
L 212.756818 205.287238 
L 212.998394 207.36228 
L 213.23679 211.308373 
L 214.213267 232.482777 
L 215.309999 248.811369 
L 215.638589 250.770734 
L 215.965017 251.507156 
L 215.965017 251.507156 
L 216.160469 251.639673 
L 216.421067 251.543355 
L 216.747291 251.045327 
L 216.747291 251.045327 
L 217.206237 249.536433 
L 217.536807 247.84185 
L 217.536807 247.84185 
L 217.937906 245.188562 
L 218.759902 237.777549 
L 219.911648 224.351947 
L 221.71665 198.715592 
L 223.65894 165.732806 
L 224.732895 144.278905 
L 227.282789 89.540123 
L 228.011783 80.422631 
L 228.756801 73.616058 
L 229.513782 68.534678 
L 230.279693 64.741225 
L 231.052272 61.90926 
L 231.829827 59.795085 
L 232.611098 58.216768 
L 233.526035 56.87347 
L 234.443664 55.918328 
L 235.494691 55.159717 
L 236.679096 54.594705 
L 238.128538 54.168772 
L 239.974981 53.871739 
L 242.746386 53.677191 
L 242.746386 53.677191 
L 247.895142 53.584332 
L 251.856133 53.571787 
L 251.988114 53.888739 
L 252.251372 55.8428 
L 252.251372 55.8428 
L 253.285281 68.576764 
L 253.285281 68.576764 
L 254.882881 92.139395 
L 257.590623 127.606971 
L 258.534736 140.049507 
L 259.442049 151.935217 
L 262.460042 196.250741 
L 262.460042 196.250741 
L 266.245003 265.984831 
L 266.600446 272.210917 
L 267.166238 281.501166 
L 268.012576 293.107785 
L 268.368035 294.890446 
L 268.368035 294.890446 
L 268.620302 295.241108 
L 268.821952 295.183367 
L 268.973339 294.948818 
L 268.973339 294.948818 
L 269.175687 294.399225 
L 269.175687 294.399225 
L 269.379097 293.404602 
L 269.379097 293.404602 
L 269.844246 289.186838 
L 270.547326 278.68814 
L 271.308086 262.825568 
L 272.355879 241.807375 
L 272.492907 241.486139 
L 272.765871 243.979039 
L 272.967051 248.18055 
L 272.967051 248.18055 
L 273.602081 264.132568 
L 274.364365 275.858938 
L 274.647778 277.254234 
L 274.647778 277.254234 
L 274.929736 277.720496 
L 275.098692 277.739207 
L 275.098692 277.739207 
L 275.267701 277.624591 
L 275.436896 277.358871 
L 275.60645 276.909086 
L 276.119749 274.120013 
L 276.822168 267.735828 
L 277.619563 257.507491 
L 278.813826 237.452715 
L 279.917954 214.48894 
L 279.917954 214.48894 
L 281.985969 161.535797 
L 281.985969 161.535797 
L 284.196747 105.260629 
L 284.776037 98.298751 
L 285.245945 95.336202 
L 285.600267 94.377448 
L 285.836851 94.198676 
L 285.95517 94.166049 
L 285.95517 94.166049 
L 286.073448 94.434267 
L 286.427118 96.520807 
L 286.427118 96.520807 
L 288.269114 109.4332 
L 288.269114 109.4332 
L 288.720757 110.831443 
L 288.720757 110.831443 
L 289.170957 111.599816 
L 289.170957 111.599816 
L 289.620436 111.943078 
L 289.620436 111.943078 
L 289.957353 111.995718 
L 290.406641 111.840558 
L 290.96884 111.262116 
L 290.96884 111.262116 
L 291.419613 110.343702 
L 291.419613 110.343702 
L 291.985423 108.423442 
L 292.440988 106.040668 
L 293.131657 101.076291 
L 293.83415 94.216038 
L 294.674097 83.917451 
L 294.674097 83.917451 
L 295.412973 76.225081 
L 295.913261 72.42819 
L 296.164883 71.677986 
L 296.164883 71.677986 
L 296.41686 71.371398 
L 296.542794 71.89395 
L 297.043067 77.130303 
L 299.168042 111.157292 
L 299.724956 117.891347 
L 300.380469 123.707383 
L 300.380469 123.707383 
L 300.811923 126.394795 
L 300.811923 126.394795 
L 301.240534 127.925377 
L 301.240534 127.925377 
L 301.667694 128.611888 
L 301.667694 128.611888 
L 301.987651 128.763258 
L 302.41425 128.663414 
L 302.841134 128.31604 
L 303.161722 127.829617 
L 303.590136 126.885285 
L 304.235698 124.851811 
L 304.235698 124.851811 
L 304.995403 121.250265 
L 305.654447 117.187571 
L 306.435041 111.264988 
L 306.435041 111.264988 
L 307.462601 101.309683 
L 308.523999 88.842164 
L 309.624959 76.476248 
L 310.376912 70.669925 
L 311.139071 66.335272 
L 311.908848 63.09928 
L 312.684312 60.683482 
L 313.464022 58.879993 
L 314.37763 57.34505 
L 314.37763 57.34505 
L 315.294313 56.253642 
L 316.213183 55.477604 
L 317.265197 54.861245 
L 318.582097 54.362516 
L 318.582097 54.362516 
L 320.164089 54.010801 
L 320.164089 54.010801 
L 322.406971 53.761431 
L 324.25481 53.665795 
L 324.386797 53.760031 
L 324.386797 53.760031 
L 324.781429 56.594045 
L 325.428315 66.73175 
L 325.428315 66.73175 
L 327.480187 106.011678 
L 329.23439 131.998281 
L 330.064996 141.857653 
L 330.77217 148.607333 
L 330.77217 148.607333 
L 331.757365 156.518551 
L 333.004515 164.362514 
L 333.940859 170.266176 
L 335.748906 183.92991 
L 336.701392 192.212413 
L 336.701392 192.212413 
L 337.623984 200.086897 
L 338.517842 207.535316 
L 339.309662 212.224499 
L 339.309662 212.224499 
L 339.778299 214.094727 
L 340.089062 214.760491 
L 340.399221 215.013859 
L 340.631741 214.996494 
L 340.94201 214.60739 
L 341.175196 214.052431 
L 341.175196 214.052431 
L 341.565908 211.967482 
L 341.881811 209.141148 
L 342.28336 203.975851 
L 343.380647 187.051116 
L 343.729732 185.423004 
L 343.99251 184.976971 
L 344.167782 185.073577 
L 344.167782 185.073577 
L 344.60474 186.324346 
L 344.953179 186.783792 
L 345.301327 186.772215 
L 345.649692 186.462777 
L 346.173554 185.420329 
L 346.612319 183.856019 
L 346.612319 183.856019 
L 347.321202 180.219496 
L 347.321202 180.219496 
L 348.132943 174.327586 
L 349.154569 164.171894 
L 349.154569 164.171894 
L 350.220176 150.573418 
L 351.342665 133.680593 
L 354.76858 80.137187 
L 354.76858 80.137187 
L 355.5141 73.402962 
L 356.271455 68.375594 
L 356.271455 68.375594 
L 357.037645 64.622462 
L 357.810432 61.820599 
L 357.810432 61.820599 
L 358.588144 59.728896 
L 359.369532 58.167355 
L 359.369532 58.167355 
L 359.89202 57.400315 
L 359.89202 57.400315 
L 360.022713 57.689473 
L 360.413056 61.132269 
L 360.413056 61.132269 
L 361.051018 72.850736 
L 362.829639 113.013281 
L 362.829639 113.013281 
L 365.416057 159.252982 
L 366.810673 178.405164 
L 366.810673 178.405164 
L 368.375432 194.241338 
L 368.879189 197.339158 
L 368.879189 197.339158 
L 369.295133 198.872363 
L 369.709303 199.513109 
L 370.04015 199.635267 
L 370.453789 199.425235 
L 370.785135 198.992155 
L 371.117253 198.276273 
L 371.53409 196.979342 
L 371.53409 196.979342 
L 372.206682 193.942251 
L 372.206682 193.942251 
L 373.061965 188.331919 
L 374.386687 177.283393 
L 376.448672 155.842008 
L 378.060122 136.202003 
L 380.128334 106.963946 
L 381.907598 80.864234 
L 382.65184 73.945732 
L 383.408241 68.780794 
L 384.17372 64.92496 
L 384.945975 62.046425 
L 385.72329 59.897484 
L 386.504381 58.293214 
L 387.419165 56.927826 
L 387.419165 56.927826 
L 388.336684 55.956977 
L 389.387625 55.185892 
L 390.571965 54.611588 
L 390.571965 54.611588 
L 392.021358 54.178651 
L 393.867768 53.876734 
L 396.63915 53.678986 
L 398.487273 53.624113 
L 398.487273 53.624113 
" style="fill:none;stroke:#ff7f0e;stroke-linecap:square;stroke-width:1.5;"/>
   </g>
   <g id="line2d_15">
    <path clip-path="url(#pc1b3617036)" d="M 73.832727 53.635751 
L 80.946064 53.57288 
L 80.946064 53.57288 
L 96.227459 53.568017 
L 96.227459 53.568017 
L 96.359078 54.261067 
L 96.881338 60.719601 
L 97.515254 76.266878 
L 98.811433 112.340102 
L 99.571293 131.764836 
L 99.571293 131.764836 
L 101.167835 163.024733 
L 101.167835 163.024733 
L 102.001728 175.499147 
L 102.714801 184.230437 
L 103.492896 191.121921 
L 104.001516 194.53943 
L 104.001516 194.53943 
L 104.421132 196.190042 
L 104.838786 196.935108 
L 105.255652 197.190775 
L 105.589014 197.15693 
L 105.922557 196.905811 
L 106.256665 196.303175 
L 106.676005 194.776719 
L 106.676005 194.776719 
L 107.01383 192.821877 
L 107.01383 192.821877 
L 107.354789 190.108248 
L 107.354789 190.108248 
L 108.051552 181.454006 
L 108.051552 181.454006 
L 108.869899 166.848038 
L 110.146458 140.072703 
L 110.665259 133.564986 
L 111.299304 128.608435 
L 111.941623 125.197792 
L 114.014428 115.595122 
L 114.796986 109.513212 
L 115.36604 103.785879 
L 116.300155 91.451923 
L 117.024108 81.866509 
L 117.024108 81.866509 
L 117.764905 74.693971 
L 118.518268 69.406817 
L 118.518268 69.406817 
L 119.025264 67.506126 
L 119.025264 67.506126 
L 119.406767 66.820102 
L 119.91623 66.31247 
L 121.319986 65.173696 
L 121.831848 64.283408 
L 122.345314 62.764447 
L 123.119602 60.433516 
L 123.119602 60.433516 
L 123.897979 58.693383 
L 124.809886 57.212363 
L 125.724756 56.159295 
L 125.724756 56.159295 
L 126.772862 55.322908 
L 126.772862 55.322908 
L 127.95418 54.699968 
L 129.268525 54.263434 
L 130.978843 53.937151 
L 130.978843 53.937151 
L 133.480294 53.714287 
L 137.695061 53.598772 
L 146.784671 53.569067 
L 146.784671 53.569067 
L 146.916374 53.765917 
L 147.31026 56.090416 
L 147.31026 56.090416 
L 147.701109 59.949645 
L 149.950434 86.873417 
L 151.24884 101.091285 
L 151.24884 101.091285 
L 153.817779 123.106273 
L 154.570238 127.823137 
L 155.418344 131.66125 
L 156.049198 133.193489 
L 156.049198 133.193489 
L 156.468436 133.687824 
L 156.468436 133.687824 
L 156.88725 133.823728 
L 156.88725 133.823728 
L 157.306076 133.694267 
L 157.306076 133.694267 
L 157.83018 133.118351 
L 158.355727 131.960781 
L 158.989647 129.831145 
L 158.989647 129.831145 
L 159.843389 125.590276 
L 159.843389 125.590276 
L 160.820119 118.972042 
L 162.046032 108.096956 
L 162.046032 108.096956 
L 163.200456 95.340031 
L 164.772607 76.736108 
L 165.5224 70.863921 
L 166.28249 66.480098 
L 167.050268 63.207398 
L 167.823784 60.764197 
L 168.601584 58.940249 
L 169.513 57.387895 
L 169.513 57.387895 
L 170.427519 56.284106 
L 171.344245 55.499266 
L 172.393824 54.875915 
L 173.7077 54.371529 
L 173.7077 54.371529 
L 175.286077 54.015824 
L 175.286077 54.015824 
L 177.523853 53.763625 
L 181.079748 53.620501 
L 181.079748 53.620501 
L 189.51052 53.570323 
L 189.51052 53.570323 
L 192.276957 53.639541 
L 192.40866 53.696765 
L 192.671726 54.786786 
L 192.671726 54.786786 
L 193.324434 59.933686 
L 194.843428 78.509251 
L 196.962058 112.946166 
L 197.512132 123.330337 
L 197.512132 123.330337 
L 201.700259 216.664152 
L 203.945069 253.821436 
L 204.387779 259.885561 
L 206.469776 284.650901 
L 207.055023 287.982527 
L 207.055023 287.982527 
L 207.318361 288.363591 
L 207.63398 288.381403 
L 207.791861 288.240825 
L 207.949959 287.939683 
L 208.161405 287.276136 
L 208.642253 284.358068 
L 208.968697 281.550784 
L 208.968697 281.550784 
L 209.357993 277.20438 
L 210.29666 262.74358 
L 210.928167 251.050097 
L 211.744828 233.217887 
L 212.962385 206.957452 
L 213.283568 205.77659 
L 213.444212 206.473352 
L 214.073445 217.01729 
L 215.701219 247.738896 
L 216.095751 250.60602 
L 216.095751 250.60602 
L 216.421609 251.449795 
L 216.681633 251.657406 
L 216.941619 251.557948 
L 217.267035 251.109114 
L 217.724813 249.581789 
L 218.120809 247.598883 
L 218.928614 241.428159 
L 219.553469 235.264097 
L 219.553469 235.264097 
L 220.493656 224.150721 
L 222.213374 199.826112 
L 223.501248 178.979593 
L 225.005857 150.65097 
L 226.357161 120.326296 
L 227.493101 95.514918 
L 228.209965 84.883055 
L 228.945472 76.945943 
L 229.694898 71.020571 
L 230.454713 66.597043 
L 231.222286 63.294703 
L 231.995649 60.829373 
L 232.773335 58.988906 
L 233.684653 57.422492 
L 234.599103 56.308706 
L 235.51578 55.516757 
L 235.51578 55.516757 
L 236.56532 54.887761 
L 236.56532 54.887761 
L 237.879165 54.378806 
L 239.457519 54.01988 
L 241.69528 53.765397 
L 245.251166 53.620976 
L 252.364597 53.571816 
L 252.364597 53.571816 
L 252.496279 53.888762 
L 252.758941 55.842815 
L 253.790506 68.576767 
L 255.502502 93.828428 
L 258.717375 136.065691 
L 259.434282 145.064975 
L 260.898046 164.860023 
L 260.898046 164.860023 
L 261.455458 172.824905 
L 263.599358 207.982784 
L 264.371954 222.166023 
L 265.513029 243.268394 
L 268.239026 289.883799 
L 268.801738 294.638978 
L 269.103995 295.248566 
L 269.103995 295.248566 
L 269.355469 295.191817 
L 269.556857 294.92666 
L 269.70827 294.460714 
L 269.70827 294.460714 
L 269.962085 293.20385 
L 270.426673 289.057347 
L 271.240523 276.988842 
L 271.704033 267.572668 
L 272.325062 251.951066 
L 272.724016 243.624886 
L 272.928159 241.766252 
L 272.928159 241.766252 
L 273.064902 241.448834 
L 273.337281 243.962997 
L 273.603982 249.323773 
L 274.414001 268.505801 
L 274.820863 274.810802 
L 275.161286 277.067168 
L 275.161286 277.067168 
L 275.442792 277.664142 
L 275.667578 277.73673 
L 275.836206 277.622451 
L 275.836206 277.622451 
L 276.005021 277.357022 
L 276.230695 276.745546 
L 276.743235 274.014525 
L 276.743235 274.014525 
L 277.385243 268.166022 
L 278.368372 255.353465 
L 279.788839 230.476936 
L 279.788839 230.476936 
L 280.692507 210.733392 
L 280.692507 210.733392 
L 283.286335 143.076114 
L 284.801039 105.462823 
L 285.378714 98.457233 
L 285.378714 98.457233 
L 285.847362 95.466623 
L 285.847362 95.466623 
L 286.200758 94.490135 
L 286.436734 94.300901 
L 286.790371 95.270981 
L 286.790371 95.270981 
L 287.607327 101.426865 
L 288.295566 106.516759 
L 288.749361 109.009716 
L 289.312934 110.841641 
L 289.762102 111.604202 
L 290.210555 111.944964 
L 290.546704 111.996719 
L 290.99497 111.841382 
L 291.555891 111.262762 
L 292.00564 110.344234 
L 292.570166 108.423859 
L 293.138784 105.423951 
L 293.138784 105.423951 
L 293.713335 101.376361 
L 294.531809 93.299681 
L 294.531809 93.299681 
L 296.111332 75.449457 
L 296.611298 72.190517 
L 296.862502 71.462378 
L 296.988218 71.407395 
L 296.988218 71.407395 
L 297.364573 73.378348 
L 297.860365 80.151629 
L 299.737662 110.89974 
L 300.731908 121.758658 
L 300.731908 121.758658 
L 301.379535 126.228272 
L 301.807328 127.847402 
L 302.233591 128.578355 
L 302.55284 128.792618 
L 302.978424 128.707731 
L 303.510822 128.266215 
L 304.044401 127.287902 
L 304.68755 125.424042 
L 305.443843 122.114298 
L 305.443843 122.114298 
L 306.099386 118.307971 
L 306.875227 112.674852 
L 308.010395 102.063387 
L 309.306977 86.658917 
L 310.162908 77.125016 
L 310.912019 71.154256 
L 311.671601 66.696845 
L 312.438998 63.369209 
L 313.21223 60.884995 
L 313.989819 59.03043 
L 314.901054 57.452017 
L 315.815445 56.3297 
L 316.73208 55.531685 
L 316.73208 55.531685 
L 317.781587 54.89787 
L 317.781587 54.89787 
L 319.095404 54.385017 
L 320.67374 54.023342 
L 322.911486 53.766909 
L 324.88682 53.663783 
L 325.018509 53.758402 
L 325.281184 56.038316 
L 325.542124 58.86698 
L 326.182369 70.274042 
L 326.182369 70.274042 
L 327.983852 104.484944 
L 328.988743 121.00999 
L 328.988743 121.00999 
L 330.053139 135.65131 
L 331.86874 153.311691 
L 331.86874 153.311691 
L 333.12528 161.640465 
L 336.070962 182.007535 
L 337.370083 192.886106 
L 337.370083 192.886106 
L 338.533146 202.893824 
L 339.256796 208.714166 
L 339.965466 212.661151 
L 339.965466 212.661151 
L 340.509927 214.505644 
L 340.896957 214.999135 
L 340.896957 214.999135 
L 341.206283 214.998324 
L 341.206283 214.998324 
L 341.515847 214.608896 
L 341.515847 214.608896 
L 341.748503 214.053732 
L 342.138328 211.968502 
L 342.138328 211.968502 
L 342.453514 209.141987 
L 342.453514 209.141987 
L 342.854152 203.976508 
L 343.860737 188.111433 
L 344.207876 186.035252 
L 344.556872 185.278018 
L 344.731578 185.276124 
L 345.167334 186.394882 
L 345.167334 186.394882 
L 345.514919 186.814126 
L 345.514919 186.814126 
L 345.86225 186.790261 
L 345.86225 186.790261 
L 346.209804 186.477627 
L 346.209804 186.477627 
L 346.732452 185.431415 
L 347.257947 183.58536 
L 347.257947 183.58536 
L 347.788125 180.822534 
L 348.414827 176.643799 
L 349.237713 169.360939 
L 350.278253 157.687506 
L 351.368919 142.29179 
L 351.368919 142.29179 
L 355.418018 79.431986 
L 355.418018 79.431986 
L 356.163084 72.876502 
L 356.919645 67.98257 
L 356.919645 67.98257 
L 357.684787 64.329054 
L 358.456337 61.601558 
L 358.456337 61.601558 
L 359.232669 59.565373 
L 360.142835 57.832384 
L 360.534001 57.34492 
L 360.534001 57.34492 
L 360.664414 57.644614 
L 360.924314 60.406868 
L 361.18216 63.708643 
L 361.812722 76.961557 
L 363.783929 121.587986 
L 365.140561 146.878454 
L 365.140561 146.878454 
L 367.228566 177.063502 
L 367.938025 185.227544 
L 368.627541 192.059063 
L 369.384489 197.295933 
L 369.799573 198.808549 
L 369.799573 198.808549 
L 370.130299 199.399746 
L 370.130299 199.399746 
L 370.460474 199.662048 
L 370.460474 199.662048 
L 370.87304 199.568568 
L 371.203362 199.259612 
L 371.534274 198.685918 
L 371.949322 197.570134 
L 372.618502 194.790142 
L 373.468324 189.554658 
L 373.468324 189.554658 
L 374.604422 180.362491 
L 376.539523 160.932645 
L 378.014745 143.854417 
L 379.58506 123.080152 
L 379.58506 123.080152 
L 380.808902 105.077432 
L 382.226765 83.491825 
L 382.964711 75.907334 
L 383.715958 70.245208 
L 384.477133 66.018204 
L 385.24572 62.862576 
L 386.019841 60.506773 
L 386.798093 58.748072 
L 387.709892 57.251249 
L 388.624685 56.186945 
L 389.672728 55.341634 
L 390.854001 54.712046 
L 392.168314 54.270855 
L 392.168314 54.270855 
L 393.878607 53.94109 
L 396.380042 53.715848 
L 396.380042 53.715848 
L 398.487273 53.635809 
L 398.487273 53.635809 
" style="fill:none;stroke:#2ca02c;stroke-linecap:square;stroke-width:1.5;"/>
   </g>
   <g id="patch_3">
    <path d="M 57.6 307.584 
L 57.6 41.472 
" style="fill:none;stroke:#000000;stroke-linecap:square;stroke-linejoin:miter;stroke-width:0.8;"/>
   </g>
   <g id="patch_4">
    <path d="M 414.72 307.584 
L 414.72 41.472 
" style="fill:none;stroke:#000000;stroke-linecap:square;stroke-linejoin:miter;stroke-width:0.8;"/>
   </g>
   <g id="patch_5">
    <path d="M 57.6 307.584 
L 414.72 307.584 
" style="fill:none;stroke:#000000;stroke-linecap:square;stroke-linejoin:miter;stroke-width:0.8;"/>
   </g>
   <g id="patch_6">
    <path d="M 57.6 41.472 
L 414.72 41.472 
" style="fill:none;stroke:#000000;stroke-linecap:square;stroke-linejoin:miter;stroke-width:0.8;"/>
   </g>
   <g id="text_13">
    <!-- gbr speed -->
    <g transform="translate(206.040937 35.472)scale(0.12 -0.12)">
     <defs>
      <path d="M 45.40625 27.984375 
Q 45.40625 37.75 41.375 43.109375 
Q 37.359375 48.484375 30.078125 48.484375 
Q 22.859375 48.484375 18.828125 43.109375 
Q 14.796875 37.75 14.796875 27.984375 
Q 14.796875 18.265625 18.828125 12.890625 
Q 22.859375 7.515625 30.078125 7.515625 
Q 37.359375 7.515625 41.375 12.890625 
Q 45.40625 18.265625 45.40625 27.984375 
z
M 54.390625 6.78125 
Q 54.390625 -7.171875 48.1875 -13.984375 
Q 42 -20.796875 29.203125 -20.796875 
Q 24.46875 -20.796875 20.265625 -20.09375 
Q 16.0625 -19.390625 12.109375 -17.921875 
L 12.109375 -9.1875 
Q 16.0625 -11.328125 19.921875 -12.34375 
Q 23.78125 -13.375 27.78125 -13.375 
Q 36.625 -13.375 41.015625 -8.765625 
Q 45.40625 -4.15625 45.40625 5.171875 
L 45.40625 9.625 
Q 42.625 4.78125 38.28125 2.390625 
Q 33.9375 0 27.875 0 
Q 17.828125 0 11.671875 7.65625 
Q 5.515625 15.328125 5.515625 27.984375 
Q 5.515625 40.671875 11.671875 48.328125 
Q 17.828125 56 27.875 56 
Q 33.9375 56 38.28125 53.609375 
Q 42.625 51.21875 45.40625 46.390625 
L 45.40625 54.6875 
L 54.390625 54.6875 
z
" id="DejaVuSans-103"/>
      <path d="M 48.6875 27.296875 
Q 48.6875 37.203125 44.609375 42.84375 
Q 40.53125 48.484375 33.40625 48.484375 
Q 26.265625 48.484375 22.1875 42.84375 
Q 18.109375 37.203125 18.109375 27.296875 
Q 18.109375 17.390625 22.1875 11.75 
Q 26.265625 6.109375 33.40625 6.109375 
Q 40.53125 6.109375 44.609375 11.75 
Q 48.6875 17.390625 48.6875 27.296875 
z
M 18.109375 46.390625 
Q 20.953125 51.265625 25.265625 53.625 
Q 29.59375 56 35.59375 56 
Q 45.5625 56 51.78125 48.09375 
Q 58.015625 40.1875 58.015625 27.296875 
Q 58.015625 14.40625 51.78125 6.484375 
Q 45.5625 -1.421875 35.59375 -1.421875 
Q 29.59375 -1.421875 25.265625 0.953125 
Q 20.953125 3.328125 18.109375 8.203125 
L 18.109375 0 
L 9.078125 0 
L 9.078125 75.984375 
L 18.109375 75.984375 
z
" id="DejaVuSans-98"/>
      <path d="M 41.109375 46.296875 
Q 39.59375 47.171875 37.8125 47.578125 
Q 36.03125 48 33.890625 48 
Q 26.265625 48 22.1875 43.046875 
Q 18.109375 38.09375 18.109375 28.8125 
L 18.109375 0 
L 9.078125 0 
L 9.078125 54.6875 
L 18.109375 54.6875 
L 18.109375 46.1875 
Q 20.953125 51.171875 25.484375 53.578125 
Q 30.03125 56 36.53125 56 
Q 37.453125 56 38.578125 55.875 
Q 39.703125 55.765625 41.0625 55.515625 
z
" id="DejaVuSans-114"/>
      <path id="DejaVuSans-32"/>
      <path d="M 44.28125 53.078125 
L 44.28125 44.578125 
Q 40.484375 46.53125 36.375 47.5 
Q 32.28125 48.484375 27.875 48.484375 
Q 21.1875 48.484375 17.84375 46.4375 
Q 14.5 44.390625 14.5 40.28125 
Q 14.5 37.15625 16.890625 35.375 
Q 19.28125 33.59375 26.515625 31.984375 
L 29.59375 31.296875 
Q 39.15625 29.25 43.1875 25.515625 
Q 47.21875 21.78125 47.21875 15.09375 
Q 47.21875 7.46875 41.1875 3.015625 
Q 35.15625 -1.421875 24.609375 -1.421875 
Q 20.21875 -1.421875 15.453125 -0.5625 
Q 10.6875 0.296875 5.421875 2 
L 5.421875 11.28125 
Q 10.40625 8.6875 15.234375 7.390625 
Q 20.0625 6.109375 24.8125 6.109375 
Q 31.15625 6.109375 34.5625 8.28125 
Q 37.984375 10.453125 37.984375 14.40625 
Q 37.984375 18.0625 35.515625 20.015625 
Q 33.0625 21.96875 24.703125 23.78125 
L 21.578125 24.515625 
Q 13.234375 26.265625 9.515625 29.90625 
Q 5.8125 33.546875 5.8125 39.890625 
Q 5.8125 47.609375 11.28125 51.796875 
Q 16.75 56 26.8125 56 
Q 31.78125 56 36.171875 55.265625 
Q 40.578125 54.546875 44.28125 53.078125 
z
" id="DejaVuSans-115"/>
      <path d="M 18.109375 8.203125 
L 18.109375 -20.796875 
L 9.078125 -20.796875 
L 9.078125 54.6875 
L 18.109375 54.6875 
L 18.109375 46.390625 
Q 20.953125 51.265625 25.265625 53.625 
Q 29.59375 56 35.59375 56 
Q 45.5625 56 51.78125 48.09375 
Q 58.015625 40.1875 58.015625 27.296875 
Q 58.015625 14.40625 51.78125 6.484375 
Q 45.5625 -1.421875 35.59375 -1.421875 
Q 29.59375 -1.421875 25.265625 0.953125 
Q 20.953125 3.328125 18.109375 8.203125 
z
M 48.6875 27.296875 
Q 48.6875 37.203125 44.609375 42.84375 
Q 40.53125 48.484375 33.40625 48.484375 
Q 26.265625 48.484375 22.1875 42.84375 
Q 18.109375 37.203125 18.109375 27.296875 
Q 18.109375 17.390625 22.1875 11.75 
Q 26.265625 6.109375 33.40625 6.109375 
Q 40.53125 6.109375 44.609375 11.75 
Q 48.6875 17.390625 48.6875 27.296875 
z
" id="DejaVuSans-112"/>
      <path d="M 56.203125 29.59375 
L 56.203125 25.203125 
L 14.890625 25.203125 
Q 15.484375 15.921875 20.484375 11.0625 
Q 25.484375 6.203125 34.421875 6.203125 
Q 39.59375 6.203125 44.453125 7.46875 
Q 49.3125 8.734375 54.109375 11.28125 
L 54.109375 2.78125 
Q 49.265625 0.734375 44.1875 -0.34375 
Q 39.109375 -1.421875 33.890625 -1.421875 
Q 20.796875 -1.421875 13.15625 6.1875 
Q 5.515625 13.8125 5.515625 26.8125 
Q 5.515625 40.234375 12.765625 48.109375 
Q 20.015625 56 32.328125 56 
Q 43.359375 56 49.78125 48.890625 
Q 56.203125 41.796875 56.203125 29.59375 
z
M 47.21875 32.234375 
Q 47.125 39.59375 43.09375 43.984375 
Q 39.0625 48.390625 32.421875 48.390625 
Q 24.90625 48.390625 20.390625 44.140625 
Q 15.875 39.890625 15.1875 32.171875 
z
" id="DejaVuSans-101"/>
      <path d="M 45.40625 46.390625 
L 45.40625 75.984375 
L 54.390625 75.984375 
L 54.390625 0 
L 45.40625 0 
L 45.40625 8.203125 
Q 42.578125 3.328125 38.25 0.953125 
Q 33.9375 -1.421875 27.875 -1.421875 
Q 17.96875 -1.421875 11.734375 6.484375 
Q 5.515625 14.40625 5.515625 27.296875 
Q 5.515625 40.1875 11.734375 48.09375 
Q 17.96875 56 27.875 56 
Q 33.9375 56 38.25 53.625 
Q 42.578125 51.265625 45.40625 46.390625 
z
M 14.796875 27.296875 
Q 14.796875 17.390625 18.875 11.75 
Q 22.953125 6.109375 30.078125 6.109375 
Q 37.203125 6.109375 41.296875 11.75 
Q 45.40625 17.390625 45.40625 27.296875 
Q 45.40625 37.203125 41.296875 42.84375 
Q 37.203125 48.484375 30.078125 48.484375 
Q 22.953125 48.484375 18.875 42.84375 
Q 14.796875 37.203125 14.796875 27.296875 
z
" id="DejaVuSans-100"/>
     </defs>
     <use xlink:href="#DejaVuSans-103"/>
     <use x="63.476562" xlink:href="#DejaVuSans-98"/>
     <use x="126.953125" xlink:href="#DejaVuSans-114"/>
     <use x="168.066406" xlink:href="#DejaVuSans-32"/>
     <use x="199.853516" xlink:href="#DejaVuSans-115"/>
     <use x="251.953125" xlink:href="#DejaVuSans-112"/>
     <use x="315.429688" xlink:href="#DejaVuSans-101"/>
     <use x="376.953125" xlink:href="#DejaVuSans-101"/>
     <use x="438.476562" xlink:href="#DejaVuSans-100"/>
    </g>
   </g>
   <g id="legend_1">
    <g id="patch_7">
     <path d="M 64.6 302.584 
L 156.557813 302.584 
Q 158.557813 302.584 158.557813 300.584 
L 158.557813 257.549625 
Q 158.557813 255.549625 156.557813 255.549625 
L 64.6 255.549625 
Q 62.6 255.549625 62.6 257.549625 
L 62.6 300.584 
Q 62.6 302.584 64.6 302.584 
z
" style="fill:#ffffff;opacity:0.8;stroke:#cccccc;stroke-linejoin:miter;"/>
    </g>
    <g id="line2d_16">
     <path d="M 66.6 263.648062 
L 86.6 263.648062 
" style="fill:none;stroke:#1f77b4;stroke-linecap:square;stroke-width:1.5;"/>
    </g>
    <g id="line2d_17"/>
    <g id="text_14">
     <!-- Waypoints -->
     <g transform="translate(94.6 267.148062)scale(0.1 -0.1)">
      <defs>
       <path d="M 3.328125 72.90625 
L 13.28125 72.90625 
L 28.609375 11.28125 
L 43.890625 72.90625 
L 54.984375 72.90625 
L 70.3125 11.28125 
L 85.59375 72.90625 
L 95.609375 72.90625 
L 77.296875 0 
L 64.890625 0 
L 49.515625 63.28125 
L 33.984375 0 
L 21.578125 0 
z
" id="DejaVuSans-87"/>
       <path d="M 34.28125 27.484375 
Q 23.390625 27.484375 19.1875 25 
Q 14.984375 22.515625 14.984375 16.5 
Q 14.984375 11.71875 18.140625 8.90625 
Q 21.296875 6.109375 26.703125 6.109375 
Q 34.1875 6.109375 38.703125 11.40625 
Q 43.21875 16.703125 43.21875 25.484375 
L 43.21875 27.484375 
z
M 52.203125 31.203125 
L 52.203125 0 
L 43.21875 0 
L 43.21875 8.296875 
Q 40.140625 3.328125 35.546875 0.953125 
Q 30.953125 -1.421875 24.3125 -1.421875 
Q 15.921875 -1.421875 10.953125 3.296875 
Q 6 8.015625 6 15.921875 
Q 6 25.140625 12.171875 29.828125 
Q 18.359375 34.515625 30.609375 34.515625 
L 43.21875 34.515625 
L 43.21875 35.40625 
Q 43.21875 41.609375 39.140625 45 
Q 35.0625 48.390625 27.6875 48.390625 
Q 23 48.390625 18.546875 47.265625 
Q 14.109375 46.140625 10.015625 43.890625 
L 10.015625 52.203125 
Q 14.9375 54.109375 19.578125 55.046875 
Q 24.21875 56 28.609375 56 
Q 40.484375 56 46.34375 49.84375 
Q 52.203125 43.703125 52.203125 31.203125 
z
" id="DejaVuSans-97"/>
       <path d="M 32.171875 -5.078125 
Q 28.375 -14.84375 24.75 -17.8125 
Q 21.140625 -20.796875 15.09375 -20.796875 
L 7.90625 -20.796875 
L 7.90625 -13.28125 
L 13.1875 -13.28125 
Q 16.890625 -13.28125 18.9375 -11.515625 
Q 21 -9.765625 23.484375 -3.21875 
L 25.09375 0.875 
L 2.984375 54.6875 
L 12.5 54.6875 
L 29.59375 11.921875 
L 46.6875 54.6875 
L 56.203125 54.6875 
z
" id="DejaVuSans-121"/>
       <path d="M 30.609375 48.390625 
Q 23.390625 48.390625 19.1875 42.75 
Q 14.984375 37.109375 14.984375 27.296875 
Q 14.984375 17.484375 19.15625 11.84375 
Q 23.34375 6.203125 30.609375 6.203125 
Q 37.796875 6.203125 41.984375 11.859375 
Q 46.1875 17.53125 46.1875 27.296875 
Q 46.1875 37.015625 41.984375 42.703125 
Q 37.796875 48.390625 30.609375 48.390625 
z
M 30.609375 56 
Q 42.328125 56 49.015625 48.375 
Q 55.71875 40.765625 55.71875 27.296875 
Q 55.71875 13.875 49.015625 6.21875 
Q 42.328125 -1.421875 30.609375 -1.421875 
Q 18.84375 -1.421875 12.171875 6.21875 
Q 5.515625 13.875 5.515625 27.296875 
Q 5.515625 40.765625 12.171875 48.375 
Q 18.84375 56 30.609375 56 
z
" id="DejaVuSans-111"/>
       <path d="M 9.421875 54.6875 
L 18.40625 54.6875 
L 18.40625 0 
L 9.421875 0 
z
M 9.421875 75.984375 
L 18.40625 75.984375 
L 18.40625 64.59375 
L 9.421875 64.59375 
z
" id="DejaVuSans-105"/>
       <path d="M 54.890625 33.015625 
L 54.890625 0 
L 45.90625 0 
L 45.90625 32.71875 
Q 45.90625 40.484375 42.875 44.328125 
Q 39.84375 48.1875 33.796875 48.1875 
Q 26.515625 48.1875 22.3125 43.546875 
Q 18.109375 38.921875 18.109375 30.90625 
L 18.109375 0 
L 9.078125 0 
L 9.078125 54.6875 
L 18.109375 54.6875 
L 18.109375 46.1875 
Q 21.34375 51.125 25.703125 53.5625 
Q 30.078125 56 35.796875 56 
Q 45.21875 56 50.046875 50.171875 
Q 54.890625 44.34375 54.890625 33.015625 
z
" id="DejaVuSans-110"/>
       <path d="M 18.3125 70.21875 
L 18.3125 54.6875 
L 36.8125 54.6875 
L 36.8125 47.703125 
L 18.3125 47.703125 
L 18.3125 18.015625 
Q 18.3125 11.328125 20.140625 9.421875 
Q 21.96875 7.515625 27.59375 7.515625 
L 36.8125 7.515625 
L 36.8125 0 
L 27.59375 0 
Q 17.1875 0 13.234375 3.875 
Q 9.28125 7.765625 9.28125 18.015625 
L 9.28125 47.703125 
L 2.6875 47.703125 
L 2.6875 54.6875 
L 9.28125 54.6875 
L 9.28125 70.21875 
z
" id="DejaVuSans-116"/>
      </defs>
      <use xlink:href="#DejaVuSans-87"/>
      <use x="92.501953" xlink:href="#DejaVuSans-97"/>
      <use x="153.78125" xlink:href="#DejaVuSans-121"/>
      <use x="212.960938" xlink:href="#DejaVuSans-112"/>
      <use x="276.4375" xlink:href="#DejaVuSans-111"/>
      <use x="337.619141" xlink:href="#DejaVuSans-105"/>
      <use x="365.402344" xlink:href="#DejaVuSans-110"/>
      <use x="428.78125" xlink:href="#DejaVuSans-116"/>
      <use x="467.990234" xlink:href="#DejaVuSans-115"/>
     </g>
    </g>
    <g id="line2d_18">
     <path d="M 66.6 278.326188 
L 86.6 278.326188 
" style="fill:none;stroke:#ff7f0e;stroke-linecap:square;stroke-width:1.5;"/>
    </g>
    <g id="line2d_19"/>
    <g id="text_15">
     <!-- Stanley -->
     <g transform="translate(94.6 281.826188)scale(0.1 -0.1)">
      <defs>
       <path d="M 53.515625 70.515625 
L 53.515625 60.890625 
Q 47.90625 63.578125 42.921875 64.890625 
Q 37.9375 66.21875 33.296875 66.21875 
Q 25.25 66.21875 20.875 63.09375 
Q 16.5 59.96875 16.5 54.203125 
Q 16.5 49.359375 19.40625 46.890625 
Q 22.3125 44.4375 30.421875 42.921875 
L 36.375 41.703125 
Q 47.40625 39.59375 52.65625 34.296875 
Q 57.90625 29 57.90625 20.125 
Q 57.90625 9.515625 50.796875 4.046875 
Q 43.703125 -1.421875 29.984375 -1.421875 
Q 24.8125 -1.421875 18.96875 -0.25 
Q 13.140625 0.921875 6.890625 3.21875 
L 6.890625 13.375 
Q 12.890625 10.015625 18.65625 8.296875 
Q 24.421875 6.59375 29.984375 6.59375 
Q 38.421875 6.59375 43.015625 9.90625 
Q 47.609375 13.234375 47.609375 19.390625 
Q 47.609375 24.75 44.3125 27.78125 
Q 41.015625 30.8125 33.5 32.328125 
L 27.484375 33.5 
Q 16.453125 35.6875 11.515625 40.375 
Q 6.59375 45.0625 6.59375 53.421875 
Q 6.59375 63.09375 13.40625 68.65625 
Q 20.21875 74.21875 32.171875 74.21875 
Q 37.3125 74.21875 42.625 73.28125 
Q 47.953125 72.359375 53.515625 70.515625 
z
" id="DejaVuSans-83"/>
       <path d="M 9.421875 75.984375 
L 18.40625 75.984375 
L 18.40625 0 
L 9.421875 0 
z
" id="DejaVuSans-108"/>
      </defs>
      <use xlink:href="#DejaVuSans-83"/>
      <use x="63.476562" xlink:href="#DejaVuSans-116"/>
      <use x="102.685547" xlink:href="#DejaVuSans-97"/>
      <use x="163.964844" xlink:href="#DejaVuSans-110"/>
      <use x="227.34375" xlink:href="#DejaVuSans-108"/>
      <use x="255.126953" xlink:href="#DejaVuSans-101"/>
      <use x="316.650391" xlink:href="#DejaVuSans-121"/>
     </g>
    </g>
    <g id="line2d_20">
     <path d="M 66.6 293.004312 
L 86.6 293.004312 
" style="fill:none;stroke:#2ca02c;stroke-linecap:square;stroke-width:1.5;"/>
    </g>
    <g id="line2d_21"/>
    <g id="text_16">
     <!-- Pure Pursuit -->
     <g transform="translate(94.6 296.504312)scale(0.1 -0.1)">
      <defs>
       <path d="M 19.671875 64.796875 
L 19.671875 37.40625 
L 32.078125 37.40625 
Q 38.96875 37.40625 42.71875 40.96875 
Q 46.484375 44.53125 46.484375 51.125 
Q 46.484375 57.671875 42.71875 61.234375 
Q 38.96875 64.796875 32.078125 64.796875 
z
M 9.8125 72.90625 
L 32.078125 72.90625 
Q 44.34375 72.90625 50.609375 67.359375 
Q 56.890625 61.8125 56.890625 51.125 
Q 56.890625 40.328125 50.609375 34.8125 
Q 44.34375 29.296875 32.078125 29.296875 
L 19.671875 29.296875 
L 19.671875 0 
L 9.8125 0 
z
" id="DejaVuSans-80"/>
       <path d="M 8.5 21.578125 
L 8.5 54.6875 
L 17.484375 54.6875 
L 17.484375 21.921875 
Q 17.484375 14.15625 20.5 10.265625 
Q 23.53125 6.390625 29.59375 6.390625 
Q 36.859375 6.390625 41.078125 11.03125 
Q 45.3125 15.671875 45.3125 23.6875 
L 45.3125 54.6875 
L 54.296875 54.6875 
L 54.296875 0 
L 45.3125 0 
L 45.3125 8.40625 
Q 42.046875 3.421875 37.71875 1 
Q 33.40625 -1.421875 27.6875 -1.421875 
Q 18.265625 -1.421875 13.375 4.4375 
Q 8.5 10.296875 8.5 21.578125 
z
M 31.109375 56 
z
" id="DejaVuSans-117"/>
      </defs>
      <use xlink:href="#DejaVuSans-80"/>
      <use x="58.552734" xlink:href="#DejaVuSans-117"/>
      <use x="121.931641" xlink:href="#DejaVuSans-114"/>
      <use x="160.794922" xlink:href="#DejaVuSans-101"/>
      <use x="222.318359" xlink:href="#DejaVuSans-32"/>
      <use x="254.105469" xlink:href="#DejaVuSans-80"/>
      <use x="312.658203" xlink:href="#DejaVuSans-117"/>
      <use x="376.037109" xlink:href="#DejaVuSans-114"/>
      <use x="417.150391" xlink:href="#DejaVuSans-115"/>
      <use x="469.25" xlink:href="#DejaVuSans-117"/>
      <use x="532.628906" xlink:href="#DejaVuSans-105"/>
      <use x="560.412109" xlink:href="#DejaVuSans-116"/>
     </g>
    </g>
   </g>
  </g>
 </g>
 <defs>
  <clipPath id="pc1b3617036">
   <rect height="266.112" width="357.12" x="57.6" y="41.472"/>
  </clipPath>
 </defs>
</svg>
