<?xml version="1.0" encoding="utf-8" standalone="no"?>
<!DOCTYPE svg PUBLIC "-//W3C//DTD SVG 1.1//EN"
  "http://www.w3.org/Graphics/SVG/1.1/DTD/svg11.dtd">
<!-- Created with matplotlib (https://matplotlib.org/) -->
<svg height="345.6pt" version="1.1" viewBox="0 0 460.8 345.6" width="460.8pt" xmlns="http://www.w3.org/2000/svg" xmlns:xlink="http://www.w3.org/1999/xlink">
 <metadata>
  <rdf:RDF xmlns:cc="http://creativecommons.org/ns#" xmlns:dc="http://purl.org/dc/elements/1.1/" xmlns:rdf="http://www.w3.org/1999/02/22-rdf-syntax-ns#">
   <cc:Work>
    <dc:type rdf:resource="http://purl.org/dc/dcmitype/StillImage"/>
    <dc:date>2024-10-15T01:07:48.636903</dc:date>
    <dc:format>image/svg+xml</dc:format>
    <dc:creator>
     <cc:Agent>
      <dc:title>Matplotlib v3.3.1, https://matplotlib.org/</dc:title>
     </cc:Agent>
    </dc:creator>
   </cc:Work>
  </rdf:RDF>
 </metadata>
 <defs>
  <style type="text/css">*{stroke-linecap:butt;stroke-linejoin:round;}</style>
 </defs>
 <g id="figure_1">
  <g id="patch_1">
   <path d="M 0 345.6 
L 460.8 345.6 
L 460.8 0 
L 0 0 
z
" style="fill:#ffffff;"/>
  </g>
  <g id="axes_1">
   <g id="patch_2">
    <path d="M 57.6 307.584 
L 414.72 307.584 
L 414.72 41.472 
L 57.6 41.472 
z
" style="fill:#ffffff;"/>
   </g>
   <g id="matplotlib.axis_1">
    <g id="xtick_1">
     <g id="line2d_1">
      <defs>
       <path d="M 0 0 
L 0 3.5 
" id="m4a19e32165" style="stroke:#000000;stroke-width:0.8;"/>
      </defs>
      <g>
       <use style="stroke:#000000;stroke-width:0.8;" x="73.832727" xlink:href="#m4a19e32165" y="307.584"/>
      </g>
     </g>
     <g id="text_1">
      <!-- 0.0 -->
      <g transform="translate(65.881165 322.182437)scale(0.1 -0.1)">
       <defs>
        <path d="M 31.78125 66.40625 
Q 24.171875 66.40625 20.328125 58.90625 
Q 16.5 51.421875 16.5 36.375 
Q 16.5 21.390625 20.328125 13.890625 
Q 24.171875 6.390625 31.78125 6.390625 
Q 39.453125 6.390625 43.28125 13.890625 
Q 47.125 21.390625 47.125 36.375 
Q 47.125 51.421875 43.28125 58.90625 
Q 39.453125 66.40625 31.78125 66.40625 
z
M 31.78125 74.21875 
Q 44.046875 74.21875 50.515625 64.515625 
Q 56.984375 54.828125 56.984375 36.375 
Q 56.984375 17.96875 50.515625 8.265625 
Q 44.046875 -1.421875 31.78125 -1.421875 
Q 19.53125 -1.421875 13.0625 8.265625 
Q 6.59375 17.96875 6.59375 36.375 
Q 6.59375 54.828125 13.0625 64.515625 
Q 19.53125 74.21875 31.78125 74.21875 
z
" id="DejaVuSans-48"/>
        <path d="M 10.6875 12.40625 
L 21 12.40625 
L 21 0 
L 10.6875 0 
z
" id="DejaVuSans-46"/>
       </defs>
       <use xlink:href="#DejaVuSans-48"/>
       <use x="63.623047" xlink:href="#DejaVuSans-46"/>
       <use x="95.410156" xlink:href="#DejaVuSans-48"/>
      </g>
     </g>
    </g>
    <g id="xtick_2">
     <g id="line2d_2">
      <g>
       <use style="stroke:#000000;stroke-width:0.8;" x="138.763636" xlink:href="#m4a19e32165" y="307.584"/>
      </g>
     </g>
     <g id="text_2">
      <!-- 0.2 -->
      <g transform="translate(130.812074 322.182437)scale(0.1 -0.1)">
       <defs>
        <path d="M 19.1875 8.296875 
L 53.609375 8.296875 
L 53.609375 0 
L 7.328125 0 
L 7.328125 8.296875 
Q 12.9375 14.109375 22.625 23.890625 
Q 32.328125 33.6875 34.8125 36.53125 
Q 39.546875 41.84375 41.421875 45.53125 
Q 43.3125 49.21875 43.3125 52.78125 
Q 43.3125 58.59375 39.234375 62.25 
Q 35.15625 65.921875 28.609375 65.921875 
Q 23.96875 65.921875 18.8125 64.3125 
Q 13.671875 62.703125 7.8125 59.421875 
L 7.8125 69.390625 
Q 13.765625 71.78125 18.9375 73 
Q 24.125 74.21875 28.421875 74.21875 
Q 39.75 74.21875 46.484375 68.546875 
Q 53.21875 62.890625 53.21875 53.421875 
Q 53.21875 48.921875 51.53125 44.890625 
Q 49.859375 40.875 45.40625 35.40625 
Q 44.1875 33.984375 37.640625 27.21875 
Q 31.109375 20.453125 19.1875 8.296875 
z
" id="DejaVuSans-50"/>
       </defs>
       <use xlink:href="#DejaVuSans-48"/>
       <use x="63.623047" xlink:href="#DejaVuSans-46"/>
       <use x="95.410156" xlink:href="#DejaVuSans-50"/>
      </g>
     </g>
    </g>
    <g id="xtick_3">
     <g id="line2d_3">
      <g>
       <use style="stroke:#000000;stroke-width:0.8;" x="203.694545" xlink:href="#m4a19e32165" y="307.584"/>
      </g>
     </g>
     <g id="text_3">
      <!-- 0.4 -->
      <g transform="translate(195.742983 322.182437)scale(0.1 -0.1)">
       <defs>
        <path d="M 37.796875 64.3125 
L 12.890625 25.390625 
L 37.796875 25.390625 
z
M 35.203125 72.90625 
L 47.609375 72.90625 
L 47.609375 25.390625 
L 58.015625 25.390625 
L 58.015625 17.1875 
L 47.609375 17.1875 
L 47.609375 0 
L 37.796875 0 
L 37.796875 17.1875 
L 4.890625 17.1875 
L 4.890625 26.703125 
z
" id="DejaVuSans-52"/>
       </defs>
       <use xlink:href="#DejaVuSans-48"/>
       <use x="63.623047" xlink:href="#DejaVuSans-46"/>
       <use x="95.410156" xlink:href="#DejaVuSans-52"/>
      </g>
     </g>
    </g>
    <g id="xtick_4">
     <g id="line2d_4">
      <g>
       <use style="stroke:#000000;stroke-width:0.8;" x="268.625455" xlink:href="#m4a19e32165" y="307.584"/>
      </g>
     </g>
     <g id="text_4">
      <!-- 0.6 -->
      <g transform="translate(260.673892 322.182437)scale(0.1 -0.1)">
       <defs>
        <path d="M 33.015625 40.375 
Q 26.375 40.375 22.484375 35.828125 
Q 18.609375 31.296875 18.609375 23.390625 
Q 18.609375 15.53125 22.484375 10.953125 
Q 26.375 6.390625 33.015625 6.390625 
Q 39.65625 6.390625 43.53125 10.953125 
Q 47.40625 15.53125 47.40625 23.390625 
Q 47.40625 31.296875 43.53125 35.828125 
Q 39.65625 40.375 33.015625 40.375 
z
M 52.59375 71.296875 
L 52.59375 62.3125 
Q 48.875 64.0625 45.09375 64.984375 
Q 41.3125 65.921875 37.59375 65.921875 
Q 27.828125 65.921875 22.671875 59.328125 
Q 17.53125 52.734375 16.796875 39.40625 
Q 19.671875 43.65625 24.015625 45.921875 
Q 28.375 48.1875 33.59375 48.1875 
Q 44.578125 48.1875 50.953125 41.515625 
Q 57.328125 34.859375 57.328125 23.390625 
Q 57.328125 12.15625 50.6875 5.359375 
Q 44.046875 -1.421875 33.015625 -1.421875 
Q 20.359375 -1.421875 13.671875 8.265625 
Q 6.984375 17.96875 6.984375 36.375 
Q 6.984375 53.65625 15.1875 63.9375 
Q 23.390625 74.21875 37.203125 74.21875 
Q 40.921875 74.21875 44.703125 73.484375 
Q 48.484375 72.75 52.59375 71.296875 
z
" id="DejaVuSans-54"/>
       </defs>
       <use xlink:href="#DejaVuSans-48"/>
       <use x="63.623047" xlink:href="#DejaVuSans-46"/>
       <use x="95.410156" xlink:href="#DejaVuSans-54"/>
      </g>
     </g>
    </g>
    <g id="xtick_5">
     <g id="line2d_5">
      <g>
       <use style="stroke:#000000;stroke-width:0.8;" x="333.556364" xlink:href="#m4a19e32165" y="307.584"/>
      </g>
     </g>
     <g id="text_5">
      <!-- 0.8 -->
      <g transform="translate(325.604801 322.182437)scale(0.1 -0.1)">
       <defs>
        <path d="M 31.78125 34.625 
Q 24.75 34.625 20.71875 30.859375 
Q 16.703125 27.09375 16.703125 20.515625 
Q 16.703125 13.921875 20.71875 10.15625 
Q 24.75 6.390625 31.78125 6.390625 
Q 38.8125 6.390625 42.859375 10.171875 
Q 46.921875 13.96875 46.921875 20.515625 
Q 46.921875 27.09375 42.890625 30.859375 
Q 38.875 34.625 31.78125 34.625 
z
M 21.921875 38.8125 
Q 15.578125 40.375 12.03125 44.71875 
Q 8.5 49.078125 8.5 55.328125 
Q 8.5 64.0625 14.71875 69.140625 
Q 20.953125 74.21875 31.78125 74.21875 
Q 42.671875 74.21875 48.875 69.140625 
Q 55.078125 64.0625 55.078125 55.328125 
Q 55.078125 49.078125 51.53125 44.71875 
Q 48 40.375 41.703125 38.8125 
Q 48.828125 37.15625 52.796875 32.3125 
Q 56.78125 27.484375 56.78125 20.515625 
Q 56.78125 9.90625 50.3125 4.234375 
Q 43.84375 -1.421875 31.78125 -1.421875 
Q 19.734375 -1.421875 13.25 4.234375 
Q 6.78125 9.90625 6.78125 20.515625 
Q 6.78125 27.484375 10.78125 32.3125 
Q 14.796875 37.15625 21.921875 38.8125 
z
M 18.3125 54.390625 
Q 18.3125 48.734375 21.84375 45.5625 
Q 25.390625 42.390625 31.78125 42.390625 
Q 38.140625 42.390625 41.71875 45.5625 
Q 45.3125 48.734375 45.3125 54.390625 
Q 45.3125 60.0625 41.71875 63.234375 
Q 38.140625 66.40625 31.78125 66.40625 
Q 25.390625 66.40625 21.84375 63.234375 
Q 18.3125 60.0625 18.3125 54.390625 
z
" id="DejaVuSans-56"/>
       </defs>
       <use xlink:href="#DejaVuSans-48"/>
       <use x="63.623047" xlink:href="#DejaVuSans-46"/>
       <use x="95.410156" xlink:href="#DejaVuSans-56"/>
      </g>
     </g>
    </g>
    <g id="xtick_6">
     <g id="line2d_6">
      <g>
       <use style="stroke:#000000;stroke-width:0.8;" x="398.487273" xlink:href="#m4a19e32165" y="307.584"/>
      </g>
     </g>
     <g id="text_6">
      <!-- 1.0 -->
      <g transform="translate(390.53571 322.182437)scale(0.1 -0.1)">
       <defs>
        <path d="M 12.40625 8.296875 
L 28.515625 8.296875 
L 28.515625 63.921875 
L 10.984375 60.40625 
L 10.984375 69.390625 
L 28.421875 72.90625 
L 38.28125 72.90625 
L 38.28125 8.296875 
L 54.390625 8.296875 
L 54.390625 0 
L 12.40625 0 
z
" id="DejaVuSans-49"/>
       </defs>
       <use xlink:href="#DejaVuSans-49"/>
       <use x="63.623047" xlink:href="#DejaVuSans-46"/>
       <use x="95.410156" xlink:href="#DejaVuSans-48"/>
      </g>
     </g>
    </g>
   </g>
   <g id="matplotlib.axis_2">
    <g id="ytick_1">
     <g id="line2d_7">
      <defs>
       <path d="M 0 0 
L -3.5 0 
" id="ma18ce519d3" style="stroke:#000000;stroke-width:0.8;"/>
      </defs>
      <g>
       <use style="stroke:#000000;stroke-width:0.8;" x="57.6" xlink:href="#ma18ce519d3" y="300.127211"/>
      </g>
     </g>
     <g id="text_7">
      <!-- 3 -->
      <g transform="translate(44.2375 303.92643)scale(0.1 -0.1)">
       <defs>
        <path d="M 40.578125 39.3125 
Q 47.65625 37.796875 51.625 33 
Q 55.609375 28.21875 55.609375 21.1875 
Q 55.609375 10.40625 48.1875 4.484375 
Q 40.765625 -1.421875 27.09375 -1.421875 
Q 22.515625 -1.421875 17.65625 -0.515625 
Q 12.796875 0.390625 7.625 2.203125 
L 7.625 11.71875 
Q 11.71875 9.328125 16.59375 8.109375 
Q 21.484375 6.890625 26.8125 6.890625 
Q 36.078125 6.890625 40.9375 10.546875 
Q 45.796875 14.203125 45.796875 21.1875 
Q 45.796875 27.640625 41.28125 31.265625 
Q 36.765625 34.90625 28.71875 34.90625 
L 20.21875 34.90625 
L 20.21875 43.015625 
L 29.109375 43.015625 
Q 36.375 43.015625 40.234375 45.921875 
Q 44.09375 48.828125 44.09375 54.296875 
Q 44.09375 59.90625 40.109375 62.90625 
Q 36.140625 65.921875 28.71875 65.921875 
Q 24.65625 65.921875 20.015625 65.03125 
Q 15.375 64.15625 9.8125 62.3125 
L 9.8125 71.09375 
Q 15.4375 72.65625 20.34375 73.4375 
Q 25.25 74.21875 29.59375 74.21875 
Q 40.828125 74.21875 47.359375 69.109375 
Q 53.90625 64.015625 53.90625 55.328125 
Q 53.90625 49.265625 50.4375 45.09375 
Q 46.96875 40.921875 40.578125 39.3125 
z
" id="DejaVuSans-51"/>
       </defs>
       <use xlink:href="#DejaVuSans-51"/>
      </g>
     </g>
    </g>
    <g id="ytick_2">
     <g id="line2d_8">
      <g>
       <use style="stroke:#000000;stroke-width:0.8;" x="57.6" xlink:href="#ma18ce519d3" y="250.815369"/>
      </g>
     </g>
     <g id="text_8">
      <!-- 4 -->
      <g transform="translate(44.2375 254.614588)scale(0.1 -0.1)">
       <use xlink:href="#DejaVuSans-52"/>
      </g>
     </g>
    </g>
    <g id="ytick_3">
     <g id="line2d_9">
      <g>
       <use style="stroke:#000000;stroke-width:0.8;" x="57.6" xlink:href="#ma18ce519d3" y="201.503527"/>
      </g>
     </g>
     <g id="text_9">
      <!-- 5 -->
      <g transform="translate(44.2375 205.302745)scale(0.1 -0.1)">
       <defs>
        <path d="M 10.796875 72.90625 
L 49.515625 72.90625 
L 49.515625 64.59375 
L 19.828125 64.59375 
L 19.828125 46.734375 
Q 21.96875 47.46875 24.109375 47.828125 
Q 26.265625 48.1875 28.421875 48.1875 
Q 40.625 48.1875 47.75 41.5 
Q 54.890625 34.8125 54.890625 23.390625 
Q 54.890625 11.625 47.5625 5.09375 
Q 40.234375 -1.421875 26.90625 -1.421875 
Q 22.3125 -1.421875 17.546875 -0.640625 
Q 12.796875 0.140625 7.71875 1.703125 
L 7.71875 11.625 
Q 12.109375 9.234375 16.796875 8.0625 
Q 21.484375 6.890625 26.703125 6.890625 
Q 35.15625 6.890625 40.078125 11.328125 
Q 45.015625 15.765625 45.015625 23.390625 
Q 45.015625 31 40.078125 35.4375 
Q 35.15625 39.890625 26.703125 39.890625 
Q 22.75 39.890625 18.8125 39.015625 
Q 14.890625 38.140625 10.796875 36.28125 
z
" id="DejaVuSans-53"/>
       </defs>
       <use xlink:href="#DejaVuSans-53"/>
      </g>
     </g>
    </g>
    <g id="ytick_4">
     <g id="line2d_10">
      <g>
       <use style="stroke:#000000;stroke-width:0.8;" x="57.6" xlink:href="#ma18ce519d3" y="152.191684"/>
      </g>
     </g>
     <g id="text_10">
      <!-- 6 -->
      <g transform="translate(44.2375 155.990903)scale(0.1 -0.1)">
       <use xlink:href="#DejaVuSans-54"/>
      </g>
     </g>
    </g>
    <g id="ytick_5">
     <g id="line2d_11">
      <g>
       <use style="stroke:#000000;stroke-width:0.8;" x="57.6" xlink:href="#ma18ce519d3" y="102.879842"/>
      </g>
     </g>
     <g id="text_11">
      <!-- 7 -->
      <g transform="translate(44.2375 106.679061)scale(0.1 -0.1)">
       <defs>
        <path d="M 8.203125 72.90625 
L 55.078125 72.90625 
L 55.078125 68.703125 
L 28.609375 0 
L 18.3125 0 
L 43.21875 64.59375 
L 8.203125 64.59375 
z
" id="DejaVuSans-55"/>
       </defs>
       <use xlink:href="#DejaVuSans-55"/>
      </g>
     </g>
    </g>
    <g id="ytick_6">
     <g id="line2d_12">
      <g>
       <use style="stroke:#000000;stroke-width:0.8;" x="57.6" xlink:href="#ma18ce519d3" y="53.568"/>
      </g>
     </g>
     <g id="text_12">
      <!-- 8 -->
      <g transform="translate(44.2375 57.367219)scale(0.1 -0.1)">
       <use xlink:href="#DejaVuSans-56"/>
      </g>
     </g>
    </g>
   </g>
   <g id="line2d_13">
    <path clip-path="url(#pa96d393cef)" d="M 73.832727 53.568 
L 95.941908 53.568 
L 96.108142 53.865273 
L 96.77308 70.107252 
L 98.767893 127.136783 
L 99.931533 152.237499 
L 101.095172 172.466275 
L 102.258809 188.729791 
L 103.089978 197.089821 
L 103.588677 200.458287 
L 103.921143 201.670242 
L 104.253609 202.166349 
L 104.75231 202.102429 
L 104.918541 201.977029 
L 105.084776 201.469434 
L 105.417242 199.484558 
L 105.915943 194.659585 
L 106.580878 184.951354 
L 107.245815 171.760857 
L 108.076987 150.175736 
L 108.908159 122.178962 
L 109.406862 105.678403 
L 109.573097 102.966157 
L 110.238034 114.518378 
L 110.736737 119.34592 
L 111.069205 120.672741 
L 111.235439 120.904802 
L 111.734141 120.857367 
L 111.900375 120.762087 
L 112.232843 120.061063 
L 112.565311 118.469822 
L 113.064014 114.819325 
L 113.562716 109.769593 
L 114.227653 100.633482 
L 115.058825 85.527115 
L 115.889997 66.221228 
L 116.388701 53.568 
L 146.809596 53.568 
L 147.142064 57.526301 
L 148.638173 76.827809 
L 150.300514 95.219457 
L 151.796619 109.601603 
L 153.126489 120.209364 
L 154.12389 126.607609 
L 154.955058 130.430677 
L 155.453757 131.938486 
L 155.786224 132.422795 
L 156.451156 132.475261 
L 156.783622 132.264243 
L 157.116088 131.496515 
L 157.61479 129.52975 
L 158.113489 126.68624 
L 158.944658 120.295769 
L 159.942061 110.770426 
L 160.939464 99.165461 
L 162.103103 82.897221 
L 163.266743 63.644278 
L 163.93168 53.568 
L 192.025281 53.568 
L 192.191516 53.828308 
L 193.521388 69.898991 
L 194.851261 88.74459 
L 196.181133 110.396881 
L 197.344771 132.983634 
L 201.0019 209.622802 
L 203.329114 248.979121 
L 204.825148 271.854389 
L 205.490029 279.094553 
L 206.653529 289.301272 
L 206.985958 290.610783 
L 207.318385 290.610783 
L 207.65082 290.162012 
L 207.983264 287.774718 
L 208.48195 280.976353 
L 209.313094 265.192491 
L 210.476724 237.585234 
L 211.474127 208.102971 
L 212.305298 176.613425 
L 212.471533 177.72121 
L 213.302704 207.614444 
L 214.133874 229.82854 
L 214.798807 242.878279 
L 215.297502 249.903346 
L 215.629966 252.856775 
L 215.962428 254.150338 
L 216.29489 254.150338 
L 216.627353 253.822586 
L 216.959818 252.246217 
L 217.458518 247.88406 
L 218.289684 237.883859 
L 219.619556 218.617218 
L 221.281899 191.172748 
L 222.778008 162.901287 
L 223.941649 136.611378 
L 225.10529 104.691775 
L 226.767635 53.568 
L 252.533974 53.568 
L 257.354768 123.079374 
L 262.009316 187.50041 
L 263.505415 212.097953 
L 267.162512 276.877545 
L 268.159888 291.763795 
L 268.492347 294.61903 
L 268.824808 295.488 
L 269.157275 295.488 
L 269.323506 295.183706 
L 269.48974 294.638711 
L 269.822202 292.046044 
L 270.320891 284.791178 
L 270.819589 274.213817 
L 271.48452 254.464235 
L 272.149457 226.626568 
L 272.315692 218.148073 
L 272.481926 216.695138 
L 273.146863 240.752985 
L 273.978026 262.330442 
L 274.476723 271.366757 
L 274.809183 274.946239 
L 275.141637 276.219251 
L 275.474088 276.219251 
L 275.640303 275.918734 
L 275.806538 275.354435 
L 276.138989 273.009209 
L 276.637664 267.155387 
L 277.468815 253.563105 
L 278.632432 229.815705 
L 279.962299 198.009143 
L 280.79347 173.614184 
L 284.284392 60.583971 
L 284.450627 56.676528 
L 286.11297 86.142508 
L 286.944141 96.68418 
L 287.609077 102.926985 
L 288.274012 107.311315 
L 288.772714 109.150568 
L 289.105182 109.638377 
L 289.603881 109.751348 
L 290.268816 109.665502 
L 290.601283 109.373167 
L 290.933751 108.674394 
L 291.266218 107.45049 
L 291.764921 104.490015 
L 292.429857 98.493627 
L 293.094793 90.147724 
L 293.925965 76.504895 
L 294.757137 59.267694 
L 295.089606 53.568 
L 296.087012 53.568 
L 296.253247 54.785732 
L 297.250653 79.306856 
L 298.248059 98.881712 
L 299.07923 111.630833 
L 299.9104 121.106121 
L 300.575336 126.500654 
L 301.074038 129.045471 
L 301.406505 129.857309 
L 301.738972 130.031014 
L 302.071439 130.031014 
L 302.403906 129.687672 
L 302.736374 128.835751 
L 303.235074 126.639392 
L 303.90001 122.470362 
L 304.73118 115.664089 
L 305.728585 105.481088 
L 306.892224 90.731473 
L 308.055864 72.915107 
L 309.219505 53.568 
L 324.845543 53.568 
L 325.011777 54.631338 
L 326.341653 83.329103 
L 327.671528 107.304244 
L 329.001402 127.251436 
L 330.165042 141.619925 
L 331.328681 153.314014 
L 332.326086 161.022884 
L 335.48453 180.326033 
L 337.479334 195.916229 
L 338.64297 204.193768 
L 339.307902 207.409314 
L 339.640368 208.365052 
L 339.972834 208.72305 
L 340.47153 208.630182 
L 340.637764 208.448512 
L 340.97023 207.100777 
L 341.302697 204.128967 
L 341.801397 196.579498 
L 342.3001 185.34821 
L 342.965037 164.566551 
L 343.46374 147.202542 
L 344.128677 164.62273 
L 344.62738 171.967997 
L 344.959847 174.048479 
L 345.292314 174.311851 
L 345.624781 174.311851 
L 345.791013 174.114816 
L 346.12348 173.218849 
L 346.622182 170.917191 
L 347.287116 166.477916 
L 347.952052 160.325234 
L 348.783221 150.623783 
L 349.780626 136.306759 
L 350.778032 118.857866 
L 354.268954 54.017914 
L 354.435188 53.568 
L 360.087159 53.568 
L 360.253394 55.310734 
L 362.414441 107.288979 
L 363.744316 133.256283 
L 365.07419 154.916174 
L 366.404064 172.998264 
L 367.567703 186.197251 
L 368.398872 193.170213 
L 368.897574 195.854318 
L 369.230041 196.863271 
L 369.562508 197.23997 
L 370.227441 197.272718 
L 370.559908 196.918336 
L 370.892375 195.971028 
L 371.391075 193.540105 
L 372.056009 188.736634 
L 373.053412 179.232953 
L 374.549519 162.335138 
L 376.378094 138.842637 
L 378.206671 112.060373 
L 379.70278 86.682089 
L 381.531359 53.568 
L 398.487273 53.568 
L 398.487273 53.568 
" style="fill:none;stroke:#1f77b4;stroke-linecap:square;stroke-width:1.5;"/>
   </g>
   <g id="line2d_14">
    <path clip-path="url(#pa96d393cef)" d="M 73.832727 53.625348 
L 81.765431 53.571084 
L 95.780496 53.624558 
L 96.044313 55.659671 
L 96.56541 63.799338 
L 97.681272 93.86048 
L 100.052137 153.423776 
L 100.052137 153.423776 
L 100.822152 167.80784 
L 100.822152 167.80784 
L 102.61099 192.522265 
L 102.61099 192.522265 
L 103.287426 198.553618 
L 103.287426 198.553618 
L 103.786503 200.942642 
L 104.117269 201.640107 
L 104.447407 201.918038 
L 104.777387 201.894809 
L 105.107596 201.562187 
L 105.521447 200.512717 
L 105.937662 198.764962 
L 105.937662 198.764962 
L 106.527248 194.41826 
L 107.042406 189.045913 
L 107.570127 181.797917 
L 108.489263 164.799646 
L 109.783447 139.162318 
L 110.305476 134.31623 
L 110.833942 131.287277 
L 110.833942 131.287277 
L 111.580848 128.271884 
L 112.87615 123.413854 
L 113.752955 118.366631 
L 114.646472 110.736951 
L 115.332617 102.534885 
L 116.157132 90.278013 
L 116.157132 90.278013 
L 116.886416 80.973495 
L 117.631927 74.0273 
L 117.631927 74.0273 
L 118.389553 68.841687 
L 119.156221 64.970419 
L 119.156221 64.970419 
L 119.92964 62.080363 
L 120.708098 59.92282 
L 120.708098 59.92282 
L 121.490318 58.312127 
L 122.406405 56.941274 
L 123.32522 55.96654 
L 123.32522 55.96654 
L 124.377635 55.192368 
L 124.377635 55.192368 
L 125.563628 54.615766 
L 127.015034 54.181096 
L 127.015034 54.181096 
L 128.863997 53.877969 
L 131.639204 53.679431 
L 136.662839 53.585499 
L 146.446847 53.568476 
L 146.579013 53.880016 
L 146.579013 53.880016 
L 147.105541 57.174843 
L 147.105541 57.174843 
L 148.138271 68.942696 
L 148.138271 68.942696 
L 150.700066 97.985737 
L 153.415313 121.328068 
L 154.17592 126.225312 
L 154.17592 126.225312 
L 155.03322 130.145682 
L 155.03322 130.145682 
L 155.564657 131.579238 
L 155.988558 132.088231 
L 156.412015 132.248975 
L 156.835434 132.169165 
L 157.259131 131.825338 
L 157.577292 131.391223 
L 157.577292 131.391223 
L 158.002384 130.497305 
L 158.002384 130.497305 
L 158.535906 128.818487 
L 159.180587 125.997939 
L 159.941206 121.523504 
L 160.60237 116.835491 
L 160.60237 116.835491 
L 161.387004 110.184944 
L 162.305285 100.696023 
L 164.728787 73.583814 
L 165.487186 68.510607 
L 166.254433 64.723255 
L 167.028285 61.895844 
L 167.807069 59.785069 
L 168.589533 58.209291 
L 169.505831 56.868153 
L 169.505831 56.868153 
L 170.424795 55.914548 
L 171.477327 55.157157 
L 172.663407 54.593054 
L 172.663407 54.593054 
L 174.114878 54.167806 
L 175.963889 53.87125 
L 178.739128 53.677015 
L 183.894987 53.584305 
L 191.827935 53.618254 
L 192.092024 54.695764 
L 192.486557 56.731164 
L 193.521155 67.962344 
L 194.888244 86.904978 
L 196.182468 107.886219 
L 196.182468 107.886219 
L 197.80798 141.766444 
L 198.982243 169.509686 
L 199.8822 189.222168 
L 203.747189 257.829985 
L 204.489256 268.941749 
L 205.018434 275.614558 
L 205.863255 284.13243 
L 206.511439 289.234653 
L 206.776718 290.13155 
L 207.041084 290.390999 
L 207.25246 290.37073 
L 207.51697 289.989925 
L 207.51697 289.989925 
L 207.729287 289.337323 
L 207.729287 289.337323 
L 208.158101 286.651501 
L 208.158101 286.651501 
L 208.540606 283.118868 
L 209.397649 271.3419 
L 210.522798 250.498343 
L 210.522798 250.498343 
L 212.431127 208.747071 
L 212.672418 207.628728 
L 212.833585 207.627402 
L 213.311407 214.267752 
L 213.696149 222.871921 
L 214.351714 237.524617 
L 214.834991 245.926517 
L 215.236222 250.744922 
L 215.236222 250.744922 
L 215.564883 252.882811 
L 215.891154 253.687657 
L 216.151608 253.813302 
L 216.412059 253.733052 
L 216.672799 253.355199 
L 217.131222 251.790974 
L 217.461501 250.029881 
L 217.862379 247.284553 
L 217.862379 247.284553 
L 218.754126 239.054579 
L 219.761175 227.399951 
L 220.907971 211.908677 
L 222.483931 188.236134 
L 224.532032 150.176054 
L 226.005941 116.258492 
L 226.806285 98.372783 
L 226.806285 98.372783 
L 227.521451 87.016565 
L 228.256423 78.538694 
L 228.256423 78.538694 
L 229.00618 72.209623 
L 229.766976 67.484719 
L 229.766976 67.484719 
L 230.536013 63.957388 
L 231.311201 61.324094 
L 231.311201 61.324094 
L 232.090982 59.358235 
L 233.004995 57.685101 
L 233.922334 56.495432 
L 233.922334 56.495432 
L 234.842039 55.649527 
L 235.89516 54.977677 
L 237.081678 54.477283 
L 237.081678 54.477283 
L 238.665524 54.074764 
L 238.665524 54.074764 
L 240.779124 53.800424 
L 240.779124 53.800424 
L 243.951252 53.640193 
L 243.951252 53.640193 
L 250.693913 53.574018 
L 252.016076 53.571697 
L 252.148215 54.037416 
L 252.411676 56.176058 
L 252.411676 56.176058 
L 253.445986 69.081882 
L 253.445986 69.081882 
L 255.162807 94.488443 
L 261.45813 182.460466 
L 263.772797 221.571238 
L 264.364467 233.108294 
L 267.528696 288.51159 
L 268.105147 294.028245 
L 268.362344 294.979644 
L 268.618557 295.265312 
L 268.925872 295.170523 
L 269.233855 294.557095 
L 269.647992 292.43803 
L 269.963687 289.489581 
L 270.341125 284.629947 
L 270.341125 284.629947 
L 270.67475 279.407168 
L 271.508046 260.101385 
L 271.508046 260.101385 
L 271.963998 248.349703 
L 272.234302 245.063524 
L 272.507459 243.851952 
L 272.78029 245.776321 
L 272.981995 249.37853 
L 273.561783 262.070392 
L 274.107699 271.473614 
L 274.107699 271.473614 
L 274.517281 274.957087 
L 274.806562 275.779704 
L 274.806562 275.779704 
L 275.095201 275.799368 
L 275.268464 275.647321 
L 275.268464 275.647321 
L 275.44195 275.347231 
L 275.673895 274.704496 
L 276.141752 272.175244 
L 276.800531 266.112661 
L 277.810279 252.511315 
L 279.199039 227.981103 
L 280.282999 204.986459 
L 280.282999 204.986459 
L 282.451122 148.868278 
L 282.451122 148.868278 
L 283.947769 109.569255 
L 284.523456 100.290204 
L 284.992838 95.935337 
L 285.347827 94.275373 
L 285.704027 93.492885 
L 285.941771 93.334953 
L 286.060614 93.615825 
L 286.060614 93.615825 
L 286.651989 96.99573 
L 288.042977 106.623762 
L 288.613365 108.543884 
L 289.06801 109.232089 
L 289.522037 109.505523 
L 289.975878 109.526126 
L 290.429814 109.366735 
L 290.884145 108.903359 
L 291.225434 108.29141 
L 291.567476 107.392776 
L 291.567476 107.392776 
L 292.025243 105.714303 
L 292.025243 105.714303 
L 292.60139 102.601398 
L 293.419118 96.020933 
L 293.419118 96.020933 
L 294.014088 89.733376 
L 295.239203 76.080315 
L 295.740602 72.364101 
L 296.119137 70.97941 
L 296.245546 70.823526 
L 296.748998 74.926067 
L 298.889152 110.502286 
L 299.99857 122.68515 
L 300.540292 126.647432 
L 300.540292 126.647432 
L 300.969843 128.485377 
L 300.969843 128.485377 
L 301.397607 129.366326 
L 301.397607 129.366326 
L 301.717884 129.612729 
L 302.038075 129.575738 
L 302.465184 129.324858 
L 302.999895 128.572764 
L 303.5364 127.183322 
L 303.5364 127.183322 
L 304.075713 125.17181 
L 304.618912 122.544291 
L 305.721082 115.530971 
L 305.721082 115.530971 
L 306.622592 107.837331 
L 306.622592 107.837331 
L 307.901378 93.92964 
L 309.610752 74.754722 
L 310.367109 69.384736 
L 311.132832 65.375827 
L 311.905546 62.383016 
L 312.68348 60.148763 
L 313.465311 58.480803 
L 314.381068 57.06121 
L 315.299648 56.051819 
L 316.351876 55.250122 
L 317.537729 54.653018 
L 318.989029 54.202894 
L 320.83792 53.88899 
L 323.480904 53.689153 
L 324.274001 53.658446 
L 324.406157 53.84349 
L 324.669724 56.162836 
L 324.669724 56.162836 
L 325.446289 68.791331 
L 326.194842 82.923116 
L 326.194842 82.923116 
L 327.494691 106.982693 
L 328.279919 119.51096 
L 330.284761 145.261496 
L 331.964484 160.076222 
L 334.410245 174.623476 
L 334.410245 174.623476 
L 336.025104 186.276604 
L 336.719303 191.872324 
L 337.566517 198.488328 
L 337.566517 198.488328 
L 338.311248 203.651196 
L 339.042696 207.186549 
L 339.525879 208.243798 
L 339.525879 208.243798 
L 339.847181 208.499292 
L 339.847181 208.499292 
L 340.168324 208.489327 
L 340.168324 208.489327 
L 340.409271 208.336366 
L 340.731012 207.734246 
L 341.216019 205.804027 
L 341.542186 203.541068 
L 341.955244 199.347087 
L 342.635304 188.762222 
L 343.166816 179.479862 
L 343.166816 179.479862 
L 343.529322 176.223526 
L 343.529322 176.223526 
L 343.803365 174.924478 
L 344.078277 174.440696 
L 344.445219 174.307228 
L 345.5463 174.1894 
L 345.821762 173.961746 
L 346.189559 173.412734 
L 346.650631 172.364679 
L 347.113961 170.709264 
L 347.862298 166.878384 
L 348.527204 162.178385 
L 349.302623 155.220983 
L 350.404236 142.587887 
L 351.344666 129.681183 
L 353.238119 100.955464 
L 354.310456 84.751 
L 354.310456 84.751 
L 355.049378 76.847358 
L 355.802086 70.946974 
L 355.802086 70.946974 
L 356.565084 66.5421 
L 357.335764 63.253685 
L 357.335764 63.253685 
L 358.112179 60.798752 
L 358.892876 58.966046 
L 358.892876 58.966046 
L 359.545936 57.799044 
L 359.807614 57.568032 
L 359.93843 57.933372 
L 359.93843 57.933372 
L 360.199113 60.691925 
L 360.839404 72.163478 
L 362.284399 105.166817 
L 364.230613 143.116344 
L 365.321502 160.400212 
L 365.321502 160.400212 
L 366.355964 174.269002 
L 366.989224 181.739936 
L 368.295629 193.440491 
L 368.889581 196.048403 
L 368.889581 196.048403 
L 369.226919 196.735083 
L 369.226919 196.735083 
L 369.647744 197.085493 
L 369.984161 197.121641 
L 370.320633 197.005493 
L 370.657385 196.690478 
L 370.994725 196.121244 
L 371.417785 195.016569 
L 372.099769 192.216474 
L 372.965441 187.067515 
L 372.965441 187.067515 
L 373.851645 179.999962 
L 374.763585 171.667481 
L 374.763585 171.667481 
L 376.582348 152.364941 
L 378.863952 123.567983 
L 380.322212 102.419364 
L 381.756208 81.647124 
L 382.500544 74.530191 
L 382.500544 74.530191 
L 383.257292 69.217115 
L 384.023307 65.250691 
L 384.023307 65.250691 
L 384.79624 62.289597 
L 385.574337 60.079022 
L 385.574337 60.079022 
L 386.356289 58.428739 
L 387.27215 57.02419 
L 388.190804 56.025496 
L 388.190804 56.025496 
L 389.243089 55.232295 
L 389.243089 55.232295 
L 390.428986 54.64152 
L 391.880319 54.196165 
L 391.880319 54.196165 
L 393.729233 53.885588 
L 396.372232 53.687869 
L 398.487273 53.622977 
L 398.487273 53.622977 
" style="fill:none;stroke:#ff7f0e;stroke-linecap:square;stroke-width:1.5;"/>
   </g>
   <g id="line2d_15">
    <path clip-path="url(#pa96d393cef)" d="M 73.832727 53.636214 
L 80.823704 53.573158 
L 80.823704 53.573158 
L 96.257518 53.624558 
L 96.520727 55.65967 
L 97.040624 63.799338 
L 98.03283 90.921365 
L 99.170952 122.801746 
L 100.012789 143.173471 
L 100.80538 159.34456 
L 101.467545 171.05441 
L 101.467545 171.05441 
L 102.103951 180.879019 
L 103.487754 196.696687 
L 103.905432 199.572644 
L 103.905432 199.572644 
L 104.319393 201.184373 
L 104.649178 201.744061 
L 104.978475 201.930918 
L 105.22539 201.896029 
L 105.22539 201.896029 
L 105.554839 201.563191 
L 105.554839 201.563191 
L 105.967737 200.513504 
L 106.382938 198.746242 
L 106.971203 194.404949 
L 107.485198 189.035976 
L 108.100799 180.711351 
L 108.833245 167.209889 
L 110.114952 140.525881 
L 110.634019 135.15374 
L 110.634019 135.15374 
L 111.160168 131.826601 
L 111.904282 128.661727 
L 111.904282 128.661727 
L 113.303427 123.421777 
L 113.848448 120.588893 
L 114.621064 114.996251 
L 115.182281 109.564307 
L 116.102448 97.927232 
L 117.425596 79.879377 
L 118.171294 73.210497 
L 118.928595 68.231911 
L 119.69456 64.515197 
L 120.466992 61.740521 
L 121.244251 59.669114 
L 122.025113 58.122726 
L 122.939467 56.806602 
L 122.939467 56.806602 
L 123.856432 55.870782 
L 124.906633 55.127518 
L 126.090053 54.573935 
L 126.090053 54.573935 
L 127.538235 54.156619 
L 129.383025 53.865594 
L 132.151897 53.674982 
L 137.295893 53.584001 
L 146.793547 53.56848 
L 146.925408 53.880019 
L 147.319619 56.377634 
L 147.710737 60.228512 
L 147.710737 60.228512 
L 149.843727 85.270264 
L 152.527346 111.518325 
L 152.527346 111.518325 
L 153.747269 120.871813 
L 154.936597 128.056971 
L 155.788016 131.221384 
L 156.211268 131.932233 
L 156.633871 132.228287 
L 157.161926 132.18047 
L 157.584608 131.863051 
L 158.007885 131.292236 
L 158.538479 130.033035 
L 158.538479 130.033035 
L 159.17867 127.767457 
L 160.041154 123.275279 
L 161.028326 116.46981 
L 162.267771 105.217969 
L 163.316931 93.265763 
L 165.025497 74.238816 
L 165.78101 68.999592 
L 166.545639 65.088302 
L 167.317073 62.168367 
L 168.093589 59.988518 
L 168.873897 58.361174 
L 169.787782 56.976148 
L 170.704415 55.991337 
L 171.754353 55.209161 
L 172.937574 54.626598 
L 174.385606 54.187434 
L 176.230291 53.881174 
L 178.86722 53.686203 
L 183.747336 53.587489 
L 183.747336 53.587489 
L 192.189636 53.618242 
L 192.189636 53.618242 
L 192.58473 54.954659 
L 193.10797 58.893704 
L 193.880708 67.304815 
L 196.078375 99.420821 
L 197.749295 130.885456 
L 200.33259 189.608243 
L 200.923284 201.882304 
L 200.923284 201.882304 
L 204.113519 257.197455 
L 204.113519 257.197455 
L 205.50158 276.530599 
L 206.286517 284.145685 
L 206.933187 289.235707 
L 207.197855 290.131917 
L 207.461598 290.414794 
L 207.725167 290.393012 
L 207.725167 290.393012 
L 207.989037 290.00739 
L 208.253842 289.26433 
L 208.735686 286.296605 
L 209.398569 278.927347 
L 210.464251 261.979986 
L 211.513981 240.515998 
L 212.23692 222.548879 
L 212.701258 211.723038 
L 213.020218 208.028594 
L 213.261623 207.007946 
L 213.261623 207.007946 
L 213.42276 207.216715 
L 213.742003 211.919739 
L 215.137176 242.880453 
L 215.873382 251.762446 
L 215.873382 251.762446 
L 216.200058 253.318762 
L 216.460185 253.754233 
L 216.655056 253.813219 
L 216.655056 253.813219 
L 216.849932 253.759009 
L 217.240247 253.207737 
L 217.632375 251.898428 
L 218.02791 249.822274 
L 218.903558 242.942236 
L 220.032141 230.700965 
L 220.850176 220.318022 
L 221.870654 205.832528 
L 224.035058 170.464811 
L 225.705051 136.36492 
L 225.705051 136.36492 
L 227.483833 95.637596 
L 227.483833 95.637596 
L 228.202111 84.974639 
L 228.938943 77.014314 
L 228.938943 77.014314 
L 229.689626 71.071613 
L 230.450649 66.635148 
L 230.450649 66.635148 
L 231.219392 63.323149 
L 231.993899 60.85061 
L 231.993899 60.85061 
L 232.772707 59.00476 
L 233.685316 57.433765 
L 234.601041 56.316722 
L 234.601041 56.316722 
L 235.518982 55.522457 
L 236.569958 54.891621 
L 237.885588 54.381178 
L 239.466077 54.021202 
L 241.706853 53.765974 
L 245.26752 53.621131 
L 252.390504 53.571827 
L 252.785524 55.240424 
L 253.30749 60.539935 
L 254.4493 76.815675 
L 256.473488 106.452282 
L 256.473488 106.452282 
L 257.6987 123.343187 
L 258.656177 136.471514 
L 258.656177 136.471514 
L 260.069509 155.603477 
L 261.117602 170.383453 
L 261.394534 173.95758 
L 261.394534 173.95758 
L 262.200172 186.465473 
L 262.717247 194.373639 
L 263.379638 205.984556 
L 263.857216 214.402339 
L 264.466232 226.633582 
L 266.860296 269.596454 
L 267.608621 281.826218 
L 268.097695 289.029518 
L 268.464492 293.213467 
L 268.773382 294.769641 
L 268.773382 294.769641 
L 269.080308 295.285416 
L 269.437979 295.181921 
L 269.745236 294.565604 
L 270.210312 292.17086 
L 270.210312 292.17086 
L 270.472748 289.848489 
L 270.957522 283.795452 
L 271.581001 272.384073 
L 272.791604 244.643011 
L 272.791604 244.643011 
L 273.064643 243.505895 
L 273.064643 243.505895 
L 273.337159 245.627502 
L 273.337159 245.627502 
L 273.538511 249.2995 
L 274.178361 263.613982 
L 274.952695 274.371184 
L 275.241912 275.575664 
L 275.472374 275.839035 
L 275.702742 275.78624 
L 276.048848 275.242052 
L 276.455018 273.656299 
L 276.455018 273.656299 
L 276.866098 271.019507 
L 277.714058 262.283794 
L 278.950328 243.421924 
L 278.950328 243.421924 
L 280.252366 219.010622 
L 281.46889 190.508751 
L 282.946816 151.550265 
L 284.767992 105.27966 
L 285.230895 99.125387 
L 285.700265 95.472409 
L 286.173136 93.719469 
L 286.410189 93.540501 
L 286.410189 93.540501 
L 286.528741 93.506263 
L 286.647258 93.754552 
L 287.119635 96.335805 
L 288.050927 103.297679 
L 288.738345 107.244465 
L 289.193193 108.615705 
L 289.193193 108.615705 
L 289.646724 109.262975 
L 289.646724 109.262975 
L 290.099676 109.518805 
L 290.099676 109.518805 
L 290.552457 109.534028 
L 290.552457 109.534028 
L 291.005336 109.373237 
L 291.005336 109.373237 
L 291.458611 108.90871 
L 291.458611 108.90871 
L 291.799107 108.296034 
L 292.140356 107.396771 
L 292.597064 105.71759 
L 293.171879 102.603975 
L 293.752787 98.416801 
L 293.752787 98.416801 
L 294.580536 90.061955 
L 295.801959 76.28218 
L 296.301929 72.585374 
L 296.553422 71.551241 
L 296.679353 71.368167 
L 296.679353 71.368167 
L 296.931234 71.485975 
L 297.182463 73.603781 
L 297.182463 73.603781 
L 298.044061 87.009854 
L 299.216539 106.926937 
L 300.002257 117.210123 
L 300.002257 117.210123 
L 300.550609 122.667095 
L 301.519957 128.429111 
L 301.946786 129.342129 
L 302.266347 129.625297 
L 302.692277 129.571557 
L 303.118464 129.222681 
L 303.54531 128.593763 
L 304.080487 127.247818 
L 304.726366 124.888086 
L 304.726366 124.888086 
L 305.596748 120.244113 
L 305.596748 120.244113 
L 306.593283 113.275292 
L 307.729713 102.614657 
L 309.148324 85.680613 
L 309.883927 77.541352 
L 310.633693 71.465067 
L 311.394032 66.928878 
L 312.162264 63.54243 
L 312.936389 61.014312 
L 313.714912 59.12697 
L 314.627278 57.520662 
L 315.542831 56.378509 
L 316.46065 55.56639 
L 316.46065 55.56639 
L 317.511529 54.921374 
L 317.511529 54.921374 
L 318.82708 54.399457 
L 320.407513 54.031389 
L 322.516406 53.78053 
L 324.758111 53.660841 
L 324.889963 53.845429 
L 324.889963 53.845429 
L 325.28411 56.743343 
L 325.802168 64.940003 
L 326.923131 86.130215 
L 326.923131 86.130215 
L 328.095662 107.794297 
L 328.434489 112.997642 
L 329.631424 131.245424 
L 329.631424 131.245424 
L 331.47236 151.929406 
L 332.832675 162.219216 
L 332.832675 162.219216 
L 333.873145 168.065362 
L 335.346542 177.473524 
L 335.885813 181.161528 
L 336.679316 187.514739 
L 337.624359 194.714275 
L 338.543401 201.537927 
L 338.543401 201.537927 
L 339.52089 206.910507 
L 339.52089 206.910507 
L 339.923087 207.99249 
L 340.324 208.468641 
L 340.644409 208.517217 
L 340.964906 208.33641 
L 341.285907 207.734283 
L 341.850748 205.468725 
L 342.341306 201.324123 
L 342.927535 193.301257 
L 344.077602 176.069236 
L 344.351158 174.791167 
L 344.625561 174.325512 
L 344.991798 174.212438 
L 346.090533 174.166677 
L 346.365382 173.942114 
L 346.365382 173.942114 
L 346.732356 173.396577 
L 346.732356 173.396577 
L 347.192332 172.395865 
L 347.654548 170.733708 
L 348.401165 166.912423 
L 349.064473 162.202588 
L 349.838082 155.245428 
L 350.93697 142.736208 
L 350.93697 142.736208 
L 352.088117 126.974998 
L 353.876778 99.648174 
L 354.950187 83.782357 
L 354.950187 83.782357 
L 355.689093 76.124228 
L 356.441325 70.407128 
L 356.441325 70.407128 
L 357.203505 66.139084 
L 357.973111 62.952817 
L 357.973111 62.952817 
L 358.748261 60.574142 
L 359.527551 58.798366 
L 359.527551 58.798366 
L 360.179355 57.667614 
L 360.309916 57.555545 
L 360.440435 57.923259 
L 360.82983 62.039509 
L 361.340322 71.042448 
L 362.08042 87.516583 
L 362.08042 87.516583 
L 363.12819 111.513149 
L 363.351928 115.940968 
L 364.004278 129.543357 
L 364.631121 141.344835 
L 366.669604 171.862387 
L 366.669604 171.862387 
L 367.306417 179.810825 
L 368.704351 192.684228 
L 369.129224 195.032891 
L 369.129224 195.032891 
L 369.550985 196.410045 
L 369.88721 196.899285 
L 370.3069 197.119742 
L 370.726475 197.070275 
L 371.230423 196.631647 
L 371.820255 195.396393 
L 371.820255 195.396393 
L 372.328903 193.553784 
L 372.928057 190.480116 
L 373.886964 183.943849 
L 373.886964 183.943849 
L 374.782129 176.490969 
L 376.562139 158.490203 
L 377.954557 142.304765 
L 380.203086 112.125662 
L 380.203086 112.125662 
L 382.56604 78.717264 
L 382.56604 78.717264 
L 383.31376 72.342933 
L 384.072571 67.58424 
L 384.072571 67.58424 
L 384.839663 64.031684 
L 385.612936 61.379559 
L 385.612936 61.379559 
L 386.390824 59.399642 
L 387.302649 57.714543 
L 388.217817 56.516366 
L 388.217817 56.516366 
L 389.135362 55.664413 
L 390.186023 54.987758 
L 391.369784 54.483786 
L 391.369784 54.483786 
L 392.818223 54.103868 
L 394.795017 53.826042 
L 397.827831 53.652151 
L 398.487273 53.633959 
L 398.487273 53.633959 
" style="fill:none;stroke:#2ca02c;stroke-linecap:square;stroke-width:1.5;"/>
   </g>
   <g id="patch_3">
    <path d="M 57.6 307.584 
L 57.6 41.472 
" style="fill:none;stroke:#000000;stroke-linecap:square;stroke-linejoin:miter;stroke-width:0.8;"/>
   </g>
   <g id="patch_4">
    <path d="M 414.72 307.584 
L 414.72 41.472 
" style="fill:none;stroke:#000000;stroke-linecap:square;stroke-linejoin:miter;stroke-width:0.8;"/>
   </g>
   <g id="patch_5">
    <path d="M 57.6 307.584 
L 414.72 307.584 
" style="fill:none;stroke:#000000;stroke-linecap:square;stroke-linejoin:miter;stroke-width:0.8;"/>
   </g>
   <g id="patch_6">
    <path d="M 57.6 41.472 
L 414.72 41.472 
" style="fill:none;stroke:#000000;stroke-linecap:square;stroke-linejoin:miter;stroke-width:0.8;"/>
   </g>
   <g id="text_13">
    <!-- gbr speed -->
    <g transform="translate(206.040937 35.472)scale(0.12 -0.12)">
     <defs>
      <path d="M 45.40625 27.984375 
Q 45.40625 37.75 41.375 43.109375 
Q 37.359375 48.484375 30.078125 48.484375 
Q 22.859375 48.484375 18.828125 43.109375 
Q 14.796875 37.75 14.796875 27.984375 
Q 14.796875 18.265625 18.828125 12.890625 
Q 22.859375 7.515625 30.078125 7.515625 
Q 37.359375 7.515625 41.375 12.890625 
Q 45.40625 18.265625 45.40625 27.984375 
z
M 54.390625 6.78125 
Q 54.390625 -7.171875 48.1875 -13.984375 
Q 42 -20.796875 29.203125 -20.796875 
Q 24.46875 -20.796875 20.265625 -20.09375 
Q 16.0625 -19.390625 12.109375 -17.921875 
L 12.109375 -9.1875 
Q 16.0625 -11.328125 19.921875 -12.34375 
Q 23.78125 -13.375 27.78125 -13.375 
Q 36.625 -13.375 41.015625 -8.765625 
Q 45.40625 -4.15625 45.40625 5.171875 
L 45.40625 9.625 
Q 42.625 4.78125 38.28125 2.390625 
Q 33.9375 0 27.875 0 
Q 17.828125 0 11.671875 7.65625 
Q 5.515625 15.328125 5.515625 27.984375 
Q 5.515625 40.671875 11.671875 48.328125 
Q 17.828125 56 27.875 56 
Q 33.9375 56 38.28125 53.609375 
Q 42.625 51.21875 45.40625 46.390625 
L 45.40625 54.6875 
L 54.390625 54.6875 
z
" id="DejaVuSans-103"/>
      <path d="M 48.6875 27.296875 
Q 48.6875 37.203125 44.609375 42.84375 
Q 40.53125 48.484375 33.40625 48.484375 
Q 26.265625 48.484375 22.1875 42.84375 
Q 18.109375 37.203125 18.109375 27.296875 
Q 18.109375 17.390625 22.1875 11.75 
Q 26.265625 6.109375 33.40625 6.109375 
Q 40.53125 6.109375 44.609375 11.75 
Q 48.6875 17.390625 48.6875 27.296875 
z
M 18.109375 46.390625 
Q 20.953125 51.265625 25.265625 53.625 
Q 29.59375 56 35.59375 56 
Q 45.5625 56 51.78125 48.09375 
Q 58.015625 40.1875 58.015625 27.296875 
Q 58.015625 14.40625 51.78125 6.484375 
Q 45.5625 -1.421875 35.59375 -1.421875 
Q 29.59375 -1.421875 25.265625 0.953125 
Q 20.953125 3.328125 18.109375 8.203125 
L 18.109375 0 
L 9.078125 0 
L 9.078125 75.984375 
L 18.109375 75.984375 
z
" id="DejaVuSans-98"/>
      <path d="M 41.109375 46.296875 
Q 39.59375 47.171875 37.8125 47.578125 
Q 36.03125 48 33.890625 48 
Q 26.265625 48 22.1875 43.046875 
Q 18.109375 38.09375 18.109375 28.8125 
L 18.109375 0 
L 9.078125 0 
L 9.078125 54.6875 
L 18.109375 54.6875 
L 18.109375 46.1875 
Q 20.953125 51.171875 25.484375 53.578125 
Q 30.03125 56 36.53125 56 
Q 37.453125 56 38.578125 55.875 
Q 39.703125 55.765625 41.0625 55.515625 
z
" id="DejaVuSans-114"/>
      <path id="DejaVuSans-32"/>
      <path d="M 44.28125 53.078125 
L 44.28125 44.578125 
Q 40.484375 46.53125 36.375 47.5 
Q 32.28125 48.484375 27.875 48.484375 
Q 21.1875 48.484375 17.84375 46.4375 
Q 14.5 44.390625 14.5 40.28125 
Q 14.5 37.15625 16.890625 35.375 
Q 19.28125 33.59375 26.515625 31.984375 
L 29.59375 31.296875 
Q 39.15625 29.25 43.1875 25.515625 
Q 47.21875 21.78125 47.21875 15.09375 
Q 47.21875 7.46875 41.1875 3.015625 
Q 35.15625 -1.421875 24.609375 -1.421875 
Q 20.21875 -1.421875 15.453125 -0.5625 
Q 10.6875 0.296875 5.421875 2 
L 5.421875 11.28125 
Q 10.40625 8.6875 15.234375 7.390625 
Q 20.0625 6.109375 24.8125 6.109375 
Q 31.15625 6.109375 34.5625 8.28125 
Q 37.984375 10.453125 37.984375 14.40625 
Q 37.984375 18.0625 35.515625 20.015625 
Q 33.0625 21.96875 24.703125 23.78125 
L 21.578125 24.515625 
Q 13.234375 26.265625 9.515625 29.90625 
Q 5.8125 33.546875 5.8125 39.890625 
Q 5.8125 47.609375 11.28125 51.796875 
Q 16.75 56 26.8125 56 
Q 31.78125 56 36.171875 55.265625 
Q 40.578125 54.546875 44.28125 53.078125 
z
" id="DejaVuSans-115"/>
      <path d="M 18.109375 8.203125 
L 18.109375 -20.796875 
L 9.078125 -20.796875 
L 9.078125 54.6875 
L 18.109375 54.6875 
L 18.109375 46.390625 
Q 20.953125 51.265625 25.265625 53.625 
Q 29.59375 56 35.59375 56 
Q 45.5625 56 51.78125 48.09375 
Q 58.015625 40.1875 58.015625 27.296875 
Q 58.015625 14.40625 51.78125 6.484375 
Q 45.5625 -1.421875 35.59375 -1.421875 
Q 29.59375 -1.421875 25.265625 0.953125 
Q 20.953125 3.328125 18.109375 8.203125 
z
M 48.6875 27.296875 
Q 48.6875 37.203125 44.609375 42.84375 
Q 40.53125 48.484375 33.40625 48.484375 
Q 26.265625 48.484375 22.1875 42.84375 
Q 18.109375 37.203125 18.109375 27.296875 
Q 18.109375 17.390625 22.1875 11.75 
Q 26.265625 6.109375 33.40625 6.109375 
Q 40.53125 6.109375 44.609375 11.75 
Q 48.6875 17.390625 48.6875 27.296875 
z
" id="DejaVuSans-112"/>
      <path d="M 56.203125 29.59375 
L 56.203125 25.203125 
L 14.890625 25.203125 
Q 15.484375 15.921875 20.484375 11.0625 
Q 25.484375 6.203125 34.421875 6.203125 
Q 39.59375 6.203125 44.453125 7.46875 
Q 49.3125 8.734375 54.109375 11.28125 
L 54.109375 2.78125 
Q 49.265625 0.734375 44.1875 -0.34375 
Q 39.109375 -1.421875 33.890625 -1.421875 
Q 20.796875 -1.421875 13.15625 6.1875 
Q 5.515625 13.8125 5.515625 26.8125 
Q 5.515625 40.234375 12.765625 48.109375 
Q 20.015625 56 32.328125 56 
Q 43.359375 56 49.78125 48.890625 
Q 56.203125 41.796875 56.203125 29.59375 
z
M 47.21875 32.234375 
Q 47.125 39.59375 43.09375 43.984375 
Q 39.0625 48.390625 32.421875 48.390625 
Q 24.90625 48.390625 20.390625 44.140625 
Q 15.875 39.890625 15.1875 32.171875 
z
" id="DejaVuSans-101"/>
      <path d="M 45.40625 46.390625 
L 45.40625 75.984375 
L 54.390625 75.984375 
L 54.390625 0 
L 45.40625 0 
L 45.40625 8.203125 
Q 42.578125 3.328125 38.25 0.953125 
Q 33.9375 -1.421875 27.875 -1.421875 
Q 17.96875 -1.421875 11.734375 6.484375 
Q 5.515625 14.40625 5.515625 27.296875 
Q 5.515625 40.1875 11.734375 48.09375 
Q 17.96875 56 27.875 56 
Q 33.9375 56 38.25 53.625 
Q 42.578125 51.265625 45.40625 46.390625 
z
M 14.796875 27.296875 
Q 14.796875 17.390625 18.875 11.75 
Q 22.953125 6.109375 30.078125 6.109375 
Q 37.203125 6.109375 41.296875 11.75 
Q 45.40625 17.390625 45.40625 27.296875 
Q 45.40625 37.203125 41.296875 42.84375 
Q 37.203125 48.484375 30.078125 48.484375 
Q 22.953125 48.484375 18.875 42.84375 
Q 14.796875 37.203125 14.796875 27.296875 
z
" id="DejaVuSans-100"/>
     </defs>
     <use xlink:href="#DejaVuSans-103"/>
     <use x="63.476562" xlink:href="#DejaVuSans-98"/>
     <use x="126.953125" xlink:href="#DejaVuSans-114"/>
     <use x="168.066406" xlink:href="#DejaVuSans-32"/>
     <use x="199.853516" xlink:href="#DejaVuSans-115"/>
     <use x="251.953125" xlink:href="#DejaVuSans-112"/>
     <use x="315.429688" xlink:href="#DejaVuSans-101"/>
     <use x="376.953125" xlink:href="#DejaVuSans-101"/>
     <use x="438.476562" xlink:href="#DejaVuSans-100"/>
    </g>
   </g>
   <g id="legend_1">
    <g id="patch_7">
     <path d="M 64.6 302.584 
L 156.557813 302.584 
Q 158.557813 302.584 158.557813 300.584 
L 158.557813 257.549625 
Q 158.557813 255.549625 156.557813 255.549625 
L 64.6 255.549625 
Q 62.6 255.549625 62.6 257.549625 
L 62.6 300.584 
Q 62.6 302.584 64.6 302.584 
z
" style="fill:#ffffff;opacity:0.8;stroke:#cccccc;stroke-linejoin:miter;"/>
    </g>
    <g id="line2d_16">
     <path d="M 66.6 263.648062 
L 86.6 263.648062 
" style="fill:none;stroke:#1f77b4;stroke-linecap:square;stroke-width:1.5;"/>
    </g>
    <g id="line2d_17"/>
    <g id="text_14">
     <!-- Waypoints -->
     <g transform="translate(94.6 267.148062)scale(0.1 -0.1)">
      <defs>
       <path d="M 3.328125 72.90625 
L 13.28125 72.90625 
L 28.609375 11.28125 
L 43.890625 72.90625 
L 54.984375 72.90625 
L 70.3125 11.28125 
L 85.59375 72.90625 
L 95.609375 72.90625 
L 77.296875 0 
L 64.890625 0 
L 49.515625 63.28125 
L 33.984375 0 
L 21.578125 0 
z
" id="DejaVuSans-87"/>
       <path d="M 34.28125 27.484375 
Q 23.390625 27.484375 19.1875 25 
Q 14.984375 22.515625 14.984375 16.5 
Q 14.984375 11.71875 18.140625 8.90625 
Q 21.296875 6.109375 26.703125 6.109375 
Q 34.1875 6.109375 38.703125 11.40625 
Q 43.21875 16.703125 43.21875 25.484375 
L 43.21875 27.484375 
z
M 52.203125 31.203125 
L 52.203125 0 
L 43.21875 0 
L 43.21875 8.296875 
Q 40.140625 3.328125 35.546875 0.953125 
Q 30.953125 -1.421875 24.3125 -1.421875 
Q 15.921875 -1.421875 10.953125 3.296875 
Q 6 8.015625 6 15.921875 
Q 6 25.140625 12.171875 29.828125 
Q 18.359375 34.515625 30.609375 34.515625 
L 43.21875 34.515625 
L 43.21875 35.40625 
Q 43.21875 41.609375 39.140625 45 
Q 35.0625 48.390625 27.6875 48.390625 
Q 23 48.390625 18.546875 47.265625 
Q 14.109375 46.140625 10.015625 43.890625 
L 10.015625 52.203125 
Q 14.9375 54.109375 19.578125 55.046875 
Q 24.21875 56 28.609375 56 
Q 40.484375 56 46.34375 49.84375 
Q 52.203125 43.703125 52.203125 31.203125 
z
" id="DejaVuSans-97"/>
       <path d="M 32.171875 -5.078125 
Q 28.375 -14.84375 24.75 -17.8125 
Q 21.140625 -20.796875 15.09375 -20.796875 
L 7.90625 -20.796875 
L 7.90625 -13.28125 
L 13.1875 -13.28125 
Q 16.890625 -13.28125 18.9375 -11.515625 
Q 21 -9.765625 23.484375 -3.21875 
L 25.09375 0.875 
L 2.984375 54.6875 
L 12.5 54.6875 
L 29.59375 11.921875 
L 46.6875 54.6875 
L 56.203125 54.6875 
z
" id="DejaVuSans-121"/>
       <path d="M 30.609375 48.390625 
Q 23.390625 48.390625 19.1875 42.75 
Q 14.984375 37.109375 14.984375 27.296875 
Q 14.984375 17.484375 19.15625 11.84375 
Q 23.34375 6.203125 30.609375 6.203125 
Q 37.796875 6.203125 41.984375 11.859375 
Q 46.1875 17.53125 46.1875 27.296875 
Q 46.1875 37.015625 41.984375 42.703125 
Q 37.796875 48.390625 30.609375 48.390625 
z
M 30.609375 56 
Q 42.328125 56 49.015625 48.375 
Q 55.71875 40.765625 55.71875 27.296875 
Q 55.71875 13.875 49.015625 6.21875 
Q 42.328125 -1.421875 30.609375 -1.421875 
Q 18.84375 -1.421875 12.171875 6.21875 
Q 5.515625 13.875 5.515625 27.296875 
Q 5.515625 40.765625 12.171875 48.375 
Q 18.84375 56 30.609375 56 
z
" id="DejaVuSans-111"/>
       <path d="M 9.421875 54.6875 
L 18.40625 54.6875 
L 18.40625 0 
L 9.421875 0 
z
M 9.421875 75.984375 
L 18.40625 75.984375 
L 18.40625 64.59375 
L 9.421875 64.59375 
z
" id="DejaVuSans-105"/>
       <path d="M 54.890625 33.015625 
L 54.890625 0 
L 45.90625 0 
L 45.90625 32.71875 
Q 45.90625 40.484375 42.875 44.328125 
Q 39.84375 48.1875 33.796875 48.1875 
Q 26.515625 48.1875 22.3125 43.546875 
Q 18.109375 38.921875 18.109375 30.90625 
L 18.109375 0 
L 9.078125 0 
L 9.078125 54.6875 
L 18.109375 54.6875 
L 18.109375 46.1875 
Q 21.34375 51.125 25.703125 53.5625 
Q 30.078125 56 35.796875 56 
Q 45.21875 56 50.046875 50.171875 
Q 54.890625 44.34375 54.890625 33.015625 
z
" id="DejaVuSans-110"/>
       <path d="M 18.3125 70.21875 
L 18.3125 54.6875 
L 36.8125 54.6875 
L 36.8125 47.703125 
L 18.3125 47.703125 
L 18.3125 18.015625 
Q 18.3125 11.328125 20.140625 9.421875 
Q 21.96875 7.515625 27.59375 7.515625 
L 36.8125 7.515625 
L 36.8125 0 
L 27.59375 0 
Q 17.1875 0 13.234375 3.875 
Q 9.28125 7.765625 9.28125 18.015625 
L 9.28125 47.703125 
L 2.6875 47.703125 
L 2.6875 54.6875 
L 9.28125 54.6875 
L 9.28125 70.21875 
z
" id="DejaVuSans-116"/>
      </defs>
      <use xlink:href="#DejaVuSans-87"/>
      <use x="92.501953" xlink:href="#DejaVuSans-97"/>
      <use x="153.78125" xlink:href="#DejaVuSans-121"/>
      <use x="212.960938" xlink:href="#DejaVuSans-112"/>
      <use x="276.4375" xlink:href="#DejaVuSans-111"/>
      <use x="337.619141" xlink:href="#DejaVuSans-105"/>
      <use x="365.402344" xlink:href="#DejaVuSans-110"/>
      <use x="428.78125" xlink:href="#DejaVuSans-116"/>
      <use x="467.990234" xlink:href="#DejaVuSans-115"/>
     </g>
    </g>
    <g id="line2d_18">
     <path d="M 66.6 278.326188 
L 86.6 278.326188 
" style="fill:none;stroke:#ff7f0e;stroke-linecap:square;stroke-width:1.5;"/>
    </g>
    <g id="line2d_19"/>
    <g id="text_15">
     <!-- Stanley -->
     <g transform="translate(94.6 281.826188)scale(0.1 -0.1)">
      <defs>
       <path d="M 53.515625 70.515625 
L 53.515625 60.890625 
Q 47.90625 63.578125 42.921875 64.890625 
Q 37.9375 66.21875 33.296875 66.21875 
Q 25.25 66.21875 20.875 63.09375 
Q 16.5 59.96875 16.5 54.203125 
Q 16.5 49.359375 19.40625 46.890625 
Q 22.3125 44.4375 30.421875 42.921875 
L 36.375 41.703125 
Q 47.40625 39.59375 52.65625 34.296875 
Q 57.90625 29 57.90625 20.125 
Q 57.90625 9.515625 50.796875 4.046875 
Q 43.703125 -1.421875 29.984375 -1.421875 
Q 24.8125 -1.421875 18.96875 -0.25 
Q 13.140625 0.921875 6.890625 3.21875 
L 6.890625 13.375 
Q 12.890625 10.015625 18.65625 8.296875 
Q 24.421875 6.59375 29.984375 6.59375 
Q 38.421875 6.59375 43.015625 9.90625 
Q 47.609375 13.234375 47.609375 19.390625 
Q 47.609375 24.75 44.3125 27.78125 
Q 41.015625 30.8125 33.5 32.328125 
L 27.484375 33.5 
Q 16.453125 35.6875 11.515625 40.375 
Q 6.59375 45.0625 6.59375 53.421875 
Q 6.59375 63.09375 13.40625 68.65625 
Q 20.21875 74.21875 32.171875 74.21875 
Q 37.3125 74.21875 42.625 73.28125 
Q 47.953125 72.359375 53.515625 70.515625 
z
" id="DejaVuSans-83"/>
       <path d="M 9.421875 75.984375 
L 18.40625 75.984375 
L 18.40625 0 
L 9.421875 0 
z
" id="DejaVuSans-108"/>
      </defs>
      <use xlink:href="#DejaVuSans-83"/>
      <use x="63.476562" xlink:href="#DejaVuSans-116"/>
      <use x="102.685547" xlink:href="#DejaVuSans-97"/>
      <use x="163.964844" xlink:href="#DejaVuSans-110"/>
      <use x="227.34375" xlink:href="#DejaVuSans-108"/>
      <use x="255.126953" xlink:href="#DejaVuSans-101"/>
      <use x="316.650391" xlink:href="#DejaVuSans-121"/>
     </g>
    </g>
    <g id="line2d_20">
     <path d="M 66.6 293.004312 
L 86.6 293.004312 
" style="fill:none;stroke:#2ca02c;stroke-linecap:square;stroke-width:1.5;"/>
    </g>
    <g id="line2d_21"/>
    <g id="text_16">
     <!-- Pure Pursuit -->
     <g transform="translate(94.6 296.504312)scale(0.1 -0.1)">
      <defs>
       <path d="M 19.671875 64.796875 
L 19.671875 37.40625 
L 32.078125 37.40625 
Q 38.96875 37.40625 42.71875 40.96875 
Q 46.484375 44.53125 46.484375 51.125 
Q 46.484375 57.671875 42.71875 61.234375 
Q 38.96875 64.796875 32.078125 64.796875 
z
M 9.8125 72.90625 
L 32.078125 72.90625 
Q 44.34375 72.90625 50.609375 67.359375 
Q 56.890625 61.8125 56.890625 51.125 
Q 56.890625 40.328125 50.609375 34.8125 
Q 44.34375 29.296875 32.078125 29.296875 
L 19.671875 29.296875 
L 19.671875 0 
L 9.8125 0 
z
" id="DejaVuSans-80"/>
       <path d="M 8.5 21.578125 
L 8.5 54.6875 
L 17.484375 54.6875 
L 17.484375 21.921875 
Q 17.484375 14.15625 20.5 10.265625 
Q 23.53125 6.390625 29.59375 6.390625 
Q 36.859375 6.390625 41.078125 11.03125 
Q 45.3125 15.671875 45.3125 23.6875 
L 45.3125 54.6875 
L 54.296875 54.6875 
L 54.296875 0 
L 45.3125 0 
L 45.3125 8.40625 
Q 42.046875 3.421875 37.71875 1 
Q 33.40625 -1.421875 27.6875 -1.421875 
Q 18.265625 -1.421875 13.375 4.4375 
Q 8.5 10.296875 8.5 21.578125 
z
M 31.109375 56 
z
" id="DejaVuSans-117"/>
      </defs>
      <use xlink:href="#DejaVuSans-80"/>
      <use x="58.552734" xlink:href="#DejaVuSans-117"/>
      <use x="121.931641" xlink:href="#DejaVuSans-114"/>
      <use x="160.794922" xlink:href="#DejaVuSans-101"/>
      <use x="222.318359" xlink:href="#DejaVuSans-32"/>
      <use x="254.105469" xlink:href="#DejaVuSans-80"/>
      <use x="312.658203" xlink:href="#DejaVuSans-117"/>
      <use x="376.037109" xlink:href="#DejaVuSans-114"/>
      <use x="417.150391" xlink:href="#DejaVuSans-115"/>
      <use x="469.25" xlink:href="#DejaVuSans-117"/>
      <use x="532.628906" xlink:href="#DejaVuSans-105"/>
      <use x="560.412109" xlink:href="#DejaVuSans-116"/>
     </g>
    </g>
   </g>
  </g>
 </g>
 <defs>
  <clipPath id="pa96d393cef">
   <rect height="266.112" width="357.12" x="57.6" y="41.472"/>
  </clipPath>
 </defs>
</svg>
