<?xml version="1.0" encoding="utf-8" standalone="no"?>
<!DOCTYPE svg PUBLIC "-//W3C//DTD SVG 1.1//EN"
  "http://www.w3.org/Graphics/SVG/1.1/DTD/svg11.dtd">
<!-- Created with matplotlib (https://matplotlib.org/) -->
<svg height="345.6pt" version="1.1" viewBox="0 0 460.8 345.6" width="460.8pt" xmlns="http://www.w3.org/2000/svg" xmlns:xlink="http://www.w3.org/1999/xlink">
 <metadata>
  <rdf:RDF xmlns:cc="http://creativecommons.org/ns#" xmlns:dc="http://purl.org/dc/elements/1.1/" xmlns:rdf="http://www.w3.org/1999/02/22-rdf-syntax-ns#">
   <cc:Work>
    <dc:type rdf:resource="http://purl.org/dc/dcmitype/StillImage"/>
    <dc:date>2024-10-15T01:07:48.582735</dc:date>
    <dc:format>image/svg+xml</dc:format>
    <dc:creator>
     <cc:Agent>
      <dc:title>Matplotlib v3.3.1, https://matplotlib.org/</dc:title>
     </cc:Agent>
    </dc:creator>
   </cc:Work>
  </rdf:RDF>
 </metadata>
 <defs>
  <style type="text/css">*{stroke-linecap:butt;stroke-linejoin:round;}</style>
 </defs>
 <g id="figure_1">
  <g id="patch_1">
   <path d="M 0 345.6 
L 460.8 345.6 
L 460.8 0 
L 0 0 
z
" style="fill:#ffffff;"/>
  </g>
  <g id="axes_1">
   <g id="patch_2">
    <path d="M 57.6 307.584 
L 414.72 307.584 
L 414.72 41.472 
L 57.6 41.472 
z
" style="fill:#ffffff;"/>
   </g>
   <g id="matplotlib.axis_1">
    <g id="xtick_1">
     <g id="line2d_1">
      <defs>
       <path d="M 0 0 
L 0 3.5 
" id="m91d7a1c25a" style="stroke:#000000;stroke-width:0.8;"/>
      </defs>
      <g>
       <use style="stroke:#000000;stroke-width:0.8;" x="73.832727" xlink:href="#m91d7a1c25a" y="307.584"/>
      </g>
     </g>
     <g id="text_1">
      <!-- 0.0 -->
      <g transform="translate(65.881165 322.182437)scale(0.1 -0.1)">
       <defs>
        <path d="M 31.78125 66.40625 
Q 24.171875 66.40625 20.328125 58.90625 
Q 16.5 51.421875 16.5 36.375 
Q 16.5 21.390625 20.328125 13.890625 
Q 24.171875 6.390625 31.78125 6.390625 
Q 39.453125 6.390625 43.28125 13.890625 
Q 47.125 21.390625 47.125 36.375 
Q 47.125 51.421875 43.28125 58.90625 
Q 39.453125 66.40625 31.78125 66.40625 
z
M 31.78125 74.21875 
Q 44.046875 74.21875 50.515625 64.515625 
Q 56.984375 54.828125 56.984375 36.375 
Q 56.984375 17.96875 50.515625 8.265625 
Q 44.046875 -1.421875 31.78125 -1.421875 
Q 19.53125 -1.421875 13.0625 8.265625 
Q 6.59375 17.96875 6.59375 36.375 
Q 6.59375 54.828125 13.0625 64.515625 
Q 19.53125 74.21875 31.78125 74.21875 
z
" id="DejaVuSans-48"/>
        <path d="M 10.6875 12.40625 
L 21 12.40625 
L 21 0 
L 10.6875 0 
z
" id="DejaVuSans-46"/>
       </defs>
       <use xlink:href="#DejaVuSans-48"/>
       <use x="63.623047" xlink:href="#DejaVuSans-46"/>
       <use x="95.410156" xlink:href="#DejaVuSans-48"/>
      </g>
     </g>
    </g>
    <g id="xtick_2">
     <g id="line2d_2">
      <g>
       <use style="stroke:#000000;stroke-width:0.8;" x="138.763636" xlink:href="#m91d7a1c25a" y="307.584"/>
      </g>
     </g>
     <g id="text_2">
      <!-- 0.2 -->
      <g transform="translate(130.812074 322.182437)scale(0.1 -0.1)">
       <defs>
        <path d="M 19.1875 8.296875 
L 53.609375 8.296875 
L 53.609375 0 
L 7.328125 0 
L 7.328125 8.296875 
Q 12.9375 14.109375 22.625 23.890625 
Q 32.328125 33.6875 34.8125 36.53125 
Q 39.546875 41.84375 41.421875 45.53125 
Q 43.3125 49.21875 43.3125 52.78125 
Q 43.3125 58.59375 39.234375 62.25 
Q 35.15625 65.921875 28.609375 65.921875 
Q 23.96875 65.921875 18.8125 64.3125 
Q 13.671875 62.703125 7.8125 59.421875 
L 7.8125 69.390625 
Q 13.765625 71.78125 18.9375 73 
Q 24.125 74.21875 28.421875 74.21875 
Q 39.75 74.21875 46.484375 68.546875 
Q 53.21875 62.890625 53.21875 53.421875 
Q 53.21875 48.921875 51.53125 44.890625 
Q 49.859375 40.875 45.40625 35.40625 
Q 44.1875 33.984375 37.640625 27.21875 
Q 31.109375 20.453125 19.1875 8.296875 
z
" id="DejaVuSans-50"/>
       </defs>
       <use xlink:href="#DejaVuSans-48"/>
       <use x="63.623047" xlink:href="#DejaVuSans-46"/>
       <use x="95.410156" xlink:href="#DejaVuSans-50"/>
      </g>
     </g>
    </g>
    <g id="xtick_3">
     <g id="line2d_3">
      <g>
       <use style="stroke:#000000;stroke-width:0.8;" x="203.694545" xlink:href="#m91d7a1c25a" y="307.584"/>
      </g>
     </g>
     <g id="text_3">
      <!-- 0.4 -->
      <g transform="translate(195.742983 322.182437)scale(0.1 -0.1)">
       <defs>
        <path d="M 37.796875 64.3125 
L 12.890625 25.390625 
L 37.796875 25.390625 
z
M 35.203125 72.90625 
L 47.609375 72.90625 
L 47.609375 25.390625 
L 58.015625 25.390625 
L 58.015625 17.1875 
L 47.609375 17.1875 
L 47.609375 0 
L 37.796875 0 
L 37.796875 17.1875 
L 4.890625 17.1875 
L 4.890625 26.703125 
z
" id="DejaVuSans-52"/>
       </defs>
       <use xlink:href="#DejaVuSans-48"/>
       <use x="63.623047" xlink:href="#DejaVuSans-46"/>
       <use x="95.410156" xlink:href="#DejaVuSans-52"/>
      </g>
     </g>
    </g>
    <g id="xtick_4">
     <g id="line2d_4">
      <g>
       <use style="stroke:#000000;stroke-width:0.8;" x="268.625455" xlink:href="#m91d7a1c25a" y="307.584"/>
      </g>
     </g>
     <g id="text_4">
      <!-- 0.6 -->
      <g transform="translate(260.673892 322.182437)scale(0.1 -0.1)">
       <defs>
        <path d="M 33.015625 40.375 
Q 26.375 40.375 22.484375 35.828125 
Q 18.609375 31.296875 18.609375 23.390625 
Q 18.609375 15.53125 22.484375 10.953125 
Q 26.375 6.390625 33.015625 6.390625 
Q 39.65625 6.390625 43.53125 10.953125 
Q 47.40625 15.53125 47.40625 23.390625 
Q 47.40625 31.296875 43.53125 35.828125 
Q 39.65625 40.375 33.015625 40.375 
z
M 52.59375 71.296875 
L 52.59375 62.3125 
Q 48.875 64.0625 45.09375 64.984375 
Q 41.3125 65.921875 37.59375 65.921875 
Q 27.828125 65.921875 22.671875 59.328125 
Q 17.53125 52.734375 16.796875 39.40625 
Q 19.671875 43.65625 24.015625 45.921875 
Q 28.375 48.1875 33.59375 48.1875 
Q 44.578125 48.1875 50.953125 41.515625 
Q 57.328125 34.859375 57.328125 23.390625 
Q 57.328125 12.15625 50.6875 5.359375 
Q 44.046875 -1.421875 33.015625 -1.421875 
Q 20.359375 -1.421875 13.671875 8.265625 
Q 6.984375 17.96875 6.984375 36.375 
Q 6.984375 53.65625 15.1875 63.9375 
Q 23.390625 74.21875 37.203125 74.21875 
Q 40.921875 74.21875 44.703125 73.484375 
Q 48.484375 72.75 52.59375 71.296875 
z
" id="DejaVuSans-54"/>
       </defs>
       <use xlink:href="#DejaVuSans-48"/>
       <use x="63.623047" xlink:href="#DejaVuSans-46"/>
       <use x="95.410156" xlink:href="#DejaVuSans-54"/>
      </g>
     </g>
    </g>
    <g id="xtick_5">
     <g id="line2d_5">
      <g>
       <use style="stroke:#000000;stroke-width:0.8;" x="333.556364" xlink:href="#m91d7a1c25a" y="307.584"/>
      </g>
     </g>
     <g id="text_5">
      <!-- 0.8 -->
      <g transform="translate(325.604801 322.182437)scale(0.1 -0.1)">
       <defs>
        <path d="M 31.78125 34.625 
Q 24.75 34.625 20.71875 30.859375 
Q 16.703125 27.09375 16.703125 20.515625 
Q 16.703125 13.921875 20.71875 10.15625 
Q 24.75 6.390625 31.78125 6.390625 
Q 38.8125 6.390625 42.859375 10.171875 
Q 46.921875 13.96875 46.921875 20.515625 
Q 46.921875 27.09375 42.890625 30.859375 
Q 38.875 34.625 31.78125 34.625 
z
M 21.921875 38.8125 
Q 15.578125 40.375 12.03125 44.71875 
Q 8.5 49.078125 8.5 55.328125 
Q 8.5 64.0625 14.71875 69.140625 
Q 20.953125 74.21875 31.78125 74.21875 
Q 42.671875 74.21875 48.875 69.140625 
Q 55.078125 64.0625 55.078125 55.328125 
Q 55.078125 49.078125 51.53125 44.71875 
Q 48 40.375 41.703125 38.8125 
Q 48.828125 37.15625 52.796875 32.3125 
Q 56.78125 27.484375 56.78125 20.515625 
Q 56.78125 9.90625 50.3125 4.234375 
Q 43.84375 -1.421875 31.78125 -1.421875 
Q 19.734375 -1.421875 13.25 4.234375 
Q 6.78125 9.90625 6.78125 20.515625 
Q 6.78125 27.484375 10.78125 32.3125 
Q 14.796875 37.15625 21.921875 38.8125 
z
M 18.3125 54.390625 
Q 18.3125 48.734375 21.84375 45.5625 
Q 25.390625 42.390625 31.78125 42.390625 
Q 38.140625 42.390625 41.71875 45.5625 
Q 45.3125 48.734375 45.3125 54.390625 
Q 45.3125 60.0625 41.71875 63.234375 
Q 38.140625 66.40625 31.78125 66.40625 
Q 25.390625 66.40625 21.84375 63.234375 
Q 18.3125 60.0625 18.3125 54.390625 
z
" id="DejaVuSans-56"/>
       </defs>
       <use xlink:href="#DejaVuSans-48"/>
       <use x="63.623047" xlink:href="#DejaVuSans-46"/>
       <use x="95.410156" xlink:href="#DejaVuSans-56"/>
      </g>
     </g>
    </g>
    <g id="xtick_6">
     <g id="line2d_6">
      <g>
       <use style="stroke:#000000;stroke-width:0.8;" x="398.487273" xlink:href="#m91d7a1c25a" y="307.584"/>
      </g>
     </g>
     <g id="text_6">
      <!-- 1.0 -->
      <g transform="translate(390.53571 322.182437)scale(0.1 -0.1)">
       <defs>
        <path d="M 12.40625 8.296875 
L 28.515625 8.296875 
L 28.515625 63.921875 
L 10.984375 60.40625 
L 10.984375 69.390625 
L 28.421875 72.90625 
L 38.28125 72.90625 
L 38.28125 8.296875 
L 54.390625 8.296875 
L 54.390625 0 
L 12.40625 0 
z
" id="DejaVuSans-49"/>
       </defs>
       <use xlink:href="#DejaVuSans-49"/>
       <use x="63.623047" xlink:href="#DejaVuSans-46"/>
       <use x="95.410156" xlink:href="#DejaVuSans-48"/>
      </g>
     </g>
    </g>
   </g>
   <g id="matplotlib.axis_2">
    <g id="ytick_1">
     <g id="line2d_7">
      <defs>
       <path d="M 0 0 
L -3.5 0 
" id="m9b89e526aa" style="stroke:#000000;stroke-width:0.8;"/>
      </defs>
      <g>
       <use style="stroke:#000000;stroke-width:0.8;" x="57.6" xlink:href="#m9b89e526aa" y="290.087286"/>
      </g>
     </g>
     <g id="text_7">
      <!-- −3 -->
      <g transform="translate(35.857813 293.886505)scale(0.1 -0.1)">
       <defs>
        <path d="M 10.59375 35.5 
L 73.1875 35.5 
L 73.1875 27.203125 
L 10.59375 27.203125 
z
" id="DejaVuSans-8722"/>
        <path d="M 40.578125 39.3125 
Q 47.65625 37.796875 51.625 33 
Q 55.609375 28.21875 55.609375 21.1875 
Q 55.609375 10.40625 48.1875 4.484375 
Q 40.765625 -1.421875 27.09375 -1.421875 
Q 22.515625 -1.421875 17.65625 -0.515625 
Q 12.796875 0.390625 7.625 2.203125 
L 7.625 11.71875 
Q 11.71875 9.328125 16.59375 8.109375 
Q 21.484375 6.890625 26.8125 6.890625 
Q 36.078125 6.890625 40.9375 10.546875 
Q 45.796875 14.203125 45.796875 21.1875 
Q 45.796875 27.640625 41.28125 31.265625 
Q 36.765625 34.90625 28.71875 34.90625 
L 20.21875 34.90625 
L 20.21875 43.015625 
L 29.109375 43.015625 
Q 36.375 43.015625 40.234375 45.921875 
Q 44.09375 48.828125 44.09375 54.296875 
Q 44.09375 59.90625 40.109375 62.90625 
Q 36.140625 65.921875 28.71875 65.921875 
Q 24.65625 65.921875 20.015625 65.03125 
Q 15.375 64.15625 9.8125 62.3125 
L 9.8125 71.09375 
Q 15.4375 72.65625 20.34375 73.4375 
Q 25.25 74.21875 29.59375 74.21875 
Q 40.828125 74.21875 47.359375 69.109375 
Q 53.90625 64.015625 53.90625 55.328125 
Q 53.90625 49.265625 50.4375 45.09375 
Q 46.96875 40.921875 40.578125 39.3125 
z
" id="DejaVuSans-51"/>
       </defs>
       <use xlink:href="#DejaVuSans-8722"/>
       <use x="83.789062" xlink:href="#DejaVuSans-51"/>
      </g>
     </g>
    </g>
    <g id="ytick_2">
     <g id="line2d_8">
      <g>
       <use style="stroke:#000000;stroke-width:0.8;" x="57.6" xlink:href="#m9b89e526aa" y="251.568212"/>
      </g>
     </g>
     <g id="text_8">
      <!-- −2 -->
      <g transform="translate(35.857813 255.36743)scale(0.1 -0.1)">
       <use xlink:href="#DejaVuSans-8722"/>
       <use x="83.789062" xlink:href="#DejaVuSans-50"/>
      </g>
     </g>
    </g>
    <g id="ytick_3">
     <g id="line2d_9">
      <g>
       <use style="stroke:#000000;stroke-width:0.8;" x="57.6" xlink:href="#m9b89e526aa" y="213.049137"/>
      </g>
     </g>
     <g id="text_9">
      <!-- −1 -->
      <g transform="translate(35.857813 216.848356)scale(0.1 -0.1)">
       <use xlink:href="#DejaVuSans-8722"/>
       <use x="83.789062" xlink:href="#DejaVuSans-49"/>
      </g>
     </g>
    </g>
    <g id="ytick_4">
     <g id="line2d_10">
      <g>
       <use style="stroke:#000000;stroke-width:0.8;" x="57.6" xlink:href="#m9b89e526aa" y="174.530063"/>
      </g>
     </g>
     <g id="text_10">
      <!-- 0 -->
      <g transform="translate(44.2375 178.329282)scale(0.1 -0.1)">
       <use xlink:href="#DejaVuSans-48"/>
      </g>
     </g>
    </g>
    <g id="ytick_5">
     <g id="line2d_11">
      <g>
       <use style="stroke:#000000;stroke-width:0.8;" x="57.6" xlink:href="#m9b89e526aa" y="136.010989"/>
      </g>
     </g>
     <g id="text_11">
      <!-- 1 -->
      <g transform="translate(44.2375 139.810207)scale(0.1 -0.1)">
       <use xlink:href="#DejaVuSans-49"/>
      </g>
     </g>
    </g>
    <g id="ytick_6">
     <g id="line2d_12">
      <g>
       <use style="stroke:#000000;stroke-width:0.8;" x="57.6" xlink:href="#m9b89e526aa" y="97.491914"/>
      </g>
     </g>
     <g id="text_12">
      <!-- 2 -->
      <g transform="translate(44.2375 101.291133)scale(0.1 -0.1)">
       <use xlink:href="#DejaVuSans-50"/>
      </g>
     </g>
    </g>
    <g id="ytick_7">
     <g id="line2d_13">
      <g>
       <use style="stroke:#000000;stroke-width:0.8;" x="57.6" xlink:href="#m9b89e526aa" y="58.97284"/>
      </g>
     </g>
     <g id="text_13">
      <!-- 3 -->
      <g transform="translate(44.2375 62.772059)scale(0.1 -0.1)">
       <use xlink:href="#DejaVuSans-51"/>
      </g>
     </g>
    </g>
   </g>
   <g id="line2d_14">
    <path clip-path="url(#p0138a117cc)" d="M 73.832727 171.924452 
L 74.6639 172.011301 
L 77.157416 172.487567 
L 79.484699 173.145467 
L 81.811981 174.010173 
L 84.139263 175.087258 
L 85.635373 175.988554 
L 87.297718 177.259139 
L 89.126297 178.97092 
L 90.788641 180.812597 
L 92.617219 183.160111 
L 95.110736 186.79647 
L 96.108142 188.208291 
L 96.606845 188.601171 
L 97.271783 188.708454 
L 97.936721 188.361698 
L 98.601659 187.561312 
L 99.266596 186.310223 
L 100.097768 184.099875 
L 100.928938 181.208354 
L 101.926342 176.813151 
L 102.923743 171.35434 
L 104.087378 163.376589 
L 105.74971 151.414586 
L 106.580878 147.177824 
L 107.412049 144.29989 
L 107.910752 143.163206 
L 108.409456 142.552036 
L 108.741924 142.391527 
L 109.074393 142.443085 
L 109.406862 142.706168 
L 109.739331 143.180759 
L 110.238034 144.261734 
L 110.902971 146.43092 
L 113.230248 155.656806 
L 114.227653 158.280215 
L 115.058825 159.741375 
L 115.557529 160.327169 
L 116.222466 160.730006 
L 116.887404 160.717391 
L 117.552342 160.287361 
L 118.21728 159.44246 
L 119.048451 157.788233 
L 119.879622 155.556759 
L 121.209496 151.770326 
L 122.206902 149.620904 
L 123.038074 148.360546 
L 123.703011 147.685076 
L 124.201715 147.367798 
L 124.866652 147.221691 
L 125.53159 147.37784 
L 126.196528 147.83732 
L 127.360169 149.1904 
L 128.856278 150.847572 
L 130.352388 152.178868 
L 131.682264 153.096039 
L 133.012139 153.761514 
L 134.17578 154.1378 
L 135.505656 154.330285 
L 136.835532 154.270285 
L 138.165407 153.957665 
L 139.495283 153.393857 
L 140.825158 152.575613 
L 142.321268 151.362974 
L 143.651143 150.023613 
L 145.147252 148.209281 
L 146.643362 146.025408 
L 147.807001 143.954253 
L 149.136875 141.067661 
L 150.632982 137.18905 
L 151.962853 133.189604 
L 153.458956 128.007762 
L 154.955058 122.042856 
L 156.451156 115.158874 
L 157.781022 109.324683 
L 159.277125 103.915852 
L 160.440762 100.398764 
L 161.770635 97.175412 
L 162.934274 95.035932 
L 163.765446 93.886822 
L 164.762852 92.921143 
L 165.760259 92.310512 
L 166.591431 92.064198 
L 168.42001 91.946249 
L 170.913527 91.611867 
L 173.074575 91.121141 
L 174.570685 90.529141 
L 175.90056 89.776005 
L 177.230435 88.802645 
L 178.726545 87.450174 
L 180.388888 85.626783 
L 182.217466 83.222081 
L 184.212277 80.198076 
L 185.874619 77.284216 
L 190.529175 68.394285 
L 195.183729 59.05996 
L 197.677239 53.656675 
L 197.843473 295.305886 
L 198.840877 292.812945 
L 199.505811 290.583031 
L 200.336973 287.076341 
L 201.334363 281.772988 
L 202.497979 273.95653 
L 203.495349 265.630412 
L 204.326468 257.297324 
L 205.323795 244.831638 
L 206.653529 224.086764 
L 208.48195 192.69571 
L 209.313094 183.16669 
L 210.144258 176.350201 
L 210.809191 172.453173 
L 211.307892 170.394036 
L 211.806595 169.191775 
L 212.139064 168.795675 
L 212.305298 168.685656 
L 212.637767 168.817881 
L 213.13647 169.733232 
L 213.468939 170.767256 
L 213.96764 172.959082 
L 214.632573 177.241734 
L 215.463737 184.71448 
L 216.128663 192.440879 
L 217.292284 206.028708 
L 218.455919 216.582883 
L 219.453323 223.924049 
L 220.450728 229.971967 
L 221.448133 234.899724 
L 222.279305 238.241783 
L 223.276711 241.269911 
L 224.107884 242.985377 
L 224.606587 243.682883 
L 225.271525 244.17969 
L 226.102697 244.316173 
L 232.585841 244.537205 
L 239.733922 244.548333 
L 246.549534 244.331885 
L 248.710582 244.321284 
L 249.541755 244.47731 
L 250.372927 244.891065 
L 251.204099 245.56448 
L 252.201505 246.709957 
L 253.365146 248.457992 
L 254.528786 250.629896 
L 255.85866 253.670122 
L 257.354768 257.747426 
L 258.68464 261.926551 
L 260.014512 266.77027 
L 261.344381 272.349553 
L 262.67425 278.74067 
L 264.004115 286.128747 
L 264.835277 291.655997 
L 265.167741 294.210801 
L 265.333976 53.571913 
L 266.16513 61.158639 
L 267.162512 72.367001 
L 268.159888 86.645669 
L 269.157275 105.824419 
L 270.154663 123.442753 
L 270.985819 133.114097 
L 271.48452 136.761701 
L 271.983223 138.4479 
L 272.149457 138.749718 
L 272.481926 138.623752 
L 272.814395 137.824603 
L 273.313096 135.417743 
L 273.811796 131.903019 
L 274.476723 125.219673 
L 275.307853 113.240001 
L 276.305208 98.639361 
L 277.136356 89.232367 
L 278.133739 80.773926 
L 279.131133 74.702307 
L 279.962299 71.137414 
L 280.461001 69.632276 
L 281.125938 68.516015 
L 281.95711 67.677541 
L 282.455814 67.386637 
L 283.120751 67.272403 
L 283.785689 67.4568 
L 284.450627 67.941461 
L 285.281799 68.974424 
L 285.946736 70.131306 
L 286.777907 71.988218 
L 287.775311 74.8496 
L 288.938947 79.009389 
L 291.931154 90.564624 
L 292.762325 92.85449 
L 293.75973 94.86667 
L 294.590902 95.932182 
L 295.089606 96.325319 
L 295.754543 96.5266 
L 296.419481 96.374271 
L 297.084419 95.866086 
L 297.749356 95.002197 
L 298.580528 93.409136 
L 299.411699 91.278172 
L 300.409103 87.976162 
L 301.572738 83.146435 
L 303.401309 75.136175 
L 304.897414 69.872633 
L 306.061053 66.493808 
L 307.224692 63.778647 
L 308.222098 61.963302 
L 309.05327 60.810713 
L 309.884442 60.026455 
L 310.54938 59.654906 
L 311.380552 59.443561 
L 313.5416 59.19877 
L 315.536414 59.195205 
L 317.531227 59.405835 
L 319.52604 59.824509 
L 321.022151 60.100148 
L 322.684495 60.146344 
L 324.014371 59.972097 
L 324.845543 59.550338 
L 325.510481 58.984283 
L 326.175418 58.184041 
L 327.00659 56.837995 
L 328.003996 54.704303 
L 328.336465 53.867224 
L 328.502699 295.439849 
L 329.500105 292.452045 
L 330.49751 288.881073 
L 331.66115 284.026612 
L 332.991022 277.502024 
L 335.983232 261.175771 
L 337.811802 250.041981 
L 339.141668 240.783986 
L 341.801397 221.508459 
L 342.3001 219.632927 
L 342.798803 218.637147 
L 343.131271 218.386292 
L 343.297506 218.349583 
L 343.629975 218.632147 
L 344.128677 219.781378 
L 344.461145 220.977276 
L 344.959847 223.404088 
L 346.788414 234.260083 
L 347.952052 239.894095 
L 349.115689 244.417916 
L 350.113094 247.46753 
L 350.944266 249.42788 
L 352.440375 252.350068 
L 353.604016 254.160348 
L 354.767657 255.54877 
L 355.765063 256.41955 
L 356.596236 256.900393 
L 357.593642 257.218429 
L 358.591049 257.243454 
L 359.588456 256.973131 
L 360.585862 256.407125 
L 361.583269 255.533167 
L 362.414441 254.395677 
L 363.079379 253.133037 
L 363.910551 251.114715 
L 364.907956 248.021431 
L 366.071596 243.474953 
L 367.235235 237.971951 
L 368.398872 231.296272 
L 369.396273 224.47497 
L 371.723542 207.98782 
L 372.887179 201.403841 
L 374.383284 194.301489 
L 375.713157 189.021678 
L 376.876797 185.144179 
L 378.206671 181.5183 
L 379.370311 179.045722 
L 380.367718 177.402575 
L 381.19889 176.333661 
L 382.196297 175.362339 
L 383.193703 174.734471 
L 385.520986 173.724302 
L 388.346971 172.779303 
L 390.674253 172.228224 
L 393.001536 171.883617 
L 395.328818 171.745399 
L 397.6561 171.813529 
L 398.487273 171.887344 
L 398.487273 171.887344 
" style="fill:none;stroke:#1f77b4;stroke-linecap:square;stroke-width:1.5;"/>
   </g>
   <g id="line2d_15">
    <path clip-path="url(#p0138a117cc)" d="M 73.832727 172.564308 
L 74.229327 172.469386 
L 74.229327 172.469386 
L 75.551376 171.869771 
L 76.08021 172.068041 
L 77.137898 172.841325 
L 77.798963 173.334383 
L 78.195604 173.355018 
L 78.724462 173.120325 
L 79.253322 172.874609 
L 79.782185 172.961901 
L 80.046617 173.158711 
L 80.046617 173.158711 
L 81.897648 175.230894 
L 82.294299 175.189694 
L 82.823168 174.893479 
L 83.21982 174.722619 
L 83.21982 174.722619 
L 83.748689 174.785274 
L 83.748689 174.785274 
L 84.013124 174.970315 
L 84.409777 175.521145 
L 85.203082 176.805774 
L 85.864171 177.53973 
L 85.864171 177.53973 
L 86.260824 177.659608 
L 86.657477 177.550276 
L 87.186348 177.337092 
L 87.583002 177.386123 
L 87.979655 177.780369 
L 87.979655 177.780369 
L 88.508526 178.706658 
L 88.508526 178.706658 
L 89.434051 180.837529 
L 90.09514 182.215835 
L 90.09514 182.215835 
L 90.624011 182.886362 
L 90.624011 182.886362 
L 91.020665 183.010794 
L 91.681754 183.075556 
L 91.681754 183.075556 
L 91.94619 183.228308 
L 92.342843 183.709755 
L 93.003932 184.945785 
L 94.32611 188.013164 
L 94.32611 188.013164 
L 95.119417 189.642746 
L 95.780496 190.387282 
L 96.30615 190.929844 
L 96.820974 191.780186 
L 97.799465 193.700285 
L 98.032528 193.606606 
L 98.260914 193.022689 
L 98.595572 191.277034 
L 99.028227 187.527983 
L 99.752765 181.336434 
L 100.052137 180.285793 
L 100.052137 180.285793 
L 100.24831 180.140706 
L 100.441995 180.30715 
L 100.441995 180.30715 
L 100.915852 181.086496 
L 101.101783 180.905544 
L 101.285778 180.380154 
L 101.558054 178.731191 
L 101.558054 178.731191 
L 102.00318 174.22127 
L 102.69649 167.00577 
L 103.035622 165.326392 
L 103.370968 164.764762 
L 103.620658 164.421666 
L 103.620658 164.421666 
L 103.952002 163.301048 
L 103.952002 163.301048 
L 104.282384 160.808435 
L 104.282384 160.808435 
L 105.770824 147.602927 
L 106.189118 146.162554 
L 107.129385 143.649981 
L 107.931115 140.832499 
L 108.30078 140.155973 
L 108.489263 140.079202 
L 108.777244 140.24304 
L 108.777244 140.24304 
L 109.783447 141.428095 
L 110.200446 142.216994 
L 110.621957 143.551971 
L 111.153176 146.175222 
L 111.688089 149.95644 
L 111.688089 149.95644 
L 112.658864 157.15687 
L 113.203411 159.612077 
L 113.642582 160.660047 
L 114.308966 161.597235 
L 114.308966 161.597235 
L 116.398117 163.770308 
L 116.886416 163.977208 
L 117.257428 163.846735 
L 117.631927 163.342634 
L 117.631927 163.342634 
L 118.009439 162.534848 
L 118.644231 160.507371 
L 118.644231 160.507371 
L 119.542206 156.75683 
L 120.838236 150.706462 
L 121.88253 145.964688 
L 122.537519 144.052234 
L 123.062474 143.075449 
L 123.588123 142.633618 
L 124.114343 142.505718 
L 124.772768 142.735435 
L 125.43177 143.3808 
L 125.43177 143.3808 
L 125.959302 144.361672 
L 125.959302 144.361672 
L 127.015034 147.036285 
L 127.015034 147.036285 
L 127.807272 149.393788 
L 128.996113 153.214773 
L 129.524624 154.110487 
L 130.053199 154.632752 
L 130.846157 155.109408 
L 133.489875 156.388857 
L 134.018679 156.18718 
L 134.944112 155.418863 
L 134.944112 155.418863 
L 136.398416 154.189771 
L 136.795051 154.225627 
L 137.58833 154.432128 
L 137.58833 154.432128 
L 138.117187 154.262445 
L 138.117187 154.262445 
L 138.778261 153.854448 
L 139.174908 153.402825 
L 139.174908 153.402825 
L 140.232635 151.847899 
L 140.232635 151.847899 
L 141.025935 151.070474 
L 141.422585 150.939096 
L 142.08367 150.947043 
L 142.612539 150.747588 
L 143.009191 150.286914 
L 143.670278 149.047087 
L 144.992453 146.291047 
L 144.992453 146.291047 
L 145.653541 145.55828 
L 146.97434 144.300669 
L 147.496468 143.086863 
L 148.010974 141.056238 
L 149.138502 135.977195 
L 149.138502 135.977195 
L 149.505544 135.153775 
L 149.747899 134.963759 
L 149.988478 134.993114 
L 150.582518 135.218521 
L 150.582518 135.218521 
L 150.817221 135.006402 
L 151.050397 134.531638 
L 151.050397 134.531638 
L 151.39717 133.262328 
L 151.85441 130.281834 
L 152.753454 124.28147 
L 153.085624 123.218205 
L 153.305674 122.968296 
L 153.305674 122.968296 
L 153.6338 123.029028 
L 153.959739 123.148134 
L 154.17592 122.998603 
L 154.17592 122.998603 
L 154.391279 122.60537 
L 154.712933 121.374673 
L 155.246096 117.907928 
L 156.094446 112.238965 
L 156.62371 110.001731 
L 158.215455 104.7262 
L 159.396856 99.272396 
L 159.831884 98.262258 
L 160.380925 97.714808 
L 161.048803 96.835531 
L 161.048803 96.835531 
L 161.614211 95.468378 
L 162.539025 93.127537 
L 163.131518 92.202031 
L 163.614619 91.902282 
L 164.603445 91.677547 
L 165.106713 91.094497 
L 165.742076 90.261717 
L 166.254433 89.843938 
L 166.640649 89.824996 
L 167.028285 90.010572 
L 167.417147 90.44918 
L 167.417147 90.44918 
L 168.720233 91.947056 
L 169.112751 92.167901 
L 169.505831 92.128969 
L 169.505831 92.128969 
L 170.030682 91.846716 
L 170.030682 91.846716 
L 171.082394 91.217732 
L 171.082394 91.217732 
L 171.477327 91.292477 
L 172.267863 91.767451 
L 172.663407 92.013605 
L 172.663407 92.013605 
L 173.059102 92.031776 
L 173.454927 91.869102 
L 173.850865 91.375777 
L 175.17129 89.315639 
L 175.567563 88.965888 
L 175.963889 88.917992 
L 176.624527 88.996308 
L 177.15311 88.816816 
L 177.54958 88.36002 
L 178.210418 87.116904 
L 179.267867 84.997876 
L 180.061018 84.13036 
L 180.061018 84.13036 
L 181.779634 82.681806 
L 182.44067 81.45465 
L 184.027199 78.169918 
L 184.820479 77.364471 
L 184.820479 77.364471 
L 185.349336 76.62614 
L 185.349336 76.62614 
L 185.878195 75.558074 
L 185.878195 75.558074 
L 186.539272 73.499311 
L 187.464783 70.518783 
L 187.464783 70.518783 
L 187.993648 69.508568 
L 187.993648 69.508568 
L 188.654732 68.826889 
L 189.315816 68.275158 
L 189.976902 67.215102 
L 190.50577 65.786684 
L 191.563508 62.63591 
L 192.092024 61.547752 
L 193.774814 58.558292 
L 193.774814 58.558292 
L 195.486016 53.771352 
L 195.603755 53.607194 
L 195.720811 295.488 
L 195.720811 295.488 
L 196.296108 294.954497 
L 196.962297 294.407877 
L 197.391337 293.576015 
L 197.910192 291.707291 
L 197.910192 291.707291 
L 198.602979 289.358239 
L 199.075223 288.607215 
L 199.075223 288.607215 
L 199.530149 288.310751 
L 199.795121 288.007261 
L 199.795121 288.007261 
L 200.054598 287.203466 
L 200.47586 284.86466 
L 200.47586 284.86466 
L 201.813673 275.682331 
L 202.610189 271.488792 
L 202.610189 271.488792 
L 203.091332 267.216622 
L 205.247928 244.970124 
L 206.135919 232.250838 
L 208.32101 195.159897 
L 209.759009 178.945502 
L 209.759009 178.945502 
L 210.261518 175.199661 
L 210.261518 175.199661 
L 211.210177 170.874634 
L 211.955669 168.322146 
L 211.955669 168.322146 
L 212.431127 167.464112 
L 212.672418 167.446552 
L 212.91401 167.818047 
L 212.91401 167.818047 
L 213.232753 168.983367 
L 213.232753 168.983367 
L 213.620401 171.205581 
L 214.422022 178.047427 
L 214.422022 178.047427 
L 215.103498 182.62944 
L 215.499418 185.876796 
L 215.499418 185.876796 
L 215.956288 191.459727 
L 217.131222 206.883 
L 218.338089 217.140381 
L 220.210676 230.189586 
L 222.224796 239.699566 
L 222.925727 241.87095 
L 223.47327 243.185527 
L 223.47327 243.185527 
L 224.432532 244.728548 
L 225.144242 245.637162 
L 225.568252 245.76015 
L 225.895189 245.584604 
L 225.895189 245.584604 
L 226.923843 244.84806 
L 227.400723 244.948012 
L 228.132783 245.253037 
L 228.629713 245.129767 
L 229.512341 244.572426 
L 230.664831 243.862686 
L 231.181647 244.00708 
L 232.351719 244.644296 
L 232.351719 244.644296 
L 232.874191 244.499976 
L 232.874191 244.499976 
L 233.922334 244.0313 
L 233.922334 244.0313 
L 234.447639 244.202926 
L 234.447639 244.202926 
L 235.236746 244.748462 
L 235.89516 245.148863 
L 236.422314 245.053622 
L 237.213599 244.5354 
L 238.005396 244.002632 
L 238.53348 244.083506 
L 239.32586 244.587608 
L 240.118475 245.114225 
L 240.646986 245.031452 
L 241.439868 244.525664 
L 242.232858 243.997667 
L 242.761564 244.079887 
L 243.554677 244.585479 
L 244.083447 244.881203 
L 244.612235 244.798249 
L 245.405444 244.302235 
L 246.198678 243.785099 
L 246.727511 243.873164 
L 247.520774 244.385056 
L 248.049622 244.683564 
L 248.578474 244.602444 
L 249.900619 244.058189 
L 250.429481 244.275166 
L 250.826129 244.691747 
L 250.826129 244.691747 
L 251.48721 245.955169 
L 252.411676 248.248396 
L 252.411676 248.248396 
L 254.804853 255.08861 
L 256.093013 257.394316 
L 256.545431 258.991465 
L 258.065168 265.283058 
L 258.065168 265.283058 
L 258.687079 266.780751 
L 259.489755 268.537257 
L 259.976539 270.359586 
L 261.546906 277.761649 
L 261.546906 277.761649 
L 262.070387 279.366166 
L 262.577946 281.598797 
L 262.577946 281.598797 
L 263.619956 288.287955 
L 264.648928 294.604351 
L 264.788572 295.306821 
L 264.857832 53.656221 
L 264.926718 54.045958 
L 265.330592 57.04045 
L 266.217648 65.723507 
L 267.528696 80.628234 
L 269.028405 106.144989 
L 269.85778 122.631042 
L 270.286472 126.881079 
L 271.020988 133.778463 
L 271.020988 133.778463 
L 271.508046 138.135495 
L 271.508046 138.135495 
L 271.765175 139.08723 
L 271.765175 139.08723 
L 271.963998 139.237693 
L 272.098602 139.1226 
L 272.370678 138.524477 
L 273.048291 135.82307 
L 273.372583 133.401278 
L 273.372583 133.401278 
L 273.868527 128.266008 
L 273.868527 128.266008 
L 275.21069 110.61404 
L 276.024105 97.131027 
L 276.558335 92.449454 
L 277.233419 86.295378 
L 278.008514 78.841078 
L 278.553754 75.809075 
L 279.805224 70.205669 
L 280.282999 68.339423 
L 280.282999 68.339423 
L 280.698762 67.560506 
L 281.044035 67.356066 
L 283.947769 66.509965 
L 284.291325 66.730448 
L 284.757419 67.435643 
L 285.229321 68.7164 
L 286.060614 71.841643 
L 286.060614 71.841643 
L 287.352422 76.741893 
L 288.954428 82.971886 
L 290.884145 92.812263 
L 291.453358 94.26028 
L 292.485731 96.561 
L 292.485731 96.561 
L 293.301318 98.57421 
L 293.655837 99.095154 
L 294.014088 99.295484 
L 294.498488 99.282389 
L 295.489257 99.178528 
L 295.866624 99.104759 
L 295.866624 99.104759 
L 296.245546 98.867292 
L 296.623625 98.313191 
L 297.12123 97.126498 
L 297.727756 94.708837 
L 299.226431 87.676513 
L 299.226431 87.676513 
L 299.669923 86.649426 
L 299.669923 86.649426 
L 300.324379 85.491862 
L 300.755378 84.094656 
L 301.290768 81.178757 
L 302.892848 70.706211 
L 303.321513 69.84302 
L 303.967573 69.081074 
L 303.967573 69.081074 
L 304.401095 68.027935 
L 304.401095 68.027935 
L 304.947162 65.876832 
L 305.721082 62.879228 
L 305.721082 62.879228 
L 306.169268 61.814542 
L 306.169268 61.814542 
L 306.508746 61.439936 
L 306.851417 61.313096 
L 307.313781 61.191538 
L 307.664977 60.885973 
L 308.139716 60.004382 
L 308.989873 58.247083 
L 308.989873 58.247083 
L 309.485813 57.702699 
L 309.485813 57.702699 
L 309.987583 57.454156 
L 309.987583 57.454156 
L 310.494152 57.407918 
L 310.494152 57.407918 
L 310.876711 57.597458 
L 312.423678 58.657072 
L 312.943712 58.483493 
L 313.465311 58.290461 
L 313.988197 58.413738 
L 314.774454 58.908299 
L 316.351876 60.044231 
L 316.878698 59.924124 
L 318.197204 59.283496 
L 318.72504 59.474478 
L 319.649174 60.133686 
L 321.102151 61.206175 
L 321.630668 61.09114 
L 322.423558 60.533511 
L 323.216554 59.965732 
L 323.745263 60.02976 
L 324.669724 60.359818 
L 324.669724 60.359818 
L 324.931227 60.277474 
L 325.318731 59.773304 
L 325.699051 58.82278 
L 325.699051 58.82278 
L 326.194842 56.756315 
L 326.194842 56.756315 
L 326.796793 53.91257 
L 326.914864 295.407949 
L 327.380051 293.820719 
L 327.722014 293.335895 
L 327.946926 293.286178 
L 328.499141 293.29002 
L 328.499141 293.29002 
L 328.823987 292.752739 
L 329.144289 291.61429 
L 329.564762 289.070249 
L 330.587702 282.037813 
L 330.587702 282.037813 
L 330.986886 280.88205 
L 330.986886 280.88205 
L 331.381132 280.448694 
L 331.381132 280.448694 
L 331.673918 280.06251 
L 331.964484 279.179882 
L 332.444577 276.602472 
L 333.202947 270.548394 
L 333.671079 267.52084 
L 333.671079 267.52084 
L 334.134489 265.777571 
L 334.775214 264.01186 
L 334.775214 264.01186 
L 335.13668 262.243985 
L 335.13668 262.243985 
L 335.760867 257.737891 
L 336.805037 250.625217 
L 338.147061 244.003676 
L 339.686573 232.513259 
L 340.248622 228.915816 
L 341.624251 218.110508 
L 341.955244 217.410178 
L 342.291728 217.226934 
L 342.635304 217.080138 
L 343.529322 216.299779 
L 343.529322 216.299779 
L 343.803365 216.613217 
L 344.078277 217.418094 
L 344.445219 219.483406 
L 345.179234 225.458443 
L 346.465985 236.736687 
L 346.465985 236.736687 
L 347.021064 239.547331 
L 349.499599 249.36042 
L 349.499599 249.36042 
L 350.099064 250.452433 
L 352.891872 254.629853 
L 352.891872 254.629853 
L 354.677933 257.087163 
L 355.17398 257.452522 
L 356.182479 257.872384 
L 357.723355 258.631208 
L 358.371996 258.963475 
L 358.371996 258.963475 
L 358.762512 258.911362 
L 359.153864 258.687661 
L 359.545936 258.15132 
L 360.199113 256.772725 
L 361.935315 253.182746 
L 361.935315 253.182746 
L 362.959228 251.769518 
L 363.39374 250.329946 
L 364.230613 246.611677 
L 365.030161 243.263393 
L 366.538685 238.058118 
L 367.952748 229.703083 
L 368.55095 227.071262 
L 368.55095 227.071262 
L 369.058364 223.728419 
L 371.079193 208.51385 
L 371.672664 205.341451 
L 372.878062 197.792071 
L 373.851645 194.080782 
L 374.949473 189.818078 
L 375.897709 185.732599 
L 375.897709 185.732599 
L 378.432928 178.904742 
L 379.750285 177.004762 
L 380.790541 175.43981 
L 382.12659 173.434354 
L 382.625903 172.879145 
L 383.257292 172.510408 
L 383.767098 172.366416 
L 384.151703 172.502468 
L 385.444355 173.246561 
L 385.964899 173.087025 
L 386.879239 172.473633 
L 387.796811 171.884912 
L 388.322218 172.002072 
L 389.111443 172.547307 
L 389.638186 172.858376 
L 390.165306 172.785752 
L 390.692736 172.420697 
L 391.880319 171.127712 
L 391.880319 171.127712 
L 392.276385 170.906208 
L 392.672531 170.944001 
L 393.200832 171.226584 
L 394.521987 172.111306 
L 394.521987 172.111306 
L 394.918419 172.038172 
L 395.579204 171.650214 
L 395.579204 171.650214 
L 396.504411 171.03783 
L 397.033143 171.124416 
L 397.826287 171.633354 
L 398.487273 172.19782 
L 398.487273 172.19782 
" style="fill:none;stroke:#ff7f0e;stroke-linecap:square;stroke-width:1.5;"/>
   </g>
   <g id="line2d_16">
    <path clip-path="url(#p0138a117cc)" d="M 73.832727 171.577507 
L 74.228404 171.583154 
L 74.887883 171.886857 
L 75.811185 172.579565 
L 76.734514 173.287229 
L 77.130232 173.300159 
L 77.130232 173.300159 
L 77.657861 173.05437 
L 77.657861 173.05437 
L 78.185495 172.79869 
L 78.185495 172.79869 
L 78.713132 172.878015 
L 78.713132 172.878015 
L 79.504592 173.33854 
L 82.538561 175.600776 
L 83.857688 175.514727 
L 84.649165 175.964841 
L 87.287427 178.028741 
L 90.057606 180.123195 
L 92.036306 181.649258 
L 92.563959 182.505913 
L 93.487351 184.534663 
L 93.487351 184.534663 
L 96.389293 191.278326 
L 96.911689 191.92448 
L 97.91283 192.823906 
L 98.2692 192.785024 
L 98.615141 192.525252 
L 98.615141 192.525252 
L 99.061716 191.831476 
L 99.061716 191.831476 
L 99.598675 190.454462 
L 100.012789 188.613518 
L 100.611108 184.840652 
L 101.374666 178.120424 
L 102.545858 167.672325 
L 102.545858 167.672325 
L 103.403591 162.193039 
L 104.566796 155.928932 
L 104.566796 155.928932 
L 105.14308 152.747078 
L 106.633832 144.142173 
L 107.056146 142.780033 
L 107.485198 141.969925 
L 107.922872 141.698076 
L 107.922872 141.698076 
L 108.554307 141.568066 
L 108.927516 141.809238 
L 109.409628 142.618916 
L 109.409628 142.618916 
L 110.218013 144.031936 
L 110.218013 144.031936 
L 111.160168 145.128807 
L 111.584479 146.234691 
L 112.011147 147.893392 
L 112.654899 151.459299 
L 114.067924 160.259288 
L 114.067924 160.259288 
L 114.509858 161.68699 
L 114.509858 161.68699 
L 114.956688 162.464075 
L 114.956688 162.464075 
L 115.295689 162.77825 
L 115.638545 162.809679 
L 116.219815 162.588194 
L 116.81585 161.952266 
L 116.81585 161.952266 
L 118.046112 160.602863 
L 118.801708 160.072823 
L 118.801708 160.072823 
L 119.95141 159.857325 
L 120.337879 159.362562 
L 120.337879 159.362562 
L 120.72561 158.519556 
L 121.244251 156.824049 
L 122.025113 153.126938 
L 123.201228 147.504799 
L 123.725308 145.880488 
L 124.250021 144.99309 
L 124.643903 144.674236 
L 125.038038 144.729564 
L 125.038038 144.729564 
L 125.432391 145.041138 
L 127.011451 146.630024 
L 127.538235 146.57355 
L 128.855811 146.123163 
L 129.514841 146.45884 
L 130.437672 147.200511 
L 130.833224 147.700087 
L 130.833224 147.700087 
L 131.756272 149.07516 
L 132.67942 149.994144 
L 134.789707 151.832441 
L 135.71302 152.726652 
L 137.823527 154.277478 
L 140.593649 156.111422 
L 141.121297 155.946465 
L 141.912771 155.336586 
L 141.912771 155.336586 
L 145.078678 152.244224 
L 145.078678 152.244224 
L 145.738243 150.924484 
L 146.661634 148.589649 
L 146.661634 148.589649 
L 147.319619 146.139372 
L 147.969089 142.876117 
L 148.857736 137.171555 
L 150.444922 126.626288 
L 151.035746 124.242514 
L 151.501167 123.215262 
L 151.960678 122.754103 
L 152.301669 122.650998 
L 152.751776 122.740331 
L 153.417883 123.017069 
L 153.417883 123.017069 
L 153.856556 122.86276 
L 153.856556 122.86276 
L 154.182895 122.475854 
L 154.722216 121.254535 
L 154.722216 121.254535 
L 155.256916 119.237351 
L 156.105537 115.133722 
L 158.219875 103.484279 
L 159.285855 99.536789 
L 159.932654 98.068065 
L 161.139361 96.074321 
L 161.139361 96.074321 
L 163.198539 93.063712 
L 163.675032 92.870595 
L 165.78101 92.291784 
L 166.930625 91.630314 
L 166.930625 91.630314 
L 170.835537 89.077073 
L 171.360385 89.243204 
L 172.674491 90.006213 
L 172.674491 90.006213 
L 173.200726 89.853934 
L 173.200726 89.853934 
L 173.858867 89.432562 
L 177.8123 86.333606 
L 179.26285 86.163319 
L 180.186041 85.571197 
L 182.56019 83.657354 
L 183.087807 82.784702 
L 184.01115 80.738701 
L 186.385516 74.795152 
L 186.385516 74.795152 
L 188.100361 69.461275 
L 189.683305 65.925848 
L 192.716033 59.315512 
L 192.716033 59.315512 
L 193.496379 56.940972 
L 194.385608 53.663407 
L 194.510413 295.253402 
L 195.487729 292.338347 
L 196.078375 291.318093 
L 196.765919 290.588046 
L 197.535768 290.09888 
L 197.535768 290.09888 
L 198.063983 289.967231 
L 198.77 290.024585 
L 198.77 290.024585 
L 199.250453 290.06919 
L 199.621842 289.755436 
L 199.893056 289.250667 
L 199.893056 289.250667 
L 200.245855 288.106309 
L 200.245855 288.106309 
L 200.757476 285.341171 
L 201.407888 280.02645 
L 204.856401 248.116123 
L 204.856401 248.116123 
L 205.615934 238.314054 
L 206.880025 218.486527 
L 206.880025 218.486527 
L 208.789867 188.646027 
L 208.789867 188.646027 
L 209.684721 179.164767 
L 209.684721 179.164767 
L 210.27932 175.068958 
L 211.040529 170.971796 
L 211.444851 169.718595 
L 211.444851 169.718595 
L 211.867952 168.874181 
L 212.08742 168.789315 
L 212.312694 168.921935 
L 212.312694 168.921935 
L 212.544124 169.412562 
L 213.820652 173.066772 
L 214.354409 174.107825 
L 214.646007 175.377049 
L 214.999127 178.038846 
L 215.475972 183.76009 
L 217.50137 210.801554 
L 218.361253 218.901355 
L 219.179742 224.134649 
L 220.623207 231.878166 
L 221.470629 235.369003 
L 223.309645 241.952541 
L 223.850519 243.127656 
L 224.506654 244.175121 
L 224.506654 244.175121 
L 224.895073 244.434045 
L 224.895073 244.434045 
L 225.705051 244.64782 
L 225.705051 244.64782 
L 227.483833 245.230185 
L 227.483833 245.230185 
L 229.063202 245.855959 
L 229.563711 245.638322 
L 230.834192 244.911234 
L 231.348121 245.073672 
L 232.382841 245.56221 
L 232.902846 245.40517 
L 233.815967 244.771525 
L 234.470069 244.379598 
L 234.994215 244.483327 
L 236.438498 245.118554 
L 237.096003 244.804654 
L 238.412253 244.012954 
L 238.807369 244.111108 
L 238.807369 244.111108 
L 239.597843 244.631812 
L 240.124972 244.933665 
L 240.652193 244.854812 
L 241.443165 244.362615 
L 241.443165 244.362615 
L 242.234266 243.847829 
L 242.761721 243.936737 
L 243.552968 244.449026 
L 243.552968 244.449026 
L 244.344275 244.981 
L 244.871837 244.900321 
L 245.663211 244.395873 
L 245.663211 244.395873 
L 246.454611 243.86778 
L 246.982223 243.949752 
L 247.773654 244.455127 
L 247.773654 244.455127 
L 253.565502 249.39061 
L 253.565502 249.39061 
L 254.4493 250.714261 
L 254.818851 251.582488 
L 255.422769 253.611445 
L 256.358958 257.619289 
L 258.128977 266.383559 
L 258.760149 268.977478 
L 259.575173 271.368108 
L 260.552733 274.132377 
L 261.757171 279.009204 
L 261.757171 279.009204 
L 263.052328 284.979064 
L 264.466232 294.420077 
L 264.613436 295.45317 
L 264.686394 53.937883 
L 264.758904 54.431835 
L 265.989479 63.628412 
L 266.800443 72.220569 
L 266.800443 72.220569 
L 267.990886 88.502315 
L 268.773382 102.123959 
L 268.773382 102.123959 
L 270.158246 125.368188 
L 270.848134 133.117356 
L 270.848134 133.117356 
L 271.464324 137.690998 
L 271.759372 138.561936 
L 271.759372 138.561936 
L 272.004109 138.763945 
L 272.004109 138.763945 
L 272.193617 138.497062 
L 272.388667 137.717441 
L 273.132975 134.02577 
L 273.864465 131.592578 
L 273.864465 131.592578 
L 274.178361 128.767995 
L 274.601163 122.966842 
L 274.601163 122.966842 
L 276.571859 92.035509 
L 277.285011 84.570117 
L 278.155903 78.000114 
L 278.155903 78.000114 
L 278.679767 75.326394 
L 278.679767 75.326394 
L 280.024872 70.069998 
L 280.721996 68.505207 
L 280.721996 68.505207 
L 281.130149 68.102814 
L 281.908725 67.752665 
L 282.367926 67.662059 
L 282.946816 67.993698 
L 284.094255 68.70522 
L 284.094255 68.70522 
L 285.936418 69.669891 
L 285.936418 69.669891 
L 286.647258 70.20176 
L 287.119635 70.993826 
L 287.587628 72.247811 
L 288.166084 74.727368 
L 288.966 79.745739 
L 290.892095 92.379753 
L 291.799107 96.903608 
L 292.368422 98.437732 
L 292.368422 98.437732 
L 292.94133 99.383669 
L 293.287513 99.617147 
L 293.287513 99.617147 
L 293.752787 99.641332 
L 293.752787 99.641332 
L 294.461051 99.472481 
L 294.941935 99.079979 
L 296.679353 97.32343 
L 296.679353 97.32343 
L 297.678788 96.324017 
L 297.678788 96.324017 
L 298.164415 95.55734 
L 298.164415 95.55734 
L 298.638562 94.21753 
L 298.638562 94.21753 
L 299.443541 91.086147 
L 300.002257 88.221531 
L 300.002257 88.221531 
L 303.331782 69.350265 
L 303.86614 67.602299 
L 303.86614 67.602299 
L 304.618379 66.03841 
L 306.930557 62.058976 
L 306.930557 62.058976 
L 308.548897 59.516952 
L 309.027405 59.214467 
L 309.883927 59.044637 
L 310.759764 58.80144 
L 310.759764 58.80144 
L 312.033769 58.146121 
L 313.325178 57.449893 
L 313.325178 57.449893 
L 313.845011 57.622693 
L 313.845011 57.622693 
L 314.757902 58.329641 
L 315.935948 59.233263 
L 315.935948 59.233263 
L 316.46065 59.138443 
L 316.46065 59.138443 
L 317.511529 58.706309 
L 317.511529 58.706309 
L 318.037537 58.879426 
L 318.037537 58.879426 
L 318.82708 59.407726 
L 320.012274 60.234771 
L 320.539276 60.123933 
L 321.329988 59.576597 
L 322.384565 58.777234 
L 323.043801 58.843077 
L 323.571242 58.717705 
L 324.230595 58.343353 
L 325.414668 57.375705 
L 325.414668 57.375705 
L 326.056865 56.577846 
L 327.981589 53.568 
L 328.095662 295.389306 
L 328.877627 293.847808 
L 329.418532 292.083631 
L 330.051624 289.32713 
L 330.051624 289.32713 
L 331.073639 283.264406 
L 332.545039 273.494759 
L 333.308292 268.647318 
L 333.966665 265.887839 
L 333.966665 265.887839 
L 334.708102 262.925514 
L 334.708102 262.925514 
L 335.885813 256.819882 
L 337.624359 246.70262 
L 339.842783 231.56554 
L 339.842783 231.56554 
L 342.094988 216.697855 
L 342.094988 216.697855 
L 342.423975 215.897852 
L 342.423975 215.897852 
L 342.673991 215.683329 
L 342.927535 215.800309 
L 343.272288 216.475714 
L 343.715704 217.914669 
L 344.442573 220.334777 
L 344.900228 221.865198 
L 344.900228 221.865198 
L 345.358068 224.075987 
L 345.907389 228.120627 
L 347.654548 242.604547 
L 348.495274 246.969713 
L 348.96902 248.495735 
L 348.96902 248.495735 
L 349.642894 249.767823 
L 351.453027 252.543494 
L 352.412587 253.287397 
L 353.188745 254.423552 
L 353.644988 254.941055 
L 354.229126 255.226856 
L 355.938544 255.775549 
L 355.938544 255.775549 
L 357.0759 256.39483 
L 359.39743 257.816171 
L 359.788044 257.746674 
L 360.440435 257.329181 
L 361.213893 256.594924 
L 361.959369 255.600274 
L 362.671497 254.306205 
L 363.789795 251.746487 
L 364.835132 248.997487 
L 365.335075 246.907668 
L 366.108377 242.21408 
L 366.761734 237.166886 
L 368.014412 227.364878 
L 369.129224 220.847304 
L 369.129224 220.847304 
L 370.055134 215.369689 
L 372.584803 199.551986 
L 373.448111 195.91111 
L 376.659142 183.980496 
L 377.248856 182.532937 
L 377.248856 182.532937 
L 377.852525 181.007197 
L 378.892413 179.19575 
L 378.892413 179.19575 
L 381.473833 175.329242 
L 381.954094 174.980678 
L 385.09682 173.64836 
L 385.09682 173.64836 
L 388.741886 171.141711 
L 388.741886 171.141711 
L 391.238184 169.40692 
L 391.633027 169.43523 
L 392.291361 169.827227 
L 394.004138 171.066973 
L 394.004138 171.066973 
L 394.399555 170.963135 
L 395.322356 170.586055 
L 395.849752 170.743599 
L 396.640928 171.26533 
L 396.640928 171.26533 
L 398.091604 172.32133 
L 398.487273 172.261381 
L 398.487273 172.261381 
" style="fill:none;stroke:#2ca02c;stroke-linecap:square;stroke-width:1.5;"/>
   </g>
   <g id="patch_3">
    <path d="M 57.6 307.584 
L 57.6 41.472 
" style="fill:none;stroke:#000000;stroke-linecap:square;stroke-linejoin:miter;stroke-width:0.8;"/>
   </g>
   <g id="patch_4">
    <path d="M 414.72 307.584 
L 414.72 41.472 
" style="fill:none;stroke:#000000;stroke-linecap:square;stroke-linejoin:miter;stroke-width:0.8;"/>
   </g>
   <g id="patch_5">
    <path d="M 57.6 307.584 
L 414.72 307.584 
" style="fill:none;stroke:#000000;stroke-linecap:square;stroke-linejoin:miter;stroke-width:0.8;"/>
   </g>
   <g id="patch_6">
    <path d="M 57.6 41.472 
L 414.72 41.472 
" style="fill:none;stroke:#000000;stroke-linecap:square;stroke-linejoin:miter;stroke-width:0.8;"/>
   </g>
   <g id="text_14">
    <!-- gbr heading -->
    <g transform="translate(199.909687 35.472)scale(0.12 -0.12)">
     <defs>
      <path d="M 45.40625 27.984375 
Q 45.40625 37.75 41.375 43.109375 
Q 37.359375 48.484375 30.078125 48.484375 
Q 22.859375 48.484375 18.828125 43.109375 
Q 14.796875 37.75 14.796875 27.984375 
Q 14.796875 18.265625 18.828125 12.890625 
Q 22.859375 7.515625 30.078125 7.515625 
Q 37.359375 7.515625 41.375 12.890625 
Q 45.40625 18.265625 45.40625 27.984375 
z
M 54.390625 6.78125 
Q 54.390625 -7.171875 48.1875 -13.984375 
Q 42 -20.796875 29.203125 -20.796875 
Q 24.46875 -20.796875 20.265625 -20.09375 
Q 16.0625 -19.390625 12.109375 -17.921875 
L 12.109375 -9.1875 
Q 16.0625 -11.328125 19.921875 -12.34375 
Q 23.78125 -13.375 27.78125 -13.375 
Q 36.625 -13.375 41.015625 -8.765625 
Q 45.40625 -4.15625 45.40625 5.171875 
L 45.40625 9.625 
Q 42.625 4.78125 38.28125 2.390625 
Q 33.9375 0 27.875 0 
Q 17.828125 0 11.671875 7.65625 
Q 5.515625 15.328125 5.515625 27.984375 
Q 5.515625 40.671875 11.671875 48.328125 
Q 17.828125 56 27.875 56 
Q 33.9375 56 38.28125 53.609375 
Q 42.625 51.21875 45.40625 46.390625 
L 45.40625 54.6875 
L 54.390625 54.6875 
z
" id="DejaVuSans-103"/>
      <path d="M 48.6875 27.296875 
Q 48.6875 37.203125 44.609375 42.84375 
Q 40.53125 48.484375 33.40625 48.484375 
Q 26.265625 48.484375 22.1875 42.84375 
Q 18.109375 37.203125 18.109375 27.296875 
Q 18.109375 17.390625 22.1875 11.75 
Q 26.265625 6.109375 33.40625 6.109375 
Q 40.53125 6.109375 44.609375 11.75 
Q 48.6875 17.390625 48.6875 27.296875 
z
M 18.109375 46.390625 
Q 20.953125 51.265625 25.265625 53.625 
Q 29.59375 56 35.59375 56 
Q 45.5625 56 51.78125 48.09375 
Q 58.015625 40.1875 58.015625 27.296875 
Q 58.015625 14.40625 51.78125 6.484375 
Q 45.5625 -1.421875 35.59375 -1.421875 
Q 29.59375 -1.421875 25.265625 0.953125 
Q 20.953125 3.328125 18.109375 8.203125 
L 18.109375 0 
L 9.078125 0 
L 9.078125 75.984375 
L 18.109375 75.984375 
z
" id="DejaVuSans-98"/>
      <path d="M 41.109375 46.296875 
Q 39.59375 47.171875 37.8125 47.578125 
Q 36.03125 48 33.890625 48 
Q 26.265625 48 22.1875 43.046875 
Q 18.109375 38.09375 18.109375 28.8125 
L 18.109375 0 
L 9.078125 0 
L 9.078125 54.6875 
L 18.109375 54.6875 
L 18.109375 46.1875 
Q 20.953125 51.171875 25.484375 53.578125 
Q 30.03125 56 36.53125 56 
Q 37.453125 56 38.578125 55.875 
Q 39.703125 55.765625 41.0625 55.515625 
z
" id="DejaVuSans-114"/>
      <path id="DejaVuSans-32"/>
      <path d="M 54.890625 33.015625 
L 54.890625 0 
L 45.90625 0 
L 45.90625 32.71875 
Q 45.90625 40.484375 42.875 44.328125 
Q 39.84375 48.1875 33.796875 48.1875 
Q 26.515625 48.1875 22.3125 43.546875 
Q 18.109375 38.921875 18.109375 30.90625 
L 18.109375 0 
L 9.078125 0 
L 9.078125 75.984375 
L 18.109375 75.984375 
L 18.109375 46.1875 
Q 21.34375 51.125 25.703125 53.5625 
Q 30.078125 56 35.796875 56 
Q 45.21875 56 50.046875 50.171875 
Q 54.890625 44.34375 54.890625 33.015625 
z
" id="DejaVuSans-104"/>
      <path d="M 56.203125 29.59375 
L 56.203125 25.203125 
L 14.890625 25.203125 
Q 15.484375 15.921875 20.484375 11.0625 
Q 25.484375 6.203125 34.421875 6.203125 
Q 39.59375 6.203125 44.453125 7.46875 
Q 49.3125 8.734375 54.109375 11.28125 
L 54.109375 2.78125 
Q 49.265625 0.734375 44.1875 -0.34375 
Q 39.109375 -1.421875 33.890625 -1.421875 
Q 20.796875 -1.421875 13.15625 6.1875 
Q 5.515625 13.8125 5.515625 26.8125 
Q 5.515625 40.234375 12.765625 48.109375 
Q 20.015625 56 32.328125 56 
Q 43.359375 56 49.78125 48.890625 
Q 56.203125 41.796875 56.203125 29.59375 
z
M 47.21875 32.234375 
Q 47.125 39.59375 43.09375 43.984375 
Q 39.0625 48.390625 32.421875 48.390625 
Q 24.90625 48.390625 20.390625 44.140625 
Q 15.875 39.890625 15.1875 32.171875 
z
" id="DejaVuSans-101"/>
      <path d="M 34.28125 27.484375 
Q 23.390625 27.484375 19.1875 25 
Q 14.984375 22.515625 14.984375 16.5 
Q 14.984375 11.71875 18.140625 8.90625 
Q 21.296875 6.109375 26.703125 6.109375 
Q 34.1875 6.109375 38.703125 11.40625 
Q 43.21875 16.703125 43.21875 25.484375 
L 43.21875 27.484375 
z
M 52.203125 31.203125 
L 52.203125 0 
L 43.21875 0 
L 43.21875 8.296875 
Q 40.140625 3.328125 35.546875 0.953125 
Q 30.953125 -1.421875 24.3125 -1.421875 
Q 15.921875 -1.421875 10.953125 3.296875 
Q 6 8.015625 6 15.921875 
Q 6 25.140625 12.171875 29.828125 
Q 18.359375 34.515625 30.609375 34.515625 
L 43.21875 34.515625 
L 43.21875 35.40625 
Q 43.21875 41.609375 39.140625 45 
Q 35.0625 48.390625 27.6875 48.390625 
Q 23 48.390625 18.546875 47.265625 
Q 14.109375 46.140625 10.015625 43.890625 
L 10.015625 52.203125 
Q 14.9375 54.109375 19.578125 55.046875 
Q 24.21875 56 28.609375 56 
Q 40.484375 56 46.34375 49.84375 
Q 52.203125 43.703125 52.203125 31.203125 
z
" id="DejaVuSans-97"/>
      <path d="M 45.40625 46.390625 
L 45.40625 75.984375 
L 54.390625 75.984375 
L 54.390625 0 
L 45.40625 0 
L 45.40625 8.203125 
Q 42.578125 3.328125 38.25 0.953125 
Q 33.9375 -1.421875 27.875 -1.421875 
Q 17.96875 -1.421875 11.734375 6.484375 
Q 5.515625 14.40625 5.515625 27.296875 
Q 5.515625 40.1875 11.734375 48.09375 
Q 17.96875 56 27.875 56 
Q 33.9375 56 38.25 53.625 
Q 42.578125 51.265625 45.40625 46.390625 
z
M 14.796875 27.296875 
Q 14.796875 17.390625 18.875 11.75 
Q 22.953125 6.109375 30.078125 6.109375 
Q 37.203125 6.109375 41.296875 11.75 
Q 45.40625 17.390625 45.40625 27.296875 
Q 45.40625 37.203125 41.296875 42.84375 
Q 37.203125 48.484375 30.078125 48.484375 
Q 22.953125 48.484375 18.875 42.84375 
Q 14.796875 37.203125 14.796875 27.296875 
z
" id="DejaVuSans-100"/>
      <path d="M 9.421875 54.6875 
L 18.40625 54.6875 
L 18.40625 0 
L 9.421875 0 
z
M 9.421875 75.984375 
L 18.40625 75.984375 
L 18.40625 64.59375 
L 9.421875 64.59375 
z
" id="DejaVuSans-105"/>
      <path d="M 54.890625 33.015625 
L 54.890625 0 
L 45.90625 0 
L 45.90625 32.71875 
Q 45.90625 40.484375 42.875 44.328125 
Q 39.84375 48.1875 33.796875 48.1875 
Q 26.515625 48.1875 22.3125 43.546875 
Q 18.109375 38.921875 18.109375 30.90625 
L 18.109375 0 
L 9.078125 0 
L 9.078125 54.6875 
L 18.109375 54.6875 
L 18.109375 46.1875 
Q 21.34375 51.125 25.703125 53.5625 
Q 30.078125 56 35.796875 56 
Q 45.21875 56 50.046875 50.171875 
Q 54.890625 44.34375 54.890625 33.015625 
z
" id="DejaVuSans-110"/>
     </defs>
     <use xlink:href="#DejaVuSans-103"/>
     <use x="63.476562" xlink:href="#DejaVuSans-98"/>
     <use x="126.953125" xlink:href="#DejaVuSans-114"/>
     <use x="168.066406" xlink:href="#DejaVuSans-32"/>
     <use x="199.853516" xlink:href="#DejaVuSans-104"/>
     <use x="263.232422" xlink:href="#DejaVuSans-101"/>
     <use x="324.755859" xlink:href="#DejaVuSans-97"/>
     <use x="386.035156" xlink:href="#DejaVuSans-100"/>
     <use x="449.511719" xlink:href="#DejaVuSans-105"/>
     <use x="477.294922" xlink:href="#DejaVuSans-110"/>
     <use x="540.673828" xlink:href="#DejaVuSans-103"/>
    </g>
   </g>
   <g id="legend_1">
    <g id="patch_7">
     <path d="M 64.6 93.506375 
L 156.557813 93.506375 
Q 158.557813 93.506375 158.557813 91.506375 
L 158.557813 48.472 
Q 158.557813 46.472 156.557813 46.472 
L 64.6 46.472 
Q 62.6 46.472 62.6 48.472 
L 62.6 91.506375 
Q 62.6 93.506375 64.6 93.506375 
z
" style="fill:#ffffff;opacity:0.8;stroke:#cccccc;stroke-linejoin:miter;"/>
    </g>
    <g id="line2d_17">
     <path d="M 66.6 54.570438 
L 86.6 54.570438 
" style="fill:none;stroke:#1f77b4;stroke-linecap:square;stroke-width:1.5;"/>
    </g>
    <g id="line2d_18"/>
    <g id="text_15">
     <!-- Waypoints -->
     <g transform="translate(94.6 58.070438)scale(0.1 -0.1)">
      <defs>
       <path d="M 3.328125 72.90625 
L 13.28125 72.90625 
L 28.609375 11.28125 
L 43.890625 72.90625 
L 54.984375 72.90625 
L 70.3125 11.28125 
L 85.59375 72.90625 
L 95.609375 72.90625 
L 77.296875 0 
L 64.890625 0 
L 49.515625 63.28125 
L 33.984375 0 
L 21.578125 0 
z
" id="DejaVuSans-87"/>
       <path d="M 32.171875 -5.078125 
Q 28.375 -14.84375 24.75 -17.8125 
Q 21.140625 -20.796875 15.09375 -20.796875 
L 7.90625 -20.796875 
L 7.90625 -13.28125 
L 13.1875 -13.28125 
Q 16.890625 -13.28125 18.9375 -11.515625 
Q 21 -9.765625 23.484375 -3.21875 
L 25.09375 0.875 
L 2.984375 54.6875 
L 12.5 54.6875 
L 29.59375 11.921875 
L 46.6875 54.6875 
L 56.203125 54.6875 
z
" id="DejaVuSans-121"/>
       <path d="M 18.109375 8.203125 
L 18.109375 -20.796875 
L 9.078125 -20.796875 
L 9.078125 54.6875 
L 18.109375 54.6875 
L 18.109375 46.390625 
Q 20.953125 51.265625 25.265625 53.625 
Q 29.59375 56 35.59375 56 
Q 45.5625 56 51.78125 48.09375 
Q 58.015625 40.1875 58.015625 27.296875 
Q 58.015625 14.40625 51.78125 6.484375 
Q 45.5625 -1.421875 35.59375 -1.421875 
Q 29.59375 -1.421875 25.265625 0.953125 
Q 20.953125 3.328125 18.109375 8.203125 
z
M 48.6875 27.296875 
Q 48.6875 37.203125 44.609375 42.84375 
Q 40.53125 48.484375 33.40625 48.484375 
Q 26.265625 48.484375 22.1875 42.84375 
Q 18.109375 37.203125 18.109375 27.296875 
Q 18.109375 17.390625 22.1875 11.75 
Q 26.265625 6.109375 33.40625 6.109375 
Q 40.53125 6.109375 44.609375 11.75 
Q 48.6875 17.390625 48.6875 27.296875 
z
" id="DejaVuSans-112"/>
       <path d="M 30.609375 48.390625 
Q 23.390625 48.390625 19.1875 42.75 
Q 14.984375 37.109375 14.984375 27.296875 
Q 14.984375 17.484375 19.15625 11.84375 
Q 23.34375 6.203125 30.609375 6.203125 
Q 37.796875 6.203125 41.984375 11.859375 
Q 46.1875 17.53125 46.1875 27.296875 
Q 46.1875 37.015625 41.984375 42.703125 
Q 37.796875 48.390625 30.609375 48.390625 
z
M 30.609375 56 
Q 42.328125 56 49.015625 48.375 
Q 55.71875 40.765625 55.71875 27.296875 
Q 55.71875 13.875 49.015625 6.21875 
Q 42.328125 -1.421875 30.609375 -1.421875 
Q 18.84375 -1.421875 12.171875 6.21875 
Q 5.515625 13.875 5.515625 27.296875 
Q 5.515625 40.765625 12.171875 48.375 
Q 18.84375 56 30.609375 56 
z
" id="DejaVuSans-111"/>
       <path d="M 18.3125 70.21875 
L 18.3125 54.6875 
L 36.8125 54.6875 
L 36.8125 47.703125 
L 18.3125 47.703125 
L 18.3125 18.015625 
Q 18.3125 11.328125 20.140625 9.421875 
Q 21.96875 7.515625 27.59375 7.515625 
L 36.8125 7.515625 
L 36.8125 0 
L 27.59375 0 
Q 17.1875 0 13.234375 3.875 
Q 9.28125 7.765625 9.28125 18.015625 
L 9.28125 47.703125 
L 2.6875 47.703125 
L 2.6875 54.6875 
L 9.28125 54.6875 
L 9.28125 70.21875 
z
" id="DejaVuSans-116"/>
       <path d="M 44.28125 53.078125 
L 44.28125 44.578125 
Q 40.484375 46.53125 36.375 47.5 
Q 32.28125 48.484375 27.875 48.484375 
Q 21.1875 48.484375 17.84375 46.4375 
Q 14.5 44.390625 14.5 40.28125 
Q 14.5 37.15625 16.890625 35.375 
Q 19.28125 33.59375 26.515625 31.984375 
L 29.59375 31.296875 
Q 39.15625 29.25 43.1875 25.515625 
Q 47.21875 21.78125 47.21875 15.09375 
Q 47.21875 7.46875 41.1875 3.015625 
Q 35.15625 -1.421875 24.609375 -1.421875 
Q 20.21875 -1.421875 15.453125 -0.5625 
Q 10.6875 0.296875 5.421875 2 
L 5.421875 11.28125 
Q 10.40625 8.6875 15.234375 7.390625 
Q 20.0625 6.109375 24.8125 6.109375 
Q 31.15625 6.109375 34.5625 8.28125 
Q 37.984375 10.453125 37.984375 14.40625 
Q 37.984375 18.0625 35.515625 20.015625 
Q 33.0625 21.96875 24.703125 23.78125 
L 21.578125 24.515625 
Q 13.234375 26.265625 9.515625 29.90625 
Q 5.8125 33.546875 5.8125 39.890625 
Q 5.8125 47.609375 11.28125 51.796875 
Q 16.75 56 26.8125 56 
Q 31.78125 56 36.171875 55.265625 
Q 40.578125 54.546875 44.28125 53.078125 
z
" id="DejaVuSans-115"/>
      </defs>
      <use xlink:href="#DejaVuSans-87"/>
      <use x="92.501953" xlink:href="#DejaVuSans-97"/>
      <use x="153.78125" xlink:href="#DejaVuSans-121"/>
      <use x="212.960938" xlink:href="#DejaVuSans-112"/>
      <use x="276.4375" xlink:href="#DejaVuSans-111"/>
      <use x="337.619141" xlink:href="#DejaVuSans-105"/>
      <use x="365.402344" xlink:href="#DejaVuSans-110"/>
      <use x="428.78125" xlink:href="#DejaVuSans-116"/>
      <use x="467.990234" xlink:href="#DejaVuSans-115"/>
     </g>
    </g>
    <g id="line2d_19">
     <path d="M 66.6 69.248563 
L 86.6 69.248563 
" style="fill:none;stroke:#ff7f0e;stroke-linecap:square;stroke-width:1.5;"/>
    </g>
    <g id="line2d_20"/>
    <g id="text_16">
     <!-- Stanley -->
     <g transform="translate(94.6 72.748563)scale(0.1 -0.1)">
      <defs>
       <path d="M 53.515625 70.515625 
L 53.515625 60.890625 
Q 47.90625 63.578125 42.921875 64.890625 
Q 37.9375 66.21875 33.296875 66.21875 
Q 25.25 66.21875 20.875 63.09375 
Q 16.5 59.96875 16.5 54.203125 
Q 16.5 49.359375 19.40625 46.890625 
Q 22.3125 44.4375 30.421875 42.921875 
L 36.375 41.703125 
Q 47.40625 39.59375 52.65625 34.296875 
Q 57.90625 29 57.90625 20.125 
Q 57.90625 9.515625 50.796875 4.046875 
Q 43.703125 -1.421875 29.984375 -1.421875 
Q 24.8125 -1.421875 18.96875 -0.25 
Q 13.140625 0.921875 6.890625 3.21875 
L 6.890625 13.375 
Q 12.890625 10.015625 18.65625 8.296875 
Q 24.421875 6.59375 29.984375 6.59375 
Q 38.421875 6.59375 43.015625 9.90625 
Q 47.609375 13.234375 47.609375 19.390625 
Q 47.609375 24.75 44.3125 27.78125 
Q 41.015625 30.8125 33.5 32.328125 
L 27.484375 33.5 
Q 16.453125 35.6875 11.515625 40.375 
Q 6.59375 45.0625 6.59375 53.421875 
Q 6.59375 63.09375 13.40625 68.65625 
Q 20.21875 74.21875 32.171875 74.21875 
Q 37.3125 74.21875 42.625 73.28125 
Q 47.953125 72.359375 53.515625 70.515625 
z
" id="DejaVuSans-83"/>
       <path d="M 9.421875 75.984375 
L 18.40625 75.984375 
L 18.40625 0 
L 9.421875 0 
z
" id="DejaVuSans-108"/>
      </defs>
      <use xlink:href="#DejaVuSans-83"/>
      <use x="63.476562" xlink:href="#DejaVuSans-116"/>
      <use x="102.685547" xlink:href="#DejaVuSans-97"/>
      <use x="163.964844" xlink:href="#DejaVuSans-110"/>
      <use x="227.34375" xlink:href="#DejaVuSans-108"/>
      <use x="255.126953" xlink:href="#DejaVuSans-101"/>
      <use x="316.650391" xlink:href="#DejaVuSans-121"/>
     </g>
    </g>
    <g id="line2d_21">
     <path d="M 66.6 83.926688 
L 86.6 83.926688 
" style="fill:none;stroke:#2ca02c;stroke-linecap:square;stroke-width:1.5;"/>
    </g>
    <g id="line2d_22"/>
    <g id="text_17">
     <!-- Pure Pursuit -->
     <g transform="translate(94.6 87.426688)scale(0.1 -0.1)">
      <defs>
       <path d="M 19.671875 64.796875 
L 19.671875 37.40625 
L 32.078125 37.40625 
Q 38.96875 37.40625 42.71875 40.96875 
Q 46.484375 44.53125 46.484375 51.125 
Q 46.484375 57.671875 42.71875 61.234375 
Q 38.96875 64.796875 32.078125 64.796875 
z
M 9.8125 72.90625 
L 32.078125 72.90625 
Q 44.34375 72.90625 50.609375 67.359375 
Q 56.890625 61.8125 56.890625 51.125 
Q 56.890625 40.328125 50.609375 34.8125 
Q 44.34375 29.296875 32.078125 29.296875 
L 19.671875 29.296875 
L 19.671875 0 
L 9.8125 0 
z
" id="DejaVuSans-80"/>
       <path d="M 8.5 21.578125 
L 8.5 54.6875 
L 17.484375 54.6875 
L 17.484375 21.921875 
Q 17.484375 14.15625 20.5 10.265625 
Q 23.53125 6.390625 29.59375 6.390625 
Q 36.859375 6.390625 41.078125 11.03125 
Q 45.3125 15.671875 45.3125 23.6875 
L 45.3125 54.6875 
L 54.296875 54.6875 
L 54.296875 0 
L 45.3125 0 
L 45.3125 8.40625 
Q 42.046875 3.421875 37.71875 1 
Q 33.40625 -1.421875 27.6875 -1.421875 
Q 18.265625 -1.421875 13.375 4.4375 
Q 8.5 10.296875 8.5 21.578125 
z
M 31.109375 56 
z
" id="DejaVuSans-117"/>
      </defs>
      <use xlink:href="#DejaVuSans-80"/>
      <use x="58.552734" xlink:href="#DejaVuSans-117"/>
      <use x="121.931641" xlink:href="#DejaVuSans-114"/>
      <use x="160.794922" xlink:href="#DejaVuSans-101"/>
      <use x="222.318359" xlink:href="#DejaVuSans-32"/>
      <use x="254.105469" xlink:href="#DejaVuSans-80"/>
      <use x="312.658203" xlink:href="#DejaVuSans-117"/>
      <use x="376.037109" xlink:href="#DejaVuSans-114"/>
      <use x="417.150391" xlink:href="#DejaVuSans-115"/>
      <use x="469.25" xlink:href="#DejaVuSans-117"/>
      <use x="532.628906" xlink:href="#DejaVuSans-105"/>
      <use x="560.412109" xlink:href="#DejaVuSans-116"/>
     </g>
    </g>
   </g>
  </g>
 </g>
 <defs>
  <clipPath id="p0138a117cc">
   <rect height="266.112" width="357.12" x="57.6" y="41.472"/>
  </clipPath>
 </defs>
</svg>
