<?xml version="1.0" encoding="utf-8" standalone="no"?>
<!DOCTYPE svg PUBLIC "-//W3C//DTD SVG 1.1//EN"
  "http://www.w3.org/Graphics/SVG/1.1/DTD/svg11.dtd">
<!-- Created with matplotlib (https://matplotlib.org/) -->
<svg height="345.6pt" version="1.1" viewBox="0 0 460.8 345.6" width="460.8pt" xmlns="http://www.w3.org/2000/svg" xmlns:xlink="http://www.w3.org/1999/xlink">
 <metadata>
  <rdf:RDF xmlns:cc="http://creativecommons.org/ns#" xmlns:dc="http://purl.org/dc/elements/1.1/" xmlns:rdf="http://www.w3.org/1999/02/22-rdf-syntax-ns#">
   <cc:Work>
    <dc:type rdf:resource="http://purl.org/dc/dcmitype/StillImage"/>
    <dc:date>2024-10-03T15:12:54.221556</dc:date>
    <dc:format>image/svg+xml</dc:format>
    <dc:creator>
     <cc:Agent>
      <dc:title>Matplotlib v3.3.1, https://matplotlib.org/</dc:title>
     </cc:Agent>
    </dc:creator>
   </cc:Work>
  </rdf:RDF>
 </metadata>
 <defs>
  <style type="text/css">*{stroke-linecap:butt;stroke-linejoin:round;}</style>
 </defs>
 <g id="figure_1">
  <g id="patch_1">
   <path d="M 0 345.6 
L 460.8 345.6 
L 460.8 0 
L 0 0 
z
" style="fill:#ffffff;"/>
  </g>
  <g id="axes_1">
   <g id="patch_2">
    <path d="M 57.6 307.584 
L 414.72 307.584 
L 414.72 41.472 
L 57.6 41.472 
z
" style="fill:#ffffff;"/>
   </g>
   <g id="matplotlib.axis_1">
    <g id="xtick_1">
     <g id="line2d_1">
      <defs>
       <path d="M 0 0 
L 0 3.5 
" id="mc9a7e40b58" style="stroke:#000000;stroke-width:0.8;"/>
      </defs>
      <g>
       <use style="stroke:#000000;stroke-width:0.8;" x="73.832727" xlink:href="#mc9a7e40b58" y="307.584"/>
      </g>
     </g>
     <g id="text_1">
      <!-- 0.0 -->
      <g transform="translate(65.881165 322.182437)scale(0.1 -0.1)">
       <defs>
        <path d="M 31.78125 66.40625 
Q 24.171875 66.40625 20.328125 58.90625 
Q 16.5 51.421875 16.5 36.375 
Q 16.5 21.390625 20.328125 13.890625 
Q 24.171875 6.390625 31.78125 6.390625 
Q 39.453125 6.390625 43.28125 13.890625 
Q 47.125 21.390625 47.125 36.375 
Q 47.125 51.421875 43.28125 58.90625 
Q 39.453125 66.40625 31.78125 66.40625 
z
M 31.78125 74.21875 
Q 44.046875 74.21875 50.515625 64.515625 
Q 56.984375 54.828125 56.984375 36.375 
Q 56.984375 17.96875 50.515625 8.265625 
Q 44.046875 -1.421875 31.78125 -1.421875 
Q 19.53125 -1.421875 13.0625 8.265625 
Q 6.59375 17.96875 6.59375 36.375 
Q 6.59375 54.828125 13.0625 64.515625 
Q 19.53125 74.21875 31.78125 74.21875 
z
" id="DejaVuSans-48"/>
        <path d="M 10.6875 12.40625 
L 21 12.40625 
L 21 0 
L 10.6875 0 
z
" id="DejaVuSans-46"/>
       </defs>
       <use xlink:href="#DejaVuSans-48"/>
       <use x="63.623047" xlink:href="#DejaVuSans-46"/>
       <use x="95.410156" xlink:href="#DejaVuSans-48"/>
      </g>
     </g>
    </g>
    <g id="xtick_2">
     <g id="line2d_2">
      <g>
       <use style="stroke:#000000;stroke-width:0.8;" x="138.763636" xlink:href="#mc9a7e40b58" y="307.584"/>
      </g>
     </g>
     <g id="text_2">
      <!-- 0.2 -->
      <g transform="translate(130.812074 322.182437)scale(0.1 -0.1)">
       <defs>
        <path d="M 19.1875 8.296875 
L 53.609375 8.296875 
L 53.609375 0 
L 7.328125 0 
L 7.328125 8.296875 
Q 12.9375 14.109375 22.625 23.890625 
Q 32.328125 33.6875 34.8125 36.53125 
Q 39.546875 41.84375 41.421875 45.53125 
Q 43.3125 49.21875 43.3125 52.78125 
Q 43.3125 58.59375 39.234375 62.25 
Q 35.15625 65.921875 28.609375 65.921875 
Q 23.96875 65.921875 18.8125 64.3125 
Q 13.671875 62.703125 7.8125 59.421875 
L 7.8125 69.390625 
Q 13.765625 71.78125 18.9375 73 
Q 24.125 74.21875 28.421875 74.21875 
Q 39.75 74.21875 46.484375 68.546875 
Q 53.21875 62.890625 53.21875 53.421875 
Q 53.21875 48.921875 51.53125 44.890625 
Q 49.859375 40.875 45.40625 35.40625 
Q 44.1875 33.984375 37.640625 27.21875 
Q 31.109375 20.453125 19.1875 8.296875 
z
" id="DejaVuSans-50"/>
       </defs>
       <use xlink:href="#DejaVuSans-48"/>
       <use x="63.623047" xlink:href="#DejaVuSans-46"/>
       <use x="95.410156" xlink:href="#DejaVuSans-50"/>
      </g>
     </g>
    </g>
    <g id="xtick_3">
     <g id="line2d_3">
      <g>
       <use style="stroke:#000000;stroke-width:0.8;" x="203.694545" xlink:href="#mc9a7e40b58" y="307.584"/>
      </g>
     </g>
     <g id="text_3">
      <!-- 0.4 -->
      <g transform="translate(195.742983 322.182437)scale(0.1 -0.1)">
       <defs>
        <path d="M 37.796875 64.3125 
L 12.890625 25.390625 
L 37.796875 25.390625 
z
M 35.203125 72.90625 
L 47.609375 72.90625 
L 47.609375 25.390625 
L 58.015625 25.390625 
L 58.015625 17.1875 
L 47.609375 17.1875 
L 47.609375 0 
L 37.796875 0 
L 37.796875 17.1875 
L 4.890625 17.1875 
L 4.890625 26.703125 
z
" id="DejaVuSans-52"/>
       </defs>
       <use xlink:href="#DejaVuSans-48"/>
       <use x="63.623047" xlink:href="#DejaVuSans-46"/>
       <use x="95.410156" xlink:href="#DejaVuSans-52"/>
      </g>
     </g>
    </g>
    <g id="xtick_4">
     <g id="line2d_4">
      <g>
       <use style="stroke:#000000;stroke-width:0.8;" x="268.625455" xlink:href="#mc9a7e40b58" y="307.584"/>
      </g>
     </g>
     <g id="text_4">
      <!-- 0.6 -->
      <g transform="translate(260.673892 322.182437)scale(0.1 -0.1)">
       <defs>
        <path d="M 33.015625 40.375 
Q 26.375 40.375 22.484375 35.828125 
Q 18.609375 31.296875 18.609375 23.390625 
Q 18.609375 15.53125 22.484375 10.953125 
Q 26.375 6.390625 33.015625 6.390625 
Q 39.65625 6.390625 43.53125 10.953125 
Q 47.40625 15.53125 47.40625 23.390625 
Q 47.40625 31.296875 43.53125 35.828125 
Q 39.65625 40.375 33.015625 40.375 
z
M 52.59375 71.296875 
L 52.59375 62.3125 
Q 48.875 64.0625 45.09375 64.984375 
Q 41.3125 65.921875 37.59375 65.921875 
Q 27.828125 65.921875 22.671875 59.328125 
Q 17.53125 52.734375 16.796875 39.40625 
Q 19.671875 43.65625 24.015625 45.921875 
Q 28.375 48.1875 33.59375 48.1875 
Q 44.578125 48.1875 50.953125 41.515625 
Q 57.328125 34.859375 57.328125 23.390625 
Q 57.328125 12.15625 50.6875 5.359375 
Q 44.046875 -1.421875 33.015625 -1.421875 
Q 20.359375 -1.421875 13.671875 8.265625 
Q 6.984375 17.96875 6.984375 36.375 
Q 6.984375 53.65625 15.1875 63.9375 
Q 23.390625 74.21875 37.203125 74.21875 
Q 40.921875 74.21875 44.703125 73.484375 
Q 48.484375 72.75 52.59375 71.296875 
z
" id="DejaVuSans-54"/>
       </defs>
       <use xlink:href="#DejaVuSans-48"/>
       <use x="63.623047" xlink:href="#DejaVuSans-46"/>
       <use x="95.410156" xlink:href="#DejaVuSans-54"/>
      </g>
     </g>
    </g>
    <g id="xtick_5">
     <g id="line2d_5">
      <g>
       <use style="stroke:#000000;stroke-width:0.8;" x="333.556364" xlink:href="#mc9a7e40b58" y="307.584"/>
      </g>
     </g>
     <g id="text_5">
      <!-- 0.8 -->
      <g transform="translate(325.604801 322.182437)scale(0.1 -0.1)">
       <defs>
        <path d="M 31.78125 34.625 
Q 24.75 34.625 20.71875 30.859375 
Q 16.703125 27.09375 16.703125 20.515625 
Q 16.703125 13.921875 20.71875 10.15625 
Q 24.75 6.390625 31.78125 6.390625 
Q 38.8125 6.390625 42.859375 10.171875 
Q 46.921875 13.96875 46.921875 20.515625 
Q 46.921875 27.09375 42.890625 30.859375 
Q 38.875 34.625 31.78125 34.625 
z
M 21.921875 38.8125 
Q 15.578125 40.375 12.03125 44.71875 
Q 8.5 49.078125 8.5 55.328125 
Q 8.5 64.0625 14.71875 69.140625 
Q 20.953125 74.21875 31.78125 74.21875 
Q 42.671875 74.21875 48.875 69.140625 
Q 55.078125 64.0625 55.078125 55.328125 
Q 55.078125 49.078125 51.53125 44.71875 
Q 48 40.375 41.703125 38.8125 
Q 48.828125 37.15625 52.796875 32.3125 
Q 56.78125 27.484375 56.78125 20.515625 
Q 56.78125 9.90625 50.3125 4.234375 
Q 43.84375 -1.421875 31.78125 -1.421875 
Q 19.734375 -1.421875 13.25 4.234375 
Q 6.78125 9.90625 6.78125 20.515625 
Q 6.78125 27.484375 10.78125 32.3125 
Q 14.796875 37.15625 21.921875 38.8125 
z
M 18.3125 54.390625 
Q 18.3125 48.734375 21.84375 45.5625 
Q 25.390625 42.390625 31.78125 42.390625 
Q 38.140625 42.390625 41.71875 45.5625 
Q 45.3125 48.734375 45.3125 54.390625 
Q 45.3125 60.0625 41.71875 63.234375 
Q 38.140625 66.40625 31.78125 66.40625 
Q 25.390625 66.40625 21.84375 63.234375 
Q 18.3125 60.0625 18.3125 54.390625 
z
" id="DejaVuSans-56"/>
       </defs>
       <use xlink:href="#DejaVuSans-48"/>
       <use x="63.623047" xlink:href="#DejaVuSans-46"/>
       <use x="95.410156" xlink:href="#DejaVuSans-56"/>
      </g>
     </g>
    </g>
    <g id="xtick_6">
     <g id="line2d_6">
      <g>
       <use style="stroke:#000000;stroke-width:0.8;" x="398.487273" xlink:href="#mc9a7e40b58" y="307.584"/>
      </g>
     </g>
     <g id="text_6">
      <!-- 1.0 -->
      <g transform="translate(390.53571 322.182437)scale(0.1 -0.1)">
       <defs>
        <path d="M 12.40625 8.296875 
L 28.515625 8.296875 
L 28.515625 63.921875 
L 10.984375 60.40625 
L 10.984375 69.390625 
L 28.421875 72.90625 
L 38.28125 72.90625 
L 38.28125 8.296875 
L 54.390625 8.296875 
L 54.390625 0 
L 12.40625 0 
z
" id="DejaVuSans-49"/>
       </defs>
       <use xlink:href="#DejaVuSans-49"/>
       <use x="63.623047" xlink:href="#DejaVuSans-46"/>
       <use x="95.410156" xlink:href="#DejaVuSans-48"/>
      </g>
     </g>
    </g>
   </g>
   <g id="matplotlib.axis_2">
    <g id="ytick_1">
     <g id="line2d_7">
      <defs>
       <path d="M 0 0 
L -3.5 0 
" id="m95676487fa" style="stroke:#000000;stroke-width:0.8;"/>
      </defs>
      <g>
       <use style="stroke:#000000;stroke-width:0.8;" x="57.6" xlink:href="#m95676487fa" y="290.052953"/>
      </g>
     </g>
     <g id="text_7">
      <!-- −3 -->
      <g transform="translate(35.857813 293.852172)scale(0.1 -0.1)">
       <defs>
        <path d="M 10.59375 35.5 
L 73.1875 35.5 
L 73.1875 27.203125 
L 10.59375 27.203125 
z
" id="DejaVuSans-8722"/>
        <path d="M 40.578125 39.3125 
Q 47.65625 37.796875 51.625 33 
Q 55.609375 28.21875 55.609375 21.1875 
Q 55.609375 10.40625 48.1875 4.484375 
Q 40.765625 -1.421875 27.09375 -1.421875 
Q 22.515625 -1.421875 17.65625 -0.515625 
Q 12.796875 0.390625 7.625 2.203125 
L 7.625 11.71875 
Q 11.71875 9.328125 16.59375 8.109375 
Q 21.484375 6.890625 26.8125 6.890625 
Q 36.078125 6.890625 40.9375 10.546875 
Q 45.796875 14.203125 45.796875 21.1875 
Q 45.796875 27.640625 41.28125 31.265625 
Q 36.765625 34.90625 28.71875 34.90625 
L 20.21875 34.90625 
L 20.21875 43.015625 
L 29.109375 43.015625 
Q 36.375 43.015625 40.234375 45.921875 
Q 44.09375 48.828125 44.09375 54.296875 
Q 44.09375 59.90625 40.109375 62.90625 
Q 36.140625 65.921875 28.71875 65.921875 
Q 24.65625 65.921875 20.015625 65.03125 
Q 15.375 64.15625 9.8125 62.3125 
L 9.8125 71.09375 
Q 15.4375 72.65625 20.34375 73.4375 
Q 25.25 74.21875 29.59375 74.21875 
Q 40.828125 74.21875 47.359375 69.109375 
Q 53.90625 64.015625 53.90625 55.328125 
Q 53.90625 49.265625 50.4375 45.09375 
Q 46.96875 40.921875 40.578125 39.3125 
z
" id="DejaVuSans-51"/>
       </defs>
       <use xlink:href="#DejaVuSans-8722"/>
       <use x="83.789062" xlink:href="#DejaVuSans-51"/>
      </g>
     </g>
    </g>
    <g id="ytick_2">
     <g id="line2d_8">
      <g>
       <use style="stroke:#000000;stroke-width:0.8;" x="57.6" xlink:href="#m95676487fa" y="251.539467"/>
      </g>
     </g>
     <g id="text_8">
      <!-- −2 -->
      <g transform="translate(35.857813 255.338686)scale(0.1 -0.1)">
       <use xlink:href="#DejaVuSans-8722"/>
       <use x="83.789062" xlink:href="#DejaVuSans-50"/>
      </g>
     </g>
    </g>
    <g id="ytick_3">
     <g id="line2d_9">
      <g>
       <use style="stroke:#000000;stroke-width:0.8;" x="57.6" xlink:href="#m95676487fa" y="213.025982"/>
      </g>
     </g>
     <g id="text_9">
      <!-- −1 -->
      <g transform="translate(35.857813 216.8252)scale(0.1 -0.1)">
       <use xlink:href="#DejaVuSans-8722"/>
       <use x="83.789062" xlink:href="#DejaVuSans-49"/>
      </g>
     </g>
    </g>
    <g id="ytick_4">
     <g id="line2d_10">
      <g>
       <use style="stroke:#000000;stroke-width:0.8;" x="57.6" xlink:href="#m95676487fa" y="174.512496"/>
      </g>
     </g>
     <g id="text_10">
      <!-- 0 -->
      <g transform="translate(44.2375 178.311714)scale(0.1 -0.1)">
       <use xlink:href="#DejaVuSans-48"/>
      </g>
     </g>
    </g>
    <g id="ytick_5">
     <g id="line2d_11">
      <g>
       <use style="stroke:#000000;stroke-width:0.8;" x="57.6" xlink:href="#m95676487fa" y="135.99901"/>
      </g>
     </g>
     <g id="text_11">
      <!-- 1 -->
      <g transform="translate(44.2375 139.798228)scale(0.1 -0.1)">
       <use xlink:href="#DejaVuSans-49"/>
      </g>
     </g>
    </g>
    <g id="ytick_6">
     <g id="line2d_12">
      <g>
       <use style="stroke:#000000;stroke-width:0.8;" x="57.6" xlink:href="#m95676487fa" y="97.485524"/>
      </g>
     </g>
     <g id="text_12">
      <!-- 2 -->
      <g transform="translate(44.2375 101.284743)scale(0.1 -0.1)">
       <use xlink:href="#DejaVuSans-50"/>
      </g>
     </g>
    </g>
    <g id="ytick_7">
     <g id="line2d_13">
      <g>
       <use style="stroke:#000000;stroke-width:0.8;" x="57.6" xlink:href="#m95676487fa" y="58.972038"/>
      </g>
     </g>
     <g id="text_13">
      <!-- 3 -->
      <g transform="translate(44.2375 62.771257)scale(0.1 -0.1)">
       <use xlink:href="#DejaVuSans-51"/>
      </g>
     </g>
    </g>
   </g>
   <g id="line2d_14">
    <path clip-path="url(#pd29b20f1e5)" d="M 73.832727 171.866381 
L 74.828673 171.964713 
L 77.152546 172.378535 
L 79.47642 172.998745 
L 81.800293 173.825544 
L 84.124166 174.872199 
L 85.618085 175.749142 
L 87.277994 177.034111 
L 88.937902 178.63466 
L 90.763801 180.762982 
L 92.423708 183.035073 
L 94.581585 186.399509 
L 95.90951 188.425398 
L 96.573473 188.894083 
L 97.237437 188.906092 
L 97.901401 188.478481 
L 98.565363 187.609428 
L 99.229324 186.299181 
L 100.059269 184.038837 
L 100.723222 181.765605 
L 101.553161 178.29122 
L 102.715048 172.256237 
L 103.876927 164.840799 
L 106.200624 148.352703 
L 107.030549 144.676782 
L 107.528518 143.189466 
L 108.026487 142.313731 
L 108.358469 142.029001 
L 108.690451 141.996859 
L 109.022433 142.208404 
L 109.354413 142.663985 
L 109.852383 143.749849 
L 110.68232 146.307063 
L 111.512256 149.571177 
L 112.674154 154.236246 
L 113.504097 156.883063 
L 114.334042 158.842074 
L 114.998003 159.937841 
L 115.495975 160.510985 
L 116.159938 160.883398 
L 116.657911 160.881893 
L 117.155884 160.666533 
L 117.819846 159.992043 
L 118.483807 158.925365 
L 119.313749 156.959761 
L 120.309674 153.880433 
L 121.471593 150.572787 
L 122.301539 148.868417 
L 122.9655 147.888225 
L 123.629463 147.260679 
L 124.127436 147.014176 
L 124.7914 147.005672 
L 125.455363 147.351202 
L 126.119325 148.037624 
L 127.779229 149.99957 
L 129.439135 151.598915 
L 130.933051 152.711986 
L 132.260978 153.448363 
L 133.588905 153.942896 
L 134.916833 154.199469 
L 136.07877 154.225398 
L 137.406697 154.030847 
L 138.734625 153.591844 
L 140.062551 152.910446 
L 141.556467 151.858892 
L 143.050383 150.508576 
L 144.710286 148.645572 
L 146.038207 146.844945 
L 147.532111 144.35871 
L 148.694035 141.998346 
L 150.021939 138.773998 
L 151.515814 134.4942 
L 152.843692 130.026074 
L 154.337546 124.270311 
L 155.831355 117.583066 
L 157.823115 108.650236 
L 159.150986 103.865867 
L 160.312891 100.33953 
L 161.4748 97.468669 
L 162.470734 95.515044 
L 163.466672 94.027832 
L 164.296624 93.140036 
L 165.292568 92.44988 
L 166.122523 92.156664 
L 167.45045 91.968902 
L 171.268242 91.661497 
L 173.094142 91.17361 
L 174.422069 90.600714 
L 175.749995 89.809031 
L 177.24391 88.67046 
L 178.903814 87.088065 
L 180.563715 85.180306 
L 182.389601 82.694836 
L 184.381473 79.602279 
L 186.373338 76.00224 
L 194.174794 60.734096 
L 197.49455 53.658543 
L 197.660534 295.284357 
L 198.822448 292.538648 
L 199.652353 289.739087 
L 200.482252 286.071849 
L 201.478064 280.417726 
L 202.473799 273.325253 
L 203.469416 264.504291 
L 204.464854 253.559779 
L 205.791759 235.719335 
L 206.786497 218.936634 
L 207.946566 198.163931 
L 208.776009 187.188364 
L 209.605545 179.145582 
L 210.269365 174.32528 
L 210.933261 170.966159 
L 211.431219 169.373804 
L 211.929184 168.592848 
L 212.261166 168.510935 
L 212.593146 168.782031 
L 212.92512 169.402609 
L 213.423078 170.984355 
L 213.92098 173.368428 
L 214.584798 177.771028 
L 215.414505 185.259151 
L 216.243811 195.170608 
L 217.239186 206.560061 
L 218.400745 217.162147 
L 219.562365 225.540996 
L 220.558163 231.291266 
L 221.554012 235.969354 
L 222.5499 239.59013 
L 223.379833 241.816633 
L 224.043784 243.083242 
L 224.707743 243.891969 
L 225.205715 244.200045 
L 226.035669 244.428325 
L 227.197606 244.482251 
L 248.942422 244.500036 
L 249.772376 244.693698 
L 250.60233 245.145035 
L 251.432281 245.869255 
L 252.42822 247.091831 
L 253.424154 248.66926 
L 254.586073 250.954688 
L 255.747975 253.718756 
L 257.241844 257.954247 
L 258.901673 263.404291 
L 260.39548 269.127796 
L 261.889281 275.71277 
L 263.383004 283.297265 
L 264.378771 289.444628 
L 265.042565 294.371516 
L 265.208556 53.724182 
L 266.204138 62.85293 
L 267.03351 72.295348 
L 268.02849 86.68079 
L 268.857368 102.503428 
L 269.685686 118.337619 
L 270.515117 129.313342 
L 271.178818 135.204645 
L 271.676693 138.004536 
L 272.008664 139.054856 
L 272.340645 139.442204 
L 272.506636 139.362845 
L 272.672624 139.15429 
L 273.00459 138.185159 
L 273.502522 135.433421 
L 274.000289 131.227411 
L 274.663795 123.171055 
L 276.985595 89.876218 
L 277.815299 82.12099 
L 278.645035 76.211877 
L 279.474916 72.023125 
L 280.138845 69.859562 
L 280.636805 68.814727 
L 281.300764 67.903417 
L 281.964726 67.308116 
L 282.628689 67.013468 
L 283.292653 67.019251 
L 283.956616 67.322261 
L 284.620577 67.926684 
L 285.284536 68.831246 
L 286.114481 70.386504 
L 286.944412 72.402922 
L 287.940319 75.444321 
L 289.102198 79.839598 
L 291.591894 89.722989 
L 292.587807 92.612109 
L 293.583735 94.717592 
L 294.413685 95.874274 
L 295.077646 96.409878 
L 295.575619 96.588675 
L 296.073592 96.562447 
L 296.571564 96.348806 
L 297.235526 95.753347 
L 297.899484 94.810592 
L 298.729429 93.134859 
L 299.559357 90.928227 
L 300.555258 87.558911 
L 301.551137 83.432873 
L 303.376912 75.311246 
L 304.870747 69.860954 
L 306.032651 66.414003 
L 307.194559 63.621066 
L 308.190493 61.74998 
L 309.186432 60.370623 
L 310.016384 59.632817 
L 310.846338 59.205543 
L 311.676293 59.014757 
L 313.170211 59.070771 
L 316.988003 59.445523 
L 320.473813 60.020442 
L 322.631696 60.33167 
L 323.627641 60.20926 
L 324.457596 59.904367 
L 325.28755 59.40149 
L 325.951512 58.711442 
L 326.615472 57.743576 
L 327.445415 56.170032 
L 328.441342 53.745467 
L 328.607333 295.266133 
L 329.603251 292.15105 
L 330.599156 288.419977 
L 331.927009 282.566637 
L 333.75276 273.310141 
L 336.408384 258.665924 
L 338.234103 247.145594 
L 339.561843 237.367486 
L 341.885329 219.483738 
L 342.383275 217.61458 
L 342.881245 216.818971 
L 343.047236 216.71577 
L 343.379218 216.889904 
L 343.711196 217.508859 
L 344.20916 219.296389 
L 344.873087 222.782695 
L 346.366833 232.506072 
L 347.528703 238.6087 
L 348.524604 242.86443 
L 349.520522 246.246326 
L 350.350461 248.407611 
L 351.678377 251.016183 
L 353.006298 253.145582 
L 354.334221 254.806368 
L 355.496156 255.873391 
L 356.492101 256.506817 
L 357.322055 256.839665 
L 358.318001 256.986974 
L 359.313947 256.890506 
L 360.309892 256.531564 
L 361.305837 255.898824 
L 361.9698 255.179676 
L 362.799752 253.831975 
L 363.629698 252.005821 
L 364.62563 249.164679 
L 365.787546 244.921655 
L 366.949441 239.713685 
L 368.111334 233.396854 
L 369.273186 225.726759 
L 371.928856 206.768921 
L 373.256734 199.505884 
L 374.916603 191.993782 
L 376.24451 187.010713 
L 377.572425 182.957783 
L 378.734356 180.159691 
L 379.730298 178.305107 
L 380.560251 177.136095 
L 381.722187 175.974537 
L 382.884123 175.107594 
L 384.212051 174.43865 
L 386.701915 173.433202 
L 389.191779 172.653596 
L 391.681643 172.111396 
L 394.005517 171.818326 
L 396.32939 171.731341 
L 398.487273 171.834617 
L 398.487273 171.834617 
" style="fill:none;stroke:#1f77b4;stroke-linecap:square;stroke-width:1.5;"/>
   </g>
   <g id="line2d_15">
    <path clip-path="url(#pd29b20f1e5)" d="M 73.832727 172.025281 
L 74.492821 172.466675 
L 75.02091 172.380523 
L 76.34117 171.7861 
L 76.869286 171.985211 
L 77.925532 172.759154 
L 79.37789 173.92316 
L 79.773991 173.932131 
L 80.302127 173.679346 
L 80.830264 173.416716 
L 81.358402 173.490126 
L 81.622472 173.681278 
L 82.150611 174.443002 
L 83.074857 175.583402 
L 83.470963 175.726623 
L 83.867069 175.639764 
L 83.867069 175.639764 
L 84.791318 175.226146 
L 85.187425 175.337807 
L 85.583532 175.805569 
L 86.24371 177.073293 
L 86.903888 178.123772 
L 87.299995 178.516524 
L 87.696103 178.58212 
L 88.356282 178.502722 
L 88.884425 178.669541 
L 89.280532 179.115303 
L 89.808675 180.066356 
L 90.864961 182.51034 
L 91.657176 184.188614 
L 92.317354 184.976592 
L 92.317354 184.976592 
L 93.505676 186.076695 
L 94.165855 187.268292 
L 95.750283 190.855839 
L 96.791463 193.66724 
L 97.290221 194.670757 
L 97.532721 194.732136 
L 97.532721 194.732136 
L 97.770615 194.405468 
L 98.003952 193.65533 
L 98.003952 193.65533 
L 98.345752 191.657338 
L 99.629772 181.881174 
L 99.832818 181.647356 
L 100.033088 181.888845 
L 100.522336 182.873006 
L 100.522336 182.873006 
L 100.714097 182.801225 
L 100.903666 182.402708 
L 100.903666 182.402708 
L 101.184243 180.841414 
L 101.642718 175.845884 
L 101.642718 175.845884 
L 102.267317 169.116958 
L 102.53003 167.93575 
L 102.790345 167.606711 
L 103.30445 167.497554 
L 103.474056 167.021299 
L 103.727198 165.371188 
L 103.727198 165.371188 
L 104.23057 159.892528 
L 104.815696 153.884059 
L 105.316981 150.899268 
L 107.444941 140.922526 
L 107.444941 140.922526 
L 107.891282 139.967871 
L 108.164909 139.770512 
L 108.164909 139.770512 
L 108.350291 139.789391 
L 108.728968 140.132626 
L 109.829242 141.515385 
L 110.24665 142.455166 
L 110.669643 144.061029 
L 111.203997 146.980114 
L 113.052522 159.030209 
L 113.494481 160.467762 
L 114.052118 161.499089 
L 114.052118 161.499089 
L 116.138049 164.248537 
L 116.747346 164.333367 
L 117.242827 164.043413 
L 117.618292 163.553597 
L 118.123166 162.481707 
L 118.63145 160.851487 
L 119.269116 157.902294 
L 121.573121 146.380124 
L 122.088311 144.936545 
L 122.865159 143.555631 
L 123.776332 142.319729 
L 124.429554 141.954156 
L 124.822232 142.071164 
L 125.215376 142.621762 
L 125.871485 144.124316 
L 126.397016 145.804224 
L 127.976068 151.255687 
L 128.503012 152.093736 
L 129.689356 153.525804 
L 130.612568 155.326433 
L 131.272194 156.5005 
L 131.668029 156.702858 
L 132.063902 156.60053 
L 132.723758 156.055081 
L 134.043665 154.872313 
L 134.043665 154.872313 
L 134.439675 154.895534 
L 135.09972 155.229212 
L 135.09972 155.229212 
L 135.495762 155.36929 
L 136.023831 155.255824 
L 136.683935 154.833897 
L 136.683935 154.833897 
L 138.268246 153.093755 
L 138.268246 153.093755 
L 139.060423 152.479296 
L 139.456515 152.478146 
L 139.984641 152.598075 
L 140.644803 152.414269 
L 141.040903 152.127986 
L 141.569036 151.300703 
L 142.625309 149.45623 
L 143.417516 148.636544 
L 144.605831 147.745668 
L 144.605831 147.745668 
L 145.266007 147.23063 
L 145.794148 146.404903 
L 146.586327 144.718687 
L 147.242393 142.957828 
L 147.242393 142.957828 
L 149.139756 137.205423 
L 150.458989 135.315723 
L 150.809182 134.145724 
L 151.498739 130.783555 
L 152.286874 127.262285 
L 152.950053 125.499662 
L 152.950053 125.499662 
L 153.926412 123.345856 
L 154.460857 121.272486 
L 155.20223 117.539004 
L 156.358542 111.314817 
L 156.358542 111.314817 
L 156.988204 108.981885 
L 158.146528 104.648428 
L 159.318531 99.860004 
L 159.318531 99.860004 
L 159.858655 98.56605 
L 161.407095 95.500249 
L 162.322774 93.202639 
L 162.790856 92.506121 
L 163.146946 92.293507 
L 164.242689 92.030619 
L 164.740996 91.432946 
L 166.007875 89.671138 
L 166.392398 89.616703 
L 166.392398 89.616703 
L 166.649636 89.729862 
L 167.036664 90.24149 
L 168.204506 92.160296 
L 168.595553 92.304185 
L 169.118003 92.147236 
L 169.903511 91.554863 
L 170.428157 91.224359 
L 170.953422 91.28408 
L 171.742247 91.757957 
L 172.53193 92.260309 
L 172.927024 92.200758 
L 173.322256 91.767548 
L 173.849414 90.774943 
L 174.508603 89.595843 
L 174.904222 89.230071 
L 175.299908 89.193042 
L 175.299908 89.193042 
L 175.695651 89.353579 
L 176.223385 89.602189 
L 176.619234 89.564363 
L 177.015117 89.173847 
L 177.543009 88.246491 
L 179.258925 84.837078 
L 180.050982 84.088208 
L 180.050982 84.088208 
L 181.635207 82.893631 
L 182.29533 81.74158 
L 183.48358 79.051835 
L 184.407792 77.110263 
L 185.067951 76.359451 
L 185.596081 75.647693 
L 186.256246 74.34291 
L 186.916414 72.299616 
L 186.916414 72.299616 
L 187.840653 69.665124 
L 188.368791 68.737545 
L 189.028964 68.096108 
L 189.028964 68.096108 
L 189.689139 67.549824 
L 190.21728 66.666595 
L 190.74542 65.170715 
L 191.933726 61.512921 
L 192.721536 60.084765 
L 192.721536 60.084765 
L 194.001313 57.710399 
L 195.462877 54.303738 
L 195.697919 53.701088 
L 195.697919 53.701088 
L 195.814397 295.37348 
L 196.832092 292.91336 
L 197.478203 292.139506 
L 197.478203 292.139506 
L 198.095579 291.531192 
L 198.68349 290.333508 
L 198.68349 290.333508 
L 199.151376 289.011483 
L 200.2037 285.370918 
L 200.616061 284.101369 
L 201.093236 281.468775 
L 201.093236 281.468775 
L 203.436555 263.920203 
L 204.435843 253.70193 
L 204.96873 248.019243 
L 206.404938 227.645977 
L 206.404938 227.645977 
L 207.24969 211.913896 
L 207.24969 211.913896 
L 207.99336 199.742043 
L 209.27743 183.130673 
L 210.068766 176.034974 
L 210.790952 171.972111 
L 211.354315 169.488453 
L 211.879593 168.296538 
L 211.879593 168.296538 
L 212.353867 167.582806 
L 212.595316 167.569146 
L 212.837531 167.775952 
L 212.837531 167.775952 
L 213.078322 168.348372 
L 213.470384 170.129038 
L 213.470384 170.129038 
L 213.922644 173.351218 
L 215.769312 189.587093 
L 216.421067 198.052617 
L 217.206237 207.978473 
L 217.803584 212.658608 
L 217.803584 212.658608 
L 218.900042 221.292115 
L 218.900042 221.292115 
L 219.763562 228.106559 
L 219.763562 228.106559 
L 222.222814 239.488785 
L 223.379147 243.124343 
L 223.379147 243.124343 
L 224.040325 244.310723 
L 224.834674 245.343484 
L 225.355063 245.534812 
L 225.355063 245.534812 
L 226.118985 245.593507 
L 226.575259 245.354791 
L 227.402964 244.872364 
L 227.889043 244.980807 
L 228.382571 245.134232 
L 228.882227 245.009355 
L 229.768219 244.465208 
L 230.923123 243.761894 
L 231.440515 243.907374 
L 232.220064 244.465903 
L 232.220064 244.465903 
L 232.611098 244.734738 
L 233.002823 244.76887 
L 233.526035 244.563205 
L 234.706222 243.91943 
L 235.231748 244.079592 
L 235.889298 244.51769 
L 235.889298 244.51769 
L 236.679096 245.033324 
L 237.205979 244.943675 
L 237.99671 244.431399 
L 237.99671 244.431399 
L 238.787817 243.901388 
L 239.315382 243.983136 
L 240.106916 244.488028 
L 240.106916 244.488028 
L 240.898623 245.015312 
L 241.426502 244.932861 
L 242.218405 244.427287 
L 242.218405 244.427287 
L 243.010387 243.899207 
L 243.538409 243.981302 
L 244.330482 244.486743 
L 244.330482 244.486743 
L 245.12259 245.015082 
L 245.650678 244.933159 
L 246.442828 244.427829 
L 246.442828 244.427829 
L 247.234994 243.899423 
L 247.763112 243.981294 
L 248.555297 244.4866 
L 248.555297 244.4866 
L 249.34749 245.015052 
L 249.875622 244.933211 
L 250.799858 244.580981 
L 251.063926 244.648862 
L 251.460029 245.077497 
L 251.856133 245.847409 
L 252.382393 247.570167 
L 254.035403 253.957794 
L 254.402063 254.294875 
L 255.237518 254.399309 
L 255.237518 254.399309 
L 255.471084 254.720335 
L 255.817445 255.798297 
L 256.384705 258.541145 
L 257.590623 264.857701 
L 258.014845 265.820713 
L 258.431656 266.253588 
L 259.043257 266.658273 
L 259.343033 267.439322 
L 259.736498 269.467088 
L 260.875053 276.407377 
L 261.240235 277.233803 
L 261.686579 277.813251 
L 262.035026 278.848906 
L 262.460042 281.52092 
L 262.460042 281.52092 
L 263.352142 287.627446 
L 264.472932 292.308566 
L 264.824115 295.260512 
L 264.892972 53.88206 
L 264.961447 54.478086 
L 266.943562 72.940595 
L 267.702558 83.5469 
L 268.216206 90.666481 
L 268.872388 104.498389 
L 269.430194 114.934193 
L 270.831805 132.654848 
L 271.557549 137.304763 
L 272.151259 139.390113 
L 272.151259 139.390113 
L 272.424366 139.897766 
L 272.424366 139.897766 
L 272.629722 139.92739 
L 272.765871 139.666606 
L 272.967051 138.819142 
L 272.967051 138.819142 
L 273.227575 136.794497 
L 273.227575 136.794497 
L 274.873399 118.48325 
L 274.873399 118.48325 
L 275.493363 106.863026 
L 276.119749 96.363503 
L 276.526359 93.011834 
L 277.002308 89.429185 
L 278.334893 76.58482 
L 279.763762 69.770506 
L 280.314383 68.199991 
L 280.727773 67.563546 
L 281.248117 67.312333 
L 281.248117 67.312333 
L 281.703168 67.118545 
L 282.276603 66.409261 
L 282.77922 66.045685 
L 282.77922 66.045685 
L 283.092147 66.02853 
L 283.633108 66.345786 
L 283.633108 66.345786 
L 284.542946 67.138748 
L 284.542946 67.138748 
L 285.128111 68.163796 
L 285.718544 69.525727 
L 286.309477 71.621548 
L 287.126676 75.597408 
L 288.155871 80.634893 
L 288.945985 83.338549 
L 289.620436 85.678708 
L 289.620436 85.678708 
L 290.294298 88.906219 
L 291.532529 95.027371 
L 292.099017 96.55245 
L 292.440988 97.043017 
L 292.900291 97.240166 
L 293.364325 97.520858 
L 294.191122 98.405253 
L 294.191122 98.405253 
L 295.16498 99.445564 
L 295.16498 99.445564 
L 295.537539 99.558624 
L 295.913261 99.405907 
L 296.41686 98.924545 
L 296.918687 97.946994 
L 297.412358 96.551304 
L 298.249744 92.962013 
L 299.280355 88.494777 
L 300.054177 86.24072 
L 300.596642 84.460968 
L 301.347416 80.95938 
L 303.268708 70.834142 
L 303.804879 69.260322 
L 303.804879 69.260322 
L 304.45192 67.43298 
L 306.210563 62.231721 
L 307.002154 60.955916 
L 309.130992 58.143106 
L 309.624959 57.843604 
L 311.780111 57.071627 
L 311.780111 57.071627 
L 312.166784 57.156145 
L 312.814002 57.594882 
L 312.814002 57.594882 
L 313.333825 58.400605 
L 313.333825 58.400605 
L 314.116238 59.753209 
L 314.50842 60.077831 
L 314.901136 60.084655 
L 314.901136 60.084655 
L 315.425463 59.811514 
L 315.425463 59.811514 
L 316.476026 59.134956 
L 316.476026 59.134956 
L 316.8705 59.188809 
L 317.528436 59.540731 
L 317.528436 59.540731 
L 318.713871 60.479288 
L 319.372916 60.965009 
L 319.768465 60.975725 
L 320.295979 60.727325 
L 321.483264 59.988456 
L 321.879116 60.06133 
L 322.670918 60.537428 
L 323.462825 61.0437 
L 323.990808 60.951845 
L 324.25481 60.742425 
L 324.650195 60.142696 
L 326.781389 55.589503 
L 327.480187 53.803657 
L 327.594207 295.488 
L 328.808658 292.149144 
L 329.339694 289.838259 
L 330.370062 284.995995 
L 330.370062 284.995995 
L 331.562409 280.342361 
L 331.562409 280.342361 
L 332.144744 277.803702 
L 332.719716 274.511305 
L 332.719716 274.511305 
L 333.848146 267.63051 
L 333.848146 267.63051 
L 334.675068 264.510093 
L 335.216226 261.961183 
L 336.011703 256.630593 
L 336.011703 256.630593 
L 336.701392 252.286492 
L 336.701392 252.286492 
L 337.870522 246.407871 
L 340.399221 227.496423 
L 341.487469 218.22786 
L 341.487469 218.22786 
L 341.881811 216.760979 
L 342.446751 215.604395 
L 342.446751 215.604395 
L 343.034906 214.756244 
L 343.293798 214.699966 
L 343.467698 214.850295 
L 343.467698 214.850295 
L 343.817275 215.551777 
L 343.817275 215.551777 
L 344.167782 217.055722 
L 344.167782 217.055722 
L 344.691912 220.478507 
L 345.12725 224.669276 
L 345.99869 233.543569 
L 346.524345 236.555769 
L 348.132943 244.136179 
L 348.872103 247.093424 
L 349.34467 248.334277 
L 350.220176 249.808188 
L 351.237959 251.606889 
L 352.091826 253.522928 
L 352.645185 254.308696 
L 353.09929 254.546097 
L 353.446713 254.724593 
L 354.038915 255.337798 
L 354.891856 256.591711 
L 355.765403 257.869509 
L 355.765403 257.869509 
L 356.398608 258.322355 
L 356.909436 258.506127 
L 357.294601 258.386225 
L 357.294601 258.386225 
L 358.588144 257.649118 
L 359.108724 257.804805 
L 359.630642 257.974705 
L 360.022713 257.870859 
L 360.413056 257.395801 
L 360.413056 257.395801 
L 360.798169 256.580896 
L 361.545667 254.26638 
L 362.259382 252.273082 
L 362.829639 251.310801 
L 362.829639 251.310801 
L 364.016418 249.740505 
L 364.427746 248.282384 
L 365.027044 244.932204 
L 365.891756 240.115144 
L 366.448094 238.410128 
L 366.448094 238.410128 
L 367.078748 236.616404 
L 367.518424 234.403246 
L 367.518424 234.403246 
L 368.290811 228.80822 
L 369.295133 221.911093 
L 370.04015 217.478898 
L 370.619389 212.697705 
L 371.283725 207.344388 
L 371.869366 204.454799 
L 371.869366 204.454799 
L 372.63195 200.924208 
L 373.761515 194.742428 
L 376.25441 184.984667 
L 376.841738 183.394059 
L 377.647153 181.16356 
L 378.586636 178.569942 
L 378.586636 178.569942 
L 379.234564 177.497387 
L 380.823419 175.402209 
L 380.823419 175.402209 
L 382.154098 173.812129 
L 382.902793 173.440457 
L 384.43048 172.911909 
L 384.945975 173.140275 
L 385.463709 173.429582 
L 385.853239 173.43321 
L 385.853239 173.43321 
L 386.504381 173.149817 
L 387.419165 172.492468 
L 387.419165 172.492468 
L 387.943183 172.180657 
L 387.943183 172.180657 
L 388.336684 172.207974 
L 388.993282 172.574711 
L 388.993282 172.574711 
L 389.387625 172.738548 
L 389.913782 172.655415 
L 390.703657 172.185852 
L 392.285037 171.037585 
L 392.812501 171.151278 
L 393.603915 171.704075 
L 394.131641 172.024343 
L 394.65944 171.959792 
L 395.451251 171.481717 
L 396.243164 170.97438 
L 396.77115 171.065857 
L 397.563179 171.579979 
L 398.487273 172.309533 
L 398.487273 172.309533 
" style="fill:none;stroke:#ff7f0e;stroke-linecap:square;stroke-width:1.5;"/>
   </g>
   <g id="line2d_16">
    <path clip-path="url(#pd29b20f1e5)" d="M 73.832727 171.477104 
L 75.018189 172.338525 
L 75.413358 172.31238 
L 76.467166 172.001673 
L 77.12581 172.278989 
L 78.047925 172.939577 
L 79.496986 174.059311 
L 79.892188 174.061016 
L 79.892188 174.061016 
L 80.946064 173.771996 
L 80.946064 173.771996 
L 81.604739 174.046319 
L 82.526887 174.698594 
L 82.526887 174.698594 
L 86.610703 177.919365 
L 92.670578 182.399239 
L 93.197523 183.160678 
L 94.119678 185.130024 
L 94.119678 185.130024 
L 96.751622 191.020007 
L 96.751622 191.020007 
L 98.121144 192.78003 
L 98.470993 192.825736 
L 98.811433 192.621301 
L 99.251134 192.004641 
L 99.676308 190.950595 
L 100.088944 189.165353 
L 100.588743 185.967648 
L 101.356507 179.180007 
L 103.149616 163.251067 
L 104.085674 157.740217 
L 107.354789 141.022576 
L 107.354789 141.022576 
L 107.787485 140.213086 
L 108.051552 140.052102 
L 108.051552 140.052102 
L 108.319583 140.17401 
L 108.592124 140.508412 
L 109.24975 141.9545 
L 109.841317 143.085029 
L 110.770203 144.183076 
L 110.770203 144.183076 
L 111.19297 145.125188 
L 111.19297 145.125188 
L 111.726767 147.043582 
L 112.37327 150.56505 
L 114.236607 162.034447 
L 114.236607 162.034447 
L 114.68428 163.191615 
L 114.68428 163.191615 
L 115.137244 163.747448 
L 115.137244 163.747448 
L 115.481085 163.782935 
L 116.063451 163.510313 
L 116.063451 163.510313 
L 116.659709 162.806617 
L 117.764905 161.485702 
L 118.771447 160.657751 
L 119.91623 159.675242 
L 120.426241 158.682431 
L 120.809053 157.463237 
L 121.447842 154.495523 
L 122.860992 147.514995 
L 123.508351 145.402686 
L 124.028029 144.391922 
L 124.288366 144.200185 
L 124.548994 144.221976 
L 124.940424 144.509986 
L 125.724756 145.507541 
L 125.724756 145.507541 
L 126.379563 146.336115 
L 126.772862 146.522429 
L 126.772862 146.522429 
L 127.297658 146.460194 
L 127.297658 146.460194 
L 128.216926 146.168865 
L 128.742615 146.365048 
L 129.531552 146.925323 
L 131.90026 148.932171 
L 132.426884 149.723192 
L 133.611982 151.809465 
L 133.611982 151.809465 
L 134.402156 152.591336 
L 135.587529 153.437353 
L 138.353697 155.308781 
L 138.353697 155.308781 
L 139.802729 156.286285 
L 140.197926 156.257903 
L 140.85659 155.863857 
L 141.910461 154.906583 
L 144.676898 152.23086 
L 144.676898 152.23086 
L 145.335577 150.917989 
L 146.652935 147.706051 
L 147.31026 145.382459 
L 147.31026 145.382459 
L 147.959235 142.176789 
L 148.846559 136.458232 
L 148.846559 136.458232 
L 150.070703 128.353119 
L 150.782673 125.053994 
L 150.782673 125.053994 
L 151.24884 123.796788 
L 151.24884 123.796788 
L 151.708725 123.168001 
L 151.708725 123.168001 
L 152.162419 122.920249 
L 152.162419 122.920249 
L 152.610509 122.946793 
L 152.610509 122.946793 
L 153.16343 123.238009 
L 153.709352 123.544335 
L 154.033894 123.46268 
L 154.35636 123.029491 
L 154.35636 123.029491 
L 154.783294 122.064961 
L 154.783294 122.064961 
L 155.312862 120.078823 
L 155.839249 117.410725 
L 158.461098 102.432624 
L 159.415082 99.134547 
L 159.415082 99.134547 
L 160.05876 97.80352 
L 163.083031 92.836142 
L 163.5557 92.600034 
L 165.774764 92.007283 
L 166.921861 91.347688 
L 166.921861 91.347688 
L 169.774019 89.543969 
L 170.29672 89.711787 
L 171.475346 90.410491 
L 171.868825 90.341782 
L 172.656457 89.881619 
L 172.656457 89.881619 
L 174.628249 88.44842 
L 175.94409 88.486487 
L 176.865544 87.92251 
L 176.865544 87.92251 
L 178.577308 86.570711 
L 181.211467 84.542043 
L 182.660425 83.316429 
L 182.660425 83.316429 
L 183.319063 82.100828 
L 184.504634 79.338209 
L 186.480624 74.245535 
L 188.588374 67.279812 
L 190.037461 64.089581 
L 190.037461 64.089581 
L 192.145233 59.782857 
L 192.145233 59.782857 
L 193.839074 57.385664 
L 195.452651 54.026563 
L 195.572655 53.750067 
L 195.692075 295.452988 
L 195.692075 295.452988 
L 196.849951 292.458578 
L 198.753624 287.429685 
L 198.753624 287.429685 
L 199.879722 285.591658 
L 199.879722 285.591658 
L 200.574158 283.881072 
L 200.574158 283.881072 
L 201.150215 281.48957 
L 201.852961 276.966133 
L 201.852961 276.966133 
L 203.012203 266.858427 
L 203.012203 266.858427 
L 203.750898 259.234897 
L 205.582184 238.270648 
L 206.737408 220.5393 
L 208.750444 188.819613 
L 208.750444 188.819613 
L 209.643083 179.519549 
L 209.643083 179.519549 
L 210.29666 174.831717 
L 211.125754 170.342508 
L 211.125754 170.342508 
L 211.5338 169.099852 
L 211.8884 168.682113 
L 212.108357 168.725568 
L 212.334103 168.94709 
L 212.644513 169.668722 
L 213.524229 172.301284 
L 213.524229 172.301284 
L 214.375481 173.893561 
L 214.66812 175.356792 
L 215.022431 178.284442 
L 215.022431 178.284442 
L 215.63479 185.87555 
L 217.332233 208.695 
L 218.120809 216.48489 
L 218.860285 221.94083 
L 220.568076 232.074319 
L 221.488024 235.803363 
L 222.973357 241.013555 
L 222.973357 241.013555 
L 223.681248 242.429806 
L 223.681248 242.429806 
L 224.615073 243.922191 
L 225.105229 244.194643 
L 228.698552 245.555672 
L 229.569189 245.988849 
L 229.947161 245.928207 
L 230.582164 245.539547 
L 231.479511 244.946617 
L 231.995649 245.040398 
L 233.29364 245.591091 
L 233.945651 245.293616 
L 233.945651 245.293616 
L 234.860816 244.596731 
L 235.384717 244.264144 
L 235.778001 244.279355 
L 236.43404 244.632761 
L 237.09065 245.017586 
L 237.09065 245.017586 
L 237.616266 244.940572 
L 237.616266 244.940572 
L 238.405117 244.461084 
L 239.194366 243.960686 
L 239.194366 243.960686 
L 239.720702 244.056943 
L 239.720702 244.056943 
L 240.510403 244.576049 
L 241.036974 244.87673 
L 241.563611 244.796843 
L 242.353667 244.303401 
L 242.353667 244.303401 
L 243.143815 243.787658 
L 243.670619 243.87611 
L 244.460872 244.388008 
L 244.460872 244.388008 
L 245.251166 244.91989 
L 245.778048 244.839256 
L 246.56839 244.341208 
L 246.56839 244.341208 
L 246.963569 244.208068 
L 247.490481 244.328246 
L 248.280859 244.840822 
L 253.279079 249.046231 
L 254.167541 250.301794 
L 254.783414 251.450393 
L 255.265122 252.900832 
L 256.086419 256.132796 
L 258.085319 265.405131 
L 258.085319 265.405131 
L 259.933262 273.889671 
L 260.613342 275.780924 
L 261.546767 278.169754 
L 262.607513 282.347311 
L 263.112242 285.050582 
L 264.29677 293.000409 
L 264.29677 293.000409 
L 264.594643 295.04615 
L 264.594643 295.04615 
L 264.667908 53.568 
L 264.740686 54.067003 
L 265.977952 63.306123 
L 265.977952 63.306123 
L 266.789144 72.078915 
L 268.028704 88.85345 
L 270.638006 130.356614 
L 271.297131 136.328607 
L 271.704033 138.433724 
L 272.008043 139.129436 
L 272.19656 139.260279 
L 272.325062 139.211096 
L 272.456074 138.955265 
L 272.724016 137.55674 
L 273.26949 134.580786 
L 274.112515 131.655146 
L 274.473104 127.893224 
L 274.473104 127.893224 
L 274.991648 119.157046 
L 276.400651 95.199455 
L 277.2079 85.658577 
L 277.2079 85.658577 
L 277.991449 79.177644 
L 278.822942 74.210281 
L 279.716971 70.563365 
L 280.306246 69.113541 
L 280.851376 68.201588 
L 281.343894 67.897364 
L 281.343894 67.897364 
L 282.315805 67.49904 
L 282.693428 67.641725 
L 286.907923 70.246058 
L 287.375473 71.08738 
L 287.722764 72.13714 
L 287.722764 72.13714 
L 288.295566 74.78186 
L 289.200451 80.761938 
L 290.658753 90.900324 
L 291.443621 95.124618 
L 292.23107 98.011422 
L 292.23107 98.011422 
L 292.797021 99.185945 
L 293.253162 99.722713 
L 293.713335 99.818988 
L 294.531809 99.644443 
L 294.531809 99.644443 
L 295.009012 99.260682 
L 295.009012 99.260682 
L 296.736839 97.538345 
L 297.613612 96.731124 
L 297.982788 96.009548 
L 297.982788 96.009548 
L 298.465392 94.574836 
L 298.465392 94.574836 
L 299.283573 91.266568 
L 300.731908 84.165873 
L 300.731908 84.165873 
L 302.340032 75.525586 
L 304.15134 67.780251 
L 304.15134 67.780251 
L 305.118761 64.948372 
L 305.770637 63.524582 
L 306.987207 61.450297 
L 307.780409 60.310218 
L 308.35849 60.025128 
L 311.164197 59.182807 
L 312.56751 58.322859 
L 312.56751 58.322859 
L 314.119758 57.378374 
L 314.119758 57.378374 
L 314.510073 57.447091 
L 315.162032 57.864207 
L 315.162032 57.864207 
L 316.73208 59.062359 
L 316.73208 59.062359 
L 317.25662 58.94137 
L 317.25662 58.94137 
L 318.175545 58.546583 
L 318.701084 58.698115 
L 319.358352 59.110593 
L 319.358352 59.110593 
L 320.93692 60.260443 
L 320.93692 60.260443 
L 321.46336 60.146654 
L 321.46336 60.146654 
L 322.253183 59.593243 
L 326.680077 55.763577 
L 326.680077 55.763577 
L 327.284081 55.792557 
L 327.868941 55.864801 
L 328.324439 55.557158 
L 328.659244 55.027849 
L 329.09748 53.775718 
L 329.205655 295.329676 
L 329.313306 294.847405 
L 329.94884 291.392341 
L 330.670599 285.991944 
L 330.670599 285.991944 
L 331.573101 279.469324 
L 332.934257 271.426452 
L 333.693667 267.858116 
L 334.347758 264.977131 
L 337.454736 249.200761 
L 340.432394 227.838986 
L 341.748503 217.438547 
L 342.21678 215.293322 
L 342.532964 214.663883 
L 342.773292 214.54435 
L 342.773292 214.54435 
L 342.935436 214.646286 
L 343.181972 215.113755 
L 343.688526 216.919387 
L 344.382247 219.124649 
L 344.906111 220.849044 
L 345.341196 223.053601 
L 345.949103 227.688329 
L 347.788125 243.259432 
L 348.414827 246.389291 
L 348.869218 247.71052 
L 349.705317 249.206596 
L 351.884845 252.812824 
L 352.414678 253.107144 
L 353.633443 253.560086 
L 354.212974 254.324123 
L 354.929571 255.256877 
L 354.929571 255.256877 
L 355.541246 255.643951 
L 357.941349 256.827968 
L 357.941349 256.827968 
L 359.492289 257.727705 
L 359.492289 257.727705 
L 359.882381 257.65604 
L 360.534001 257.23754 
L 360.534001 257.23754 
L 361.310078 256.510696 
L 361.936078 255.703513 
L 362.772665 254.195731 
L 363.454164 253.068543 
L 363.454164 253.068543 
L 364.000061 252.180934 
L 364.734635 250.502565 
L 364.734635 250.502565 
L 365.340091 248.165496 
L 366.022113 244.194227 
L 366.680575 239.058659 
L 366.680575 239.058659 
L 368.025227 228.266904 
L 369.217592 221.052448 
L 371.12074 209.925447 
L 371.12074 209.925447 
L 372.787102 199.723971 
L 372.787102 199.723971 
L 375.417073 187.732006 
L 376.160099 185.368228 
L 376.9246 183.865993 
L 377.315531 182.946773 
L 378.218227 180.69298 
L 379.477007 178.555054 
L 381.271472 175.932556 
L 381.744361 175.670271 
L 384.222475 174.808194 
L 386.538287 173.313798 
L 392.562862 169.102669 
L 392.9575 169.162925 
L 393.615398 169.582538 
L 395.326638 170.833544 
L 395.326638 170.833544 
L 395.721642 170.728586 
L 396.64342 170.348307 
L 397.170202 170.504308 
L 397.82872 170.920858 
L 398.487273 171.452001 
L 398.487273 171.452001 
" style="fill:none;stroke:#2ca02c;stroke-linecap:square;stroke-width:1.5;"/>
   </g>
   <g id="patch_3">
    <path d="M 57.6 307.584 
L 57.6 41.472 
" style="fill:none;stroke:#000000;stroke-linecap:square;stroke-linejoin:miter;stroke-width:0.8;"/>
   </g>
   <g id="patch_4">
    <path d="M 414.72 307.584 
L 414.72 41.472 
" style="fill:none;stroke:#000000;stroke-linecap:square;stroke-linejoin:miter;stroke-width:0.8;"/>
   </g>
   <g id="patch_5">
    <path d="M 57.6 307.584 
L 414.72 307.584 
" style="fill:none;stroke:#000000;stroke-linecap:square;stroke-linejoin:miter;stroke-width:0.8;"/>
   </g>
   <g id="patch_6">
    <path d="M 57.6 41.472 
L 414.72 41.472 
" style="fill:none;stroke:#000000;stroke-linecap:square;stroke-linejoin:miter;stroke-width:0.8;"/>
   </g>
   <g id="text_14">
    <!-- gbr heading -->
    <g transform="translate(199.909687 35.472)scale(0.12 -0.12)">
     <defs>
      <path d="M 45.40625 27.984375 
Q 45.40625 37.75 41.375 43.109375 
Q 37.359375 48.484375 30.078125 48.484375 
Q 22.859375 48.484375 18.828125 43.109375 
Q 14.796875 37.75 14.796875 27.984375 
Q 14.796875 18.265625 18.828125 12.890625 
Q 22.859375 7.515625 30.078125 7.515625 
Q 37.359375 7.515625 41.375 12.890625 
Q 45.40625 18.265625 45.40625 27.984375 
z
M 54.390625 6.78125 
Q 54.390625 -7.171875 48.1875 -13.984375 
Q 42 -20.796875 29.203125 -20.796875 
Q 24.46875 -20.796875 20.265625 -20.09375 
Q 16.0625 -19.390625 12.109375 -17.921875 
L 12.109375 -9.1875 
Q 16.0625 -11.328125 19.921875 -12.34375 
Q 23.78125 -13.375 27.78125 -13.375 
Q 36.625 -13.375 41.015625 -8.765625 
Q 45.40625 -4.15625 45.40625 5.171875 
L 45.40625 9.625 
Q 42.625 4.78125 38.28125 2.390625 
Q 33.9375 0 27.875 0 
Q 17.828125 0 11.671875 7.65625 
Q 5.515625 15.328125 5.515625 27.984375 
Q 5.515625 40.671875 11.671875 48.328125 
Q 17.828125 56 27.875 56 
Q 33.9375 56 38.28125 53.609375 
Q 42.625 51.21875 45.40625 46.390625 
L 45.40625 54.6875 
L 54.390625 54.6875 
z
" id="DejaVuSans-103"/>
      <path d="M 48.6875 27.296875 
Q 48.6875 37.203125 44.609375 42.84375 
Q 40.53125 48.484375 33.40625 48.484375 
Q 26.265625 48.484375 22.1875 42.84375 
Q 18.109375 37.203125 18.109375 27.296875 
Q 18.109375 17.390625 22.1875 11.75 
Q 26.265625 6.109375 33.40625 6.109375 
Q 40.53125 6.109375 44.609375 11.75 
Q 48.6875 17.390625 48.6875 27.296875 
z
M 18.109375 46.390625 
Q 20.953125 51.265625 25.265625 53.625 
Q 29.59375 56 35.59375 56 
Q 45.5625 56 51.78125 48.09375 
Q 58.015625 40.1875 58.015625 27.296875 
Q 58.015625 14.40625 51.78125 6.484375 
Q 45.5625 -1.421875 35.59375 -1.421875 
Q 29.59375 -1.421875 25.265625 0.953125 
Q 20.953125 3.328125 18.109375 8.203125 
L 18.109375 0 
L 9.078125 0 
L 9.078125 75.984375 
L 18.109375 75.984375 
z
" id="DejaVuSans-98"/>
      <path d="M 41.109375 46.296875 
Q 39.59375 47.171875 37.8125 47.578125 
Q 36.03125 48 33.890625 48 
Q 26.265625 48 22.1875 43.046875 
Q 18.109375 38.09375 18.109375 28.8125 
L 18.109375 0 
L 9.078125 0 
L 9.078125 54.6875 
L 18.109375 54.6875 
L 18.109375 46.1875 
Q 20.953125 51.171875 25.484375 53.578125 
Q 30.03125 56 36.53125 56 
Q 37.453125 56 38.578125 55.875 
Q 39.703125 55.765625 41.0625 55.515625 
z
" id="DejaVuSans-114"/>
      <path id="DejaVuSans-32"/>
      <path d="M 54.890625 33.015625 
L 54.890625 0 
L 45.90625 0 
L 45.90625 32.71875 
Q 45.90625 40.484375 42.875 44.328125 
Q 39.84375 48.1875 33.796875 48.1875 
Q 26.515625 48.1875 22.3125 43.546875 
Q 18.109375 38.921875 18.109375 30.90625 
L 18.109375 0 
L 9.078125 0 
L 9.078125 75.984375 
L 18.109375 75.984375 
L 18.109375 46.1875 
Q 21.34375 51.125 25.703125 53.5625 
Q 30.078125 56 35.796875 56 
Q 45.21875 56 50.046875 50.171875 
Q 54.890625 44.34375 54.890625 33.015625 
z
" id="DejaVuSans-104"/>
      <path d="M 56.203125 29.59375 
L 56.203125 25.203125 
L 14.890625 25.203125 
Q 15.484375 15.921875 20.484375 11.0625 
Q 25.484375 6.203125 34.421875 6.203125 
Q 39.59375 6.203125 44.453125 7.46875 
Q 49.3125 8.734375 54.109375 11.28125 
L 54.109375 2.78125 
Q 49.265625 0.734375 44.1875 -0.34375 
Q 39.109375 -1.421875 33.890625 -1.421875 
Q 20.796875 -1.421875 13.15625 6.1875 
Q 5.515625 13.8125 5.515625 26.8125 
Q 5.515625 40.234375 12.765625 48.109375 
Q 20.015625 56 32.328125 56 
Q 43.359375 56 49.78125 48.890625 
Q 56.203125 41.796875 56.203125 29.59375 
z
M 47.21875 32.234375 
Q 47.125 39.59375 43.09375 43.984375 
Q 39.0625 48.390625 32.421875 48.390625 
Q 24.90625 48.390625 20.390625 44.140625 
Q 15.875 39.890625 15.1875 32.171875 
z
" id="DejaVuSans-101"/>
      <path d="M 34.28125 27.484375 
Q 23.390625 27.484375 19.1875 25 
Q 14.984375 22.515625 14.984375 16.5 
Q 14.984375 11.71875 18.140625 8.90625 
Q 21.296875 6.109375 26.703125 6.109375 
Q 34.1875 6.109375 38.703125 11.40625 
Q 43.21875 16.703125 43.21875 25.484375 
L 43.21875 27.484375 
z
M 52.203125 31.203125 
L 52.203125 0 
L 43.21875 0 
L 43.21875 8.296875 
Q 40.140625 3.328125 35.546875 0.953125 
Q 30.953125 -1.421875 24.3125 -1.421875 
Q 15.921875 -1.421875 10.953125 3.296875 
Q 6 8.015625 6 15.921875 
Q 6 25.140625 12.171875 29.828125 
Q 18.359375 34.515625 30.609375 34.515625 
L 43.21875 34.515625 
L 43.21875 35.40625 
Q 43.21875 41.609375 39.140625 45 
Q 35.0625 48.390625 27.6875 48.390625 
Q 23 48.390625 18.546875 47.265625 
Q 14.109375 46.140625 10.015625 43.890625 
L 10.015625 52.203125 
Q 14.9375 54.109375 19.578125 55.046875 
Q 24.21875 56 28.609375 56 
Q 40.484375 56 46.34375 49.84375 
Q 52.203125 43.703125 52.203125 31.203125 
z
" id="DejaVuSans-97"/>
      <path d="M 45.40625 46.390625 
L 45.40625 75.984375 
L 54.390625 75.984375 
L 54.390625 0 
L 45.40625 0 
L 45.40625 8.203125 
Q 42.578125 3.328125 38.25 0.953125 
Q 33.9375 -1.421875 27.875 -1.421875 
Q 17.96875 -1.421875 11.734375 6.484375 
Q 5.515625 14.40625 5.515625 27.296875 
Q 5.515625 40.1875 11.734375 48.09375 
Q 17.96875 56 27.875 56 
Q 33.9375 56 38.25 53.625 
Q 42.578125 51.265625 45.40625 46.390625 
z
M 14.796875 27.296875 
Q 14.796875 17.390625 18.875 11.75 
Q 22.953125 6.109375 30.078125 6.109375 
Q 37.203125 6.109375 41.296875 11.75 
Q 45.40625 17.390625 45.40625 27.296875 
Q 45.40625 37.203125 41.296875 42.84375 
Q 37.203125 48.484375 30.078125 48.484375 
Q 22.953125 48.484375 18.875 42.84375 
Q 14.796875 37.203125 14.796875 27.296875 
z
" id="DejaVuSans-100"/>
      <path d="M 9.421875 54.6875 
L 18.40625 54.6875 
L 18.40625 0 
L 9.421875 0 
z
M 9.421875 75.984375 
L 18.40625 75.984375 
L 18.40625 64.59375 
L 9.421875 64.59375 
z
" id="DejaVuSans-105"/>
      <path d="M 54.890625 33.015625 
L 54.890625 0 
L 45.90625 0 
L 45.90625 32.71875 
Q 45.90625 40.484375 42.875 44.328125 
Q 39.84375 48.1875 33.796875 48.1875 
Q 26.515625 48.1875 22.3125 43.546875 
Q 18.109375 38.921875 18.109375 30.90625 
L 18.109375 0 
L 9.078125 0 
L 9.078125 54.6875 
L 18.109375 54.6875 
L 18.109375 46.1875 
Q 21.34375 51.125 25.703125 53.5625 
Q 30.078125 56 35.796875 56 
Q 45.21875 56 50.046875 50.171875 
Q 54.890625 44.34375 54.890625 33.015625 
z
" id="DejaVuSans-110"/>
     </defs>
     <use xlink:href="#DejaVuSans-103"/>
     <use x="63.476562" xlink:href="#DejaVuSans-98"/>
     <use x="126.953125" xlink:href="#DejaVuSans-114"/>
     <use x="168.066406" xlink:href="#DejaVuSans-32"/>
     <use x="199.853516" xlink:href="#DejaVuSans-104"/>
     <use x="263.232422" xlink:href="#DejaVuSans-101"/>
     <use x="324.755859" xlink:href="#DejaVuSans-97"/>
     <use x="386.035156" xlink:href="#DejaVuSans-100"/>
     <use x="449.511719" xlink:href="#DejaVuSans-105"/>
     <use x="477.294922" xlink:href="#DejaVuSans-110"/>
     <use x="540.673828" xlink:href="#DejaVuSans-103"/>
    </g>
   </g>
   <g id="legend_1">
    <g id="patch_7">
     <path d="M 64.6 93.506375 
L 156.557813 93.506375 
Q 158.557813 93.506375 158.557813 91.506375 
L 158.557813 48.472 
Q 158.557813 46.472 156.557813 46.472 
L 64.6 46.472 
Q 62.6 46.472 62.6 48.472 
L 62.6 91.506375 
Q 62.6 93.506375 64.6 93.506375 
z
" style="fill:#ffffff;opacity:0.8;stroke:#cccccc;stroke-linejoin:miter;"/>
    </g>
    <g id="line2d_17">
     <path d="M 66.6 54.570438 
L 86.6 54.570438 
" style="fill:none;stroke:#1f77b4;stroke-linecap:square;stroke-width:1.5;"/>
    </g>
    <g id="line2d_18"/>
    <g id="text_15">
     <!-- Waypoints -->
     <g transform="translate(94.6 58.070438)scale(0.1 -0.1)">
      <defs>
       <path d="M 3.328125 72.90625 
L 13.28125 72.90625 
L 28.609375 11.28125 
L 43.890625 72.90625 
L 54.984375 72.90625 
L 70.3125 11.28125 
L 85.59375 72.90625 
L 95.609375 72.90625 
L 77.296875 0 
L 64.890625 0 
L 49.515625 63.28125 
L 33.984375 0 
L 21.578125 0 
z
" id="DejaVuSans-87"/>
       <path d="M 32.171875 -5.078125 
Q 28.375 -14.84375 24.75 -17.8125 
Q 21.140625 -20.796875 15.09375 -20.796875 
L 7.90625 -20.796875 
L 7.90625 -13.28125 
L 13.1875 -13.28125 
Q 16.890625 -13.28125 18.9375 -11.515625 
Q 21 -9.765625 23.484375 -3.21875 
L 25.09375 0.875 
L 2.984375 54.6875 
L 12.5 54.6875 
L 29.59375 11.921875 
L 46.6875 54.6875 
L 56.203125 54.6875 
z
" id="DejaVuSans-121"/>
       <path d="M 18.109375 8.203125 
L 18.109375 -20.796875 
L 9.078125 -20.796875 
L 9.078125 54.6875 
L 18.109375 54.6875 
L 18.109375 46.390625 
Q 20.953125 51.265625 25.265625 53.625 
Q 29.59375 56 35.59375 56 
Q 45.5625 56 51.78125 48.09375 
Q 58.015625 40.1875 58.015625 27.296875 
Q 58.015625 14.40625 51.78125 6.484375 
Q 45.5625 -1.421875 35.59375 -1.421875 
Q 29.59375 -1.421875 25.265625 0.953125 
Q 20.953125 3.328125 18.109375 8.203125 
z
M 48.6875 27.296875 
Q 48.6875 37.203125 44.609375 42.84375 
Q 40.53125 48.484375 33.40625 48.484375 
Q 26.265625 48.484375 22.1875 42.84375 
Q 18.109375 37.203125 18.109375 27.296875 
Q 18.109375 17.390625 22.1875 11.75 
Q 26.265625 6.109375 33.40625 6.109375 
Q 40.53125 6.109375 44.609375 11.75 
Q 48.6875 17.390625 48.6875 27.296875 
z
" id="DejaVuSans-112"/>
       <path d="M 30.609375 48.390625 
Q 23.390625 48.390625 19.1875 42.75 
Q 14.984375 37.109375 14.984375 27.296875 
Q 14.984375 17.484375 19.15625 11.84375 
Q 23.34375 6.203125 30.609375 6.203125 
Q 37.796875 6.203125 41.984375 11.859375 
Q 46.1875 17.53125 46.1875 27.296875 
Q 46.1875 37.015625 41.984375 42.703125 
Q 37.796875 48.390625 30.609375 48.390625 
z
M 30.609375 56 
Q 42.328125 56 49.015625 48.375 
Q 55.71875 40.765625 55.71875 27.296875 
Q 55.71875 13.875 49.015625 6.21875 
Q 42.328125 -1.421875 30.609375 -1.421875 
Q 18.84375 -1.421875 12.171875 6.21875 
Q 5.515625 13.875 5.515625 27.296875 
Q 5.515625 40.765625 12.171875 48.375 
Q 18.84375 56 30.609375 56 
z
" id="DejaVuSans-111"/>
       <path d="M 18.3125 70.21875 
L 18.3125 54.6875 
L 36.8125 54.6875 
L 36.8125 47.703125 
L 18.3125 47.703125 
L 18.3125 18.015625 
Q 18.3125 11.328125 20.140625 9.421875 
Q 21.96875 7.515625 27.59375 7.515625 
L 36.8125 7.515625 
L 36.8125 0 
L 27.59375 0 
Q 17.1875 0 13.234375 3.875 
Q 9.28125 7.765625 9.28125 18.015625 
L 9.28125 47.703125 
L 2.6875 47.703125 
L 2.6875 54.6875 
L 9.28125 54.6875 
L 9.28125 70.21875 
z
" id="DejaVuSans-116"/>
       <path d="M 44.28125 53.078125 
L 44.28125 44.578125 
Q 40.484375 46.53125 36.375 47.5 
Q 32.28125 48.484375 27.875 48.484375 
Q 21.1875 48.484375 17.84375 46.4375 
Q 14.5 44.390625 14.5 40.28125 
Q 14.5 37.15625 16.890625 35.375 
Q 19.28125 33.59375 26.515625 31.984375 
L 29.59375 31.296875 
Q 39.15625 29.25 43.1875 25.515625 
Q 47.21875 21.78125 47.21875 15.09375 
Q 47.21875 7.46875 41.1875 3.015625 
Q 35.15625 -1.421875 24.609375 -1.421875 
Q 20.21875 -1.421875 15.453125 -0.5625 
Q 10.6875 0.296875 5.421875 2 
L 5.421875 11.28125 
Q 10.40625 8.6875 15.234375 7.390625 
Q 20.0625 6.109375 24.8125 6.109375 
Q 31.15625 6.109375 34.5625 8.28125 
Q 37.984375 10.453125 37.984375 14.40625 
Q 37.984375 18.0625 35.515625 20.015625 
Q 33.0625 21.96875 24.703125 23.78125 
L 21.578125 24.515625 
Q 13.234375 26.265625 9.515625 29.90625 
Q 5.8125 33.546875 5.8125 39.890625 
Q 5.8125 47.609375 11.28125 51.796875 
Q 16.75 56 26.8125 56 
Q 31.78125 56 36.171875 55.265625 
Q 40.578125 54.546875 44.28125 53.078125 
z
" id="DejaVuSans-115"/>
      </defs>
      <use xlink:href="#DejaVuSans-87"/>
      <use x="92.501953" xlink:href="#DejaVuSans-97"/>
      <use x="153.78125" xlink:href="#DejaVuSans-121"/>
      <use x="212.960938" xlink:href="#DejaVuSans-112"/>
      <use x="276.4375" xlink:href="#DejaVuSans-111"/>
      <use x="337.619141" xlink:href="#DejaVuSans-105"/>
      <use x="365.402344" xlink:href="#DejaVuSans-110"/>
      <use x="428.78125" xlink:href="#DejaVuSans-116"/>
      <use x="467.990234" xlink:href="#DejaVuSans-115"/>
     </g>
    </g>
    <g id="line2d_19">
     <path d="M 66.6 69.248563 
L 86.6 69.248563 
" style="fill:none;stroke:#ff7f0e;stroke-linecap:square;stroke-width:1.5;"/>
    </g>
    <g id="line2d_20"/>
    <g id="text_16">
     <!-- Stanley -->
     <g transform="translate(94.6 72.748563)scale(0.1 -0.1)">
      <defs>
       <path d="M 53.515625 70.515625 
L 53.515625 60.890625 
Q 47.90625 63.578125 42.921875 64.890625 
Q 37.9375 66.21875 33.296875 66.21875 
Q 25.25 66.21875 20.875 63.09375 
Q 16.5 59.96875 16.5 54.203125 
Q 16.5 49.359375 19.40625 46.890625 
Q 22.3125 44.4375 30.421875 42.921875 
L 36.375 41.703125 
Q 47.40625 39.59375 52.65625 34.296875 
Q 57.90625 29 57.90625 20.125 
Q 57.90625 9.515625 50.796875 4.046875 
Q 43.703125 -1.421875 29.984375 -1.421875 
Q 24.8125 -1.421875 18.96875 -0.25 
Q 13.140625 0.921875 6.890625 3.21875 
L 6.890625 13.375 
Q 12.890625 10.015625 18.65625 8.296875 
Q 24.421875 6.59375 29.984375 6.59375 
Q 38.421875 6.59375 43.015625 9.90625 
Q 47.609375 13.234375 47.609375 19.390625 
Q 47.609375 24.75 44.3125 27.78125 
Q 41.015625 30.8125 33.5 32.328125 
L 27.484375 33.5 
Q 16.453125 35.6875 11.515625 40.375 
Q 6.59375 45.0625 6.59375 53.421875 
Q 6.59375 63.09375 13.40625 68.65625 
Q 20.21875 74.21875 32.171875 74.21875 
Q 37.3125 74.21875 42.625 73.28125 
Q 47.953125 72.359375 53.515625 70.515625 
z
" id="DejaVuSans-83"/>
       <path d="M 9.421875 75.984375 
L 18.40625 75.984375 
L 18.40625 0 
L 9.421875 0 
z
" id="DejaVuSans-108"/>
      </defs>
      <use xlink:href="#DejaVuSans-83"/>
      <use x="63.476562" xlink:href="#DejaVuSans-116"/>
      <use x="102.685547" xlink:href="#DejaVuSans-97"/>
      <use x="163.964844" xlink:href="#DejaVuSans-110"/>
      <use x="227.34375" xlink:href="#DejaVuSans-108"/>
      <use x="255.126953" xlink:href="#DejaVuSans-101"/>
      <use x="316.650391" xlink:href="#DejaVuSans-121"/>
     </g>
    </g>
    <g id="line2d_21">
     <path d="M 66.6 83.926688 
L 86.6 83.926688 
" style="fill:none;stroke:#2ca02c;stroke-linecap:square;stroke-width:1.5;"/>
    </g>
    <g id="line2d_22"/>
    <g id="text_17">
     <!-- Pure Pursuit -->
     <g transform="translate(94.6 87.426688)scale(0.1 -0.1)">
      <defs>
       <path d="M 19.671875 64.796875 
L 19.671875 37.40625 
L 32.078125 37.40625 
Q 38.96875 37.40625 42.71875 40.96875 
Q 46.484375 44.53125 46.484375 51.125 
Q 46.484375 57.671875 42.71875 61.234375 
Q 38.96875 64.796875 32.078125 64.796875 
z
M 9.8125 72.90625 
L 32.078125 72.90625 
Q 44.34375 72.90625 50.609375 67.359375 
Q 56.890625 61.8125 56.890625 51.125 
Q 56.890625 40.328125 50.609375 34.8125 
Q 44.34375 29.296875 32.078125 29.296875 
L 19.671875 29.296875 
L 19.671875 0 
L 9.8125 0 
z
" id="DejaVuSans-80"/>
       <path d="M 8.5 21.578125 
L 8.5 54.6875 
L 17.484375 54.6875 
L 17.484375 21.921875 
Q 17.484375 14.15625 20.5 10.265625 
Q 23.53125 6.390625 29.59375 6.390625 
Q 36.859375 6.390625 41.078125 11.03125 
Q 45.3125 15.671875 45.3125 23.6875 
L 45.3125 54.6875 
L 54.296875 54.6875 
L 54.296875 0 
L 45.3125 0 
L 45.3125 8.40625 
Q 42.046875 3.421875 37.71875 1 
Q 33.40625 -1.421875 27.6875 -1.421875 
Q 18.265625 -1.421875 13.375 4.4375 
Q 8.5 10.296875 8.5 21.578125 
z
M 31.109375 56 
z
" id="DejaVuSans-117"/>
      </defs>
      <use xlink:href="#DejaVuSans-80"/>
      <use x="58.552734" xlink:href="#DejaVuSans-117"/>
      <use x="121.931641" xlink:href="#DejaVuSans-114"/>
      <use x="160.794922" xlink:href="#DejaVuSans-101"/>
      <use x="222.318359" xlink:href="#DejaVuSans-32"/>
      <use x="254.105469" xlink:href="#DejaVuSans-80"/>
      <use x="312.658203" xlink:href="#DejaVuSans-117"/>
      <use x="376.037109" xlink:href="#DejaVuSans-114"/>
      <use x="417.150391" xlink:href="#DejaVuSans-115"/>
      <use x="469.25" xlink:href="#DejaVuSans-117"/>
      <use x="532.628906" xlink:href="#DejaVuSans-105"/>
      <use x="560.412109" xlink:href="#DejaVuSans-116"/>
     </g>
    </g>
   </g>
  </g>
 </g>
 <defs>
  <clipPath id="pd29b20f1e5">
   <rect height="266.112" width="357.12" x="57.6" y="41.472"/>
  </clipPath>
 </defs>
</svg>
