<?xml version="1.0" encoding="utf-8" standalone="no"?>
<!DOCTYPE svg PUBLIC "-//W3C//DTD SVG 1.1//EN"
  "http://www.w3.org/Graphics/SVG/1.1/DTD/svg11.dtd">
<!-- Created with matplotlib (https://matplotlib.org/) -->
<svg height="345.6pt" version="1.1" viewBox="0 0 460.8 345.6" width="460.8pt" xmlns="http://www.w3.org/2000/svg" xmlns:xlink="http://www.w3.org/1999/xlink">
 <metadata>
  <rdf:RDF xmlns:cc="http://creativecommons.org/ns#" xmlns:dc="http://purl.org/dc/elements/1.1/" xmlns:rdf="http://www.w3.org/1999/02/22-rdf-syntax-ns#">
   <cc:Work>
    <dc:type rdf:resource="http://purl.org/dc/dcmitype/StillImage"/>
    <dc:date>2024-10-03T15:12:50.223544</dc:date>
    <dc:format>image/svg+xml</dc:format>
    <dc:creator>
     <cc:Agent>
      <dc:title>Matplotlib v3.3.1, https://matplotlib.org/</dc:title>
     </cc:Agent>
    </dc:creator>
   </cc:Work>
  </rdf:RDF>
 </metadata>
 <defs>
  <style type="text/css">*{stroke-linecap:butt;stroke-linejoin:round;}</style>
 </defs>
 <g id="figure_1">
  <g id="patch_1">
   <path d="M 0 345.6 
L 460.8 345.6 
L 460.8 0 
L 0 0 
z
" style="fill:#ffffff;"/>
  </g>
  <g id="axes_1">
   <g id="patch_2">
    <path d="M 57.6 307.584 
L 414.72 307.584 
L 414.72 41.472 
L 57.6 41.472 
z
" style="fill:#ffffff;"/>
   </g>
   <g id="matplotlib.axis_1">
    <g id="xtick_1">
     <g id="line2d_1">
      <defs>
       <path d="M 0 0 
L 0 3.5 
" id="maf9f5a8ebf" style="stroke:#000000;stroke-width:0.8;"/>
      </defs>
      <g>
       <use style="stroke:#000000;stroke-width:0.8;" x="73.832727" xlink:href="#maf9f5a8ebf" y="307.584"/>
      </g>
     </g>
     <g id="text_1">
      <!-- 0.0 -->
      <g transform="translate(65.881165 322.182437)scale(0.1 -0.1)">
       <defs>
        <path d="M 31.78125 66.40625 
Q 24.171875 66.40625 20.328125 58.90625 
Q 16.5 51.421875 16.5 36.375 
Q 16.5 21.390625 20.328125 13.890625 
Q 24.171875 6.390625 31.78125 6.390625 
Q 39.453125 6.390625 43.28125 13.890625 
Q 47.125 21.390625 47.125 36.375 
Q 47.125 51.421875 43.28125 58.90625 
Q 39.453125 66.40625 31.78125 66.40625 
z
M 31.78125 74.21875 
Q 44.046875 74.21875 50.515625 64.515625 
Q 56.984375 54.828125 56.984375 36.375 
Q 56.984375 17.96875 50.515625 8.265625 
Q 44.046875 -1.421875 31.78125 -1.421875 
Q 19.53125 -1.421875 13.0625 8.265625 
Q 6.59375 17.96875 6.59375 36.375 
Q 6.59375 54.828125 13.0625 64.515625 
Q 19.53125 74.21875 31.78125 74.21875 
z
" id="DejaVuSans-48"/>
        <path d="M 10.6875 12.40625 
L 21 12.40625 
L 21 0 
L 10.6875 0 
z
" id="DejaVuSans-46"/>
       </defs>
       <use xlink:href="#DejaVuSans-48"/>
       <use x="63.623047" xlink:href="#DejaVuSans-46"/>
       <use x="95.410156" xlink:href="#DejaVuSans-48"/>
      </g>
     </g>
    </g>
    <g id="xtick_2">
     <g id="line2d_2">
      <g>
       <use style="stroke:#000000;stroke-width:0.8;" x="138.763636" xlink:href="#maf9f5a8ebf" y="307.584"/>
      </g>
     </g>
     <g id="text_2">
      <!-- 0.2 -->
      <g transform="translate(130.812074 322.182437)scale(0.1 -0.1)">
       <defs>
        <path d="M 19.1875 8.296875 
L 53.609375 8.296875 
L 53.609375 0 
L 7.328125 0 
L 7.328125 8.296875 
Q 12.9375 14.109375 22.625 23.890625 
Q 32.328125 33.6875 34.8125 36.53125 
Q 39.546875 41.84375 41.421875 45.53125 
Q 43.3125 49.21875 43.3125 52.78125 
Q 43.3125 58.59375 39.234375 62.25 
Q 35.15625 65.921875 28.609375 65.921875 
Q 23.96875 65.921875 18.8125 64.3125 
Q 13.671875 62.703125 7.8125 59.421875 
L 7.8125 69.390625 
Q 13.765625 71.78125 18.9375 73 
Q 24.125 74.21875 28.421875 74.21875 
Q 39.75 74.21875 46.484375 68.546875 
Q 53.21875 62.890625 53.21875 53.421875 
Q 53.21875 48.921875 51.53125 44.890625 
Q 49.859375 40.875 45.40625 35.40625 
Q 44.1875 33.984375 37.640625 27.21875 
Q 31.109375 20.453125 19.1875 8.296875 
z
" id="DejaVuSans-50"/>
       </defs>
       <use xlink:href="#DejaVuSans-48"/>
       <use x="63.623047" xlink:href="#DejaVuSans-46"/>
       <use x="95.410156" xlink:href="#DejaVuSans-50"/>
      </g>
     </g>
    </g>
    <g id="xtick_3">
     <g id="line2d_3">
      <g>
       <use style="stroke:#000000;stroke-width:0.8;" x="203.694545" xlink:href="#maf9f5a8ebf" y="307.584"/>
      </g>
     </g>
     <g id="text_3">
      <!-- 0.4 -->
      <g transform="translate(195.742983 322.182437)scale(0.1 -0.1)">
       <defs>
        <path d="M 37.796875 64.3125 
L 12.890625 25.390625 
L 37.796875 25.390625 
z
M 35.203125 72.90625 
L 47.609375 72.90625 
L 47.609375 25.390625 
L 58.015625 25.390625 
L 58.015625 17.1875 
L 47.609375 17.1875 
L 47.609375 0 
L 37.796875 0 
L 37.796875 17.1875 
L 4.890625 17.1875 
L 4.890625 26.703125 
z
" id="DejaVuSans-52"/>
       </defs>
       <use xlink:href="#DejaVuSans-48"/>
       <use x="63.623047" xlink:href="#DejaVuSans-46"/>
       <use x="95.410156" xlink:href="#DejaVuSans-52"/>
      </g>
     </g>
    </g>
    <g id="xtick_4">
     <g id="line2d_4">
      <g>
       <use style="stroke:#000000;stroke-width:0.8;" x="268.625455" xlink:href="#maf9f5a8ebf" y="307.584"/>
      </g>
     </g>
     <g id="text_4">
      <!-- 0.6 -->
      <g transform="translate(260.673892 322.182437)scale(0.1 -0.1)">
       <defs>
        <path d="M 33.015625 40.375 
Q 26.375 40.375 22.484375 35.828125 
Q 18.609375 31.296875 18.609375 23.390625 
Q 18.609375 15.53125 22.484375 10.953125 
Q 26.375 6.390625 33.015625 6.390625 
Q 39.65625 6.390625 43.53125 10.953125 
Q 47.40625 15.53125 47.40625 23.390625 
Q 47.40625 31.296875 43.53125 35.828125 
Q 39.65625 40.375 33.015625 40.375 
z
M 52.59375 71.296875 
L 52.59375 62.3125 
Q 48.875 64.0625 45.09375 64.984375 
Q 41.3125 65.921875 37.59375 65.921875 
Q 27.828125 65.921875 22.671875 59.328125 
Q 17.53125 52.734375 16.796875 39.40625 
Q 19.671875 43.65625 24.015625 45.921875 
Q 28.375 48.1875 33.59375 48.1875 
Q 44.578125 48.1875 50.953125 41.515625 
Q 57.328125 34.859375 57.328125 23.390625 
Q 57.328125 12.15625 50.6875 5.359375 
Q 44.046875 -1.421875 33.015625 -1.421875 
Q 20.359375 -1.421875 13.671875 8.265625 
Q 6.984375 17.96875 6.984375 36.375 
Q 6.984375 53.65625 15.1875 63.9375 
Q 23.390625 74.21875 37.203125 74.21875 
Q 40.921875 74.21875 44.703125 73.484375 
Q 48.484375 72.75 52.59375 71.296875 
z
" id="DejaVuSans-54"/>
       </defs>
       <use xlink:href="#DejaVuSans-48"/>
       <use x="63.623047" xlink:href="#DejaVuSans-46"/>
       <use x="95.410156" xlink:href="#DejaVuSans-54"/>
      </g>
     </g>
    </g>
    <g id="xtick_5">
     <g id="line2d_5">
      <g>
       <use style="stroke:#000000;stroke-width:0.8;" x="333.556364" xlink:href="#maf9f5a8ebf" y="307.584"/>
      </g>
     </g>
     <g id="text_5">
      <!-- 0.8 -->
      <g transform="translate(325.604801 322.182437)scale(0.1 -0.1)">
       <defs>
        <path d="M 31.78125 34.625 
Q 24.75 34.625 20.71875 30.859375 
Q 16.703125 27.09375 16.703125 20.515625 
Q 16.703125 13.921875 20.71875 10.15625 
Q 24.75 6.390625 31.78125 6.390625 
Q 38.8125 6.390625 42.859375 10.171875 
Q 46.921875 13.96875 46.921875 20.515625 
Q 46.921875 27.09375 42.890625 30.859375 
Q 38.875 34.625 31.78125 34.625 
z
M 21.921875 38.8125 
Q 15.578125 40.375 12.03125 44.71875 
Q 8.5 49.078125 8.5 55.328125 
Q 8.5 64.0625 14.71875 69.140625 
Q 20.953125 74.21875 31.78125 74.21875 
Q 42.671875 74.21875 48.875 69.140625 
Q 55.078125 64.0625 55.078125 55.328125 
Q 55.078125 49.078125 51.53125 44.71875 
Q 48 40.375 41.703125 38.8125 
Q 48.828125 37.15625 52.796875 32.3125 
Q 56.78125 27.484375 56.78125 20.515625 
Q 56.78125 9.90625 50.3125 4.234375 
Q 43.84375 -1.421875 31.78125 -1.421875 
Q 19.734375 -1.421875 13.25 4.234375 
Q 6.78125 9.90625 6.78125 20.515625 
Q 6.78125 27.484375 10.78125 32.3125 
Q 14.796875 37.15625 21.921875 38.8125 
z
M 18.3125 54.390625 
Q 18.3125 48.734375 21.84375 45.5625 
Q 25.390625 42.390625 31.78125 42.390625 
Q 38.140625 42.390625 41.71875 45.5625 
Q 45.3125 48.734375 45.3125 54.390625 
Q 45.3125 60.0625 41.71875 63.234375 
Q 38.140625 66.40625 31.78125 66.40625 
Q 25.390625 66.40625 21.84375 63.234375 
Q 18.3125 60.0625 18.3125 54.390625 
z
" id="DejaVuSans-56"/>
       </defs>
       <use xlink:href="#DejaVuSans-48"/>
       <use x="63.623047" xlink:href="#DejaVuSans-46"/>
       <use x="95.410156" xlink:href="#DejaVuSans-56"/>
      </g>
     </g>
    </g>
    <g id="xtick_6">
     <g id="line2d_6">
      <g>
       <use style="stroke:#000000;stroke-width:0.8;" x="398.487273" xlink:href="#maf9f5a8ebf" y="307.584"/>
      </g>
     </g>
     <g id="text_6">
      <!-- 1.0 -->
      <g transform="translate(390.53571 322.182437)scale(0.1 -0.1)">
       <defs>
        <path d="M 12.40625 8.296875 
L 28.515625 8.296875 
L 28.515625 63.921875 
L 10.984375 60.40625 
L 10.984375 69.390625 
L 28.421875 72.90625 
L 38.28125 72.90625 
L 38.28125 8.296875 
L 54.390625 8.296875 
L 54.390625 0 
L 12.40625 0 
z
" id="DejaVuSans-49"/>
       </defs>
       <use xlink:href="#DejaVuSans-49"/>
       <use x="63.623047" xlink:href="#DejaVuSans-46"/>
       <use x="95.410156" xlink:href="#DejaVuSans-48"/>
      </g>
     </g>
    </g>
   </g>
   <g id="matplotlib.axis_2">
    <g id="ytick_1">
     <g id="line2d_7">
      <defs>
       <path d="M 0 0 
L -3.5 0 
" id="m534392870f" style="stroke:#000000;stroke-width:0.8;"/>
      </defs>
      <g>
       <use style="stroke:#000000;stroke-width:0.8;" x="57.6" xlink:href="#m534392870f" y="290.088477"/>
      </g>
     </g>
     <g id="text_7">
      <!-- −3 -->
      <g transform="translate(35.857813 293.887696)scale(0.1 -0.1)">
       <defs>
        <path d="M 10.59375 35.5 
L 73.1875 35.5 
L 73.1875 27.203125 
L 10.59375 27.203125 
z
" id="DejaVuSans-8722"/>
        <path d="M 40.578125 39.3125 
Q 47.65625 37.796875 51.625 33 
Q 55.609375 28.21875 55.609375 21.1875 
Q 55.609375 10.40625 48.1875 4.484375 
Q 40.765625 -1.421875 27.09375 -1.421875 
Q 22.515625 -1.421875 17.65625 -0.515625 
Q 12.796875 0.390625 7.625 2.203125 
L 7.625 11.71875 
Q 11.71875 9.328125 16.59375 8.109375 
Q 21.484375 6.890625 26.8125 6.890625 
Q 36.078125 6.890625 40.9375 10.546875 
Q 45.796875 14.203125 45.796875 21.1875 
Q 45.796875 27.640625 41.28125 31.265625 
Q 36.765625 34.90625 28.71875 34.90625 
L 20.21875 34.90625 
L 20.21875 43.015625 
L 29.109375 43.015625 
Q 36.375 43.015625 40.234375 45.921875 
Q 44.09375 48.828125 44.09375 54.296875 
Q 44.09375 59.90625 40.109375 62.90625 
Q 36.140625 65.921875 28.71875 65.921875 
Q 24.65625 65.921875 20.015625 65.03125 
Q 15.375 64.15625 9.8125 62.3125 
L 9.8125 71.09375 
Q 15.4375 72.65625 20.34375 73.4375 
Q 25.25 74.21875 29.59375 74.21875 
Q 40.828125 74.21875 47.359375 69.109375 
Q 53.90625 64.015625 53.90625 55.328125 
Q 53.90625 49.265625 50.4375 45.09375 
Q 46.96875 40.921875 40.578125 39.3125 
z
" id="DejaVuSans-51"/>
       </defs>
       <use xlink:href="#DejaVuSans-8722"/>
       <use x="83.789062" xlink:href="#DejaVuSans-51"/>
      </g>
     </g>
    </g>
    <g id="ytick_2">
     <g id="line2d_8">
      <g>
       <use style="stroke:#000000;stroke-width:0.8;" x="57.6" xlink:href="#m534392870f" y="251.567331"/>
      </g>
     </g>
     <g id="text_8">
      <!-- −2 -->
      <g transform="translate(35.857813 255.36655)scale(0.1 -0.1)">
       <use xlink:href="#DejaVuSans-8722"/>
       <use x="83.789062" xlink:href="#DejaVuSans-50"/>
      </g>
     </g>
    </g>
    <g id="ytick_3">
     <g id="line2d_9">
      <g>
       <use style="stroke:#000000;stroke-width:0.8;" x="57.6" xlink:href="#m534392870f" y="213.046185"/>
      </g>
     </g>
     <g id="text_9">
      <!-- −1 -->
      <g transform="translate(35.857813 216.845404)scale(0.1 -0.1)">
       <use xlink:href="#DejaVuSans-8722"/>
       <use x="83.789062" xlink:href="#DejaVuSans-49"/>
      </g>
     </g>
    </g>
    <g id="ytick_4">
     <g id="line2d_10">
      <g>
       <use style="stroke:#000000;stroke-width:0.8;" x="57.6" xlink:href="#m534392870f" y="174.525039"/>
      </g>
     </g>
     <g id="text_10">
      <!-- 0 -->
      <g transform="translate(44.2375 178.324257)scale(0.1 -0.1)">
       <use xlink:href="#DejaVuSans-48"/>
      </g>
     </g>
    </g>
    <g id="ytick_5">
     <g id="line2d_11">
      <g>
       <use style="stroke:#000000;stroke-width:0.8;" x="57.6" xlink:href="#m534392870f" y="136.003892"/>
      </g>
     </g>
     <g id="text_11">
      <!-- 1 -->
      <g transform="translate(44.2375 139.803111)scale(0.1 -0.1)">
       <use xlink:href="#DejaVuSans-49"/>
      </g>
     </g>
    </g>
    <g id="ytick_6">
     <g id="line2d_12">
      <g>
       <use style="stroke:#000000;stroke-width:0.8;" x="57.6" xlink:href="#m534392870f" y="97.482746"/>
      </g>
     </g>
     <g id="text_12">
      <!-- 2 -->
      <g transform="translate(44.2375 101.281965)scale(0.1 -0.1)">
       <use xlink:href="#DejaVuSans-50"/>
      </g>
     </g>
    </g>
    <g id="ytick_7">
     <g id="line2d_13">
      <g>
       <use style="stroke:#000000;stroke-width:0.8;" x="57.6" xlink:href="#m534392870f" y="58.9616"/>
      </g>
     </g>
     <g id="text_13">
      <!-- 3 -->
      <g transform="translate(44.2375 62.760819)scale(0.1 -0.1)">
       <use xlink:href="#DejaVuSans-51"/>
      </g>
     </g>
    </g>
   </g>
   <g id="line2d_14">
    <path clip-path="url(#p7fabb74f51)" d="M 73.832727 166.285775 
L 74.022931 166.286058 
L 77.827003 168.993423 
L 81.821278 172.17279 
L 85.435143 175.371402 
L 88.288193 178.045603 
L 91.902055 181.783139 
L 93.804084 184.12493 
L 95.515907 186.582551 
L 97.037524 189.133249 
L 98.368937 191.703156 
L 99.890543 195.126392 
L 101.602334 199.549895 
L 103.314121 204.639502 
L 105.596471 212.392096 
L 107.118034 217.552733 
L 108.449414 221.274866 
L 109.590613 223.870984 
L 110.541621 225.615938 
L 111.682834 227.186424 
L 112.633848 228.055946 
L 113.965272 228.876004 
L 114.916289 229.24373 
L 116.247715 229.469001 
L 118.149751 229.543667 
L 125.37749 229.553303 
L 132.985635 229.340037 
L 139.452559 228.961696 
L 145.919483 228.355892 
L 147.441112 228.027974 
L 148.201925 227.7173 
L 148.962738 227.184777 
L 149.913749 226.197477 
L 150.864758 224.862311 
L 151.815754 223.179458 
L 152.956943 220.709143 
L 154.28832 217.200642 
L 155.809861 212.449101 
L 156.950991 208.262965 
L 158.282251 202.62439 
L 159.613504 196.000597 
L 161.134828 187.166834 
L 162.275724 179.245129 
L 163.606702 169.996875 
L 164.557583 164.817113 
L 165.508473 160.745799 
L 166.269243 158.301571 
L 167.030036 156.566554 
L 167.600642 155.729162 
L 168.17125 155.281044 
L 168.551657 155.199484 
L 168.932064 155.290575 
L 169.502674 155.751855 
L 170.073275 156.58801 
L 170.643875 157.807786 
L 171.404654 160.02731 
L 172.165408 162.914195 
L 173.116269 167.503174 
L 175.398333 179.631072 
L 176.729637 185.286122 
L 177.870776 189.252957 
L 179.011943 192.454615 
L 179.962929 194.557291 
L 180.913935 196.144111 
L 181.674743 197.044468 
L 182.435555 197.609097 
L 183.006165 197.817619 
L 183.766979 197.807711 
L 184.527793 197.480998 
L 185.669013 196.805016 
L 186.239623 196.76032 
L 186.810234 196.931415 
L 187.380844 197.332541 
L 187.95145 197.950836 
L 188.712255 199.124373 
L 189.473047 200.854378 
L 190.233815 203.363173 
L 190.994552 206.656837 
L 191.945452 211.939664 
L 192.896184 218.62313 
L 194.036934 228.82102 
L 194.987472 239.735187 
L 195.747547 251.002669 
L 196.697261 265.494481 
L 197.647844 275.827049 
L 198.408412 281.886313 
L 199.169093 286.331347 
L 199.73964 288.740956 
L 200.310237 290.322175 
L 200.690637 290.955096 
L 201.071042 291.229111 
L 201.261246 291.253215 
L 201.641652 290.959593 
L 202.022053 290.272062 
L 202.592649 288.437386 
L 203.163188 285.677116 
L 203.923842 280.363284 
L 204.684368 273.126975 
L 205.634916 261.011534 
L 206.39501 248.439347 
L 208.864453 203.007417 
L 209.624956 194.290647 
L 210.385616 188.084636 
L 210.956191 185.112454 
L 211.33658 183.939801 
L 211.52678 183.559854 
L 211.907187 183.519132 
L 212.287589 184.286906 
L 212.667976 185.878211 
L 213.238542 189.880352 
L 213.808961 195.511604 
L 215.520267 215.208898 
L 219.133233 253.596176 
L 220.654521 271.157586 
L 221.795606 281.556041 
L 222.936756 289.600376 
L 223.887747 294.773281 
L 224.077941 53.649067 
L 225.028947 57.343238 
L 225.599552 58.995736 
L 226.360365 60.499048 
L 227.691789 61.985714 
L 233.397897 68.078464 
L 241.76685 76.740744 
L 251.08681 86.329386 
L 259.075336 94.96431 
L 266.11284 102.744981 
L 267.634465 103.999078 
L 268.965889 104.852637 
L 270.487516 105.54709 
L 271.818941 105.908327 
L 273.150367 106.039596 
L 274.481792 105.94047 
L 275.813217 105.62244 
L 277.144642 105.083721 
L 278.476065 104.327423 
L 279.997691 103.193204 
L 281.519313 101.778044 
L 283.231134 99.831043 
L 284.752748 97.763457 
L 285.513556 96.762546 
L 285.893963 96.563967 
L 286.27437 96.57953 
L 286.654776 96.821481 
L 287.415585 97.715115 
L 287.795985 98.324857 
L 288.176373 99.333185 
L 289.507746 103.211101 
L 291.029327 106.875803 
L 292.550922 109.884465 
L 293.882327 111.951888 
L 295.02354 113.331768 
L 295.974555 114.211008 
L 297.115774 114.924944 
L 298.066791 115.281505 
L 299.017809 115.419947 
L 299.968827 115.345318 
L 300.919845 115.053741 
L 301.870861 114.546632 
L 302.821877 113.821685 
L 303.963092 112.668832 
L 305.104303 111.194648 
L 306.435705 109.065259 
L 307.767105 106.476889 
L 308.908288 103.744713 
L 310.239637 99.910782 
L 311.570983 95.371882 
L 312.902261 90.063482 
L 314.423696 83.137422 
L 315.945143 76.339424 
L 317.466635 70.428059 
L 318.988163 65.347078 
L 320.509716 60.943159 
L 322.031288 57.154983 
L 323.552878 53.958303 
L 323.743081 53.595695 
L 323.933277 295.276794 
L 325.264683 293.026506 
L 326.59609 291.177163 
L 327.356901 290.419044 
L 329.449134 288.817963 
L 330.400151 288.409056 
L 331.351169 288.238961 
L 332.302187 288.302797 
L 333.253205 288.603207 
L 334.204221 289.134827 
L 335.345438 290.089791 
L 336.486651 291.389703 
L 337.627859 293.019264 
L 338.959265 295.348633 
L 339.14946 53.682171 
L 340.100463 55.384965 
L 340.671069 56.0185 
L 341.241679 56.299001 
L 341.622086 56.302299 
L 342.002493 56.161905 
L 342.573101 55.690241 
L 343.143708 54.877656 
L 343.714303 53.744683 
L 343.904507 295.322086 
L 344.665289 293.112756 
L 345.616219 289.524155 
L 346.567145 284.992158 
L 348.088573 277.523652 
L 349.41986 272.021568 
L 350.941396 266.763073 
L 352.272774 262.991132 
L 353.413964 260.368793 
L 354.364963 258.610519 
L 355.315973 257.256777 
L 356.076783 256.441155 
L 356.647392 256.073166 
L 357.027799 256.026127 
L 357.408206 256.198268 
L 357.78861 256.653373 
L 358.359213 257.986815 
L 358.929778 260.059681 
L 359.690492 264.045233 
L 360.45113 269.386312 
L 361.401875 278.073569 
L 362.352217 289.22757 
L 362.732284 294.656739 
L 362.922488 55.657407 
L 364.062545 72.929464 
L 365.393078 89.00061 
L 366.533918 99.718746 
L 367.674945 107.522659 
L 368.435696 111.213747 
L 369.006294 112.854328 
L 371.2887 118.001521 
L 372.239682 120.9915 
L 373.380851 125.347389 
L 374.712201 131.552385 
L 375.853335 137.616716 
L 376.804216 143.954788 
L 377.94533 150.782809 
L 378.706112 153.968349 
L 379.276715 155.475694 
L 379.657119 156.101314 
L 380.037525 156.452217 
L 380.798339 156.808257 
L 385.363225 158.727041 
L 389.167296 160.589258 
L 394.873404 163.716965 
L 398.487273 166.025203 
L 398.487273 166.025203 
" style="fill:none;stroke:#1f77b4;stroke-linecap:square;stroke-width:1.5;"/>
   </g>
   <g id="line2d_15">
    <path clip-path="url(#p7fabb74f51)" d="M 73.832727 166.970568 
L 75.799194 168.378637 
L 77.463625 170.519977 
L 77.463625 170.519977 
L 78.068942 170.982917 
L 78.068942 170.982917 
L 78.522949 171.041868 
L 79.279656 171.027312 
L 79.279656 171.027312 
L 79.885042 171.21976 
L 79.885042 171.21976 
L 80.339092 171.67405 
L 80.944503 172.628341 
L 82.003997 174.356628 
L 82.458074 174.681951 
L 82.912155 174.672578 
L 82.912155 174.672578 
L 83.820325 174.413004 
L 84.274414 174.716852 
L 84.879869 175.555967 
L 85.788057 177.289852 
L 86.69625 178.952383 
L 87.150349 179.411164 
L 87.150349 179.411164 
L 87.604448 179.492479 
L 88.815382 179.210861 
L 89.269483 179.602527 
L 89.723585 180.26961 
L 91.842728 184.407998 
L 92.296832 184.601018 
L 93.507774 184.656956 
L 93.961877 185.174258 
L 94.415981 186.127176 
L 94.415981 186.127176 
L 95.324187 188.792349 
L 95.929577 190.279671 
L 97.127745 192.257847 
L 98.438492 194.453647 
L 99.149179 196.29141 
L 99.149179 196.29141 
L 101.48304 203.081912 
L 102.413191 204.951759 
L 102.413191 204.951759 
L 103.068943 206.784073 
L 103.977501 210.308124 
L 103.977501 210.308124 
L 105.259896 215.231768 
L 106.024917 217.163076 
L 106.024917 217.163076 
L 106.662803 218.833995 
L 107.430121 221.477482 
L 108.459878 225.170089 
L 109.109834 226.648964 
L 109.109834 226.648964 
L 109.89913 227.798654 
L 111.244696 229.327435 
L 111.244696 229.327435 
L 111.796276 229.614153 
L 111.796276 229.614153 
L 113.212005 229.903335 
L 114.959345 231.385958 
L 115.401624 231.335054 
L 116.142219 230.900988 
L 118.532226 229.264166 
L 118.982657 229.368982 
L 120.487338 229.987597 
L 121.090272 229.793413 
L 122.146439 229.134149 
L 122.901466 228.695796 
L 123.354676 228.709873 
L 124.110289 229.062534 
L 125.622253 229.929187 
L 126.075985 229.846052 
L 126.075985 229.846052 
L 126.832315 229.443631 
L 127.588755 229.050144 
L 128.193971 229.133201 
L 129.101877 229.628596 
L 129.101877 229.628596 
L 130.00986 230.144784 
L 130.615215 230.056191 
L 131.523285 229.543815 
L 131.523285 229.543815 
L 133.036808 228.54174 
L 133.642237 228.631441 
L 134.399033 229.05572 
L 135.458563 229.707362 
L 136.064015 229.635575 
L 136.820836 229.238102 
L 138.334489 228.378462 
L 138.788587 228.470161 
L 138.788587 228.470161 
L 139.545419 228.88632 
L 140.302253 229.290965 
L 140.907722 229.214296 
L 141.815926 228.724714 
L 141.815926 228.724714 
L 143.026866 227.98053 
L 143.026866 227.98053 
L 143.632337 228.071868 
L 143.632337 228.071868 
L 144.540544 228.594435 
L 144.994648 228.862581 
L 145.448751 228.89903 
L 145.448751 228.89903 
L 146.054223 228.696733 
L 146.054223 228.696733 
L 147.113799 228.011741 
L 148.925713 226.573921 
L 149.660892 225.721976 
L 149.660892 225.721976 
L 150.653246 224.15896 
L 151.335816 222.787208 
L 151.335816 222.787208 
L 151.997616 220.683441 
L 152.89336 217.705848 
L 152.89336 217.705848 
L 153.877426 215.164536 
L 153.877426 215.164536 
L 154.706648 212.942082 
L 156.065819 207.989701 
L 158.377642 198.751357 
L 159.267314 194.841697 
L 159.845363 192.442588 
L 159.845363 192.442588 
L 160.412213 188.806918 
L 162.428711 175.831189 
L 162.428711 175.831189 
L 163.518769 169.061453 
L 163.518769 169.061453 
L 164.622785 161.825557 
L 164.622785 161.825557 
L 165.091349 160.142746 
L 166.85244 155.587232 
L 167.476203 154.04369 
L 167.905658 153.481842 
L 168.236001 153.35127 
L 168.236001 153.35127 
L 168.573752 153.491247 
L 169.380444 154.183495 
L 169.961752 154.859951 
L 170.4217 155.931811 
L 170.87249 157.696975 
L 171.637672 161.732873 
L 172.482348 166.35651 
L 174.127861 174.484508 
L 175.464137 183.597635 
L 175.983099 185.510995 
L 175.983099 185.510995 
L 177.248385 189.012776 
L 177.248385 189.012776 
L 178.333323 192.993362 
L 178.889336 194.425595 
L 179.570937 195.529592 
L 181.607782 198.210782 
L 182.766555 199.472717 
L 183.439524 199.666233 
L 183.439524 199.666233 
L 183.852279 199.668325 
L 184.410605 199.391498 
L 184.832826 199.021808 
L 185.396412 198.109074 
L 185.951214 196.755528 
L 186.876176 194.361099 
L 187.252481 193.98822 
L 187.252481 193.98822 
L 187.37522 194.031703 
L 187.616803 194.453384 
L 187.969317 195.736799 
L 189.374867 202.96789 
L 189.674219 203.180239 
L 190.248885 203.148994 
L 190.248885 203.148994 
L 190.524767 203.832943 
L 190.883125 205.832156 
L 191.484415 211.223089 
L 191.975563 214.977823 
L 191.975563 214.977823 
L 192.523127 217.444136 
L 192.899114 219.172772 
L 192.899114 219.172772 
L 193.263033 221.875921 
L 195.230877 241.921178 
L 195.959284 253.512117 
L 196.690826 264.178885 
L 197.31531 270.530878 
L 199.010354 285.053472 
L 199.84787 288.903688 
L 200.504654 290.850228 
L 201.026231 291.717713 
L 201.560267 292.101243 
L 201.737933 292.06291 
L 202.000426 291.682707 
L 202.256266 290.987335 
L 202.747101 288.426237 
L 203.208678 284.592848 
L 203.92298 279.183116 
L 204.454132 275.830784 
L 204.832174 271.332271 
L 205.832991 257.962582 
L 206.170022 254.087181 
L 206.170022 254.087181 
L 206.61529 246.02246 
L 206.61529 246.02246 
L 208.116274 214.952808 
L 209.094248 201.036217 
L 209.094248 201.036217 
L 209.960226 192.048863 
L 210.492085 187.824584 
L 211.2832 183.889349 
L 211.588004 183.048857 
L 211.819204 182.867265 
L 211.819204 182.867265 
L 211.973773 182.976586 
L 212.204979 183.612447 
L 212.583629 185.687099 
L 213.096533 190.062139 
L 214.376949 204.094179 
L 215.735669 220.645927 
L 217.049119 232.534463 
L 217.049119 232.534463 
L 218.768885 251.941722 
L 218.768885 251.941722 
L 220.183397 268.79092 
L 220.183397 268.79092 
L 220.89998 276.720387 
L 221.558018 281.409357 
L 222.777389 290.068074 
L 223.418735 294.55204 
L 223.582997 295.323534 
L 223.665776 53.627017 
L 223.748972 53.953469 
L 224.873745 57.657951 
L 224.873745 57.657951 
L 226.19266 61.478283 
L 226.800474 62.429827 
L 226.800474 62.429827 
L 227.221985 62.664633 
L 227.221985 62.664633 
L 228.337076 63.109122 
L 229.049468 64.009004 
L 229.049468 64.009004 
L 231.108403 66.680922 
L 231.108403 66.680922 
L 233.068287 68.988139 
L 234.226664 70.564482 
L 234.95966 71.052301 
L 235.402009 71.323353 
L 235.994255 72.018055 
L 236.886883 73.484288 
L 236.886883 73.484288 
L 238.083015 75.482185 
L 238.083015 75.482185 
L 238.833137 76.148623 
L 240.186802 76.882708 
L 240.789493 77.249162 
L 241.392676 78.021717 
L 242.298187 79.643979 
L 242.298187 79.643979 
L 242.902252 80.594758 
L 242.902252 80.594758 
L 243.506567 81.208437 
L 243.506567 81.208437 
L 243.95994 81.309176 
L 245.169384 81.159961 
L 245.623061 81.527113 
L 246.228051 82.406507 
L 247.286981 84.459999 
L 248.194785 86.229857 
L 248.800047 86.883041 
L 249.254018 86.947903 
L 250.010676 86.81332 
L 250.46469 86.940702 
L 250.918717 87.394591 
L 251.67545 88.616466 
L 253.491695 91.79524 
L 254.248488 92.448916 
L 255.762104 93.318002 
L 256.821651 93.950251 
L 256.821651 93.950251 
L 257.42711 94.756997 
L 257.42711 94.756997 
L 258.335302 96.427271 
L 258.940767 97.404465 
L 259.697599 98.182875 
L 260.908534 98.974149 
L 261.66537 99.454243 
L 261.66537 99.454243 
L 262.270839 100.250641 
L 262.270839 100.250641 
L 263.179044 101.899543 
L 264.08725 103.490643 
L 264.08725 103.490643 
L 264.844088 104.257302 
L 266.055031 105.020747 
L 269.233759 106.767371 
L 270.596072 107.535072 
L 271.050176 107.50318 
L 271.807017 107.105626 
L 273.320698 106.157466 
L 273.774803 106.22438 
L 273.774803 106.22438 
L 275.288484 106.753307 
L 275.59122 106.598653 
L 275.59122 106.598653 
L 276.045325 106.068414 
L 276.802166 104.69996 
L 276.802166 104.69996 
L 277.407638 103.672008 
L 277.407638 103.672008 
L 278.01311 102.961227 
L 278.01311 102.961227 
L 278.467215 102.791575 
L 278.921319 102.880555 
L 279.526792 103.092712 
L 279.829528 103.018767 
L 279.829528 103.018767 
L 280.283632 102.599071 
L 280.889105 101.615988 
L 282.705521 97.637478 
L 283.310993 96.941744 
L 284.067833 96.372391 
L 284.067833 96.372391 
L 284.976041 95.725093 
L 285.581378 94.863013 
L 286.180723 93.547221 
L 286.768077 92.469983 
L 287.056916 92.354188 
L 287.056916 92.354188 
L 287.342828 92.605155 
L 287.626636 93.357013 
L 287.626636 93.357013 
L 288.049895 95.385559 
L 288.612154 99.720768 
L 289.596447 107.750022 
L 290.019369 109.817713 
L 290.443422 110.839735 
L 290.443422 110.839735 
L 290.726892 111.015124 
L 291.011096 110.911861 
L 291.011096 110.911861 
L 291.582109 110.594005 
L 291.582109 110.594005 
L 291.869121 110.672394 
L 292.157282 111.062863 
L 292.157282 111.062863 
L 292.591864 112.225087 
L 293.321866 115.26292 
L 293.321866 115.26292 
L 294.205412 118.693427 
L 294.501404 119.29767 
L 294.501404 119.29767 
L 294.798022 119.54384 
L 295.095209 119.42502 
L 295.095209 119.42502 
L 295.54194 118.772846 
L 296.737764 116.55398 
L 297.037554 116.405132 
L 297.337618 116.497636 
L 297.788172 116.957992 
L 298.690663 118.093165 
L 298.690663 118.093165 
L 298.991836 118.2091 
L 299.293154 118.084648 
L 299.293154 118.084648 
L 299.745374 117.54588 
L 300.19785 116.517337 
L 301.556489 112.918726 
L 302.009686 112.488168 
L 302.463006 112.439168 
L 303.671515 112.748705 
L 303.97161 112.456195 
L 304.417195 111.425866 
L 305.001419 109.218519 
L 306.545123 102.592601 
L 306.816294 102.306913 
L 307.084519 102.356485 
L 307.612918 103.044147 
L 308.002597 103.485781 
L 308.002597 103.485781 
L 308.259413 103.535453 
L 308.513998 103.249416 
L 308.513998 103.249416 
L 308.766407 102.633512 
L 309.141108 101.052015 
L 309.755854 96.954426 
L 310.479149 92.261629 
L 310.479149 92.261629 
L 310.83571 90.948553 
L 311.071668 90.537338 
L 311.306378 90.458353 
L 312.004114 90.617252 
L 312.23488 90.262394 
L 312.464894 89.603599 
L 312.808698 87.921813 
L 312.808698 87.921813 
L 314.744071 75.955979 
L 315.313022 74.368299 
L 315.997418 72.467076 
L 315.997418 72.467076 
L 316.570088 70.143919 
L 317.84213 64.19557 
L 317.84213 64.19557 
L 318.310308 62.840225 
L 318.310308 62.840225 
L 319.019658 61.536476 
L 319.738721 60.289207 
L 319.738721 60.289207 
L 320.591727 58.071753 
L 322.223149 53.568 
L 322.223149 53.568 
L 322.351482 295.315822 
L 322.999813 294.192448 
L 324.331676 292.557747 
L 324.331676 292.557747 
L 324.87854 291.789003 
L 324.87854 291.789003 
L 327.002743 287.950906 
L 327.584116 287.446919 
L 328.463936 287.083333 
L 330.541748 286.550836 
L 331.139735 286.843798 
L 332.18926 287.636351 
L 334.446957 289.380677 
L 335.503092 290.174819 
L 335.503092 290.174819 
L 336.107064 291.052974 
L 336.107064 291.052974 
L 336.711302 292.538886 
L 336.711302 292.538886 
L 337.76922 295.46024 
L 337.920394 53.795188 
L 337.920394 53.795188 
L 340.175536 59.284169 
L 341.458047 63.651235 
L 341.458047 63.651235 
L 341.729067 64.03433 
L 341.994505 64.03982 
L 341.994505 64.03982 
L 342.254858 63.481739 
L 342.510416 62.359895 
L 342.510416 62.359895 
L 342.885441 59.575839 
L 343.371511 54.663442 
L 343.49076 295.416173 
L 343.49076 295.416173 
L 344.075373 290.371308 
L 344.41833 289.168788 
L 344.41833 289.168788 
L 344.644272 289.094242 
L 344.868384 289.421692 
L 344.868384 289.421692 
L 345.421995 290.593198 
L 345.641514 290.56588 
L 345.86031 290.009014 
L 346.187655 288.005715 
L 346.187655 288.005715 
L 346.623297 283.160323 
L 346.623297 283.160323 
L 347.603541 270.485439 
L 347.930963 268.363009 
L 347.930963 268.363009 
L 348.149578 267.810207 
L 348.259006 267.801776 
L 348.478169 268.246572 
L 349.2494 270.878297 
L 349.2494 270.878297 
L 349.360236 270.936106 
L 349.582475 270.697899 
L 349.805554 270.042653 
L 350.254463 267.531773 
L 351.280266 260.969124 
L 351.627887 259.918567 
L 351.861427 259.689363 
L 352.096449 259.720944 
L 352.811319 260.144516 
L 353.053104 260.060778 
L 353.419319 259.537835 
L 353.419319 259.537835 
L 353.914417 258.095421 
L 353.914417 258.095421 
L 355.658417 252.036937 
L 356.017177 251.738896 
L 356.250304 251.871271 
L 356.589169 252.455197 
L 357.020429 253.791185 
L 358.002762 257.382033 
L 358.002762 257.382033 
L 358.794664 259.696762 
L 359.284999 262.62301 
L 359.750983 266.794456 
L 360.552378 274.046705 
L 360.552378 274.046705 
L 361.620231 281.793038 
L 361.620231 281.793038 
L 362.121214 289.228635 
L 362.121214 289.228635 
L 362.489523 295.348604 
L 362.55064 54.174553 
L 362.611713 55.000286 
L 363.836262 71.957307 
L 363.836262 71.957307 
L 364.847164 84.633512 
L 364.847164 84.633512 
L 365.774162 93.796687 
L 367.274514 107.014099 
L 367.813268 110.384058 
L 368.294291 111.976287 
L 368.294291 111.976287 
L 368.968743 113.226309 
L 368.968743 113.226309 
L 369.780684 114.841156 
L 370.956845 118.213251 
L 371.990243 121.677441 
L 372.926913 125.499272 
L 372.926913 125.499272 
L 373.640512 129.874779 
L 374.63012 135.938076 
L 375.395626 138.943235 
L 376.053719 141.951622 
L 376.053719 141.951622 
L 376.521382 144.945132 
L 377.741319 154.014606 
L 378.216365 155.775921 
L 378.795692 156.909939 
L 379.79769 158.343702 
L 380.216692 158.626491 
L 380.539385 158.601678 
L 381.208444 158.109635 
L 381.208444 158.109635 
L 381.673456 157.849837 
L 381.673456 157.849837 
L 382.154415 157.915308 
L 382.154415 157.915308 
L 383.429725 158.529325 
L 383.831523 158.667875 
L 384.240434 158.609262 
L 384.240434 158.609262 
L 384.79506 158.473074 
L 384.79506 158.473074 
L 385.500809 158.64234 
L 386.50686 159.16721 
L 386.50686 159.16721 
L 387.089012 159.586259 
L 387.089012 159.586259 
L 387.675293 160.380283 
L 387.675293 160.380283 
L 388.41285 161.310218 
L 389.303338 162.014239 
L 389.899569 162.304409 
L 390.347833 162.245824 
L 390.946735 162.063055 
L 391.5468 162.139465 
L 391.847203 162.316664 
L 391.847203 162.316664 
L 392.298207 162.84373 
L 393.804291 164.997805 
L 394.256749 165.250407 
L 394.256749 165.250407 
L 394.709432 165.203337 
L 395.313305 164.879331 
L 395.766398 164.683108 
L 396.219629 164.697885 
L 396.672979 165.073898 
L 396.672979 165.073898 
L 397.277602 165.990208 
L 397.277602 165.990208 
L 398.487273 168.185818 
L 398.487273 168.185818 
" style="fill:none;stroke:#ff7f0e;stroke-linecap:square;stroke-width:1.5;"/>
   </g>
   <g id="line2d_16">
    <path clip-path="url(#p7fabb74f51)" d="M 73.832727 167.097789 
L 79.713942 170.868128 
L 86.653735 175.552589 
L 87.408098 176.795693 
L 88.765957 179.568587 
L 89.972947 181.958588 
L 90.576443 182.649259 
L 92.085186 183.982149 
L 92.990432 185.500426 
L 95.404425 190.329409 
L 97.210495 194.182221 
L 98.241857 196.734346 
L 99.531635 199.324277 
L 101.056726 201.876466 
L 101.598925 202.943366 
L 102.533973 205.431807 
L 104.361544 211.02512 
L 105.387451 215.091084 
L 106.404922 218.96827 
L 108.059847 223.389428 
L 108.059847 223.389428 
L 108.957824 225.145398 
L 110.258632 227.132088 
L 111.72868 229.053012 
L 111.72868 229.053012 
L 112.277142 229.337803 
L 112.277142 229.337803 
L 113.116164 229.451996 
L 114.260184 229.683708 
L 115.571152 230.251563 
L 117.34392 231.256501 
L 117.790086 231.415065 
L 118.23713 231.347519 
L 118.983838 230.932641 
L 120.481869 230.02907 
L 120.481869 230.02907 
L 120.932172 230.111419 
L 122.435232 230.669127 
L 123.187648 230.377718 
L 124.24172 229.677821 
L 124.693658 229.410693 
L 124.693658 229.410693 
L 125.14569 229.388775 
L 125.748522 229.618449 
L 126.652986 230.081221 
L 127.256076 230.002097 
L 128.160843 229.523465 
L 129.065733 229.024166 
L 129.669045 229.12141 
L 131.328307 229.749762 
L 131.328307 229.749762 
L 132.082572 229.43412 
L 133.591168 228.635171 
L 134.04376 228.731744 
L 134.948956 229.251544 
L 134.948956 229.251544 
L 135.40156 229.517369 
L 135.854166 229.551506 
L 136.457645 229.346499 
L 138.117231 228.464765 
L 138.569848 228.557402 
L 138.569848 228.557402 
L 139.475086 229.063361 
L 139.927706 229.198976 
L 140.531201 229.080933 
L 141.436444 228.56989 
L 142.34169 228.056432 
L 142.945187 228.149869 
L 144.152184 228.565341 
L 144.755683 228.383021 
L 145.660931 227.842079 
L 148.225804 225.974813 
L 148.225804 225.974813 
L 149.575282 224.87797 
L 150.302158 223.945378 
L 151.419569 222.012239 
L 153.989388 216.600921 
L 154.471098 215.358839 
L 155.291986 212.499306 
L 155.973824 209.074031 
L 158.525489 195.431219 
L 160.19127 188.752271 
L 160.19127 188.752271 
L 161.128513 183.638725 
L 162.948683 171.404741 
L 164.126772 163.616602 
L 164.860131 160.154441 
L 165.606538 157.439041 
L 166.179004 156.182326 
L 166.964923 154.958079 
L 167.575443 154.629505 
L 167.994848 154.557281 
L 168.425526 154.77213 
L 168.756851 155.069862 
L 169.323868 155.964862 
L 169.901035 156.882326 
L 169.901035 156.882326 
L 171.272261 158.687855 
L 171.272261 158.687855 
L 171.819961 160.30825 
L 172.353752 162.773187 
L 173.083802 167.501097 
L 175.335052 183.564831 
L 176.262289 188.049004 
L 176.262289 188.049004 
L 177.202848 191.263212 
L 177.733496 192.580674 
L 178.817367 194.427556 
L 178.817367 194.427556 
L 180.635879 197.104565 
L 180.635879 197.104565 
L 181.231328 197.392548 
L 185.314749 198.76668 
L 185.314749 198.76668 
L 186.014717 199.247244 
L 186.694406 200.017507 
L 187.342401 201.117828 
L 188.076441 202.826043 
L 188.652509 204.174734 
L 189.198614 204.970936 
L 189.817295 205.47627 
L 190.306416 205.567256 
L 190.589866 205.674257 
L 191.046893 206.169558 
L 191.312342 206.886886 
L 191.656506 208.571021 
L 192.15326 212.34865 
L 192.706706 218.190146 
L 194.619755 239.318786 
L 195.56004 251.232488 
L 195.56004 251.232488 
L 197.014125 270.077776 
L 197.014125 270.077776 
L 197.824925 278.121124 
L 198.478196 283.126028 
L 199.456972 288.329132 
L 200.059382 290.40298 
L 200.455183 291.144345 
L 200.783851 291.34349 
L 200.95263 291.284697 
L 200.95263 291.284697 
L 201.211241 290.822967 
L 201.474765 289.832363 
L 202.27194 285.821684 
L 202.616193 285.372661 
L 202.947179 285.30338 
L 203.186221 285.293055 
L 203.341737 285.17334 
L 203.341737 285.17334 
L 203.569268 284.543109 
L 203.862967 282.922426 
L 204.215511 279.683104 
L 204.215511 279.683104 
L 204.814199 271.234778 
L 206.133122 248.657517 
L 207.578265 222.693023 
L 208.576633 205.443891 
L 209.374573 195.67471 
L 210.221682 188.366897 
L 210.738158 185.509891 
L 211.215284 184.222671 
L 211.428513 184.057887 
L 211.573893 184.160085 
L 211.796911 184.711455 
L 213.387906 191.123026 
L 213.819006 194.893153 
L 214.456611 203.295072 
L 215.732999 220.681648 
L 215.732999 220.681648 
L 216.96128 234.107263 
L 218.196055 247.060516 
L 220.2461 269.609267 
L 221.816782 283.95516 
L 222.556532 288.823157 
L 223.799106 295.434087 
L 223.87975 53.808825 
L 223.960772 54.226158 
L 224.708821 57.440614 
L 225.40563 59.550877 
L 226.13715 60.916176 
L 226.712427 61.748982 
L 226.712427 61.748982 
L 227.313912 62.075124 
L 228.948904 62.721178 
L 229.538454 63.416447 
L 231.711186 66.331552 
L 233.237269 68.316963 
L 235.25639 71.443721 
L 235.25639 71.443721 
L 236.876507 74.000749 
L 237.618835 74.595633 
L 237.618835 74.595633 
L 238.811737 75.431832 
L 238.811737 75.431832 
L 239.559717 76.553404 
L 240.309079 77.735354 
L 241.059525 78.456747 
L 242.111534 79.124098 
L 243.465814 79.914888 
L 244.068157 80.713518 
L 245.122729 82.28291 
L 246.02701 83.078024 
L 246.02701 83.078024 
L 247.233088 83.979584 
L 247.233088 83.979584 
L 247.987045 85.13668 
L 248.590277 86.015601 
L 249.344382 86.748514 
L 250.70191 87.625997 
L 251.305298 88.037611 
L 251.908706 88.845412 
L 252.813847 90.507321 
L 253.417291 91.477508 
L 254.171609 92.248299 
L 255.378542 93.031591 
L 256.434626 93.671179 
L 257.038109 94.470546 
L 257.943338 96.127408 
L 258.546827 97.096912 
L 259.30119 97.868097 
L 259.30119 97.868097 
L 260.508177 98.652728 
L 260.508177 98.652728 
L 261.41342 99.25322 
L 262.016917 100.091277 
L 263.978283 103.244264 
L 264.88353 103.933793 
L 272.2764 108.184684 
L 272.8799 108.022055 
L 273.78515 107.414298 
L 273.78515 107.414298 
L 277.406151 104.586484 
L 277.406151 104.586484 
L 279.971026 102.877434 
L 283.441152 100.57751 
L 283.441152 100.57751 
L 284.044652 99.721073 
L 284.044652 99.721073 
L 284.949901 98.000216 
L 286.006026 96.003858 
L 286.457412 95.706415 
L 286.457412 95.706415 
L 287.343566 95.565262 
L 288.20144 95.686553 
L 288.20144 95.686553 
L 288.904238 96.091796 
L 289.184371 96.514601 
L 289.604601 97.559139 
L 290.165469 99.651051 
L 291.15064 104.400897 
L 292.429839 110.82258 
L 293.14971 113.121454 
L 294.023068 115.130472 
L 294.757136 116.250609 
L 296.088878 117.865877 
L 296.832987 118.271504 
L 296.832987 118.271504 
L 298.327383 118.765587 
L 298.776899 118.699463 
L 299.376902 118.361031 
L 300.578655 117.361867 
L 303.137329 115.332748 
L 304.78905 114.076078 
L 305.230638 113.315859 
L 305.230638 113.315859 
L 305.809149 111.817448 
L 305.809149 111.817448 
L 306.514937 109.402424 
L 307.472112 105.241041 
L 307.472112 105.241041 
L 309.909068 92.28141 
L 310.639619 90.050317 
L 311.355715 88.576049 
L 312.753479 86.080488 
L 313.44033 84.119047 
L 314.576122 79.685011 
L 315.482743 75.199692 
L 317.07499 67.267502 
L 317.763086 65.056635 
L 318.923227 62.155347 
L 320.225997 58.615725 
L 320.225997 58.615725 
L 321.812963 55.848634 
L 322.947996 53.702463 
L 323.076179 295.488 
L 323.985904 293.964726 
L 325.189739 292.303712 
L 328.155831 288.705845 
L 328.155831 288.705845 
L 329.032133 288.268059 
L 331.102228 287.375232 
L 331.102228 287.375232 
L 332.444802 286.785202 
L 333.043379 286.967816 
L 333.942829 287.575249 
L 337.100264 290.001957 
L 337.100264 290.001957 
L 337.853311 290.585181 
L 338.455959 291.453146 
L 339.209477 292.940346 
L 339.811682 294.697746 
L 339.961696 295.215681 
L 340.111414 53.734078 
L 340.111414 53.734078 
L 342.124076 61.179369 
L 342.913327 63.046204 
L 342.913327 63.046204 
L 343.166724 63.370828 
L 343.415839 63.435022 
L 343.415839 63.435022 
L 343.660896 63.263553 
L 344.021432 62.384171 
L 344.374362 60.848737 
L 344.374362 60.848737 
L 344.834801 57.752267 
L 344.834801 57.752267 
L 345.28606 53.603782 
L 345.28606 53.603782 
L 345.397679 294.49308 
L 347.36514 274.83724 
L 348.016393 270.910201 
L 348.669031 268.278913 
L 349.874499 264.448714 
L 350.540443 263.074122 
L 350.540443 263.074122 
L 352.361687 260.087882 
L 352.361687 260.087882 
L 354.153468 257.293116 
L 354.648633 256.931789 
L 356.739689 255.846925 
L 356.739689 255.846925 
L 356.969675 256.032492 
L 357.194298 256.468888 
L 357.194298 256.468888 
L 357.520049 257.605392 
L 358.32577 260.794623 
L 358.698808 261.419875 
L 358.878988 261.503378 
L 359.141969 261.311866 
L 359.141969 261.311866 
L 359.396766 261.276948 
L 359.643924 261.483388 
L 359.884628 262.143992 
L 360.119196 263.406002 
L 360.119196 263.406002 
L 360.497607 266.830203 
L 361.144192 275.682892 
L 362.456618 295.12783 
L 362.518825 54.015253 
L 362.580812 54.925256 
L 363.922699 73.140816 
L 366.139601 97.732065 
L 366.960462 104.234493 
L 367.903474 109.747605 
L 368.676236 112.918343 
L 368.676236 112.918343 
L 369.247609 114.199036 
L 371.260213 118.146471 
L 371.969359 120.381097 
L 371.969359 120.381097 
L 372.693417 123.733423 
L 373.7287 129.728235 
L 375.705131 142.183396 
L 378.139998 154.434235 
L 378.89541 157.017293 
L 379.278967 157.710842 
L 379.766857 158.013431 
L 379.766857 158.013431 
L 385.585048 160.106667 
L 387.876062 161.021953 
L 388.90208 160.860054 
L 388.90208 160.860054 
L 389.640438 161.135529 
L 390.828695 161.854517 
L 398.487273 166.819894 
L 398.487273 166.819894 
" style="fill:none;stroke:#2ca02c;stroke-linecap:square;stroke-width:1.5;"/>
   </g>
   <g id="patch_3">
    <path d="M 57.6 307.584 
L 57.6 41.472 
" style="fill:none;stroke:#000000;stroke-linecap:square;stroke-linejoin:miter;stroke-width:0.8;"/>
   </g>
   <g id="patch_4">
    <path d="M 414.72 307.584 
L 414.72 41.472 
" style="fill:none;stroke:#000000;stroke-linecap:square;stroke-linejoin:miter;stroke-width:0.8;"/>
   </g>
   <g id="patch_5">
    <path d="M 57.6 307.584 
L 414.72 307.584 
" style="fill:none;stroke:#000000;stroke-linecap:square;stroke-linejoin:miter;stroke-width:0.8;"/>
   </g>
   <g id="patch_6">
    <path d="M 57.6 41.472 
L 414.72 41.472 
" style="fill:none;stroke:#000000;stroke-linecap:square;stroke-linejoin:miter;stroke-width:0.8;"/>
   </g>
   <g id="text_14">
    <!-- mco heading -->
    <g transform="translate(197.179688 35.472)scale(0.12 -0.12)">
     <defs>
      <path d="M 52 44.1875 
Q 55.375 50.25 60.0625 53.125 
Q 64.75 56 71.09375 56 
Q 79.640625 56 84.28125 50.015625 
Q 88.921875 44.046875 88.921875 33.015625 
L 88.921875 0 
L 79.890625 0 
L 79.890625 32.71875 
Q 79.890625 40.578125 77.09375 44.375 
Q 74.3125 48.1875 68.609375 48.1875 
Q 61.625 48.1875 57.5625 43.546875 
Q 53.515625 38.921875 53.515625 30.90625 
L 53.515625 0 
L 44.484375 0 
L 44.484375 32.71875 
Q 44.484375 40.625 41.703125 44.40625 
Q 38.921875 48.1875 33.109375 48.1875 
Q 26.21875 48.1875 22.15625 43.53125 
Q 18.109375 38.875 18.109375 30.90625 
L 18.109375 0 
L 9.078125 0 
L 9.078125 54.6875 
L 18.109375 54.6875 
L 18.109375 46.1875 
Q 21.1875 51.21875 25.484375 53.609375 
Q 29.78125 56 35.6875 56 
Q 41.65625 56 45.828125 52.96875 
Q 50 49.953125 52 44.1875 
z
" id="DejaVuSans-109"/>
      <path d="M 48.78125 52.59375 
L 48.78125 44.1875 
Q 44.96875 46.296875 41.140625 47.34375 
Q 37.3125 48.390625 33.40625 48.390625 
Q 24.65625 48.390625 19.8125 42.84375 
Q 14.984375 37.3125 14.984375 27.296875 
Q 14.984375 17.28125 19.8125 11.734375 
Q 24.65625 6.203125 33.40625 6.203125 
Q 37.3125 6.203125 41.140625 7.25 
Q 44.96875 8.296875 48.78125 10.40625 
L 48.78125 2.09375 
Q 45.015625 0.34375 40.984375 -0.53125 
Q 36.96875 -1.421875 32.421875 -1.421875 
Q 20.0625 -1.421875 12.78125 6.34375 
Q 5.515625 14.109375 5.515625 27.296875 
Q 5.515625 40.671875 12.859375 48.328125 
Q 20.21875 56 33.015625 56 
Q 37.15625 56 41.109375 55.140625 
Q 45.0625 54.296875 48.78125 52.59375 
z
" id="DejaVuSans-99"/>
      <path d="M 30.609375 48.390625 
Q 23.390625 48.390625 19.1875 42.75 
Q 14.984375 37.109375 14.984375 27.296875 
Q 14.984375 17.484375 19.15625 11.84375 
Q 23.34375 6.203125 30.609375 6.203125 
Q 37.796875 6.203125 41.984375 11.859375 
Q 46.1875 17.53125 46.1875 27.296875 
Q 46.1875 37.015625 41.984375 42.703125 
Q 37.796875 48.390625 30.609375 48.390625 
z
M 30.609375 56 
Q 42.328125 56 49.015625 48.375 
Q 55.71875 40.765625 55.71875 27.296875 
Q 55.71875 13.875 49.015625 6.21875 
Q 42.328125 -1.421875 30.609375 -1.421875 
Q 18.84375 -1.421875 12.171875 6.21875 
Q 5.515625 13.875 5.515625 27.296875 
Q 5.515625 40.765625 12.171875 48.375 
Q 18.84375 56 30.609375 56 
z
" id="DejaVuSans-111"/>
      <path id="DejaVuSans-32"/>
      <path d="M 54.890625 33.015625 
L 54.890625 0 
L 45.90625 0 
L 45.90625 32.71875 
Q 45.90625 40.484375 42.875 44.328125 
Q 39.84375 48.1875 33.796875 48.1875 
Q 26.515625 48.1875 22.3125 43.546875 
Q 18.109375 38.921875 18.109375 30.90625 
L 18.109375 0 
L 9.078125 0 
L 9.078125 75.984375 
L 18.109375 75.984375 
L 18.109375 46.1875 
Q 21.34375 51.125 25.703125 53.5625 
Q 30.078125 56 35.796875 56 
Q 45.21875 56 50.046875 50.171875 
Q 54.890625 44.34375 54.890625 33.015625 
z
" id="DejaVuSans-104"/>
      <path d="M 56.203125 29.59375 
L 56.203125 25.203125 
L 14.890625 25.203125 
Q 15.484375 15.921875 20.484375 11.0625 
Q 25.484375 6.203125 34.421875 6.203125 
Q 39.59375 6.203125 44.453125 7.46875 
Q 49.3125 8.734375 54.109375 11.28125 
L 54.109375 2.78125 
Q 49.265625 0.734375 44.1875 -0.34375 
Q 39.109375 -1.421875 33.890625 -1.421875 
Q 20.796875 -1.421875 13.15625 6.1875 
Q 5.515625 13.8125 5.515625 26.8125 
Q 5.515625 40.234375 12.765625 48.109375 
Q 20.015625 56 32.328125 56 
Q 43.359375 56 49.78125 48.890625 
Q 56.203125 41.796875 56.203125 29.59375 
z
M 47.21875 32.234375 
Q 47.125 39.59375 43.09375 43.984375 
Q 39.0625 48.390625 32.421875 48.390625 
Q 24.90625 48.390625 20.390625 44.140625 
Q 15.875 39.890625 15.1875 32.171875 
z
" id="DejaVuSans-101"/>
      <path d="M 34.28125 27.484375 
Q 23.390625 27.484375 19.1875 25 
Q 14.984375 22.515625 14.984375 16.5 
Q 14.984375 11.71875 18.140625 8.90625 
Q 21.296875 6.109375 26.703125 6.109375 
Q 34.1875 6.109375 38.703125 11.40625 
Q 43.21875 16.703125 43.21875 25.484375 
L 43.21875 27.484375 
z
M 52.203125 31.203125 
L 52.203125 0 
L 43.21875 0 
L 43.21875 8.296875 
Q 40.140625 3.328125 35.546875 0.953125 
Q 30.953125 -1.421875 24.3125 -1.421875 
Q 15.921875 -1.421875 10.953125 3.296875 
Q 6 8.015625 6 15.921875 
Q 6 25.140625 12.171875 29.828125 
Q 18.359375 34.515625 30.609375 34.515625 
L 43.21875 34.515625 
L 43.21875 35.40625 
Q 43.21875 41.609375 39.140625 45 
Q 35.0625 48.390625 27.6875 48.390625 
Q 23 48.390625 18.546875 47.265625 
Q 14.109375 46.140625 10.015625 43.890625 
L 10.015625 52.203125 
Q 14.9375 54.109375 19.578125 55.046875 
Q 24.21875 56 28.609375 56 
Q 40.484375 56 46.34375 49.84375 
Q 52.203125 43.703125 52.203125 31.203125 
z
" id="DejaVuSans-97"/>
      <path d="M 45.40625 46.390625 
L 45.40625 75.984375 
L 54.390625 75.984375 
L 54.390625 0 
L 45.40625 0 
L 45.40625 8.203125 
Q 42.578125 3.328125 38.25 0.953125 
Q 33.9375 -1.421875 27.875 -1.421875 
Q 17.96875 -1.421875 11.734375 6.484375 
Q 5.515625 14.40625 5.515625 27.296875 
Q 5.515625 40.1875 11.734375 48.09375 
Q 17.96875 56 27.875 56 
Q 33.9375 56 38.25 53.625 
Q 42.578125 51.265625 45.40625 46.390625 
z
M 14.796875 27.296875 
Q 14.796875 17.390625 18.875 11.75 
Q 22.953125 6.109375 30.078125 6.109375 
Q 37.203125 6.109375 41.296875 11.75 
Q 45.40625 17.390625 45.40625 27.296875 
Q 45.40625 37.203125 41.296875 42.84375 
Q 37.203125 48.484375 30.078125 48.484375 
Q 22.953125 48.484375 18.875 42.84375 
Q 14.796875 37.203125 14.796875 27.296875 
z
" id="DejaVuSans-100"/>
      <path d="M 9.421875 54.6875 
L 18.40625 54.6875 
L 18.40625 0 
L 9.421875 0 
z
M 9.421875 75.984375 
L 18.40625 75.984375 
L 18.40625 64.59375 
L 9.421875 64.59375 
z
" id="DejaVuSans-105"/>
      <path d="M 54.890625 33.015625 
L 54.890625 0 
L 45.90625 0 
L 45.90625 32.71875 
Q 45.90625 40.484375 42.875 44.328125 
Q 39.84375 48.1875 33.796875 48.1875 
Q 26.515625 48.1875 22.3125 43.546875 
Q 18.109375 38.921875 18.109375 30.90625 
L 18.109375 0 
L 9.078125 0 
L 9.078125 54.6875 
L 18.109375 54.6875 
L 18.109375 46.1875 
Q 21.34375 51.125 25.703125 53.5625 
Q 30.078125 56 35.796875 56 
Q 45.21875 56 50.046875 50.171875 
Q 54.890625 44.34375 54.890625 33.015625 
z
" id="DejaVuSans-110"/>
      <path d="M 45.40625 27.984375 
Q 45.40625 37.75 41.375 43.109375 
Q 37.359375 48.484375 30.078125 48.484375 
Q 22.859375 48.484375 18.828125 43.109375 
Q 14.796875 37.75 14.796875 27.984375 
Q 14.796875 18.265625 18.828125 12.890625 
Q 22.859375 7.515625 30.078125 7.515625 
Q 37.359375 7.515625 41.375 12.890625 
Q 45.40625 18.265625 45.40625 27.984375 
z
M 54.390625 6.78125 
Q 54.390625 -7.171875 48.1875 -13.984375 
Q 42 -20.796875 29.203125 -20.796875 
Q 24.46875 -20.796875 20.265625 -20.09375 
Q 16.0625 -19.390625 12.109375 -17.921875 
L 12.109375 -9.1875 
Q 16.0625 -11.328125 19.921875 -12.34375 
Q 23.78125 -13.375 27.78125 -13.375 
Q 36.625 -13.375 41.015625 -8.765625 
Q 45.40625 -4.15625 45.40625 5.171875 
L 45.40625 9.625 
Q 42.625 4.78125 38.28125 2.390625 
Q 33.9375 0 27.875 0 
Q 17.828125 0 11.671875 7.65625 
Q 5.515625 15.328125 5.515625 27.984375 
Q 5.515625 40.671875 11.671875 48.328125 
Q 17.828125 56 27.875 56 
Q 33.9375 56 38.28125 53.609375 
Q 42.625 51.21875 45.40625 46.390625 
L 45.40625 54.6875 
L 54.390625 54.6875 
z
" id="DejaVuSans-103"/>
     </defs>
     <use xlink:href="#DejaVuSans-109"/>
     <use x="97.412109" xlink:href="#DejaVuSans-99"/>
     <use x="152.392578" xlink:href="#DejaVuSans-111"/>
     <use x="213.574219" xlink:href="#DejaVuSans-32"/>
     <use x="245.361328" xlink:href="#DejaVuSans-104"/>
     <use x="308.740234" xlink:href="#DejaVuSans-101"/>
     <use x="370.263672" xlink:href="#DejaVuSans-97"/>
     <use x="431.542969" xlink:href="#DejaVuSans-100"/>
     <use x="495.019531" xlink:href="#DejaVuSans-105"/>
     <use x="522.802734" xlink:href="#DejaVuSans-110"/>
     <use x="586.181641" xlink:href="#DejaVuSans-103"/>
    </g>
   </g>
   <g id="legend_1">
    <g id="patch_7">
     <path d="M 64.6 93.506375 
L 156.557813 93.506375 
Q 158.557813 93.506375 158.557813 91.506375 
L 158.557813 48.472 
Q 158.557813 46.472 156.557813 46.472 
L 64.6 46.472 
Q 62.6 46.472 62.6 48.472 
L 62.6 91.506375 
Q 62.6 93.506375 64.6 93.506375 
z
" style="fill:#ffffff;opacity:0.8;stroke:#cccccc;stroke-linejoin:miter;"/>
    </g>
    <g id="line2d_17">
     <path d="M 66.6 54.570438 
L 86.6 54.570438 
" style="fill:none;stroke:#1f77b4;stroke-linecap:square;stroke-width:1.5;"/>
    </g>
    <g id="line2d_18"/>
    <g id="text_15">
     <!-- Waypoints -->
     <g transform="translate(94.6 58.070438)scale(0.1 -0.1)">
      <defs>
       <path d="M 3.328125 72.90625 
L 13.28125 72.90625 
L 28.609375 11.28125 
L 43.890625 72.90625 
L 54.984375 72.90625 
L 70.3125 11.28125 
L 85.59375 72.90625 
L 95.609375 72.90625 
L 77.296875 0 
L 64.890625 0 
L 49.515625 63.28125 
L 33.984375 0 
L 21.578125 0 
z
" id="DejaVuSans-87"/>
       <path d="M 32.171875 -5.078125 
Q 28.375 -14.84375 24.75 -17.8125 
Q 21.140625 -20.796875 15.09375 -20.796875 
L 7.90625 -20.796875 
L 7.90625 -13.28125 
L 13.1875 -13.28125 
Q 16.890625 -13.28125 18.9375 -11.515625 
Q 21 -9.765625 23.484375 -3.21875 
L 25.09375 0.875 
L 2.984375 54.6875 
L 12.5 54.6875 
L 29.59375 11.921875 
L 46.6875 54.6875 
L 56.203125 54.6875 
z
" id="DejaVuSans-121"/>
       <path d="M 18.109375 8.203125 
L 18.109375 -20.796875 
L 9.078125 -20.796875 
L 9.078125 54.6875 
L 18.109375 54.6875 
L 18.109375 46.390625 
Q 20.953125 51.265625 25.265625 53.625 
Q 29.59375 56 35.59375 56 
Q 45.5625 56 51.78125 48.09375 
Q 58.015625 40.1875 58.015625 27.296875 
Q 58.015625 14.40625 51.78125 6.484375 
Q 45.5625 -1.421875 35.59375 -1.421875 
Q 29.59375 -1.421875 25.265625 0.953125 
Q 20.953125 3.328125 18.109375 8.203125 
z
M 48.6875 27.296875 
Q 48.6875 37.203125 44.609375 42.84375 
Q 40.53125 48.484375 33.40625 48.484375 
Q 26.265625 48.484375 22.1875 42.84375 
Q 18.109375 37.203125 18.109375 27.296875 
Q 18.109375 17.390625 22.1875 11.75 
Q 26.265625 6.109375 33.40625 6.109375 
Q 40.53125 6.109375 44.609375 11.75 
Q 48.6875 17.390625 48.6875 27.296875 
z
" id="DejaVuSans-112"/>
       <path d="M 18.3125 70.21875 
L 18.3125 54.6875 
L 36.8125 54.6875 
L 36.8125 47.703125 
L 18.3125 47.703125 
L 18.3125 18.015625 
Q 18.3125 11.328125 20.140625 9.421875 
Q 21.96875 7.515625 27.59375 7.515625 
L 36.8125 7.515625 
L 36.8125 0 
L 27.59375 0 
Q 17.1875 0 13.234375 3.875 
Q 9.28125 7.765625 9.28125 18.015625 
L 9.28125 47.703125 
L 2.6875 47.703125 
L 2.6875 54.6875 
L 9.28125 54.6875 
L 9.28125 70.21875 
z
" id="DejaVuSans-116"/>
       <path d="M 44.28125 53.078125 
L 44.28125 44.578125 
Q 40.484375 46.53125 36.375 47.5 
Q 32.28125 48.484375 27.875 48.484375 
Q 21.1875 48.484375 17.84375 46.4375 
Q 14.5 44.390625 14.5 40.28125 
Q 14.5 37.15625 16.890625 35.375 
Q 19.28125 33.59375 26.515625 31.984375 
L 29.59375 31.296875 
Q 39.15625 29.25 43.1875 25.515625 
Q 47.21875 21.78125 47.21875 15.09375 
Q 47.21875 7.46875 41.1875 3.015625 
Q 35.15625 -1.421875 24.609375 -1.421875 
Q 20.21875 -1.421875 15.453125 -0.5625 
Q 10.6875 0.296875 5.421875 2 
L 5.421875 11.28125 
Q 10.40625 8.6875 15.234375 7.390625 
Q 20.0625 6.109375 24.8125 6.109375 
Q 31.15625 6.109375 34.5625 8.28125 
Q 37.984375 10.453125 37.984375 14.40625 
Q 37.984375 18.0625 35.515625 20.015625 
Q 33.0625 21.96875 24.703125 23.78125 
L 21.578125 24.515625 
Q 13.234375 26.265625 9.515625 29.90625 
Q 5.8125 33.546875 5.8125 39.890625 
Q 5.8125 47.609375 11.28125 51.796875 
Q 16.75 56 26.8125 56 
Q 31.78125 56 36.171875 55.265625 
Q 40.578125 54.546875 44.28125 53.078125 
z
" id="DejaVuSans-115"/>
      </defs>
      <use xlink:href="#DejaVuSans-87"/>
      <use x="92.501953" xlink:href="#DejaVuSans-97"/>
      <use x="153.78125" xlink:href="#DejaVuSans-121"/>
      <use x="212.960938" xlink:href="#DejaVuSans-112"/>
      <use x="276.4375" xlink:href="#DejaVuSans-111"/>
      <use x="337.619141" xlink:href="#DejaVuSans-105"/>
      <use x="365.402344" xlink:href="#DejaVuSans-110"/>
      <use x="428.78125" xlink:href="#DejaVuSans-116"/>
      <use x="467.990234" xlink:href="#DejaVuSans-115"/>
     </g>
    </g>
    <g id="line2d_19">
     <path d="M 66.6 69.248563 
L 86.6 69.248563 
" style="fill:none;stroke:#ff7f0e;stroke-linecap:square;stroke-width:1.5;"/>
    </g>
    <g id="line2d_20"/>
    <g id="text_16">
     <!-- Stanley -->
     <g transform="translate(94.6 72.748563)scale(0.1 -0.1)">
      <defs>
       <path d="M 53.515625 70.515625 
L 53.515625 60.890625 
Q 47.90625 63.578125 42.921875 64.890625 
Q 37.9375 66.21875 33.296875 66.21875 
Q 25.25 66.21875 20.875 63.09375 
Q 16.5 59.96875 16.5 54.203125 
Q 16.5 49.359375 19.40625 46.890625 
Q 22.3125 44.4375 30.421875 42.921875 
L 36.375 41.703125 
Q 47.40625 39.59375 52.65625 34.296875 
Q 57.90625 29 57.90625 20.125 
Q 57.90625 9.515625 50.796875 4.046875 
Q 43.703125 -1.421875 29.984375 -1.421875 
Q 24.8125 -1.421875 18.96875 -0.25 
Q 13.140625 0.921875 6.890625 3.21875 
L 6.890625 13.375 
Q 12.890625 10.015625 18.65625 8.296875 
Q 24.421875 6.59375 29.984375 6.59375 
Q 38.421875 6.59375 43.015625 9.90625 
Q 47.609375 13.234375 47.609375 19.390625 
Q 47.609375 24.75 44.3125 27.78125 
Q 41.015625 30.8125 33.5 32.328125 
L 27.484375 33.5 
Q 16.453125 35.6875 11.515625 40.375 
Q 6.59375 45.0625 6.59375 53.421875 
Q 6.59375 63.09375 13.40625 68.65625 
Q 20.21875 74.21875 32.171875 74.21875 
Q 37.3125 74.21875 42.625 73.28125 
Q 47.953125 72.359375 53.515625 70.515625 
z
" id="DejaVuSans-83"/>
       <path d="M 9.421875 75.984375 
L 18.40625 75.984375 
L 18.40625 0 
L 9.421875 0 
z
" id="DejaVuSans-108"/>
      </defs>
      <use xlink:href="#DejaVuSans-83"/>
      <use x="63.476562" xlink:href="#DejaVuSans-116"/>
      <use x="102.685547" xlink:href="#DejaVuSans-97"/>
      <use x="163.964844" xlink:href="#DejaVuSans-110"/>
      <use x="227.34375" xlink:href="#DejaVuSans-108"/>
      <use x="255.126953" xlink:href="#DejaVuSans-101"/>
      <use x="316.650391" xlink:href="#DejaVuSans-121"/>
     </g>
    </g>
    <g id="line2d_21">
     <path d="M 66.6 83.926688 
L 86.6 83.926688 
" style="fill:none;stroke:#2ca02c;stroke-linecap:square;stroke-width:1.5;"/>
    </g>
    <g id="line2d_22"/>
    <g id="text_17">
     <!-- Pure Pursuit -->
     <g transform="translate(94.6 87.426688)scale(0.1 -0.1)">
      <defs>
       <path d="M 19.671875 64.796875 
L 19.671875 37.40625 
L 32.078125 37.40625 
Q 38.96875 37.40625 42.71875 40.96875 
Q 46.484375 44.53125 46.484375 51.125 
Q 46.484375 57.671875 42.71875 61.234375 
Q 38.96875 64.796875 32.078125 64.796875 
z
M 9.8125 72.90625 
L 32.078125 72.90625 
Q 44.34375 72.90625 50.609375 67.359375 
Q 56.890625 61.8125 56.890625 51.125 
Q 56.890625 40.328125 50.609375 34.8125 
Q 44.34375 29.296875 32.078125 29.296875 
L 19.671875 29.296875 
L 19.671875 0 
L 9.8125 0 
z
" id="DejaVuSans-80"/>
       <path d="M 8.5 21.578125 
L 8.5 54.6875 
L 17.484375 54.6875 
L 17.484375 21.921875 
Q 17.484375 14.15625 20.5 10.265625 
Q 23.53125 6.390625 29.59375 6.390625 
Q 36.859375 6.390625 41.078125 11.03125 
Q 45.3125 15.671875 45.3125 23.6875 
L 45.3125 54.6875 
L 54.296875 54.6875 
L 54.296875 0 
L 45.3125 0 
L 45.3125 8.40625 
Q 42.046875 3.421875 37.71875 1 
Q 33.40625 -1.421875 27.6875 -1.421875 
Q 18.265625 -1.421875 13.375 4.4375 
Q 8.5 10.296875 8.5 21.578125 
z
M 31.109375 56 
z
" id="DejaVuSans-117"/>
       <path d="M 41.109375 46.296875 
Q 39.59375 47.171875 37.8125 47.578125 
Q 36.03125 48 33.890625 48 
Q 26.265625 48 22.1875 43.046875 
Q 18.109375 38.09375 18.109375 28.8125 
L 18.109375 0 
L 9.078125 0 
L 9.078125 54.6875 
L 18.109375 54.6875 
L 18.109375 46.1875 
Q 20.953125 51.171875 25.484375 53.578125 
Q 30.03125 56 36.53125 56 
Q 37.453125 56 38.578125 55.875 
Q 39.703125 55.765625 41.0625 55.515625 
z
" id="DejaVuSans-114"/>
      </defs>
      <use xlink:href="#DejaVuSans-80"/>
      <use x="58.552734" xlink:href="#DejaVuSans-117"/>
      <use x="121.931641" xlink:href="#DejaVuSans-114"/>
      <use x="160.794922" xlink:href="#DejaVuSans-101"/>
      <use x="222.318359" xlink:href="#DejaVuSans-32"/>
      <use x="254.105469" xlink:href="#DejaVuSans-80"/>
      <use x="312.658203" xlink:href="#DejaVuSans-117"/>
      <use x="376.037109" xlink:href="#DejaVuSans-114"/>
      <use x="417.150391" xlink:href="#DejaVuSans-115"/>
      <use x="469.25" xlink:href="#DejaVuSans-117"/>
      <use x="532.628906" xlink:href="#DejaVuSans-105"/>
      <use x="560.412109" xlink:href="#DejaVuSans-116"/>
     </g>
    </g>
   </g>
  </g>
 </g>
 <defs>
  <clipPath id="p7fabb74f51">
   <rect height="266.112" width="357.12" x="57.6" y="41.472"/>
  </clipPath>
 </defs>
</svg>
