<?xml version="1.0" encoding="utf-8" standalone="no"?>
<!DOCTYPE svg PUBLIC "-//W3C//DTD SVG 1.1//EN"
  "http://www.w3.org/Graphics/SVG/1.1/DTD/svg11.dtd">
<!-- Created with matplotlib (https://matplotlib.org/) -->
<svg height="345.6pt" version="1.1" viewBox="0 0 460.8 345.6" width="460.8pt" xmlns="http://www.w3.org/2000/svg" xmlns:xlink="http://www.w3.org/1999/xlink">
 <metadata>
  <rdf:RDF xmlns:cc="http://creativecommons.org/ns#" xmlns:dc="http://purl.org/dc/elements/1.1/" xmlns:rdf="http://www.w3.org/1999/02/22-rdf-syntax-ns#">
   <cc:Work>
    <dc:type rdf:resource="http://purl.org/dc/dcmitype/StillImage"/>
    <dc:date>2024-10-15T01:05:07.633823</dc:date>
    <dc:format>image/svg+xml</dc:format>
    <dc:creator>
     <cc:Agent>
      <dc:title>Matplotlib v3.3.1, https://matplotlib.org/</dc:title>
     </cc:Agent>
    </dc:creator>
   </cc:Work>
  </rdf:RDF>
 </metadata>
 <defs>
  <style type="text/css">*{stroke-linecap:butt;stroke-linejoin:round;}</style>
 </defs>
 <g id="figure_1">
  <g id="patch_1">
   <path d="M 0 345.6 
L 460.8 345.6 
L 460.8 0 
L 0 0 
z
" style="fill:#ffffff;"/>
  </g>
  <g id="axes_1">
   <g id="patch_2">
    <path d="M 57.6 307.584 
L 414.72 307.584 
L 414.72 41.472 
L 57.6 41.472 
z
" style="fill:#ffffff;"/>
   </g>
   <g id="matplotlib.axis_1">
    <g id="xtick_1">
     <g id="line2d_1">
      <defs>
       <path d="M 0 0 
L 0 3.5 
" id="me0ed201982" style="stroke:#000000;stroke-width:0.8;"/>
      </defs>
      <g>
       <use style="stroke:#000000;stroke-width:0.8;" x="73.832727" xlink:href="#me0ed201982" y="307.584"/>
      </g>
     </g>
     <g id="text_1">
      <!-- 0.0 -->
      <g transform="translate(65.881165 322.182437)scale(0.1 -0.1)">
       <defs>
        <path d="M 31.78125 66.40625 
Q 24.171875 66.40625 20.328125 58.90625 
Q 16.5 51.421875 16.5 36.375 
Q 16.5 21.390625 20.328125 13.890625 
Q 24.171875 6.390625 31.78125 6.390625 
Q 39.453125 6.390625 43.28125 13.890625 
Q 47.125 21.390625 47.125 36.375 
Q 47.125 51.421875 43.28125 58.90625 
Q 39.453125 66.40625 31.78125 66.40625 
z
M 31.78125 74.21875 
Q 44.046875 74.21875 50.515625 64.515625 
Q 56.984375 54.828125 56.984375 36.375 
Q 56.984375 17.96875 50.515625 8.265625 
Q 44.046875 -1.421875 31.78125 -1.421875 
Q 19.53125 -1.421875 13.0625 8.265625 
Q 6.59375 17.96875 6.59375 36.375 
Q 6.59375 54.828125 13.0625 64.515625 
Q 19.53125 74.21875 31.78125 74.21875 
z
" id="DejaVuSans-48"/>
        <path d="M 10.6875 12.40625 
L 21 12.40625 
L 21 0 
L 10.6875 0 
z
" id="DejaVuSans-46"/>
       </defs>
       <use xlink:href="#DejaVuSans-48"/>
       <use x="63.623047" xlink:href="#DejaVuSans-46"/>
       <use x="95.410156" xlink:href="#DejaVuSans-48"/>
      </g>
     </g>
    </g>
    <g id="xtick_2">
     <g id="line2d_2">
      <g>
       <use style="stroke:#000000;stroke-width:0.8;" x="138.763636" xlink:href="#me0ed201982" y="307.584"/>
      </g>
     </g>
     <g id="text_2">
      <!-- 0.2 -->
      <g transform="translate(130.812074 322.182437)scale(0.1 -0.1)">
       <defs>
        <path d="M 19.1875 8.296875 
L 53.609375 8.296875 
L 53.609375 0 
L 7.328125 0 
L 7.328125 8.296875 
Q 12.9375 14.109375 22.625 23.890625 
Q 32.328125 33.6875 34.8125 36.53125 
Q 39.546875 41.84375 41.421875 45.53125 
Q 43.3125 49.21875 43.3125 52.78125 
Q 43.3125 58.59375 39.234375 62.25 
Q 35.15625 65.921875 28.609375 65.921875 
Q 23.96875 65.921875 18.8125 64.3125 
Q 13.671875 62.703125 7.8125 59.421875 
L 7.8125 69.390625 
Q 13.765625 71.78125 18.9375 73 
Q 24.125 74.21875 28.421875 74.21875 
Q 39.75 74.21875 46.484375 68.546875 
Q 53.21875 62.890625 53.21875 53.421875 
Q 53.21875 48.921875 51.53125 44.890625 
Q 49.859375 40.875 45.40625 35.40625 
Q 44.1875 33.984375 37.640625 27.21875 
Q 31.109375 20.453125 19.1875 8.296875 
z
" id="DejaVuSans-50"/>
       </defs>
       <use xlink:href="#DejaVuSans-48"/>
       <use x="63.623047" xlink:href="#DejaVuSans-46"/>
       <use x="95.410156" xlink:href="#DejaVuSans-50"/>
      </g>
     </g>
    </g>
    <g id="xtick_3">
     <g id="line2d_3">
      <g>
       <use style="stroke:#000000;stroke-width:0.8;" x="203.694545" xlink:href="#me0ed201982" y="307.584"/>
      </g>
     </g>
     <g id="text_3">
      <!-- 0.4 -->
      <g transform="translate(195.742983 322.182437)scale(0.1 -0.1)">
       <defs>
        <path d="M 37.796875 64.3125 
L 12.890625 25.390625 
L 37.796875 25.390625 
z
M 35.203125 72.90625 
L 47.609375 72.90625 
L 47.609375 25.390625 
L 58.015625 25.390625 
L 58.015625 17.1875 
L 47.609375 17.1875 
L 47.609375 0 
L 37.796875 0 
L 37.796875 17.1875 
L 4.890625 17.1875 
L 4.890625 26.703125 
z
" id="DejaVuSans-52"/>
       </defs>
       <use xlink:href="#DejaVuSans-48"/>
       <use x="63.623047" xlink:href="#DejaVuSans-46"/>
       <use x="95.410156" xlink:href="#DejaVuSans-52"/>
      </g>
     </g>
    </g>
    <g id="xtick_4">
     <g id="line2d_4">
      <g>
       <use style="stroke:#000000;stroke-width:0.8;" x="268.625455" xlink:href="#me0ed201982" y="307.584"/>
      </g>
     </g>
     <g id="text_4">
      <!-- 0.6 -->
      <g transform="translate(260.673892 322.182437)scale(0.1 -0.1)">
       <defs>
        <path d="M 33.015625 40.375 
Q 26.375 40.375 22.484375 35.828125 
Q 18.609375 31.296875 18.609375 23.390625 
Q 18.609375 15.53125 22.484375 10.953125 
Q 26.375 6.390625 33.015625 6.390625 
Q 39.65625 6.390625 43.53125 10.953125 
Q 47.40625 15.53125 47.40625 23.390625 
Q 47.40625 31.296875 43.53125 35.828125 
Q 39.65625 40.375 33.015625 40.375 
z
M 52.59375 71.296875 
L 52.59375 62.3125 
Q 48.875 64.0625 45.09375 64.984375 
Q 41.3125 65.921875 37.59375 65.921875 
Q 27.828125 65.921875 22.671875 59.328125 
Q 17.53125 52.734375 16.796875 39.40625 
Q 19.671875 43.65625 24.015625 45.921875 
Q 28.375 48.1875 33.59375 48.1875 
Q 44.578125 48.1875 50.953125 41.515625 
Q 57.328125 34.859375 57.328125 23.390625 
Q 57.328125 12.15625 50.6875 5.359375 
Q 44.046875 -1.421875 33.015625 -1.421875 
Q 20.359375 -1.421875 13.671875 8.265625 
Q 6.984375 17.96875 6.984375 36.375 
Q 6.984375 53.65625 15.1875 63.9375 
Q 23.390625 74.21875 37.203125 74.21875 
Q 40.921875 74.21875 44.703125 73.484375 
Q 48.484375 72.75 52.59375 71.296875 
z
" id="DejaVuSans-54"/>
       </defs>
       <use xlink:href="#DejaVuSans-48"/>
       <use x="63.623047" xlink:href="#DejaVuSans-46"/>
       <use x="95.410156" xlink:href="#DejaVuSans-54"/>
      </g>
     </g>
    </g>
    <g id="xtick_5">
     <g id="line2d_5">
      <g>
       <use style="stroke:#000000;stroke-width:0.8;" x="333.556364" xlink:href="#me0ed201982" y="307.584"/>
      </g>
     </g>
     <g id="text_5">
      <!-- 0.8 -->
      <g transform="translate(325.604801 322.182437)scale(0.1 -0.1)">
       <defs>
        <path d="M 31.78125 34.625 
Q 24.75 34.625 20.71875 30.859375 
Q 16.703125 27.09375 16.703125 20.515625 
Q 16.703125 13.921875 20.71875 10.15625 
Q 24.75 6.390625 31.78125 6.390625 
Q 38.8125 6.390625 42.859375 10.171875 
Q 46.921875 13.96875 46.921875 20.515625 
Q 46.921875 27.09375 42.890625 30.859375 
Q 38.875 34.625 31.78125 34.625 
z
M 21.921875 38.8125 
Q 15.578125 40.375 12.03125 44.71875 
Q 8.5 49.078125 8.5 55.328125 
Q 8.5 64.0625 14.71875 69.140625 
Q 20.953125 74.21875 31.78125 74.21875 
Q 42.671875 74.21875 48.875 69.140625 
Q 55.078125 64.0625 55.078125 55.328125 
Q 55.078125 49.078125 51.53125 44.71875 
Q 48 40.375 41.703125 38.8125 
Q 48.828125 37.15625 52.796875 32.3125 
Q 56.78125 27.484375 56.78125 20.515625 
Q 56.78125 9.90625 50.3125 4.234375 
Q 43.84375 -1.421875 31.78125 -1.421875 
Q 19.734375 -1.421875 13.25 4.234375 
Q 6.78125 9.90625 6.78125 20.515625 
Q 6.78125 27.484375 10.78125 32.3125 
Q 14.796875 37.15625 21.921875 38.8125 
z
M 18.3125 54.390625 
Q 18.3125 48.734375 21.84375 45.5625 
Q 25.390625 42.390625 31.78125 42.390625 
Q 38.140625 42.390625 41.71875 45.5625 
Q 45.3125 48.734375 45.3125 54.390625 
Q 45.3125 60.0625 41.71875 63.234375 
Q 38.140625 66.40625 31.78125 66.40625 
Q 25.390625 66.40625 21.84375 63.234375 
Q 18.3125 60.0625 18.3125 54.390625 
z
" id="DejaVuSans-56"/>
       </defs>
       <use xlink:href="#DejaVuSans-48"/>
       <use x="63.623047" xlink:href="#DejaVuSans-46"/>
       <use x="95.410156" xlink:href="#DejaVuSans-56"/>
      </g>
     </g>
    </g>
    <g id="xtick_6">
     <g id="line2d_6">
      <g>
       <use style="stroke:#000000;stroke-width:0.8;" x="398.487273" xlink:href="#me0ed201982" y="307.584"/>
      </g>
     </g>
     <g id="text_6">
      <!-- 1.0 -->
      <g transform="translate(390.53571 322.182437)scale(0.1 -0.1)">
       <defs>
        <path d="M 12.40625 8.296875 
L 28.515625 8.296875 
L 28.515625 63.921875 
L 10.984375 60.40625 
L 10.984375 69.390625 
L 28.421875 72.90625 
L 38.28125 72.90625 
L 38.28125 8.296875 
L 54.390625 8.296875 
L 54.390625 0 
L 12.40625 0 
z
" id="DejaVuSans-49"/>
       </defs>
       <use xlink:href="#DejaVuSans-49"/>
       <use x="63.623047" xlink:href="#DejaVuSans-46"/>
       <use x="95.410156" xlink:href="#DejaVuSans-48"/>
      </g>
     </g>
    </g>
   </g>
   <g id="matplotlib.axis_2">
    <g id="ytick_1">
     <g id="line2d_7">
      <defs>
       <path d="M 0 0 
L -3.5 0 
" id="mf09ca81f70" style="stroke:#000000;stroke-width:0.8;"/>
      </defs>
      <g>
       <use style="stroke:#000000;stroke-width:0.8;" x="57.6" xlink:href="#mf09ca81f70" y="291.864219"/>
      </g>
     </g>
     <g id="text_7">
      <!-- 3 -->
      <g transform="translate(44.2375 295.663438)scale(0.1 -0.1)">
       <defs>
        <path d="M 40.578125 39.3125 
Q 47.65625 37.796875 51.625 33 
Q 55.609375 28.21875 55.609375 21.1875 
Q 55.609375 10.40625 48.1875 4.484375 
Q 40.765625 -1.421875 27.09375 -1.421875 
Q 22.515625 -1.421875 17.65625 -0.515625 
Q 12.796875 0.390625 7.625 2.203125 
L 7.625 11.71875 
Q 11.71875 9.328125 16.59375 8.109375 
Q 21.484375 6.890625 26.8125 6.890625 
Q 36.078125 6.890625 40.9375 10.546875 
Q 45.796875 14.203125 45.796875 21.1875 
Q 45.796875 27.640625 41.28125 31.265625 
Q 36.765625 34.90625 28.71875 34.90625 
L 20.21875 34.90625 
L 20.21875 43.015625 
L 29.109375 43.015625 
Q 36.375 43.015625 40.234375 45.921875 
Q 44.09375 48.828125 44.09375 54.296875 
Q 44.09375 59.90625 40.109375 62.90625 
Q 36.140625 65.921875 28.71875 65.921875 
Q 24.65625 65.921875 20.015625 65.03125 
Q 15.375 64.15625 9.8125 62.3125 
L 9.8125 71.09375 
Q 15.4375 72.65625 20.34375 73.4375 
Q 25.25 74.21875 29.59375 74.21875 
Q 40.828125 74.21875 47.359375 69.109375 
Q 53.90625 64.015625 53.90625 55.328125 
Q 53.90625 49.265625 50.4375 45.09375 
Q 46.96875 40.921875 40.578125 39.3125 
z
" id="DejaVuSans-51"/>
       </defs>
       <use xlink:href="#DejaVuSans-51"/>
      </g>
     </g>
    </g>
    <g id="ytick_2">
     <g id="line2d_8">
      <g>
       <use style="stroke:#000000;stroke-width:0.8;" x="57.6" xlink:href="#mf09ca81f70" y="244.204975"/>
      </g>
     </g>
     <g id="text_8">
      <!-- 4 -->
      <g transform="translate(44.2375 248.004194)scale(0.1 -0.1)">
       <use xlink:href="#DejaVuSans-52"/>
      </g>
     </g>
    </g>
    <g id="ytick_3">
     <g id="line2d_9">
      <g>
       <use style="stroke:#000000;stroke-width:0.8;" x="57.6" xlink:href="#mf09ca81f70" y="196.545731"/>
      </g>
     </g>
     <g id="text_9">
      <!-- 5 -->
      <g transform="translate(44.2375 200.34495)scale(0.1 -0.1)">
       <defs>
        <path d="M 10.796875 72.90625 
L 49.515625 72.90625 
L 49.515625 64.59375 
L 19.828125 64.59375 
L 19.828125 46.734375 
Q 21.96875 47.46875 24.109375 47.828125 
Q 26.265625 48.1875 28.421875 48.1875 
Q 40.625 48.1875 47.75 41.5 
Q 54.890625 34.8125 54.890625 23.390625 
Q 54.890625 11.625 47.5625 5.09375 
Q 40.234375 -1.421875 26.90625 -1.421875 
Q 22.3125 -1.421875 17.546875 -0.640625 
Q 12.796875 0.140625 7.71875 1.703125 
L 7.71875 11.625 
Q 12.109375 9.234375 16.796875 8.0625 
Q 21.484375 6.890625 26.703125 6.890625 
Q 35.15625 6.890625 40.078125 11.328125 
Q 45.015625 15.765625 45.015625 23.390625 
Q 45.015625 31 40.078125 35.4375 
Q 35.15625 39.890625 26.703125 39.890625 
Q 22.75 39.890625 18.8125 39.015625 
Q 14.890625 38.140625 10.796875 36.28125 
z
" id="DejaVuSans-53"/>
       </defs>
       <use xlink:href="#DejaVuSans-53"/>
      </g>
     </g>
    </g>
    <g id="ytick_4">
     <g id="line2d_10">
      <g>
       <use style="stroke:#000000;stroke-width:0.8;" x="57.6" xlink:href="#mf09ca81f70" y="148.886488"/>
      </g>
     </g>
     <g id="text_10">
      <!-- 6 -->
      <g transform="translate(44.2375 152.685706)scale(0.1 -0.1)">
       <use xlink:href="#DejaVuSans-54"/>
      </g>
     </g>
    </g>
    <g id="ytick_5">
     <g id="line2d_11">
      <g>
       <use style="stroke:#000000;stroke-width:0.8;" x="57.6" xlink:href="#mf09ca81f70" y="101.227244"/>
      </g>
     </g>
     <g id="text_11">
      <!-- 7 -->
      <g transform="translate(44.2375 105.026463)scale(0.1 -0.1)">
       <defs>
        <path d="M 8.203125 72.90625 
L 55.078125 72.90625 
L 55.078125 68.703125 
L 28.609375 0 
L 18.3125 0 
L 43.21875 64.59375 
L 8.203125 64.59375 
z
" id="DejaVuSans-55"/>
       </defs>
       <use xlink:href="#DejaVuSans-55"/>
      </g>
     </g>
    </g>
    <g id="ytick_6">
     <g id="line2d_12">
      <g>
       <use style="stroke:#000000;stroke-width:0.8;" x="57.6" xlink:href="#mf09ca81f70" y="53.568"/>
      </g>
     </g>
     <g id="text_12">
      <!-- 8 -->
      <g transform="translate(44.2375 57.367219)scale(0.1 -0.1)">
       <use xlink:href="#DejaVuSans-56"/>
      </g>
     </g>
    </g>
   </g>
   <g id="line2d_13">
    <path clip-path="url(#pfc5cd78035)" d="M 73.832727 53.568 
L 96.30162 53.611645 
L 98.777004 73.823989 
L 100.300318 83.811086 
L 101.442802 90.049848 
L 102.585286 94.960713 
L 103.346942 97.023008 
L 104.679839 99.418913 
L 105.441495 100.270971 
L 105.822322 100.371817 
L 106.012736 100.371817 
L 106.393563 99.998021 
L 106.774391 99.210928 
L 107.345633 97.436018 
L 107.916875 94.709013 
L 108.678531 89.672548 
L 109.630602 81.31367 
L 110.582672 70.839678 
L 111.915572 53.568 
L 148.665544 53.568 
L 148.855959 54.599023 
L 150.379273 80.862649 
L 152.092999 106.510628 
L 153.997136 131.365513 
L 156.472508 160.904699 
L 158.376632 180.822251 
L 159.709508 192.55389 
L 160.661564 199.555204 
L 161.423203 203.768003 
L 161.994424 205.58423 
L 162.37524 205.937423 
L 162.756055 205.937423 
L 162.94647 205.731124 
L 163.136872 205.324686 
L 163.517691 203.728495 
L 164.088925 199.543628 
L 164.85057 191.548019 
L 165.612218 181.259291 
L 166.564283 165.054223 
L 167.516352 144.872239 
L 168.468423 119.992006 
L 168.849252 108.957445 
L 169.801324 133.171142 
L 170.753393 151.786191 
L 171.515046 162.950495 
L 172.276696 170.753409 
L 172.847934 174.41437 
L 173.228757 175.600185 
L 173.419164 175.826957 
L 173.990398 175.747411 
L 174.180805 175.584284 
L 174.561627 174.605287 
L 174.94245 172.741014 
L 175.704097 167.904205 
L 176.65616 160.195897 
L 177.608222 150.678536 
L 178.750702 136.864396 
L 179.893184 120.451564 
L 181.226082 97.69761 
L 182.368568 74.525189 
L 183.320639 53.568 
L 184.272711 53.568 
L 184.463126 55.256789 
L 185.98644 92.145352 
L 187.890583 144.630822 
L 189.413895 182.043846 
L 190.746785 208.98148 
L 192.270069 235.199207 
L 193.793321 258.07814 
L 194.745311 270.052338 
L 195.126102 273.212204 
L 195.506886 274.761229 
L 195.887667 275.213699 
L 196.268449 275.213699 
L 196.458864 274.777854 
L 196.839655 272.667096 
L 197.410849 266.696827 
L 198.172478 255.564524 
L 199.124534 237.460458 
L 200.076596 214.180754 
L 200.838253 190.229177 
L 201.028667 183.285785 
L 201.219081 187.127278 
L 202.171153 217.354479 
L 203.123216 240.948886 
L 204.265678 264.211981 
L 205.598531 286.521288 
L 206.169728 293.101705 
L 206.550531 295.190402 
L 206.93134 295.488 
L 207.692986 295.405023 
L 208.073801 294.870289 
L 208.454612 292.699688 
L 208.835422 288.471226 
L 209.406637 279.037609 
L 210.168279 262.323892 
L 210.929932 240.199575 
L 211.691589 210.672942 
L 211.882004 214.734744 
L 212.643659 237.436811 
L 213.214891 248.722931 
L 213.59571 253.437176 
L 213.976523 255.636505 
L 214.166937 256.03496 
L 214.738141 255.933225 
L 214.928555 255.73863 
L 215.309364 254.670933 
L 216.070985 251.125048 
L 216.832605 247.417078 
L 217.023 246.965823 
L 217.784616 250.46106 
L 218.927026 255.744609 
L 219.307822 256.381065 
L 219.688615 256.481935 
L 219.879029 256.481935 
L 220.069411 256.173378 
L 220.45021 254.696625 
L 220.831014 252.0852 
L 221.592631 244.371765 
L 222.544674 231.897283 
L 223.687132 214.131651 
L 224.829603 193.025383 
L 225.972083 167.393151 
L 228.637882 102.453638 
L 230.161195 72.9174 
L 231.303681 53.568 
L 303.661111 53.568 
L 303.851525 53.740571 
L 305.755669 80.309805 
L 307.659812 103.943524 
L 308.992712 117.86787 
L 310.325613 129.693041 
L 311.468099 137.841718 
L 312.42017 142.951637 
L 313.181828 145.894229 
L 313.75307 147.298364 
L 314.133899 147.605339 
L 314.705142 147.647419 
L 315.085971 147.325773 
L 315.466799 146.480859 
L 316.038042 144.490209 
L 316.799699 140.86798 
L 317.751771 135.207149 
L 318.894257 126.791742 
L 320.417572 113.868166 
L 322.51213 94.076498 
L 324.416274 73.597805 
L 326.130003 53.568 
L 339.649421 53.568 
L 340.03025 57.817075 
L 340.601492 67.410963 
L 341.172736 80.715242 
L 342.315222 109.566018 
L 343.267293 128.117099 
L 344.02895 139.605124 
L 344.790606 148.094994 
L 345.552261 153.771529 
L 345.933089 155.300921 
L 346.313916 155.851337 
L 347.075569 155.870959 
L 347.265984 155.716241 
L 347.646811 154.990629 
L 348.027638 153.803357 
L 348.598878 151.195765 
L 349.360534 146.476704 
L 350.312603 138.986485 
L 351.645501 126.39962 
L 352.9784 111.307797 
L 354.120885 97.3606 
L 354.882542 109.525037 
L 355.644199 125.481489 
L 356.405857 145.780491 
L 358.881241 219.44176 
L 360.023718 243.216831 
L 361.166187 262.910945 
L 362.308645 277.522987 
L 362.689464 280.425716 
L 363.070283 281.222259 
L 363.451107 281.222259 
L 363.641521 280.924711 
L 363.831935 280.384499 
L 364.21276 277.828038 
L 364.974407 270.126979 
L 365.736054 259.514088 
L 367.068939 237.885405 
L 368.401834 212.573319 
L 369.353903 190.680198 
L 370.305974 168.796863 
L 371.067631 155.618142 
L 371.829287 145.959432 
L 372.0197 144.582428 
L 373.162184 154.071198 
L 374.304667 161.881741 
L 375.066321 166.086315 
L 375.637563 168.1686 
L 376.01839 168.697151 
L 376.589629 168.814238 
L 376.780043 168.814238 
L 376.970456 168.528644 
L 377.351283 167.211667 
L 377.922525 163.951081 
L 378.303353 160.408691 
L 378.874594 153.175624 
L 379.636251 140.115918 
L 380.397909 123.188377 
L 382.492467 73.283193 
L 383.444538 53.618919 
L 384.015781 53.568 
L 398.487273 53.568 
L 398.487273 53.568 
" style="fill:none;stroke:#1f77b4;stroke-linecap:square;stroke-width:1.5;"/>
   </g>
   <g id="line2d_14">
    <path clip-path="url(#pfc5cd78035)" d="M 73.832727 53.856447 
L 77.015103 53.671693 
L 77.015103 53.671693 
L 83.078919 53.582772 
L 83.078919 53.582772 
L 95.965946 53.576503 
L 96.268865 54.458379 
L 96.721669 56.15348 
L 98.786835 71.61391 
L 98.786835 71.61391 
L 99.645916 77.76 
L 101.04835 86.383827 
L 101.04835 86.383827 
L 102.556103 93.508547 
L 103.36716 96.132199 
L 104.57464 98.651241 
L 105.242058 99.608964 
L 105.774885 100.043763 
L 106.307335 100.086375 
L 106.973167 99.775059 
L 106.973167 99.775059 
L 107.506537 99.206499 
L 107.506537 99.206499 
L 108.041102 98.249861 
L 108.041102 98.249861 
L 108.846787 95.904813 
L 109.659414 92.378785 
L 109.659414 92.378785 
L 110.482002 87.504665 
L 111.317759 81.351876 
L 111.317759 81.351876 
L 112.313111 73.467672 
L 113.181615 68.423902 
L 114.060556 64.658526 
L 114.947288 61.847522 
L 115.839838 59.748995 
L 116.736729 58.18236 
L 117.636863 57.012805 
L 118.690031 56.017401 
L 119.745548 55.309627 
L 120.953868 54.747486 
L 122.46629 54.292627 
L 124.434491 53.952648 
L 124.434491 53.952648 
L 127.161702 53.728038 
L 131.709107 53.60511 
L 131.709107 53.60511 
L 144.292737 53.568651 
L 148.3863 53.568175 
L 148.537875 53.764241 
L 148.840193 55.906035 
L 149.585229 65.036987 
L 151.557287 95.810964 
L 151.557287 95.810964 
L 153.37107 121.59052 
L 154.227919 132.481597 
L 155.853286 152.72112 
L 156.950337 165.122421 
L 158.908261 185.283817 
L 158.908261 185.283817 
L 161.016704 201.257862 
L 161.754058 204.497445 
L 162.119727 205.306086 
L 162.4845 205.665921 
L 162.849009 205.6546 
L 163.21373 205.391336 
L 163.579154 204.758175 
L 164.130034 203.029156 
L 164.130034 203.029156 
L 164.592923 200.901016 
L 164.966672 198.693323 
L 165.727328 192.451406 
L 166.711794 181.553118 
L 167.641418 168.003764 
L 167.641418 168.003764 
L 169.084082 144.886515 
L 169.431485 142.708418 
L 169.431485 142.708418 
L 169.664136 142.020333 
L 169.897156 141.771099 
L 169.897156 141.771099 
L 170.245662 143.940492 
L 172.235317 168.360188 
L 173.176802 174.292461 
L 173.590446 175.151934 
L 173.900081 175.37503 
L 174.106411 175.404654 
L 174.519213 175.186677 
L 175.036116 174.452075 
L 175.036116 174.452075 
L 175.659274 172.761466 
L 176.392585 169.882269 
L 177.349995 164.517729 
L 178.55161 155.298935 
L 179.684133 144.322139 
L 180.987093 129.015045 
L 182.496451 107.112798 
L 183.70344 88.739125 
L 184.399328 81.498996 
L 184.399328 81.498996 
L 184.822263 79.316 
L 185.105221 78.910317 
L 185.246773 78.827136 
L 185.388227 79.407754 
L 185.8092 84.723474 
L 186.492294 98.360592 
L 188.112984 143.771268 
L 188.112984 143.771268 
L 190.30102 197.361015 
L 191.119638 214.404487 
L 192.984845 245.86959 
L 193.784265 257.940966 
L 193.784265 257.940966 
L 194.734172 269.923789 
L 195.188083 273.277713 
L 195.571782 274.589727 
L 195.889927 274.996404 
L 195.889927 274.996404 
L 196.144092 275.043969 
L 196.144092 275.043969 
L 196.398366 274.88545 
L 196.398366 274.88545 
L 196.780838 274.091365 
L 197.295604 271.716894 
L 198.021549 265.59601 
L 198.499725 260.206542 
L 198.499725 260.206542 
L 199.435197 246.818124 
L 200.454457 227.403521 
L 201.1365 214.855774 
L 201.488305 212.826801 
L 201.664906 212.745417 
L 201.664906 212.745417 
L 202.101435 218.162844 
L 203.387512 246.722344 
L 204.034887 260.757831 
L 205.441922 285.851564 
L 205.441922 285.851564 
L 206.357141 294.490986 
L 206.357141 294.490986 
L 206.690998 295.199892 
L 207.023864 295.399823 
L 207.023864 295.399823 
L 207.522866 295.377215 
L 207.855838 295.131495 
L 208.246021 294.097725 
L 208.640601 291.827659 
L 209.160549 287.005136 
L 209.951534 275.617868 
L 210.74697 259.704953 
L 211.708892 240.312304 
L 211.708892 240.312304 
L 211.941841 239.030323 
L 212.175566 238.813645 
L 212.485318 241.787889 
L 212.714018 244.641051 
L 213.160212 250.716974 
L 213.522919 253.784976 
L 213.522919 253.784976 
L 213.881202 255.251409 
L 214.166456 255.678652 
L 214.380136 255.731051 
L 214.380136 255.731051 
L 214.736309 255.627162 
L 215.021564 255.353047 
L 215.594106 254.266307 
L 217.046578 250.566197 
L 217.266457 250.511449 
L 217.266457 250.511449 
L 217.339755 250.509054 
L 217.705265 251.555119 
L 218.570903 255.111202 
L 218.998452 256.044329 
L 218.998452 256.044329 
L 219.353608 256.329537 
L 219.637518 256.333347 
L 219.99267 256.051148 
L 220.348826 255.309209 
L 220.850985 253.375606 
L 221.286678 250.96057 
L 221.286678 250.96057 
L 222.180423 243.714489 
L 222.180423 243.714489 
L 222.876852 236.430456 
L 224.019084 222.213183 
L 225.344919 201.91753 
L 227.020333 170.436029 
L 228.934965 132.438311 
L 228.934965 132.438311 
L 230.574936 102.798641 
L 231.519759 88.683103 
L 231.519759 88.683103 
L 232.356779 79.782831 
L 233.212215 73.138421 
L 233.212215 73.138421 
L 234.0814 68.178103 
L 234.960849 64.475028 
L 234.960849 64.475028 
L 235.84796 61.710533 
L 236.740793 59.646727 
L 236.740793 59.646727 
L 237.637895 58.106013 
L 238.538186 56.955809 
L 238.538186 56.955809 
L 239.591488 55.976875 
L 240.6471 55.280811 
L 242.006658 54.672814 
L 243.519315 54.246752 
L 245.48769 53.928296 
L 248.366571 53.710778 
L 253.368884 53.596606 
L 268.833227 53.568199 
L 268.833227 53.568199 
L 303.249462 53.600825 
L 303.552133 55.14362 
L 303.853402 57.101409 
L 304.596397 65.338089 
L 304.596397 65.338089 
L 308.17595 109.991835 
L 308.941659 117.629145 
L 308.941659 117.629145 
L 309.812671 126.039449 
L 311.259225 136.798249 
L 311.965114 141.012671 
L 313.008282 145.38797 
L 313.467669 146.569809 
L 313.925647 147.17975 
L 314.382975 147.408828 
L 314.954526 147.297135 
L 315.412127 146.952009 
L 315.870474 146.366166 
L 316.560363 144.899879 
L 317.138433 143.200022 
L 317.837237 140.585443 
L 317.837237 140.585443 
L 318.8991 135.446841 
L 319.860333 129.737512 
L 320.965327 122.275542 
L 322.484012 110.571068 
L 324.332849 94.486104 
L 324.332849 94.486104 
L 326.422603 75.007616 
L 327.28792 69.573532 
L 328.164482 65.516771 
L 329.049438 62.488236 
L 329.940661 60.227314 
L 330.836563 58.539444 
L 331.735958 57.279382 
L 332.788497 56.206949 
L 333.843567 55.444404 
L 335.051531 54.838761 
L 336.563664 54.348703 
L 338.380203 54.003103 
L 339.137501 53.909038 
L 339.137501 53.909038 
L 339.440242 54.422853 
L 339.742193 56.122139 
L 339.742193 56.122139 
L 340.339393 62.956532 
L 340.339393 62.956532 
L 340.922617 73.590228 
L 340.922617 73.590228 
L 343.424935 129.629136 
L 344.373293 143.16631 
L 345.173826 150.819471 
L 345.735184 153.893443 
L 346.181051 155.016846 
L 346.625696 155.503654 
L 346.958867 155.569048 
L 347.514299 155.340129 
L 347.847889 155.019114 
L 348.293475 154.332101 
L 348.7404 153.322805 
L 349.414572 151.082543 
L 349.414572 151.082543 
L 350.094955 148.111807 
L 351.131114 142.191906 
L 351.953544 136.373799 
L 353.530546 122.6208 
L 354.0307 118.540302 
L 354.409168 116.880762 
L 354.662283 116.369577 
L 354.662283 116.369577 
L 354.915473 116.585142 
L 355.167765 118.973927 
L 355.167765 118.973927 
L 355.417862 122.096252 
L 356.263659 140.667134 
L 356.939658 162.721113 
L 357.953899 196.135625 
L 359.10467 226.112857 
L 360.418899 253.110061 
L 361.318449 267.515308 
L 361.318449 267.515308 
L 361.839438 274.332645 
L 361.839438 274.332645 
L 362.527171 279.98318 
L 362.834128 280.790755 
L 362.834128 280.790755 
L 363.078943 280.989859 
L 363.078943 280.989859 
L 363.384889 280.902321 
L 363.752787 280.298926 
L 364.24717 278.367891 
L 364.622996 276.136207 
L 365.06939 272.66393 
L 365.06939 272.66393 
L 366.134835 261.323276 
L 366.134835 261.323276 
L 366.988753 250.11384 
L 366.988753 250.11384 
L 368.466651 227.257273 
L 371.230474 178.369118 
L 371.852804 170.168386 
L 372.383624 165.93133 
L 372.383624 165.93133 
L 372.81315 163.838727 
L 372.81315 163.838727 
L 373.245253 162.669176 
L 373.245253 162.669176 
L 373.678595 162.207724 
L 373.678595 162.207724 
L 373.895432 162.177461 
L 374.112111 162.695893 
L 374.112111 162.695893 
L 374.436164 163.74295 
L 375.399611 167.306626 
L 375.399611 167.306626 
L 375.824425 168.126075 
L 375.824425 168.126075 
L 376.248307 168.518302 
L 376.248307 168.518302 
L 376.565961 168.570325 
L 376.989613 168.348374 
L 377.307737 167.962722 
L 377.839402 166.786346 
L 378.159809 165.602887 
L 378.589724 163.373295 
L 379.023809 160.310966 
L 379.79792 152.673498 
L 380.714686 140.02663 
L 384.182563 84.501739 
L 384.182563 84.501739 
L 385.028235 76.661275 
L 385.890131 70.808055 
L 385.890131 70.808055 
L 386.764139 66.438392 
L 387.647188 63.176263 
L 387.647188 63.176263 
L 388.536988 60.740953 
L 389.431827 58.922897 
L 389.431827 58.922897 
L 390.330427 57.565645 
L 391.382291 56.410494 
L 392.436881 55.589133 
L 392.436881 55.589133 
L 393.644463 54.936776 
L 393.644463 54.936776 
L 395.005019 54.450901 
L 396.82119 54.06006 
L 398.487273 53.855927 
L 398.487273 53.855927 
" style="fill:none;stroke:#ff7f0e;stroke-linecap:square;stroke-width:1.5;"/>
   </g>
   <g id="line2d_15">
    <path clip-path="url(#pfc5cd78035)" d="M 73.832727 53.920777 
L 76.699617 53.707798 
L 76.699617 53.707798 
L 81.68105 53.596009 
L 96.627845 53.568225 
L 96.627845 53.568225 
L 96.778823 53.576486 
L 97.080476 54.458368 
L 97.381323 55.600135 
L 97.978961 59.533589 
L 99.008212 67.533151 
L 99.008212 67.533151 
L 99.873199 73.881745 
L 101.561285 84.767941 
L 102.524217 89.881464 
L 103.33924 93.514036 
L 104.14699 96.090447 
L 105.349492 98.644988 
L 106.014127 99.606787 
L 106.544731 100.042827 
L 106.942423 100.073819 
L 107.472774 99.939145 
L 108.136349 99.377931 
L 108.668329 98.539717 
L 109.202024 97.205924 
L 110.007453 94.326074 
L 110.82127 90.142201 
L 111.508087 85.62384 
L 111.508087 85.62384 
L 113.775663 69.165134 
L 113.775663 69.165134 
L 114.649405 65.211885 
L 115.531292 62.260627 
L 115.531292 62.260627 
L 116.419261 60.057394 
L 117.311769 58.412593 
L 117.311769 58.412593 
L 118.207667 57.184683 
L 119.256032 56.139613 
L 120.306852 55.396525 
L 120.306852 55.396525 
L 121.509895 54.806336 
L 121.509895 54.806336 
L 123.015813 54.328782 
L 124.975653 53.971839 
L 127.691378 53.736023 
L 132.219733 53.606961 
L 144.297833 53.568791 
L 148.978212 53.568175 
L 149.129153 53.764241 
L 149.430208 55.906035 
L 150.172131 65.036987 
L 151.865865 91.597607 
L 152.928227 107.194979 
L 154.796489 132.476619 
L 155.153192 136.892143 
L 155.153192 136.892143 
L 156.303936 151.264784 
L 157.508032 165.327537 
L 159.655062 186.981121 
L 161.466382 200.316901 
L 162.294339 204.308338 
L 162.749662 205.329123 
L 163.112894 205.636588 
L 163.385174 205.623943 
L 163.839301 205.288237 
L 164.294476 204.490246 
L 164.294476 204.490246 
L 164.660139 203.357182 
L 164.660139 203.357182 
L 165.120518 201.158126 
L 165.120518 201.158126 
L 165.492336 198.904909 
L 166.441324 191.06476 
L 167.530473 177.833339 
L 168.363504 165.471353 
L 169.582538 145.546534 
L 170.043641 142.401594 
L 170.391432 141.897828 
L 170.391432 141.897828 
L 170.507441 141.867228 
L 170.738892 143.604064 
L 171.082913 147.029115 
L 172.831104 169.098632 
L 173.457037 173.348198 
L 173.457037 173.348198 
L 173.869961 174.760989 
L 173.869961 174.760989 
L 174.281379 175.341169 
L 174.281379 175.341169 
L 174.589586 175.4142 
L 174.89782 175.290747 
L 175.309235 174.882059 
L 175.721572 174.089402 
L 176.239167 172.672021 
L 176.86498 170.092239 
L 177.497679 166.869482 
L 178.572686 159.505786 
L 179.568668 150.989326 
L 180.4823 141.544735 
L 181.549806 128.702495 
L 183.053984 106.938607 
L 184.256433 88.626766 
L 184.256433 88.626766 
L 184.949535 81.483775 
L 185.370719 79.302849 
L 185.370719 79.302849 
L 185.652504 78.898386 
L 185.79347 78.815773 
L 185.934337 79.398553 
L 185.934337 79.398553 
L 186.353559 84.718587 
L 186.764546 93.730934 
L 187.424225 109.912468 
L 189.41718 164.991302 
L 189.41718 164.991302 
L 191.975137 220.972893 
L 193.558942 247.794394 
L 194.208721 257.126727 
L 194.208721 257.126727 
L 194.826895 265.52438 
L 195.418344 271.709741 
L 195.803115 273.864084 
L 195.803115 273.864084 
L 196.12089 274.715148 
L 196.43755 275.040082 
L 196.627364 275.045694 
L 196.880576 274.886869 
L 197.261453 274.092425 
L 197.838525 271.44591 
L 197.838525 271.44591 
L 198.56235 265.437444 
L 199.108169 259.378577 
L 199.748922 250.41287 
L 199.748922 250.41287 
L 200.983945 227.838808 
L 200.983945 227.838808 
L 201.661549 215.24672 
L 201.661549 215.24672 
L 202.011321 213.148527 
L 202.011321 213.148527 
L 202.274784 212.985583 
L 202.623227 217.247216 
L 205.340847 276.103875 
L 205.340847 276.103875 
L 206.636931 293.350524 
L 206.971111 294.801365 
L 206.971111 294.801365 
L 207.247858 295.248882 
L 207.579268 295.413639 
L 208.076158 295.383657 
L 208.076158 295.383657 
L 208.407726 295.136305 
L 208.573829 294.861426 
L 208.796014 294.224414 
L 209.30179 291.284914 
L 209.704336 287.649166 
L 210.119194 282.468841 
L 210.119194 282.468841 
L 210.549987 276.136617 
L 211.477553 257.489932 
L 212.137724 242.737542 
L 212.44462 239.744163 
L 212.676934 239.00195 
L 212.832093 238.856644 
L 213.140504 241.806381 
L 213.664816 249.364398 
L 214.243209 254.427491 
L 214.599202 255.475163 
L 214.883049 255.746518 
L 215.308599 255.655755 
L 215.663651 255.33804 
L 216.162435 254.376234 
L 216.592475 253.256263 
L 217.388817 250.923864 
L 217.753442 250.50705 
L 217.972426 250.500798 
L 218.409134 251.796793 
L 218.409134 251.796793 
L 219.48348 255.754379 
L 219.908255 256.270072 
L 220.261675 256.351223 
L 220.473749 256.272858 
L 220.898605 255.713975 
L 221.3256 254.407958 
L 221.756513 252.365054 
L 222.193183 249.618265 
L 223.244171 240.29056 
L 224.193322 229.362147 
L 225.375883 212.927425 
L 226.377554 196.357992 
L 226.377554 196.357992 
L 227.255785 179.74458 
L 231.189389 104.650201 
L 232.125915 89.99964 
L 232.956725 80.765678 
L 232.956725 80.765678 
L 233.806562 73.872156 
L 234.670603 68.725866 
L 234.670603 68.725866 
L 235.545249 64.883954 
L 236.427812 62.015813 
L 236.427812 62.015813 
L 237.316284 59.874631 
L 238.209169 58.276153 
L 238.209169 58.276153 
L 239.105347 57.082825 
L 240.15395 56.067188 
L 241.204939 55.345028 
L 241.204939 55.345028 
L 242.408117 54.77146 
L 242.408117 54.77146 
L 243.914144 54.307356 
L 245.874064 53.960466 
L 248.589841 53.731291 
L 253.118222 53.605864 
L 265.498282 53.568697 
L 303.847191 53.568 
L 304.299119 55.494384 
L 304.747286 60.00523 
L 305.189846 64.883947 
L 305.189846 64.883947 
L 307.841249 99.153441 
L 308.756996 109.578691 
L 311.237406 132.374713 
L 312.535942 140.51287 
L 313.115931 143.265975 
L 313.805415 145.815902 
L 313.805415 145.815902 
L 314.262334 146.817231 
L 314.262334 146.817231 
L 314.718126 147.2904 
L 314.718126 147.2904 
L 315.059639 147.389412 
L 315.628859 147.267346 
L 315.628859 147.267346 
L 316.084622 146.898506 
L 316.084622 146.898506 
L 316.426923 146.455457 
L 316.884325 145.634764 
L 317.688816 143.457182 
L 318.617196 139.990349 
L 319.796209 133.976977 
L 319.796209 133.976977 
L 321.247206 124.654199 
L 321.247206 124.654199 
L 322.493293 115.492464 
L 324.437187 99.0883 
L 326.208149 82.030698 
L 327.055379 74.816544 
L 327.055379 74.816544 
L 327.917474 69.430889 
L 328.790668 65.410282 
L 328.790668 65.410282 
L 329.672146 62.408738 
L 330.559809 60.167965 
L 330.559809 60.167965 
L 331.45209 58.495138 
L 332.347818 57.246306 
L 332.347818 57.246306 
L 333.396038 56.18343 
L 334.446754 55.427681 
L 335.649715 54.827436 
L 337.155568 54.341745 
L 337.155568 54.341745 
L 338.964544 53.999225 
L 338.964544 53.999225 
L 339.718685 53.905999 
L 340.020163 54.42086 
L 340.320855 56.120832 
L 340.320855 56.120832 
L 340.915561 62.95597 
L 341.495792 74.401342 
L 344.224277 133.503286 
L 344.812157 141.793788 
L 345.385729 148.163183 
L 345.385729 148.163183 
L 345.948749 152.456598 
L 346.394365 154.348457 
L 346.837869 155.215596 
L 347.280446 155.559698 
L 347.612197 155.553011 
L 347.612197 155.553011 
L 348.054701 155.349565 
L 348.054701 155.349565 
L 348.497681 154.924315 
L 348.497681 154.924315 
L 349.052822 153.921057 
L 349.834516 151.612728 
L 349.834516 151.612728 
L 350.73769 147.648361 
L 350.73769 147.648361 
L 351.539667 143.13779 
L 352.355745 137.561392 
L 353.795814 125.522936 
L 354.664159 118.162197 
L 355.041323 116.689496 
L 355.041323 116.689496 
L 355.293425 116.359617 
L 355.419516 116.480621 
L 355.796144 119.482609 
L 356.410297 130.507375 
L 357.111073 149.632868 
L 358.36326 191.540273 
L 360.097336 236.324186 
L 360.630803 247.759679 
L 360.630803 247.759679 
L 361.136686 256.929406 
L 362.273804 273.584437 
L 362.273804 273.584437 
L 362.837865 279.035463 
L 363.205947 280.564298 
L 363.510906 280.993128 
L 363.510906 280.993128 
L 363.937428 280.899905 
L 364.303798 280.297122 
L 364.487656 279.804763 
L 364.487656 279.804763 
L 365.107293 276.713983 
L 365.678471 272.140512 
L 366.538088 263.126452 
L 366.538088 263.126452 
L 367.3061 253.645333 
L 368.195932 241.022193 
L 369.487944 219.826363 
L 371.620978 181.555855 
L 372.442616 170.151559 
L 372.971318 165.851579 
L 373.399165 163.773096 
L 373.829593 162.555918 
L 374.261286 162.11452 
L 374.477287 162.09291 
L 374.800963 162.761233 
L 374.800963 162.761233 
L 375.87 166.874833 
L 376.399222 168.072732 
L 376.821389 168.495362 
L 377.137738 168.553473 
L 377.559635 168.379999 
L 377.982044 167.90274 
L 378.299543 167.217733 
L 378.831138 165.335496 
L 379.259642 163.153247 
L 380.020606 157.112864 
L 380.916491 146.254056 
L 381.733236 133.722928 
L 381.733236 133.722928 
L 384.426681 88.661544 
L 385.260248 79.766737 
L 386.112144 73.126406 
L 386.977723 68.169134 
L 387.853517 64.468331 
L 388.736936 61.705534 
L 389.626049 59.642995 
L 390.519411 58.103227 
L 391.415947 56.953729 
L 392.464854 55.975396 
L 392.464854 55.975396 
L 393.666377 55.198365 
L 393.666377 55.198365 
L 395.020493 54.619634 
L 396.677727 54.183359 
L 396.677727 54.183359 
L 398.487273 53.910953 
L 398.487273 53.910953 
" style="fill:none;stroke:#2ca02c;stroke-linecap:square;stroke-width:1.5;"/>
   </g>
   <g id="patch_3">
    <path d="M 57.6 307.584 
L 57.6 41.472 
" style="fill:none;stroke:#000000;stroke-linecap:square;stroke-linejoin:miter;stroke-width:0.8;"/>
   </g>
   <g id="patch_4">
    <path d="M 414.72 307.584 
L 414.72 41.472 
" style="fill:none;stroke:#000000;stroke-linecap:square;stroke-linejoin:miter;stroke-width:0.8;"/>
   </g>
   <g id="patch_5">
    <path d="M 57.6 307.584 
L 414.72 307.584 
" style="fill:none;stroke:#000000;stroke-linecap:square;stroke-linejoin:miter;stroke-width:0.8;"/>
   </g>
   <g id="patch_6">
    <path d="M 57.6 41.472 
L 414.72 41.472 
" style="fill:none;stroke:#000000;stroke-linecap:square;stroke-linejoin:miter;stroke-width:0.8;"/>
   </g>
   <g id="text_13">
    <!-- mco speed -->
    <g transform="translate(203.310937 35.472)scale(0.12 -0.12)">
     <defs>
      <path d="M 52 44.1875 
Q 55.375 50.25 60.0625 53.125 
Q 64.75 56 71.09375 56 
Q 79.640625 56 84.28125 50.015625 
Q 88.921875 44.046875 88.921875 33.015625 
L 88.921875 0 
L 79.890625 0 
L 79.890625 32.71875 
Q 79.890625 40.578125 77.09375 44.375 
Q 74.3125 48.1875 68.609375 48.1875 
Q 61.625 48.1875 57.5625 43.546875 
Q 53.515625 38.921875 53.515625 30.90625 
L 53.515625 0 
L 44.484375 0 
L 44.484375 32.71875 
Q 44.484375 40.625 41.703125 44.40625 
Q 38.921875 48.1875 33.109375 48.1875 
Q 26.21875 48.1875 22.15625 43.53125 
Q 18.109375 38.875 18.109375 30.90625 
L 18.109375 0 
L 9.078125 0 
L 9.078125 54.6875 
L 18.109375 54.6875 
L 18.109375 46.1875 
Q 21.1875 51.21875 25.484375 53.609375 
Q 29.78125 56 35.6875 56 
Q 41.65625 56 45.828125 52.96875 
Q 50 49.953125 52 44.1875 
z
" id="DejaVuSans-109"/>
      <path d="M 48.78125 52.59375 
L 48.78125 44.1875 
Q 44.96875 46.296875 41.140625 47.34375 
Q 37.3125 48.390625 33.40625 48.390625 
Q 24.65625 48.390625 19.8125 42.84375 
Q 14.984375 37.3125 14.984375 27.296875 
Q 14.984375 17.28125 19.8125 11.734375 
Q 24.65625 6.203125 33.40625 6.203125 
Q 37.3125 6.203125 41.140625 7.25 
Q 44.96875 8.296875 48.78125 10.40625 
L 48.78125 2.09375 
Q 45.015625 0.34375 40.984375 -0.53125 
Q 36.96875 -1.421875 32.421875 -1.421875 
Q 20.0625 -1.421875 12.78125 6.34375 
Q 5.515625 14.109375 5.515625 27.296875 
Q 5.515625 40.671875 12.859375 48.328125 
Q 20.21875 56 33.015625 56 
Q 37.15625 56 41.109375 55.140625 
Q 45.0625 54.296875 48.78125 52.59375 
z
" id="DejaVuSans-99"/>
      <path d="M 30.609375 48.390625 
Q 23.390625 48.390625 19.1875 42.75 
Q 14.984375 37.109375 14.984375 27.296875 
Q 14.984375 17.484375 19.15625 11.84375 
Q 23.34375 6.203125 30.609375 6.203125 
Q 37.796875 6.203125 41.984375 11.859375 
Q 46.1875 17.53125 46.1875 27.296875 
Q 46.1875 37.015625 41.984375 42.703125 
Q 37.796875 48.390625 30.609375 48.390625 
z
M 30.609375 56 
Q 42.328125 56 49.015625 48.375 
Q 55.71875 40.765625 55.71875 27.296875 
Q 55.71875 13.875 49.015625 6.21875 
Q 42.328125 -1.421875 30.609375 -1.421875 
Q 18.84375 -1.421875 12.171875 6.21875 
Q 5.515625 13.875 5.515625 27.296875 
Q 5.515625 40.765625 12.171875 48.375 
Q 18.84375 56 30.609375 56 
z
" id="DejaVuSans-111"/>
      <path id="DejaVuSans-32"/>
      <path d="M 44.28125 53.078125 
L 44.28125 44.578125 
Q 40.484375 46.53125 36.375 47.5 
Q 32.28125 48.484375 27.875 48.484375 
Q 21.1875 48.484375 17.84375 46.4375 
Q 14.5 44.390625 14.5 40.28125 
Q 14.5 37.15625 16.890625 35.375 
Q 19.28125 33.59375 26.515625 31.984375 
L 29.59375 31.296875 
Q 39.15625 29.25 43.1875 25.515625 
Q 47.21875 21.78125 47.21875 15.09375 
Q 47.21875 7.46875 41.1875 3.015625 
Q 35.15625 -1.421875 24.609375 -1.421875 
Q 20.21875 -1.421875 15.453125 -0.5625 
Q 10.6875 0.296875 5.421875 2 
L 5.421875 11.28125 
Q 10.40625 8.6875 15.234375 7.390625 
Q 20.0625 6.109375 24.8125 6.109375 
Q 31.15625 6.109375 34.5625 8.28125 
Q 37.984375 10.453125 37.984375 14.40625 
Q 37.984375 18.0625 35.515625 20.015625 
Q 33.0625 21.96875 24.703125 23.78125 
L 21.578125 24.515625 
Q 13.234375 26.265625 9.515625 29.90625 
Q 5.8125 33.546875 5.8125 39.890625 
Q 5.8125 47.609375 11.28125 51.796875 
Q 16.75 56 26.8125 56 
Q 31.78125 56 36.171875 55.265625 
Q 40.578125 54.546875 44.28125 53.078125 
z
" id="DejaVuSans-115"/>
      <path d="M 18.109375 8.203125 
L 18.109375 -20.796875 
L 9.078125 -20.796875 
L 9.078125 54.6875 
L 18.109375 54.6875 
L 18.109375 46.390625 
Q 20.953125 51.265625 25.265625 53.625 
Q 29.59375 56 35.59375 56 
Q 45.5625 56 51.78125 48.09375 
Q 58.015625 40.1875 58.015625 27.296875 
Q 58.015625 14.40625 51.78125 6.484375 
Q 45.5625 -1.421875 35.59375 -1.421875 
Q 29.59375 -1.421875 25.265625 0.953125 
Q 20.953125 3.328125 18.109375 8.203125 
z
M 48.6875 27.296875 
Q 48.6875 37.203125 44.609375 42.84375 
Q 40.53125 48.484375 33.40625 48.484375 
Q 26.265625 48.484375 22.1875 42.84375 
Q 18.109375 37.203125 18.109375 27.296875 
Q 18.109375 17.390625 22.1875 11.75 
Q 26.265625 6.109375 33.40625 6.109375 
Q 40.53125 6.109375 44.609375 11.75 
Q 48.6875 17.390625 48.6875 27.296875 
z
" id="DejaVuSans-112"/>
      <path d="M 56.203125 29.59375 
L 56.203125 25.203125 
L 14.890625 25.203125 
Q 15.484375 15.921875 20.484375 11.0625 
Q 25.484375 6.203125 34.421875 6.203125 
Q 39.59375 6.203125 44.453125 7.46875 
Q 49.3125 8.734375 54.109375 11.28125 
L 54.109375 2.78125 
Q 49.265625 0.734375 44.1875 -0.34375 
Q 39.109375 -1.421875 33.890625 -1.421875 
Q 20.796875 -1.421875 13.15625 6.1875 
Q 5.515625 13.8125 5.515625 26.8125 
Q 5.515625 40.234375 12.765625 48.109375 
Q 20.015625 56 32.328125 56 
Q 43.359375 56 49.78125 48.890625 
Q 56.203125 41.796875 56.203125 29.59375 
z
M 47.21875 32.234375 
Q 47.125 39.59375 43.09375 43.984375 
Q 39.0625 48.390625 32.421875 48.390625 
Q 24.90625 48.390625 20.390625 44.140625 
Q 15.875 39.890625 15.1875 32.171875 
z
" id="DejaVuSans-101"/>
      <path d="M 45.40625 46.390625 
L 45.40625 75.984375 
L 54.390625 75.984375 
L 54.390625 0 
L 45.40625 0 
L 45.40625 8.203125 
Q 42.578125 3.328125 38.25 0.953125 
Q 33.9375 -1.421875 27.875 -1.421875 
Q 17.96875 -1.421875 11.734375 6.484375 
Q 5.515625 14.40625 5.515625 27.296875 
Q 5.515625 40.1875 11.734375 48.09375 
Q 17.96875 56 27.875 56 
Q 33.9375 56 38.25 53.625 
Q 42.578125 51.265625 45.40625 46.390625 
z
M 14.796875 27.296875 
Q 14.796875 17.390625 18.875 11.75 
Q 22.953125 6.109375 30.078125 6.109375 
Q 37.203125 6.109375 41.296875 11.75 
Q 45.40625 17.390625 45.40625 27.296875 
Q 45.40625 37.203125 41.296875 42.84375 
Q 37.203125 48.484375 30.078125 48.484375 
Q 22.953125 48.484375 18.875 42.84375 
Q 14.796875 37.203125 14.796875 27.296875 
z
" id="DejaVuSans-100"/>
     </defs>
     <use xlink:href="#DejaVuSans-109"/>
     <use x="97.412109" xlink:href="#DejaVuSans-99"/>
     <use x="152.392578" xlink:href="#DejaVuSans-111"/>
     <use x="213.574219" xlink:href="#DejaVuSans-32"/>
     <use x="245.361328" xlink:href="#DejaVuSans-115"/>
     <use x="297.460938" xlink:href="#DejaVuSans-112"/>
     <use x="360.9375" xlink:href="#DejaVuSans-101"/>
     <use x="422.460938" xlink:href="#DejaVuSans-101"/>
     <use x="483.984375" xlink:href="#DejaVuSans-100"/>
    </g>
   </g>
   <g id="legend_1">
    <g id="patch_7">
     <path d="M 64.6 302.584 
L 156.557813 302.584 
Q 158.557813 302.584 158.557813 300.584 
L 158.557813 257.549625 
Q 158.557813 255.549625 156.557813 255.549625 
L 64.6 255.549625 
Q 62.6 255.549625 62.6 257.549625 
L 62.6 300.584 
Q 62.6 302.584 64.6 302.584 
z
" style="fill:#ffffff;opacity:0.8;stroke:#cccccc;stroke-linejoin:miter;"/>
    </g>
    <g id="line2d_16">
     <path d="M 66.6 263.648062 
L 86.6 263.648062 
" style="fill:none;stroke:#1f77b4;stroke-linecap:square;stroke-width:1.5;"/>
    </g>
    <g id="line2d_17"/>
    <g id="text_14">
     <!-- Waypoints -->
     <g transform="translate(94.6 267.148062)scale(0.1 -0.1)">
      <defs>
       <path d="M 3.328125 72.90625 
L 13.28125 72.90625 
L 28.609375 11.28125 
L 43.890625 72.90625 
L 54.984375 72.90625 
L 70.3125 11.28125 
L 85.59375 72.90625 
L 95.609375 72.90625 
L 77.296875 0 
L 64.890625 0 
L 49.515625 63.28125 
L 33.984375 0 
L 21.578125 0 
z
" id="DejaVuSans-87"/>
       <path d="M 34.28125 27.484375 
Q 23.390625 27.484375 19.1875 25 
Q 14.984375 22.515625 14.984375 16.5 
Q 14.984375 11.71875 18.140625 8.90625 
Q 21.296875 6.109375 26.703125 6.109375 
Q 34.1875 6.109375 38.703125 11.40625 
Q 43.21875 16.703125 43.21875 25.484375 
L 43.21875 27.484375 
z
M 52.203125 31.203125 
L 52.203125 0 
L 43.21875 0 
L 43.21875 8.296875 
Q 40.140625 3.328125 35.546875 0.953125 
Q 30.953125 -1.421875 24.3125 -1.421875 
Q 15.921875 -1.421875 10.953125 3.296875 
Q 6 8.015625 6 15.921875 
Q 6 25.140625 12.171875 29.828125 
Q 18.359375 34.515625 30.609375 34.515625 
L 43.21875 34.515625 
L 43.21875 35.40625 
Q 43.21875 41.609375 39.140625 45 
Q 35.0625 48.390625 27.6875 48.390625 
Q 23 48.390625 18.546875 47.265625 
Q 14.109375 46.140625 10.015625 43.890625 
L 10.015625 52.203125 
Q 14.9375 54.109375 19.578125 55.046875 
Q 24.21875 56 28.609375 56 
Q 40.484375 56 46.34375 49.84375 
Q 52.203125 43.703125 52.203125 31.203125 
z
" id="DejaVuSans-97"/>
       <path d="M 32.171875 -5.078125 
Q 28.375 -14.84375 24.75 -17.8125 
Q 21.140625 -20.796875 15.09375 -20.796875 
L 7.90625 -20.796875 
L 7.90625 -13.28125 
L 13.1875 -13.28125 
Q 16.890625 -13.28125 18.9375 -11.515625 
Q 21 -9.765625 23.484375 -3.21875 
L 25.09375 0.875 
L 2.984375 54.6875 
L 12.5 54.6875 
L 29.59375 11.921875 
L 46.6875 54.6875 
L 56.203125 54.6875 
z
" id="DejaVuSans-121"/>
       <path d="M 9.421875 54.6875 
L 18.40625 54.6875 
L 18.40625 0 
L 9.421875 0 
z
M 9.421875 75.984375 
L 18.40625 75.984375 
L 18.40625 64.59375 
L 9.421875 64.59375 
z
" id="DejaVuSans-105"/>
       <path d="M 54.890625 33.015625 
L 54.890625 0 
L 45.90625 0 
L 45.90625 32.71875 
Q 45.90625 40.484375 42.875 44.328125 
Q 39.84375 48.1875 33.796875 48.1875 
Q 26.515625 48.1875 22.3125 43.546875 
Q 18.109375 38.921875 18.109375 30.90625 
L 18.109375 0 
L 9.078125 0 
L 9.078125 54.6875 
L 18.109375 54.6875 
L 18.109375 46.1875 
Q 21.34375 51.125 25.703125 53.5625 
Q 30.078125 56 35.796875 56 
Q 45.21875 56 50.046875 50.171875 
Q 54.890625 44.34375 54.890625 33.015625 
z
" id="DejaVuSans-110"/>
       <path d="M 18.3125 70.21875 
L 18.3125 54.6875 
L 36.8125 54.6875 
L 36.8125 47.703125 
L 18.3125 47.703125 
L 18.3125 18.015625 
Q 18.3125 11.328125 20.140625 9.421875 
Q 21.96875 7.515625 27.59375 7.515625 
L 36.8125 7.515625 
L 36.8125 0 
L 27.59375 0 
Q 17.1875 0 13.234375 3.875 
Q 9.28125 7.765625 9.28125 18.015625 
L 9.28125 47.703125 
L 2.6875 47.703125 
L 2.6875 54.6875 
L 9.28125 54.6875 
L 9.28125 70.21875 
z
" id="DejaVuSans-116"/>
      </defs>
      <use xlink:href="#DejaVuSans-87"/>
      <use x="92.501953" xlink:href="#DejaVuSans-97"/>
      <use x="153.78125" xlink:href="#DejaVuSans-121"/>
      <use x="212.960938" xlink:href="#DejaVuSans-112"/>
      <use x="276.4375" xlink:href="#DejaVuSans-111"/>
      <use x="337.619141" xlink:href="#DejaVuSans-105"/>
      <use x="365.402344" xlink:href="#DejaVuSans-110"/>
      <use x="428.78125" xlink:href="#DejaVuSans-116"/>
      <use x="467.990234" xlink:href="#DejaVuSans-115"/>
     </g>
    </g>
    <g id="line2d_18">
     <path d="M 66.6 278.326188 
L 86.6 278.326188 
" style="fill:none;stroke:#ff7f0e;stroke-linecap:square;stroke-width:1.5;"/>
    </g>
    <g id="line2d_19"/>
    <g id="text_15">
     <!-- Stanley -->
     <g transform="translate(94.6 281.826188)scale(0.1 -0.1)">
      <defs>
       <path d="M 53.515625 70.515625 
L 53.515625 60.890625 
Q 47.90625 63.578125 42.921875 64.890625 
Q 37.9375 66.21875 33.296875 66.21875 
Q 25.25 66.21875 20.875 63.09375 
Q 16.5 59.96875 16.5 54.203125 
Q 16.5 49.359375 19.40625 46.890625 
Q 22.3125 44.4375 30.421875 42.921875 
L 36.375 41.703125 
Q 47.40625 39.59375 52.65625 34.296875 
Q 57.90625 29 57.90625 20.125 
Q 57.90625 9.515625 50.796875 4.046875 
Q 43.703125 -1.421875 29.984375 -1.421875 
Q 24.8125 -1.421875 18.96875 -0.25 
Q 13.140625 0.921875 6.890625 3.21875 
L 6.890625 13.375 
Q 12.890625 10.015625 18.65625 8.296875 
Q 24.421875 6.59375 29.984375 6.59375 
Q 38.421875 6.59375 43.015625 9.90625 
Q 47.609375 13.234375 47.609375 19.390625 
Q 47.609375 24.75 44.3125 27.78125 
Q 41.015625 30.8125 33.5 32.328125 
L 27.484375 33.5 
Q 16.453125 35.6875 11.515625 40.375 
Q 6.59375 45.0625 6.59375 53.421875 
Q 6.59375 63.09375 13.40625 68.65625 
Q 20.21875 74.21875 32.171875 74.21875 
Q 37.3125 74.21875 42.625 73.28125 
Q 47.953125 72.359375 53.515625 70.515625 
z
" id="DejaVuSans-83"/>
       <path d="M 9.421875 75.984375 
L 18.40625 75.984375 
L 18.40625 0 
L 9.421875 0 
z
" id="DejaVuSans-108"/>
      </defs>
      <use xlink:href="#DejaVuSans-83"/>
      <use x="63.476562" xlink:href="#DejaVuSans-116"/>
      <use x="102.685547" xlink:href="#DejaVuSans-97"/>
      <use x="163.964844" xlink:href="#DejaVuSans-110"/>
      <use x="227.34375" xlink:href="#DejaVuSans-108"/>
      <use x="255.126953" xlink:href="#DejaVuSans-101"/>
      <use x="316.650391" xlink:href="#DejaVuSans-121"/>
     </g>
    </g>
    <g id="line2d_20">
     <path d="M 66.6 293.004312 
L 86.6 293.004312 
" style="fill:none;stroke:#2ca02c;stroke-linecap:square;stroke-width:1.5;"/>
    </g>
    <g id="line2d_21"/>
    <g id="text_16">
     <!-- Pure Pursuit -->
     <g transform="translate(94.6 296.504312)scale(0.1 -0.1)">
      <defs>
       <path d="M 19.671875 64.796875 
L 19.671875 37.40625 
L 32.078125 37.40625 
Q 38.96875 37.40625 42.71875 40.96875 
Q 46.484375 44.53125 46.484375 51.125 
Q 46.484375 57.671875 42.71875 61.234375 
Q 38.96875 64.796875 32.078125 64.796875 
z
M 9.8125 72.90625 
L 32.078125 72.90625 
Q 44.34375 72.90625 50.609375 67.359375 
Q 56.890625 61.8125 56.890625 51.125 
Q 56.890625 40.328125 50.609375 34.8125 
Q 44.34375 29.296875 32.078125 29.296875 
L 19.671875 29.296875 
L 19.671875 0 
L 9.8125 0 
z
" id="DejaVuSans-80"/>
       <path d="M 8.5 21.578125 
L 8.5 54.6875 
L 17.484375 54.6875 
L 17.484375 21.921875 
Q 17.484375 14.15625 20.5 10.265625 
Q 23.53125 6.390625 29.59375 6.390625 
Q 36.859375 6.390625 41.078125 11.03125 
Q 45.3125 15.671875 45.3125 23.6875 
L 45.3125 54.6875 
L 54.296875 54.6875 
L 54.296875 0 
L 45.3125 0 
L 45.3125 8.40625 
Q 42.046875 3.421875 37.71875 1 
Q 33.40625 -1.421875 27.6875 -1.421875 
Q 18.265625 -1.421875 13.375 4.4375 
Q 8.5 10.296875 8.5 21.578125 
z
M 31.109375 56 
z
" id="DejaVuSans-117"/>
       <path d="M 41.109375 46.296875 
Q 39.59375 47.171875 37.8125 47.578125 
Q 36.03125 48 33.890625 48 
Q 26.265625 48 22.1875 43.046875 
Q 18.109375 38.09375 18.109375 28.8125 
L 18.109375 0 
L 9.078125 0 
L 9.078125 54.6875 
L 18.109375 54.6875 
L 18.109375 46.1875 
Q 20.953125 51.171875 25.484375 53.578125 
Q 30.03125 56 36.53125 56 
Q 37.453125 56 38.578125 55.875 
Q 39.703125 55.765625 41.0625 55.515625 
z
" id="DejaVuSans-114"/>
      </defs>
      <use xlink:href="#DejaVuSans-80"/>
      <use x="58.552734" xlink:href="#DejaVuSans-117"/>
      <use x="121.931641" xlink:href="#DejaVuSans-114"/>
      <use x="160.794922" xlink:href="#DejaVuSans-101"/>
      <use x="222.318359" xlink:href="#DejaVuSans-32"/>
      <use x="254.105469" xlink:href="#DejaVuSans-80"/>
      <use x="312.658203" xlink:href="#DejaVuSans-117"/>
      <use x="376.037109" xlink:href="#DejaVuSans-114"/>
      <use x="417.150391" xlink:href="#DejaVuSans-115"/>
      <use x="469.25" xlink:href="#DejaVuSans-117"/>
      <use x="532.628906" xlink:href="#DejaVuSans-105"/>
      <use x="560.412109" xlink:href="#DejaVuSans-116"/>
     </g>
    </g>
   </g>
  </g>
 </g>
 <defs>
  <clipPath id="pfc5cd78035">
   <rect height="266.112" width="357.12" x="57.6" y="41.472"/>
  </clipPath>
 </defs>
</svg>
