<?xml version="1.0" encoding="utf-8" standalone="no"?>
<!DOCTYPE svg PUBLIC "-//W3C//DTD SVG 1.1//EN"
  "http://www.w3.org/Graphics/SVG/1.1/DTD/svg11.dtd">
<!-- Created with matplotlib (https://matplotlib.org/) -->
<svg height="345.6pt" version="1.1" viewBox="0 0 460.8 345.6" width="460.8pt" xmlns="http://www.w3.org/2000/svg" xmlns:xlink="http://www.w3.org/1999/xlink">
 <metadata>
  <rdf:RDF xmlns:cc="http://creativecommons.org/ns#" xmlns:dc="http://purl.org/dc/elements/1.1/" xmlns:rdf="http://www.w3.org/1999/02/22-rdf-syntax-ns#">
   <cc:Work>
    <dc:type rdf:resource="http://purl.org/dc/dcmitype/StillImage"/>
    <dc:date>2024-10-15T01:05:07.581320</dc:date>
    <dc:format>image/svg+xml</dc:format>
    <dc:creator>
     <cc:Agent>
      <dc:title>Matplotlib v3.3.1, https://matplotlib.org/</dc:title>
     </cc:Agent>
    </dc:creator>
   </cc:Work>
  </rdf:RDF>
 </metadata>
 <defs>
  <style type="text/css">*{stroke-linecap:butt;stroke-linejoin:round;}</style>
 </defs>
 <g id="figure_1">
  <g id="patch_1">
   <path d="M 0 345.6 
L 460.8 345.6 
L 460.8 0 
L 0 0 
z
" style="fill:#ffffff;"/>
  </g>
  <g id="axes_1">
   <g id="patch_2">
    <path d="M 57.6 307.584 
L 414.72 307.584 
L 414.72 41.472 
L 57.6 41.472 
z
" style="fill:#ffffff;"/>
   </g>
   <g id="matplotlib.axis_1">
    <g id="xtick_1">
     <g id="line2d_1">
      <defs>
       <path d="M 0 0 
L 0 3.5 
" id="m329895f849" style="stroke:#000000;stroke-width:0.8;"/>
      </defs>
      <g>
       <use style="stroke:#000000;stroke-width:0.8;" x="73.832727" xlink:href="#m329895f849" y="307.584"/>
      </g>
     </g>
     <g id="text_1">
      <!-- 0.0 -->
      <g transform="translate(65.881165 322.182437)scale(0.1 -0.1)">
       <defs>
        <path d="M 31.78125 66.40625 
Q 24.171875 66.40625 20.328125 58.90625 
Q 16.5 51.421875 16.5 36.375 
Q 16.5 21.390625 20.328125 13.890625 
Q 24.171875 6.390625 31.78125 6.390625 
Q 39.453125 6.390625 43.28125 13.890625 
Q 47.125 21.390625 47.125 36.375 
Q 47.125 51.421875 43.28125 58.90625 
Q 39.453125 66.40625 31.78125 66.40625 
z
M 31.78125 74.21875 
Q 44.046875 74.21875 50.515625 64.515625 
Q 56.984375 54.828125 56.984375 36.375 
Q 56.984375 17.96875 50.515625 8.265625 
Q 44.046875 -1.421875 31.78125 -1.421875 
Q 19.53125 -1.421875 13.0625 8.265625 
Q 6.59375 17.96875 6.59375 36.375 
Q 6.59375 54.828125 13.0625 64.515625 
Q 19.53125 74.21875 31.78125 74.21875 
z
" id="DejaVuSans-48"/>
        <path d="M 10.6875 12.40625 
L 21 12.40625 
L 21 0 
L 10.6875 0 
z
" id="DejaVuSans-46"/>
       </defs>
       <use xlink:href="#DejaVuSans-48"/>
       <use x="63.623047" xlink:href="#DejaVuSans-46"/>
       <use x="95.410156" xlink:href="#DejaVuSans-48"/>
      </g>
     </g>
    </g>
    <g id="xtick_2">
     <g id="line2d_2">
      <g>
       <use style="stroke:#000000;stroke-width:0.8;" x="138.763636" xlink:href="#m329895f849" y="307.584"/>
      </g>
     </g>
     <g id="text_2">
      <!-- 0.2 -->
      <g transform="translate(130.812074 322.182437)scale(0.1 -0.1)">
       <defs>
        <path d="M 19.1875 8.296875 
L 53.609375 8.296875 
L 53.609375 0 
L 7.328125 0 
L 7.328125 8.296875 
Q 12.9375 14.109375 22.625 23.890625 
Q 32.328125 33.6875 34.8125 36.53125 
Q 39.546875 41.84375 41.421875 45.53125 
Q 43.3125 49.21875 43.3125 52.78125 
Q 43.3125 58.59375 39.234375 62.25 
Q 35.15625 65.921875 28.609375 65.921875 
Q 23.96875 65.921875 18.8125 64.3125 
Q 13.671875 62.703125 7.8125 59.421875 
L 7.8125 69.390625 
Q 13.765625 71.78125 18.9375 73 
Q 24.125 74.21875 28.421875 74.21875 
Q 39.75 74.21875 46.484375 68.546875 
Q 53.21875 62.890625 53.21875 53.421875 
Q 53.21875 48.921875 51.53125 44.890625 
Q 49.859375 40.875 45.40625 35.40625 
Q 44.1875 33.984375 37.640625 27.21875 
Q 31.109375 20.453125 19.1875 8.296875 
z
" id="DejaVuSans-50"/>
       </defs>
       <use xlink:href="#DejaVuSans-48"/>
       <use x="63.623047" xlink:href="#DejaVuSans-46"/>
       <use x="95.410156" xlink:href="#DejaVuSans-50"/>
      </g>
     </g>
    </g>
    <g id="xtick_3">
     <g id="line2d_3">
      <g>
       <use style="stroke:#000000;stroke-width:0.8;" x="203.694545" xlink:href="#m329895f849" y="307.584"/>
      </g>
     </g>
     <g id="text_3">
      <!-- 0.4 -->
      <g transform="translate(195.742983 322.182437)scale(0.1 -0.1)">
       <defs>
        <path d="M 37.796875 64.3125 
L 12.890625 25.390625 
L 37.796875 25.390625 
z
M 35.203125 72.90625 
L 47.609375 72.90625 
L 47.609375 25.390625 
L 58.015625 25.390625 
L 58.015625 17.1875 
L 47.609375 17.1875 
L 47.609375 0 
L 37.796875 0 
L 37.796875 17.1875 
L 4.890625 17.1875 
L 4.890625 26.703125 
z
" id="DejaVuSans-52"/>
       </defs>
       <use xlink:href="#DejaVuSans-48"/>
       <use x="63.623047" xlink:href="#DejaVuSans-46"/>
       <use x="95.410156" xlink:href="#DejaVuSans-52"/>
      </g>
     </g>
    </g>
    <g id="xtick_4">
     <g id="line2d_4">
      <g>
       <use style="stroke:#000000;stroke-width:0.8;" x="268.625455" xlink:href="#m329895f849" y="307.584"/>
      </g>
     </g>
     <g id="text_4">
      <!-- 0.6 -->
      <g transform="translate(260.673892 322.182437)scale(0.1 -0.1)">
       <defs>
        <path d="M 33.015625 40.375 
Q 26.375 40.375 22.484375 35.828125 
Q 18.609375 31.296875 18.609375 23.390625 
Q 18.609375 15.53125 22.484375 10.953125 
Q 26.375 6.390625 33.015625 6.390625 
Q 39.65625 6.390625 43.53125 10.953125 
Q 47.40625 15.53125 47.40625 23.390625 
Q 47.40625 31.296875 43.53125 35.828125 
Q 39.65625 40.375 33.015625 40.375 
z
M 52.59375 71.296875 
L 52.59375 62.3125 
Q 48.875 64.0625 45.09375 64.984375 
Q 41.3125 65.921875 37.59375 65.921875 
Q 27.828125 65.921875 22.671875 59.328125 
Q 17.53125 52.734375 16.796875 39.40625 
Q 19.671875 43.65625 24.015625 45.921875 
Q 28.375 48.1875 33.59375 48.1875 
Q 44.578125 48.1875 50.953125 41.515625 
Q 57.328125 34.859375 57.328125 23.390625 
Q 57.328125 12.15625 50.6875 5.359375 
Q 44.046875 -1.421875 33.015625 -1.421875 
Q 20.359375 -1.421875 13.671875 8.265625 
Q 6.984375 17.96875 6.984375 36.375 
Q 6.984375 53.65625 15.1875 63.9375 
Q 23.390625 74.21875 37.203125 74.21875 
Q 40.921875 74.21875 44.703125 73.484375 
Q 48.484375 72.75 52.59375 71.296875 
z
" id="DejaVuSans-54"/>
       </defs>
       <use xlink:href="#DejaVuSans-48"/>
       <use x="63.623047" xlink:href="#DejaVuSans-46"/>
       <use x="95.410156" xlink:href="#DejaVuSans-54"/>
      </g>
     </g>
    </g>
    <g id="xtick_5">
     <g id="line2d_5">
      <g>
       <use style="stroke:#000000;stroke-width:0.8;" x="333.556364" xlink:href="#m329895f849" y="307.584"/>
      </g>
     </g>
     <g id="text_5">
      <!-- 0.8 -->
      <g transform="translate(325.604801 322.182437)scale(0.1 -0.1)">
       <defs>
        <path d="M 31.78125 34.625 
Q 24.75 34.625 20.71875 30.859375 
Q 16.703125 27.09375 16.703125 20.515625 
Q 16.703125 13.921875 20.71875 10.15625 
Q 24.75 6.390625 31.78125 6.390625 
Q 38.8125 6.390625 42.859375 10.171875 
Q 46.921875 13.96875 46.921875 20.515625 
Q 46.921875 27.09375 42.890625 30.859375 
Q 38.875 34.625 31.78125 34.625 
z
M 21.921875 38.8125 
Q 15.578125 40.375 12.03125 44.71875 
Q 8.5 49.078125 8.5 55.328125 
Q 8.5 64.0625 14.71875 69.140625 
Q 20.953125 74.21875 31.78125 74.21875 
Q 42.671875 74.21875 48.875 69.140625 
Q 55.078125 64.0625 55.078125 55.328125 
Q 55.078125 49.078125 51.53125 44.71875 
Q 48 40.375 41.703125 38.8125 
Q 48.828125 37.15625 52.796875 32.3125 
Q 56.78125 27.484375 56.78125 20.515625 
Q 56.78125 9.90625 50.3125 4.234375 
Q 43.84375 -1.421875 31.78125 -1.421875 
Q 19.734375 -1.421875 13.25 4.234375 
Q 6.78125 9.90625 6.78125 20.515625 
Q 6.78125 27.484375 10.78125 32.3125 
Q 14.796875 37.15625 21.921875 38.8125 
z
M 18.3125 54.390625 
Q 18.3125 48.734375 21.84375 45.5625 
Q 25.390625 42.390625 31.78125 42.390625 
Q 38.140625 42.390625 41.71875 45.5625 
Q 45.3125 48.734375 45.3125 54.390625 
Q 45.3125 60.0625 41.71875 63.234375 
Q 38.140625 66.40625 31.78125 66.40625 
Q 25.390625 66.40625 21.84375 63.234375 
Q 18.3125 60.0625 18.3125 54.390625 
z
" id="DejaVuSans-56"/>
       </defs>
       <use xlink:href="#DejaVuSans-48"/>
       <use x="63.623047" xlink:href="#DejaVuSans-46"/>
       <use x="95.410156" xlink:href="#DejaVuSans-56"/>
      </g>
     </g>
    </g>
    <g id="xtick_6">
     <g id="line2d_6">
      <g>
       <use style="stroke:#000000;stroke-width:0.8;" x="398.487273" xlink:href="#m329895f849" y="307.584"/>
      </g>
     </g>
     <g id="text_6">
      <!-- 1.0 -->
      <g transform="translate(390.53571 322.182437)scale(0.1 -0.1)">
       <defs>
        <path d="M 12.40625 8.296875 
L 28.515625 8.296875 
L 28.515625 63.921875 
L 10.984375 60.40625 
L 10.984375 69.390625 
L 28.421875 72.90625 
L 38.28125 72.90625 
L 38.28125 8.296875 
L 54.390625 8.296875 
L 54.390625 0 
L 12.40625 0 
z
" id="DejaVuSans-49"/>
       </defs>
       <use xlink:href="#DejaVuSans-49"/>
       <use x="63.623047" xlink:href="#DejaVuSans-46"/>
       <use x="95.410156" xlink:href="#DejaVuSans-48"/>
      </g>
     </g>
    </g>
   </g>
   <g id="matplotlib.axis_2">
    <g id="ytick_1">
     <g id="line2d_7">
      <defs>
       <path d="M 0 0 
L -3.5 0 
" id="m8f4dc4a7cd" style="stroke:#000000;stroke-width:0.8;"/>
      </defs>
      <g>
       <use style="stroke:#000000;stroke-width:0.8;" x="57.6" xlink:href="#m8f4dc4a7cd" y="290.050406"/>
      </g>
     </g>
     <g id="text_7">
      <!-- −3 -->
      <g transform="translate(35.857813 293.849624)scale(0.1 -0.1)">
       <defs>
        <path d="M 10.59375 35.5 
L 73.1875 35.5 
L 73.1875 27.203125 
L 10.59375 27.203125 
z
" id="DejaVuSans-8722"/>
        <path d="M 40.578125 39.3125 
Q 47.65625 37.796875 51.625 33 
Q 55.609375 28.21875 55.609375 21.1875 
Q 55.609375 10.40625 48.1875 4.484375 
Q 40.765625 -1.421875 27.09375 -1.421875 
Q 22.515625 -1.421875 17.65625 -0.515625 
Q 12.796875 0.390625 7.625 2.203125 
L 7.625 11.71875 
Q 11.71875 9.328125 16.59375 8.109375 
Q 21.484375 6.890625 26.8125 6.890625 
Q 36.078125 6.890625 40.9375 10.546875 
Q 45.796875 14.203125 45.796875 21.1875 
Q 45.796875 27.640625 41.28125 31.265625 
Q 36.765625 34.90625 28.71875 34.90625 
L 20.21875 34.90625 
L 20.21875 43.015625 
L 29.109375 43.015625 
Q 36.375 43.015625 40.234375 45.921875 
Q 44.09375 48.828125 44.09375 54.296875 
Q 44.09375 59.90625 40.109375 62.90625 
Q 36.140625 65.921875 28.71875 65.921875 
Q 24.65625 65.921875 20.015625 65.03125 
Q 15.375 64.15625 9.8125 62.3125 
L 9.8125 71.09375 
Q 15.4375 72.65625 20.34375 73.4375 
Q 25.25 74.21875 29.59375 74.21875 
Q 40.828125 74.21875 47.359375 69.109375 
Q 53.90625 64.015625 53.90625 55.328125 
Q 53.90625 49.265625 50.4375 45.09375 
Q 46.96875 40.921875 40.578125 39.3125 
z
" id="DejaVuSans-51"/>
       </defs>
       <use xlink:href="#DejaVuSans-8722"/>
       <use x="83.789062" xlink:href="#DejaVuSans-51"/>
      </g>
     </g>
    </g>
    <g id="ytick_2">
     <g id="line2d_8">
      <g>
       <use style="stroke:#000000;stroke-width:0.8;" x="57.6" xlink:href="#m8f4dc4a7cd" y="251.538356"/>
      </g>
     </g>
     <g id="text_8">
      <!-- −2 -->
      <g transform="translate(35.857813 255.337574)scale(0.1 -0.1)">
       <use xlink:href="#DejaVuSans-8722"/>
       <use x="83.789062" xlink:href="#DejaVuSans-50"/>
      </g>
     </g>
    </g>
    <g id="ytick_3">
     <g id="line2d_9">
      <g>
       <use style="stroke:#000000;stroke-width:0.8;" x="57.6" xlink:href="#m8f4dc4a7cd" y="213.026305"/>
      </g>
     </g>
     <g id="text_9">
      <!-- −1 -->
      <g transform="translate(35.857813 216.825524)scale(0.1 -0.1)">
       <use xlink:href="#DejaVuSans-8722"/>
       <use x="83.789062" xlink:href="#DejaVuSans-49"/>
      </g>
     </g>
    </g>
    <g id="ytick_4">
     <g id="line2d_10">
      <g>
       <use style="stroke:#000000;stroke-width:0.8;" x="57.6" xlink:href="#m8f4dc4a7cd" y="174.514255"/>
      </g>
     </g>
     <g id="text_10">
      <!-- 0 -->
      <g transform="translate(44.2375 178.313474)scale(0.1 -0.1)">
       <use xlink:href="#DejaVuSans-48"/>
      </g>
     </g>
    </g>
    <g id="ytick_5">
     <g id="line2d_11">
      <g>
       <use style="stroke:#000000;stroke-width:0.8;" x="57.6" xlink:href="#m8f4dc4a7cd" y="136.002205"/>
      </g>
     </g>
     <g id="text_11">
      <!-- 1 -->
      <g transform="translate(44.2375 139.801424)scale(0.1 -0.1)">
       <use xlink:href="#DejaVuSans-49"/>
      </g>
     </g>
    </g>
    <g id="ytick_6">
     <g id="line2d_12">
      <g>
       <use style="stroke:#000000;stroke-width:0.8;" x="57.6" xlink:href="#m8f4dc4a7cd" y="97.490155"/>
      </g>
     </g>
     <g id="text_12">
      <!-- 2 -->
      <g transform="translate(44.2375 101.289374)scale(0.1 -0.1)">
       <use xlink:href="#DejaVuSans-50"/>
      </g>
     </g>
    </g>
    <g id="ytick_7">
     <g id="line2d_13">
      <g>
       <use style="stroke:#000000;stroke-width:0.8;" x="57.6" xlink:href="#m8f4dc4a7cd" y="58.978105"/>
      </g>
     </g>
     <g id="text_13">
      <!-- 3 -->
      <g transform="translate(44.2375 62.777324)scale(0.1 -0.1)">
       <use xlink:href="#DejaVuSans-51"/>
      </g>
     </g>
    </g>
   </g>
   <g id="line2d_14">
    <path clip-path="url(#pb4fdda10a8)" d="M 73.832727 167.127266 
L 74.023142 167.127266 
L 82.020545 173.131831 
L 88.685047 178.546697 
L 91.922091 181.437648 
L 93.445406 183.245582 
L 94.96872 185.459066 
L 96.682448 188.438959 
L 98.396176 191.813381 
L 100.300318 196.254259 
L 102.204458 201.370479 
L 103.918184 206.658606 
L 108.107289 219.996675 
L 109.249773 222.737329 
L 110.392258 224.955136 
L 111.344329 226.417717 
L 112.486815 227.689264 
L 113.438887 228.330218 
L 114.581373 228.806479 
L 116.295102 229.232548 
L 118.38966 229.51136 
L 120.674633 229.569785 
L 127.910379 229.51689 
L 134.95571 229.241698 
L 142.191456 228.709821 
L 146.380572 228.244551 
L 147.713473 227.803918 
L 148.665544 227.265422 
L 149.617616 226.401811 
L 150.569687 225.225485 
L 151.712171 223.376766 
L 153.045068 220.612002 
L 154.18755 217.726351 
L 155.520442 213.818793 
L 156.853334 209.151091 
L 158.186217 203.670944 
L 159.709508 196.193882 
L 161.232788 187.316009 
L 162.756055 176.621958 
L 163.898511 169.144629 
L 165.040979 163.349798 
L 165.993044 159.72805 
L 166.754697 157.597311 
L 167.325938 156.434143 
L 168.087595 155.518151 
L 168.658838 155.310967 
L 169.039667 155.378757 
L 169.420495 155.622868 
L 169.801324 156.043539 
L 170.372566 156.985288 
L 171.13422 158.888178 
L 172.086286 162.280646 
L 172.847934 165.749435 
L 173.799984 170.990641 
L 175.132864 177.961014 
L 176.465746 183.783635 
L 177.798636 188.571042 
L 178.941116 191.856306 
L 179.893184 194.035548 
L 180.845254 195.684501 
L 181.606911 196.643954 
L 182.178153 197.15653 
L 182.939811 197.537671 
L 183.701468 197.597084 
L 184.65354 197.358837 
L 185.98644 196.863738 
L 186.748098 196.994236 
L 187.509755 197.482805 
L 188.271412 198.336423 
L 189.033068 199.66271 
L 189.794721 201.68199 
L 190.746785 205.308387 
L 191.508431 209.07427 
L 192.270069 213.705653 
L 193.222097 220.762454 
L 194.364513 231.545594 
L 195.316517 243.191948 
L 197.601264 273.90138 
L 198.362892 280.763095 
L 199.124534 285.922137 
L 199.695769 288.755077 
L 200.267011 290.54238 
L 200.647839 291.23629 
L 200.838253 291.475042 
L 201.219081 291.528471 
L 201.59991 291.156441 
L 202.171153 289.762257 
L 202.55198 288.354594 
L 203.123216 285.534838 
L 203.884859 280.303707 
L 204.836908 271.285359 
L 205.598531 261.873695 
L 206.360142 249.814558 
L 207.502571 227.40001 
L 208.645007 206.419522 
L 209.406637 196.327313 
L 209.977871 190.706719 
L 210.739519 185.95701 
L 211.310761 184.40126 
L 211.501175 184.1272 
L 211.882004 184.293172 
L 212.262832 185.16019 
L 212.834069 187.838092 
L 213.214891 190.438339 
L 213.786124 195.554968 
L 217.403809 235.317733 
L 219.11744 253.806376 
L 220.831014 273.412814 
L 221.783046 281.887717 
L 222.925491 289.89923 
L 223.87754 295.043604 
L 224.067954 53.964669 
L 225.020015 57.535521 
L 225.591256 59.105981 
L 226.352911 60.479743 
L 227.685811 62.04824 
L 233.398237 68.218021 
L 244.442263 79.654608 
L 247.488891 82.756038 
L 259.48499 95.431199 
L 265.959075 102.433437 
L 267.672804 103.797168 
L 269.005704 104.623337 
L 270.529019 105.295207 
L 272.052334 105.679341 
L 273.575649 105.77567 
L 275.098964 105.585536 
L 276.622279 105.107332 
L 278.145593 104.348093 
L 279.668908 103.297607 
L 281.192223 101.965465 
L 282.905952 100.114726 
L 285.000509 97.709524 
L 285.571752 97.480371 
L 285.952581 97.479497 
L 286.333409 97.60657 
L 286.714238 97.861103 
L 287.285481 98.468689 
L 288.047138 99.746673 
L 288.999209 101.987276 
L 290.712936 106.188125 
L 292.23625 109.281677 
L 293.759565 111.740104 
L 295.092465 113.377602 
L 296.044537 114.265318 
L 297.187023 115.012079 
L 298.329509 115.433734 
L 299.281581 115.524036 
L 300.233652 115.396282 
L 301.376139 114.939873 
L 302.518625 114.146452 
L 303.661111 113.028991 
L 304.803597 111.578409 
L 306.136497 109.456112 
L 307.278983 107.266999 
L 308.421469 104.645185 
L 309.75437 101.016884 
L 311.277684 96.084718 
L 312.800999 90.279226 
L 314.514728 82.671912 
L 316.038042 75.986922 
L 317.561357 70.195077 
L 319.084672 65.187897 
L 320.607986 60.843259 
L 322.131301 57.052356 
L 323.464202 54.194463 
L 323.654616 53.824357 
L 323.84503 295.432566 
L 325.368345 292.846032 
L 326.89166 290.860007 
L 328.224561 289.525386 
L 329.176632 288.838857 
L 330.319119 288.324534 
L 331.461605 288.148131 
L 332.413677 288.27204 
L 333.175334 288.540429 
L 334.127406 289.089933 
L 335.269892 290.07336 
L 336.412378 291.403274 
L 337.745278 293.394478 
L 338.887764 295.446911 
L 339.078178 53.829747 
L 340.03025 55.385836 
L 340.601492 55.958306 
L 341.172736 56.173781 
L 341.553564 56.150256 
L 341.934393 55.983441 
L 342.315222 55.673464 
L 342.886465 54.957868 
L 343.457708 53.885713 
L 343.648122 295.458608 
L 344.600192 292.786309 
L 345.361848 290.038536 
L 346.123503 286.740925 
L 348.979706 273.649955 
L 350.503017 268.224594 
L 352.026329 263.735265 
L 353.359228 260.599259 
L 354.501714 258.463461 
L 355.453785 257.117053 
L 356.215442 256.379773 
L 356.786685 256.156585 
L 356.9771 256.1515 
L 357.548343 256.636029 
L 357.929171 257.25592 
L 358.31 258.174383 
L 358.690828 259.428466 
L 359.262067 261.891897 
L 360.023718 266.35912 
L 360.975779 273.909338 
L 361.737421 281.754378 
L 362.499059 291.276076 
L 362.689464 293.914839 
L 362.879878 54.946384 
L 364.593584 80.65251 
L 365.545639 91.209433 
L 366.497702 99.5365 
L 367.449765 105.948848 
L 368.211419 109.912957 
L 368.782661 112.233519 
L 369.734732 114.861666 
L 370.877216 117.970685 
L 372.0197 121.599477 
L 373.352598 126.515953 
L 374.875908 133.025442 
L 376.208802 139.738893 
L 377.732111 147.461726 
L 378.493766 150.3943 
L 379.065009 152.103943 
L 379.826666 153.683004 
L 380.588323 154.525832 
L 385.539096 157.972107 
L 391.82277 162.168222 
L 396.2023 165.209045 
L 398.487273 166.85184 
L 398.487273 166.85184 
" style="fill:none;stroke:#1f77b4;stroke-linecap:square;stroke-width:1.5;"/>
   </g>
   <g id="line2d_15">
    <path clip-path="url(#pb4fdda10a8)" d="M 73.832727 167.398597 
L 74.590286 168.745645 
L 74.590286 168.745645 
L 75.347954 170.066178 
L 75.802598 170.535749 
L 75.802598 170.535749 
L 76.257269 170.636986 
L 76.863532 170.404599 
L 77.469829 170.104749 
L 77.772988 170.153334 
L 78.227738 170.550339 
L 78.227738 170.550339 
L 78.834091 171.479192 
L 78.834091 171.479192 
L 80.198445 173.796116 
L 80.653244 174.116157 
L 80.653244 174.116157 
L 81.108049 174.102359 
L 82.169278 173.825612 
L 82.472491 173.947415 
L 82.472491 173.947415 
L 82.927311 174.416283 
L 83.685351 175.679277 
L 83.685351 175.679277 
L 84.595007 177.275301 
L 85.049838 177.736697 
L 85.50467 177.830828 
L 85.50467 177.830828 
L 86.869172 177.556981 
L 87.324008 177.925488 
L 87.324008 177.925488 
L 87.930456 178.817697 
L 87.930456 178.817697 
L 89.446582 181.331401 
L 89.90142 181.706841 
L 90.356259 181.74604 
L 90.356259 181.74604 
L 91.114324 181.619277 
L 91.569163 181.764801 
L 91.569163 181.764801 
L 92.024003 182.23953 
L 92.782069 183.494187 
L 92.782069 183.494187 
L 94.904654 187.360828 
L 96.117493 188.759764 
L 96.570974 189.741626 
L 97.171461 191.700747 
L 98.64217 197.105305 
L 99.07482 197.974031 
L 99.503749 198.452064 
L 100.210984 198.961559 
L 100.631141 199.615111 
L 101.186775 201.206134 
L 102.147956 205.059673 
L 102.147956 205.059673 
L 103.097482 208.785408 
L 103.63629 209.960633 
L 104.70828 211.790872 
L 105.242058 213.439633 
L 106.041119 216.997488 
L 107.106428 221.663981 
L 107.773635 223.379316 
L 108.57759 224.811316 
L 108.57759 224.811316 
L 110.482002 227.888951 
L 111.177422 229.193225 
L 111.741611 229.90582 
L 112.169608 230.1397 
L 113.181615 230.300161 
L 114.355377 230.567703 
L 115.989052 231.068223 
L 115.989052 231.068223 
L 116.586996 230.811286 
L 116.586996 230.811286 
L 117.636863 230.062079 
L 118.690031 229.308597 
L 119.142153 229.282001 
L 119.745548 229.512207 
L 120.349485 229.754907 
L 120.953868 229.666813 
L 121.861109 229.199978 
L 122.768968 228.7208 
L 122.768968 228.7208 
L 123.374472 228.829243 
L 124.283035 229.361183 
L 125.494879 230.13962 
L 126.100938 230.05785 
L 126.858609 229.644815 
L 126.858609 229.644815 
L 127.919488 229.006297 
L 128.525761 229.083144 
L 129.283647 229.484624 
L 129.283647 229.484624 
L 130.344751 230.108055 
L 130.951122 230.024889 
L 131.860706 229.518609 
L 133.073521 228.755404 
L 133.679941 228.84029 
L 134.437974 229.255444 
L 135.196015 229.659648 
L 135.802452 229.582936 
L 136.712113 229.093534 
L 137.925002 228.349696 
L 138.531449 228.441081 
L 139.441122 228.963589 
L 139.89596 229.231689 
L 140.350797 229.268141 
L 140.957248 229.065901 
L 142.018539 228.381082 
L 142.018539 228.381082 
L 142.776605 227.962213 
L 143.383057 228.0536 
L 144.899191 228.643714 
L 145.505644 228.441466 
L 146.566938 227.76936 
L 147.325006 227.360476 
L 147.93146 227.458357 
L 148.537875 227.632073 
L 148.990537 227.530489 
L 149.437727 227.019226 
L 149.877499 226.146217 
L 149.877499 226.146217 
L 150.592825 224.086229 
L 151.958082 219.705334 
L 152.481912 218.808645 
L 153.120585 218.21336 
L 153.120585 218.21336 
L 153.37107 217.984774 
L 153.742065 217.267921 
L 154.107406 216.185243 
L 154.107406 216.185243 
L 154.703787 213.48771 
L 155.853286 207.895402 
L 156.29797 206.955343 
L 156.734716 206.598632 
L 157.05736 206.29282 
L 157.375537 205.514877 
L 157.793575 203.586325 
L 159.400287 194.044877 
L 160.45518 190.406643 
L 160.45518 190.406643 
L 161.202082 185.869249 
L 161.202082 185.869249 
L 164.130034 165.415979 
L 164.130034 165.415979 
L 164.779346 162.603781 
L 166.018215 158.502367 
L 166.018215 158.502367 
L 167.22218 155.104622 
L 167.22218 155.104622 
L 167.855033 154.112652 
L 168.291172 153.826552 
L 169.199578 153.693988 
L 169.664136 153.918911 
L 170.013574 154.400819 
L 170.361043 155.183219 
L 170.361043 155.183219 
L 170.703904 156.470248 
L 171.700329 161.755409 
L 171.700329 161.755409 
L 172.446616 165.274694 
L 173.383795 169.221727 
L 173.383795 169.221727 
L 173.900081 172.287993 
L 175.34719 182.397018 
L 175.867997 184.212193 
L 175.867997 184.212193 
L 176.922108 187.096346 
L 178.662969 193.601533 
L 179.339721 194.734653 
L 179.339721 194.734653 
L 181.354858 197.432854 
L 182.627205 198.952762 
L 183.158764 199.187356 
L 183.841401 199.23122 
L 183.841401 199.23122 
L 184.399328 198.945836 
L 184.399328 198.945836 
L 185.529283 198.063988 
L 186.222111 197.353367 
L 186.887135 196.383142 
L 187.393868 195.710303 
L 187.759491 195.495808 
L 187.996512 195.607676 
L 188.228139 196.018235 
L 188.566339 197.245552 
L 188.566339 197.245552 
L 190.014044 204.173251 
L 190.395014 204.712948 
L 190.672298 205.13439 
L 190.942852 205.975168 
L 190.942852 205.975168 
L 191.379966 208.606673 
L 194.062602 228.336033 
L 194.062602 228.336033 
L 194.994669 238.212258 
L 196.461992 256.723426 
L 197.425715 271.811557 
L 197.425715 271.811557 
L 197.887484 275.439804 
L 198.85146 282.665974 
L 199.435197 287.492913 
L 199.815596 288.941903 
L 201.04923 291.697614 
L 201.576598 292.550627 
L 201.840876 292.598584 
L 202.01507 292.331696 
L 202.01507 292.331696 
L 202.272427 291.441615 
L 202.687239 288.91833 
L 202.687239 288.91833 
L 204.441248 275.31914 
L 204.441248 275.31914 
L 205.26266 266.649724 
L 206.468626 249.904906 
L 209.338214 198.835972 
L 210.079045 191.393769 
L 210.816927 186.200785 
L 210.816927 186.200785 
L 211.251648 184.669511 
L 211.631667 184.225231 
L 211.86404 184.259892 
L 212.175566 184.769067 
L 212.485318 185.77622 
L 212.864314 187.760392 
L 213.306045 191.620256 
L 214.878878 209.551022 
L 215.80986 221.673353 
L 215.80986 221.673353 
L 216.243586 224.859203 
L 216.826855 229.403049 
L 217.486221 237.611684 
L 218.356005 248.356236 
L 219.21161 255.682833 
L 220.923209 276.402622 
L 221.878584 282.71133 
L 221.878584 282.71133 
L 223.195339 293.054885 
L 223.767424 295.275944 
L 223.767424 295.275944 
L 223.850854 53.577312 
L 223.934748 53.860598 
L 224.447691 55.851857 
L 224.447691 55.851857 
L 225.531453 60.346737 
L 225.531453 60.346737 
L 226.009455 61.264531 
L 226.404539 61.516163 
L 226.915609 61.746837 
L 227.556858 62.507008 
L 227.556858 62.507008 
L 228.934965 64.332305 
L 228.934965 64.332305 
L 229.547587 64.606792 
L 229.926058 64.810374 
L 229.926058 64.810374 
L 230.574936 65.473313 
L 231.935619 67.240302 
L 233.645331 69.761584 
L 235.84796 73.009552 
L 236.740793 73.552818 
L 236.740793 73.552818 
L 237.488131 73.946666 
L 238.087698 74.664171 
L 238.989266 76.200599 
L 239.591488 77.102198 
L 240.345304 77.80995 
L 240.345304 77.80995 
L 241.553237 78.537786 
L 241.553237 78.537786 
L 242.611515 79.159224 
L 243.216655 79.952765 
L 244.124787 81.601381 
L 244.730434 82.565553 
L 245.184764 82.995367 
L 245.184764 82.995367 
L 245.639164 83.059579 
L 246.396626 82.938563 
L 246.396626 82.938563 
L 246.851168 83.076939 
L 247.30575 83.541385 
L 248.063463 84.77763 
L 249.882256 87.972709 
L 250.488583 88.502647 
L 252.307684 89.223455 
L 252.76248 89.76232 
L 253.672089 91.335348 
L 253.672089 91.335348 
L 254.43011 92.606912 
L 255.036535 93.239228 
L 255.491357 93.351009 
L 255.491357 93.351009 
L 256.249399 93.411134 
L 256.855837 93.671483 
L 257.310667 94.185312 
L 257.310667 94.185312 
L 258.06872 95.459635 
L 259.736446 98.491404 
L 259.736446 98.491404 
L 260.494507 99.194977 
L 261.555795 99.849348 
L 261.555795 99.849348 
L 262.92031 100.632084 
L 263.526762 101.430441 
L 264.436441 103.089718 
L 265.34612 104.691443 
L 265.800959 105.127875 
L 265.800959 105.127875 
L 266.255799 105.191907 
L 267.62032 104.837759 
L 267.62032 104.837759 
L 268.07516 105.187549 
L 268.681614 106.061111 
L 269.591295 107.537781 
L 270.046135 107.804903 
L 270.046135 107.804903 
L 270.500976 107.774176 
L 270.804203 107.569325 
L 271.410657 106.754537 
L 272.168725 105.875401 
L 272.623565 105.707617 
L 273.23002 105.815639 
L 274.139701 106.343228 
L 274.594542 106.609774 
L 275.049383 106.643661 
L 275.35261 106.495265 
L 275.807451 105.967753 
L 277.626813 103.273939 
L 278.081654 103.10761 
L 278.536495 103.192017 
L 278.536495 103.192017 
L 279.142949 103.392639 
L 279.142949 103.392639 
L 279.59779 103.343106 
L 280.05263 102.952294 
L 280.659084 102.020559 
L 281.265538 100.490645 
L 282.326832 97.9607 
L 282.781672 97.418926 
L 282.781672 97.418926 
L 283.236513 97.304205 
L 283.99458 97.397482 
L 283.99458 97.397482 
L 284.449421 97.09253 
L 285.055875 96.287574 
L 286.420396 94.167224 
L 286.420396 94.167224 
L 286.723623 94.056094 
L 287.02685 94.204411 
L 287.02685 94.204411 
L 287.330077 94.638066 
L 287.784918 95.995781 
L 288.391371 98.970779 
L 290.210725 109.037592 
L 290.817176 110.867411 
L 291.423627 111.873925 
L 292.333304 113.368958 
L 293.091368 115.286726 
L 293.091368 115.286726 
L 294.607498 119.316562 
L 294.910724 119.660096 
L 294.910724 119.660096 
L 295.213951 119.758617 
L 295.517178 119.56617 
L 295.517178 119.56617 
L 295.972018 118.884601 
L 297.184927 116.727237 
L 297.488154 116.59732 
L 297.791381 116.708486 
L 298.246222 117.196088 
L 299.00429 118.257134 
L 299.307517 118.400315 
L 299.610744 118.273984 
L 299.913972 117.83297 
L 300.368812 116.737743 
L 300.368812 116.737743 
L 301.733334 113.013051 
L 302.188174 112.558486 
L 302.188174 112.558486 
L 302.643015 112.492536 
L 303.400951 112.617481 
L 303.400951 112.617481 
L 303.702962 112.542303 
L 304.003321 112.263643 
L 304.003321 112.263643 
L 304.301205 111.711127 
L 304.742956 110.364196 
L 305.46529 107.223939 
L 306.307464 103.730333 
L 306.307464 103.730333 
L 306.718688 102.692632 
L 307.123718 102.267224 
L 307.522952 102.292652 
L 308.433169 102.707358 
L 308.433169 102.707358 
L 308.688358 102.367539 
L 308.941659 101.721411 
L 308.941659 101.721411 
L 309.317792 100.107831 
L 310.902323 91.418448 
L 310.902323 91.418448 
L 311.259225 90.782929 
L 311.613426 90.562854 
L 311.965114 90.356623 
L 312.198364 90.025191 
L 312.546578 88.97868 
L 313.008282 86.573448 
L 314.611572 76.925263 
L 314.611572 76.925263 
L 315.183261 75.292024 
L 315.870474 73.503018 
L 316.44513 71.322706 
L 316.44513 71.322706 
L 318.424886 62.97901 
L 319.01828 61.786719 
L 320.348141 59.473651 
L 320.841205 57.950863 
L 321.844399 54.752164 
L 322.355268 53.659811 
L 322.484012 295.424256 
L 323.39726 294.181701 
L 323.929039 293.412259 
L 324.741189 291.671698 
L 325.432429 290.269299 
L 325.432429 290.269299 
L 326.279728 289.124863 
L 327.14283 288.177767 
L 327.14283 288.177767 
L 327.871238 287.821337 
L 328.901461 287.347445 
L 328.901461 287.347445 
L 330.38811 285.837079 
L 330.836563 285.839051 
L 331.435831 286.139506 
L 332.337047 286.927792 
L 333.391137 288.11444 
L 334.749366 289.495406 
L 335.504961 290.816643 
L 335.504961 290.816643 
L 337.774514 295.488 
L 337.925922 53.816324 
L 337.925922 53.816324 
L 339.8925 58.037378 
L 340.633109 60.618843 
L 341.48655 63.678181 
L 341.48655 63.678181 
L 341.760526 64.019728 
L 341.895482 64.03125 
L 342.029217 63.888743 
L 342.029217 63.888743 
L 342.29291 63.144571 
L 342.679793 60.903282 
L 343.180348 56.157186 
L 343.303101 54.810734 
L 343.424935 295.458759 
L 344.022607 290.245571 
L 344.022607 290.245571 
L 344.373293 289.041086 
L 344.489028 288.97229 
L 344.489028 288.97229 
L 344.719014 289.217947 
L 345.511369 291.049747 
L 345.623374 291.002384 
L 345.846829 290.478655 
L 345.846829 290.478655 
L 346.181051 288.486022 
L 346.625696 283.786729 
L 347.736647 270.471583 
L 348.070545 268.816908 
L 348.070545 268.816908 
L 348.293475 268.58653 
L 348.51673 268.888128 
L 348.51673 268.888128 
L 348.964547 270.305578 
L 348.964547 270.305578 
L 349.301823 271.051859 
L 349.414572 271.087953 
L 349.414572 271.087953 
L 349.640592 270.742485 
L 349.981045 269.259031 
L 350.552903 265.301868 
L 351.247635 260.996816 
L 351.247635 260.996816 
L 351.599077 260.066331 
L 351.835039 259.892837 
L 352.072423 259.964128 
L 352.793823 260.441489 
L 353.037596 260.362216 
L 353.406627 259.837384 
L 353.905077 258.378523 
L 355.541736 252.638214 
L 355.907728 252.18269 
L 356.263659 252.131607 
L 356.494842 252.389439 
L 356.830761 253.142748 
L 357.257719 254.683072 
L 357.953899 257.235241 
L 359.10467 260.285319 
L 359.430555 262.400318 
L 360.981278 275.429658 
L 361.581615 281.125043 
L 361.581615 281.125043 
L 362.403783 290.791847 
L 362.711528 294.870613 
L 362.77285 53.706976 
L 362.834128 54.523718 
L 363.446116 64.338123 
L 364.24717 76.972535 
L 366.273497 98.540659 
L 366.77013 101.512249 
L 367.745103 107.642124 
L 368.384376 111.7831 
L 368.972462 113.851227 
L 369.500784 114.887935 
L 370.243121 116.299628 
L 371.230474 119.14965 
L 371.958261 121.963798 
L 371.958261 121.963798 
L 372.705469 125.627901 
L 373.678595 130.673784 
L 373.678595 130.673784 
L 375.930458 141.374101 
L 377.839402 151.672023 
L 378.374324 153.574571 
L 378.374324 153.574571 
L 378.914807 154.699978 
L 379.79792 155.963745 
L 380.714686 156.987295 
L 381.310348 157.161597 
L 383.090015 157.35193 
L 383.090015 157.35193 
L 383.630444 157.232686 
L 383.630444 157.232686 
L 384.322168 157.381165 
L 385.313959 157.857671 
L 385.313959 157.857671 
L 385.890131 158.248518 
L 385.890131 158.248518 
L 386.471665 159.009034 
L 386.471665 159.009034 
L 387.057611 159.750227 
L 387.057611 159.750227 
L 387.795072 160.370569 
L 389.431827 161.300671 
L 389.431827 161.300671 
L 390.03054 161.691863 
L 390.03054 161.691863 
L 390.630624 162.480957 
L 390.630624 162.480957 
L 391.683364 164.019597 
L 392.286091 164.496295 
L 392.738576 164.505969 
L 393.946653 164.121742 
L 394.248939 164.240797 
L 394.248939 164.240797 
L 394.702529 164.709615 
L 395.458879 165.975872 
L 395.458879 165.975872 
L 396.366982 167.561003 
L 396.82119 167.844791 
L 397.275484 167.818195 
L 397.275484 167.818195 
L 398.487273 167.388808 
L 398.487273 167.388808 
" style="fill:none;stroke:#ff7f0e;stroke-linecap:square;stroke-width:1.5;"/>
   </g>
   <g id="line2d_16">
    <path clip-path="url(#pb4fdda10a8)" d="M 73.832727 168.054504 
L 75.341422 168.972004 
L 77.001472 169.976072 
L 77.907091 170.989312 
L 77.907091 170.989312 
L 79.265638 172.972962 
L 80.171392 173.726302 
L 81.530081 174.557627 
L 81.530081 174.557627 
L 84.096608 176.085929 
L 85.002462 176.844552 
L 87.4181 179.147418 
L 89.229845 180.417728 
L 90.890618 182.467364 
L 92.551393 184.038153 
L 92.551393 184.038153 
L 93.457271 185.651182 
L 97.381323 193.721489 
L 98.275344 196.078947 
L 99.586559 199.780014 
L 99.586559 199.780014 
L 100.441756 201.471789 
L 101.422505 202.994279 
L 102.250505 204.188798 
L 103.068513 206.010722 
L 104.14699 209.01236 
L 105.349492 213.560095 
L 107.472774 221.594639 
L 108.402173 224.19249 
L 109.202024 225.726458 
L 110.413118 227.537499 
L 110.413118 227.537499 
L 111.232274 228.461448 
L 111.785481 228.810504 
L 112.486624 228.946446 
L 113.775663 229.127941 
L 113.775663 229.127941 
L 114.942576 229.571663 
L 114.942576 229.571663 
L 117.162756 230.813514 
L 118.207667 231.30474 
L 118.806382 231.138184 
L 119.70613 230.542838 
L 119.70613 230.542838 
L 120.306852 230.174956 
L 120.306852 230.174956 
L 120.757771 230.158249 
L 121.359417 230.377363 
L 122.262619 230.810855 
L 122.865142 230.713581 
L 122.865142 230.713581 
L 123.769377 230.215567 
L 125.277309 229.250817 
L 125.880702 229.351254 
L 126.785961 229.888303 
L 127.238653 230.162277 
L 127.691378 230.203568 
L 128.295057 230.006288 
L 129.351593 229.327066 
L 129.351593 229.327066 
L 130.106321 228.91057 
L 130.710131 229.003062 
L 131.615881 229.526211 
L 132.068769 229.79434 
L 132.521664 229.830749 
L 133.125534 229.628414 
L 134.182326 228.943495 
L 134.182326 228.943495 
L 134.93719 228.524632 
L 135.541088 228.616025 
L 136.446941 229.138456 
L 136.89987 229.4065 
L 137.352801 229.442901 
L 137.956711 229.240606 
L 139.013557 228.555735 
L 139.013557 228.555735 
L 139.76845 228.136857 
L 140.372366 228.228243 
L 141.278241 228.75069 
L 141.731179 229.018755 
L 142.184118 229.055174 
L 142.788036 228.852897 
L 143.844894 228.168032 
L 143.844894 228.168032 
L 145.203712 227.252331 
L 145.656652 227.265107 
L 145.656652 227.265107 
L 146.260572 227.380206 
L 146.260572 227.380206 
L 146.864491 227.240684 
L 146.864491 227.240684 
L 147.921352 226.666068 
L 149.430208 225.603919 
L 150.172131 224.874183 
L 151.034798 223.66568 
L 151.034798 223.66568 
L 152.270237 221.414438 
L 153.441419 218.920909 
L 154.066961 216.909192 
L 155.387935 211.694805 
L 157.508032 202.557622 
L 159.259627 194.438559 
L 159.850726 192.02241 
L 159.850726 192.02241 
L 160.905014 186.526645 
L 164.294476 165.688538 
L 164.294476 165.688538 
L 165.492336 159.660016 
L 166.24899 157.220271 
L 166.929311 155.895681 
L 166.929311 155.895681 
L 167.530473 155.038751 
L 168.046493 154.761886 
L 168.57833 154.65275 
L 168.57833 154.65275 
L 169.017138 154.880325 
L 169.017138 154.880325 
L 169.468239 155.500349 
L 169.468239 155.500349 
L 170.968721 157.946054 
L 171.644996 158.892279 
L 172.083722 159.991864 
L 172.619854 162.18904 
L 172.619854 162.18904 
L 173.353384 166.629164 
L 174.281379 173.982269 
L 174.281379 173.982269 
L 175.515246 183.357273 
L 175.515246 183.357273 
L 176.135413 186.391059 
L 177.075039 189.596465 
L 177.603925 191.026266 
L 177.603925 191.026266 
L 179.681278 195.153204 
L 180.833087 196.888074 
L 181.308558 197.200654 
L 182.039892 197.39687 
L 184.256433 197.98737 
L 184.256433 197.98737 
L 185.511572 198.543341 
L 186.353559 199.122318 
L 187.032363 199.9258 
L 187.032363 199.9258 
L 187.678559 201.068044 
L 188.52488 203.205148 
L 188.52488 203.205148 
L 189.309728 205.1789 
L 189.938264 206.028782 
L 190.434465 206.334042 
L 191.002203 206.600168 
L 191.002203 206.600168 
L 191.275786 206.99023 
L 191.542906 207.740117 
L 191.975137 209.792616 
L 192.391467 212.921138 
L 192.391467 212.921138 
L 193.182519 220.935211 
L 194.348596 233.293371 
L 195.48285 246.025299 
L 198.362275 280.413333 
L 198.362275 280.413333 
L 199.177819 286.076116 
L 199.177819 286.076116 
L 199.8222 289.1673 
L 200.271964 290.531891 
L 200.821444 291.547489 
L 201.06627 291.635819 
L 201.233026 291.50407 
L 201.48849 290.907297 
L 201.748647 289.685876 
L 202.274784 286.822319 
L 202.623227 286.073415 
L 202.962027 285.932111 
L 203.207915 285.90727 
L 203.446807 285.64643 
L 203.679641 285.024179 
L 203.679641 285.024179 
L 203.980816 283.450055 
L 203.980816 283.450055 
L 204.342324 280.081747 
L 204.955381 271.504952 
L 207.524056 229.002445 
L 208.907592 204.331398 
L 209.762739 193.795486 
L 210.363169 188.447775 
L 210.363169 188.447775 
L 210.804905 185.881883 
L 211.201678 184.629958 
L 211.40763 184.427372 
L 211.40763 184.427372 
L 211.548146 184.455908 
L 211.764123 184.769373 
L 211.986506 185.558505 
L 211.986506 185.558505 
L 212.599399 188.117782 
L 212.599399 188.117782 
L 213.517121 191.088228 
L 213.517121 191.088228 
L 213.883708 193.723532 
L 214.38586 199.299441 
L 214.38586 199.299441 
L 215.450544 214.903692 
L 216.52061 228.190979 
L 217.680458 239.896816 
L 218.841924 252.019004 
L 220.544474 270.900717 
L 221.684334 281.751292 
L 222.637408 288.534928 
L 223.871121 295.174565 
L 223.951082 53.607028 
L 224.031428 54.023692 
L 224.605333 56.401482 
L 224.605333 56.401482 
L 225.641964 59.664773 
L 225.641964 59.664773 
L 226.377554 61.025572 
L 226.377554 61.025572 
L 226.760632 61.544416 
L 226.760632 61.544416 
L 227.357195 61.86713 
L 228.527849 62.306954 
L 228.979594 62.798294 
L 232.125915 66.953976 
L 233.379599 68.583816 
L 236.13288 72.428185 
L 237.464826 73.473594 
L 238.358329 74.892869 
L 239.704208 77.189528 
L 240.454024 77.869186 
L 241.655915 78.54537 
L 242.709168 79.137283 
L 243.311517 79.920312 
L 244.366267 81.471175 
L 245.270831 82.257673 
L 246.477419 83.15397 
L 247.231752 84.309301 
L 247.231752 84.309301 
L 247.835307 85.187257 
L 247.835307 85.187257 
L 248.589841 85.919423 
L 250.401014 87.321684 
L 251.306707 88.788355 
L 251.910529 89.675538 
L 252.665331 90.405886 
L 252.665331 90.405886 
L 253.873056 91.187773 
L 253.873056 91.187773 
L 254.929847 91.842514 
L 255.533736 92.649808 
L 256.43958 94.315332 
L 257.043482 95.288593 
L 257.798363 96.062779 
L 259.006181 96.849617 
L 260.063028 97.490643 
L 260.666943 98.290299 
L 261.572816 99.947168 
L 262.176732 100.973877 
L 262.931628 101.778345 
L 262.931628 101.778345 
L 263.837505 102.406875 
L 266.102201 103.648881 
L 268.3669 104.99613 
L 268.3669 104.99613 
L 273.047281 107.913553 
L 273.500221 107.887248 
L 274.104142 107.598073 
L 275.462963 106.538428 
L 278.482565 104.225597 
L 283.615888 100.730128 
L 284.370788 99.51562 
L 285.427648 97.777404 
L 285.880588 97.460641 
L 285.880588 97.460641 
L 286.333528 97.480603 
L 286.937449 97.802955 
L 288.59823 98.871097 
L 289.202151 98.876689 
L 289.655091 99.048791 
L 290.108032 99.535775 
L 290.108032 99.535775 
L 290.560972 100.336373 
L 291.013912 101.603947 
L 291.617831 104.033989 
L 292.976645 110.726877 
L 293.882519 114.921256 
L 294.486435 116.960577 
L 295.090352 118.415775 
L 295.54329 119.064777 
L 295.54329 119.064777 
L 296.147208 119.508819 
L 296.147208 119.508819 
L 296.902107 119.756532 
L 297.355047 119.701386 
L 297.355047 119.701386 
L 297.958967 119.289346 
L 297.958967 119.289346 
L 299.619749 117.598947 
L 301.43151 115.977129 
L 303.847191 114.263285 
L 304.747286 113.556128 
L 305.335956 112.895681 
L 305.913321 111.692564 
L 306.617901 109.512357 
L 307.439592 106.190762 
L 307.439592 106.190762 
L 310.511962 91.022689 
L 310.511962 91.022689 
L 311.117436 89.432886 
L 312.419278 86.502978 
L 312.419278 86.502978 
L 313.46143 83.44325 
L 314.945812 77.514574 
L 318.617196 63.328121 
L 319.91549 59.50487 
L 320.637237 58.179166 
L 321.124551 57.305415 
L 322.874454 53.568 
L 323.002312 295.356332 
L 324.570382 293.202273 
L 328.644494 287.858713 
L 329.377541 287.3954 
L 329.377541 287.3954 
L 331.45209 286.564481 
L 331.899584 286.649314 
L 332.647002 287.094487 
L 334.446754 288.538975 
L 337.155568 290.476246 
L 337.155568 290.476246 
L 337.909108 291.038902 
L 338.512155 291.896177 
L 339.266178 293.375138 
L 339.869475 295.090358 
L 340.020163 53.586581 
L 342.055999 59.512743 
L 342.595245 60.570439 
L 343.114775 61.162087 
L 343.493222 61.28549 
L 343.493222 61.28549 
L 343.740467 61.223487 
L 343.98406 60.910777 
L 343.98406 60.910777 
L 344.3432 60.034844 
L 344.69582 58.537554 
L 345.157806 55.510711 
L 345.385729 53.629509 
L 345.385729 53.629509 
L 345.499038 294.581779 
L 347.833409 273.247468 
L 348.608559 268.776884 
L 349.275531 266.11613 
L 349.94676 264.211118 
L 350.73769 262.821641 
L 350.73769 262.821641 
L 354.413992 256.736499 
L 355.041323 256.266912 
L 355.041323 256.266912 
L 355.920623 255.684149 
L 356.410297 255.310333 
L 356.648908 255.332379 
L 356.997427 255.699729 
L 356.997427 255.699729 
L 357.333851 256.556754 
L 357.865821 258.962705 
L 357.865821 258.962705 
L 358.459082 261.551329 
L 358.831383 262.372223 
L 359.011356 262.462699 
L 359.011356 262.462699 
L 359.274315 262.276461 
L 359.613059 261.960936 
L 359.777319 262.019909 
L 359.938758 262.357083 
L 360.175554 263.348181 
L 360.481503 265.755814 
L 361.065958 273.186248 
L 362.526963 295.06262 
L 362.526963 295.06262 
L 362.589586 54.007698 
L 362.651972 54.932695 
L 364.120433 75.008729 
L 365.807795 94.009665 
L 366.674691 101.840825 
L 367.3061 105.78239 
L 368.506625 111.766518 
L 369.573407 115.309027 
L 369.573407 115.309027 
L 370.280548 116.679128 
L 370.280548 116.679128 
L 370.744453 117.671508 
L 371.721592 120.535735 
L 372.442616 123.322101 
L 373.506582 128.27327 
L 373.506582 128.27327 
L 374.585255 134.80119 
L 377.454132 151.163701 
L 377.982044 152.906303 
L 378.724511 154.505987 
L 379.47541 155.780488 
L 379.47541 155.780488 
L 379.910835 156.111242 
L 379.910835 156.111242 
L 380.576452 156.315734 
L 382.713589 156.92054 
L 382.713589 156.92054 
L 386.112144 158.332367 
L 388.294407 159.503559 
L 388.294407 159.503559 
L 394.267951 163.138669 
L 394.267951 163.138669 
L 394.719408 163.575117 
L 395.472271 164.778098 
L 395.472271 164.778098 
L 396.074883 165.69104 
L 396.074883 165.69104 
L 396.828469 166.456858 
L 398.034771 167.281704 
L 398.487273 167.541889 
L 398.487273 167.541889 
" style="fill:none;stroke:#2ca02c;stroke-linecap:square;stroke-width:1.5;"/>
   </g>
   <g id="patch_3">
    <path d="M 57.6 307.584 
L 57.6 41.472 
" style="fill:none;stroke:#000000;stroke-linecap:square;stroke-linejoin:miter;stroke-width:0.8;"/>
   </g>
   <g id="patch_4">
    <path d="M 414.72 307.584 
L 414.72 41.472 
" style="fill:none;stroke:#000000;stroke-linecap:square;stroke-linejoin:miter;stroke-width:0.8;"/>
   </g>
   <g id="patch_5">
    <path d="M 57.6 307.584 
L 414.72 307.584 
" style="fill:none;stroke:#000000;stroke-linecap:square;stroke-linejoin:miter;stroke-width:0.8;"/>
   </g>
   <g id="patch_6">
    <path d="M 57.6 41.472 
L 414.72 41.472 
" style="fill:none;stroke:#000000;stroke-linecap:square;stroke-linejoin:miter;stroke-width:0.8;"/>
   </g>
   <g id="text_14">
    <!-- mco heading -->
    <g transform="translate(197.179688 35.472)scale(0.12 -0.12)">
     <defs>
      <path d="M 52 44.1875 
Q 55.375 50.25 60.0625 53.125 
Q 64.75 56 71.09375 56 
Q 79.640625 56 84.28125 50.015625 
Q 88.921875 44.046875 88.921875 33.015625 
L 88.921875 0 
L 79.890625 0 
L 79.890625 32.71875 
Q 79.890625 40.578125 77.09375 44.375 
Q 74.3125 48.1875 68.609375 48.1875 
Q 61.625 48.1875 57.5625 43.546875 
Q 53.515625 38.921875 53.515625 30.90625 
L 53.515625 0 
L 44.484375 0 
L 44.484375 32.71875 
Q 44.484375 40.625 41.703125 44.40625 
Q 38.921875 48.1875 33.109375 48.1875 
Q 26.21875 48.1875 22.15625 43.53125 
Q 18.109375 38.875 18.109375 30.90625 
L 18.109375 0 
L 9.078125 0 
L 9.078125 54.6875 
L 18.109375 54.6875 
L 18.109375 46.1875 
Q 21.1875 51.21875 25.484375 53.609375 
Q 29.78125 56 35.6875 56 
Q 41.65625 56 45.828125 52.96875 
Q 50 49.953125 52 44.1875 
z
" id="DejaVuSans-109"/>
      <path d="M 48.78125 52.59375 
L 48.78125 44.1875 
Q 44.96875 46.296875 41.140625 47.34375 
Q 37.3125 48.390625 33.40625 48.390625 
Q 24.65625 48.390625 19.8125 42.84375 
Q 14.984375 37.3125 14.984375 27.296875 
Q 14.984375 17.28125 19.8125 11.734375 
Q 24.65625 6.203125 33.40625 6.203125 
Q 37.3125 6.203125 41.140625 7.25 
Q 44.96875 8.296875 48.78125 10.40625 
L 48.78125 2.09375 
Q 45.015625 0.34375 40.984375 -0.53125 
Q 36.96875 -1.421875 32.421875 -1.421875 
Q 20.0625 -1.421875 12.78125 6.34375 
Q 5.515625 14.109375 5.515625 27.296875 
Q 5.515625 40.671875 12.859375 48.328125 
Q 20.21875 56 33.015625 56 
Q 37.15625 56 41.109375 55.140625 
Q 45.0625 54.296875 48.78125 52.59375 
z
" id="DejaVuSans-99"/>
      <path d="M 30.609375 48.390625 
Q 23.390625 48.390625 19.1875 42.75 
Q 14.984375 37.109375 14.984375 27.296875 
Q 14.984375 17.484375 19.15625 11.84375 
Q 23.34375 6.203125 30.609375 6.203125 
Q 37.796875 6.203125 41.984375 11.859375 
Q 46.1875 17.53125 46.1875 27.296875 
Q 46.1875 37.015625 41.984375 42.703125 
Q 37.796875 48.390625 30.609375 48.390625 
z
M 30.609375 56 
Q 42.328125 56 49.015625 48.375 
Q 55.71875 40.765625 55.71875 27.296875 
Q 55.71875 13.875 49.015625 6.21875 
Q 42.328125 -1.421875 30.609375 -1.421875 
Q 18.84375 -1.421875 12.171875 6.21875 
Q 5.515625 13.875 5.515625 27.296875 
Q 5.515625 40.765625 12.171875 48.375 
Q 18.84375 56 30.609375 56 
z
" id="DejaVuSans-111"/>
      <path id="DejaVuSans-32"/>
      <path d="M 54.890625 33.015625 
L 54.890625 0 
L 45.90625 0 
L 45.90625 32.71875 
Q 45.90625 40.484375 42.875 44.328125 
Q 39.84375 48.1875 33.796875 48.1875 
Q 26.515625 48.1875 22.3125 43.546875 
Q 18.109375 38.921875 18.109375 30.90625 
L 18.109375 0 
L 9.078125 0 
L 9.078125 75.984375 
L 18.109375 75.984375 
L 18.109375 46.1875 
Q 21.34375 51.125 25.703125 53.5625 
Q 30.078125 56 35.796875 56 
Q 45.21875 56 50.046875 50.171875 
Q 54.890625 44.34375 54.890625 33.015625 
z
" id="DejaVuSans-104"/>
      <path d="M 56.203125 29.59375 
L 56.203125 25.203125 
L 14.890625 25.203125 
Q 15.484375 15.921875 20.484375 11.0625 
Q 25.484375 6.203125 34.421875 6.203125 
Q 39.59375 6.203125 44.453125 7.46875 
Q 49.3125 8.734375 54.109375 11.28125 
L 54.109375 2.78125 
Q 49.265625 0.734375 44.1875 -0.34375 
Q 39.109375 -1.421875 33.890625 -1.421875 
Q 20.796875 -1.421875 13.15625 6.1875 
Q 5.515625 13.8125 5.515625 26.8125 
Q 5.515625 40.234375 12.765625 48.109375 
Q 20.015625 56 32.328125 56 
Q 43.359375 56 49.78125 48.890625 
Q 56.203125 41.796875 56.203125 29.59375 
z
M 47.21875 32.234375 
Q 47.125 39.59375 43.09375 43.984375 
Q 39.0625 48.390625 32.421875 48.390625 
Q 24.90625 48.390625 20.390625 44.140625 
Q 15.875 39.890625 15.1875 32.171875 
z
" id="DejaVuSans-101"/>
      <path d="M 34.28125 27.484375 
Q 23.390625 27.484375 19.1875 25 
Q 14.984375 22.515625 14.984375 16.5 
Q 14.984375 11.71875 18.140625 8.90625 
Q 21.296875 6.109375 26.703125 6.109375 
Q 34.1875 6.109375 38.703125 11.40625 
Q 43.21875 16.703125 43.21875 25.484375 
L 43.21875 27.484375 
z
M 52.203125 31.203125 
L 52.203125 0 
L 43.21875 0 
L 43.21875 8.296875 
Q 40.140625 3.328125 35.546875 0.953125 
Q 30.953125 -1.421875 24.3125 -1.421875 
Q 15.921875 -1.421875 10.953125 3.296875 
Q 6 8.015625 6 15.921875 
Q 6 25.140625 12.171875 29.828125 
Q 18.359375 34.515625 30.609375 34.515625 
L 43.21875 34.515625 
L 43.21875 35.40625 
Q 43.21875 41.609375 39.140625 45 
Q 35.0625 48.390625 27.6875 48.390625 
Q 23 48.390625 18.546875 47.265625 
Q 14.109375 46.140625 10.015625 43.890625 
L 10.015625 52.203125 
Q 14.9375 54.109375 19.578125 55.046875 
Q 24.21875 56 28.609375 56 
Q 40.484375 56 46.34375 49.84375 
Q 52.203125 43.703125 52.203125 31.203125 
z
" id="DejaVuSans-97"/>
      <path d="M 45.40625 46.390625 
L 45.40625 75.984375 
L 54.390625 75.984375 
L 54.390625 0 
L 45.40625 0 
L 45.40625 8.203125 
Q 42.578125 3.328125 38.25 0.953125 
Q 33.9375 -1.421875 27.875 -1.421875 
Q 17.96875 -1.421875 11.734375 6.484375 
Q 5.515625 14.40625 5.515625 27.296875 
Q 5.515625 40.1875 11.734375 48.09375 
Q 17.96875 56 27.875 56 
Q 33.9375 56 38.25 53.625 
Q 42.578125 51.265625 45.40625 46.390625 
z
M 14.796875 27.296875 
Q 14.796875 17.390625 18.875 11.75 
Q 22.953125 6.109375 30.078125 6.109375 
Q 37.203125 6.109375 41.296875 11.75 
Q 45.40625 17.390625 45.40625 27.296875 
Q 45.40625 37.203125 41.296875 42.84375 
Q 37.203125 48.484375 30.078125 48.484375 
Q 22.953125 48.484375 18.875 42.84375 
Q 14.796875 37.203125 14.796875 27.296875 
z
" id="DejaVuSans-100"/>
      <path d="M 9.421875 54.6875 
L 18.40625 54.6875 
L 18.40625 0 
L 9.421875 0 
z
M 9.421875 75.984375 
L 18.40625 75.984375 
L 18.40625 64.59375 
L 9.421875 64.59375 
z
" id="DejaVuSans-105"/>
      <path d="M 54.890625 33.015625 
L 54.890625 0 
L 45.90625 0 
L 45.90625 32.71875 
Q 45.90625 40.484375 42.875 44.328125 
Q 39.84375 48.1875 33.796875 48.1875 
Q 26.515625 48.1875 22.3125 43.546875 
Q 18.109375 38.921875 18.109375 30.90625 
L 18.109375 0 
L 9.078125 0 
L 9.078125 54.6875 
L 18.109375 54.6875 
L 18.109375 46.1875 
Q 21.34375 51.125 25.703125 53.5625 
Q 30.078125 56 35.796875 56 
Q 45.21875 56 50.046875 50.171875 
Q 54.890625 44.34375 54.890625 33.015625 
z
" id="DejaVuSans-110"/>
      <path d="M 45.40625 27.984375 
Q 45.40625 37.75 41.375 43.109375 
Q 37.359375 48.484375 30.078125 48.484375 
Q 22.859375 48.484375 18.828125 43.109375 
Q 14.796875 37.75 14.796875 27.984375 
Q 14.796875 18.265625 18.828125 12.890625 
Q 22.859375 7.515625 30.078125 7.515625 
Q 37.359375 7.515625 41.375 12.890625 
Q 45.40625 18.265625 45.40625 27.984375 
z
M 54.390625 6.78125 
Q 54.390625 -7.171875 48.1875 -13.984375 
Q 42 -20.796875 29.203125 -20.796875 
Q 24.46875 -20.796875 20.265625 -20.09375 
Q 16.0625 -19.390625 12.109375 -17.921875 
L 12.109375 -9.1875 
Q 16.0625 -11.328125 19.921875 -12.34375 
Q 23.78125 -13.375 27.78125 -13.375 
Q 36.625 -13.375 41.015625 -8.765625 
Q 45.40625 -4.15625 45.40625 5.171875 
L 45.40625 9.625 
Q 42.625 4.78125 38.28125 2.390625 
Q 33.9375 0 27.875 0 
Q 17.828125 0 11.671875 7.65625 
Q 5.515625 15.328125 5.515625 27.984375 
Q 5.515625 40.671875 11.671875 48.328125 
Q 17.828125 56 27.875 56 
Q 33.9375 56 38.28125 53.609375 
Q 42.625 51.21875 45.40625 46.390625 
L 45.40625 54.6875 
L 54.390625 54.6875 
z
" id="DejaVuSans-103"/>
     </defs>
     <use xlink:href="#DejaVuSans-109"/>
     <use x="97.412109" xlink:href="#DejaVuSans-99"/>
     <use x="152.392578" xlink:href="#DejaVuSans-111"/>
     <use x="213.574219" xlink:href="#DejaVuSans-32"/>
     <use x="245.361328" xlink:href="#DejaVuSans-104"/>
     <use x="308.740234" xlink:href="#DejaVuSans-101"/>
     <use x="370.263672" xlink:href="#DejaVuSans-97"/>
     <use x="431.542969" xlink:href="#DejaVuSans-100"/>
     <use x="495.019531" xlink:href="#DejaVuSans-105"/>
     <use x="522.802734" xlink:href="#DejaVuSans-110"/>
     <use x="586.181641" xlink:href="#DejaVuSans-103"/>
    </g>
   </g>
   <g id="legend_1">
    <g id="patch_7">
     <path d="M 64.6 93.506375 
L 156.557813 93.506375 
Q 158.557813 93.506375 158.557813 91.506375 
L 158.557813 48.472 
Q 158.557813 46.472 156.557813 46.472 
L 64.6 46.472 
Q 62.6 46.472 62.6 48.472 
L 62.6 91.506375 
Q 62.6 93.506375 64.6 93.506375 
z
" style="fill:#ffffff;opacity:0.8;stroke:#cccccc;stroke-linejoin:miter;"/>
    </g>
    <g id="line2d_17">
     <path d="M 66.6 54.570438 
L 86.6 54.570438 
" style="fill:none;stroke:#1f77b4;stroke-linecap:square;stroke-width:1.5;"/>
    </g>
    <g id="line2d_18"/>
    <g id="text_15">
     <!-- Waypoints -->
     <g transform="translate(94.6 58.070438)scale(0.1 -0.1)">
      <defs>
       <path d="M 3.328125 72.90625 
L 13.28125 72.90625 
L 28.609375 11.28125 
L 43.890625 72.90625 
L 54.984375 72.90625 
L 70.3125 11.28125 
L 85.59375 72.90625 
L 95.609375 72.90625 
L 77.296875 0 
L 64.890625 0 
L 49.515625 63.28125 
L 33.984375 0 
L 21.578125 0 
z
" id="DejaVuSans-87"/>
       <path d="M 32.171875 -5.078125 
Q 28.375 -14.84375 24.75 -17.8125 
Q 21.140625 -20.796875 15.09375 -20.796875 
L 7.90625 -20.796875 
L 7.90625 -13.28125 
L 13.1875 -13.28125 
Q 16.890625 -13.28125 18.9375 -11.515625 
Q 21 -9.765625 23.484375 -3.21875 
L 25.09375 0.875 
L 2.984375 54.6875 
L 12.5 54.6875 
L 29.59375 11.921875 
L 46.6875 54.6875 
L 56.203125 54.6875 
z
" id="DejaVuSans-121"/>
       <path d="M 18.109375 8.203125 
L 18.109375 -20.796875 
L 9.078125 -20.796875 
L 9.078125 54.6875 
L 18.109375 54.6875 
L 18.109375 46.390625 
Q 20.953125 51.265625 25.265625 53.625 
Q 29.59375 56 35.59375 56 
Q 45.5625 56 51.78125 48.09375 
Q 58.015625 40.1875 58.015625 27.296875 
Q 58.015625 14.40625 51.78125 6.484375 
Q 45.5625 -1.421875 35.59375 -1.421875 
Q 29.59375 -1.421875 25.265625 0.953125 
Q 20.953125 3.328125 18.109375 8.203125 
z
M 48.6875 27.296875 
Q 48.6875 37.203125 44.609375 42.84375 
Q 40.53125 48.484375 33.40625 48.484375 
Q 26.265625 48.484375 22.1875 42.84375 
Q 18.109375 37.203125 18.109375 27.296875 
Q 18.109375 17.390625 22.1875 11.75 
Q 26.265625 6.109375 33.40625 6.109375 
Q 40.53125 6.109375 44.609375 11.75 
Q 48.6875 17.390625 48.6875 27.296875 
z
" id="DejaVuSans-112"/>
       <path d="M 18.3125 70.21875 
L 18.3125 54.6875 
L 36.8125 54.6875 
L 36.8125 47.703125 
L 18.3125 47.703125 
L 18.3125 18.015625 
Q 18.3125 11.328125 20.140625 9.421875 
Q 21.96875 7.515625 27.59375 7.515625 
L 36.8125 7.515625 
L 36.8125 0 
L 27.59375 0 
Q 17.1875 0 13.234375 3.875 
Q 9.28125 7.765625 9.28125 18.015625 
L 9.28125 47.703125 
L 2.6875 47.703125 
L 2.6875 54.6875 
L 9.28125 54.6875 
L 9.28125 70.21875 
z
" id="DejaVuSans-116"/>
       <path d="M 44.28125 53.078125 
L 44.28125 44.578125 
Q 40.484375 46.53125 36.375 47.5 
Q 32.28125 48.484375 27.875 48.484375 
Q 21.1875 48.484375 17.84375 46.4375 
Q 14.5 44.390625 14.5 40.28125 
Q 14.5 37.15625 16.890625 35.375 
Q 19.28125 33.59375 26.515625 31.984375 
L 29.59375 31.296875 
Q 39.15625 29.25 43.1875 25.515625 
Q 47.21875 21.78125 47.21875 15.09375 
Q 47.21875 7.46875 41.1875 3.015625 
Q 35.15625 -1.421875 24.609375 -1.421875 
Q 20.21875 -1.421875 15.453125 -0.5625 
Q 10.6875 0.296875 5.421875 2 
L 5.421875 11.28125 
Q 10.40625 8.6875 15.234375 7.390625 
Q 20.0625 6.109375 24.8125 6.109375 
Q 31.15625 6.109375 34.5625 8.28125 
Q 37.984375 10.453125 37.984375 14.40625 
Q 37.984375 18.0625 35.515625 20.015625 
Q 33.0625 21.96875 24.703125 23.78125 
L 21.578125 24.515625 
Q 13.234375 26.265625 9.515625 29.90625 
Q 5.8125 33.546875 5.8125 39.890625 
Q 5.8125 47.609375 11.28125 51.796875 
Q 16.75 56 26.8125 56 
Q 31.78125 56 36.171875 55.265625 
Q 40.578125 54.546875 44.28125 53.078125 
z
" id="DejaVuSans-115"/>
      </defs>
      <use xlink:href="#DejaVuSans-87"/>
      <use x="92.501953" xlink:href="#DejaVuSans-97"/>
      <use x="153.78125" xlink:href="#DejaVuSans-121"/>
      <use x="212.960938" xlink:href="#DejaVuSans-112"/>
      <use x="276.4375" xlink:href="#DejaVuSans-111"/>
      <use x="337.619141" xlink:href="#DejaVuSans-105"/>
      <use x="365.402344" xlink:href="#DejaVuSans-110"/>
      <use x="428.78125" xlink:href="#DejaVuSans-116"/>
      <use x="467.990234" xlink:href="#DejaVuSans-115"/>
     </g>
    </g>
    <g id="line2d_19">
     <path d="M 66.6 69.248563 
L 86.6 69.248563 
" style="fill:none;stroke:#ff7f0e;stroke-linecap:square;stroke-width:1.5;"/>
    </g>
    <g id="line2d_20"/>
    <g id="text_16">
     <!-- Stanley -->
     <g transform="translate(94.6 72.748563)scale(0.1 -0.1)">
      <defs>
       <path d="M 53.515625 70.515625 
L 53.515625 60.890625 
Q 47.90625 63.578125 42.921875 64.890625 
Q 37.9375 66.21875 33.296875 66.21875 
Q 25.25 66.21875 20.875 63.09375 
Q 16.5 59.96875 16.5 54.203125 
Q 16.5 49.359375 19.40625 46.890625 
Q 22.3125 44.4375 30.421875 42.921875 
L 36.375 41.703125 
Q 47.40625 39.59375 52.65625 34.296875 
Q 57.90625 29 57.90625 20.125 
Q 57.90625 9.515625 50.796875 4.046875 
Q 43.703125 -1.421875 29.984375 -1.421875 
Q 24.8125 -1.421875 18.96875 -0.25 
Q 13.140625 0.921875 6.890625 3.21875 
L 6.890625 13.375 
Q 12.890625 10.015625 18.65625 8.296875 
Q 24.421875 6.59375 29.984375 6.59375 
Q 38.421875 6.59375 43.015625 9.90625 
Q 47.609375 13.234375 47.609375 19.390625 
Q 47.609375 24.75 44.3125 27.78125 
Q 41.015625 30.8125 33.5 32.328125 
L 27.484375 33.5 
Q 16.453125 35.6875 11.515625 40.375 
Q 6.59375 45.0625 6.59375 53.421875 
Q 6.59375 63.09375 13.40625 68.65625 
Q 20.21875 74.21875 32.171875 74.21875 
Q 37.3125 74.21875 42.625 73.28125 
Q 47.953125 72.359375 53.515625 70.515625 
z
" id="DejaVuSans-83"/>
       <path d="M 9.421875 75.984375 
L 18.40625 75.984375 
L 18.40625 0 
L 9.421875 0 
z
" id="DejaVuSans-108"/>
      </defs>
      <use xlink:href="#DejaVuSans-83"/>
      <use x="63.476562" xlink:href="#DejaVuSans-116"/>
      <use x="102.685547" xlink:href="#DejaVuSans-97"/>
      <use x="163.964844" xlink:href="#DejaVuSans-110"/>
      <use x="227.34375" xlink:href="#DejaVuSans-108"/>
      <use x="255.126953" xlink:href="#DejaVuSans-101"/>
      <use x="316.650391" xlink:href="#DejaVuSans-121"/>
     </g>
    </g>
    <g id="line2d_21">
     <path d="M 66.6 83.926688 
L 86.6 83.926688 
" style="fill:none;stroke:#2ca02c;stroke-linecap:square;stroke-width:1.5;"/>
    </g>
    <g id="line2d_22"/>
    <g id="text_17">
     <!-- Pure Pursuit -->
     <g transform="translate(94.6 87.426688)scale(0.1 -0.1)">
      <defs>
       <path d="M 19.671875 64.796875 
L 19.671875 37.40625 
L 32.078125 37.40625 
Q 38.96875 37.40625 42.71875 40.96875 
Q 46.484375 44.53125 46.484375 51.125 
Q 46.484375 57.671875 42.71875 61.234375 
Q 38.96875 64.796875 32.078125 64.796875 
z
M 9.8125 72.90625 
L 32.078125 72.90625 
Q 44.34375 72.90625 50.609375 67.359375 
Q 56.890625 61.8125 56.890625 51.125 
Q 56.890625 40.328125 50.609375 34.8125 
Q 44.34375 29.296875 32.078125 29.296875 
L 19.671875 29.296875 
L 19.671875 0 
L 9.8125 0 
z
" id="DejaVuSans-80"/>
       <path d="M 8.5 21.578125 
L 8.5 54.6875 
L 17.484375 54.6875 
L 17.484375 21.921875 
Q 17.484375 14.15625 20.5 10.265625 
Q 23.53125 6.390625 29.59375 6.390625 
Q 36.859375 6.390625 41.078125 11.03125 
Q 45.3125 15.671875 45.3125 23.6875 
L 45.3125 54.6875 
L 54.296875 54.6875 
L 54.296875 0 
L 45.3125 0 
L 45.3125 8.40625 
Q 42.046875 3.421875 37.71875 1 
Q 33.40625 -1.421875 27.6875 -1.421875 
Q 18.265625 -1.421875 13.375 4.4375 
Q 8.5 10.296875 8.5 21.578125 
z
M 31.109375 56 
z
" id="DejaVuSans-117"/>
       <path d="M 41.109375 46.296875 
Q 39.59375 47.171875 37.8125 47.578125 
Q 36.03125 48 33.890625 48 
Q 26.265625 48 22.1875 43.046875 
Q 18.109375 38.09375 18.109375 28.8125 
L 18.109375 0 
L 9.078125 0 
L 9.078125 54.6875 
L 18.109375 54.6875 
L 18.109375 46.1875 
Q 20.953125 51.171875 25.484375 53.578125 
Q 30.03125 56 36.53125 56 
Q 37.453125 56 38.578125 55.875 
Q 39.703125 55.765625 41.0625 55.515625 
z
" id="DejaVuSans-114"/>
      </defs>
      <use xlink:href="#DejaVuSans-80"/>
      <use x="58.552734" xlink:href="#DejaVuSans-117"/>
      <use x="121.931641" xlink:href="#DejaVuSans-114"/>
      <use x="160.794922" xlink:href="#DejaVuSans-101"/>
      <use x="222.318359" xlink:href="#DejaVuSans-32"/>
      <use x="254.105469" xlink:href="#DejaVuSans-80"/>
      <use x="312.658203" xlink:href="#DejaVuSans-117"/>
      <use x="376.037109" xlink:href="#DejaVuSans-114"/>
      <use x="417.150391" xlink:href="#DejaVuSans-115"/>
      <use x="469.25" xlink:href="#DejaVuSans-117"/>
      <use x="532.628906" xlink:href="#DejaVuSans-105"/>
      <use x="560.412109" xlink:href="#DejaVuSans-116"/>
     </g>
    </g>
   </g>
  </g>
 </g>
 <defs>
  <clipPath id="pb4fdda10a8">
   <rect height="266.112" width="357.12" x="57.6" y="41.472"/>
  </clipPath>
 </defs>
</svg>
