<?xml version="1.0" encoding="utf-8" standalone="no"?>
<!DOCTYPE svg PUBLIC "-//W3C//DTD SVG 1.1//EN"
  "http://www.w3.org/Graphics/SVG/1.1/DTD/svg11.dtd">
<!-- Created with matplotlib (https://matplotlib.org/) -->
<svg height="345.6pt" version="1.1" viewBox="0 0 460.8 345.6" width="460.8pt" xmlns="http://www.w3.org/2000/svg" xmlns:xlink="http://www.w3.org/1999/xlink">
 <metadata>
  <rdf:RDF xmlns:cc="http://creativecommons.org/ns#" xmlns:dc="http://purl.org/dc/elements/1.1/" xmlns:rdf="http://www.w3.org/1999/02/22-rdf-syntax-ns#">
   <cc:Work>
    <dc:type rdf:resource="http://purl.org/dc/dcmitype/StillImage"/>
    <dc:date>2024-10-03T15:12:50.775315</dc:date>
    <dc:format>image/svg+xml</dc:format>
    <dc:creator>
     <cc:Agent>
      <dc:title>Matplotlib v3.3.1, https://matplotlib.org/</dc:title>
     </cc:Agent>
    </dc:creator>
   </cc:Work>
  </rdf:RDF>
 </metadata>
 <defs>
  <style type="text/css">*{stroke-linecap:butt;stroke-linejoin:round;}</style>
 </defs>
 <g id="figure_1">
  <g id="patch_1">
   <path d="M 0 345.6 
L 460.8 345.6 
L 460.8 0 
L 0 0 
z
" style="fill:#ffffff;"/>
  </g>
  <g id="axes_1">
   <g id="patch_2">
    <path d="M 57.6 307.584 
L 414.72 307.584 
L 414.72 41.472 
L 57.6 41.472 
z
" style="fill:#ffffff;"/>
   </g>
   <g id="matplotlib.axis_1">
    <g id="xtick_1">
     <g id="line2d_1">
      <defs>
       <path d="M 0 0 
L 0 3.5 
" id="m15b1804321" style="stroke:#000000;stroke-width:0.8;"/>
      </defs>
      <g>
       <use style="stroke:#000000;stroke-width:0.8;" x="73.832727" xlink:href="#m15b1804321" y="307.584"/>
      </g>
     </g>
     <g id="text_1">
      <!-- 0.0 -->
      <g transform="translate(65.881165 322.182437)scale(0.1 -0.1)">
       <defs>
        <path d="M 31.78125 66.40625 
Q 24.171875 66.40625 20.328125 58.90625 
Q 16.5 51.421875 16.5 36.375 
Q 16.5 21.390625 20.328125 13.890625 
Q 24.171875 6.390625 31.78125 6.390625 
Q 39.453125 6.390625 43.28125 13.890625 
Q 47.125 21.390625 47.125 36.375 
Q 47.125 51.421875 43.28125 58.90625 
Q 39.453125 66.40625 31.78125 66.40625 
z
M 31.78125 74.21875 
Q 44.046875 74.21875 50.515625 64.515625 
Q 56.984375 54.828125 56.984375 36.375 
Q 56.984375 17.96875 50.515625 8.265625 
Q 44.046875 -1.421875 31.78125 -1.421875 
Q 19.53125 -1.421875 13.0625 8.265625 
Q 6.59375 17.96875 6.59375 36.375 
Q 6.59375 54.828125 13.0625 64.515625 
Q 19.53125 74.21875 31.78125 74.21875 
z
" id="DejaVuSans-48"/>
        <path d="M 10.6875 12.40625 
L 21 12.40625 
L 21 0 
L 10.6875 0 
z
" id="DejaVuSans-46"/>
       </defs>
       <use xlink:href="#DejaVuSans-48"/>
       <use x="63.623047" xlink:href="#DejaVuSans-46"/>
       <use x="95.410156" xlink:href="#DejaVuSans-48"/>
      </g>
     </g>
    </g>
    <g id="xtick_2">
     <g id="line2d_2">
      <g>
       <use style="stroke:#000000;stroke-width:0.8;" x="138.763636" xlink:href="#m15b1804321" y="307.584"/>
      </g>
     </g>
     <g id="text_2">
      <!-- 0.2 -->
      <g transform="translate(130.812074 322.182437)scale(0.1 -0.1)">
       <defs>
        <path d="M 19.1875 8.296875 
L 53.609375 8.296875 
L 53.609375 0 
L 7.328125 0 
L 7.328125 8.296875 
Q 12.9375 14.109375 22.625 23.890625 
Q 32.328125 33.6875 34.8125 36.53125 
Q 39.546875 41.84375 41.421875 45.53125 
Q 43.3125 49.21875 43.3125 52.78125 
Q 43.3125 58.59375 39.234375 62.25 
Q 35.15625 65.921875 28.609375 65.921875 
Q 23.96875 65.921875 18.8125 64.3125 
Q 13.671875 62.703125 7.8125 59.421875 
L 7.8125 69.390625 
Q 13.765625 71.78125 18.9375 73 
Q 24.125 74.21875 28.421875 74.21875 
Q 39.75 74.21875 46.484375 68.546875 
Q 53.21875 62.890625 53.21875 53.421875 
Q 53.21875 48.921875 51.53125 44.890625 
Q 49.859375 40.875 45.40625 35.40625 
Q 44.1875 33.984375 37.640625 27.21875 
Q 31.109375 20.453125 19.1875 8.296875 
z
" id="DejaVuSans-50"/>
       </defs>
       <use xlink:href="#DejaVuSans-48"/>
       <use x="63.623047" xlink:href="#DejaVuSans-46"/>
       <use x="95.410156" xlink:href="#DejaVuSans-50"/>
      </g>
     </g>
    </g>
    <g id="xtick_3">
     <g id="line2d_3">
      <g>
       <use style="stroke:#000000;stroke-width:0.8;" x="203.694545" xlink:href="#m15b1804321" y="307.584"/>
      </g>
     </g>
     <g id="text_3">
      <!-- 0.4 -->
      <g transform="translate(195.742983 322.182437)scale(0.1 -0.1)">
       <defs>
        <path d="M 37.796875 64.3125 
L 12.890625 25.390625 
L 37.796875 25.390625 
z
M 35.203125 72.90625 
L 47.609375 72.90625 
L 47.609375 25.390625 
L 58.015625 25.390625 
L 58.015625 17.1875 
L 47.609375 17.1875 
L 47.609375 0 
L 37.796875 0 
L 37.796875 17.1875 
L 4.890625 17.1875 
L 4.890625 26.703125 
z
" id="DejaVuSans-52"/>
       </defs>
       <use xlink:href="#DejaVuSans-48"/>
       <use x="63.623047" xlink:href="#DejaVuSans-46"/>
       <use x="95.410156" xlink:href="#DejaVuSans-52"/>
      </g>
     </g>
    </g>
    <g id="xtick_4">
     <g id="line2d_4">
      <g>
       <use style="stroke:#000000;stroke-width:0.8;" x="268.625455" xlink:href="#m15b1804321" y="307.584"/>
      </g>
     </g>
     <g id="text_4">
      <!-- 0.6 -->
      <g transform="translate(260.673892 322.182437)scale(0.1 -0.1)">
       <defs>
        <path d="M 33.015625 40.375 
Q 26.375 40.375 22.484375 35.828125 
Q 18.609375 31.296875 18.609375 23.390625 
Q 18.609375 15.53125 22.484375 10.953125 
Q 26.375 6.390625 33.015625 6.390625 
Q 39.65625 6.390625 43.53125 10.953125 
Q 47.40625 15.53125 47.40625 23.390625 
Q 47.40625 31.296875 43.53125 35.828125 
Q 39.65625 40.375 33.015625 40.375 
z
M 52.59375 71.296875 
L 52.59375 62.3125 
Q 48.875 64.0625 45.09375 64.984375 
Q 41.3125 65.921875 37.59375 65.921875 
Q 27.828125 65.921875 22.671875 59.328125 
Q 17.53125 52.734375 16.796875 39.40625 
Q 19.671875 43.65625 24.015625 45.921875 
Q 28.375 48.1875 33.59375 48.1875 
Q 44.578125 48.1875 50.953125 41.515625 
Q 57.328125 34.859375 57.328125 23.390625 
Q 57.328125 12.15625 50.6875 5.359375 
Q 44.046875 -1.421875 33.015625 -1.421875 
Q 20.359375 -1.421875 13.671875 8.265625 
Q 6.984375 17.96875 6.984375 36.375 
Q 6.984375 53.65625 15.1875 63.9375 
Q 23.390625 74.21875 37.203125 74.21875 
Q 40.921875 74.21875 44.703125 73.484375 
Q 48.484375 72.75 52.59375 71.296875 
z
" id="DejaVuSans-54"/>
       </defs>
       <use xlink:href="#DejaVuSans-48"/>
       <use x="63.623047" xlink:href="#DejaVuSans-46"/>
       <use x="95.410156" xlink:href="#DejaVuSans-54"/>
      </g>
     </g>
    </g>
    <g id="xtick_5">
     <g id="line2d_5">
      <g>
       <use style="stroke:#000000;stroke-width:0.8;" x="333.556364" xlink:href="#m15b1804321" y="307.584"/>
      </g>
     </g>
     <g id="text_5">
      <!-- 0.8 -->
      <g transform="translate(325.604801 322.182437)scale(0.1 -0.1)">
       <defs>
        <path d="M 31.78125 34.625 
Q 24.75 34.625 20.71875 30.859375 
Q 16.703125 27.09375 16.703125 20.515625 
Q 16.703125 13.921875 20.71875 10.15625 
Q 24.75 6.390625 31.78125 6.390625 
Q 38.8125 6.390625 42.859375 10.171875 
Q 46.921875 13.96875 46.921875 20.515625 
Q 46.921875 27.09375 42.890625 30.859375 
Q 38.875 34.625 31.78125 34.625 
z
M 21.921875 38.8125 
Q 15.578125 40.375 12.03125 44.71875 
Q 8.5 49.078125 8.5 55.328125 
Q 8.5 64.0625 14.71875 69.140625 
Q 20.953125 74.21875 31.78125 74.21875 
Q 42.671875 74.21875 48.875 69.140625 
Q 55.078125 64.0625 55.078125 55.328125 
Q 55.078125 49.078125 51.53125 44.71875 
Q 48 40.375 41.703125 38.8125 
Q 48.828125 37.15625 52.796875 32.3125 
Q 56.78125 27.484375 56.78125 20.515625 
Q 56.78125 9.90625 50.3125 4.234375 
Q 43.84375 -1.421875 31.78125 -1.421875 
Q 19.734375 -1.421875 13.25 4.234375 
Q 6.78125 9.90625 6.78125 20.515625 
Q 6.78125 27.484375 10.78125 32.3125 
Q 14.796875 37.15625 21.921875 38.8125 
z
M 18.3125 54.390625 
Q 18.3125 48.734375 21.84375 45.5625 
Q 25.390625 42.390625 31.78125 42.390625 
Q 38.140625 42.390625 41.71875 45.5625 
Q 45.3125 48.734375 45.3125 54.390625 
Q 45.3125 60.0625 41.71875 63.234375 
Q 38.140625 66.40625 31.78125 66.40625 
Q 25.390625 66.40625 21.84375 63.234375 
Q 18.3125 60.0625 18.3125 54.390625 
z
" id="DejaVuSans-56"/>
       </defs>
       <use xlink:href="#DejaVuSans-48"/>
       <use x="63.623047" xlink:href="#DejaVuSans-46"/>
       <use x="95.410156" xlink:href="#DejaVuSans-56"/>
      </g>
     </g>
    </g>
    <g id="xtick_6">
     <g id="line2d_6">
      <g>
       <use style="stroke:#000000;stroke-width:0.8;" x="398.487273" xlink:href="#m15b1804321" y="307.584"/>
      </g>
     </g>
     <g id="text_6">
      <!-- 1.0 -->
      <g transform="translate(390.53571 322.182437)scale(0.1 -0.1)">
       <defs>
        <path d="M 12.40625 8.296875 
L 28.515625 8.296875 
L 28.515625 63.921875 
L 10.984375 60.40625 
L 10.984375 69.390625 
L 28.421875 72.90625 
L 38.28125 72.90625 
L 38.28125 8.296875 
L 54.390625 8.296875 
L 54.390625 0 
L 12.40625 0 
z
" id="DejaVuSans-49"/>
       </defs>
       <use xlink:href="#DejaVuSans-49"/>
       <use x="63.623047" xlink:href="#DejaVuSans-46"/>
       <use x="95.410156" xlink:href="#DejaVuSans-48"/>
      </g>
     </g>
    </g>
   </g>
   <g id="matplotlib.axis_2">
    <g id="ytick_1">
     <g id="line2d_7">
      <defs>
       <path d="M 0 0 
L -3.5 0 
" id="m9a34c68a51" style="stroke:#000000;stroke-width:0.8;"/>
      </defs>
      <g>
       <use style="stroke:#000000;stroke-width:0.8;" x="57.6" xlink:href="#m9a34c68a51" y="292.231113"/>
      </g>
     </g>
     <g id="text_7">
      <!-- 3 -->
      <g transform="translate(44.2375 296.030332)scale(0.1 -0.1)">
       <defs>
        <path d="M 40.578125 39.3125 
Q 47.65625 37.796875 51.625 33 
Q 55.609375 28.21875 55.609375 21.1875 
Q 55.609375 10.40625 48.1875 4.484375 
Q 40.765625 -1.421875 27.09375 -1.421875 
Q 22.515625 -1.421875 17.65625 -0.515625 
Q 12.796875 0.390625 7.625 2.203125 
L 7.625 11.71875 
Q 11.71875 9.328125 16.59375 8.109375 
Q 21.484375 6.890625 26.8125 6.890625 
Q 36.078125 6.890625 40.9375 10.546875 
Q 45.796875 14.203125 45.796875 21.1875 
Q 45.796875 27.640625 41.28125 31.265625 
Q 36.765625 34.90625 28.71875 34.90625 
L 20.21875 34.90625 
L 20.21875 43.015625 
L 29.109375 43.015625 
Q 36.375 43.015625 40.234375 45.921875 
Q 44.09375 48.828125 44.09375 54.296875 
Q 44.09375 59.90625 40.109375 62.90625 
Q 36.140625 65.921875 28.71875 65.921875 
Q 24.65625 65.921875 20.015625 65.03125 
Q 15.375 64.15625 9.8125 62.3125 
L 9.8125 71.09375 
Q 15.4375 72.65625 20.34375 73.4375 
Q 25.25 74.21875 29.59375 74.21875 
Q 40.828125 74.21875 47.359375 69.109375 
Q 53.90625 64.015625 53.90625 55.328125 
Q 53.90625 49.265625 50.4375 45.09375 
Q 46.96875 40.921875 40.578125 39.3125 
z
" id="DejaVuSans-51"/>
       </defs>
       <use xlink:href="#DejaVuSans-51"/>
      </g>
     </g>
    </g>
    <g id="ytick_2">
     <g id="line2d_8">
      <g>
       <use style="stroke:#000000;stroke-width:0.8;" x="57.6" xlink:href="#m9a34c68a51" y="244.498491"/>
      </g>
     </g>
     <g id="text_8">
      <!-- 4 -->
      <g transform="translate(44.2375 248.297709)scale(0.1 -0.1)">
       <use xlink:href="#DejaVuSans-52"/>
      </g>
     </g>
    </g>
    <g id="ytick_3">
     <g id="line2d_9">
      <g>
       <use style="stroke:#000000;stroke-width:0.8;" x="57.6" xlink:href="#m9a34c68a51" y="196.765868"/>
      </g>
     </g>
     <g id="text_9">
      <!-- 5 -->
      <g transform="translate(44.2375 200.565087)scale(0.1 -0.1)">
       <defs>
        <path d="M 10.796875 72.90625 
L 49.515625 72.90625 
L 49.515625 64.59375 
L 19.828125 64.59375 
L 19.828125 46.734375 
Q 21.96875 47.46875 24.109375 47.828125 
Q 26.265625 48.1875 28.421875 48.1875 
Q 40.625 48.1875 47.75 41.5 
Q 54.890625 34.8125 54.890625 23.390625 
Q 54.890625 11.625 47.5625 5.09375 
Q 40.234375 -1.421875 26.90625 -1.421875 
Q 22.3125 -1.421875 17.546875 -0.640625 
Q 12.796875 0.140625 7.71875 1.703125 
L 7.71875 11.625 
Q 12.109375 9.234375 16.796875 8.0625 
Q 21.484375 6.890625 26.703125 6.890625 
Q 35.15625 6.890625 40.078125 11.328125 
Q 45.015625 15.765625 45.015625 23.390625 
Q 45.015625 31 40.078125 35.4375 
Q 35.15625 39.890625 26.703125 39.890625 
Q 22.75 39.890625 18.8125 39.015625 
Q 14.890625 38.140625 10.796875 36.28125 
z
" id="DejaVuSans-53"/>
       </defs>
       <use xlink:href="#DejaVuSans-53"/>
      </g>
     </g>
    </g>
    <g id="ytick_4">
     <g id="line2d_10">
      <g>
       <use style="stroke:#000000;stroke-width:0.8;" x="57.6" xlink:href="#m9a34c68a51" y="149.033245"/>
      </g>
     </g>
     <g id="text_10">
      <!-- 6 -->
      <g transform="translate(44.2375 152.832464)scale(0.1 -0.1)">
       <use xlink:href="#DejaVuSans-54"/>
      </g>
     </g>
    </g>
    <g id="ytick_5">
     <g id="line2d_11">
      <g>
       <use style="stroke:#000000;stroke-width:0.8;" x="57.6" xlink:href="#m9a34c68a51" y="101.300623"/>
      </g>
     </g>
     <g id="text_11">
      <!-- 7 -->
      <g transform="translate(44.2375 105.099841)scale(0.1 -0.1)">
       <defs>
        <path d="M 8.203125 72.90625 
L 55.078125 72.90625 
L 55.078125 68.703125 
L 28.609375 0 
L 18.3125 0 
L 43.21875 64.59375 
L 8.203125 64.59375 
z
" id="DejaVuSans-55"/>
       </defs>
       <use xlink:href="#DejaVuSans-55"/>
      </g>
     </g>
    </g>
    <g id="ytick_6">
     <g id="line2d_12">
      <g>
       <use style="stroke:#000000;stroke-width:0.8;" x="57.6" xlink:href="#m9a34c68a51" y="53.568"/>
      </g>
     </g>
     <g id="text_12">
      <!-- 8 -->
      <g transform="translate(44.2375 57.367219)scale(0.1 -0.1)">
       <use xlink:href="#DejaVuSans-56"/>
      </g>
     </g>
    </g>
   </g>
   <g id="line2d_13">
    <path clip-path="url(#pcb115b61b2)" d="M 73.832727 53.568 
L 96.086515 53.629826 
L 98.178733 74.020707 
L 99.700339 86.560904 
L 101.221936 97.374165 
L 102.363127 104.059878 
L 103.314121 108.419441 
L 105.02588 114.199045 
L 105.216084 114.404577 
L 105.596471 114.404577 
L 105.786656 114.237687 
L 106.167046 113.465825 
L 106.92783 110.912232 
L 107.498428 108.019031 
L 108.25922 102.675505 
L 109.210212 94.079678 
L 110.161219 83.414458 
L 111.302429 67.799283 
L 112.253442 53.568 
L 148.582332 53.568 
L 149.15294 63.346733 
L 150.674554 88.879806 
L 152.196152 110.977077 
L 153.90793 132.72785 
L 156.570618 163.51477 
L 158.662605 184.759518 
L 159.993843 196.006354 
L 160.944624 202.863779 
L 161.515138 205.604888 
L 161.895438 206.601934 
L 162.085521 206.800575 
L 162.655999 206.811143 
L 162.84608 206.655338 
L 163.036283 206.262959 
L 163.416587 204.608553 
L 163.987035 200.422015 
L 164.747735 192.352403 
L 165.508473 181.875683 
L 166.459447 165.29143 
L 167.410438 144.627731 
L 168.361453 119.207442 
L 168.741861 109.057267 
L 169.692874 132.98016 
L 170.643875 151.679954 
L 171.404654 163.137949 
L 172.165408 171.586954 
L 172.735924 175.628167 
L 173.116269 177.030917 
L 173.496602 177.435479 
L 174.067134 177.376003 
L 174.257266 177.140933 
L 174.44747 176.633653 
L 174.827819 174.716423 
L 176.159062 165.322017 
L 177.110013 156.584363 
L 178.251162 143.543689 
L 179.392338 127.941289 
L 180.723731 106.360531 
L 181.864945 84.440291 
L 183.006165 58.584811 
L 183.196368 53.846715 
L 183.386572 53.568 
L 184.147386 53.568 
L 184.527793 60.607762 
L 185.669013 85.901483 
L 189.473047 185.308208 
L 190.804392 212.228853 
L 192.51589 241.976182 
L 194.607327 273.956363 
L 195.177353 280.683012 
L 195.557343 282.89688 
L 195.937214 282.89688 
L 196.127417 282.778471 
L 196.317163 282.21391 
L 196.507367 280.844693 
L 197.077423 273.340106 
L 197.837907 260.522032 
L 198.978889 236.611046 
L 200.120033 207.57733 
L 201.071042 179.377996 
L 202.022053 212.746086 
L 202.973029 239.007039 
L 204.114045 263.793367 
L 205.064566 280.291315 
L 205.8248 290.784559 
L 206.204806 294.192813 
L 206.584701 295.381497 
L 206.964553 295.488 
L 207.724292 295.454469 
L 207.914496 295.137573 
L 208.104235 294.521732 
L 208.484292 291.500409 
L 209.054657 283.109972 
L 210.00527 264.263095 
L 210.765987 245.27621 
L 211.52678 220.403393 
L 211.716983 212.728427 
L 212.287589 231.203734 
L 212.85818 245.870063 
L 213.428669 254.582126 
L 213.808961 256.841498 
L 214.379419 256.879592 
L 214.569477 256.812192 
L 214.759681 256.373605 
L 215.330064 253.509956 
L 216.471007 247.069555 
L 216.661211 246.810268 
L 217.421855 250.588576 
L 218.372613 255.590011 
L 218.752926 256.914517 
L 219.133233 257.486529 
L 219.513536 257.486529 
L 219.70374 257.332858 
L 219.89385 257.01156 
L 220.27418 255.488941 
L 220.844725 251.773137 
L 221.415234 246.561277 
L 222.175984 237.238521 
L 223.317148 220.632351 
L 224.648545 197.527901 
L 225.789756 173.549229 
L 226.930975 144.384823 
L 228.2624 111.658869 
L 229.593825 84.013507 
L 231.115453 56.934316 
L 231.305657 53.803598 
L 231.495861 53.568 
L 286.084167 53.568 
L 287.415585 77.033229 
L 287.795985 81.582729 
L 287.986189 82.447766 
L 288.366577 82.546306 
L 288.746963 82.509194 
L 289.127354 81.58215 
L 289.697936 79.358035 
L 290.458726 75.324346 
L 291.409724 68.677527 
L 292.550922 58.798885 
L 293.121522 53.568 
L 303.963092 53.568 
L 307.196503 98.380372 
L 308.527895 114.31324 
L 309.859252 127.598428 
L 311.000401 136.850271 
L 311.951358 142.866764 
L 312.712099 146.142894 
L 313.282625 147.893807 
L 313.662985 148.588132 
L 314.043341 148.815678 
L 314.804052 148.764385 
L 315.184412 148.315174 
L 315.564776 147.352906 
L 316.325512 144.476849 
L 317.086258 140.636976 
L 318.037217 134.501212 
L 319.368549 124.046468 
L 320.890107 110.469915 
L 322.792081 91.326202 
L 324.884281 67.566753 
L 326.025487 53.568 
L 339.14946 53.568 
L 339.339664 53.881853 
L 339.91026 58.613107 
L 340.290663 63.314154 
L 340.861272 73.622591 
L 341.622086 93.156654 
L 342.573101 116.56107 
L 343.524109 135.033254 
L 344.2849 146.455701 
L 345.045672 154.629416 
L 345.616219 158.873625 
L 345.996585 160.618702 
L 346.376941 161.206278 
L 347.137646 161.103153 
L 347.518006 160.457153 
L 348.088573 158.533848 
L 348.659106 155.793338 
L 349.229685 152.077328 
L 350.561009 140.945027 
L 351.702177 129.431216 
L 353.033566 113.622003 
L 354.174764 97.800463 
L 354.745366 106.807917 
L 355.506174 122.257924 
L 356.266985 141.482646 
L 357.027799 166.441774 
L 357.978814 197.375095 
L 358.929778 221.734881 
L 360.070822 244.92428 
L 361.211672 264.015852 
L 362.162283 276.913995 
L 362.542421 280.420876 
L 362.732284 281.415315 
L 362.922488 281.731449 
L 363.302464 281.822197 
L 363.49223 281.822197 
L 363.682434 281.001431 
L 365.203045 266.00073 
L 366.533918 248.817175 
L 368.055313 222.3908 
L 368.816091 204.559032 
L 370.527901 159.58741 
L 371.098496 149.201684 
L 371.2887 149.96057 
L 372.620073 167.494014 
L 373.761236 180.187269 
L 375.472965 196.05326 
L 376.0435 199.195659 
L 376.423861 200.012826 
L 376.804216 200.012826 
L 376.994419 199.676101 
L 377.374785 198.014086 
L 377.755156 195.632171 
L 378.135534 192.067189 
L 378.706112 183.724925 
L 379.276715 172.04114 
L 380.037525 151.397852 
L 381.93956 95.828761 
L 383.461189 58.364509 
L 383.651392 54.038327 
L 383.841596 53.568 
L 398.487273 53.568 
L 398.487273 53.568 
" style="fill:none;stroke:#1f77b4;stroke-linecap:square;stroke-width:1.5;"/>
   </g>
   <g id="line2d_14">
    <path clip-path="url(#pcb115b61b2)" d="M 73.832727 53.913301 
L 76.707025 53.704836 
L 81.852639 53.594112 
L 95.778288 53.580009 
L 96.080657 54.628946 
L 96.830876 59.646589 
L 96.830876 59.646589 
L 98.724202 76.369214 
L 102.016447 100.64603 
L 102.67626 104.248745 
L 103.589317 108.282166 
L 105.004579 113.153389 
L 105.004579 113.153389 
L 105.387449 113.70839 
L 105.642441 113.829169 
L 106.279975 113.646724 
L 106.790507 113.185215 
L 107.174019 112.618558 
L 107.68667 111.524154 
L 108.330567 109.446781 
L 108.849105 107.19231 
L 109.503055 103.627291 
L 110.566562 96.172517 
L 111.51942 87.602704 
L 112.925238 74.704775 
L 112.925238 74.704775 
L 113.789848 69.347449 
L 114.665509 65.347991 
L 114.665509 65.347991 
L 115.549419 62.362235 
L 116.439488 60.133249 
L 116.439488 60.133249 
L 117.334155 58.469221 
L 118.232254 57.226958 
L 118.232254 57.226958 
L 119.283227 56.169673 
L 120.336686 55.417899 
L 121.542772 54.820811 
L 123.052522 54.337675 
L 123.052522 54.337675 
L 124.866167 53.996957 
L 124.866167 53.996957 
L 127.43746 53.755383 
L 131.674633 53.615897 
L 142.118661 53.569661 
L 148.173376 53.568237 
L 148.324641 54.087019 
L 148.925713 59.226758 
L 150.233309 78.895261 
L 150.233309 78.895261 
L 151.469762 98.658132 
L 154.354651 137.441881 
L 154.354651 137.441881 
L 155.168292 146.926183 
L 156.065819 157.719501 
L 157.457682 172.628211 
L 157.457682 172.628211 
L 158.176018 180.197497 
L 160.692068 201.062681 
L 161.51992 205.269091 
L 161.88407 206.145609 
L 162.247275 206.524933 
L 162.519417 206.605521 
L 162.882308 206.480329 
L 163.245637 206.038715 
L 163.701322 204.86801 
L 164.159972 203.077609 
L 164.622785 200.624631 
L 164.622785 200.624631 
L 165.37595 194.895939 
L 165.37595 194.895939 
L 166.348816 184.552293 
L 167.265692 171.613869 
L 169.03261 143.852883 
L 169.380444 142.187281 
L 169.613075 141.903451 
L 169.613075 141.903451 
L 169.729436 141.862835 
L 170.077515 143.909145 
L 170.077515 143.909145 
L 172.378113 172.049918 
L 172.793384 174.760729 
L 173.205367 176.259977 
L 173.6157 176.918653 
L 173.923009 177.052213 
L 173.923009 177.052213 
L 174.332774 176.900399 
L 174.332774 176.900399 
L 174.743051 176.396554 
L 174.743051 176.396554 
L 175.25755 175.173507 
L 176.087374 172.158859 
L 176.82287 168.3689 
L 176.82287 168.3689 
L 177.786733 161.812773 
L 178.889336 152.31111 
L 180.388962 135.750124 
L 180.388962 135.750124 
L 181.358706 123.068624 
L 181.358706 123.068624 
L 184.130509 83.138194 
L 184.551127 80.626737 
L 184.551127 80.626737 
L 184.832826 79.691269 
L 184.973867 79.548792 
L 185.255778 80.095451 
L 185.536458 83.061523 
L 186.222116 97.270683 
L 186.222116 97.270683 
L 186.876176 113.806414 
L 188.310955 152.952968 
L 190.705288 209.321693 
L 191.732534 228.949832 
L 193.118956 252.310028 
L 193.615385 260.414004 
L 195.046936 280.0072 
L 195.046936 280.0072 
L 195.352796 281.890551 
L 195.656345 282.523905 
L 195.838106 282.592627 
L 196.019896 282.476024 
L 196.019896 282.476024 
L 196.201936 282.149116 
L 196.506722 281.041326 
L 196.506722 281.041326 
L 196.752456 279.790133 
L 196.752456 279.790133 
L 197.37895 274.531911 
L 197.964999 267.319384 
L 198.650842 257.017257 
L 199.768794 236.766157 
L 199.768794 236.766157 
L 201.026231 212.48472 
L 201.292656 210.550534 
L 201.471081 210.193665 
L 201.471081 210.193665 
L 201.649279 211.072267 
L 202.086475 219.494861 
L 202.981224 241.237581 
L 203.785027 260.098315 
L 205.015581 282.543025 
L 205.015581 282.543025 
L 205.372775 287.601607 
L 206.114127 294.31414 
L 206.448578 295.144988 
L 206.78186 295.391265 
L 207.281268 295.452554 
L 207.281268 295.452554 
L 207.614322 295.288981 
L 207.948396 294.53988 
L 207.948396 294.53988 
L 208.172416 293.680424 
L 208.172416 293.680424 
L 208.684411 289.784896 
L 209.034926 286.102253 
L 209.518257 279.582745 
L 210.288947 266.512931 
L 211.059638 249.847685 
L 211.434895 243.081235 
L 211.741985 240.721116 
L 211.896495 240.354312 
L 212.128079 240.964347 
L 212.128079 240.964347 
L 213.454472 255.726762 
L 213.809765 256.478118 
L 214.09334 256.622365 
L 214.376949 256.468619 
L 214.803264 255.792894 
L 215.303447 254.451812 
L 215.303447 254.451812 
L 216.317566 251.139082 
L 216.683307 250.719755 
L 216.829746 250.707577 
L 217.340439 252.260647 
L 217.340439 252.260647 
L 218.62753 257.045178 
L 218.980745 257.332826 
L 219.404369 257.246371 
L 219.687044 257.011045 
L 220.183397 255.972646 
L 220.183397 255.972646 
L 220.540242 254.710495 
L 221.044923 252.207786 
L 221.044923 252.207786 
L 221.856071 246.146685 
L 222.69886 237.725244 
L 223.418735 229.277549 
L 224.430991 215.402097 
L 226.19266 185.74784 
L 230.309415 106.232202 
L 231.244453 91.268643 
L 232.074896 81.71304 
L 232.92505 74.5794 
L 233.789918 69.253852 
L 234.665771 65.278117 
L 235.549825 62.310071 
L 236.440001 60.094306 
L 237.334747 58.440149 
L 238.232906 57.205254 
L 239.283929 56.154241 
L 239.283929 56.154241 
L 240.337423 55.406926 
L 241.543538 54.81338 
L 243.053309 54.33311 
L 245.018173 53.974137 
L 247.740868 53.736978 
L 247.740868 53.736978 
L 252.129502 53.609139 
L 263.784514 53.568966 
L 285.430145 53.568001 
L 285.581378 54.249615 
L 285.882453 57.287828 
L 285.882453 57.287828 
L 287.484944 77.499912 
L 287.909051 79.866436 
L 288.190571 80.709902 
L 288.190571 80.709902 
L 288.471663 81.010151 
L 288.893174 80.890694 
L 289.314953 80.551924 
L 289.314953 80.551924 
L 289.878282 79.663684 
L 289.878282 79.663684 
L 290.726892 77.442865 
L 291.438994 74.722902 
L 292.591864 68.820497 
L 293.468607 64.9546 
L 294.353326 62.068553 
L 295.243999 59.914003 
L 296.139117 58.305546 
L 297.037554 57.104768 
L 298.088814 56.082791 
L 298.088814 56.082791 
L 299.142478 55.356122 
L 300.348726 54.778973 
L 301.858606 54.311972 
L 303.21877 54.047884 
L 303.671515 55.633637 
L 304.120753 60.044681 
L 304.120753 60.044681 
L 304.564421 64.940172 
L 307.743407 107.088544 
L 310.239614 132.419046 
L 311.888409 143.260771 
L 311.888409 143.260771 
L 312.579654 146.126093 
L 313.037214 147.464217 
L 313.493125 148.228781 
L 313.948199 148.566024 
L 314.402961 148.61804 
L 314.857804 148.481214 
L 315.19916 148.236055 
L 315.654915 147.70429 
L 316.340697 146.364064 
L 316.915108 144.75677 
L 316.915108 144.75677 
L 317.609294 142.231708 
L 318.545756 137.842609 
L 319.980819 129.282418 
L 321.211423 120.422868 
L 321.211423 120.422868 
L 323.262335 103.085479 
L 323.262335 103.085479 
L 324.741026 89.198838 
L 326.283443 74.904962 
L 327.147639 69.496897 
L 327.147639 69.496897 
L 328.022991 65.45956 
L 328.90667 62.445526 
L 328.90667 62.445526 
L 329.796567 60.195428 
L 330.691106 58.515641 
L 330.691106 58.515641 
L 331.589109 57.261612 
L 332.640001 56.194314 
L 333.693402 55.43542 
L 333.693402 55.43542 
L 334.899442 54.832676 
L 334.899442 54.832676 
L 336.409153 54.344965 
L 338.222769 54.00102 
L 338.67639 53.957063 
L 339.129569 54.872466 
L 339.129569 54.872466 
L 339.580674 57.362196 
L 339.879434 59.981461 
L 340.468404 68.183637 
L 341.181774 83.370013 
L 342.38319 113.031403 
L 343.371511 133.614284 
L 344.41833 149.1549 
L 344.41833 149.1549 
L 344.979792 154.849311 
L 345.421995 157.972699 
L 345.86031 159.797468 
L 346.296623 160.599633 
L 346.623297 160.789665 
L 346.623297 160.789665 
L 346.949886 160.771071 
L 347.385522 160.525587 
L 347.821761 160.016755 
L 348.259006 159.257012 
L 348.917948 157.33077 
L 349.582475 154.604404 
L 350.707442 148.318739 
L 351.511662 142.694036 
L 351.511662 142.694036 
L 352.931988 130.467055 
L 352.931988 130.467055 
L 354.16424 119.621333 
L 354.540525 118.538192 
L 354.79177 118.494596 
L 354.917259 119.210379 
L 354.917259 119.210379 
L 355.536773 127.195138 
L 356.250304 144.684925 
L 357.720707 194.158635 
L 359.364239 236.51337 
L 359.364239 236.51337 
L 360.552378 258.863811 
L 360.552378 258.863811 
L 362.121214 279.678319 
L 362.121214 279.678319 
L 362.428352 281.03371 
L 362.733761 281.547607 
L 362.97762 281.644282 
L 363.160565 281.472716 
L 363.405069 280.886502 
L 363.650813 279.943472 
L 364.52665 274.893995 
L 365.04193 270.80782 
L 365.910732 262.472321 
L 365.910732 262.472321 
L 367.199328 246.322935 
L 368.542393 224.480487 
L 370.754235 181.171816 
L 371.264041 175.70636 
L 371.264041 175.70636 
L 371.677964 173.323705 
L 371.677964 173.323705 
L 371.990243 172.430301 
L 372.303195 172.174951 
L 372.407549 172.16636 
L 372.719935 173.490794 
L 375.584374 197.823356 
L 376.053719 199.227949 
L 376.053719 199.227949 
L 376.334377 199.53197 
L 376.614896 199.501492 
L 376.989228 199.139489 
L 377.364447 198.371888 
L 377.835913 196.550648 
L 378.216365 194.241807 
L 378.698239 190.120304 
L 378.698239 190.120304 
L 379.390136 181.476884 
L 380.005636 171.240043 
L 382.032644 129.496249 
L 383.831523 94.40863 
L 384.65549 84.057166 
L 385.500809 76.329384 
L 386.362068 70.560285 
L 387.235227 66.253421 
L 388.117269 63.038175 
L 389.005943 60.637865 
L 389.899569 58.845938 
L 390.796891 57.508192 
L 391.847203 56.369642 
L 391.847203 56.369642 
L 392.900191 55.560086 
L 394.105903 54.917104 
L 395.464319 54.438212 
L 395.464319 54.438212 
L 397.277602 54.052988 
L 397.277602 54.052988 
L 398.487273 53.89645 
L 398.487273 53.89645 
" style="fill:none;stroke:#ff7f0e;stroke-linecap:square;stroke-width:1.5;"/>
   </g>
   <g id="line2d_15">
    <path clip-path="url(#pcb115b61b2)" d="M 73.832727 53.990034 
L 76.395675 53.752359 
L 80.619062 53.615124 
L 91.029065 53.569634 
L 96.309671 53.58001 
L 96.611054 54.628947 
L 96.911484 55.976571 
L 97.655488 61.771296 
L 100.231381 84.172523 
L 100.231381 84.172523 
L 102.66622 101.065943 
L 103.714177 106.450076 
L 105.514903 113.012303 
L 105.514903 113.012303 
L 105.896643 113.665208 
L 106.27787 113.872255 
L 106.786146 113.720391 
L 107.167617 113.433336 
L 107.549529 112.964522 
L 107.549529 112.964522 
L 107.93212 112.281966 
L 108.443768 111.014053 
L 109.086807 108.701899 
L 109.086807 108.701899 
L 109.735122 105.668607 
L 110.654739 99.878257 
L 110.654739 99.878257 
L 111.72868 91.003424 
L 111.72868 91.003424 
L 113.971958 71.525899 
L 113.971958 71.525899 
L 114.840287 66.974291 
L 115.717974 63.576333 
L 115.717974 63.576333 
L 116.602647 61.039622 
L 117.492536 59.145865 
L 117.492536 59.145865 
L 118.386318 57.7321 
L 119.283007 56.676667 
L 119.283007 56.676667 
L 120.331846 55.778393 
L 121.53306 55.064949 
L 122.886625 54.533577 
L 122.886625 54.533577 
L 124.543001 54.133003 
L 126.803751 53.840072 
L 130.121551 53.661156 
L 130.121551 53.661156 
L 136.608516 53.579466 
L 148.678429 53.568233 
L 148.829202 54.087016 
L 148.829202 54.087016 
L 149.129584 56.737273 
L 150.302158 72.955689 
L 151.555305 93.05543 
L 154.943543 139.408545 
L 155.748742 149.110067 
L 156.417778 156.898629 
L 158.220279 176.517487 
L 158.220279 176.517487 
L 159.026221 184.431256 
L 159.026221 184.431256 
L 159.80815 191.389819 
L 159.80815 191.389819 
L 160.663375 198.320312 
L 161.587974 203.953548 
L 162.043437 205.645084 
L 162.043437 205.645084 
L 162.405996 206.308619 
L 162.405996 206.308619 
L 162.767848 206.565401 
L 162.767848 206.565401 
L 163.129519 206.565409 
L 163.129519 206.565409 
L 163.491395 206.299718 
L 163.491395 206.299718 
L 163.853978 205.660061 
L 163.853978 205.660061 
L 164.309215 204.193033 
L 164.860131 201.712743 
L 165.606538 196.533647 
L 166.470372 187.989332 
L 166.470372 187.989332 
L 167.166213 179.386033 
L 168.101421 164.824905 
L 168.101421 164.824905 
L 169.209364 146.145863 
L 169.669523 142.869255 
L 170.016959 141.908466 
L 170.132938 141.867611 
L 170.47988 143.911682 
L 172.77298 172.049948 
L 173.186898 174.760742 
L 173.597537 176.259982 
L 174.006531 176.918655 
L 174.312837 177.052215 
L 174.721266 176.9004 
L 175.130206 176.396555 
L 175.642992 175.232998 
L 176.469957 172.199148 
L 177.308453 167.812694 
L 178.163072 162.073713 
L 179.485423 150.410912 
L 180.9914 133.270516 
L 181.966422 120.200939 
L 184.474871 83.613189 
L 184.893631 80.848837 
L 185.174245 79.892749 
L 185.455312 79.595865 
L 185.595845 79.888967 
L 185.875744 82.926116 
L 185.875744 82.926116 
L 186.152938 86.729846 
L 186.957522 105.569034 
L 186.957522 105.569034 
L 190.956973 207.014518 
L 193.948713 260.413741 
L 195.376692 279.999303 
L 195.681566 281.887801 
L 195.984126 282.545467 
L 196.225631 282.633775 
L 196.406786 282.511577 
L 196.648778 282.011261 
L 196.891936 281.065404 
L 197.136836 279.809948 
L 197.761228 274.544084 
L 197.761228 274.544084 
L 198.478196 265.935822 
L 199.604292 247.739995 
L 200.95263 220.013759 
L 200.95263 220.013759 
L 201.386532 212.561014 
L 201.652004 210.616455 
L 201.652004 210.616455 
L 201.829797 210.253466 
L 202.095944 211.422383 
L 202.531286 219.616789 
L 202.947179 230.378991 
L 203.494117 244.494281 
L 204.076426 257.653133 
L 204.553417 267.75778 
L 205.730666 287.427704 
L 205.730666 287.427704 
L 206.414276 293.986319 
L 206.414276 293.986319 
L 206.748104 295.039635 
L 207.080446 295.361554 
L 207.080446 295.361554 
L 207.522962 295.454808 
L 207.522962 295.454808 
L 207.910134 295.369318 
L 208.187051 295.072437 
L 208.187051 295.072437 
L 208.353626 294.664257 
L 208.632602 293.658975 
L 208.632602 293.658975 
L 209.200426 289.432232 
L 210.034728 279.070879 
L 210.034728 279.070879 
L 210.804749 266.227657 
L 210.804749 266.227657 
L 211.500867 251.525562 
L 211.948221 242.950396 
L 211.948221 242.950396 
L 212.254497 240.613443 
L 212.254497 240.613443 
L 212.408585 240.256635 
L 212.6395 240.912476 
L 213.890152 255.518521 
L 214.244541 256.405599 
L 214.527269 256.585685 
L 214.880682 256.430135 
L 214.880682 256.430135 
L 215.234786 255.886191 
L 215.876055 254.144075 
L 216.96128 250.838236 
L 217.326183 250.657808 
L 217.399186 250.654516 
L 217.763118 251.822576 
L 217.763118 251.822576 
L 218.553245 255.331071 
L 218.978444 256.681368 
L 219.330954 257.20613 
L 219.682842 257.337179 
L 220.105178 257.170059 
L 220.528387 256.537804 
L 220.953742 255.36373 
L 221.382675 253.50878 
L 221.743992 251.416928 
L 221.743992 251.416928 
L 222.257816 247.664816 
L 223.089977 239.916142 
L 223.799106 231.809625 
L 224.966312 216.301286 
L 226.043605 199.500794 
L 227.625322 169.471858 
L 230.656704 110.764013 
L 231.846755 91.364557 
L 231.846755 91.364557 
L 232.674295 81.784644 
L 233.521532 74.632855 
L 233.521532 74.632855 
L 234.383473 69.293758 
L 235.25639 65.307908 
L 235.25639 65.307908 
L 236.137502 62.332312 
L 237.024732 60.11091 
L 237.024732 60.11091 
L 237.91653 58.452544 
L 238.811737 57.214508 
L 238.811737 57.214508 
L 239.859314 56.160821 
L 240.909362 55.411605 
L 242.111534 54.816548 
L 243.616379 54.335056 
L 243.616379 54.335056 
L 245.424124 53.995497 
L 245.424124 53.995497 
L 247.987045 53.754746 
L 252.210416 53.615734 
L 262.620413 53.569656 
L 286.006026 53.568001 
L 286.457412 56.00501 
L 286.457412 56.00501 
L 287.051255 63.472747 
L 287.051255 63.472747 
L 288.20144 77.968126 
L 288.20144 77.968126 
L 288.623754 80.108019 
L 289.044319 80.96066 
L 289.464505 80.887371 
L 289.884917 80.549052 
L 289.884917 80.549052 
L 290.305862 79.982554 
L 291.009506 78.418989 
L 291.009506 78.418989 
L 291.575099 76.614475 
L 291.575099 76.614475 
L 292.28676 73.649465 
L 294.316098 64.071321 
L 295.199751 61.40915 
L 296.088878 59.421733 
L 296.982092 57.938046 
L 297.878357 56.830414 
L 298.926835 55.887714 
L 300.127762 55.138985 
L 301.481114 54.581332 
L 303.137329 54.160947 
L 303.890665 54.032758 
L 304.041271 54.461331 
L 304.041271 54.461331 
L 304.640492 58.595469 
L 304.640492 58.595469 
L 305.5215 69.360514 
L 306.65382 84.916422 
L 307.472112 95.652877 
L 307.472112 95.652877 
L 308.524486 109.15003 
L 308.524486 109.15003 
L 310.639619 130.555457 
L 312.059479 140.791734 
L 312.638372 143.812658 
L 313.212033 146.127384 
L 313.668102 147.464772 
L 314.122529 148.22902 
L 314.576122 148.566126 
L 315.029401 148.632128 
L 315.482743 148.492808 
L 315.822974 148.246073 
L 316.277229 147.712534 
L 317.07499 146.146168 
L 317.878277 143.685787 
L 317.878277 143.685787 
L 318.806299 139.787186 
L 318.806299 139.787186 
L 320.106185 132.546065 
L 321.073416 126.102926 
L 322.06241 118.795853 
L 324.11771 101.212854 
L 325.600263 87.065693 
L 326.860808 75.395968 
L 327.721179 69.863452 
L 328.592926 65.733208 
L 329.473164 62.649815 
L 330.359742 60.347939 
L 331.251053 58.629496 
L 332.145897 57.346609 
L 333.193166 56.25475 
L 334.242993 55.478393 
L 335.444992 54.861779 
L 336.949695 54.362844 
L 338.757341 54.010984 
L 339.360201 53.947473 
L 339.510876 54.200953 
L 339.510876 54.200953 
L 339.961696 56.047739 
L 340.260716 58.154061 
L 340.852176 64.724168 
L 341.571251 78.822206 
L 343.040584 114.906343 
L 344.605874 144.141044 
L 345.28606 152.426626 
L 345.28606 152.426626 
L 346.059887 158.33348 
L 346.496378 159.952619 
L 346.931098 160.665709 
L 347.256647 160.824755 
L 347.582144 160.77145 
L 348.016393 160.498017 
L 348.451254 159.994067 
L 348.778038 159.412972 
L 348.778038 159.412972 
L 349.324589 158.043742 
L 349.874499 156.016048 
L 350.764186 151.674471 
L 351.441549 147.590917 
L 351.441549 147.590917 
L 352.478266 139.893066 
L 353.424989 131.657676 
L 354.898241 118.939598 
L 355.148618 118.319991 
L 355.39932 118.116789 
L 355.77401 120.899029 
L 355.77401 120.899029 
L 356.3853 131.806407 
L 357.08276 151.023937 
L 358.32577 193.848845 
L 359.963503 236.757759 
L 361.486847 264.876055 
L 362.704178 279.726777 
L 363.010246 281.064563 
L 363.314621 281.558351 
L 363.314621 281.558351 
L 363.557674 281.649717 
L 363.557674 281.649717 
L 363.740017 281.477412 
L 363.983721 280.890366 
L 364.228661 279.946652 
L 365.227974 274.319768 
L 366.273583 265.19448 
L 366.960462 257.754185 
L 368.28406 240.001465 
L 369.416236 220.41054 
L 371.360015 182.03154 
L 371.866815 176.272501 
L 372.382097 173.271032 
L 372.382097 173.271032 
L 372.693417 172.38479 
L 373.005399 172.135628 
L 373.420189 173.998492 
L 374.735534 185.132557 
L 375.609734 193.640144 
L 375.609734 193.640144 
L 376.365896 198.23027 
L 376.365896 198.23027 
L 376.739859 199.246246 
L 376.739859 199.246246 
L 377.019587 199.541687 
L 377.299183 199.508631 
L 377.672289 199.145363 
L 378.046279 198.376722 
L 378.516202 196.554437 
L 378.89541 194.244925 
L 379.37571 190.122748 
L 379.37571 190.122748 
L 380.065348 181.478622 
L 380.678677 171.506074 
L 382.939943 124.756863 
L 384.486322 94.922703 
L 385.306548 84.440942 
L 386.148324 76.615888 
L 387.006188 70.774172 
L 387.876062 66.413097 
L 388.754903 63.157379 
L 389.640438 60.726856 
L 390.53097 58.912373 
L 391.425232 57.557788 
L 392.472006 56.404907 
L 392.472006 56.404907 
L 393.521481 55.58516 
L 394.7232 54.934086 
L 396.077142 54.449166 
L 396.077142 54.449166 
L 397.884478 54.059093 
L 397.884478 54.059093 
L 398.487273 53.972141 
L 398.487273 53.972141 
" style="fill:none;stroke:#2ca02c;stroke-linecap:square;stroke-width:1.5;"/>
   </g>
   <g id="patch_3">
    <path d="M 57.6 307.584 
L 57.6 41.472 
" style="fill:none;stroke:#000000;stroke-linecap:square;stroke-linejoin:miter;stroke-width:0.8;"/>
   </g>
   <g id="patch_4">
    <path d="M 414.72 307.584 
L 414.72 41.472 
" style="fill:none;stroke:#000000;stroke-linecap:square;stroke-linejoin:miter;stroke-width:0.8;"/>
   </g>
   <g id="patch_5">
    <path d="M 57.6 307.584 
L 414.72 307.584 
" style="fill:none;stroke:#000000;stroke-linecap:square;stroke-linejoin:miter;stroke-width:0.8;"/>
   </g>
   <g id="patch_6">
    <path d="M 57.6 41.472 
L 414.72 41.472 
" style="fill:none;stroke:#000000;stroke-linecap:square;stroke-linejoin:miter;stroke-width:0.8;"/>
   </g>
   <g id="text_13">
    <!-- mco speed -->
    <g transform="translate(203.310937 35.472)scale(0.12 -0.12)">
     <defs>
      <path d="M 52 44.1875 
Q 55.375 50.25 60.0625 53.125 
Q 64.75 56 71.09375 56 
Q 79.640625 56 84.28125 50.015625 
Q 88.921875 44.046875 88.921875 33.015625 
L 88.921875 0 
L 79.890625 0 
L 79.890625 32.71875 
Q 79.890625 40.578125 77.09375 44.375 
Q 74.3125 48.1875 68.609375 48.1875 
Q 61.625 48.1875 57.5625 43.546875 
Q 53.515625 38.921875 53.515625 30.90625 
L 53.515625 0 
L 44.484375 0 
L 44.484375 32.71875 
Q 44.484375 40.625 41.703125 44.40625 
Q 38.921875 48.1875 33.109375 48.1875 
Q 26.21875 48.1875 22.15625 43.53125 
Q 18.109375 38.875 18.109375 30.90625 
L 18.109375 0 
L 9.078125 0 
L 9.078125 54.6875 
L 18.109375 54.6875 
L 18.109375 46.1875 
Q 21.1875 51.21875 25.484375 53.609375 
Q 29.78125 56 35.6875 56 
Q 41.65625 56 45.828125 52.96875 
Q 50 49.953125 52 44.1875 
z
" id="DejaVuSans-109"/>
      <path d="M 48.78125 52.59375 
L 48.78125 44.1875 
Q 44.96875 46.296875 41.140625 47.34375 
Q 37.3125 48.390625 33.40625 48.390625 
Q 24.65625 48.390625 19.8125 42.84375 
Q 14.984375 37.3125 14.984375 27.296875 
Q 14.984375 17.28125 19.8125 11.734375 
Q 24.65625 6.203125 33.40625 6.203125 
Q 37.3125 6.203125 41.140625 7.25 
Q 44.96875 8.296875 48.78125 10.40625 
L 48.78125 2.09375 
Q 45.015625 0.34375 40.984375 -0.53125 
Q 36.96875 -1.421875 32.421875 -1.421875 
Q 20.0625 -1.421875 12.78125 6.34375 
Q 5.515625 14.109375 5.515625 27.296875 
Q 5.515625 40.671875 12.859375 48.328125 
Q 20.21875 56 33.015625 56 
Q 37.15625 56 41.109375 55.140625 
Q 45.0625 54.296875 48.78125 52.59375 
z
" id="DejaVuSans-99"/>
      <path d="M 30.609375 48.390625 
Q 23.390625 48.390625 19.1875 42.75 
Q 14.984375 37.109375 14.984375 27.296875 
Q 14.984375 17.484375 19.15625 11.84375 
Q 23.34375 6.203125 30.609375 6.203125 
Q 37.796875 6.203125 41.984375 11.859375 
Q 46.1875 17.53125 46.1875 27.296875 
Q 46.1875 37.015625 41.984375 42.703125 
Q 37.796875 48.390625 30.609375 48.390625 
z
M 30.609375 56 
Q 42.328125 56 49.015625 48.375 
Q 55.71875 40.765625 55.71875 27.296875 
Q 55.71875 13.875 49.015625 6.21875 
Q 42.328125 -1.421875 30.609375 -1.421875 
Q 18.84375 -1.421875 12.171875 6.21875 
Q 5.515625 13.875 5.515625 27.296875 
Q 5.515625 40.765625 12.171875 48.375 
Q 18.84375 56 30.609375 56 
z
" id="DejaVuSans-111"/>
      <path id="DejaVuSans-32"/>
      <path d="M 44.28125 53.078125 
L 44.28125 44.578125 
Q 40.484375 46.53125 36.375 47.5 
Q 32.28125 48.484375 27.875 48.484375 
Q 21.1875 48.484375 17.84375 46.4375 
Q 14.5 44.390625 14.5 40.28125 
Q 14.5 37.15625 16.890625 35.375 
Q 19.28125 33.59375 26.515625 31.984375 
L 29.59375 31.296875 
Q 39.15625 29.25 43.1875 25.515625 
Q 47.21875 21.78125 47.21875 15.09375 
Q 47.21875 7.46875 41.1875 3.015625 
Q 35.15625 -1.421875 24.609375 -1.421875 
Q 20.21875 -1.421875 15.453125 -0.5625 
Q 10.6875 0.296875 5.421875 2 
L 5.421875 11.28125 
Q 10.40625 8.6875 15.234375 7.390625 
Q 20.0625 6.109375 24.8125 6.109375 
Q 31.15625 6.109375 34.5625 8.28125 
Q 37.984375 10.453125 37.984375 14.40625 
Q 37.984375 18.0625 35.515625 20.015625 
Q 33.0625 21.96875 24.703125 23.78125 
L 21.578125 24.515625 
Q 13.234375 26.265625 9.515625 29.90625 
Q 5.8125 33.546875 5.8125 39.890625 
Q 5.8125 47.609375 11.28125 51.796875 
Q 16.75 56 26.8125 56 
Q 31.78125 56 36.171875 55.265625 
Q 40.578125 54.546875 44.28125 53.078125 
z
" id="DejaVuSans-115"/>
      <path d="M 18.109375 8.203125 
L 18.109375 -20.796875 
L 9.078125 -20.796875 
L 9.078125 54.6875 
L 18.109375 54.6875 
L 18.109375 46.390625 
Q 20.953125 51.265625 25.265625 53.625 
Q 29.59375 56 35.59375 56 
Q 45.5625 56 51.78125 48.09375 
Q 58.015625 40.1875 58.015625 27.296875 
Q 58.015625 14.40625 51.78125 6.484375 
Q 45.5625 -1.421875 35.59375 -1.421875 
Q 29.59375 -1.421875 25.265625 0.953125 
Q 20.953125 3.328125 18.109375 8.203125 
z
M 48.6875 27.296875 
Q 48.6875 37.203125 44.609375 42.84375 
Q 40.53125 48.484375 33.40625 48.484375 
Q 26.265625 48.484375 22.1875 42.84375 
Q 18.109375 37.203125 18.109375 27.296875 
Q 18.109375 17.390625 22.1875 11.75 
Q 26.265625 6.109375 33.40625 6.109375 
Q 40.53125 6.109375 44.609375 11.75 
Q 48.6875 17.390625 48.6875 27.296875 
z
" id="DejaVuSans-112"/>
      <path d="M 56.203125 29.59375 
L 56.203125 25.203125 
L 14.890625 25.203125 
Q 15.484375 15.921875 20.484375 11.0625 
Q 25.484375 6.203125 34.421875 6.203125 
Q 39.59375 6.203125 44.453125 7.46875 
Q 49.3125 8.734375 54.109375 11.28125 
L 54.109375 2.78125 
Q 49.265625 0.734375 44.1875 -0.34375 
Q 39.109375 -1.421875 33.890625 -1.421875 
Q 20.796875 -1.421875 13.15625 6.1875 
Q 5.515625 13.8125 5.515625 26.8125 
Q 5.515625 40.234375 12.765625 48.109375 
Q 20.015625 56 32.328125 56 
Q 43.359375 56 49.78125 48.890625 
Q 56.203125 41.796875 56.203125 29.59375 
z
M 47.21875 32.234375 
Q 47.125 39.59375 43.09375 43.984375 
Q 39.0625 48.390625 32.421875 48.390625 
Q 24.90625 48.390625 20.390625 44.140625 
Q 15.875 39.890625 15.1875 32.171875 
z
" id="DejaVuSans-101"/>
      <path d="M 45.40625 46.390625 
L 45.40625 75.984375 
L 54.390625 75.984375 
L 54.390625 0 
L 45.40625 0 
L 45.40625 8.203125 
Q 42.578125 3.328125 38.25 0.953125 
Q 33.9375 -1.421875 27.875 -1.421875 
Q 17.96875 -1.421875 11.734375 6.484375 
Q 5.515625 14.40625 5.515625 27.296875 
Q 5.515625 40.1875 11.734375 48.09375 
Q 17.96875 56 27.875 56 
Q 33.9375 56 38.25 53.625 
Q 42.578125 51.265625 45.40625 46.390625 
z
M 14.796875 27.296875 
Q 14.796875 17.390625 18.875 11.75 
Q 22.953125 6.109375 30.078125 6.109375 
Q 37.203125 6.109375 41.296875 11.75 
Q 45.40625 17.390625 45.40625 27.296875 
Q 45.40625 37.203125 41.296875 42.84375 
Q 37.203125 48.484375 30.078125 48.484375 
Q 22.953125 48.484375 18.875 42.84375 
Q 14.796875 37.203125 14.796875 27.296875 
z
" id="DejaVuSans-100"/>
     </defs>
     <use xlink:href="#DejaVuSans-109"/>
     <use x="97.412109" xlink:href="#DejaVuSans-99"/>
     <use x="152.392578" xlink:href="#DejaVuSans-111"/>
     <use x="213.574219" xlink:href="#DejaVuSans-32"/>
     <use x="245.361328" xlink:href="#DejaVuSans-115"/>
     <use x="297.460938" xlink:href="#DejaVuSans-112"/>
     <use x="360.9375" xlink:href="#DejaVuSans-101"/>
     <use x="422.460938" xlink:href="#DejaVuSans-101"/>
     <use x="483.984375" xlink:href="#DejaVuSans-100"/>
    </g>
   </g>
   <g id="legend_1">
    <g id="patch_7">
     <path d="M 64.6 302.584 
L 156.557813 302.584 
Q 158.557813 302.584 158.557813 300.584 
L 158.557813 257.549625 
Q 158.557813 255.549625 156.557813 255.549625 
L 64.6 255.549625 
Q 62.6 255.549625 62.6 257.549625 
L 62.6 300.584 
Q 62.6 302.584 64.6 302.584 
z
" style="fill:#ffffff;opacity:0.8;stroke:#cccccc;stroke-linejoin:miter;"/>
    </g>
    <g id="line2d_16">
     <path d="M 66.6 263.648062 
L 86.6 263.648062 
" style="fill:none;stroke:#1f77b4;stroke-linecap:square;stroke-width:1.5;"/>
    </g>
    <g id="line2d_17"/>
    <g id="text_14">
     <!-- Waypoints -->
     <g transform="translate(94.6 267.148062)scale(0.1 -0.1)">
      <defs>
       <path d="M 3.328125 72.90625 
L 13.28125 72.90625 
L 28.609375 11.28125 
L 43.890625 72.90625 
L 54.984375 72.90625 
L 70.3125 11.28125 
L 85.59375 72.90625 
L 95.609375 72.90625 
L 77.296875 0 
L 64.890625 0 
L 49.515625 63.28125 
L 33.984375 0 
L 21.578125 0 
z
" id="DejaVuSans-87"/>
       <path d="M 34.28125 27.484375 
Q 23.390625 27.484375 19.1875 25 
Q 14.984375 22.515625 14.984375 16.5 
Q 14.984375 11.71875 18.140625 8.90625 
Q 21.296875 6.109375 26.703125 6.109375 
Q 34.1875 6.109375 38.703125 11.40625 
Q 43.21875 16.703125 43.21875 25.484375 
L 43.21875 27.484375 
z
M 52.203125 31.203125 
L 52.203125 0 
L 43.21875 0 
L 43.21875 8.296875 
Q 40.140625 3.328125 35.546875 0.953125 
Q 30.953125 -1.421875 24.3125 -1.421875 
Q 15.921875 -1.421875 10.953125 3.296875 
Q 6 8.015625 6 15.921875 
Q 6 25.140625 12.171875 29.828125 
Q 18.359375 34.515625 30.609375 34.515625 
L 43.21875 34.515625 
L 43.21875 35.40625 
Q 43.21875 41.609375 39.140625 45 
Q 35.0625 48.390625 27.6875 48.390625 
Q 23 48.390625 18.546875 47.265625 
Q 14.109375 46.140625 10.015625 43.890625 
L 10.015625 52.203125 
Q 14.9375 54.109375 19.578125 55.046875 
Q 24.21875 56 28.609375 56 
Q 40.484375 56 46.34375 49.84375 
Q 52.203125 43.703125 52.203125 31.203125 
z
" id="DejaVuSans-97"/>
       <path d="M 32.171875 -5.078125 
Q 28.375 -14.84375 24.75 -17.8125 
Q 21.140625 -20.796875 15.09375 -20.796875 
L 7.90625 -20.796875 
L 7.90625 -13.28125 
L 13.1875 -13.28125 
Q 16.890625 -13.28125 18.9375 -11.515625 
Q 21 -9.765625 23.484375 -3.21875 
L 25.09375 0.875 
L 2.984375 54.6875 
L 12.5 54.6875 
L 29.59375 11.921875 
L 46.6875 54.6875 
L 56.203125 54.6875 
z
" id="DejaVuSans-121"/>
       <path d="M 9.421875 54.6875 
L 18.40625 54.6875 
L 18.40625 0 
L 9.421875 0 
z
M 9.421875 75.984375 
L 18.40625 75.984375 
L 18.40625 64.59375 
L 9.421875 64.59375 
z
" id="DejaVuSans-105"/>
       <path d="M 54.890625 33.015625 
L 54.890625 0 
L 45.90625 0 
L 45.90625 32.71875 
Q 45.90625 40.484375 42.875 44.328125 
Q 39.84375 48.1875 33.796875 48.1875 
Q 26.515625 48.1875 22.3125 43.546875 
Q 18.109375 38.921875 18.109375 30.90625 
L 18.109375 0 
L 9.078125 0 
L 9.078125 54.6875 
L 18.109375 54.6875 
L 18.109375 46.1875 
Q 21.34375 51.125 25.703125 53.5625 
Q 30.078125 56 35.796875 56 
Q 45.21875 56 50.046875 50.171875 
Q 54.890625 44.34375 54.890625 33.015625 
z
" id="DejaVuSans-110"/>
       <path d="M 18.3125 70.21875 
L 18.3125 54.6875 
L 36.8125 54.6875 
L 36.8125 47.703125 
L 18.3125 47.703125 
L 18.3125 18.015625 
Q 18.3125 11.328125 20.140625 9.421875 
Q 21.96875 7.515625 27.59375 7.515625 
L 36.8125 7.515625 
L 36.8125 0 
L 27.59375 0 
Q 17.1875 0 13.234375 3.875 
Q 9.28125 7.765625 9.28125 18.015625 
L 9.28125 47.703125 
L 2.6875 47.703125 
L 2.6875 54.6875 
L 9.28125 54.6875 
L 9.28125 70.21875 
z
" id="DejaVuSans-116"/>
      </defs>
      <use xlink:href="#DejaVuSans-87"/>
      <use x="92.501953" xlink:href="#DejaVuSans-97"/>
      <use x="153.78125" xlink:href="#DejaVuSans-121"/>
      <use x="212.960938" xlink:href="#DejaVuSans-112"/>
      <use x="276.4375" xlink:href="#DejaVuSans-111"/>
      <use x="337.619141" xlink:href="#DejaVuSans-105"/>
      <use x="365.402344" xlink:href="#DejaVuSans-110"/>
      <use x="428.78125" xlink:href="#DejaVuSans-116"/>
      <use x="467.990234" xlink:href="#DejaVuSans-115"/>
     </g>
    </g>
    <g id="line2d_18">
     <path d="M 66.6 278.326188 
L 86.6 278.326188 
" style="fill:none;stroke:#ff7f0e;stroke-linecap:square;stroke-width:1.5;"/>
    </g>
    <g id="line2d_19"/>
    <g id="text_15">
     <!-- Stanley -->
     <g transform="translate(94.6 281.826188)scale(0.1 -0.1)">
      <defs>
       <path d="M 53.515625 70.515625 
L 53.515625 60.890625 
Q 47.90625 63.578125 42.921875 64.890625 
Q 37.9375 66.21875 33.296875 66.21875 
Q 25.25 66.21875 20.875 63.09375 
Q 16.5 59.96875 16.5 54.203125 
Q 16.5 49.359375 19.40625 46.890625 
Q 22.3125 44.4375 30.421875 42.921875 
L 36.375 41.703125 
Q 47.40625 39.59375 52.65625 34.296875 
Q 57.90625 29 57.90625 20.125 
Q 57.90625 9.515625 50.796875 4.046875 
Q 43.703125 -1.421875 29.984375 -1.421875 
Q 24.8125 -1.421875 18.96875 -0.25 
Q 13.140625 0.921875 6.890625 3.21875 
L 6.890625 13.375 
Q 12.890625 10.015625 18.65625 8.296875 
Q 24.421875 6.59375 29.984375 6.59375 
Q 38.421875 6.59375 43.015625 9.90625 
Q 47.609375 13.234375 47.609375 19.390625 
Q 47.609375 24.75 44.3125 27.78125 
Q 41.015625 30.8125 33.5 32.328125 
L 27.484375 33.5 
Q 16.453125 35.6875 11.515625 40.375 
Q 6.59375 45.0625 6.59375 53.421875 
Q 6.59375 63.09375 13.40625 68.65625 
Q 20.21875 74.21875 32.171875 74.21875 
Q 37.3125 74.21875 42.625 73.28125 
Q 47.953125 72.359375 53.515625 70.515625 
z
" id="DejaVuSans-83"/>
       <path d="M 9.421875 75.984375 
L 18.40625 75.984375 
L 18.40625 0 
L 9.421875 0 
z
" id="DejaVuSans-108"/>
      </defs>
      <use xlink:href="#DejaVuSans-83"/>
      <use x="63.476562" xlink:href="#DejaVuSans-116"/>
      <use x="102.685547" xlink:href="#DejaVuSans-97"/>
      <use x="163.964844" xlink:href="#DejaVuSans-110"/>
      <use x="227.34375" xlink:href="#DejaVuSans-108"/>
      <use x="255.126953" xlink:href="#DejaVuSans-101"/>
      <use x="316.650391" xlink:href="#DejaVuSans-121"/>
     </g>
    </g>
    <g id="line2d_20">
     <path d="M 66.6 293.004312 
L 86.6 293.004312 
" style="fill:none;stroke:#2ca02c;stroke-linecap:square;stroke-width:1.5;"/>
    </g>
    <g id="line2d_21"/>
    <g id="text_16">
     <!-- Pure Pursuit -->
     <g transform="translate(94.6 296.504312)scale(0.1 -0.1)">
      <defs>
       <path d="M 19.671875 64.796875 
L 19.671875 37.40625 
L 32.078125 37.40625 
Q 38.96875 37.40625 42.71875 40.96875 
Q 46.484375 44.53125 46.484375 51.125 
Q 46.484375 57.671875 42.71875 61.234375 
Q 38.96875 64.796875 32.078125 64.796875 
z
M 9.8125 72.90625 
L 32.078125 72.90625 
Q 44.34375 72.90625 50.609375 67.359375 
Q 56.890625 61.8125 56.890625 51.125 
Q 56.890625 40.328125 50.609375 34.8125 
Q 44.34375 29.296875 32.078125 29.296875 
L 19.671875 29.296875 
L 19.671875 0 
L 9.8125 0 
z
" id="DejaVuSans-80"/>
       <path d="M 8.5 21.578125 
L 8.5 54.6875 
L 17.484375 54.6875 
L 17.484375 21.921875 
Q 17.484375 14.15625 20.5 10.265625 
Q 23.53125 6.390625 29.59375 6.390625 
Q 36.859375 6.390625 41.078125 11.03125 
Q 45.3125 15.671875 45.3125 23.6875 
L 45.3125 54.6875 
L 54.296875 54.6875 
L 54.296875 0 
L 45.3125 0 
L 45.3125 8.40625 
Q 42.046875 3.421875 37.71875 1 
Q 33.40625 -1.421875 27.6875 -1.421875 
Q 18.265625 -1.421875 13.375 4.4375 
Q 8.5 10.296875 8.5 21.578125 
z
M 31.109375 56 
z
" id="DejaVuSans-117"/>
       <path d="M 41.109375 46.296875 
Q 39.59375 47.171875 37.8125 47.578125 
Q 36.03125 48 33.890625 48 
Q 26.265625 48 22.1875 43.046875 
Q 18.109375 38.09375 18.109375 28.8125 
L 18.109375 0 
L 9.078125 0 
L 9.078125 54.6875 
L 18.109375 54.6875 
L 18.109375 46.1875 
Q 20.953125 51.171875 25.484375 53.578125 
Q 30.03125 56 36.53125 56 
Q 37.453125 56 38.578125 55.875 
Q 39.703125 55.765625 41.0625 55.515625 
z
" id="DejaVuSans-114"/>
      </defs>
      <use xlink:href="#DejaVuSans-80"/>
      <use x="58.552734" xlink:href="#DejaVuSans-117"/>
      <use x="121.931641" xlink:href="#DejaVuSans-114"/>
      <use x="160.794922" xlink:href="#DejaVuSans-101"/>
      <use x="222.318359" xlink:href="#DejaVuSans-32"/>
      <use x="254.105469" xlink:href="#DejaVuSans-80"/>
      <use x="312.658203" xlink:href="#DejaVuSans-117"/>
      <use x="376.037109" xlink:href="#DejaVuSans-114"/>
      <use x="417.150391" xlink:href="#DejaVuSans-115"/>
      <use x="469.25" xlink:href="#DejaVuSans-117"/>
      <use x="532.628906" xlink:href="#DejaVuSans-105"/>
      <use x="560.412109" xlink:href="#DejaVuSans-116"/>
     </g>
    </g>
   </g>
  </g>
 </g>
 <defs>
  <clipPath id="pcb115b61b2">
   <rect height="266.112" width="357.12" x="57.6" y="41.472"/>
  </clipPath>
 </defs>
</svg>
